<?xml version="1.0" encoding="UTF-8"?>
<svg version="1.1" xmlns="http://www.w3.org/2000/svg" width="512" height="512">
<path d="M0 0 C2.18817228 0.0025774 4.37632933 0.00194126 6.56450272 0.00118637 C70.19397996 0.0266552 70.19397996 0.0266552 80.67433548 9.04601669 C85.65672649 14.49197653 86.93795736 19.13195498 86.88307571 26.37829208 C86.60130832 32.10927304 85.6330418 37.72688914 84.67311478 43.37755966 C84.56335312 44.02829453 84.45359146 44.67902939 84.34050369 45.34948349 C77.03776737 88.20263107 61.28338197 131.77913803 31.73561478 164.37755966 C30.9028804 165.34177841 30.07014603 166.30599716 29.21217728 167.29943466 C23.5706315 173.74183078 17.50479729 179.14861143 10.73561478 184.37755966 C9.84616165 185.07494247 8.95670853 185.77232529 8.04030228 186.49084091 C5.94571141 188.12908674 3.84467282 189.75801139 1.73561478 191.37755966 C2.69596634 191.61087997 3.6563179 191.84420029 4.64577103 192.08459091 C24.33727496 197.1952322 42.25304174 206.18238372 57.73561478 219.37755966 C58.29313431 219.84693954 58.85065384 220.31631943 59.4250679 220.79992294 C66.69715563 226.98639805 72.98471377 233.75427228 78.73561478 241.37755966 C79.33889603 242.17677841 79.94217728 242.97599716 80.56373978 243.79943466 C106.43003607 279.45297821 118.63883537 325.08621215 118.97389603 368.77990341 C118.98368988 369.84315842 118.99348373 370.90641342 119.00357437 372.00188828 C119.1866346 397.07715227 118.6248155 421.58774143 114.73561478 446.37755966 C114.621996 447.10805527 114.50837723 447.83855087 114.39131546 448.59118271 C112.0799506 463.35102943 109.42530815 478.0572921 106.11061478 492.62755966 C105.92893753 493.44861191 105.74726028 494.26966415 105.56007767 495.11559677 C103.85329655 502.17034246 100.80506159 507.17563495 94.73561478 511.37755966 C62.0225432 522.28191685 8.06679086 497.63436122 -21.26438522 483.37755966 C-22.04732956 482.99905869 -22.8302739 482.62055771 -23.63694382 482.23058701 C-47.62860803 470.49061961 -69.03497947 454.82289178 -88.26438522 436.37755966 C-89.08809616 435.59509872 -89.9118071 434.81263779 -90.76047897 434.00646591 C-96.41865997 428.50518421 -101.37976635 422.56804957 -106.26438522 416.37755966 C-107.05715866 415.40173935 -107.8499321 414.42591904 -108.66672897 413.42052841 C-124.2324291 393.87118939 -148.26438522 359.9057389 -148.26438522 334.37755966 C-150.97431481 337.06734107 -153.65385339 339.77737407 -156.28782272 342.54162216 C-194.20973095 381.96904435 -249.14116353 390.91837435 -301.26438522 397.37755966 C-302.69186081 397.55762558 -302.69186081 397.55762558 -304.14817429 397.74132919 C-313.63291941 398.91166093 -323.08217088 399.59006712 -332.63938522 399.75255966 C-333.51401413 399.77866318 -334.38864304 399.80476669 -335.28977585 399.83166122 C-340.79814973 399.84673496 -343.88608475 399.02726776 -348.26438522 395.37755966 C-354.86183537 388.78010951 -355.92543326 378.90721264 -357.38938522 370.06505966 C-357.5611528 369.03961044 -357.73292038 368.01416122 -357.90989304 366.95763779 C-359.03458076 360.09595076 -360.06601925 353.33689928 -360.26438522 346.37755966 C-360.29016647 345.61669052 -360.31594772 344.85582138 -360.34251022 344.0718956 C-361.96041536 290.05408796 -344.55530669 236.83953771 -307.59641647 196.83849716 C-306.82684616 196.02638779 -306.05727585 195.21427841 -305.26438522 194.37755966 C-304.42262741 193.48295029 -303.5808696 192.58834091 -302.71360397 191.66662216 C-278.706853 166.86080423 -245.02760442 151.06752831 -210.33469772 150.19396591 C-184.9373228 149.8199138 -184.9373228 149.8199138 -174.26438522 153.37755966 C-174.2879509 152.21692001 -174.2879509 152.21692001 -174.31199265 151.0328331 C-174.58922284 135.24123975 -174.55671576 119.89550554 -171.26438522 104.37755966 C-171.12516647 103.70628036 -170.98594772 103.03500107 -170.84251022 102.34337997 C-166.77332583 83.45746629 -157.79723494 66.00707033 -145.26438522 51.37755966 C-144.59922897 50.56673935 -143.93407272 49.75591904 -143.24876022 48.92052841 C-119.16829691 20.6036873 -80.86271762 7.90876248 -45.26438522 2.37755966 C-44.24272263 2.1995079 -43.22106003 2.02145615 -42.16843796 1.83800888 C-28.21041371 -0.29239133 -14.08565696 -0.01736678 0 0 Z " fill="#000100" transform="translate(376.2643852233887,-0.3775596618652344)"/>
<path d="M0 0 C7.84505013 4.06774671 14.91529339 8.45560365 21.48608398 14.4140625 C22.28788086 15.08695313 23.08967773 15.75984375 23.91577148 16.453125 C60.32654347 47.64615396 73.78819168 98.36707463 77.48608398 144.4140625 C77.81384206 150.28650839 77.82585435 156.15919519 77.79858398 162.0390625 C77.79684677 163.2197934 77.79684677 163.2197934 77.79507446 164.42437744 C77.74782774 180.88975827 76.40278174 197.06965054 74.48608398 213.4140625 C74.26716918 215.41795075 74.04840725 217.42185571 73.82983398 219.42578125 C72.54464983 230.61552897 70.60386583 241.66910158 68.48608398 252.7265625 C68.29760391 253.71790695 68.29760391 253.71790695 68.10531616 254.72927856 C66.62966379 262.43377905 64.94296538 269.95956199 62.48608398 277.4140625 C51.78320177 276.4347891 41.23329018 275.31451682 30.73510742 272.92529297 C29.08373566 272.54991602 27.43044323 272.18296277 25.77612305 271.82080078 C-18.16447499 262.1613829 -61.05997459 243.64813085 -93.75219727 212.03515625 C-95.69321484 210.19297409 -97.60663546 208.48134086 -99.67016602 206.79296875 C-101.92366868 204.9078271 -103.81367759 203.14088531 -105.70141602 200.9140625 C-106.28665039 200.22441406 -106.87188477 199.53476562 -107.47485352 198.82421875 C-108.48418945 197.63119141 -108.48418945 197.63119141 -109.51391602 196.4140625 C-110.35180664 195.46402344 -111.18969727 194.51398438 -112.05297852 193.53515625 C-122.54477847 181.56138955 -130.97447022 168.42023778 -138.51391602 154.4140625 C-138.84101563 153.81045898 -139.16811523 153.20685547 -139.50512695 152.58496094 C-145.1961813 141.97461474 -149.55583699 130.98706607 -153.67700195 119.68554688 C-154.37190065 117.79950911 -155.09900509 115.92537431 -155.83422852 114.0546875 C-156.82008821 111.52796561 -157.68884553 108.99707211 -158.51391602 106.4140625 C-158.84262695 105.53878906 -159.17133789 104.66351563 -159.51000977 103.76171875 C-161.8739436 95.51622705 -159.04776321 90.27026474 -155.32104492 83.04150391 C-147.94527973 68.73044333 -143.75476116 53.12725109 -140.51391602 37.4140625 C-140.29993164 36.4653125 -140.08594727 35.5165625 -139.86547852 34.5390625 C-137.69065942 23.69648613 -137.84277027 12.43469045 -137.51391602 1.4140625 C-124.96221996 7.42095797 -113.88828638 17.26785576 -103.51391602 26.4140625 C-102.73274414 27.09597656 -101.95157227 27.77789062 -101.14672852 28.48046875 C-99.84105571 29.62108481 -98.53738712 30.76400304 -97.23657227 31.91015625 C-94.70002124 34.12460556 -92.11118273 36.27131746 -89.51391602 38.4140625 C-90.99579719 46.42376581 -92.95261957 54.27999279 -94.99047852 62.1640625 C-95.49581636 64.14120949 -95.99942973 66.11879131 -96.50305748 68.09637451 C-97.732712 72.92431939 -98.96612615 77.75122865 -100.21508789 82.57421875 C-101.09013847 85.95480326 -101.95332524 89.33823254 -102.80906296 92.72375488 C-103.29037409 94.61454702 -103.78413791 96.50215551 -104.27822876 98.38964844 C-107.49264919 109.92792702 -107.49264919 109.92792702 -104.95141602 121.1015625 C-101.43716439 122.99385184 -99.29895409 122.44634561 -95.51391602 121.4140625 C-91.77388362 118.87195916 -91.21210164 114.6578997 -90.15063477 110.51953125 C-89.83348763 109.33063545 -89.83348763 109.33063545 -89.50993347 108.11772156 C-88.83110432 105.55313603 -88.16994611 102.98456934 -87.51391602 100.4140625 C-87.18958588 99.14758881 -87.18958588 99.14758881 -86.85870361 97.85552979 C-85.31929768 91.81958623 -83.81905828 85.77421111 -82.32641602 79.7265625 C-81.66825927 77.06609879 -81.00935109 74.40582643 -80.3490448 71.74589539 C-79.94365404 70.11228771 -79.53951942 68.47836756 -79.13691711 66.84407043 C-78.0202238 62.3376435 -76.81621876 57.87051223 -75.51391602 53.4140625 C-66.19688464 62.64760793 -57.66285816 72.34366379 -49.7565918 82.80371094 C-48.60916093 84.29063707 -47.40549024 85.733706 -46.19750977 87.171875 C-41.61764949 92.88997844 -41.61764949 92.88997844 -41.36157227 96.65234375 C-41.83072709 99.36250996 -42.62389613 101.80980199 -43.51391602 104.4140625 C-44.07976879 106.37944437 -44.64521907 108.34494992 -45.2043457 110.31225586 C-46.05596545 113.27521075 -46.94916037 116.22508979 -47.84057617 119.17626953 C-49.12616257 123.44881665 -50.37909185 127.73110941 -51.625 132.01538086 C-52.69906984 135.69687132 -53.80842456 139.3622524 -54.97485352 143.015625 C-55.32966797 144.15161133 -55.32966797 144.15161133 -55.69165039 145.31054688 C-56.14217608 146.75046232 -56.60368134 148.18700887 -57.07836914 149.61914062 C-58.50538112 154.23541111 -58.60986292 157.71379822 -57.51391602 162.4140625 C-56.07242627 164.59953934 -56.07242627 164.59953934 -53.51391602 165.4140625 C-50.63257882 165.65223755 -48.13994146 165.6704566 -45.51391602 164.4140625 C-42.17106647 159.26403795 -40.84576872 153.1468075 -39.20141602 147.2890625 C-38.59014317 145.15083962 -37.97815102 143.01282225 -37.36547852 140.875 C-37.05900391 139.80088867 -36.7525293 138.72677734 -36.43676758 137.62011719 C-35.02234803 132.7063189 -33.55275527 127.80955158 -32.07641602 122.9140625 C-31.81755615 122.05409668 -31.55869629 121.19413086 -31.29199219 120.30810547 C-30.70015538 118.34316667 -30.10718014 116.37857082 -29.51391602 114.4140625 C-25.98101108 115.59169748 -25.72517676 116.24963884 -23.91235352 119.359375 C-23.42597412 120.18187744 -22.93959473 121.00437988 -22.43847656 121.85180664 C-21.92712158 122.73860107 -21.4157666 123.62539551 -20.88891602 124.5390625 C-19.82093714 126.37429859 -18.7519168 128.20892899 -17.68188477 130.04296875 C-17.15127441 130.95449707 -16.62066406 131.86602539 -16.07397461 132.80517578 C-14.67249618 135.14886881 -13.21173307 137.4249023 -11.68969727 139.69140625 C-11.2670459 140.3364209 -10.84439453 140.98143555 -10.40893555 141.64599609 C-9.27683224 143.36223359 -8.12079005 145.06261214 -6.96313477 146.76171875 C-2.95200008 156.8706431 -8.2991639 168.90821508 -11.07543945 178.94384766 C-15.42948621 193.03882946 -15.42948621 193.03882946 -14.51391602 207.4140625 C-13.12527168 207.71962476 -11.72710338 207.98207058 -10.32641602 208.2265625 C-9.54911133 208.37738281 -8.77180664 208.52820313 -7.97094727 208.68359375 C-5.30908451 208.59658596 -5.30908451 208.59658596 -2.88110352 206.5078125 C0.15815498 202.53571229 1.08238019 198.92010848 2.17358398 194.1015625 C2.47232422 192.87663086 2.47232422 192.87663086 2.77709961 191.62695312 C3.16972951 190.01137762 3.55516281 188.39403367 3.93286133 186.77490234 C4.74452249 183.31119384 5.61672981 179.86369161 6.48608398 176.4140625 C8.61070133 179.10005012 10.22364317 181.69812552 11.65014648 184.80859375 C12.24363892 186.10265137 12.24363892 186.10265137 12.84912109 187.42285156 C13.26556885 188.34807617 13.6820166 189.27330078 14.11108398 190.2265625 C14.54622314 191.18401367 14.9813623 192.14146484 15.4296875 193.12792969 C19.11920581 201.35474779 22.42115035 209.71240378 25.52954102 218.17504883 C25.87484863 219.09439209 26.22015625 220.01373535 26.57592773 220.9609375 C27.02246704 222.18055176 27.02246704 222.18055176 27.47802734 223.42480469 C28.44845805 225.74391887 28.44845805 225.74391887 31.48608398 227.4140625 C36.10625107 227.87659465 36.10625107 227.87659465 40.36108398 226.3515625 C42.09454174 223.36616304 42.65214269 220.8207929 42.48608398 217.4140625 C41.23350933 212.89606743 39.46335749 208.61783063 37.67358398 204.2890625 C37.17248431 203.04601472 36.67208403 201.80268479 36.17236328 200.55908203 C31.97144813 190.2031504 27.26583464 180.09951646 22.22949219 170.12451172 C21.48608398 168.4140625 21.48608398 168.4140625 21.48608398 166.4140625 C23.96645284 167.01361178 26.44553454 167.61754337 28.92358398 168.2265625 C29.65843018 168.40670898 30.39327637 168.58685547 31.15039062 168.77246094 C34.99072649 169.73095448 38.71068699 170.7783563 42.42358398 172.1640625 C46.65503961 173.64222934 51.0505543 174.32254448 55.48608398 173.4140625 C58.16846207 171.34832306 58.49508629 170.38105405 59.42358398 166.9765625 C59.86174116 163.43256998 59.86174116 163.43256998 57.82202148 161.3046875 C55.23488716 159.2107527 53.37231452 158.48023949 50.17358398 157.6015625 C49.03791992 157.27671875 47.90225586 156.951875 46.73217773 156.6171875 C45.74967041 156.34165039 45.74967041 156.34165039 44.74731445 156.06054688 C40.05841919 154.71999466 35.40047471 153.27452753 30.73608398 151.8515625 C29.76630615 151.55854248 28.79652832 151.26552246 27.79736328 150.96362305 C25.91421332 150.39306416 24.033807 149.8133578 22.15649414 149.22387695 C20.43523048 148.70189564 18.70007772 148.22282471 16.95239258 147.79760742 C12.7668703 146.69008176 10.24590021 145.71441576 7.80639648 142.03515625 C7.04726549 140.65532796 6.31659164 139.25956282 5.61108398 137.8515625 C4.78537826 136.32681239 3.95715855 134.80342159 3.12670898 133.28125 C2.49152344 132.09160645 2.49152344 132.09160645 1.84350586 130.87792969 C-0.93290262 125.83844868 -4.05547268 121.00193142 -7.11108398 116.12866211 C-7.55597168 115.4094458 -8.00085938 114.69022949 -8.45922852 113.94921875 C-9.05501709 112.99607788 -9.05501709 112.99607788 -9.6628418 112.02368164 C-10.51391602 110.4140625 -10.51391602 110.4140625 -10.51391602 108.4140625 C-0.98065756 109.06994073 8.34633508 110.66620231 17.74487305 112.33276367 C19.70461795 112.67861509 21.66565518 113.01711792 23.62670898 113.35546875 C25.35195801 113.66013062 25.35195801 113.66013062 27.11206055 113.97094727 C34.18364773 115.04411908 34.18364773 115.04411908 40.42358398 112.2890625 C42.68205385 109.57240509 42.68205385 109.57240509 43.04858398 106.3515625 C42.34238283 102.66362315 41.41602069 101.72886621 38.48608398 99.4140625 C35.98397674 98.71536711 33.75372369 98.24255388 31.20483398 97.88671875 C30.48699738 97.77346252 29.76916077 97.6602063 29.02957153 97.54351807 C27.48644009 97.30157916 25.94219751 97.06664296 24.39703369 96.83804321 C21.962057 96.47296006 19.53364795 96.07790756 17.10473633 95.67456055 C9.53737942 94.43038242 2.00335573 93.32247868 -5.63110352 92.5859375 C-24.10211827 90.56491116 -24.10211827 90.56491116 -29.92797852 84.3671875 C-33.03896314 80.42137072 -35.5652114 76.19947738 -38.0402832 71.83496094 C-40.33611742 68.06334197 -43.18346632 64.8657704 -46.13891602 61.6015625 C-49.61504837 57.71569372 -52.71447581 53.81036649 -55.51391602 49.4140625 C-47.92422277 49.8700531 -40.38365044 50.49470286 -32.83422852 51.38671875 C-32.08534363 51.47456635 -31.33645874 51.56241394 -30.56488037 51.65292358 C-27.48675482 52.01594365 -24.40907591 52.38190279 -21.33276367 52.76000977 C-13.09079144 53.76728414 -4.8755426 54.61355768 3.43139648 54.78515625 C4.71804199 54.81407959 6.0046875 54.84300293 7.33032227 54.87280273 C10.53998562 54.71796062 10.53998562 54.71796062 12.40356445 52.57836914 C13.8730733 49.64034571 13.89181876 47.65994071 13.48608398 44.4140625 C12.58499513 42.16946866 12.58499513 42.16946866 10.48608398 40.4140625 C7.53074652 39.67402018 4.85657577 39.20739134 1.84936523 38.86328125 C0.93850662 38.74587082 0.02764801 38.62846039 -0.91081238 38.50749207 C-8.65878672 37.54589349 -16.43154976 36.81143062 -24.2030983 36.07001114 C-26.29370029 35.87011338 -28.38404662 35.66772121 -30.47433472 35.46456909 C-31.17279448 35.39681715 -31.87125423 35.32906521 -32.59087944 35.25926018 C-34.01253486 35.12129368 -35.43416185 34.98303387 -36.85576057 34.84448433 C-40.4759226 34.49369679 -44.09657111 34.15642811 -47.72021484 33.84350586 C-51.29459937 33.53392019 -54.86411403 33.18934584 -58.4329586 32.82153893 C-60.41582048 32.62651571 -62.40217562 32.46809724 -64.38838196 32.31074524 C-71.89428183 31.50716154 -76.06507925 30.17974636 -80.9909668 24.31726074 C-81.49354004 23.68920532 -81.99611328 23.0611499 -82.51391602 22.4140625 C-84.21415845 20.94246497 -85.93979261 19.4990984 -87.70141602 18.1015625 C-92.52461542 14.2322549 -97.24840765 10.26628269 -101.92285156 6.21948242 C-104.48818545 4.0239191 -107.07361749 1.99201716 -109.90063477 0.15234375 C-110.76301758 -0.42128906 -111.62540039 -0.99492187 -112.51391602 -1.5859375 C-112.51391602 -1.9159375 -112.51391602 -2.2459375 -112.51391602 -2.5859375 C-111.4349707 -2.62332031 -110.35602539 -2.66070312 -109.24438477 -2.69921875 C-13.30985208 -6.6387686 -13.30985208 -6.6387686 0 0 Z " fill="#5FA716" transform="translate(400.513916015625,217.5859375)"/>
<path d="M0 0 C2.15689222 -0.00966891 4.31281397 -0.04076345 6.46948242 -0.07226562 C15.72316846 -0.14055558 23.99190192 0.88268028 32.9909668 3.24023438 C34.51994569 10.23022053 35.47526638 17.10185498 35.9909668 24.24023438 C34.99838867 24.72492188 34.00581055 25.20960938 32.9831543 25.70898438 C31.61064524 26.38583816 30.23825606 27.06293507 28.8659668 27.74023438 C27.89723633 28.21203125 27.89723633 28.21203125 26.90893555 28.69335938 C26.23217773 29.02851563 25.55541992 29.36367187 24.8581543 29.70898438 C24.14181824 30.06302338 23.42548218 30.41706238 22.68743896 30.78182983 C19.89675303 32.23787852 19.89675303 32.23787852 17.04229736 34.20474243 C7.59784126 40.30161882 0.31442571 41.36791473 -10.7668457 41.16992188 C-12.32910175 41.17237029 -13.89135595 41.17864059 -15.45358276 41.18850708 C-19.51971933 41.20543426 -23.58416433 41.17702306 -27.65008545 41.13653564 C-34.18979663 41.08045389 -40.72986716 41.09985098 -47.26974106 41.10980606 C-49.54336912 41.10745901 -51.81636292 41.08857651 -54.08987427 41.06637573 C-55.47975584 41.06017467 -56.86963823 41.0541529 -58.25952148 41.04833984 C-59.46971954 41.03753387 -60.6799176 41.02672791 -61.92678833 41.01559448 C-64.9099827 41.23301539 -66.53994471 41.60816965 -69.0090332 43.24023438 C-70.93102435 45.80288923 -71.01931956 47.07222387 -70.8215332 50.30273438 C-69.99274026 53.29913962 -69.43786632 54.39432121 -67.0090332 56.24023438 C-64.74864466 57.37042865 -63.43784494 57.39292395 -60.92651367 57.44555664 C-60.08579315 57.46550186 -59.24507263 57.48544708 -58.37887573 57.5059967 C-57.01631149 57.53106544 -57.01631149 57.53106544 -55.6262207 57.55664062 C-54.69681671 57.57742172 -53.76741272 57.59820282 -52.80984497 57.61961365 C-49.8346511 57.68511084 -46.85936743 57.7439949 -43.8840332 57.80273438 C-41.86970092 57.84591943 -39.85537779 57.88953372 -37.84106445 57.93359375 C-32.89714657 58.04079241 -27.95313818 58.14205939 -23.0090332 58.24023438 C-26.236307 61.5021089 -29.47642352 64.51300558 -33.0715332 67.36523438 C-49.47764155 80.16267509 -49.47764155 80.16267509 -62.57910156 95.84130859 C-65.65352161 98.87649913 -67.30320691 98.84675488 -71.48390198 98.93353271 C-72.32879684 98.92646301 -73.17369171 98.91939331 -74.04418945 98.91210938 C-74.91925644 98.92485901 -75.79432343 98.93760864 -76.69590759 98.95074463 C-79.48811228 98.98704645 -82.27911328 98.98975355 -85.0715332 98.99023438 C-87.86707418 99.01185495 -90.66243297 99.04032948 -93.45787048 99.0725708 C-95.19622246 99.09031552 -96.9346697 99.10061363 -98.67311096 99.10272217 C-102.0336439 99.11896296 -104.79853448 99.17006813 -108.0090332 100.24023438 C-109.20658138 103.8328789 -109.33998279 106.46740911 -109.0090332 110.24023438 C-106.8854344 113.06959145 -105.67260217 114.11272147 -102.16821289 114.78613281 C-101.09990234 114.80708008 -100.0315918 114.82802734 -98.9309082 114.84960938 C-97.19067383 114.89794922 -97.19067383 114.89794922 -95.4152832 114.94726562 C-94.2087207 114.96144531 -93.0021582 114.975625 -91.7590332 114.99023438 C-90.53700195 115.01988281 -89.3149707 115.04953125 -88.0559082 115.08007812 C-85.04021677 115.15075839 -82.02529771 115.20346612 -79.0090332 115.24023438 C-79.4330542 115.88855225 -79.8570752 116.53687012 -80.29394531 117.20483398 C-100.72367084 145.92360791 -100.72367084 145.92360791 -109.0090332 178.24023438 C-107.52910164 180.80362126 -107.52910164 180.80362126 -105.0090332 182.24023438 C-101.83852985 182.70259945 -99.90319838 182.70869143 -97.0480957 181.21289062 C-94.11681601 178.37707407 -92.89539116 174.95014586 -91.3840332 171.24023438 C-85.23698111 156.83161466 -78.15223452 142.98971829 -69.0090332 130.24023438 C-68.25879883 129.19351563 -67.50856445 128.14679688 -66.7355957 127.06835938 C-64.84049361 124.44846385 -62.93268171 121.83920629 -61.0090332 119.24023438 C-58.18728815 122.06197943 -58.13391499 125.19481438 -57.53637695 128.99414062 C-57.3444149 130.15646461 -57.3444149 130.15646461 -57.14857483 131.3422699 C-56.87847548 132.98675991 -56.61225972 134.63189173 -56.34960938 136.27758789 C-55.9517948 138.76977213 -55.54309087 141.25996169 -55.13208008 143.75 C-54.87036434 145.35210782 -54.6092774 146.9543185 -54.34887695 148.55664062 C-54.22906967 149.291371 -54.10926239 150.02610138 -53.98582458 150.78309631 C-53.27103853 155.27348885 -52.72636787 159.74709186 -52.33326721 164.2776947 C-51.78223228 167.61302623 -50.62530861 169.16063084 -48.0090332 171.24023438 C-45.05262198 171.85416654 -43.10267016 171.63307716 -40.0090332 171.24023438 C-38.18842643 170.09676799 -38.18842643 170.09676799 -37.0090332 168.24023438 C-35.88184939 160.89428335 -37.43872428 153.18669417 -38.72387695 145.94726562 C-38.89907364 144.91639328 -39.07427032 143.88552094 -39.254776 142.82341003 C-39.81018887 139.56499096 -40.37786462 136.30886352 -40.9465332 133.05273438 C-41.50905093 129.7854982 -42.06900244 126.5178359 -42.62757874 123.24992371 C-42.97420607 121.22706393 -43.3235279 119.20466334 -43.67601013 117.18281555 C-44.13392188 114.53733205 -44.575284 111.88977359 -45.0090332 109.24023438 C-45.21098045 108.07656593 -45.21098045 108.07656593 -45.41700745 106.88938904 C-46.2436865 101.58068511 -46.2436865 101.58068511 -43.98168945 98.29882812 C-43.02133789 97.43386719 -42.06098633 96.56890625 -41.0715332 95.67773438 C-40.56009766 95.20650146 -40.04866211 94.73526855 -39.52172852 94.24975586 C-38.03726417 92.89132654 -36.52374277 91.5648549 -35.0090332 90.24023438 C-34.35290039 89.634375 -33.69676758 89.02851563 -33.02075195 88.40429688 C-7.5402832 65.24023438 -7.5402832 65.24023438 -2.0090332 65.24023438 C-1.87535088 66.23835396 -1.87535088 66.23835396 -1.7389679 67.25663757 C-0.80653534 74.18703339 0.15531175 81.11289258 1.13427734 88.03686523 C1.49567209 90.62078095 1.84957491 93.20575612 2.19580078 95.79174805 C2.69504144 99.51069812 3.22118294 103.22499415 3.75268555 106.93945312 C3.90186935 108.09483078 4.05105316 109.25020844 4.20475769 110.44059753 C5.041889 117.00397946 5.041889 117.00397946 8.40429688 122.50512695 C10.97373969 124.56789702 10.97373969 124.56789702 14.6159668 124.30273438 C17.91419858 123.4786115 17.91419858 123.4786115 19.9284668 121.74023438 C22.78235812 115.02519597 20.58103279 106.37838007 19.4597168 99.39648438 C19.30434448 98.38734985 19.14897217 97.37821533 18.9888916 96.33850098 C18.49597156 93.13804777 17.99456486 89.93902361 17.4909668 86.74023438 C16.82697439 82.52264118 16.1719244 78.30379904 15.5222168 74.08398438 C15.36910034 73.13060181 15.21598389 72.17721924 15.05822754 71.19494629 C14.1776715 65.46943376 13.84591113 60.03358011 13.9909668 54.24023438 C17.90491364 51.93087989 21.84417123 49.674066 25.81274414 47.46044922 C27.29429469 46.63050194 28.77104461 45.79193906 30.2434082 44.94580078 C45.32993923 36.34003579 45.32993923 36.34003579 51.5534668 37.42773438 C53.37571533 38.00182835 55.18701468 38.61100439 56.9909668 39.24023438 C59.25527833 39.8055264 61.52821762 40.31949364 63.80517578 40.83129883 C67.20955398 41.59720513 70.59905195 42.42108495 73.9909668 43.24023438 C74.5234737 67.23581456 72.72140038 88.47679967 64.9909668 111.24023438 C64.75506836 111.95550293 64.51916992 112.67077148 64.27612305 113.40771484 C57.61841105 133.42316681 46.4018549 149.91692505 31.9909668 165.24023438 C31.1846582 166.14322266 31.1846582 166.14322266 30.36206055 167.06445312 C20.61407695 177.54536782 7.87635144 184.41506803 -5.0090332 190.24023438 C-6.14211914 190.76230469 -7.27520508 191.284375 -8.44262695 191.82226562 C-27.93142539 200.20620956 -49.16567881 204.20828594 -69.98144531 207.72753906 C-71.91906286 208.05565751 -73.8550102 208.39389976 -75.78857422 208.74511719 C-84.36722229 210.26842156 -92.99360773 211.19998842 -101.65527344 212.10009766 C-104.20292492 212.36590124 -106.74951023 212.64063792 -109.29614258 212.91601562 C-110.94387242 213.08973055 -112.59165717 213.26292566 -114.23950195 213.43554688 C-114.98660934 213.51676788 -115.73371674 213.59798889 -116.50346375 213.68167114 C-121.69528635 214.21157691 -126.79000537 214.30665309 -132.0090332 214.24023438 C-133.52801592 209.20983705 -134.66852051 204.22714043 -135.5715332 199.05273438 C-135.6972168 198.37404297 -135.82290039 197.69535156 -135.95239258 196.99609375 C-139.82636088 175.07065009 -139.83373462 150.98938052 -135.0090332 129.24023438 C-134.75959961 128.0559082 -134.75959961 128.0559082 -134.50512695 126.84765625 C-128.83535327 100.32571493 -117.96959168 74.54831897 -101.0090332 53.24023438 C-100.57623047 52.69463867 -100.14342773 52.14904297 -99.69750977 51.58691406 C-79.30525972 26.15990834 -52.29794489 5.05357712 -19.02075195 0.63085938 C-12.69914439 0.01887252 -6.3458056 0.01712575 0 0 Z " fill="#008900" transform="translate(172.009033203125,167.759765625)"/>
<path d="M0 0 C1.04027344 -0.00687836 2.08054687 -0.01375671 3.15234375 -0.02084351 C6.48701534 -0.03790089 9.82153712 -0.04429618 13.15625 -0.046875 C14.29231689 -0.04854675 15.42838379 -0.05021851 16.59887695 -0.05194092 C37.66652355 -0.05380031 57.92864826 1.26488067 78.65625 5.203125 C79.51103529 49.65195995 58.79977621 100.97845867 29.65625 134.203125 C28.92792969 135.05261719 28.19960938 135.90210938 27.44921875 136.77734375 C13.08870649 153.20013623 -3.49184842 163.60798861 -23.34375 172.203125 C-24.34019531 172.63496094 -25.33664062 173.06679687 -26.36328125 173.51171875 C-31.86158142 175.68232266 -37.53304921 177.0616405 -43.28125 178.390625 C-43.99676025 178.55796143 -44.71227051 178.72529785 -45.44946289 178.89770508 C-74.47071604 185.22397937 -106.95648846 181.69789265 -135.34375 174.203125 C-132.63089773 169.16041137 -129.67919191 164.87550524 -125.90625 160.578125 C-125.09861206 159.64987915 -125.09861206 159.64987915 -124.2746582 158.70288086 C-115.76815041 149.10349479 -106.4928875 140.18357893 -97.34375 131.203125 C-90.1911331 133.29089908 -83.12876393 135.58833484 -76.078125 137.99609375 C-73.95067246 138.71594308 -71.82306365 139.43533069 -69.6953125 140.15429688 C-66.38030943 141.27580884 -63.0663263 142.39999951 -59.75488281 143.53198242 C-56.53204483 144.63249268 -53.30550612 145.72149097 -50.078125 146.80859375 C-49.09052185 147.14916306 -48.1029187 147.48973236 -47.08538818 147.84062195 C-40.89989055 149.91063033 -35.75804949 151.17675561 -29.34375 149.203125 C-29.03972898 147.62582783 -28.77671059 146.04058972 -28.53125 144.453125 C-28.30501953 143.13054687 -28.30501953 143.13054687 -28.07421875 141.78125 C-28.09144606 139.07625556 -28.09144606 139.07625556 -30.17382812 137.28515625 C-34.61909644 134.36546677 -39.29104981 132.93354928 -44.33203125 131.3125 C-45.91953438 130.78828461 -45.91953438 130.78828461 -47.53910828 130.253479 C-50.90832215 129.14343155 -54.28211587 128.04811432 -57.65625 126.953125 C-59.94628136 126.20148844 -62.23599891 125.44889507 -64.52539062 124.6953125 C-70.12792121 122.8534797 -75.73427988 121.02370598 -81.34375 119.203125 C-79.95381687 116.29187099 -78.80003052 114.46261425 -76.28125 112.42578125 C-75.65806885 111.91853516 -75.0348877 111.41128906 -74.39282227 110.88867188 C-73.71662842 110.35306641 -73.04043457 109.81746094 -72.34375 109.265625 C-71.64113037 108.70294922 -70.93851074 108.14027344 -70.21459961 107.56054688 C-64.86827138 103.3197266 -59.42130316 99.22151725 -53.90625 95.203125 C-53.18630859 94.675979 -52.46636719 94.14883301 -51.72460938 93.60571289 C-50.36152733 92.62674085 -48.98572478 91.66510331 -47.5947113 90.72624207 C-46.15154572 89.74972144 -44.72684047 88.74499691 -43.32789612 87.70611572 C-40.14802994 85.58069338 -37.75918316 84.04949392 -33.85713196 84.47302246 C-31.08886091 85.3730904 -28.51023738 86.46779178 -25.8671875 87.6875 C-24.89770172 88.09647522 -23.92821594 88.50545044 -22.92935181 88.92681885 C-19.84295659 90.2344433 -16.78102514 91.59008023 -13.71875 92.953125 C-10.64694425 94.29451227 -7.57127842 95.62476891 -4.48672485 96.93658447 C-2.57198349 97.75348392 -0.66484411 98.58850376 1.23306274 99.44378662 C6.58589986 101.75720607 9.96809336 102.76925357 15.65625 101.203125 C17.72027685 100.22263562 17.72027685 100.22263562 18.65625 98.203125 C19.23967353 94.74543309 19.23967353 94.74543309 18.65625 91.203125 C15.65276779 87.37071655 12.29609359 85.9993656 7.80859375 84.29296875 C7.15548721 84.03939102 6.50238068 83.78581329 5.82948303 83.52455139 C3.7546229 82.71982208 1.67488398 81.92897349 -0.40625 81.140625 C-2.49054925 80.34778713 -4.57338115 79.55181556 -6.6526947 78.74598694 C-8.53621679 78.01637354 -10.42437568 77.29876391 -12.31274414 76.58178711 C-15.00576141 75.35686013 -16.50342546 74.46266923 -18.34375 72.203125 C-6.96488171 64.95130739 4.95958025 58.80624937 16.96403503 52.67524719 C19.86511248 51.19162357 22.76132975 49.69872217 25.65625 48.203125 C26.73455078 47.6467334 27.81285156 47.0903418 28.92382812 46.51708984 C30.40786133 45.73325928 30.40786133 45.73325928 31.921875 44.93359375 C32.79102539 44.47750732 33.66017578 44.0214209 34.55566406 43.55151367 C36.9311866 42.22465836 36.9311866 42.22465836 38.65625 39.203125 C39.23970476 36.24566008 39.23970476 36.24566008 38.65625 33.203125 C36.18099556 30.43666415 34.6439214 29.3147363 30.93408203 28.89550781 C26.9223676 29.27199822 23.86407968 30.68629996 20.3359375 32.5 C19.64299591 32.84529251 18.95005432 33.19058502 18.2361145 33.54634094 C15.99442152 34.66909702 13.76270953 35.81018304 11.53125 36.953125 C9.99618993 37.72862466 8.4610333 38.50393322 6.92578125 39.27905273 C-3.31802045 44.48591789 -13.24287462 50.04798033 -22.96875 56.17578125 C-26.34375 58.203125 -26.34375 58.203125 -28.34375 58.203125 C-28.3530957 57.15858154 -28.36244141 56.11403809 -28.37207031 55.0378418 C-28.41193874 51.162896 -28.47768741 47.28874686 -28.55126953 43.41430664 C-28.57949768 41.7373274 -28.6007031 40.06021465 -28.61474609 38.38305664 C-28.63615125 35.97212282 -28.68278426 33.56279716 -28.734375 31.15234375 C-28.73560364 30.40224533 -28.73683228 29.65214691 -28.73809814 28.87931824 C-28.83053707 25.59544649 -28.88613396 23.69850726 -31.16308594 21.23364258 C-34.41064162 19.69894346 -36.80526223 19.76081403 -40.34375 20.203125 C-42.74921633 21.5161501 -42.74921633 21.5161501 -44.34375 24.203125 C-44.844015 27.61263101 -44.68508739 30.97375458 -44.56640625 34.41015625 C-44.54678643 36.46157003 -44.52927433 38.51300486 -44.51367188 40.56445312 C-44.46825486 43.79151652 -44.406251 47.01559273 -44.30639648 50.24145508 C-43.80085943 68.2410536 -43.80085943 68.2410536 -47.51660156 72.96630859 C-50.38560966 74.76811814 -53.19342752 75.97076675 -56.34375 77.203125 C-58.01907747 78.31555532 -59.65968575 79.48238168 -61.2578125 80.703125 C-62.03898437 81.280625 -62.82015625 81.858125 -63.625 82.453125 C-64.3984375 83.030625 -65.171875 83.608125 -65.96875 84.203125 C-66.74992187 84.780625 -67.53109375 85.358125 -68.3359375 85.953125 C-73.15722266 89.52917757 -77.90477727 93.1865868 -82.60693359 96.91796875 C-84.34375 98.203125 -84.34375 98.203125 -85.34375 98.203125 C-85.373479 96.23520996 -85.373479 96.23520996 -85.40380859 94.22753906 C-85.4798875 89.35950545 -85.56860164 84.49176984 -85.66113281 79.62402344 C-85.69941306 77.51731246 -85.7342676 75.41053633 -85.765625 73.30371094 C-85.81129598 70.27515379 -85.86928745 67.24704478 -85.9296875 64.21875 C-85.94123871 63.27694885 -85.95278992 62.33514771 -85.96469116 61.36480713 C-85.98456085 60.48419617 -86.00443054 59.60358521 -86.02490234 58.69628906 C-86.03822601 57.92351624 -86.05154968 57.15074341 -86.0652771 56.35455322 C-86.3813833 53.91237731 -87.04896923 52.29066445 -88.34375 50.203125 C-91.45924872 48.64537564 -94.9481888 48.63831878 -98.34375 49.203125 C-100.06491027 50.31740164 -100.06491027 50.31740164 -101.34375 52.203125 C-101.74997143 54.94652341 -101.74997143 54.94652341 -101.61743164 58.09228516 C-101.60494888 59.30429596 -101.59246613 60.51630676 -101.5796051 61.76504517 C-101.54213417 63.73373062 -101.54213417 63.73373062 -101.50390625 65.7421875 C-101.49535472 67.10638008 -101.48957295 68.47059258 -101.48643494 69.83480835 C-101.47170461 75.62381889 -101.43707281 81.41164775 -101.3269043 87.19970703 C-101.26121942 90.7440715 -101.24503251 94.28585782 -101.25961113 97.83076096 C-101.25402881 99.82343912 -101.19523848 101.81574223 -101.13526917 103.80752563 C-101.20482293 112.74220586 -101.20482293 112.74220586 -104.45088196 116.90597534 C-106.98180043 119.18820363 -109.58439005 121.20663958 -112.34375 123.203125 C-113.36993227 124.13481608 -114.37916628 125.0862313 -115.35571289 126.06982422 C-116.1677417 126.87436035 -116.97977051 127.67889648 -117.81640625 128.5078125 C-119.6823099 130.36194801 -121.5455729 132.21874454 -123.40625 134.078125 C-124.33501953 134.99464844 -125.26378906 135.91117188 -126.22070312 136.85546875 C-132.38024849 143.00204665 -137.96737738 149.36438566 -143.34375 156.203125 C-152.48121815 139.67362592 -147.57730231 104.37979176 -142.828125 86.97265625 C-138.25290809 71.82554962 -131.50291052 58.41254694 -121.34375 46.203125 C-120.59931641 45.24019531 -120.59931641 45.24019531 -119.83984375 44.2578125 C-97.06347544 16.05849936 -57.65944555 5.28820853 -23.34375 1.203125 C-15.55413412 0.42446863 -7.8265402 0.03553508 0 0 Z " fill="#A2C200" transform="translate(366.34375,16.796875)"/>
<path d="M0 0 C15.44498957 3.71567074 30.22687265 11.32400997 42 22 C42.80179687 22.67289063 43.60359375 23.34578125 44.4296875 24.0390625 C80.84045949 55.23209146 94.3021077 105.95301213 98 152 C98.32775808 157.87244589 98.33977036 163.74513269 98.3125 169.625 C98.31134186 170.41215393 98.31018372 171.19930786 98.30899048 172.01031494 C98.26174375 188.47569577 96.91669776 204.65558804 95 221 C94.78108519 223.00388825 94.56232326 225.00779321 94.34375 227.01171875 C93.05856585 238.20146647 91.11778185 249.25503908 89 260.3125 C88.87434662 260.9733963 88.74869324 261.6342926 88.61923218 262.31521606 C87.14095467 270.03342259 85.40595647 277.51718896 83 285 C76.73 284.34 70.46 283.68 64 283 C64.99 282.67 65.98 282.34 67 282 C67.11102051 281.38141113 67.22204102 280.76282227 67.33642578 280.12548828 C68.31598497 274.69985719 69.32648523 269.28143743 70.3671875 263.8671875 C73.11617032 249.39441462 75.56552727 234.94334376 77.3125 220.3125 C77.3934491 219.64047546 77.47439819 218.96845093 77.55780029 218.27606201 C81.42173446 197.80276001 81.42173446 197.80276001 79 178 C79.29758419 175.6618385 79.63239269 173.32817964 80 171 C80 170.01 80 169.02 80 168 C80.01377686 167.12512939 80.02755371 166.25025879 80.04174805 165.34887695 C80.54124674 116.53696295 66.58566524 63.56812981 33 27 C32.14921875 26.05511719 31.2984375 25.11023438 30.421875 24.13671875 C21.77875106 14.98898129 11.40244535 7.37417579 0 2 C0 1.34 0 0.68 0 0 Z " fill="#539213" transform="translate(380,210)"/>
<path d="M0 0 C11.52164009 0.96355353 11.52164009 0.96355353 17 2 C17.85478529 46.44883495 -2.85647379 97.77533367 -32 131 C-33.09248047 132.27423828 -33.09248047 132.27423828 -34.20703125 133.57421875 C-46.09299005 147.16709282 -59.57275586 157.17603445 -75.8125 164.9375 C-76.95803345 165.48567383 -76.95803345 165.48567383 -78.12670898 166.04492188 C-83.61262791 168.57261409 -89.18033602 170.39743966 -95 172 C-92.24455342 169.11140568 -89.32009844 167.28611019 -85.875 165.25 C-76.32870523 159.48887133 -68.14443309 152.58854321 -60 145 C-59.27039063 144.33613281 -58.54078125 143.67226562 -57.7890625 142.98828125 C-22.44998548 109.49908371 -3.79933608 52.55748251 -0.375 5.1875 C-0.30023438 4.19105469 -0.22546875 3.19460937 -0.1484375 2.16796875 C-0.07496094 1.09482422 -0.07496094 1.09482422 0 0 Z " fill="#8EAA00" transform="translate(428,20)"/>
<path d="M0 0 C5.28 0.99 10.56 1.98 16 3 C16.49010967 27.01537375 14.73773174 48.21507475 7 71 C6.76410156 71.71526855 6.52820313 72.43053711 6.28515625 73.16748047 C-0.37255575 93.18293244 -11.58911189 109.67669067 -26 125 C-26.53753906 125.60199219 -27.07507813 126.20398438 -27.62890625 126.82421875 C-39.45901947 139.54381417 -55.56878055 147.06905129 -71.375 153.5625 C-72.01171631 153.82643555 -72.64843262 154.09037109 -73.30444336 154.36230469 C-74.84605696 154.97159805 -76.42138408 155.49425039 -78 156 C-78.66 155.67 -79.32 155.34 -80 155 C-79.12859375 154.52691406 -78.2571875 154.05382812 -77.359375 153.56640625 C-39.52007207 132.69969424 -18.80871936 99.82757931 -7 59 C-1.78680546 39.71624155 -0.80319361 19.86847347 0 0 Z " fill="#007700" transform="translate(230,208)"/>
<path d="M0 0 C6.03748977 0.80499864 12.01270113 1.88482498 18 3 C19.56307307 9.99589016 20.45016222 16.85210884 21 24 C14.565 26.97 14.565 26.97 8 30 C4.67012791 26.67012791 4.42649475 25.53361726 3.61328125 21.0546875 C3.39736328 19.89582031 3.18144531 18.73695313 2.95898438 17.54296875 C2.74564453 16.33253906 2.53230469 15.12210938 2.3125 13.875 C2.08755859 12.65683594 1.86261719 11.43867188 1.63085938 10.18359375 C0 1.29070099 0 1.29070099 0 0 Z " fill="#007600" transform="translate(187,168)"/>
</svg>
