<?xml version="1.0" encoding="UTF-8"?>
<svg version="1.1" xmlns="http://www.w3.org/2000/svg" width="512" height="512">
<path d="M0 0 C3.74884574 2.2622345 6.63469969 5.07990465 9.5 8.375 C9.5 9.035 9.5 9.695 9.5 10.375 C10.015625 10.21 10.53125 10.045 11.0625 9.875 C18.37041913 8.37593967 25.20263716 9.6648753 31.48828125 13.62890625 C37.00286007 17.96263307 40.09345278 23.53160679 41.5 30.375 C41.6373764 34.22153928 41.67952512 37.68898399 40.5 41.375 C41.39332031 41.76751953 41.39332031 41.76751953 42.3046875 42.16796875 C44.62380782 43.44307227 45.92305349 44.67813384 47.625 46.6875 C48.12257813 47.26113281 48.62015625 47.83476563 49.1328125 48.42578125 C53.60023127 54.79504401 53.17830381 61.88822174 52.5 69.375 C50.8435736 75.35131115 47.10124057 79.37392124 42.5 83.375 C41.84 83.375 41.18 83.375 40.5 83.375 C40.665 83.890625 40.83 84.40625 41 84.9375 C42.49906033 92.24541913 41.2101247 99.07763716 37.24609375 105.36328125 C32.99165595 110.77696641 27.30448134 114.16672761 20.5 115.375 C18.72775651 115.24744189 16.95686599 115.10017156 15.1875 114.9375 C11.76053484 114.88281439 10.12894932 114.86516987 7.4375 117.046875 C5.67297486 119.1408778 5.67297486 119.1408778 4.23046875 121.33203125 C2.5 123.375 2.5 123.375 -3.5 126.375 C-3.17 140.235 -2.84 154.095 -2.5 168.375 C2.78 163.095 8.06 157.815 13.5 152.375 C17.34281736 154.29640868 19.30431927 155.9676816 22.25 159 C23.44882812 160.22589844 23.44882812 160.22589844 24.671875 161.4765625 C25.27515625 162.10304687 25.8784375 162.72953125 26.5 163.375 C24.95629751 167.59185424 21.82220122 169.68529417 18.3984375 172.3359375 C3.07019689 184.52781785 3.07019689 184.52781785 -4.09645081 202.0025177 C-4.83948367 212.28247074 -3.50986507 222.0145324 -2.5 232.375 C8.06 221.815 18.62 211.255 29.5 200.375 C33.34281736 202.29640868 35.30431927 203.9676816 38.25 207 C39.44882812 208.22589844 39.44882812 208.22589844 40.671875 209.4765625 C41.27515625 210.10304687 41.8784375 210.72953125 42.5 211.375 C41.03310625 214.84887345 39.1499934 216.84243627 36.34155273 219.33203125 C35.48403915 220.10224609 34.62652557 220.87246094 33.74302673 221.66601562 C32.81591385 222.49810547 31.88880096 223.33019531 30.93359375 224.1875 C28.47196299 226.47572976 26.01758436 228.77116759 23.56803799 231.07229614 C21.02231163 233.45620144 18.45872947 235.81040175 15.8371582 238.11083984 C5.49757311 247.2165486 -3.17980833 255.15582289 -4.3510437 269.63061523 C-4.33607615 275.21926127 -3.87278827 280.79878108 -3.5 286.375 C7.06 286.375 17.62 286.375 28.5 286.375 C28.5 282.415 28.5 278.455 28.5 274.375 C32.82225325 253.64013531 47.40628316 237.92177391 64.5 226.375 C69.76367561 222.9382952 75.07286521 219.5736165 80.38232422 216.20825195 C97.10605792 206.74847222 97.10605792 206.74847222 107.3125 191.4375 C107.4053125 190.4165625 107.4053125 190.4165625 107.5 189.375 C106.530625 188.59125 105.56125 187.8075 104.5625 187 C102.66037654 185.46211295 101.60370043 184.58240087 100.5 182.375 C99.345 182.436875 98.19 182.49875 97 182.5625 C91.54990953 182.52398346 86.9100466 181.48645676 82.734375 177.828125 C79.15727528 173.90373404 76.3837748 169.89593975 76.56640625 164.36328125 C76.60636719 163.66589844 76.64632813 162.96851563 76.6875 162.25 C76.95080352 158.28967909 76.95080352 158.28967909 74.1875 156.25 C73.300625 155.63125 72.41375 155.0125 71.5 154.375 C67.56616727 148.94902383 67.71472338 142.81254237 68.5 136.375 C69.75558972 132.70481465 71.41373245 130.06900427 74.75 127.9375 C75.3275 127.421875 75.905 126.90625 76.5 126.375 C76.53285681 124.43644836 76.55404701 122.49554663 76.46875 120.55859375 C76.53470445 115.95002648 78.0107251 112.07487943 81.046875 108.609375 C84.97126596 105.03227528 88.97906025 102.2587748 94.51171875 102.44140625 C95.20910156 102.48136719 95.90648437 102.52132812 96.625 102.5625 C100.58532091 102.82580352 100.58532091 102.82580352 102.625 100.0625 C103.24375 99.175625 103.8625 98.28875 104.5 97.375 C109.92597617 93.44116727 116.06245763 93.58972338 122.5 94.375 C126.17018535 95.63058972 128.80599573 97.28873245 130.9375 100.625 C131.7109375 101.49125 131.7109375 101.49125 132.5 102.375 C134.43855164 102.40785681 136.37945337 102.42904701 138.31640625 102.34375 C142.92497352 102.40970445 146.80012057 103.8857251 150.265625 106.921875 C153.84272472 110.84626596 156.6162252 114.85406025 156.43359375 120.38671875 C156.39363281 121.08410156 156.35367187 121.78148437 156.3125 122.5 C156.04919648 126.46032091 156.04919648 126.46032091 158.8125 128.5 C159.699375 129.11875 160.58625 129.7375 161.5 130.375 C165.43383273 135.80097617 165.28527662 141.93745763 164.5 148.375 C163.24441028 152.04518535 161.58626755 154.68099573 158.25 156.8125 C157.6725 157.328125 157.095 157.84375 156.5 158.375 C156.46714319 160.31355164 156.44595299 162.25445337 156.53125 164.19140625 C156.46529555 168.79997352 154.9892749 172.67512057 151.953125 176.140625 C148.02873404 179.71772472 144.02093975 182.4912252 138.48828125 182.30859375 C137.79089844 182.26863281 137.09351563 182.22867188 136.375 182.1875 C132.41378419 181.93756251 132.41378419 181.93756251 130.25 184.6875 C129.6725 185.574375 129.095 186.46125 128.5 187.375 C127.7575 187.808125 127.015 188.24125 126.25 188.6875 C125.38375 189.5228125 125.38375 189.5228125 124.5 190.375 C124.53333554 192.27512578 124.5725064 194.17547832 124.65234375 196.07421875 C124.10996371 204.26554811 117.99744068 210.61096603 112.328125 215.95703125 C105.74503046 221.58539522 98.48031644 226.13764122 91.1640625 230.734375 C76.71862483 239.71883012 76.71862483 239.71883012 63.5 250.375 C62.76910156 251.02597656 62.03820312 251.67695313 61.28515625 252.34765625 C50.98618473 261.99455136 47.02956294 272.60893355 45.5 286.375 C53.09 286.375 60.68 286.375 68.5 286.375 C68.5 296.935 68.5 307.495 68.5 318.375 C71.8 318.375 75.1 318.375 78.5 318.375 C90.89367198 320.7732947 101.847821 328.48327838 109.15625 338.6875 C114.96774098 347.80356428 116.96175966 356.50834639 116.84057617 367.24072266 C116.84101425 368.2760614 116.84145233 369.31140015 116.84190369 370.37811279 C116.83983081 373.7652948 116.8165707 377.15196806 116.79296875 380.5390625 C116.78736746 382.90131358 116.78309988 385.26356816 116.78010559 387.62582397 C116.76869883 393.81705493 116.73926757 400.00807185 116.70599365 406.19921875 C116.67520272 412.52731431 116.66158101 418.85544474 116.64648438 425.18359375 C116.61439384 437.58082276 116.5632481 449.97789352 116.5 462.375 C119.14 462.375 121.78 462.375 124.5 462.375 C124.5 472.935 124.5 483.495 124.5 494.375 C34.74 494.375 -55.02 494.375 -147.5 494.375 C-147.5 483.815 -147.5 473.255 -147.5 462.375 C-144.86 462.375 -142.22 462.375 -139.5 462.375 C-139.50888245 461.07367126 -139.51776489 459.77234253 -139.5269165 458.43157959 C-139.60820961 446.13266907 -139.6680648 433.83381349 -139.70724869 421.53469467 C-139.72807114 415.21246847 -139.75629128 408.89046019 -139.80175781 402.56835938 C-139.84540584 396.46049118 -139.86917724 390.35283184 -139.87950897 384.24481964 C-139.88686636 381.92135585 -139.90123317 379.59790273 -139.92292023 377.2745285 C-140.09294711 358.29430844 -138.60815903 345.09019146 -125.1875 330.625 C-115.19967764 321.17223956 -104.98847093 318.375 -91.5 318.375 C-91.5 307.815 -91.5 297.255 -91.5 286.375 C-83.91 286.375 -76.32 286.375 -68.5 286.375 C-70.10333227 271.62434309 -74.92949753 261.78147744 -85.5 251.375 C-86.10328125 250.77300781 -86.7065625 250.17101562 -87.328125 249.55078125 C-94.92773389 242.46331992 -104.16251462 237.13373628 -112.8984375 231.5703125 C-120.7703884 226.5486555 -128.46240207 221.55112172 -135.5 215.375 C-136.15355469 214.81554687 -136.80710938 214.25609375 -137.48046875 213.6796875 C-142.1937202 209.35836954 -145.44659748 204.45880189 -147.5 198.375 C-147.55859375 196.16796875 -147.55859375 196.16796875 -147.375 194.125 C-147.10630932 190.46482529 -147.10630932 190.46482529 -149.00390625 188.6171875 C-150.25781908 187.5684604 -151.54654105 186.55952183 -152.87109375 185.6015625 C-154.5 184.375 -154.5 184.375 -155.5 182.375 C-156.655 182.436875 -157.81 182.49875 -159 182.5625 C-164.45009047 182.52398346 -169.0899534 181.48645676 -173.265625 177.828125 C-176.84272472 173.90373404 -179.6162252 169.89593975 -179.43359375 164.36328125 C-179.37365234 163.31720703 -179.37365234 163.31720703 -179.3125 162.25 C-179.04919648 158.28967909 -179.04919648 158.28967909 -181.8125 156.25 C-183.1428125 155.321875 -183.1428125 155.321875 -184.5 154.375 C-188.43383273 148.94902383 -188.28527662 142.81254237 -187.5 136.375 C-186.24441028 132.70481465 -184.58626755 130.06900427 -181.25 127.9375 C-180.6725 127.421875 -180.095 126.90625 -179.5 126.375 C-179.46714319 124.43644836 -179.44595299 122.49554663 -179.53125 120.55859375 C-179.46529555 115.95002648 -177.9892749 112.07487943 -174.953125 108.609375 C-171.02873404 105.03227528 -167.02093975 102.2587748 -161.48828125 102.44140625 C-160.79089844 102.48136719 -160.09351563 102.52132812 -159.375 102.5625 C-155.41467909 102.82580352 -155.41467909 102.82580352 -153.375 100.0625 C-152.75625 99.175625 -152.1375 98.28875 -151.5 97.375 C-146.07402383 93.44116727 -139.93754237 93.58972338 -133.5 94.375 C-129.82981465 95.63058972 -127.19400427 97.28873245 -125.0625 100.625 C-124.2890625 101.49125 -124.2890625 101.49125 -123.5 102.375 C-121.56144836 102.40785681 -119.62054663 102.42904701 -117.68359375 102.34375 C-113.07502648 102.40970445 -109.19987943 103.8857251 -105.734375 106.921875 C-102.15727528 110.84626596 -99.3837748 114.85406025 -99.56640625 120.38671875 C-99.62634766 121.43279297 -99.62634766 121.43279297 -99.6875 122.5 C-99.95080352 126.46032091 -99.95080352 126.46032091 -97.1875 128.5 C-95.8571875 129.428125 -95.8571875 129.428125 -94.5 130.375 C-90.56616727 135.80097617 -90.71472338 141.93745763 -91.5 148.375 C-92.75558972 152.04518535 -94.41373245 154.68099573 -97.75 156.8125 C-98.61625 157.5859375 -98.61625 157.5859375 -99.5 158.375 C-99.53285681 160.31355164 -99.55404701 162.25445337 -99.46875 164.19140625 C-99.53470445 168.79997352 -101.0107251 172.67512057 -104.046875 176.140625 C-107.97126596 179.71772472 -111.97906025 182.4912252 -117.51171875 182.30859375 C-118.20910156 182.26863281 -118.90648437 182.22867188 -119.625 182.1875 C-123.59993524 181.93195977 -123.59993524 181.93195977 -125.75 184.75 C-126.3275 185.61625 -126.905 186.4825 -127.5 187.375 C-129.609375 188.5390625 -129.609375 188.5390625 -131.5 189.375 C-125.87607042 202.81294711 -115.67230043 208.36555185 -103.83496094 215.88818359 C-81.47137901 230.128482 -60.62809008 244.32353966 -52.12890625 270.78125 C-51.23215923 275.90551868 -51.5 281.17285768 -51.5 286.375 C-40.94 286.375 -30.38 286.375 -19.5 286.375 C-17.6547178 266.96500678 -17.6547178 266.96500678 -26.12038231 250.30231476 C-30.89361013 245.06135992 -36.1323385 240.2933856 -41.42895508 235.59210205 C-44.18657269 233.11545975 -46.86533991 230.55620589 -49.55273438 228.00390625 C-54.7966719 223.04585318 -60.11752804 218.18277981 -65.5 213.375 C-63.80413874 209.74196916 -61.76199512 207.42950954 -58.875 204.625 C-57.64910156 203.42617188 -57.64910156 203.42617188 -56.3984375 202.203125 C-55.77195313 201.59984375 -55.14546875 200.9965625 -54.5 200.375 C-51.59456128 201.68876917 -49.53338941 203.09556492 -47.29199219 205.35595703 C-46.39151154 206.25666428 -46.39151154 206.25666428 -45.47283936 207.17556763 C-44.519487 208.14440384 -44.519487 208.14440384 -43.546875 209.1328125 C-42.88665344 209.79586395 -42.22643188 210.45891541 -41.54620361 211.14205933 C-39.44272176 213.25671832 -37.34630858 215.37823212 -35.25 217.5 C-33.82337739 218.93665557 -32.39629928 220.37285898 -30.96875 221.80859375 C-27.47386339 225.32550804 -23.98529938 228.84858547 -20.5 232.375 C-16.84194668 210.26854022 -16.84194668 210.26854022 -23.34619141 189.72900391 C-30.73056191 180.36952282 -40.1071293 172.6401753 -49.5 165.375 C-47.80413874 161.74196916 -45.76199512 159.42950954 -42.875 156.625 C-41.64910156 155.42617188 -41.64910156 155.42617188 -40.3984375 154.203125 C-39.77195313 153.59984375 -39.14546875 152.9965625 -38.5 152.375 C-35.45667235 153.7334202 -33.37690849 155.25963024 -31.046875 157.6328125 C-30.428125 158.25800781 -29.809375 158.88320312 -29.171875 159.52734375 C-28.22054687 160.50380859 -28.22054687 160.50380859 -27.25 161.5 C-26.6003125 162.15871094 -25.950625 162.81742188 -25.28125 163.49609375 C-23.68288273 165.11796643 -22.08938103 166.7443281 -20.5 168.375 C-20.15888371 162.48655611 -19.87149044 156.59882877 -19.63330078 150.70532227 C-19.54479797 148.70168987 -19.44172288 146.69864542 -19.32373047 144.6965332 C-19.15645306 141.81492963 -19.04199566 138.9352601 -18.9375 136.05078125 C-18.87433594 135.15788895 -18.81117188 134.26499664 -18.74609375 133.345047 C-18.68331956 130.78692206 -18.71589431 128.81362774 -19.5 126.375 C-21.37592969 124.60783872 -23.16870512 123.52624725 -25.47680664 122.39103699 C-28.48829179 120.8786851 -30.30645794 118.91128301 -32.5 116.375 C-32.5 115.715 -32.5 115.055 -32.5 114.375 C-33.015625 114.54 -33.53125 114.705 -34.0625 114.875 C-41.37041913 116.37406033 -48.20263716 115.0851247 -54.48828125 111.12109375 C-59.90196641 106.86665595 -63.29172761 101.17948134 -64.5 94.375 C-64.37244189 92.60275651 -64.22517156 90.83186599 -64.0625 89.0625 C-63.99073962 84.82980969 -63.99073962 84.82980969 -66.171875 81.34765625 C-67.60365661 80.19543784 -69.05332832 79.06511736 -70.51953125 77.95703125 C-73.53904298 75.54499526 -74.82485287 73.08503178 -75.5 69.375 C-76.25469265 61.36952611 -76.5249233 53.99319167 -71.5 47.375 C-69.6030152 45.12958942 -67.73494742 43.31843254 -65.5 41.375 C-64.84 41.375 -64.18 41.375 -63.5 41.375 C-63.665 40.859375 -63.83 40.34375 -64 39.8125 C-65.49906033 32.50458087 -64.2101247 25.67236284 -60.24609375 19.38671875 C-55.91236693 13.87213993 -50.34339321 10.78154722 -43.5 9.375 C-39.65346072 9.2376236 -36.18601601 9.19547488 -32.5 10.375 C-32.23832031 9.77945312 -31.97664062 9.18390625 -31.70703125 8.5703125 C-30.43192773 6.25119218 -29.19686616 4.95194651 -27.1875 3.25 C-26.61386719 2.75242187 -26.04023438 2.25484375 -25.44921875 1.7421875 C-18.46955113 -3.15337095 -7.69520125 -3.57224042 0 0 Z " fill="#EFF3FA" transform="translate(267.5,9.625)"/>
<path d="M0 0 C3.74884574 2.2622345 6.63469969 5.07990465 9.5 8.375 C9.5 9.035 9.5 9.695 9.5 10.375 C10.015625 10.21 10.53125 10.045 11.0625 9.875 C18.37041913 8.37593967 25.20263716 9.6648753 31.48828125 13.62890625 C37.00286007 17.96263307 40.09345278 23.53160679 41.5 30.375 C41.6373764 34.22153928 41.67952512 37.68898399 40.5 41.375 C41.39332031 41.76751953 41.39332031 41.76751953 42.3046875 42.16796875 C44.62380782 43.44307227 45.92305349 44.67813384 47.625 46.6875 C48.12257813 47.26113281 48.62015625 47.83476563 49.1328125 48.42578125 C53.60023127 54.79504401 53.17830381 61.88822174 52.5 69.375 C50.8435736 75.35131115 47.10124057 79.37392124 42.5 83.375 C41.84 83.375 41.18 83.375 40.5 83.375 C40.665 83.890625 40.83 84.40625 41 84.9375 C42.49906033 92.24541913 41.2101247 99.07763716 37.24609375 105.36328125 C32.99165595 110.77696641 27.30448134 114.16672761 20.5 115.375 C18.72775651 115.24744189 16.95686599 115.10017156 15.1875 114.9375 C11.76053484 114.88281439 10.12894932 114.86516987 7.4375 117.046875 C5.67297486 119.1408778 5.67297486 119.1408778 4.23046875 121.33203125 C2.5 123.375 2.5 123.375 -3.5 126.375 C-3.17 140.235 -2.84 154.095 -2.5 168.375 C2.78 163.095 8.06 157.815 13.5 152.375 C17.34281736 154.29640868 19.30431927 155.9676816 22.25 159 C23.44882812 160.22589844 23.44882812 160.22589844 24.671875 161.4765625 C25.27515625 162.10304687 25.8784375 162.72953125 26.5 163.375 C24.95629751 167.59185424 21.82220122 169.68529417 18.3984375 172.3359375 C3.07019689 184.52781785 3.07019689 184.52781785 -4.09645081 202.0025177 C-4.83948367 212.28247074 -3.50986507 222.0145324 -2.5 232.375 C8.06 221.815 18.62 211.255 29.5 200.375 C33.34281736 202.29640868 35.30431927 203.9676816 38.25 207 C39.44882812 208.22589844 39.44882812 208.22589844 40.671875 209.4765625 C41.27515625 210.10304687 41.8784375 210.72953125 42.5 211.375 C41.03310625 214.84887345 39.1499934 216.84243627 36.34155273 219.33203125 C35.48403915 220.10224609 34.62652557 220.87246094 33.74302673 221.66601562 C32.81591385 222.49810547 31.88880096 223.33019531 30.93359375 224.1875 C28.47196299 226.47572976 26.01758436 228.77116759 23.56803799 231.07229614 C21.02231163 233.45620144 18.45872947 235.81040175 15.8371582 238.11083984 C5.49757311 247.2165486 -3.17980833 255.15582289 -4.3510437 269.63061523 C-4.33607615 275.21926127 -3.87278827 280.79878108 -3.5 286.375 C7.06 286.375 17.62 286.375 28.5 286.375 C28.5 282.415 28.5 278.455 28.5 274.375 C32.82225325 253.64013531 47.40628316 237.92177391 64.5 226.375 C69.76367561 222.9382952 75.07286521 219.5736165 80.38232422 216.20825195 C97.10605792 206.74847222 97.10605792 206.74847222 107.3125 191.4375 C107.4053125 190.4165625 107.4053125 190.4165625 107.5 189.375 C106.530625 188.59125 105.56125 187.8075 104.5625 187 C102.66037654 185.46211295 101.60370043 184.58240087 100.5 182.375 C99.345 182.436875 98.19 182.49875 97 182.5625 C91.54990953 182.52398346 86.9100466 181.48645676 82.734375 177.828125 C79.15727528 173.90373404 76.3837748 169.89593975 76.56640625 164.36328125 C76.60636719 163.66589844 76.64632813 162.96851563 76.6875 162.25 C76.95080352 158.28967909 76.95080352 158.28967909 74.1875 156.25 C73.300625 155.63125 72.41375 155.0125 71.5 154.375 C67.56616727 148.94902383 67.71472338 142.81254237 68.5 136.375 C69.75558972 132.70481465 71.41373245 130.06900427 74.75 127.9375 C75.3275 127.421875 75.905 126.90625 76.5 126.375 C76.53285681 124.43644836 76.55404701 122.49554663 76.46875 120.55859375 C76.53470445 115.95002648 78.0107251 112.07487943 81.046875 108.609375 C84.97126596 105.03227528 88.97906025 102.2587748 94.51171875 102.44140625 C95.20910156 102.48136719 95.90648437 102.52132812 96.625 102.5625 C100.58532091 102.82580352 100.58532091 102.82580352 102.625 100.0625 C103.24375 99.175625 103.8625 98.28875 104.5 97.375 C109.92597617 93.44116727 116.06245763 93.58972338 122.5 94.375 C126.17018535 95.63058972 128.80599573 97.28873245 130.9375 100.625 C131.7109375 101.49125 131.7109375 101.49125 132.5 102.375 C134.43855164 102.40785681 136.37945337 102.42904701 138.31640625 102.34375 C142.92497352 102.40970445 146.80012057 103.8857251 150.265625 106.921875 C153.84272472 110.84626596 156.6162252 114.85406025 156.43359375 120.38671875 C156.39363281 121.08410156 156.35367187 121.78148437 156.3125 122.5 C156.04919648 126.46032091 156.04919648 126.46032091 158.8125 128.5 C159.699375 129.11875 160.58625 129.7375 161.5 130.375 C165.43383273 135.80097617 165.28527662 141.93745763 164.5 148.375 C163.24441028 152.04518535 161.58626755 154.68099573 158.25 156.8125 C157.6725 157.328125 157.095 157.84375 156.5 158.375 C156.46714319 160.31355164 156.44595299 162.25445337 156.53125 164.19140625 C156.46529555 168.79997352 154.9892749 172.67512057 151.953125 176.140625 C148.02873404 179.71772472 144.02093975 182.4912252 138.48828125 182.30859375 C137.79089844 182.26863281 137.09351563 182.22867188 136.375 182.1875 C132.41378419 181.93756251 132.41378419 181.93756251 130.25 184.6875 C129.6725 185.574375 129.095 186.46125 128.5 187.375 C127.7575 187.808125 127.015 188.24125 126.25 188.6875 C125.38375 189.5228125 125.38375 189.5228125 124.5 190.375 C124.53333554 192.27512578 124.5725064 194.17547832 124.65234375 196.07421875 C124.10996371 204.26554811 117.99744068 210.61096603 112.328125 215.95703125 C105.74503046 221.58539522 98.48031644 226.13764122 91.1640625 230.734375 C76.71862483 239.71883012 76.71862483 239.71883012 63.5 250.375 C62.76910156 251.02597656 62.03820312 251.67695313 61.28515625 252.34765625 C50.98618473 261.99455136 47.02956294 272.60893355 45.5 286.375 C53.09 286.375 60.68 286.375 68.5 286.375 C68.5 296.935 68.5 307.495 68.5 318.375 C15.7 318.375 -37.1 318.375 -91.5 318.375 C-91.5 307.815 -91.5 297.255 -91.5 286.375 C-83.91 286.375 -76.32 286.375 -68.5 286.375 C-70.10333227 271.62434309 -74.92949753 261.78147744 -85.5 251.375 C-86.10328125 250.77300781 -86.7065625 250.17101562 -87.328125 249.55078125 C-94.92773389 242.46331992 -104.16251462 237.13373628 -112.8984375 231.5703125 C-120.7703884 226.5486555 -128.46240207 221.55112172 -135.5 215.375 C-136.15355469 214.81554687 -136.80710938 214.25609375 -137.48046875 213.6796875 C-142.1937202 209.35836954 -145.44659748 204.45880189 -147.5 198.375 C-147.55859375 196.16796875 -147.55859375 196.16796875 -147.375 194.125 C-147.10630932 190.46482529 -147.10630932 190.46482529 -149.00390625 188.6171875 C-150.25781908 187.5684604 -151.54654105 186.55952183 -152.87109375 185.6015625 C-154.5 184.375 -154.5 184.375 -155.5 182.375 C-156.655 182.436875 -157.81 182.49875 -159 182.5625 C-164.45009047 182.52398346 -169.0899534 181.48645676 -173.265625 177.828125 C-176.84272472 173.90373404 -179.6162252 169.89593975 -179.43359375 164.36328125 C-179.37365234 163.31720703 -179.37365234 163.31720703 -179.3125 162.25 C-179.04919648 158.28967909 -179.04919648 158.28967909 -181.8125 156.25 C-183.1428125 155.321875 -183.1428125 155.321875 -184.5 154.375 C-188.43383273 148.94902383 -188.28527662 142.81254237 -187.5 136.375 C-186.24441028 132.70481465 -184.58626755 130.06900427 -181.25 127.9375 C-180.6725 127.421875 -180.095 126.90625 -179.5 126.375 C-179.46714319 124.43644836 -179.44595299 122.49554663 -179.53125 120.55859375 C-179.46529555 115.95002648 -177.9892749 112.07487943 -174.953125 108.609375 C-171.02873404 105.03227528 -167.02093975 102.2587748 -161.48828125 102.44140625 C-160.79089844 102.48136719 -160.09351563 102.52132812 -159.375 102.5625 C-155.41467909 102.82580352 -155.41467909 102.82580352 -153.375 100.0625 C-152.75625 99.175625 -152.1375 98.28875 -151.5 97.375 C-146.07402383 93.44116727 -139.93754237 93.58972338 -133.5 94.375 C-129.82981465 95.63058972 -127.19400427 97.28873245 -125.0625 100.625 C-124.2890625 101.49125 -124.2890625 101.49125 -123.5 102.375 C-121.56144836 102.40785681 -119.62054663 102.42904701 -117.68359375 102.34375 C-113.07502648 102.40970445 -109.19987943 103.8857251 -105.734375 106.921875 C-102.15727528 110.84626596 -99.3837748 114.85406025 -99.56640625 120.38671875 C-99.62634766 121.43279297 -99.62634766 121.43279297 -99.6875 122.5 C-99.95080352 126.46032091 -99.95080352 126.46032091 -97.1875 128.5 C-95.8571875 129.428125 -95.8571875 129.428125 -94.5 130.375 C-90.56616727 135.80097617 -90.71472338 141.93745763 -91.5 148.375 C-92.75558972 152.04518535 -94.41373245 154.68099573 -97.75 156.8125 C-98.61625 157.5859375 -98.61625 157.5859375 -99.5 158.375 C-99.53285681 160.31355164 -99.55404701 162.25445337 -99.46875 164.19140625 C-99.53470445 168.79997352 -101.0107251 172.67512057 -104.046875 176.140625 C-107.97126596 179.71772472 -111.97906025 182.4912252 -117.51171875 182.30859375 C-118.20910156 182.26863281 -118.90648437 182.22867188 -119.625 182.1875 C-123.59993524 181.93195977 -123.59993524 181.93195977 -125.75 184.75 C-126.3275 185.61625 -126.905 186.4825 -127.5 187.375 C-129.609375 188.5390625 -129.609375 188.5390625 -131.5 189.375 C-125.87607042 202.81294711 -115.67230043 208.36555185 -103.83496094 215.88818359 C-81.47137901 230.128482 -60.62809008 244.32353966 -52.12890625 270.78125 C-51.23215923 275.90551868 -51.5 281.17285768 -51.5 286.375 C-40.94 286.375 -30.38 286.375 -19.5 286.375 C-17.6547178 266.96500678 -17.6547178 266.96500678 -26.12038231 250.30231476 C-30.89361013 245.06135992 -36.1323385 240.2933856 -41.42895508 235.59210205 C-44.18657269 233.11545975 -46.86533991 230.55620589 -49.55273438 228.00390625 C-54.7966719 223.04585318 -60.11752804 218.18277981 -65.5 213.375 C-63.80413874 209.74196916 -61.76199512 207.42950954 -58.875 204.625 C-57.64910156 203.42617188 -57.64910156 203.42617188 -56.3984375 202.203125 C-55.77195313 201.59984375 -55.14546875 200.9965625 -54.5 200.375 C-51.59456128 201.68876917 -49.53338941 203.09556492 -47.29199219 205.35595703 C-46.39151154 206.25666428 -46.39151154 206.25666428 -45.47283936 207.17556763 C-44.519487 208.14440384 -44.519487 208.14440384 -43.546875 209.1328125 C-42.88665344 209.79586395 -42.22643188 210.45891541 -41.54620361 211.14205933 C-39.44272176 213.25671832 -37.34630858 215.37823212 -35.25 217.5 C-33.82337739 218.93665557 -32.39629928 220.37285898 -30.96875 221.80859375 C-27.47386339 225.32550804 -23.98529938 228.84858547 -20.5 232.375 C-16.84194668 210.26854022 -16.84194668 210.26854022 -23.34619141 189.72900391 C-30.73056191 180.36952282 -40.1071293 172.6401753 -49.5 165.375 C-47.80413874 161.74196916 -45.76199512 159.42950954 -42.875 156.625 C-41.64910156 155.42617188 -41.64910156 155.42617188 -40.3984375 154.203125 C-39.77195313 153.59984375 -39.14546875 152.9965625 -38.5 152.375 C-35.45667235 153.7334202 -33.37690849 155.25963024 -31.046875 157.6328125 C-30.428125 158.25800781 -29.809375 158.88320312 -29.171875 159.52734375 C-28.22054687 160.50380859 -28.22054687 160.50380859 -27.25 161.5 C-26.6003125 162.15871094 -25.950625 162.81742188 -25.28125 163.49609375 C-23.68288273 165.11796643 -22.08938103 166.7443281 -20.5 168.375 C-20.15888371 162.48655611 -19.87149044 156.59882877 -19.63330078 150.70532227 C-19.54479797 148.70168987 -19.44172288 146.69864542 -19.32373047 144.6965332 C-19.15645306 141.81492963 -19.04199566 138.9352601 -18.9375 136.05078125 C-18.87433594 135.15788895 -18.81117188 134.26499664 -18.74609375 133.345047 C-18.68331956 130.78692206 -18.71589431 128.81362774 -19.5 126.375 C-21.37592969 124.60783872 -23.16870512 123.52624725 -25.47680664 122.39103699 C-28.48829179 120.8786851 -30.30645794 118.91128301 -32.5 116.375 C-32.5 115.715 -32.5 115.055 -32.5 114.375 C-33.015625 114.54 -33.53125 114.705 -34.0625 114.875 C-41.37041913 116.37406033 -48.20263716 115.0851247 -54.48828125 111.12109375 C-59.90196641 106.86665595 -63.29172761 101.17948134 -64.5 94.375 C-64.37244189 92.60275651 -64.22517156 90.83186599 -64.0625 89.0625 C-63.99073962 84.82980969 -63.99073962 84.82980969 -66.171875 81.34765625 C-67.60365661 80.19543784 -69.05332832 79.06511736 -70.51953125 77.95703125 C-73.53904298 75.54499526 -74.82485287 73.08503178 -75.5 69.375 C-76.25469265 61.36952611 -76.5249233 53.99319167 -71.5 47.375 C-69.6030152 45.12958942 -67.73494742 43.31843254 -65.5 41.375 C-64.84 41.375 -64.18 41.375 -63.5 41.375 C-63.665 40.859375 -63.83 40.34375 -64 39.8125 C-65.49906033 32.50458087 -64.2101247 25.67236284 -60.24609375 19.38671875 C-55.91236693 13.87213993 -50.34339321 10.78154722 -43.5 9.375 C-39.65346072 9.2376236 -36.18601601 9.19547488 -32.5 10.375 C-32.23832031 9.77945312 -31.97664062 9.18390625 -31.70703125 8.5703125 C-30.43192773 6.25119218 -29.19686616 4.95194651 -27.1875 3.25 C-26.61386719 2.75242187 -26.04023438 2.25484375 -25.44921875 1.7421875 C-18.46955113 -3.15337095 -7.69520125 -3.57224042 0 0 Z " fill="#BEC3D2" transform="translate(267.5,9.625)"/>
<path d="M0 0 C3.74884574 2.2622345 6.63469969 5.07990465 9.5 8.375 C9.5 9.035 9.5 9.695 9.5 10.375 C10.015625 10.21 10.53125 10.045 11.0625 9.875 C18.37041913 8.37593967 25.20263716 9.6648753 31.48828125 13.62890625 C37.00286007 17.96263307 40.09345278 23.53160679 41.5 30.375 C41.6373764 34.22153928 41.67952512 37.68898399 40.5 41.375 C41.39332031 41.76751953 41.39332031 41.76751953 42.3046875 42.16796875 C44.62380782 43.44307227 45.92305349 44.67813384 47.625 46.6875 C48.12257813 47.26113281 48.62015625 47.83476563 49.1328125 48.42578125 C53.60023127 54.79504401 53.17830381 61.88822174 52.5 69.375 C50.8435736 75.35131115 47.10124057 79.37392124 42.5 83.375 C41.84 83.375 41.18 83.375 40.5 83.375 C40.665 83.890625 40.83 84.40625 41 84.9375 C42.49906033 92.24541913 41.2101247 99.07763716 37.24609375 105.36328125 C32.99165595 110.77696641 27.30448134 114.16672761 20.5 115.375 C18.72775651 115.24744189 16.95686599 115.10017156 15.1875 114.9375 C10.95480969 114.86573962 10.95480969 114.86573962 7.47265625 117.046875 C6.32043784 118.47865661 5.19011736 119.92832832 4.08203125 121.39453125 C1.66999526 124.41404298 -0.78996822 125.69985287 -4.5 126.375 C-12.50547389 127.12969265 -19.88180833 127.3999233 -26.5 122.375 C-28.74541058 120.4780152 -30.55656746 118.60994742 -32.5 116.375 C-32.5 115.715 -32.5 115.055 -32.5 114.375 C-33.015625 114.54 -33.53125 114.705 -34.0625 114.875 C-41.37041913 116.37406033 -48.20263716 115.0851247 -54.48828125 111.12109375 C-59.90196641 106.86665595 -63.29172761 101.17948134 -64.5 94.375 C-64.37244189 92.60275651 -64.22517156 90.83186599 -64.0625 89.0625 C-63.99073962 84.82980969 -63.99073962 84.82980969 -66.171875 81.34765625 C-67.60365661 80.19543784 -69.05332832 79.06511736 -70.51953125 77.95703125 C-73.53904298 75.54499526 -74.82485287 73.08503178 -75.5 69.375 C-76.25469265 61.36952611 -76.5249233 53.99319167 -71.5 47.375 C-69.6030152 45.12958942 -67.73494742 43.31843254 -65.5 41.375 C-64.84 41.375 -64.18 41.375 -63.5 41.375 C-63.665 40.859375 -63.83 40.34375 -64 39.8125 C-65.49906033 32.50458087 -64.2101247 25.67236284 -60.24609375 19.38671875 C-55.91236693 13.87213993 -50.34339321 10.78154722 -43.5 9.375 C-39.65346072 9.2376236 -36.18601601 9.19547488 -32.5 10.375 C-32.23832031 9.77945312 -31.97664063 9.18390625 -31.70703125 8.5703125 C-30.43192773 6.25119218 -29.19686616 4.95194651 -27.1875 3.25 C-26.32705078 2.50363281 -26.32705078 2.50363281 -25.44921875 1.7421875 C-18.46955113 -3.15337095 -7.69520125 -3.57224042 0 0 Z " fill="#FEB9D4" transform="translate(267.5,9.625)"/>
<path d="M0 0 C89.76 0 179.52 0 272 0 C272 10.56 272 21.12 272 32 C182.24 32 92.48 32 0 32 C0 21.44 0 10.88 0 0 Z " fill="#BEC3D2" transform="translate(120,472)"/>
<path d="M0 0 C2.71222241 1.45998355 4.54863867 2.88642221 6.2109375 5.48828125 C6.7265625 6.06578125 7.2421875 6.64328125 7.7734375 7.23828125 C9.71198914 7.27113806 11.65289087 7.29232826 13.58984375 7.20703125 C18.19841102 7.2729857 22.07355807 8.74900635 25.5390625 11.78515625 C29.11616222 15.70954721 31.8896627 19.7173415 31.70703125 25.25 C31.66707031 25.94738281 31.62710938 26.64476562 31.5859375 27.36328125 C31.32263398 31.32360216 31.32263398 31.32360216 34.0859375 33.36328125 C34.9728125 33.98203125 35.8596875 34.60078125 36.7734375 35.23828125 C40.70727023 40.66425742 40.55871412 46.80073888 39.7734375 53.23828125 C38.51784778 56.9084666 36.85970505 59.54427698 33.5234375 61.67578125 C32.6571875 62.44921875 32.6571875 62.44921875 31.7734375 63.23828125 C31.74058069 65.17683289 31.71939049 67.11773462 31.8046875 69.0546875 C31.73873305 73.66325477 30.2627124 77.53840182 27.2265625 81.00390625 C23.30217154 84.58100597 19.29437725 87.35450645 13.76171875 87.171875 C13.06433594 87.13191406 12.36695313 87.09195313 11.6484375 87.05078125 C7.68811659 86.78747773 7.68811659 86.78747773 5.6484375 89.55078125 C5.0296875 90.43765625 4.4109375 91.32453125 3.7734375 92.23828125 C-1.65253867 96.17211398 -7.78902013 96.02355787 -14.2265625 95.23828125 C-17.89674785 93.98269153 -20.53255823 92.3245488 -22.6640625 88.98828125 C-23.4375 88.12203125 -23.4375 88.12203125 -24.2265625 87.23828125 C-26.16511414 87.20542444 -28.10601587 87.18423424 -30.04296875 87.26953125 C-34.65153602 87.2035768 -38.52668307 85.72755615 -41.9921875 82.69140625 C-45.56928722 78.76701529 -48.3427877 74.759221 -48.16015625 69.2265625 C-48.12019531 68.52917969 -48.08023437 67.83179688 -48.0390625 67.11328125 C-47.77575898 63.15296034 -47.77575898 63.15296034 -50.5390625 61.11328125 C-51.4259375 60.49453125 -52.3128125 59.87578125 -53.2265625 59.23828125 C-57.16039523 53.81230508 -57.01183912 47.67582362 -56.2265625 41.23828125 C-54.97097278 37.5680959 -53.31283005 34.93228552 -49.9765625 32.80078125 C-49.3990625 32.28515625 -48.8215625 31.76953125 -48.2265625 31.23828125 C-48.19370569 29.29972961 -48.17251549 27.35882788 -48.2578125 25.421875 C-48.19185805 20.81330773 -46.7158374 16.93816068 -43.6796875 13.47265625 C-39.75529654 9.89555653 -35.74750225 7.12205605 -30.21484375 7.3046875 C-29.51746094 7.34464844 -28.82007813 7.38460937 -28.1015625 7.42578125 C-24.14124159 7.68908477 -24.14124159 7.68908477 -22.1015625 4.92578125 C-21.4828125 4.03890625 -20.8640625 3.15203125 -20.2265625 2.23828125 C-14.55931676 -1.87047191 -6.56517971 -2.24598253 0 0 Z " fill="#FEB9D4" transform="translate(392.2265625,104.76171875)"/>
<path d="M0 0 C2.71222241 1.45998355 4.54863867 2.88642221 6.2109375 5.48828125 C6.7265625 6.06578125 7.2421875 6.64328125 7.7734375 7.23828125 C9.71198914 7.27113806 11.65289087 7.29232826 13.58984375 7.20703125 C18.19841102 7.2729857 22.07355807 8.74900635 25.5390625 11.78515625 C29.11616222 15.70954721 31.8896627 19.7173415 31.70703125 25.25 C31.66707031 25.94738281 31.62710938 26.64476562 31.5859375 27.36328125 C31.32263398 31.32360216 31.32263398 31.32360216 34.0859375 33.36328125 C34.9728125 33.98203125 35.8596875 34.60078125 36.7734375 35.23828125 C40.70727023 40.66425742 40.55871412 46.80073888 39.7734375 53.23828125 C38.51784778 56.9084666 36.85970505 59.54427698 33.5234375 61.67578125 C32.6571875 62.44921875 32.6571875 62.44921875 31.7734375 63.23828125 C31.74058069 65.17683289 31.71939049 67.11773462 31.8046875 69.0546875 C31.73873305 73.66325477 30.2627124 77.53840182 27.2265625 81.00390625 C23.30217154 84.58100597 19.29437725 87.35450645 13.76171875 87.171875 C13.06433594 87.13191406 12.36695313 87.09195313 11.6484375 87.05078125 C7.68811659 86.78747773 7.68811659 86.78747773 5.6484375 89.55078125 C5.0296875 90.43765625 4.4109375 91.32453125 3.7734375 92.23828125 C-1.65253867 96.17211398 -7.78902013 96.02355787 -14.2265625 95.23828125 C-17.89674785 93.98269153 -20.53255823 92.3245488 -22.6640625 88.98828125 C-23.4375 88.12203125 -23.4375 88.12203125 -24.2265625 87.23828125 C-26.16511414 87.20542444 -28.10601587 87.18423424 -30.04296875 87.26953125 C-34.65153602 87.2035768 -38.52668307 85.72755615 -41.9921875 82.69140625 C-45.56928722 78.76701529 -48.3427877 74.759221 -48.16015625 69.2265625 C-48.12019531 68.52917969 -48.08023438 67.83179688 -48.0390625 67.11328125 C-47.77575898 63.15296034 -47.77575898 63.15296034 -50.5390625 61.11328125 C-51.4259375 60.49453125 -52.3128125 59.87578125 -53.2265625 59.23828125 C-57.16039523 53.81230508 -57.01183912 47.67582362 -56.2265625 41.23828125 C-54.97097278 37.5680959 -53.31283005 34.93228552 -49.9765625 32.80078125 C-49.3990625 32.28515625 -48.8215625 31.76953125 -48.2265625 31.23828125 C-48.19370569 29.29972961 -48.17251549 27.35882788 -48.2578125 25.421875 C-48.19185805 20.81330773 -46.7158374 16.93816068 -43.6796875 13.47265625 C-39.75529654 9.89555653 -35.74750225 7.12205605 -30.21484375 7.3046875 C-29.51746094 7.34464844 -28.82007812 7.38460937 -28.1015625 7.42578125 C-24.14124159 7.68908477 -24.14124159 7.68908477 -22.1015625 4.92578125 C-21.4828125 4.03890625 -20.8640625 3.15203125 -20.2265625 2.23828125 C-14.55931676 -1.87047191 -6.56517971 -2.24598253 0 0 Z " fill="#FEB9D4" transform="translate(136.2265625,104.76171875)"/>
<path d="M0 0 C5.28 0 10.56 0 16 0 C16.33 13.86 16.66 27.72 17 42 C22.28 36.72 27.56 31.44 33 26 C36.84281736 27.92140868 38.80431927 29.5926816 41.75 32.625 C42.54921875 33.44226563 43.3484375 34.25953125 44.171875 35.1015625 C44.77515625 35.72804687 45.3784375 36.35453125 46 37 C44.45629751 41.21685424 41.32220122 43.31029417 37.8984375 45.9609375 C22.57019689 58.15281785 22.57019689 58.15281785 15.40354919 75.6275177 C14.66051633 85.90747074 15.99013493 95.6395324 17 106 C27.56 95.44 38.12 84.88 49 74 C52.84281736 75.92140868 54.80431927 77.5926816 57.75 80.625 C58.54921875 81.44226563 59.3484375 82.25953125 60.171875 83.1015625 C60.77515625 83.72804688 61.3784375 84.35453125 62 85 C60.53310625 88.47387345 58.6499934 90.46743627 55.84155273 92.95703125 C54.98403915 93.72724609 54.12652557 94.49746094 53.24302673 95.29101562 C52.31591385 96.12310547 51.38880096 96.95519531 50.43359375 97.8125 C47.97196299 100.10072976 45.51758436 102.39616759 43.06803799 104.69729614 C40.52231163 107.08120144 37.95872947 109.43540175 35.3371582 111.73583984 C24.90275593 120.92505075 16.14217782 128.92707858 15.18238831 143.58789062 C15.15045434 149.11744267 15.44629129 154.49677731 16 160 C10.72 160 5.44 160 0 160 C0.18957275 158.26008789 0.37914551 156.52017578 0.57446289 154.72753906 C1.31967416 143.09366313 1.26136953 133.14912225 -6.62038231 123.92731476 C-11.39361013 118.68635992 -16.6323385 113.9183856 -21.92895508 109.21710205 C-24.68657269 106.74045975 -27.36533991 104.18120589 -30.05273438 101.62890625 C-35.2966719 96.67085318 -40.61752804 91.80777981 -46 87 C-44.30413874 83.36696916 -42.26199512 81.05450954 -39.375 78.25 C-38.55773437 77.45078125 -37.74046875 76.6515625 -36.8984375 75.828125 C-36.27195313 75.22484375 -35.64546875 74.6215625 -35 74 C-32.09456128 75.31376917 -30.03338941 76.72056492 -27.79199219 78.98095703 C-27.19167175 79.58142853 -26.59135132 80.18190002 -25.97283936 80.80056763 C-25.33727112 81.44645844 -24.70170288 82.09234924 -24.046875 82.7578125 C-23.05654266 83.75238968 -23.05654266 83.75238968 -22.04620361 84.76705933 C-19.94272176 86.88171832 -17.84630858 89.00323212 -15.75 91.125 C-14.32337739 92.56165557 -12.89629928 93.99785898 -11.46875 95.43359375 C-7.97386339 98.95050804 -4.48529938 102.47358547 -1 106 C2.65805332 83.89354022 2.65805332 83.89354022 -3.84619141 63.35400391 C-11.23056191 53.99452282 -20.6071293 46.2651753 -30 39 C-28.30413874 35.36696916 -26.26199512 33.05450954 -23.375 30.25 C-22.55773437 29.45078125 -21.74046875 28.6515625 -20.8984375 27.828125 C-20.27195313 27.22484375 -19.64546875 26.6215625 -19 26 C-11.81978026 29.59010987 -6.67646212 36.32353788 -1 42 C-0.67 28.14 -0.34 14.28 0 0 Z " fill="#CB9F55" transform="translate(248,136)"/>
<path d="M0 0 C5.61 0 11.22 0 17 0 C17.99 2.31 18.98 4.62 20 7 C23.91999996 12.69245773 28.92102896 15.92432542 34.6875 19.625 C35.61433594 20.23255127 36.54117188 20.84010254 37.49609375 21.46606445 C41.16502292 23.87035333 44.84718596 26.25393061 48.52978516 28.63720703 C69.00847999 41.92102314 88.3469115 56.06631195 95.35546875 80.73046875 C96.37563462 85.90549196 96.25349203 90.74004028 96 96 C90.39 96 84.78 96 79 96 C78.690625 93.15375 78.690625 93.15375 78.375 90.25 C76.46048628 78.089537 70.65196155 69.51770697 62 61 C61.39671875 60.39800781 60.7934375 59.79601562 60.171875 59.17578125 C52.57226611 52.08831992 43.33748538 46.75873628 34.6015625 41.1953125 C26.7296116 36.1736555 19.03759793 31.17612172 12 25 C11.34644531 24.44054687 10.69289062 23.88109375 10.01953125 23.3046875 C5.35970384 19.03235107 1.8914262 14.07522608 0 8 C0 5.36 0 2.72 0 0 Z " fill="#CC9F55" transform="translate(120,200)"/>
<path d="M0 0 C5.61 0 11.22 0 17 0 C17 10.35693579 14.57880203 15.62629917 7.5 23.0625 C0.26822034 29.88194135 -7.95491123 35.09365474 -16.3359375 40.359375 C-30.78137517 49.34383012 -30.78137517 49.34383012 -44 60 C-44.73089844 60.65097656 -45.46179688 61.30195313 -46.21484375 61.97265625 C-56.24556306 71.36828347 -60.92718834 82.48257303 -62 96 C-67.61 96 -73.22 96 -79 96 C-80.02852583 79.33788158 -73.97786362 65.97783033 -63.24804688 53.47631836 C-52.90904028 41.88905688 -40.12964638 34.08080119 -27.11767578 25.83325195 C-9.95256017 16.04375115 -9.95256017 16.04375115 0 0 Z " fill="#CC9F55" transform="translate(375,200)"/>
<path d="M0 0 C6.98242443 3.89130404 11.40269347 9.24355081 13.75 16.9375 C14.91894429 24.6265558 13.1127531 30.55862615 8.75 36.9375 C4.10200888 42.29622763 -1.44938926 45.15479173 -8.40625 46.2890625 C-15.58708509 46.76947048 -21.71881755 43.99390161 -27.109375 39.328125 C-31.84338262 34.21914648 -34.28549497 28.50562782 -34.75 21.5625 C-34.49981058 15.2642533 -31.74768042 9.76148071 -27.60546875 5.078125 C-19.53328615 -2.28341398 -10.06266617 -4.58494414 0 0 Z " fill="#FAD07F" transform="translate(266.25,50.0625)"/>
<path d="M0 0 C5.66903861 3.0444837 9.08390172 6.78329401 11.375 12.8125 C11.97116976 18.27738945 10.9667269 21.98652578 8.375 26.8125 C4.13836849 31.99060518 -0.42465799 34.40518374 -7.0625 35.25 C-12.29992448 34.60680752 -16.57154446 33.04341466 -20.20703125 29.09375 C-23.99141731 23.94611248 -25.43216469 19.26981752 -24.625 12.8125 C-22.73130473 6.60665526 -19.2865468 2.87315059 -13.625 -0.1875 C-8.7438251 -1.8145583 -4.88094987 -1.59893185 0 0 Z " fill="#FAD080" transform="translate(390.625,135.1875)"/>
<path d="M0 0 C5.66903861 3.0444837 9.08390172 6.78329401 11.375 12.8125 C11.97116976 18.27738945 10.9667269 21.98652578 8.375 26.8125 C4.13836849 31.99060518 -0.42465799 34.40518374 -7.0625 35.25 C-12.29992448 34.60680752 -16.57154446 33.04341466 -20.20703125 29.09375 C-23.99141731 23.94611248 -25.43216469 19.26981752 -24.625 12.8125 C-22.73130473 6.60665526 -19.2865468 2.87315059 -13.625 -0.1875 C-8.7438251 -1.8145583 -4.88094987 -1.59893185 0 0 Z " fill="#FAD080" transform="translate(134.625,135.1875)"/>
</svg>
