<?xml version="1.0" encoding="UTF-8"?>
<svg version="1.1" xmlns="http://www.w3.org/2000/svg" width="512" height="512">
<path d="M0 0 C0.79841309 0.22042969 1.59682617 0.44085938 2.41943359 0.66796875 C24.92002052 7.07612234 44.01163636 17.90300112 61 34 C61.8971875 34.83273438 62.794375 35.66546875 63.71875 36.5234375 C70.87596753 43.37908688 76.61409701 50.70694648 82 59 C82.69996094 60.07765625 83.39992188 61.1553125 84.12109375 62.265625 C102.67967103 92.79864493 107.27879715 129.99148951 99.4140625 164.57666016 C93.37306628 188.79191892 81.48161968 208.48911183 65 227 C64.36835938 227.71671875 63.73671875 228.4334375 63.0859375 229.171875 C55.57587728 237.17819471 45.69236256 244.80829574 36 250 C35.34 250 34.68 250 34 250 C33.88664307 251.10988281 33.77328613 252.21976563 33.65649414 253.36328125 C33.02140596 258.41902416 31.78506315 263.26439167 30.49609375 268.1875 C30.2533522 269.13061035 30.01061066 270.0737207 29.76051331 271.04541016 C28.99081439 274.03149451 28.21427241 277.01574878 27.4375 280 C26.91165477 282.03503884 26.38625954 284.07019401 25.86132812 286.10546875 C24.57941963 291.07167319 23.29137463 296.03624903 22 301 C22.68562012 300.98259766 23.37124023 300.96519531 24.07763672 300.94726562 C25.42752686 300.92696289 25.42752686 300.92696289 26.8046875 300.90625 C27.69655762 300.88884766 28.58842773 300.87144531 29.50732422 300.85351562 C32 301 32 301 35.125 302.5 C37.39403631 305.52538174 37.5592009 307.31086045 37.56640625 311 C36.71329874 314.01235204 35.52231453 315.14949811 33 317 C30.29447755 317.4490016 27.95769409 317.69369634 25.25 317.75 C24.20392578 317.79447266 24.20392578 317.79447266 23.13671875 317.83984375 C21.42509187 317.91018458 19.71254185 317.95739946 18 318 C17.81207886 318.89138672 17.81207886 318.89138672 17.62036133 319.80078125 C17.03379165 322.53757436 16.42334351 325.26852662 15.8125 328 C15.61591797 328.93457031 15.41933594 329.86914062 15.21679688 330.83203125 C13.32993224 339.13423562 10.3715336 346.20850316 3 351 C-0.83358377 352.82724646 -3.89972457 353.26026468 -8.13208008 353.29052734 C-9.34716751 353.30328705 -10.56225494 353.31604675 -11.81416321 353.32919312 C-13.11943466 353.33141876 -14.42470612 353.33364441 -15.76953125 353.3359375 C-17.13327675 353.34237165 -18.49702089 353.34910046 -19.86076355 353.35610962 C-22.71620887 353.36806362 -25.57153339 353.37179248 -28.42700195 353.37060547 C-32.0685311 353.37040257 -35.70927728 353.39768171 -39.35062122 353.43214989 C-42.16724637 353.45449725 -44.98368556 353.45844061 -47.80039024 353.45738602 C-49.7899848 353.460864 -51.77952131 353.48247958 -53.76899719 353.50448608 C-62.58239663 353.46019928 -68.30820604 352.60975409 -74.8125 346.25 C-78.96003943 340.08794142 -80.59264653 333.16132646 -82.1875 326 C-82.45336914 324.83791016 -82.45336914 324.83791016 -82.72460938 323.65234375 C-83.1546759 321.76934979 -83.578055 319.88483046 -84 318 C-85.03640625 317.97421875 -86.0728125 317.9484375 -87.140625 317.921875 C-88.51045801 317.86558049 -89.88024805 317.80823345 -91.25 317.75 C-91.93191406 317.73582031 -92.61382812 317.72164063 -93.31640625 317.70703125 C-96.68772383 317.54337506 -98.70257883 317.21820373 -101.44921875 315.203125 C-103.53749699 312.23640226 -103.65122666 310.44113603 -103.43359375 306.90625 C-103 305 -103 305 -101.125 302.5 C-97.86450644 300.93496309 -96.33737803 300.83731945 -92.8046875 300.90625 C-91.90476074 300.91978516 -91.00483398 300.93332031 -90.07763672 300.94726562 C-89.04920654 300.97336914 -89.04920654 300.97336914 -88 301 C-88.22550537 300.1300943 -88.22550537 300.1300943 -88.45556641 299.24261475 C-90.01849047 293.20961562 -91.57467749 287.17490766 -93.12695312 281.13916016 C-93.70725455 278.8864352 -94.28927581 276.63415255 -94.87304688 274.38232422 C-95.71155446 271.14665465 -96.54387649 267.90944801 -97.375 264.671875 C-97.63748535 263.66445251 -97.8999707 262.65703003 -98.17041016 261.61907959 C-98.53078369 260.20806976 -98.53078369 260.20806976 -98.8984375 258.76855469 C-99.21820557 257.52945343 -99.21820557 257.52945343 -99.54443359 256.26531982 C-100 254 -100 254 -100 250 C-100.68964844 249.76152344 -101.37929687 249.52304688 -102.08984375 249.27734375 C-105.55180498 247.75779835 -108.51131056 245.76333012 -111.5625 243.5625 C-112.17311279 243.12292969 -112.78372559 242.68335938 -113.4128418 242.23046875 C-142.25512808 221.06126965 -161.62661296 189.49552864 -167.41259766 154.18676758 C-172.4032996 120.65644102 -166.40658049 83.79964249 -146 56 C-145.3090625 55.01644531 -144.618125 54.03289063 -143.90625 53.01953125 C-124.28191977 26.16690606 -97.94063886 8.8183237 -66 0 C-64.9783374 -0.28810547 -64.9783374 -0.28810547 -63.93603516 -0.58203125 C-44.71755842 -5.71348695 -19.10354581 -5.38713665 0 0 Z " fill="#FED05B" transform="translate(289,3)"/>
<path d="M0 0 C1.13364182 -0.00644889 2.26728364 -0.01289778 3.43527824 -0.0195421 C4.67592432 -0.01644489 5.9165704 -0.01334769 7.19481182 -0.01015663 C8.52986349 -0.01389381 9.86491297 -0.0184956 11.19995898 -0.02388728 C14.86735235 -0.03612448 18.53465455 -0.03585597 22.20206368 -0.03349853 C26.15787197 -0.03309054 30.11365096 -0.04412777 34.06944561 -0.05361366 C41.81921779 -0.07022863 49.56895954 -0.07572343 57.31874803 -0.07683842 C63.6181456 -0.07778867 69.91753313 -0.0818978 76.21692753 -0.08823967 C94.07622578 -0.10585351 111.93549999 -0.11507833 129.79480699 -0.11357872 C131.23909364 -0.11345885 131.23909364 -0.11345885 132.71255779 -0.11333656 C134.15860759 -0.11321392 134.15860759 -0.11321392 135.6338705 -0.1130888 C151.25778398 -0.11227588 166.88160105 -0.13141468 182.50548664 -0.1596133 C198.54734649 -0.18833787 214.58915931 -0.20215382 230.63104552 -0.20042574 C239.63760046 -0.19976169 248.64405435 -0.20526071 257.65058613 -0.22678185 C265.31898449 -0.24498804 272.98723599 -0.24934564 280.6556466 -0.235763 C284.56756501 -0.22923044 288.47920161 -0.22912628 292.39109325 -0.2464695 C295.97452053 -0.26219297 299.55744241 -0.25934453 303.1408573 -0.24190123 C305.04646997 -0.23737813 306.95209828 -0.25249447 308.8576501 -0.26838052 C316.26569869 -0.20868863 322.24926721 0.34065229 327.8613227 5.70455611 C331.28279131 9.60867695 333.58655982 13.13856084 333.62123394 18.36694908 C333.63120907 19.1770594 333.6411842 19.98716972 333.6514616 20.82182884 C333.65212627 21.70190102 333.65279095 22.58197319 333.65347576 23.48871422 C333.66179928 24.42254433 333.6701228 25.35637444 333.67869854 26.31850243 C333.7028048 29.40750863 333.71157219 32.49630359 333.71817303 35.58539391 C333.72714003 37.73527655 333.73626189 39.88515855 333.74553204 42.0350399 C333.7620271 46.54419025 333.7697229 51.05326632 333.77261639 55.56244469 C333.77799564 61.33052238 333.81565512 67.09789826 333.86136055 72.86577797 C333.89115812 77.30799446 333.89834057 81.75004266 333.89934254 86.19235039 C333.90354071 88.31816123 333.91595874 90.44397275 333.93686008 92.56968498 C333.96382501 95.54972382 333.95893304 98.52814545 333.94644451 101.50824547 C333.96869595 102.81620834 333.96869595 102.81620834 333.9913969 104.15059471 C333.91761659 110.35753948 332.24855697 114.42306302 328.34707928 119.25726891 C323.71378841 123.55153849 320.11604454 125.50478664 313.78597164 125.51733112 C312.0780453 125.52792951 312.0780453 125.52792951 310.3356154 125.53874201 C309.08427458 125.53632692 307.83293375 125.53391184 306.54367352 125.53142357 C305.20123488 125.5358755 303.85879887 125.5411894 302.51636672 125.54729229 C298.82391574 125.5614883 295.13154888 125.56313528 291.43907452 125.56269538 C287.45802344 125.56434219 283.47700715 125.57740619 279.49597454 125.58888817 C270.78934086 125.61174818 262.08273155 125.61965989 253.37607193 125.62471461 C247.93995901 125.62797054 242.50385317 125.6344924 237.06774426 125.641716 C222.01772699 125.66128343 206.96771632 125.67768674 191.91768551 125.68059254 C190.95439722 125.68078011 189.99110893 125.68096768 188.99863009 125.68116093 C187.04579179 125.68152718 185.09295348 125.68189088 183.14011517 125.68225204 C182.17071801 125.68243485 181.20132086 125.68261766 180.20254803 125.68280602 C178.74667814 125.68307684 178.74667814 125.68307684 177.26139674 125.68335313 C161.53393523 125.6868949 145.80661063 125.71391676 130.0791966 125.7513039 C113.93340681 125.78937856 97.78768497 125.80874995 81.64184928 125.80905205 C72.57600759 125.80963682 63.51032921 125.81814132 54.44452953 125.84704971 C46.72485005 125.87155238 39.00539342 125.8788541 31.28568557 125.86380219 C27.34738537 125.85662858 23.40952534 125.85750961 19.47127438 125.88021278 C15.86366206 125.9008105 12.25682808 125.89819605 8.64922413 125.87733794 C6.73062712 125.87219336 4.81201241 125.89161674 2.89351678 125.91199964 C-4.24374162 125.84250196 -9.18035034 125.0373468 -14.65292072 120.25726891 C-18.3261024 116.2940992 -20.89064008 112.64154148 -20.92707539 107.14758873 C-20.93705051 106.33747841 -20.94702564 105.52736809 -20.95730305 104.69270897 C-20.95796772 103.8126368 -20.95863239 102.93256462 -20.95931721 102.02582359 C-20.96764072 101.09199348 -20.97596424 100.15816338 -20.98453999 99.19603539 C-21.00864624 96.10702918 -21.01741363 93.01823422 -21.02401447 89.92914391 C-21.03298148 87.77926126 -21.04210333 85.62937926 -21.05137348 83.47949791 C-21.06786855 78.97034756 -21.07556434 74.46127149 -21.07845783 69.95209312 C-21.08383708 64.18401543 -21.12149657 58.41663956 -21.167202 52.64875984 C-21.19699956 48.20654335 -21.20418201 43.76449515 -21.20518398 39.32218742 C-21.20938216 37.19637659 -21.22180018 35.07056506 -21.24270153 32.94485283 C-21.26966646 29.96481399 -21.26477448 26.98639237 -21.25228596 24.00629234 C-21.26712025 23.13431709 -21.28195454 22.26234184 -21.29723835 21.3639431 C-21.2233853 15.15087875 -19.54514728 11.1023656 -15.65292072 6.25726891 C-10.905054 1.74679552 -6.51678342 0.0093877 0 0 Z " fill="#FC8087" transform="translate(99.65292072296143,386.74273109436035)"/>
<path d="M0 0 C36.07841328 -0.64384466 36.07841328 -0.64384466 49 3 C49.79841309 3.22042969 50.59682617 3.44085938 51.41943359 3.66796875 C73.92002052 10.07612234 93.01163636 20.90300112 110 37 C110.8971875 37.83273438 111.794375 38.66546875 112.71875 39.5234375 C119.87596753 46.37908688 125.61409701 53.70694648 131 62 C131.69996094 63.07765625 132.39992188 64.1553125 133.12109375 65.265625 C151.67967103 95.79864493 156.27879715 132.99148951 148.4140625 167.57666016 C142.37306628 191.79191892 130.48161968 211.48911183 114 230 C113.36835938 230.71671875 112.73671875 231.4334375 112.0859375 232.171875 C104.57587728 240.17819471 94.69236256 247.80829574 85 253 C84.34 253 83.68 253 83 253 C82.88591797 254.11060791 82.77183594 255.22121582 82.65429688 256.36547852 C82.02118374 261.40501761 80.80429588 266.24158637 79.53125 271.15234375 C79.29088013 272.09308243 79.05051025 273.03382111 78.80285645 274.00306702 C78.29753296 275.97604109 77.78980519 277.94840079 77.27978516 279.92016602 C76.49650442 282.95102595 75.72233535 285.98411142 74.94921875 289.01757812 C74.45626445 290.93763751 73.96279345 292.85756433 73.46875 294.77734375 C73.23643677 295.68765854 73.00412354 296.59797333 72.76477051 297.53587341 C72.54784546 298.37086868 72.33092041 299.20586395 72.10742188 300.06616211 C71.91724487 300.80370224 71.72706787 301.54124237 71.53112793 302.3011322 C71 304 71 304 70 305 C68.14630389 305.08737645 66.28932459 305.10698153 64.43359375 305.09765625 C63.30888672 305.09443359 62.18417969 305.09121094 61.02539062 305.08789062 C59.24938477 305.07532227 59.24938477 305.07532227 57.4375 305.0625 C56.24962891 305.05798828 55.06175781 305.05347656 53.83789062 305.04882812 C50.89187774 305.03699675 47.94596319 305.02051287 45 305 C44.94070419 294.78135495 44.96257331 284.56638459 45.36010742 274.35424805 C45.41210985 272.81435268 45.44733696 271.27380765 45.46655273 269.7331543 C45.64033368 256.92590268 45.64033368 256.92590268 48.89941406 252.30957031 C51.16222888 250.2685815 53.42251411 248.61857308 56 247 C57.02867187 246.20851562 58.05734375 245.41703125 59.1171875 244.6015625 C60.02726562 243.94929687 60.93734375 243.29703125 61.875 242.625 C90.56435399 221.33582245 108.95122717 189.46472784 114.22851562 154.20019531 C118.69065899 119.62568954 110.20388919 83.90715633 89.5625 55.75 C85.30554542 50.24746491 80.76410223 45.06630275 76 40 C75.4740625 39.40960938 74.948125 38.81921875 74.40625 38.2109375 C55.64873952 18.01790326 26.94084267 5.50647566 0 2 C0 1.34 0 0.68 0 0 Z " fill="#FEC344" transform="translate(240,0)"/>
<path d="M0 0 C13.2 0 26.4 0 40 0 C40 8.17957795 39.99212949 16.23333662 39.55688477 24.37915039 C39.50972321 25.31616287 39.46256165 26.25317535 39.41397095 27.21858215 C39.25990655 30.26179477 39.10078087 33.30471751 38.94140625 36.34765625 C38.83143669 38.49367444 38.72173608 40.63970642 38.61228943 42.78575134 C38.3832962 47.26133702 38.15194091 51.73679186 37.91870117 56.2121582 C37.62149382 61.91619834 37.32888508 67.62046242 37.03788853 73.32482243 C36.81190082 77.74925251 36.58413794 82.17358977 36.35578728 86.59789848 C36.24737327 88.6999865 36.1393389 90.80209414 36.03170967 92.90422249 C35.48187343 103.61452282 34.91627394 114.31356283 34 125 C34.62782883 124.97858948 35.25565765 124.95717896 35.9025116 124.93511963 C42.4393878 124.71625455 48.97665173 124.52627819 55.51489258 124.35302734 C57.95456473 124.28458743 60.39404215 124.20879351 62.83325195 124.12548828 C66.34040445 124.00698893 69.84740785 123.91499309 73.35546875 123.828125 C74.44522507 123.78560608 75.53498138 123.74308716 76.65776062 123.69927979 C84.23638732 123.54838099 84.23638732 123.54838099 88.18847656 125.88574219 C90.13660091 128.15942909 90.66050374 129.04835794 90.5625 132 C90.56378906 132.66 90.56507813 133.32 90.56640625 134 C89.71329874 137.01235204 88.52231453 138.14949811 86 140 C83.29447755 140.4490016 80.95769409 140.69369634 78.25 140.75 C77.55261719 140.77964844 76.85523438 140.80929687 76.13671875 140.83984375 C74.42509187 140.91018458 72.71254185 140.95739946 71 141 C70.87471924 141.59425781 70.74943848 142.18851563 70.62036133 142.80078125 C70.03379165 145.53757436 69.42334351 148.26852662 68.8125 151 C68.51762695 152.40185547 68.51762695 152.40185547 68.21679688 153.83203125 C66.32993224 162.13423562 63.3715336 169.20850316 56 174 C52.16641623 175.82724646 49.10027543 176.26026468 44.86791992 176.29052734 C43.65283249 176.30328705 42.43774506 176.31604675 41.18583679 176.32919312 C39.88056534 176.33141876 38.57529388 176.33364441 37.23046875 176.3359375 C35.86672325 176.34237165 34.50297911 176.34910046 33.13923645 176.35610962 C30.28379113 176.36806362 27.42846661 176.37179248 24.57299805 176.37060547 C20.9314689 176.37040257 17.29072272 176.39768171 13.64937878 176.43214989 C10.83275363 176.45449725 8.01631444 176.45844061 5.19960976 176.45738602 C3.2100152 176.460864 1.22047869 176.48247958 -0.76899719 176.50448608 C-9.58239663 176.46019928 -15.30820604 175.60975409 -21.8125 169.25 C-25.96003943 163.08794142 -27.59264653 156.16132646 -29.1875 149 C-29.45336914 147.83791016 -29.45336914 147.83791016 -29.72460938 146.65234375 C-30.1546759 144.76934979 -30.578055 142.88483046 -31 141 C-32.03640625 140.97421875 -33.0728125 140.9484375 -34.140625 140.921875 C-35.51045801 140.86558049 -36.88024805 140.80823345 -38.25 140.75 C-38.93191406 140.73582031 -39.61382812 140.72164062 -40.31640625 140.70703125 C-43.68772383 140.54337506 -45.70257883 140.21820373 -48.44921875 138.203125 C-50.08008782 135.88622284 -50.56796346 134.79729318 -50.5625 132 C-50.58441406 131.34 -50.60632813 130.68 -50.62890625 130 C-49.57554668 126.65018571 -48.02225614 125.78743541 -45 124 C-41.10793312 123.50082925 -37.26955212 123.67540957 -33.35546875 123.828125 C-32.2305452 123.85598083 -31.10562164 123.88383667 -29.9466095 123.91253662 C-26.35940524 124.00578397 -22.77381348 124.12751826 -19.1875 124.25 C-16.75330722 124.3182862 -14.31906156 124.38471457 -11.88476562 124.44921875 C-5.92239611 124.61127248 0.03890163 124.79671174 6 125 C5.92483154 123.74944824 5.84966309 122.49889648 5.7722168 121.21044922 C4.18163691 94.64287882 2.70775421 68.07128859 1.41269302 41.48777008 C1.31296166 39.44694694 1.21219826 37.40617707 1.11117554 35.36541748 C0.92134473 31.51328286 0.73538937 27.66098182 0.55078125 23.80859375 C0.49467682 22.67410294 0.43857239 21.53961212 0.38076782 20.3707428 C0.3302829 19.29634445 0.27979797 18.22194611 0.2277832 17.11499023 C0.18353714 16.19483627 0.13929108 15.27468231 0.09370422 14.3266449 C-0.04076195 9.55288788 0 4.77565044 0 0 Z " fill="#C4E2FE" transform="translate(236,180)"/>
<path d="M0 0 C1.16767887 0.71551386 2.31687623 1.46283013 3.4375 2.25 C4.324375 2.8275 5.21125 3.405 6.125 4 C12.16856771 9.88022804 14.46422782 15.99357737 14.97265625 24.3046875 C15.01563339 25.00208038 15.05861053 25.69947327 15.10289001 26.41799927 C15.19307099 27.89898843 15.28119818 29.38010387 15.36743164 30.86132812 C15.49750726 33.08243522 15.63592598 35.30290267 15.77539062 37.5234375 C15.86249019 38.97132352 15.94909287 40.41923952 16.03515625 41.8671875 C16.11258057 43.16253418 16.19000488 44.45788086 16.26977539 45.79248047 C16.48859067 51.60780695 16.4375 57.43055826 16.4375 63.25 C30.2975 63.25 44.1575 63.25 58.4375 63.25 C58.4375 58.96 58.4375 54.67 58.4375 50.25 C58.60410667 45.63054893 58.88229528 41.02149029 59.18212891 36.40917969 C59.3136822 34.3565542 59.43242688 32.30342398 59.55078125 30.25 C59.63464365 28.91922189 59.719252 27.58849054 59.8046875 26.2578125 C59.87800293 25.07848145 59.95131836 23.89915039 60.02685547 22.68408203 C60.93046182 15.12752618 63.21021155 9.70605381 68.4375 4.25 C76.08458863 -1.60457636 82.90052556 -2.54751703 92.4375 -1.75 C99.6686944 0.21534678 105.87175768 4.33029498 109.75 10.8125 C112.46625857 16.3456193 112.70517563 21.11391628 112.8125 27.1875 C112.86857422 28.38536133 112.86857422 28.38536133 112.92578125 29.60742188 C112.99061989 33.95521279 112.83300622 35.72265838 110.140625 39.3125 C107.4375 41.25 107.4375 41.25 103.8125 41.3125 C99.98891414 40.10877853 99.28383934 39.70709235 97.4375 36.25 C97.0979291 32.61837856 97.00113797 29.09053047 96.99804688 25.44921875 C96.89870333 20.76053258 96.89870333 20.76053258 94.52734375 16.78125 C90.66744924 13.95306561 87.13527484 13.57503235 82.4375 14.25 C79.6274654 16.04363911 77.92809532 17.26880935 76.4375 20.25 C76.26414635 21.63667106 76.14235373 23.03000103 76.04858398 24.42431641 C75.9586039 25.71542831 75.9586039 25.71542831 75.86680603 27.03262329 C75.80634598 27.96287323 75.74588593 28.89312317 75.68359375 29.8515625 C75.61842056 30.80316254 75.55324738 31.75476257 75.48609924 32.73519897 C75.27838901 35.78154285 75.07663033 38.82824825 74.875 41.875 C74.73541716 43.93752651 74.59544816 46.00002692 74.45507812 48.0625 C74.11139991 53.12470782 73.77305965 58.1872478 73.4375 63.25 C74.46230469 63.20359375 75.48710937 63.1571875 76.54296875 63.109375 C77.90361656 63.07183989 79.26429605 63.03544159 80.625 63 C81.29853516 62.96648437 81.97207031 62.93296875 82.66601562 62.8984375 C86.27168291 62.82808302 88.28679089 63.15829869 91.390625 65.046875 C93.4375 67.25 93.4375 67.25 94 70.75 C93.4375 74.25 93.4375 74.25 91.94921875 76.453125 C88.26667916 79.08760123 85.09306802 78.68995816 80.6875 78.5 C79.89472656 78.48195313 79.10195313 78.46390625 78.28515625 78.4453125 C76.33541652 78.39833082 74.38630122 78.32659044 72.4375 78.25 C72.4538147 79.4244165 72.4538147 79.4244165 72.47045898 80.62255859 C72.54273233 90.21082239 72.15353795 99.73757129 71.63793945 109.30957031 C71.49983589 111.87805216 71.36765573 114.44678866 71.23632812 117.015625 C71.14878416 118.69012233 71.06090492 120.36460216 70.97265625 122.0390625 C70.93406998 122.78628571 70.8954837 123.53350891 70.85572815 124.30337524 C70.6263014 128.52104648 70.31846801 132.72412866 69.95117188 136.93212891 C69.36607827 143.79657983 69.01626776 150.66620017 68.68359375 157.546875 C68.61842056 158.86165833 68.55324738 160.17644165 68.48609924 161.53106689 C68.31500162 164.98319055 68.14630284 168.43542716 67.97814941 171.88769531 C67.80527638 175.42780762 67.63007135 178.96780448 67.45507812 182.5078125 C67.11363733 189.42176571 66.77495364 196.33585105 66.4375 203.25 C61.4875 203.25 56.5375 203.25 51.4375 203.25 C51.28514832 191.47956802 51.8813204 179.78614221 52.49609375 168.03515625 C52.60604842 165.89010369 52.71574938 163.74503812 52.82521057 161.59996033 C53.05436949 157.12260349 53.28571061 152.64536686 53.51879883 148.16821289 C53.81564842 142.46534596 54.10837093 136.76227698 54.39961147 131.05912113 C54.62578654 126.6346582 54.85349274 122.21027516 55.08171272 117.78591728 C55.1900502 115.68465184 55.29808335 113.58337068 55.40579033 111.48207283 C55.55742106 108.53102222 55.71094617 105.58007589 55.86499023 102.62915039 C55.90814865 101.78353546 55.95130707 100.93792053 55.99577332 100.06668091 C56.37928108 92.78372259 56.91756213 85.52913015 57.4375 78.25 C44.2375 78.25 31.0375 78.25 17.4375 78.25 C17.9325 83.695 17.9325 83.695 18.4375 89.25 C18.64780969 92.68853905 18.84212786 96.12353158 19.01000977 99.56396484 C19.05892365 100.52979996 19.10783752 101.49563507 19.15823364 102.49073792 C19.31743785 105.64736005 19.4733328 108.80413449 19.62890625 111.9609375 C19.73947364 114.17852288 19.85014747 116.39610295 19.96092224 118.61367798 C20.19187091 123.2482368 20.4210945 127.88287706 20.64916992 132.51757812 C20.94018628 138.42722206 21.23617507 144.33660493 21.53355503 150.24593163 C21.76316648 154.82202107 21.98976951 159.39825592 22.21552849 163.9745369 C22.32336986 166.15205455 22.43220187 168.32952339 22.54208565 170.50693893 C23.09214632 181.43400729 23.58047877 192.30658406 23.4375 203.25 C18.4875 203.25 13.5375 203.25 8.4375 203.25 C6.85474641 176.58747249 5.32932194 149.92209358 3.95059204 123.24819946 C3.81785114 120.68512677 3.68389739 118.12211658 3.54867554 115.55917358 C2.18728797 89.68561669 2.18728797 89.68561669 2.4375 78.25 C1.25671875 78.30800781 0.0759375 78.36601562 -1.140625 78.42578125 C-2.69787711 78.47268643 -4.25517201 78.51818579 -5.8125 78.5625 C-6.58980469 78.60439453 -7.36710937 78.64628906 -8.16796875 78.68945312 C-13.93745444 78.81273273 -13.93745444 78.81273273 -17.109375 75.95703125 C-19.09660041 72.25502262 -18.74172194 70.22987406 -17.5625 66.25 C-15.03607103 63.52971138 -13.64391906 63.2564962 -9.890625 62.95703125 C-8.53093965 62.97683249 -7.1714066 63.01240798 -5.8125 63.0625 C-5.11511719 63.07603516 -4.41773438 63.08957031 -3.69921875 63.10351562 C-1.98664459 63.1387055 -0.27447059 63.19250845 1.4375 63.25 C1.10691699 57.21609829 0.75228723 51.18426858 0.37548828 45.15307617 C0.25073101 43.10203429 0.13250545 41.05058408 0.02099609 38.9987793 C-0.14062149 36.04604031 -0.32583102 33.09557666 -0.515625 30.14453125 C-0.5606012 29.22976517 -0.60557739 28.31499908 -0.6519165 27.37251282 C-1.01459927 22.15007047 -1.57795008 19.01113928 -5.5625 15.25 C-7.83498238 14.11375881 -9.34552764 13.98553157 -11.875 13.875 C-12.63425781 13.82601562 -13.39351562 13.77703125 -14.17578125 13.7265625 C-17.92099269 14.54793457 -19.29811535 16.20710963 -21.5625 19.25 C-22.16442393 22.09263894 -22.12753199 24.85357501 -22.0625 27.75 C-21.89144494 35.36852937 -21.89144494 35.36852937 -24.8671875 39.27734375 C-27.5625 41.25 -27.5625 41.25 -31.1875 41.3125 C-35.01624392 40.10715469 -35.72574691 39.72124468 -37.5625 36.25 C-38.00123328 33.32549034 -37.98091404 30.4521545 -37.9375 27.5 C-37.94910156 26.7265625 -37.96070313 25.953125 -37.97265625 25.15625 C-37.93306612 17.29101007 -35.83688387 10.6526745 -30.40234375 4.859375 C-22.11663922 -2.3884175 -10.21268647 -4.84571702 0 0 Z " fill="#7C6E78" transform="translate(218.5625,101.75)"/>
<path d="M0 0 C13.2 0 26.4 0 40 0 C40 8.17957795 39.99212949 16.23333662 39.55688477 24.37915039 C39.50972321 25.31616287 39.46256165 26.25317535 39.41397095 27.21858215 C39.25990655 30.26179477 39.10078087 33.30471751 38.94140625 36.34765625 C38.83143669 38.49367444 38.72173608 40.63970642 38.61228943 42.78575134 C38.3832962 47.26133702 38.15194091 51.73679186 37.91870117 56.2121582 C37.62149382 61.91619834 37.32888508 67.62046242 37.03788853 73.32482243 C36.81190082 77.74925251 36.58413794 82.17358977 36.35578728 86.59789848 C36.24737327 88.6999865 36.1393389 90.80209414 36.03170967 92.90422249 C35.88032854 95.85298661 35.72672173 98.80162687 35.57250977 101.75024414 C35.52935135 102.5978833 35.48619293 103.44552246 35.44172668 104.31884766 C35.07667614 111.22760262 34.53113789 118.09520742 34 125 C24.76 125 15.52 125 6 125 C4.33298712 97.16916093 2.76933786 69.3354067 1.41269302 41.48777008 C1.31296166 39.44694694 1.21219826 37.40617707 1.11117554 35.36541748 C0.92134473 31.51328286 0.73538937 27.66098182 0.55078125 23.80859375 C0.4666246 22.10685753 0.4666246 22.10685753 0.38076782 20.3707428 C0.3302829 19.29634445 0.27979797 18.22194611 0.2277832 17.11499023 C0.18353714 16.19483627 0.13929108 15.27468231 0.09370422 14.3266449 C-0.04076195 9.55288788 0 4.77565044 0 0 Z " fill="#FCCF5B" transform="translate(236,180)"/>
<path d="M0 0 C4.83799361 -0.09951569 9.67538025 -0.17177037 14.51416016 -0.21972656 C16.1571695 -0.23973571 17.80010859 -0.26695213 19.44287109 -0.30175781 C21.81625788 -0.35075305 24.18869649 -0.37307504 26.5625 -0.390625 C27.64893799 -0.42159271 27.64893799 -0.42159271 28.75732422 -0.45318604 C34.78959856 -0.45578915 40.07485167 1.23755402 44.53295898 5.44769287 C47.92807326 9.37474132 50.23945299 12.87713723 50.27415466 18.10968018 C50.28911736 19.32484566 50.28911736 19.32484566 50.30438232 20.56455994 C50.305047 21.44463211 50.30571167 22.32470428 50.30639648 23.23144531 C50.31472 24.16527542 50.32304352 25.09910553 50.33161926 26.06123352 C50.35572552 29.15023972 50.36449291 32.23903469 50.37109375 35.328125 C50.38006075 37.47800764 50.38918261 39.62788964 50.39845276 41.777771 C50.41494782 46.28692135 50.42264362 50.79599741 50.42553711 55.30517578 C50.43091636 61.07325348 50.46857585 66.84062935 50.51428127 72.60850906 C50.54407884 77.05072555 50.55126129 81.49277375 50.55226326 85.93508148 C50.55646143 88.06089232 50.56887946 90.18670385 50.58978081 92.31241608 C50.61674574 95.29245492 50.61185376 98.27087654 50.59936523 101.25097656 C50.61419952 102.12295181 50.62903381 102.99492706 50.64431763 103.89332581 C50.57053731 110.10027057 48.9014777 114.16579411 45 119 C39.40574664 124.18491775 35.27559947 125.29683013 27.734375 125.1953125 C26.94097717 125.1924826 26.14757935 125.18965271 25.33013916 125.18673706 C22.80327083 125.17556779 20.27676068 125.15046944 17.75 125.125 C16.0338593 125.11496598 14.31771302 125.10584087 12.6015625 125.09765625 C8.40090426 125.07563914 4.2005128 125.04113187 0 125 C3 123 3 123 6.4375 121.25 C11.62460353 118.30626403 14.21785705 113.57113499 16 108 C16.20290091 105.04798208 16.30399565 102.18943216 16.30639648 99.23754883 C16.31472 98.3653067 16.32304352 97.49306458 16.33161926 96.59439087 C16.35568227 93.71522532 16.36448806 90.83628665 16.37109375 87.95703125 C16.38006479 85.94789057 16.38918673 83.93875055 16.39845276 81.92961121 C16.41493661 77.71729919 16.42264144 73.50506657 16.42553711 69.29272461 C16.43091194 63.9138385 16.46855769 58.53570656 16.51428127 53.15703297 C16.54413395 49.00554227 16.5512625 44.85423111 16.55226326 40.70264244 C16.55645134 38.72082767 16.56882848 36.73901167 16.58978081 34.75730324 C17.15987661 19.98262691 17.15987661 19.98262691 11 7 C8.45466351 4.97439528 5.899283 3.45570695 3 2 C2.01 1.34 1.02 0.68 0 0 Z " fill="#FD646F" transform="translate(383,387)"/>
<path d="M0 0 C1.16015625 -0.00193359 2.3203125 -0.00386719 3.515625 -0.00585938 C4.72476562 0.01798828 5.93390625 0.04183594 7.1796875 0.06640625 C8.365625 0.05544922 9.5515625 0.04449219 10.7734375 0.03320312 C20.03810016 0.10989735 27.86032266 1.52145864 34.9296875 7.81640625 C40.74759419 14.30825485 42.84567701 20.94699235 42.4921875 29.640625 C41.24525602 38.15761236 36.709757 43.55905781 30.3359375 49.03515625 C24.86902059 52.85450916 20.20287206 52.88648541 13.7421875 52.75390625 C12.90623047 52.74488281 12.07027344 52.73585938 11.20898438 52.7265625 C9.15742781 52.70311614 7.10601973 52.66724891 5.0546875 52.62890625 C5.07563477 53.3652832 5.09658203 54.10166016 5.11816406 54.86035156 C5.20135894 58.19973067 5.25335907 61.53889174 5.3046875 64.87890625 C5.33820313 66.03777344 5.37171875 67.19664062 5.40625 68.390625 C5.41914063 69.50566406 5.43203125 70.62070312 5.4453125 71.76953125 C5.46625977 72.79594727 5.48720703 73.82236328 5.50878906 74.87988281 C4.9327773 78.36692175 3.83757096 79.51232955 1.0546875 81.62890625 C-2.4453125 82.19140625 -2.4453125 82.19140625 -5.9453125 81.62890625 C-8.76380549 78.92528679 -9.84864833 77.249894 -10.45324707 73.36584473 C-10.45642944 72.13072144 -10.45961182 70.89559814 -10.46289062 69.62304688 C-10.4698999 68.9378447 -10.47690918 68.25264252 -10.48413086 67.54667664 C-10.50166796 65.29241844 -10.49010482 63.03942615 -10.4765625 60.78515625 C-10.47925868 59.21244059 -10.48314216 57.63972657 -10.48815918 56.0670166 C-10.49404837 52.77514738 -10.48551044 49.48371309 -10.46679688 46.19189453 C-10.4440071 41.97832875 -10.45713337 37.76578214 -10.48108673 33.55225372 C-10.49556072 30.30593221 -10.49093151 27.0598512 -10.48057556 23.81352234 C-10.47791267 22.26022724 -10.48116265 20.7069101 -10.49049377 19.15364075 C-10.5006865 16.98009651 -10.48512366 14.80818839 -10.46289062 12.63476562 C-10.45970825 11.39964233 -10.45652588 10.16451904 -10.45324707 8.89196777 C-9.44470627 2.41292325 -6.35655121 -0.00440408 0 0 Z " fill="#EAF3FC" transform="translate(253.9453125,408.37109375)"/>
<path d="M0 0 C5.12800043 2.57353182 9.8884271 5.2349844 13.1015625 10.0546875 C12.91316247 13.06908799 12.53370161 15.29208907 11.0390625 17.9296875 C7.84067714 19.78681448 4.63885973 19.66367274 1.1015625 19.0546875 C-1.46877828 17.94454031 -3.54202269 16.60992127 -5.8984375 15.0546875 C-8.46408475 13.77186387 -10.40876819 13.85076797 -13.2734375 13.8046875 C-14.22992188 13.77890625 -15.18640625 13.753125 -16.171875 13.7265625 C-19.43349733 14.11907865 -20.75064201 14.55062262 -22.8984375 17.0546875 C-23.23224564 20.68032564 -23.23224564 20.68032564 -22.8984375 24.0546875 C-22.21330078 24.32619629 -21.52816406 24.59770508 -20.82226562 24.87744141 C-17.6758932 26.13248496 -14.53726831 27.40590616 -11.3984375 28.6796875 C-10.32078125 29.10636719 -9.243125 29.53304688 -8.1328125 29.97265625 C1.50649146 33.91066458 8.54365624 38.12835321 14.1015625 47.0546875 C16.02673989 52.83021968 16.03152484 58.83910832 13.3515625 64.3671875 C9.07199153 72.19608519 3.5481738 76.31204456 -4.8984375 79.0546875 C-15.54084145 80.74383774 -25.44680983 79.43542233 -34.4296875 73.3359375 C-37.86560104 70.76987549 -40.50588013 68.64352356 -42.8984375 65.0546875 C-43.43126338 59.08703764 -43.43126338 59.08703764 -41.8984375 56.1171875 C-38.57398309 54.35107109 -35.48782788 54.24211606 -31.8984375 55.0546875 C-29.65257289 56.38271232 -27.7390214 57.85220458 -25.7578125 59.546875 C-21.87709963 62.69383964 -18.95473062 63.34829547 -13.9609375 63.3671875 C-12.43146484 63.39232422 -12.43146484 63.39232422 -10.87109375 63.41796875 C-7.46549296 63.00177838 -5.63868058 62.08961584 -2.8984375 60.0546875 C-0.63958682 57.24802659 -0.63958682 57.24802659 -0.8359375 54.1171875 C-2.30206684 49.89128529 -5.07185185 48.91338822 -8.8984375 47.0546875 C-13.3080126 45.10500115 -17.77420582 43.2944806 -22.24804688 41.49804688 C-28.8177428 38.77287466 -33.80542329 36.33863124 -37.73828125 30.16796875 C-40.08768356 23.8633437 -40.254488 16.65027594 -37.8671875 10.3203125 C-30.14153481 -2.46993474 -13.30955008 -5.23409273 0 0 Z " fill="#EAF3FC" transform="translate(351.8984375,410.9453125)"/>
<path d="M0 0 C21.45 0 42.9 0 65 0 C62.60309447 23.96905533 62.60309447 23.96905533 54 32 C47.17464971 36.37794896 40.34492527 36.6131653 32.4375 36.5 C31.35275391 36.51546875 30.26800781 36.5309375 29.15039062 36.546875 C20.8317049 36.50646851 15.19418007 35.12319829 9.1875 29.25 C3.28335489 20.47812726 2.27012759 10.21557416 0 0 Z " fill="#D7EBFE" transform="translate(205,320)"/>
<path d="M0 0 C1.16767887 0.71551386 2.31687623 1.46283013 3.4375 2.25 C4.324375 2.8275 5.21125 3.405 6.125 4 C12.16856771 9.88022804 14.46422782 15.99357737 14.97265625 24.3046875 C15.01563339 25.00208038 15.05861053 25.69947327 15.10289001 26.41799927 C15.19307099 27.89898843 15.28119818 29.38010387 15.36743164 30.86132812 C15.49750726 33.08243522 15.63592598 35.30290267 15.77539062 37.5234375 C16.2980794 46.11371395 16.53042608 54.63885037 16.4375 63.25 C11.4875 63.25 6.5375 63.25 1.4375 63.25 C1.36756836 61.97358643 1.29763672 60.69717285 1.22558594 59.38208008 C0.96077964 54.63787898 0.67176558 49.8954073 0.37548828 45.15307617 C0.25073101 43.10203429 0.13250545 41.05058408 0.02099609 38.9987793 C-0.14062149 36.04604031 -0.32583102 33.09557666 -0.515625 30.14453125 C-0.5606012 29.22976517 -0.60557739 28.31499908 -0.6519165 27.37251282 C-1.01459927 22.15007047 -1.57795008 19.01113928 -5.5625 15.25 C-7.83498238 14.11375881 -9.34552764 13.98553157 -11.875 13.875 C-12.63425781 13.82601562 -13.39351562 13.77703125 -14.17578125 13.7265625 C-17.92099269 14.54793457 -19.29811535 16.20710963 -21.5625 19.25 C-22.16442393 22.09263894 -22.12753199 24.85357501 -22.0625 27.75 C-21.89144494 35.36852937 -21.89144494 35.36852937 -24.8671875 39.27734375 C-27.5625 41.25 -27.5625 41.25 -31.1875 41.3125 C-35.01624392 40.10715469 -35.72574691 39.72124468 -37.5625 36.25 C-38.00123328 33.32549034 -37.98091404 30.4521545 -37.9375 27.5 C-37.94910156 26.7265625 -37.96070313 25.953125 -37.97265625 25.15625 C-37.93306612 17.29101007 -35.83688387 10.6526745 -30.40234375 4.859375 C-22.11663922 -2.3884175 -10.21268647 -4.84571702 0 0 Z " fill="#7C6F78" transform="translate(218.5625,101.75)"/>
<path d="M0 0 C0.96147949 -0.0038269 1.92295898 -0.00765381 2.91357422 -0.01159668 C4.9443466 -0.01431602 6.97515399 -0.00695329 9.00585938 0.00976562 C12.1140757 0.03117475 15.21998056 0.00996454 18.328125 -0.015625 C20.30208843 -0.01298173 22.27605043 -0.00785676 24.25 0 C25.17925293 -0.00809692 26.10850586 -0.01619385 27.06591797 -0.02453613 C33.47922506 0.06865631 33.47922506 0.06865631 36.70703125 2.38085938 C38.68456924 5.37985293 38.77237436 7.00665628 38.125 10.53125 C36.5 13.40625 36.5 13.40625 33.125 15.53125 C29.73291016 15.73876953 29.73291016 15.73876953 25.9140625 15.6640625 C24.6451416 15.6448877 23.3762207 15.62571289 22.06884766 15.60595703 C21.09737793 15.58130371 20.1259082 15.55665039 19.125 15.53125 C19.13388245 16.29910828 19.14276489 17.06696655 19.1519165 17.85809326 C19.23209026 25.09715455 19.29297805 32.33600035 19.33224869 39.57538986 C19.35311704 43.29719748 19.38141981 47.01863802 19.42675781 50.74023438 C19.47024413 54.3323451 19.49414277 57.92410295 19.50450897 61.5164566 C19.5118955 62.88642177 19.52632001 64.25636777 19.54792023 65.62618256 C19.5769848 67.54584389 19.57863416 69.4658609 19.57910156 71.38574219 C19.58798401 72.47828308 19.59686646 73.57082397 19.60601807 74.69647217 C19.00633942 78.23055095 17.9588519 79.39514144 15.125 81.53125 C11.625 82.09375 11.625 82.09375 8.125 81.53125 C5.49094216 78.94609402 4.24883112 77.28220693 3.64398193 73.61418152 C3.65286438 72.54162613 3.66174683 71.46907074 3.67089844 70.36401367 C3.67135162 68.53268135 3.67135162 68.53268135 3.67181396 66.66435242 C3.69245911 65.35585831 3.71310425 64.0473642 3.734375 62.69921875 C3.74184153 61.33873834 3.74753252 59.97824712 3.75152588 58.61775208 C3.76675022 55.04841066 3.80600289 51.47972718 3.8503418 47.91064453 C3.89136454 44.26408792 3.90955174 40.6174243 3.9296875 36.97070312 C3.97250139 29.82395067 4.04071286 22.67764344 4.125 15.53125 C3.22499268 15.55590332 2.32498535 15.58055664 1.39770508 15.60595703 C-0.36730347 15.63471924 -0.36730347 15.63471924 -2.16796875 15.6640625 C-3.33610107 15.68871582 -4.5042334 15.71336914 -5.70776367 15.73876953 C-8.875 15.53125 -8.875 15.53125 -12.1875 13.40625 C-14.17606368 10.0183267 -14.61365679 8.38867989 -13.875 4.53125 C-10.39804171 -0.74165783 -5.72864264 -0.04991578 0 0 Z " fill="#EAF2FB" transform="translate(158.875,408.46875)"/>
<path d="M0 0 C1.48112526 -0.01029488 1.48112526 -0.01029488 2.99217224 -0.02079773 C6.25802975 -0.03910751 9.52340879 -0.03522215 12.78930664 -0.02954102 C15.05847836 -0.03410084 17.3276487 -0.03940581 19.59681702 -0.04542542 C24.35398975 -0.05436478 29.11099468 -0.05192396 33.86816406 -0.04199219 C39.96603074 -0.03050232 46.06331838 -0.05071058 52.16110897 -0.07990932 C56.8476988 -0.09825097 61.53414936 -0.09798288 66.22076607 -0.0922718 C68.46904882 -0.09211834 70.71734085 -0.09818357 72.96558952 -0.11056328 C76.10894012 -0.12543235 79.25121445 -0.1148255 82.39453125 -0.09765625 C83.32404602 -0.10732422 84.25356079 -0.11699219 85.21124268 -0.12695312 C89.37005552 -0.0793602 91.69508255 0.07060742 95.34352112 2.21665955 C97.26196289 4.40405273 97.26196289 4.40405273 97.82446289 7.90405273 C97.26196289 11.40405273 97.26196289 11.40405273 95.84790039 13.58946228 C91.8641635 16.38490917 88.08187497 15.97011811 83.32446289 15.9375 C81.81166748 15.95042336 81.81166748 15.95042336 80.26831055 15.96360779 C76.93260073 15.98632189 73.59772724 15.97951898 70.26196289 15.97045898 C67.94555409 15.97569191 65.62914743 15.98196717 63.31274414 15.98924255 C58.45717342 15.99965669 53.60189557 15.99507018 48.74633789 15.98046875 C42.51821307 15.96327467 36.29101021 15.98677958 30.06298828 16.02195835 C25.2794786 16.04389781 20.49619073 16.04249925 15.71264648 16.03419304 C13.41608672 16.03337173 11.11951095 16.04026925 8.82299805 16.05496407 C5.61457292 16.07234666 2.40782011 16.05791885 -0.80053711 16.03515625 C-1.75234863 16.04684845 -2.70416016 16.05854065 -3.68481445 16.07058716 C-10.08764091 15.97796937 -10.08764091 15.97796937 -13.35913086 13.09117126 C-15.2535293 9.39949669 -14.90348131 7.33742691 -13.73803711 3.40405273 C-10.11409428 -0.79770665 -5.11145557 -0.02470103 0 0 Z " fill="#6A5F67" transform="translate(214.738037109375,164.595947265625)"/>
<path d="M0 0 C2.18640137 1.5880127 2.18640137 1.5880127 4 4 C4.50793457 7.22546387 4.50793457 7.22546387 4.51757812 11.09179688 C4.52809204 12.15105125 4.52809204 12.15105125 4.53881836 13.23170471 C4.55639374 15.56112229 4.54477846 17.88932052 4.53125 20.21875 C4.53394508 21.84013095 4.53782763 23.46151032 4.54284668 25.08288574 C4.54874106 28.47907924 4.54018109 31.87485159 4.52148438 35.27099609 C4.49869439 39.62256135 4.51181786 43.97313983 4.53577423 48.32466888 C4.5502341 51.67217432 4.54562546 55.01944611 4.53526306 58.36695862 C4.53259627 59.97131975 4.53586388 61.57570216 4.54518127 63.18003845 C4.55535059 65.42333085 4.53984335 67.66502935 4.51757812 69.90820312 C4.51439575 71.18409302 4.51121338 72.45998291 4.50793457 73.77453613 C3.91068164 77.56718551 3.07347344 78.76220383 0 81 C-3.5 81.5625 -3.5 81.5625 -7 81 C-9.84332018 78.28131617 -10.90697853 76.60577132 -11.50793457 72.69224548 C-11.51270813 70.8083889 -11.51270813 70.8083889 -11.51757812 68.88647461 C-11.5245874 68.18991257 -11.53159668 67.49335052 -11.53881836 66.77568054 C-11.55635569 64.48415708 -11.54479341 62.19387871 -11.53125 59.90234375 C-11.53394587 58.30481225 -11.53782908 56.70728236 -11.54284668 55.10975647 C-11.54873564 51.7666151 -11.54019749 48.42390203 -11.52148438 45.08081055 C-11.49867615 40.79765015 -11.51183275 36.51549132 -11.53577423 32.23236752 C-11.55023303 28.93547527 -11.54562628 25.63882027 -11.53526306 22.34192085 C-11.53259693 20.76267948 -11.53586157 19.18341649 -11.54518127 17.60420036 C-11.55535094 15.39693044 -11.53984396 13.19128022 -11.51757812 10.98413086 C-11.51439575 9.72902206 -11.51121338 8.47391327 -11.50793457 7.18077087 C-10.42893498 0.42389575 -6.34358648 -0.90622664 0 0 Z " fill="#EAF4FD" transform="translate(224,409)"/>
<path d="M0 0 C2.206875 -0.061875 4.41375 -0.12375 6.6875 -0.1875 C8.54955078 -0.23970703 8.54955078 -0.23970703 10.44921875 -0.29296875 C14.23354878 0.0192697 16.00501043 0.732055 19 3 C21.12738138 5.71424521 21.92909561 7.5239277 22.4375 10.9375 C21.8806713 14.83530088 20.43417323 16.93989651 18 20 C14.31602884 22.45598077 11.55276192 22.2271532 7.3125 22.125 C4.899375 22.08375 2.48625 22.0425 0 22 C0 14.74 0 7.48 0 0 Z " fill="#FC828A" transform="translate(259,424)"/>
</svg>
