<?xml version="1.0" encoding="UTF-8"?>
<!DOCTYPE svg PUBLIC "-//W3C//DTD SVG 1.1//EN" "http://www.w3.org/Graphics/SVG/1.1/DTD/svg11.dtd">
<svg xmlns="http://www.w3.org/2000/svg" version="1.1" width="512px" height="512px" style="shape-rendering:geometricPrecision; text-rendering:geometricPrecision; image-rendering:optimizeQuality; fill-rule:evenodd; clip-rule:evenodd" xmlns:xlink="http://www.w3.org/1999/xlink">
<g><path style="opacity:0.988" fill="#d8d7d7" d="M 301.5,-0.5 C 309.167,-0.5 316.833,-0.5 324.5,-0.5C 356.694,7.53892 373.861,28.2056 376,61.5C 376.167,146.169 376.667,230.835 377.5,315.5C 418.557,349.19 431.057,391.523 415,442.5C 398.402,480.94 369.569,503.94 328.5,511.5C 318.5,511.5 308.5,511.5 298.5,511.5C 256.634,503.631 227.467,479.964 211,440.5C 196.067,389.642 209.067,347.642 250,314.5C 250.018,225.807 250.685,137.141 252,48.5C 259.123,22.5424 275.623,6.20911 301.5,-0.5 Z"/></g>
<g><path style="opacity:1" fill="#fe7f1f" d="M 108.5,187.5 C 119.15,177.853 127.483,166.52 133.5,153.5C 148.85,147.501 156.85,136.167 157.5,119.5C 156.713,106.415 150.713,96.5819 139.5,90C 137.257,88.8638 134.924,88.0305 132.5,87.5C 127.592,73.9226 119.258,62.9226 107.5,54.5C 113.471,49.9133 117.471,43.9133 119.5,36.5C 121.5,35.1667 123.5,35.1667 125.5,36.5C 130.554,53.0224 141.554,59.8557 158.5,57C 162.337,55.8273 165.671,53.8273 168.5,51C 171.857,49.8588 173.857,51.0254 174.5,54.5C 168.585,78.1113 177.918,90.6113 202.5,92C 203.293,93.0852 203.96,94.2519 204.5,95.5C 184.603,112.133 184.603,128.8 204.5,145.5C 203.96,146.748 203.293,147.915 202.5,149C 184.519,148.979 174.186,157.812 171.5,175.5C 172.181,179.256 173.181,182.922 174.5,186.5C 173.857,189.975 171.857,191.141 168.5,190C 154.359,180.193 141.526,181.693 130,194.5C 128.226,197.715 126.726,201.048 125.5,204.5C 123.5,207.167 121.5,207.167 119.5,204.5C 117.551,197.571 113.884,191.904 108.5,187.5 Z"/></g>
<g><path style="opacity:1" fill="#f2e7d6" d="M 339.5,109.5 C 322.167,109.5 304.833,109.5 287.5,109.5C 287.333,91.1636 287.5,72.8303 288,54.5C 297.114,35.3508 310.947,30.8508 329.5,41C 333.187,44.2102 336.021,48.0435 338,52.5C 339.462,71.4318 339.962,90.4318 339.5,109.5 Z"/></g>
<g><path style="opacity:0.956" fill="#0d6d9a" d="M 413.5,38.5 C 424.838,38.3335 436.172,38.5001 447.5,39C 452.069,41.5414 453.569,45.3747 452,50.5C 450.833,51.6667 449.667,52.8333 448.5,54C 436.5,54.6667 424.5,54.6667 412.5,54C 406.974,48.357 407.308,43.1903 413.5,38.5 Z"/></g>
<g><path style="opacity:0.991" fill="#fd8f31" d="M 107.5,54.5 C 119.258,62.9226 127.592,73.9226 132.5,87.5C 111.516,82.9085 97.0162,90.5752 89,110.5C 84.8881,133.117 93.7214,147.951 115.5,155C 121.647,155.899 127.647,155.399 133.5,153.5C 127.483,166.52 119.15,177.853 108.5,187.5C 97.2876,181.49 86.6209,182.323 76.5,190C 73.4473,191.072 71.4473,190.072 70.5,187C 75.8634,172.09 71.8634,160.423 58.5,152C 53.3506,150.084 48.0172,149.084 42.5,149C 41.4238,147.274 41.2571,145.441 42,143.5C 55.5256,133.731 58.5256,121.397 51,106.5C 48.9739,102.974 46.1405,100.307 42.5,98.5C 41.359,96.5787 41.1923,94.5787 42,92.5C 66.9596,90.8951 76.4596,78.0617 70.5,54C 71.4473,50.9277 73.4473,49.9277 76.5,51C 86.1047,58.9357 96.438,60.1024 107.5,54.5 Z"/></g>
<g><path style="opacity:1" fill="#fcce3e" d="M 132.5,87.5 C 134.924,88.0305 137.257,88.8638 139.5,90C 150.713,96.5819 156.713,106.415 157.5,119.5C 156.85,136.167 148.85,147.501 133.5,153.5C 127.647,155.399 121.647,155.899 115.5,155C 93.7214,147.951 84.8881,133.117 89,110.5C 97.0162,90.5752 111.516,82.9085 132.5,87.5 Z"/></g>
<g><path style="opacity:0.948" fill="#0d6d9a" d="M 412.5,101.5 C 422.172,101.334 431.839,101.5 441.5,102C 446.94,107.442 446.607,112.442 440.5,117C 431.5,117.667 422.5,117.667 413.5,117C 407.198,112.319 406.865,107.152 412.5,101.5 Z"/></g>
<g><path style="opacity:1" fill="#e5394b" d="M 287.5,109.5 C 304.833,109.5 322.167,109.5 339.5,109.5C 339.167,183.503 339.5,257.503 340.5,331.5C 367.654,343.466 383.487,364.133 388,393.5C 389.299,432.515 371.799,459.015 335.5,473C 316.743,478.807 298.743,477.307 281.5,468.5C 308.84,453.607 322.84,430.441 323.5,399C 323.36,369.872 311.36,347.372 287.5,331.5C 287.5,257.5 287.5,183.5 287.5,109.5 Z"/></g>
<g><path style="opacity:0.948" fill="#0d6d99" d="M 414.5,163.5 C 430.837,163.333 447.17,163.5 463.5,164C 468.906,165.98 470.739,169.814 469,175.5C 468.065,178.102 466.232,179.602 463.5,180C 447.167,180.667 430.833,180.667 414.5,180C 406.565,174.504 406.565,169.004 414.5,163.5 Z"/></g>
<g><path style="opacity:0.952" fill="#0d6e99" d="M 413.5,226.5 C 422.506,226.334 431.506,226.5 440.5,227C 444.511,229.351 446.011,232.851 445,237.5C 444.167,239.667 442.667,241.167 440.5,242C 431.167,242.667 421.833,242.667 412.5,242C 406.974,236.357 407.308,231.19 413.5,226.5 Z"/></g>
<g><path style="opacity:0.957" fill="#0d6d9a" d="M 412.5,289.5 C 424.505,289.333 436.505,289.5 448.5,290C 452.212,292.602 453.378,296.102 452,300.5C 451.167,302.667 449.667,304.167 447.5,305C 436.167,305.667 424.833,305.667 413.5,305C 407.198,300.319 406.865,295.152 412.5,289.5 Z"/></g>
<g><path style="opacity:1" fill="#fb4e51" d="M 287.5,331.5 C 311.36,347.372 323.36,369.872 323.5,399C 322.84,430.441 308.84,453.607 281.5,468.5C 260.755,458.711 247.255,442.711 241,420.5C 233.983,385.871 244.817,358.371 273.5,338C 278.068,335.548 282.735,333.382 287.5,331.5 Z"/></g>
</svg>
