<?xml version="1.0" encoding="UTF-8"?>
<svg version="1.1" xmlns="http://www.w3.org/2000/svg" width="512" height="512">
<path d="M0 0 C19.73551355 16.10260807 28.16603774 40.72299012 31.0390625 65.37109375 C34.5198226 102.71406326 30.31171759 143.99116828 18.54296875 179.671875 C17.88296875 180.331875 17.22296875 180.991875 16.54296875 181.671875 C10.24939211 181.32832575 4.55376436 179.63320431 -1.42578125 177.73046875 C-2.80715271 177.2997683 -2.80715271 177.2997683 -4.21643066 176.86036682 C-7.13199913 175.9497239 -10.04451079 175.02971412 -12.95703125 174.109375 C-14.94381529 173.48700696 -16.93079269 172.86525583 -18.91796875 172.24414062 C-23.76658853 170.72717826 -28.61249103 169.20181328 -33.45703125 167.671875 C-26.99796541 174.15636496 -20.27770695 180.24659425 -13.14453125 185.984375 C-8.75271887 189.54683225 -4.50941588 193.23769394 -0.33203125 197.046875 C0.23684814 197.55903564 0.80572754 198.07119629 1.3918457 198.59887695 C3.91600075 200.92539209 5.43963115 202.3618622 6.54296875 205.671875 C5.76123047 208.7175293 5.76123047 208.7175293 4.47265625 212.49609375 C4.24043365 213.18162323 4.00821106 213.86715271 3.76895142 214.57345581 C2.99632521 216.83939263 2.20843752 219.09960496 1.41796875 221.359375 C1.14831299 222.13763641 0.87865723 222.91589783 0.60083008 223.71774292 C-10.84141803 256.68409926 -24.40274269 289.19273112 -41.45703125 319.671875 C-41.8334375 320.34573242 -42.20984375 321.01958984 -42.59765625 321.71386719 C-46.83096751 329.12599641 -46.83096751 329.12599641 -49.45703125 331.671875 C-54.26175631 332.63795277 -58.70856664 332.71352515 -63.58569336 332.41821289 C-64.25971191 332.37934464 -64.93373047 332.34047638 -65.62817383 332.3004303 C-67.83069329 332.17177754 -70.03246816 332.0332427 -72.234375 331.89453125 C-73.77133089 331.80280729 -75.30832409 331.7117066 -76.84535217 331.62120056 C-80.87178227 331.38244158 -84.89765246 331.1352684 -88.92346191 330.8862915 C-93.03916262 330.63326628 -97.15534044 330.38826831 -101.27148438 330.14257812 C-109.33381956 329.66016309 -117.39558057 329.16885075 -125.45703125 328.671875 C-124.46321945 329.18268112 -123.46940765 329.69348724 -122.44548035 330.21977234 C-92.70872241 345.50552258 -92.70872241 345.50552258 -81.26953125 351.484375 C-80.5427417 351.86126465 -79.81595215 352.2381543 -79.06713867 352.62646484 C-75.0155858 354.75393248 -71.22077452 357.0671071 -67.45703125 359.671875 C-67.94870812 365.07339554 -69.36778397 369.16695326 -72.01953125 373.921875 C-72.37668213 374.57373779 -72.73383301 375.22560059 -73.10180664 375.8972168 C-78.67190438 385.85350687 -85.65604299 394.38506007 -93.45703125 402.671875 C-94.05773437 403.34863281 -94.6584375 404.02539062 -95.27734375 404.72265625 C-104.15371761 414.30990854 -116.10417506 421.59558745 -128.45703125 425.671875 C-129.59785156 426.06246094 -130.73867188 426.45304687 -131.9140625 426.85546875 C-155.44589708 433.85927945 -179.06764644 429.14079292 -201.45703125 420.671875 C-202.44703125 420.341875 -203.43703125 420.011875 -204.45703125 419.671875 C-206.94574987 420.92375764 -209.26978935 422.22962189 -211.64453125 423.671875 C-219.64997295 428.37349831 -227.88698853 432.12761531 -236.45703125 435.671875 C-236.33585938 436.45836426 -236.2146875 437.24485352 -236.08984375 438.05517578 C-235.54096097 441.63505261 -234.9989322 445.21593494 -234.45703125 448.796875 C-234.26625 450.034375 -234.07546875 451.271875 -233.87890625 452.546875 C-233.6984375 453.74570312 -233.51796875 454.94453125 -233.33203125 456.1796875 C-233.16445312 457.27941895 -232.996875 458.37915039 -232.82421875 459.51220703 C-232.46559373 462.59819442 -232.39160932 465.56842224 -232.45703125 468.671875 C-234.95450148 469.94788831 -237.45481061 471.21773671 -239.95703125 472.484375 C-240.653125 472.84080078 -241.34921875 473.19722656 -242.06640625 473.56445312 C-246.77188492 475.93897708 -251.49249426 477.89962474 -256.45703125 479.671875 C-256.88902536 475.11908606 -257.31608687 470.56586991 -257.73876953 466.01220703 C-257.88295314 464.46618453 -258.02843652 462.92028262 -258.17529297 461.37451172 C-258.38728995 459.14061157 -258.59446272 456.90630592 -258.80078125 454.671875 C-258.86640259 453.99133057 -258.93202393 453.31078613 -258.99963379 452.60961914 C-259.42464101 447.93881543 -259.51191976 443.3556948 -259.45703125 438.671875 C-260.60365234 438.72408203 -260.60365234 438.72408203 -261.7734375 438.77734375 C-289.37969755 439.47497487 -313.83237975 427.09579229 -333.6484375 408.7578125 C-366.19545828 377.73884502 -385.9576486 326.24623435 -390.08203125 281.859375 C-390.00061035 279.77001953 -390.00061035 279.77001953 -389.45703125 277.671875 C-387.96350098 276.33522034 -387.96350098 276.33522034 -385.98242188 275.20532227 C-385.254021 274.78469513 -384.52562012 274.36406799 -383.77514648 273.93069458 C-382.62767944 273.30757889 -382.62767944 273.30757889 -381.45703125 272.671875 C-380.38207397 272.08803543 -380.38207397 272.08803543 -379.28540039 271.49240112 C-377.01072929 270.28674808 -374.72163476 269.11400085 -372.42578125 267.94921875 C-371.59042847 267.52185928 -370.75507568 267.09449982 -369.89440918 266.65419006 C-367.2503213 265.30254881 -364.60371667 263.95592153 -361.95703125 262.609375 C-360.18212709 261.7027961 -358.40738608 260.7958977 -356.6328125 259.88867188 C-349.25539022 256.12022275 -341.87065673 252.36867787 -334.45703125 248.671875 C-335.24994568 248.63064514 -336.04286011 248.58941528 -336.85980225 248.54693604 C-344.33549906 248.15487322 -351.80988759 247.74480385 -359.28347397 247.31451797 C-363.12569927 247.09394138 -366.96804816 246.88032598 -370.81152344 246.68261719 C-374.52136364 246.49152556 -378.22976178 246.28215189 -381.93787384 246.060112 C-383.35207412 245.97864839 -384.76666897 245.90375724 -386.18157196 245.83557892 C-388.16461916 245.73889371 -390.14636608 245.61657365 -392.12792969 245.49316406 C-393.25600037 245.43098694 -394.38407104 245.36880981 -395.54632568 245.30474854 C-399.08590767 244.53513865 -400.31718274 243.56668801 -402.45703125 240.671875 C-403.13218689 238.40133667 -403.13218689 238.40133667 -403.38256836 235.87060547 C-403.48641846 234.90936264 -403.59026855 233.94811981 -403.69726562 232.95774841 C-403.79201172 231.91208206 -403.88675781 230.86641571 -403.984375 229.7890625 C-404.0985376 228.68623428 -404.2127002 227.58340607 -404.33032227 226.44715881 C-404.70210061 222.81522268 -405.04862852 219.18135931 -405.39453125 215.546875 C-405.64573133 213.03313562 -405.89843275 210.51954584 -406.15258789 208.00610352 C-406.67460367 202.81856009 -407.18649733 197.63015325 -407.69140625 192.44091797 C-408.42037946 184.98395496 -409.19928229 177.5328438 -409.98828125 170.08203125 C-410.34451772 166.67958388 -410.69943568 163.27700295 -411.05349731 159.87432861 C-411.27978849 157.70788676 -411.50818254 155.54166347 -411.73873901 153.37567139 C-412.05812069 150.35931166 -412.36644207 147.34201845 -412.671875 144.32421875 C-412.81508179 143.00442772 -412.81508179 143.00442772 -412.96118164 141.65797424 C-413.4430928 136.77176758 -413.50621951 132.48565996 -412.45703125 127.671875 C-410.734375 125.80859375 -410.734375 125.80859375 -408.39453125 124.359375 C-407.50894531 123.79476562 -406.62335938 123.23015625 -405.7109375 122.6484375 C-404.63714844 121.99617188 -403.56335938 121.34390625 -402.45703125 120.671875 C-401.04807166 119.78608906 -399.64061148 118.89791521 -398.234375 118.0078125 C-394.32305519 115.53866985 -390.39417029 113.09961458 -386.45703125 110.671875 C-389.51320184 108.63442794 -392.26272631 107.52401631 -395.69921875 106.24609375 C-396.93027344 105.77880859 -398.16132813 105.31152344 -399.4296875 104.83007812 C-401.37816 104.09346047 -403.32780589 103.36093636 -405.28173828 102.63891602 C-407.17576095 101.93686686 -409.062635 101.21785602 -410.94921875 100.49609375 C-412.0769873 100.07416748 -413.20475586 99.65224121 -414.36669922 99.2175293 C-417.82957305 97.48554524 -419.95045365 95.60760647 -422.45703125 92.671875 C-423.34765625 89.578125 -423.34765625 89.578125 -423.70703125 86.171875 C-423.8359375 85.0684375 -423.96484375 83.965 -424.09765625 82.828125 C-424.22141472 81.44305705 -424.34061461 80.05757935 -424.45703125 78.671875 C-424.54315674 77.73400146 -424.62928223 76.79612793 -424.71801758 75.82983398 C-425.43695109 67.45678736 -425.64022942 59.13584636 -425.64453125 50.734375 C-425.65677734 49.47947266 -425.66902344 48.22457031 -425.68164062 46.93164062 C-425.69860099 35.96959083 -424.83704584 25.06514528 -421.58203125 14.546875 C-421.12183594 12.99613281 -421.12183594 12.99613281 -420.65234375 11.4140625 C-419.32733921 8.37434621 -418.01925402 6.75784818 -415.45703125 4.671875 C-396.73295208 -1.56948472 -375.49895097 4.21087369 -358.43798828 12.66699219 C-347.87120974 18.02721655 -338.15435724 23.87244522 -328.99414062 31.41113281 C-327.52271018 32.61800492 -326.02934859 33.79798833 -324.53515625 34.9765625 C-316.99303902 41.09232077 -310.08785168 47.83060861 -303.20703125 54.671875 C-302.28414307 55.58549805 -301.36125488 56.49912109 -300.41040039 57.44042969 C-294.3331619 63.54549786 -288.82482283 69.94040357 -283.45703125 76.671875 C-282.56943764 77.73390212 -281.67738911 78.7922547 -280.77734375 79.84375 C-276.1204044 85.31275351 -271.62154498 90.89517399 -267.26953125 96.609375 C-266.77533691 97.23618164 -266.28114258 97.86298828 -265.77197266 98.50878906 C-263.92681359 100.97563603 -262.50380389 102.88420732 -262.31787109 106.01538086 C-264.16869718 110.33146287 -267.84370913 112.08141342 -271.7265625 114.5234375 C-272.55911057 115.06414886 -273.39165863 115.60486023 -274.24943542 116.16195679 C-276.91377667 117.88807242 -279.59106993 119.59277096 -282.26953125 121.296875 C-284.93404889 123.01278492 -287.59582838 124.73288415 -290.25749207 126.45321655 C-291.91459914 127.52195767 -293.57395392 128.58722363 -295.23579407 129.64859009 C-295.99305283 130.13274384 -296.75031158 130.61689758 -297.53051758 131.11572266 C-298.19368484 131.53810211 -298.85685211 131.96048157 -299.54011536 132.3956604 C-301.57243942 133.74870967 -303.51711099 135.19007277 -305.45703125 136.671875 C-304.88597656 136.57165039 -304.31492187 136.47142578 -303.7265625 136.36816406 C-297.75774103 135.32195966 -291.78732583 134.28524355 -285.81591797 133.25390625 C-283.59056424 132.86829473 -281.36562142 132.48030373 -279.14111328 132.08984375 C-275.93498331 131.52751581 -272.7274503 130.97389355 -269.51953125 130.421875 C-268.53275391 130.24688477 -267.54597656 130.07189453 -266.52929688 129.89160156 C-261.11135352 128.96880586 -255.94694961 128.12372354 -250.45703125 128.671875 C-248.54589844 130.26635742 -248.54589844 130.26635742 -247.25390625 132.52734375 C-246.75511963 133.36612061 -246.25633301 134.20489746 -245.74243164 135.0690918 C-245.23574951 135.98988525 -244.72906738 136.91067871 -244.20703125 137.859375 C-243.65329834 138.81046143 -243.09956543 139.76154785 -242.52905273 140.74145508 C-241.37640956 142.7301785 -240.23714533 144.72671151 -239.11083984 146.73046875 C-237.58341368 149.44709562 -236.02300564 152.14047342 -234.4453125 154.828125 C-225.30942512 170.47749137 -216.5104086 186.43818963 -208.45703125 202.671875 C-205.69733439 200.60210236 -203.5471988 198.79694611 -201.51953125 195.984375 C-199.45703125 193.671875 -199.45703125 193.671875 -196.86499023 192.81420898 C-192.19908341 192.6193366 -189.04937175 194.14922366 -184.8671875 196.08203125 C-184.04560654 196.44654892 -183.22402557 196.81106659 -182.37754822 197.18663025 C-179.75158029 198.35500643 -177.13550146 199.54380566 -174.51953125 200.734375 C-171.09598246 202.27193159 -167.66894077 203.80163299 -164.2421875 205.33203125 C-163.41288727 205.70437897 -162.58358704 206.07672668 -161.72915649 206.46035767 C-154.38567017 209.74384046 -146.95731249 212.76516948 -139.45703125 215.671875 C-139.80781738 215.19580811 -140.15860352 214.71974121 -140.52001953 214.22924805 C-141.58798033 212.77987267 -142.65593188 211.33049048 -143.72387695 209.88110352 C-144.97755402 208.17971993 -146.23129907 206.47838645 -147.48510742 204.77709961 C-150.72080292 200.38640307 -153.95552008 195.99499496 -157.1875 191.6015625 C-157.78401367 190.79146729 -158.38052734 189.98137207 -158.99511719 189.14672852 C-160.1735999 187.5445563 -161.35004971 185.9408867 -162.52441406 184.33569336 C-165.07215656 180.86146597 -167.6343067 177.41505065 -170.3359375 174.05859375 C-170.76285889 173.52032959 -171.18978027 172.98206543 -171.62963867 172.42749023 C-172.7334888 171.04526815 -173.85610667 169.67808885 -174.98046875 168.3125 C-176.98023639 164.73619597 -176.97070142 162.74126172 -176.45703125 158.671875 C-174.772009 156.00182849 -172.59871338 153.93749415 -170.32592773 151.76196289 C-169.67392899 151.11054825 -169.02193024 150.45913361 -168.35017395 149.78797913 C-166.19218023 147.63995282 -164.01056734 145.51768864 -161.828125 143.39453125 C-160.31872081 141.90073589 -158.8109358 140.4053028 -157.30470276 138.90830994 C-153.3324797 134.96847735 -149.3401621 131.04965376 -145.34283447 127.13531494 C-140.5096013 122.39558235 -135.69874426 117.63316581 -130.88611698 112.87252712 C-127.13647306 109.16381606 -123.38321336 105.4590607 -119.61778259 101.76637268 C-118.57285645 100.73880356 -118.57285645 100.73880356 -117.50682068 99.69047546 C-116.2212089 98.42634269 -114.93358084 97.16425503 -113.64334106 95.90484619 C-109.93270325 92.24996157 -106.47726552 88.46017082 -103.13151646 84.46736813 C-101.35141752 82.55862902 -99.6685334 81.06193161 -97.45703125 79.671875 C-90.14182508 79.79656601 -83.34442065 82.45041254 -76.45703125 84.734375 C-75.30074219 85.11142578 -74.14445312 85.48847656 -72.953125 85.87695312 C-70.11891795 86.80216948 -67.28705343 87.73395211 -64.45703125 88.671875 C-64.79025391 87.7339209 -65.12347656 86.7959668 -65.46679688 85.82958984 C-66.70625577 82.33288517 -67.9333027 78.83192956 -69.15673828 75.32958984 C-69.68691438 73.81734259 -70.22040304 72.3062523 -70.75732422 70.79638672 C-71.53065911 68.61985791 -72.29179543 66.43938018 -73.05078125 64.2578125 C-73.29139282 63.58881927 -73.53200439 62.91982605 -73.77990723 62.2305603 C-75.14790532 58.25374455 -75.96681034 54.87060095 -75.45703125 50.671875 C-74.22680664 48.64575195 -74.22680664 48.64575195 -72.4921875 46.84765625 C-71.52949951 45.82986084 -71.52949951 45.82986084 -70.54736328 44.79150391 C-69.85755371 44.09202637 -69.16774414 43.39254883 -68.45703125 42.671875 C-67.78397949 41.96337402 -67.11092773 41.25487305 -66.41748047 40.52490234 C-57.05865736 30.73739746 -47.4834112 21.54963156 -36.45703125 13.671875 C-35.84762695 13.22875977 -35.23822266 12.78564453 -34.61035156 12.32910156 C-10.02302864 -5.41785332 -10.02302864 -5.41785332 0 0 Z " fill="#75C560" transform="translate(451.45703125,16.328125)"/>
<path d="M0 0 C3.54118159 1.3682904 5.32807787 4.72342232 7.46508789 7.72094727 C7.98441895 8.4324292 8.50375 9.14391113 9.03881836 9.87695312 C10.14479768 11.39540157 11.24590034 12.91741193 12.3425293 14.44262695 C14.00001655 16.7451462 15.67354874 19.03509909 17.35180664 21.32250977 C24.16923812 30.64335847 30.7546821 40.0878678 37.02758789 49.78344727 C37.47924316 50.47954102 37.93089844 51.17563477 38.39624023 51.89282227 C81.02939093 117.83755176 112.49742773 190.14504955 136.38879395 264.79284668 C136.99861851 266.69317329 137.61499211 268.59139457 138.23168945 270.48950195 C155.57945777 323.95015648 168.11444285 379.08172049 177.46508789 434.47094727 C177.59096283 435.20903625 177.71683777 435.94712524 177.8465271 436.70758057 C179.37201471 445.71146798 180.51053066 454.65988908 181.02758789 463.78344727 C178.53011766 465.05946057 176.02980853 466.32930898 173.52758789 467.59594727 C172.83149414 467.95237305 172.13540039 468.30879883 171.41821289 468.67602539 C166.71273422 471.05054935 161.99212488 473.01119701 157.02758789 474.78344727 C156.59559378 470.23065832 156.16853227 465.67744218 155.74584961 461.1237793 C155.601666 459.57775679 155.45618262 458.03185489 155.30932617 456.48608398 C155.09732919 454.25218384 154.89015642 452.01787818 154.68383789 449.78344727 C154.61821655 449.10290283 154.55259521 448.4223584 154.48498535 447.72119141 C154.05997813 443.0503877 153.97269938 438.46726706 154.02758789 433.78344727 C152.8809668 433.8356543 152.8809668 433.8356543 151.71118164 433.88891602 C124.10492159 434.58654714 99.6522394 422.20736455 79.83618164 403.86938477 C47.28916086 372.85041728 27.52697054 321.35780661 23.40258789 276.97094727 C23.48400879 274.8815918 23.48400879 274.8815918 24.02758789 272.78344727 C25.52111816 271.4467926 25.52111816 271.4467926 27.50219727 270.31689453 C28.23059814 269.8962674 28.95899902 269.47564026 29.70947266 269.04226685 C30.8569397 268.41915115 30.8569397 268.41915115 32.02758789 267.78344727 C33.10254517 267.1996077 33.10254517 267.1996077 34.19921875 266.60397339 C36.47388985 265.39832035 38.76298438 264.22557311 41.05883789 263.06079102 C41.89419067 262.63343155 42.72954346 262.20607208 43.59020996 261.76576233 C46.23429785 260.41412108 48.88090247 259.06749379 51.52758789 257.72094727 C53.30249205 256.81436836 55.07723306 255.90746996 56.85180664 255.00024414 C64.22922892 251.23179501 71.61396242 247.48025013 79.02758789 243.78344727 C78.23467346 243.74221741 77.44175903 243.70098755 76.62481689 243.6585083 C69.14912008 243.26644549 61.67473155 242.85637612 54.20114517 242.42609024 C50.35891987 242.20551364 46.51657098 241.99189825 42.6730957 241.79418945 C38.9632555 241.60309783 35.25485736 241.39372416 31.5467453 241.17168427 C30.13254502 241.09022066 28.71795017 241.0153295 27.30304718 240.94715118 C25.31999998 240.85046597 23.33825306 240.72814592 21.35668945 240.60473633 C20.22861877 240.5425592 19.1005481 240.48038208 17.93829346 240.4163208 C14.39871147 239.64671092 13.1674364 238.67826027 11.02758789 235.78344727 C10.35243225 233.51290894 10.35243225 233.51290894 10.10205078 230.98217773 C9.99820068 230.02093491 9.89435059 229.05969208 9.78735352 228.06932068 C9.69260742 227.02365433 9.59786133 225.97798798 9.50024414 224.90063477 C9.38608154 223.79780655 9.27191895 222.69497833 9.15429688 221.55873108 C8.78251853 217.92679495 8.43599062 214.29293157 8.09008789 210.65844727 C7.83888781 208.14470788 7.58618639 205.63111811 7.33203125 203.11767578 C6.81001547 197.93013235 6.29812181 192.74172552 5.79321289 187.55249023 C5.06423968 180.09552722 4.28533685 172.64441607 3.49633789 165.19360352 C3.14010142 161.79115615 2.78518346 158.38857522 2.43112183 154.98590088 C2.20483065 152.81945903 1.9764366 150.65323574 1.74588013 148.48724365 C1.42649845 145.47088393 1.11817707 142.45359072 0.81274414 139.43579102 C0.66953735 138.11599998 0.66953735 138.11599998 0.5234375 136.76954651 C0.04152634 131.88333984 -0.02160037 127.59723223 1.02758789 122.78344727 C2.75024414 120.92016602 2.75024414 120.92016602 5.09008789 119.47094727 C5.97567383 118.90633789 6.86125977 118.34172852 7.77368164 117.76000977 C8.8474707 117.10774414 9.92125977 116.45547852 11.02758789 115.78344727 C12.43654748 114.89766132 13.84400766 114.00948748 15.25024414 113.11938477 C19.16156395 110.65024211 23.09044885 108.21118685 27.02758789 105.78344727 C23.9714173 103.74600021 21.22189283 102.63558858 17.78540039 101.35766602 C16.5543457 100.89038086 15.32329102 100.4230957 14.05493164 99.94165039 C12.10645914 99.20503274 10.15681325 98.47250863 8.20288086 97.75048828 C6.30885819 97.04843913 4.42198414 96.32942829 2.53540039 95.60766602 C1.40763184 95.18573975 0.27986328 94.76381348 -0.88208008 94.32910156 C-4.34495391 92.5971175 -6.46583451 90.71917874 -8.97241211 87.78344727 C-9.86303711 84.68969727 -9.86303711 84.68969727 -10.22241211 81.28344727 C-10.35131836 80.18000977 -10.48022461 79.07657227 -10.61303711 77.93969727 C-10.73679558 76.55462932 -10.85599547 75.16915162 -10.97241211 73.78344727 C-11.0585376 72.84557373 -11.14466309 71.9077002 -11.23339844 70.94140625 C-11.95233195 62.56835962 -12.15561028 54.24741862 -12.15991211 45.84594727 C-12.1721582 44.59104492 -12.1844043 43.33614258 -12.19702148 42.04321289 C-12.21398185 31.0811631 -11.3524267 20.17671754 -8.09741211 9.65844727 C-7.6372168 8.10770508 -7.6372168 8.10770508 -7.16772461 6.52563477 C-5.71454036 3.19185914 -4.09509897 -0.44960426 0 0 Z " fill="#449655" transform="translate(37.972412109375,21.216552734375)"/>
<path d="M0 0 C2.15917157 1.66586175 4.28009674 3.37378248 6.38574219 5.10668945 C7.85717263 6.31356156 9.35053422 7.49354497 10.84472656 8.67211914 C18.38684379 14.78787741 25.29203114 21.52616525 32.17285156 28.36743164 C33.09573975 29.28105469 34.01862793 30.19467773 34.96948242 31.13598633 C41.04672091 37.2410545 46.55505998 43.63596021 51.92285156 50.36743164 C52.81044517 51.42945876 53.7024937 52.48781134 54.60253906 53.53930664 C59.25947841 59.00831015 63.75833783 64.59073063 68.11035156 70.30493164 C68.6045459 70.93173828 69.09874023 71.55854492 69.60791016 72.2043457 C71.45306922 74.67119267 72.87607892 76.57976396 73.06201172 79.7109375 C71.21118563 84.02701951 67.53617368 85.77697006 63.65332031 88.21899414 C62.82077225 88.75970551 61.98822418 89.30041687 61.13044739 89.85751343 C58.46610614 91.58362906 55.78881289 93.2883276 53.11035156 94.99243164 C50.44583392 96.70834156 47.78405443 98.42844079 45.12239075 100.14877319 C43.46528368 101.21751432 41.80592889 102.28278027 40.14408875 103.34414673 C39.38682999 103.82830048 38.62957123 104.31245422 37.84936523 104.8112793 C37.18619797 105.23365875 36.5230307 105.65603821 35.83976746 106.09121704 C33.80744339 107.44426631 31.86277182 108.88562942 29.92285156 110.36743164 C30.49390625 110.26720703 31.06496094 110.16698242 31.65332031 110.0637207 C37.62214178 109.0175163 43.59255698 107.98080019 49.56396484 106.94946289 C51.78931857 106.56385137 54.01426139 106.17586037 56.23876953 105.78540039 C59.44489951 105.22307245 62.65243252 104.66945019 65.86035156 104.11743164 C66.84712891 103.94244141 67.83390625 103.76745117 68.85058594 103.5871582 C74.2685293 102.6643625 79.43293321 101.81928018 84.92285156 102.36743164 C86.83398438 103.96191406 86.83398438 103.96191406 88.12597656 106.22290039 C88.62476318 107.06167725 89.1235498 107.9004541 89.63745117 108.76464844 C90.1441333 109.68544189 90.65081543 110.60623535 91.17285156 111.55493164 C91.72658447 112.50601807 92.28031738 113.45710449 92.85083008 114.43701172 C94.00347325 116.42573514 95.14273749 118.42226815 96.26904297 120.42602539 C97.79646913 123.14265226 99.35687717 125.83603006 100.93457031 128.52368164 C112.27127089 147.93646052 123.26505946 167.60121778 131.92285156 188.36743164 C132.77657159 190.38454782 133.6307694 192.40146182 134.48535156 194.41821289 C141.20074604 210.35210081 141.20074604 210.35210081 144.21972656 218.27758789 C144.54811523 219.13618408 144.87650391 219.99478027 145.21484375 220.87939453 C145.9695385 223.53149598 146.15582107 225.62446891 145.92285156 228.36743164 C144.48144531 230.48071289 144.48144531 230.48071289 142.36035156 232.67993164 C141.12671875 233.98317383 141.12671875 233.98317383 139.86816406 235.31274414 C139.16868652 236.0363916 139.16868652 236.0363916 138.45507812 236.7746582 C136.77908178 238.51688257 135.12687918 240.27964446 133.47753906 242.04711914 C130.93328998 244.77343747 128.38402763 247.49486506 125.82910156 250.21118164 C120.40978258 255.97458436 115.00980526 261.75593823 109.61914062 267.54614258 C108.46821337 268.78188198 107.316494 270.01688402 106.1640625 271.2512207 C104.47718384 273.05865798 102.79337756 274.86890729 101.11035156 276.67993164 C100.60028564 277.22544678 100.09021973 277.77096191 99.56469727 278.33300781 C96.93948981 281.13005057 96.93948981 281.13005057 94.92285156 284.36743164 C95.92097115 283.94187485 95.92097115 283.94187485 96.93925476 283.50772095 C103.22125686 280.8294521 109.50348586 278.15171614 115.78596783 275.47457314 C119.01555836 274.09833136 122.24506193 272.72188631 125.47436523 271.3449707 C129.19000645 269.76070021 132.90602848 268.17732474 136.62207031 266.59399414 C137.77744797 266.10121979 138.93282562 265.60844543 140.12321472 265.10073853 C141.20395767 264.64041229 142.28470062 264.18008606 143.39819336 263.70581055 C144.82049507 263.09958359 144.82049507 263.09958359 146.27153015 262.48110962 C147.14646622 262.11359589 148.02140228 261.74608215 148.92285156 261.36743164 C149.80378983 260.9917807 150.68472809 260.61612976 151.59236145 260.22909546 C154.17870497 259.27283367 156.18743863 259.21112233 158.92285156 259.36743164 C173.43669586 286.45033714 178.97562048 314.21881066 170.92285156 344.36743164 C163.42158292 367.9058953 143.32555668 387.22634976 121.84863281 398.57446289 C117.91186041 400.58794069 113.92797533 402.49440514 109.92285156 404.36743164 C108.9625 404.82504883 108.00214844 405.28266602 107.01269531 405.75415039 C101.37350946 408.36743164 101.37350946 408.36743164 97.92285156 408.36743164 C96.60124504 402.56029712 95.39026401 396.74443441 94.29394531 390.89086914 C84.95143358 341.64993462 73.18588223 293.120051 57.92285156 245.36743164 C57.6873761 244.62942322 57.45190063 243.89141479 57.20928955 243.13104248 C30.87320339 160.74457728 -4.93680228 81.04608604 -69.94042969 -10.87084961 C-72.41224713 -14.06568496 -74.7662308 -17.32025308 -77.07714844 -20.63256836 C-76.74714844 -21.29256836 -76.41714844 -21.95256836 -76.07714844 -22.63256836 C-50.6268089 -29.92425529 -19.90982309 -14.84343124 0 0 Z " fill="#80DE6A" transform="translate(116.0771484375,42.632568359375)"/>
<path d="M0 0 C0.33 0.33 0.66 0.66 1 1 C0.92239198 9.01160837 -0.89511731 16.720067 -2.875 24.4375 C-3.17962158 25.63415283 -3.48424316 26.83080566 -3.7980957 28.0637207 C-21.25809167 95.22579108 -48.58490545 160.33379293 -83.44824219 220.30664062 C-85.04664209 223.08095588 -86.60969366 225.87267358 -88.1640625 228.671875 C-99.87058824 249.73574899 -112.84055983 269.88774876 -126.1875 289.9375 C-127.00533463 291.16714478 -127.00533463 291.16714478 -127.83969116 292.42163086 C-134.97752272 303.14080082 -142.27559075 313.72969526 -149.74217224 324.2223053 C-152.12781492 327.59394686 -154.46150245 331.00088315 -156.79296875 334.41015625 C-157.19128906 334.93480469 -157.58960938 335.45945312 -158 336 C-158.33 336 -158.66 336 -159 336 C-159.20753906 334.70449219 -159.41507812 333.40898437 -159.62890625 332.07421875 C-162.28874069 316.40464722 -166.71468285 302.13926683 -174 288 C-180.01824029 288.5052069 -184.7237798 289.84154363 -190.20703125 292.31640625 C-191.34638626 292.81533386 -191.34638626 292.81533386 -192.50875854 293.32434082 C-194.11979758 294.03129014 -195.72877565 294.74295251 -197.33578491 295.45901489 C-199.82819618 296.56949333 -202.32587186 297.66720899 -204.82543945 298.76147461 C-208.0877572 300.19069588 -211.34815434 301.62412212 -214.60644531 303.0625 C-219.95526339 305.42292237 -225.31258074 307.76208038 -230.6875 310.0625 C-231.80572144 310.55375366 -231.80572144 310.55375366 -232.9465332 311.05493164 C-234.60646985 311.76378914 -236.30024589 312.3927895 -238 313 C-238.66 312.67 -239.32 312.34 -240 312 C-239.35933594 311.3709375 -238.71867188 310.741875 -238.05859375 310.09375 C-237.19363281 309.2378125 -236.32867187 308.381875 -235.4375 307.5 C-234.16712891 306.24703125 -234.16712891 306.24703125 -232.87109375 304.96875 C-230.05918479 302.1221567 -227.45685945 299.11066086 -224.83666992 296.08837891 C-221.78962472 292.62374716 -218.61186586 289.28513481 -215.4375 285.9375 C-214.03364087 284.4507222 -212.62999953 282.96373874 -211.2265625 281.4765625 C-210.1732373 280.3613623 -210.1732373 280.3613623 -209.09863281 279.22363281 C-205.82954551 275.75983022 -202.56816519 272.28891795 -199.3125 268.8125 C-198.74909912 268.2136499 -198.18569824 267.6147998 -197.60522461 266.99780273 C-196.55190233 265.87195819 -195.50674543 264.7384005 -194.47119141 263.59619141 C-193.4998951 262.54236876 -192.49660324 261.51706523 -191.46240234 260.52490234 C-188.74674887 257.74946152 -188.0082011 256.29240079 -187.8984375 252.37890625 C-189.05535027 246.66885082 -191.40755545 241.30048027 -193.625 235.9375 C-194.29462769 234.28391479 -194.29462769 234.28391479 -194.9777832 232.59692383 C-198.0106399 225.17922719 -201.2788113 217.93163201 -204.91796875 210.79296875 C-206 208 -206 208 -205.90625 205.90625 C-204.69500844 203.35846604 -203.16145446 201.4431999 -201.3125 199.3125 C-200.64863281 198.52488281 -199.98476562 197.73726562 -199.30078125 196.92578125 C-196.35148277 194.45718337 -194.84725351 194.18879169 -191 194 C-187.99584923 194.83208059 -185.23541169 196.10445693 -182.41015625 197.41015625 C-181.58857529 197.77467392 -180.76699432 198.13919159 -179.92051697 198.51475525 C-177.29454904 199.68313143 -174.67847021 200.87193066 -172.0625 202.0625 C-168.63895121 203.60005659 -165.21190952 205.12975799 -161.78515625 206.66015625 C-160.5412059 207.21867783 -160.5412059 207.21867783 -159.27212524 207.78848267 C-151.92863892 211.07196546 -144.50028124 214.09329448 -137 217 C-137.35078613 216.52393311 -137.70157227 216.04786621 -138.06298828 215.55737305 C-139.13094908 214.10799767 -140.19890063 212.65861548 -141.2668457 211.20922852 C-142.52052277 209.50784493 -143.77426782 207.80651145 -145.02807617 206.10522461 C-148.26377167 201.71452807 -151.49848883 197.32311996 -154.73046875 192.9296875 C-155.62523926 191.71454468 -155.62523926 191.71454468 -156.53808594 190.47485352 C-157.71656865 188.8726813 -158.89301846 187.2690117 -160.06738281 185.66381836 C-162.61512531 182.18959097 -165.17727545 178.74317565 -167.87890625 175.38671875 C-168.30582764 174.84845459 -168.73274902 174.31019043 -169.17260742 173.75561523 C-170.27645755 172.37339315 -171.39907542 171.00621385 -172.5234375 169.640625 C-174.52320514 166.06432097 -174.51367017 164.06938672 -174 160 C-172.31497775 157.32995349 -170.14168213 155.26561915 -167.86889648 153.09008789 C-167.21689774 152.43867325 -166.56489899 151.78725861 -165.8931427 151.11610413 C-163.73514898 148.96807782 -161.55353609 146.84581364 -159.37109375 144.72265625 C-157.86168956 143.22886089 -156.35390455 141.7334278 -154.84767151 140.23643494 C-150.87544845 136.29660235 -146.88313085 132.37777876 -142.88580322 128.46343994 C-138.05257005 123.72370735 -133.24171301 118.96129081 -128.42908573 114.20065212 C-124.67944181 110.49194106 -120.92618211 106.7871857 -117.16075134 103.09449768 C-116.46413391 102.4094516 -115.76751648 101.72440552 -115.04978943 101.01860046 C-113.76417765 99.75446769 -112.47654959 98.49238003 -111.18630981 97.23297119 C-107.475672 93.57808657 -104.02023427 89.78829582 -100.67448521 85.79549313 C-98.89438627 83.88675402 -97.21150215 82.39005661 -95 81 C-87.68479383 81.12469101 -80.8873894 83.77853754 -74 86.0625 C-72.84371094 86.43955078 -71.68742188 86.81660156 -70.49609375 87.20507812 C-67.6618867 88.13029448 -64.83002218 89.06207711 -62 90 C-62.33322266 89.0620459 -62.66644531 88.1240918 -63.00976562 87.15771484 C-64.24922452 83.66101017 -65.47627145 80.16005456 -66.69970703 76.65771484 C-67.22988313 75.14546759 -67.76337179 73.6343773 -68.30029297 72.12451172 C-69.07362786 69.94798291 -69.83476418 67.76750518 -70.59375 65.5859375 C-70.83436157 64.91694427 -71.07497314 64.24795105 -71.32287598 63.5586853 C-72.69087407 59.58186955 -73.50977909 56.19872595 -73 52 C-71.76977539 49.97387695 -71.76977539 49.97387695 -70.03515625 48.17578125 C-69.07246826 47.15798584 -69.07246826 47.15798584 -68.09033203 46.11962891 C-67.40052246 45.42015137 -66.71071289 44.72067383 -66 44 C-65.32694824 43.29149902 -64.65389648 42.58299805 -63.96044922 41.85302734 C-54.60162611 32.06552246 -45.02637995 22.87775656 -34 15 C-33.3905957 14.55688477 -32.78119141 14.11376953 -32.15332031 13.65722656 C-12.11176837 -0.80862314 -12.11176837 -0.80862314 0 0 Z " fill="#4FB567" transform="translate(449,15)"/>
<path d="M0 0 C3.48396588 1.43127649 5.28537399 4.76777178 7.40991211 7.74780273 C7.92924316 8.45928467 8.44857422 9.1707666 8.98364258 9.90380859 C10.0896219 11.42225704 11.19072456 12.9442674 12.28735352 14.46948242 C13.94484077 16.77200167 15.61837296 19.06195456 17.29663086 21.34936523 C24.11406234 30.67021394 30.69950632 40.11472327 36.97241211 49.81030273 C37.42406738 50.50639648 37.87572266 51.20249023 38.34106445 51.91967773 C80.97421515 117.86440723 112.44225195 190.17190502 136.33361816 264.81970215 C136.94344273 266.72002876 137.55981633 268.61825004 138.17651367 270.51635742 C155.52428199 323.97701195 168.05926707 379.10857596 177.40991211 434.49780273 C177.53578705 435.23589172 177.66166199 435.97398071 177.79135132 436.73443604 C179.31683893 445.73832345 180.45535488 454.68674455 180.97241211 463.81030273 C178.47494188 465.08631604 175.97463275 466.35616445 173.47241211 467.62280273 C172.77631836 467.97922852 172.08022461 468.3356543 171.36303711 468.70288086 C170.66694336 469.05415039 169.97084961 469.40541992 169.25366211 469.76733398 C168.31103516 470.24650269 168.31103516 470.24650269 167.34936523 470.73535156 C163.95259961 472.27150184 160.47128498 473.52385818 156.97241211 474.81030273 C156.88789795 473.57094971 156.80338379 472.33159668 156.71630859 471.0546875 C150.26091206 378.33146346 124.74702279 288.38212713 66.97241211 148.81030273 C66.49384766 147.75697754 66.0152832 146.70365234 65.5222168 145.6184082 C52.37354197 116.71149834 38.42878232 88.352737 23.15161133 60.51000977 C20.66372655 55.96379725 18.23198091 51.41314772 15.97241211 46.74780273 C13.22671182 41.13418999 10.13796336 35.73154083 7.03491211 30.31030273 C6.51324463 29.39684082 5.99157715 28.48337891 5.45410156 27.54223633 C3.22592458 23.65931285 0.98732863 19.79255076 -1.39477539 16.00170898 C-2.03672852 14.96916992 -2.67868164 13.93663086 -3.34008789 12.87280273 C-3.8930957 12.0181543 -4.44610352 11.16350586 -5.01586914 10.28295898 C-6.3451733 7.03411909 -6.04089883 5.13710898 -5.02758789 1.81030273 C-2.02758789 -0.18969727 -2.02758789 -0.18969727 0 0 Z " fill="#42997E" transform="translate(38.027587890625,21.189697265625)"/>
<path d="M0 0 C3.21250032 1.90295395 3.8251288 5.3314552 4.92919922 8.71411133 C5.2017453 9.50830475 5.47429138 10.30249817 5.75509644 11.12075806 C6.654328 13.76198251 7.52720262 16.41102659 8.39794922 19.06176758 C9.01839254 20.91655815 9.63900044 22.77129368 10.25976562 24.62597656 C25.3208667 70.00394114 37.33437079 116.54730508 45.33544922 163.68676758 C45.47331848 164.48828247 45.61118774 165.28979736 45.75323486 166.11560059 C46.14191183 168.38931691 46.51989388 170.66452708 46.89404297 172.94067383 C47.01137283 173.62370071 47.1287027 174.3067276 47.24958801 175.01045227 C47.7587417 178.1899807 47.93463684 180.01420471 46.89794922 183.12426758 C29.44605201 175.80623607 15.54383738 167.26475247 1.89794922 154.12426758 C1.26501953 153.55450195 0.63208984 152.98473633 -0.02001953 152.39770508 C-22.52476736 131.55007644 -34.23378302 99.57349897 -43.10205078 71.12426758 C-43.50166016 69.87387695 -43.90126953 68.62348633 -44.31298828 67.33520508 C-46.58560279 59.86284859 -48.2261968 52.25821787 -49.85205078 44.62426758 C-50.07530029 43.58399414 -50.2985498 42.5437207 -50.52856445 41.47192383 C-52.74726411 30.72856272 -52.74726411 30.72856272 -52.10205078 27.12426758 C-48.33031115 23.6139445 -44.14630406 21.45504562 -39.56298828 19.22583008 C-38.8414859 18.86838715 -38.11998352 18.51094421 -37.37661743 18.14266968 C-35.07955468 17.00577092 -32.77858529 15.8770823 -30.47705078 14.74926758 C-28.20375319 13.63028439 -25.93136246 12.5095094 -23.65997314 11.38665771 C-22.18757945 10.65885317 -20.71424053 9.93295753 -19.2399292 9.20904541 C-14.13276118 6.68643116 -9.17450982 3.967743 -4.28808594 1.03588867 C-2.10205078 0.12426758 -2.10205078 0.12426758 0 0 Z " fill="#4FB467" transform="translate(144.10205078125,267.875732421875)"/>
<path d="M0 0 C0.33 0.33 0.66 0.66 1 1 C0.92239198 9.01160837 -0.89511731 16.720067 -2.875 24.4375 C-3.17962158 25.63415283 -3.48424316 26.83080566 -3.7980957 28.0637207 C-21.25809167 95.22579108 -48.58490545 160.33379293 -83.44824219 220.30664062 C-85.04664209 223.08095588 -86.60969366 225.87267358 -88.1640625 228.671875 C-99.87058824 249.73574899 -112.84055983 269.88774876 -126.1875 289.9375 C-126.73272308 290.75726318 -127.27794617 291.57702637 -127.83969116 292.42163086 C-134.97752272 303.14080082 -142.27559075 313.72969526 -149.74217224 324.2223053 C-152.12781492 327.59394686 -154.46150245 331.00088315 -156.79296875 334.41015625 C-157.39044922 335.19712891 -157.39044922 335.19712891 -158 336 C-158.33 336 -158.66 336 -159 336 C-159.65014606 332.66749315 -160.2943192 329.33385757 -160.9375 326 C-161.11990234 325.06542969 -161.30230469 324.13085938 -161.49023438 323.16796875 C-161.84712023 321.3121623 -162.1899264 319.45359053 -162.51831055 317.5925293 C-162.95479845 315.06105936 -162.95479845 315.06105936 -163.56958008 312.85473633 C-164.25182951 309.8564984 -164.28645008 307.59940969 -162.95532227 304.81396484 C-161.34646747 302.3418285 -159.61788119 300.01989354 -157.8125 297.6875 C-156.50542268 295.91417362 -155.20211247 294.13806519 -153.90234375 292.359375 C-153.24347168 291.46541016 -152.58459961 290.57144531 -151.90576172 289.65039062 C-149.05496401 285.68571475 -146.45098935 281.58420403 -143.875 277.4375 C-143.14023437 276.25812866 -143.14023437 276.25812866 -142.390625 275.05493164 C-141.4078827 273.47564013 -140.42626429 271.89564866 -139.44580078 270.31494141 C-138.04194154 268.06715463 -136.61745902 265.83421036 -135.18359375 263.60546875 C-115.00457338 232.18014602 -96.95181548 199.36339808 -80.05523682 166.07794189 C-78.94388935 163.88950852 -77.83011273 161.70232068 -76.71630859 159.51513672 C-65.90314082 138.25694688 -55.50447852 116.87668168 -46 95 C-45.71658752 94.34831848 -45.43317505 93.69663696 -45.14117432 93.02520752 C-34.53314226 68.60088597 -24.4083052 43.95130312 -14.96875 19.05078125 C-14.50629883 17.83318115 -14.04384766 16.61558105 -13.56738281 15.36108398 C-12.71057142 13.09377302 -11.86058314 10.82386785 -11.01855469 8.55102539 C-10.64633789 7.56223389 -10.27412109 6.57344238 -9.890625 5.5546875 C-9.57125977 4.69343262 -9.25189453 3.83217773 -8.92285156 2.94482422 C-7.08263129 -0.93326962 -3.84664623 -0.16368707 0 0 Z " fill="#42997E" transform="translate(449,15)"/>
<path d="M0 0 C7.59 0 15.18 0 23 0 C23.495 2.475 23.495 2.475 24 5 C16.43793778 8.78681742 8.8741956 12.5700208 1.29669189 16.3258667 C-1.67783366 17.80061228 -4.65075091 19.27858397 -7.62353516 20.75683594 C-9.14889776 21.51438969 -10.67496197 22.27053209 -12.20166016 23.02539062 C-14.44620409 24.13560532 -16.68817251 25.25087275 -18.9296875 26.3671875 C-19.61288055 26.70362274 -20.29607361 27.04005798 -20.99996948 27.38668823 C-23.68526827 28.72901513 -25.86204707 29.86204707 -28 32 C-28.87118159 73.5716964 -5.45223825 125.5503302 22.83032227 155.73657227 C35.10539133 168.52676925 47.6946208 177.83621588 64.22290039 184.17431641 C66.27549805 185.00468648 68.15071875 185.78156746 70 187 C71.01171875 189.734375 71.01171875 189.734375 71 192 C43.32573924 193.26004223 18.56426953 181.72750216 -1.61376953 163.54589844 C-35.18234986 132.4811955 -55.43187107 80.31421099 -59.625 35.1875 C-59.5435791 33.09814453 -59.5435791 33.09814453 -59 31 C-57.50646973 29.66334534 -57.50646973 29.66334534 -55.52539062 28.53344727 C-54.79698975 28.11282013 -54.06858887 27.69219299 -53.31811523 27.25881958 C-52.55313721 26.84340912 -51.78815918 26.42799866 -51 26 C-50.28336182 25.61077362 -49.56672363 25.22154724 -48.82836914 24.82052612 C-46.55369804 23.61487308 -44.26460351 22.44212585 -41.96875 21.27734375 C-41.13339722 20.84998428 -40.29804443 20.42262482 -39.43737793 19.98231506 C-36.79329005 18.63067381 -34.14668542 17.28404653 -31.5 15.9375 C-29.72509584 15.0309211 -27.95035483 14.1240227 -26.17578125 13.21679688 C-17.48359489 8.77675524 -17.48359489 8.77675524 -14.15844727 7.09957886 C-12.69845247 6.35581299 -11.2458918 5.59730045 -9.80053711 4.82546997 C-9.10259033 4.45839935 -8.40464355 4.09132874 -7.68554688 3.71313477 C-6.76364563 3.21838402 -6.76364563 3.21838402 -5.82312012 2.71363831 C-4 2 -4 2 0 2 C0 1.34 0 0.68 0 0 Z " fill="#449655" transform="translate(121,263)"/>
<path d="M0 0 C3 1 3 1 4.47949219 3.41967773 C4.99672852 4.49677002 5.51396484 5.5738623 6.046875 6.68359375 C6.33442154 7.27665817 6.62196808 7.8697226 6.91822815 8.48075867 C7.87359906 10.46107384 8.81251942 12.44865885 9.75 14.4375 C10.42199379 15.84820425 11.0941153 17.25884766 11.76635742 18.66943359 C26.12065299 48.92133293 38.85634752 79.8004281 51 111 C51.31233582 111.80207886 51.62467163 112.60415771 51.94647217 113.43054199 C52.8135768 115.66729955 53.6724047 117.90700578 54.52734375 120.1484375 C54.78117325 120.80437897 55.03500275 121.46032043 55.29652405 122.13613892 C56.34858173 124.92439645 57 126.98916153 57 130 C45.65459278 130.12178199 34.32920168 129.84377384 22.99243164 129.42016602 C20.94001033 129.34783182 18.88722812 129.28515046 16.83422852 129.23168945 C13.83483783 129.15257681 10.83797754 129.04250248 7.83984375 128.92578125 C6.92524887 128.90784012 6.01065399 128.88989899 5.06834412 128.87141418 C0.86166719 128.67634855 -1.45705804 128.35735961 -5.03417969 126.00292969 C-7.65818502 121.99457578 -7.9786471 118.73611338 -8.29296875 114.02734375 C-8.36993484 113.14961807 -8.44690094 112.2718924 -8.52619934 111.36756897 C-8.76785119 108.55884561 -8.97842174 105.74881701 -9.1875 102.9375 C-9.33838733 101.10594495 -9.4913643 99.27456079 -9.64648438 97.44335938 C-9.95540523 93.77461742 -10.25493016 90.10527657 -10.54882812 86.43530273 C-11.4957785 74.81068388 -12.72414177 63.21347662 -14.0703125 51.62890625 C-14.15753067 50.87580673 -14.24474884 50.12270721 -14.33460999 49.3467865 C-14.68605336 46.31834726 -15.03772166 43.28999976 -15.40087891 40.26293945 C-16.29957135 32.74377296 -17.13180988 25.22287183 -17.4296875 17.65234375 C-17.47077637 16.65066162 -17.51186523 15.64897949 -17.55419922 14.61694336 C-16.78195867 10.97040307 -15.03144006 10.03078673 -12 8 C-11.00742188 7.28199219 -10.01484375 6.56398437 -8.9921875 5.82421875 C-7.44917969 4.76654297 -7.44917969 4.76654297 -5.875 3.6875 C-4.84117188 2.96949219 -3.80734375 2.25148437 -2.7421875 1.51171875 C-1.83726563 1.01285156 -0.93234375 0.51398438 0 0 Z " fill="#4FB467" transform="translate(86,133)"/>
<path d="M0 0 C3.29511408 3.07160284 5.08286695 6.68908371 7.08984375 10.66796875 C7.66853966 11.79843376 7.66853966 11.79843376 8.25892639 12.95173645 C9.49055542 15.36092723 10.71408125 17.77413135 11.9375 20.1875 C12.75663878 21.79258456 13.57629486 23.39740523 14.39648438 25.00195312 C17.96219318 31.98588158 21.49887089 38.98346352 25 46 C19.7995756 44.35319894 14.65808292 42.5734919 9.5625 40.625 C8.04849609 40.05652344 8.04849609 40.05652344 6.50390625 39.4765625 C3.3465615 37.61466497 2.91049364 36.51401329 2 33 C-0.04900173 22.02139815 -0.24790446 11.1281557 0 0 Z " fill="#4FB467" transform="translate(57,74)"/>
</svg>
