<?xml version="1.0" encoding="UTF-8"?>
<svg version="1.1" xmlns="http://www.w3.org/2000/svg" width="512" height="512">
<path d="M0 0 C1.14275391 0.04640625 1.14275391 0.04640625 2.30859375 0.09375 C3.45521484 0.10921875 3.45521484 0.10921875 4.625 0.125 C7.22801864 0.70025274 8.12565126 1.50539859 9.74609375 3.59375 C10.76197353 6.64138934 10.94413781 8.94093967 11.0625 12.13671875 C11.1253418 13.74643555 11.1253418 13.74643555 11.18945312 15.38867188 C11.22876953 16.50822266 11.26808594 17.62777344 11.30859375 18.78125 C11.35177734 19.91240234 11.39496094 21.04355469 11.43945312 22.20898438 C11.54558474 25.00378354 11.6476376 27.79867162 11.74609375 30.59375 C12.81085938 30.80128906 13.875625 31.00882813 14.97265625 31.22265625 C30.44276424 34.42744748 43.38188681 40.22954306 54.74609375 51.59375 C56.12219976 50.07391736 57.49691437 48.55282486 58.87109375 47.03125 C59.69738281 46.12503906 60.52367187 45.21882813 61.375 44.28515625 C63.3222832 42.07481337 65.05788218 39.83051325 66.80859375 37.46875 C68.44265515 35.5433796 69.30777642 34.71764086 71.75 34.02734375 C75.17635754 33.83173218 77.36997306 34.33335875 80.18359375 36.28125 C81.97459189 38.93192724 82.66975634 40.38757862 82.74609375 43.59375 C80.59313399 48.84395012 77.36046707 52.6199759 73.62109375 56.78125 C72.53103168 58.00023041 71.4449118 59.22275069 70.36328125 60.44921875 C69.64567627 61.24815552 69.64567627 61.24815552 68.91357422 62.06323242 C67.52789796 63.70843432 67.52789796 63.70843432 66.74609375 66.59375 C67.82993913 69.10304573 67.82993913 69.10304573 69.43359375 71.84375 C77.60450798 87.89988215 77.24625432 102.94000574 76.74609375 120.59375 C77.39400879 120.45372559 78.04192383 120.31370117 78.70947266 120.16943359 C83.5341522 119.15949235 88.17374361 118.28506837 93.12109375 118.21875 C94.09820312 118.19039063 95.0753125 118.16203125 96.08203125 118.1328125 C99.50334871 118.72477065 100.65402792 119.87066663 102.74609375 122.59375 C103.42592317 126.74826311 103.35199368 128.72891847 100.91796875 132.203125 C96.35589861 135.64153254 92.00817535 135.84476085 86.43359375 136.40625 C81.14328125 136.9940625 81.14328125 136.9940625 75.74609375 137.59375 C75.08609375 150.13375 74.42609375 162.67375 73.74609375 175.59375 C79.9031963 175.51966038 86.05887028 175.43674738 92.21533203 175.33129883 C94.30835499 175.29810451 96.40146628 175.27005555 98.49462891 175.24731445 C101.50851987 175.21366769 104.52160538 175.16134607 107.53515625 175.10546875 C108.46663483 175.09907883 109.3981134 175.0926889 110.3578186 175.08610535 C116.74311209 174.94255365 121.20827746 174.16712506 125.87620544 169.43379211 C128.23836589 165.84607239 128.25647493 163.64862922 128.27612305 159.37255859 C128.28485443 158.66463669 128.29358582 157.95671478 128.30258179 157.2273407 C128.32688368 154.8986956 128.32355206 152.57094293 128.3203125 150.2421875 C128.33276164 148.6198272 128.34709698 146.99748038 128.36323547 145.37515259 C128.4012288 141.11182873 128.41644344 136.84873706 128.42602539 132.58526611 C128.44578395 125.75438139 128.50260422 118.92367335 128.55478859 112.09297562 C128.57013617 109.70709937 128.57732568 107.3213112 128.58293152 104.93539429 C128.5899472 103.47564654 128.59704808 102.0158992 128.60424805 100.55615234 C128.60772751 99.28105804 128.61120697 98.00596375 128.61479187 96.69223022 C128.74609375 93.59375 128.74609375 93.59375 129.74609375 90.59375 C129.20210938 90.35527344 128.658125 90.11679688 128.09765625 89.87109375 C125.14523792 88.2673715 122.71747341 86.28724086 120.12109375 84.15625 C119.15945313 83.37378906 118.1978125 82.59132813 117.20703125 81.78515625 C114.32666295 79.22025686 112.89489389 77.57157952 112.30859375 73.71875 C112.74609375 70.59375 112.74609375 70.59375 114.80859375 67.71875 C118.53668767 65.02183099 120.21228272 65.08893491 124.74609375 65.59375 C127.15821367 67.02906103 129.06647023 68.3246104 131.18359375 70.09375 C131.99473633 70.73763672 131.99473633 70.73763672 132.82226562 71.39453125 C134.14232288 72.44590429 135.44598938 73.51780156 136.74609375 74.59375 C137.49052734 73.99626953 137.49052734 73.99626953 138.25 73.38671875 C147.10546133 66.48046712 155.45654023 63.64238313 166.74609375 64.59375 C170.47795675 65.40420509 174.10930662 66.43219061 177.74609375 67.59375 C178.00519531 67.02785156 178.26429688 66.46195312 178.53125 65.87890625 C179.86681175 63.36667595 181.42491998 61.26646763 183.18359375 59.03125 C183.78042969 58.26683594 184.37726563 57.50242188 184.9921875 56.71484375 C189.17421453 51.65729214 189.17421453 51.65729214 193.68359375 51.15625 C196.57559358 51.28939916 197.69431289 51.56268149 200.24609375 53.09375 C202.32656445 56.56120117 202.45454019 59.69597123 201.74609375 63.59375 C200.27941244 66.36718754 198.37384928 68.61942587 196.30859375 70.96875 C195.28814 72.18412188 194.2685665 73.40023354 193.25 74.6171875 C192.42371094 75.59945312 191.59742188 76.58171875 190.74609375 77.59375 C190.41609375 78.25375 190.08609375 78.91375 189.74609375 79.59375 C190.61039474 81.74540457 191.67345515 83.75749425 192.73828125 85.81640625 C195.36391967 93.05217726 194.81375494 100.94407955 194.54223633 108.52270508 C194.47600834 110.70739443 194.41077137 112.89211398 194.34638977 115.07685852 C194.29398353 116.79610755 194.29398353 116.79610755 194.24051857 118.55008888 C194.03321118 125.94472002 193.91811246 133.3414571 193.7919817 140.73784351 C193.67629856 147.22313096 193.52402558 153.70353723 193.29223633 160.18579102 C193.06904452 166.47949986 192.94506722 172.76832753 192.88748741 179.06564903 C192.84821289 181.45413369 192.77359694 183.84232306 192.66205788 186.22852516 C192.03836576 197.15509918 192.03836576 197.15509918 194.74609375 207.59375 C199.66198296 212.88429859 206.07272327 215.60528499 212.57411766 218.46938133 C215.49799893 219.98298938 217.09041157 221.77098334 218.74609375 224.59375 C219.30859375 227.59375 219.30859375 227.59375 218.74609375 230.59375 C216.41173762 233.75199653 215.01881134 235.40237787 211.0703125 235.99609375 C206.58260702 235.45292846 203.51303439 233.58749577 199.68359375 231.28125 C198.64235352 230.67506836 198.64235352 230.67506836 197.58007812 230.05664062 C195.62694346 228.91592095 193.68477026 227.75883255 191.74609375 226.59375 C190.26302734 225.70623047 190.26302734 225.70623047 188.75 224.80078125 C188.08871094 224.40246094 187.42742187 224.00414062 186.74609375 223.59375 C186.40578125 224.398125 186.40578125 224.398125 186.05859375 225.21875 C180.32912816 235.58635441 169.87065548 240.8805665 158.84863281 244.15795898 C156.36528486 244.67267985 154.07900394 244.70615064 151.54296875 244.69140625 C150.56328125 244.68818359 149.58359375 244.68496094 148.57421875 244.68164062 C147.5584375 244.67326172 146.54265625 244.66488281 145.49609375 244.65625 C143.94921875 244.64948242 143.94921875 244.64948242 142.37109375 244.64257812 C139.82936802 244.63081088 137.28776056 244.61437011 134.74609375 244.59375 C134.76704102 245.2643042 134.78798828 245.9348584 134.80957031 246.62573242 C134.89295402 249.6774178 134.94482391 252.72886317 134.99609375 255.78125 C135.02960938 256.83634766 135.063125 257.89144531 135.09765625 258.97851562 C135.19666366 266.82485292 135.19666366 266.82485292 132.8828125 270.7734375 C130.36986256 272.91426871 129.04229928 273.51335474 125.74609375 273.59375 C123.12109375 272.96875 123.12109375 272.96875 120.74609375 271.59375 C117.74609375 266.59375 117.74609375 266.59375 117.74609375 244.59375 C101.90609375 244.59375 86.06609375 244.59375 69.74609375 244.59375 C69.45790079 252.83494211 69.45790079 252.83494211 69.17797852 261.07641602 C68.9734006 266.650191 68.70677527 272.09606834 67.74609375 277.59375 C68.3915918 277.57280273 69.03708984 277.55185547 69.70214844 277.53027344 C72.63330443 277.44700795 75.56421152 277.39505794 78.49609375 277.34375 C79.511875 277.31023437 80.52765625 277.27671875 81.57421875 277.2421875 C89.06493187 277.14362549 89.06493187 277.14362549 92.41796875 279.359375 C93.79819171 281.68139716 94.28793725 282.91576632 94.24609375 285.59375 C94.25640625 286.25375 94.26671875 286.91375 94.27734375 287.59375 C93.50237123 290.51129359 92.05640219 291.69050988 89.74609375 293.59375 C87.18066406 294.04785156 87.18066406 294.04785156 84.32421875 293.984375 C82.78701172 293.96503906 82.78701172 293.96503906 81.21875 293.9453125 C79.62353516 293.89503906 79.62353516 293.89503906 77.99609375 293.84375 C76.91714844 293.82570313 75.83820313 293.80765625 74.7265625 293.7890625 C72.06550587 293.74196415 69.40625121 293.676206 66.74609375 293.59375 C66.76349609 294.67402466 66.76349609 294.67402466 66.78125 295.77612305 C66.86747666 305.68372022 66.33303603 315.51981782 65.74609375 325.40625 C65.64939971 327.08136062 65.55304335 328.75649078 65.45703125 330.43164062 C65.22393502 334.48591219 64.98630333 338.53989393 64.74609375 342.59375 C65.37978882 342.58708817 66.01348389 342.58042633 66.66638184 342.57356262 C73.28534858 342.50698915 79.90421957 342.46185814 86.5234375 342.42895508 C88.99092474 342.41390548 91.4583854 342.3934611 93.92578125 342.36743164 C97.48053566 342.33088074 101.03493514 342.31398482 104.58984375 342.30078125 C105.68598999 342.28529739 106.78213623 342.26981354 107.91149902 342.25386047 C114.91737007 342.25233475 121.19574082 342.62950846 126.8046875 347.3125 C127.25972656 347.9003125 127.71476562 348.488125 128.18359375 349.09375 C128.65667969 349.6815625 129.12976563 350.269375 129.6171875 350.875 C132.19276374 354.79629255 131.96336135 358.89327024 131.99609375 363.40625 C132.02703125 364.45522461 132.02703125 364.45522461 132.05859375 365.52539062 C132.0945385 370.32850751 131.28918877 373.5283798 128.74609375 377.59375 C124.27014408 381.87509316 120.68352054 384.48290371 114.43359375 384.71875 C113.54671875 384.6775 112.65984375 384.63625 111.74609375 384.59375 C111.69384077 385.25959484 111.64158779 385.92543968 111.58775139 386.61146164 C111.02216969 393.35102127 110.1401745 399.97628381 109.02783203 406.64550781 C108.7714949 408.21112961 108.7714949 408.21112961 108.50997925 409.80838013 C107.94974411 413.22193431 107.38349811 416.63445368 106.81640625 420.046875 C106.42136418 422.43575517 106.0264174 424.8246511 105.63156128 427.21356201 C104.80564157 432.2034123 103.9763253 437.19268498 103.14501953 442.18164062 C102.08151365 448.56777224 101.0299846 454.95581352 99.98140144 461.34440994 C99.17075737 466.27139165 98.35203864 471.1970066 97.53106308 476.12227631 C97.13985415 478.47726424 96.75155234 480.83273706 96.36624527 483.18869781 C95.82700568 486.48046206 95.27647778 489.77015 94.72314453 493.05957031 C94.56718811 494.02700165 94.41123169 494.99443298 94.25054932 495.99118042 C93.35000566 501.26387676 92.25028056 505.84357926 89.74609375 510.59375 C86.08627854 513.03362681 84.32962526 512.85159358 79.96511841 512.86790466 C79.27187906 512.87314134 78.57863971 512.87837802 77.86439312 512.88377339 C75.53600227 512.89880334 73.2078306 512.89947918 70.87939453 512.90014648 C69.21220528 512.90776595 67.54501955 512.91619308 65.87783813 512.92536926 C61.34476004 512.94734181 56.8117494 512.95611682 52.27862406 512.96119571 C49.44747902 512.96483594 46.61635175 512.97107425 43.78521347 512.9781971 C33.91100028 513.00270089 24.0368397 513.01574556 14.16259766 513.01928711 C4.954038 513.02292341 -4.25418855 513.05282309 -13.46264637 513.09469169 C-21.3650667 513.12936428 -29.26737649 513.14483502 -37.1698724 513.14553314 C-41.89126911 513.14632698 -46.61232664 513.15511432 -51.33364487 513.18353081 C-55.77429078 513.20965976 -60.21431506 513.21194588 -64.65500259 513.19587517 C-66.28482669 513.19405655 -67.9146861 513.20078867 -69.54443359 513.21669388 C-71.77001593 513.23708986 -73.99340992 513.22664443 -76.21896362 513.20848083 C-77.46409666 513.21049216 -78.7092297 513.21250349 -79.99209404 513.21457577 C-84.19030375 512.41552401 -85.6447408 510.91784754 -88.25390625 507.59375 C-89.11361504 505.51783276 -89.11361504 505.51783276 -89.44894409 503.45878601 C-89.65656183 502.28584519 -89.65656183 502.28584519 -89.86837387 501.0892086 C-89.99559956 500.26570726 -90.12282524 499.44220592 -90.25390625 498.59375 C-90.56182555 496.87973945 -90.86977976 495.16573517 -91.17776489 493.45173645 C-91.49872163 491.55262713 -91.81709447 489.65307988 -92.13330078 487.75317383 C-92.3091571 486.70811172 -92.48501343 485.66304962 -92.66619873 484.58631897 C-93.2422669 481.15823032 -93.814718 477.72955076 -94.38671875 474.30078125 C-94.78735354 471.90661956 -95.18806063 469.51246996 -95.58883667 467.11833191 C-96.42602652 462.11311077 -97.26121931 457.10756097 -98.09521484 452.10180664 C-99.16404032 445.68854808 -100.2395712 439.27643385 -101.31680489 432.86458302 C-102.14539946 427.92635533 -102.96957605 422.98739782 -103.79250717 418.0482235 C-104.18725354 415.68328428 -104.58357679 413.3186077 -104.98151016 410.95420265 C-105.53672912 407.65226708 -106.08577951 404.34936203 -106.63330078 401.04614258 C-106.79847198 400.07197388 -106.96364319 399.09780518 -107.13381958 398.09411621 C-107.88212851 393.54088057 -108.45392023 389.22784911 -108.25390625 384.59375 C-108.88296875 384.64015625 -109.51203125 384.6865625 -110.16015625 384.734375 C-116.48905815 385.00125641 -121.02781768 384.29556274 -126.25390625 380.59375 C-131.1597052 375.81705102 -132.33114586 370.32537055 -132.56640625 363.65625 C-132.41136998 357.98019972 -131.55820816 353.15408545 -127.671875 348.8359375 C-122.67844907 344.33206313 -118.26085189 342.33651299 -111.45385742 342.36669922 C-110.31305222 342.36685028 -109.17224701 342.36700134 -107.99687195 342.36715698 C-106.77587296 342.37747955 -105.55487396 342.38780212 -104.296875 342.3984375 C-103.03877518 342.4012674 -101.78067535 342.40409729 -100.48445129 342.40701294 C-97.15203243 342.41629879 -93.81989078 342.43424524 -90.48754883 342.4564209 C-87.08221828 342.47693983 -83.67685902 342.48602754 -80.27148438 342.49609375 C-73.5988722 342.51813363 -66.92642717 342.55265332 -60.25390625 342.59375 C-60.58390625 337.31375 -60.91390625 332.03375 -61.25390625 326.59375 C-62.56746094 326.64015625 -63.88101563 326.6865625 -65.234375 326.734375 C-66.97002929 326.77190266 -68.70570824 326.80830175 -70.44140625 326.84375 C-71.30572266 326.87726563 -72.17003906 326.91078125 -73.06054688 326.9453125 C-77.29797713 327.01025396 -79.61640294 326.98261072 -83.30859375 324.73046875 C-85.58763416 322.22718541 -86.17161922 320.96751839 -86.25390625 317.59375 C-85.31774375 314.49721249 -84.54967303 312.88951678 -82.25390625 310.59375 C-78.23603108 309.27235488 -74.18649829 309.4832167 -70.00390625 309.53125 C-69.25882813 309.53576172 -68.51375 309.54027344 -67.74609375 309.54492188 C-65.91532985 309.55665754 -64.08460752 309.5745915 -62.25390625 309.59375 C-62.25390625 305.30375 -62.25390625 301.01375 -62.25390625 296.59375 C-87.99390625 296.59375 -113.73390625 296.59375 -140.25390625 296.59375 C-140.25390625 305.17375 -140.25390625 313.75375 -140.25390625 322.59375 C-143.25390625 327.59375 -143.25390625 327.59375 -146.12890625 329.03125 C-149.72970883 329.67939446 -151.13246753 329.44974059 -154.25390625 327.59375 C-157.44840233 324.26928718 -157.61095811 321.82541483 -157.546875 317.296875 C-157.53720703 316.09160156 -157.52753906 314.88632812 -157.51757812 313.64453125 C-157.49244141 312.39027344 -157.46730469 311.13601563 -157.44140625 309.84375 C-157.42787109 308.57402344 -157.41433594 307.30429687 -157.40039062 305.99609375 C-157.36503865 302.86155156 -157.31568873 299.72786455 -157.25390625 296.59375 C-158.57003906 296.64015625 -159.88617188 296.6865625 -161.2421875 296.734375 C-179.76576166 297.19627435 -179.76576166 297.19627435 -188.25390625 292.59375 C-189.03765625 292.16964844 -189.82140625 291.74554688 -190.62890625 291.30859375 C-200.79285431 285.14498336 -207.49836268 276.10229107 -210.80369568 264.69659424 C-211.26311939 262.55071726 -211.37436775 260.65958462 -211.36743164 258.46777344 C-211.36735611 257.66724548 -211.36728058 256.86671753 -211.36720276 256.04193115 C-211.36204147 255.18762512 -211.35688019 254.33331909 -211.3515625 253.453125 C-211.35014755 252.57094299 -211.3487326 251.68876099 -211.34727478 250.77984619 C-211.34168626 247.96777935 -211.32913586 245.1557927 -211.31640625 242.34375 C-211.31138977 240.43489698 -211.30682712 238.52604272 -211.30273438 236.6171875 C-211.29172059 231.94267753 -211.27446383 227.26822735 -211.25390625 222.59375 C-212.506875 222.64015625 -213.75984375 222.6865625 -215.05078125 222.734375 C-216.70179906 222.77189813 -218.35284267 222.80829771 -220.00390625 222.84375 C-220.82890625 222.87726563 -221.65390625 222.91078125 -222.50390625 222.9453125 C-228.64781116 223.04440774 -228.64781116 223.04440774 -231.79663086 220.703125 C-233.35728296 218.44411442 -233.82171891 217.31383042 -233.81640625 214.59375 C-233.83832031 213.93375 -233.86023438 213.27375 -233.8828125 212.59375 C-233.25390625 210.59375 -233.25390625 210.59375 -228.25390625 206.59375 C-222.64390625 206.59375 -217.03390625 206.59375 -211.25390625 206.59375 C-211.58390625 183.49375 -211.91390625 160.39375 -212.25390625 136.59375 C-219.51390625 132.63375 -226.77390625 128.67375 -234.25390625 124.59375 C-237.39822524 120.40132467 -237.96217736 119.55164774 -237.25390625 114.59375 C-235.75390625 111.71875 -235.75390625 111.71875 -233.25390625 109.59375 C-226.00454228 108.6795603 -221.4708553 111.06030738 -215.25390625 114.59375 C-214.38378906 115.07070312 -213.51367188 115.54765625 -212.6171875 116.0390625 C-210.48737137 117.20929114 -208.36726628 118.39413742 -206.25390625 119.59375 C-205.56880981 118.98430542 -205.56880981 118.98430542 -204.86987305 118.36254883 C-198.7588409 113.00946168 -198.7588409 113.00946168 -195.06640625 111.28125 C-194.43347656 110.97574219 -193.80054688 110.67023438 -193.1484375 110.35546875 C-188.3717772 108.43495585 -183.72313695 108.41046011 -178.62890625 108.40625 C-177.87222656 108.39400391 -177.11554688 108.38175781 -176.3359375 108.36914062 C-170.4460502 108.35419167 -164.98371776 109.26482525 -159.25390625 110.59375 C-158.84027832 110.05371338 -158.42665039 109.51367676 -158.00048828 108.95727539 C-156.13059142 106.5205283 -154.25483818 104.08835353 -152.37890625 101.65625 C-151.72792969 100.80611328 -151.07695312 99.95597656 -150.40625 99.08007812 C-149.78105469 98.27119141 -149.15585938 97.46230469 -148.51171875 96.62890625 C-147.93566895 95.8800415 -147.35961914 95.13117676 -146.76611328 94.35961914 C-145.25390625 92.59375 -145.25390625 92.59375 -143.25390625 91.59375 C-139.74334959 91.33370877 -137.12113923 91.20577735 -133.87890625 92.65625 C-132.06604681 94.81773626 -131.1531526 96.61269008 -130.90234375 99.44921875 C-131.88376744 105.43590324 -136.63062633 110.8170257 -140.609375 115.171875 C-141.35832031 115.99171875 -142.10726562 116.8115625 -142.87890625 117.65625 C-143.59304687 118.36910156 -144.3071875 119.08195312 -145.04296875 119.81640625 C-146.48451457 123.12266134 -146.13618694 123.59139763 -144.9765625 126.86328125 C-142.41872074 134.16260374 -142.93183576 141.59647442 -143.06640625 149.21875 C-143.08148705 150.71483021 -143.09516942 152.2109252 -143.10742188 153.70703125 C-143.1401432 157.33624968 -143.19173569 160.96490248 -143.25390625 164.59375 C-141.39185547 164.50673828 -141.39185547 164.50673828 -139.4921875 164.41796875 C-137.85029811 164.37105762 -136.20836793 164.32555891 -134.56640625 164.28125 C-133.34147461 164.2184082 -133.34147461 164.2184082 -132.09179688 164.15429688 C-127.68319875 164.065054 -125.83778252 164.15359712 -122.20703125 166.890625 C-120.25390625 169.59375 -120.25390625 169.59375 -119.69140625 173.15625 C-120.33476904 177.08791151 -121.09839023 178.24965239 -124.25390625 180.59375 C-128.01690999 181.84808458 -131.52601534 181.70070422 -135.44140625 181.65625 C-136.19099609 181.65173828 -136.94058594 181.64722656 -137.71289062 181.64257812 C-139.55993008 181.63081354 -141.40692838 181.61287865 -143.25390625 181.59375 C-143.2095975 186.18428954 -143.13960517 190.77347389 -143.04638672 195.36328125 C-143.01826212 196.9227415 -142.99700536 198.48234204 -142.98291016 200.04199219 C-142.96136083 202.29174173 -142.91465568 204.53981974 -142.86328125 206.7890625 C-142.86205261 207.4799295 -142.86082397 208.17079651 -142.85955811 208.88259888 C-142.70991608 213.89300813 -141.57994259 216.85145148 -138.25390625 220.59375 C-131.67694852 224.89426571 -123.96017583 224.07204506 -116.3515625 224.10546875 C-114.90423577 224.12233362 -113.45692353 224.14048628 -112.0096283 224.15986633 C-108.2203728 224.20717675 -104.43117606 224.23710807 -100.64172363 224.26330566 C-96.76689048 224.29320752 -92.89225939 224.33970452 -89.01757812 224.38476562 C-81.42978819 224.47058266 -73.84198321 224.5380232 -66.25390625 224.59375 C-66.41277817 224.00956802 -66.57165009 223.42538605 -66.7353363 222.82350159 C-67.52677484 219.42046724 -67.6111084 215.97424534 -67.7890625 212.49609375 C-67.83203964 211.70658829 -67.87501678 210.91708282 -67.91929626 210.10365295 C-68.00936518 208.43191423 -68.09749984 206.76007033 -68.18383789 205.08813477 C-68.31469207 202.56431191 -68.45274777 200.04096121 -68.59179688 197.51757812 C-69.03885026 189.20435975 -69.41162542 180.92249057 -69.25390625 172.59375 C-69.92969727 172.61993408 -70.60548828 172.64611816 -71.30175781 172.6730957 C-74.36890337 172.77714264 -77.43567783 172.84209947 -80.50390625 172.90625 C-82.09912109 172.9690918 -82.09912109 172.9690918 -83.7265625 173.03320312 C-91.60193589 173.15702975 -91.60193589 173.15702975 -94.953125 170.26171875 C-96.55940887 166.96714852 -96.93216396 165.21112448 -96.25390625 161.59375 C-94.39453125 158.92578125 -94.39453125 158.92578125 -91.25390625 156.59375 C-87.62958178 155.98306341 -84.10355383 156.12138459 -80.44140625 156.28125 C-78.9728418 156.31508789 -78.9728418 156.31508789 -77.47460938 156.34960938 C-75.0661317 156.40835273 -72.66081547 156.49042871 -70.25390625 156.59375 C-70.30925537 155.83980957 -70.36460449 155.08586914 -70.42163086 154.30908203 C-72.71435957 122.96478469 -72.71435957 122.96478469 -73.25390625 110.59375 C-73.30804688 109.52769531 -73.3621875 108.46164063 -73.41796875 107.36328125 C-73.7653407 95.41052816 -70.89850232 84.28300416 -66.33984375 73.30078125 C-65.98148438 72.40746094 -65.623125 71.51414062 -65.25390625 70.59375 C-64.86187012 69.64495972 -64.86187012 69.64495972 -64.46191406 68.67700195 C-64.00920335 66.4711336 -64.00920335 66.4711336 -65.68505859 64.61083984 C-66.3961377 63.93230957 -67.1072168 63.2537793 -67.83984375 62.5546875 C-68.60554687 61.80960938 -69.37125 61.06453125 -70.16015625 60.296875 C-70.97484375 59.52859375 -71.78953125 58.7603125 -72.62890625 57.96875 C-74.2219072 56.43682257 -75.81314426 54.90305815 -77.40234375 53.3671875 C-78.11567871 52.69091309 -78.82901367 52.01463867 -79.56396484 51.31787109 C-82.1909959 48.63770737 -82.25192064 47.61837156 -82.56640625 43.71875 C-82.50731252 40.76406347 -82.31955589 39.70316607 -80.75390625 37.09375 C-77.95950034 35.41710645 -75.7701439 34.94754004 -72.51367188 35.00976562 C-67.65868697 36.26442464 -64.53557957 40.51632796 -61.25390625 44.09375 C-60.47917969 44.90457031 -59.70445312 45.71539062 -58.90625 46.55078125 C-57.00278516 48.54824435 -55.1204831 50.56187684 -53.25390625 52.59375 C-49.75235579 50.31077889 -46.4451244 47.97705727 -43.25390625 45.28125 C-32.28835672 36.76467319 -20.61930884 33.19887084 -7.25390625 30.59375 C-7.2398877 29.49703979 -7.2398877 29.49703979 -7.22558594 28.37817383 C-7.17177961 25.05352282 -7.08815121 21.73026322 -7.00390625 18.40625 C-6.98972656 17.25576172 -6.97554687 16.10527344 -6.9609375 14.91992188 C-6.92871094 13.80810547 -6.89648438 12.69628906 -6.86328125 11.55078125 C-6.84233398 10.52960205 -6.82138672 9.50842285 -6.79980469 8.45629883 C-6.02205054 4.37795924 -4.17248078 1.09916305 0 0 Z " fill="#5EAC24" transform="translate(265.25390625,-0.59375)"/>
<path d="M0 0 C0.95417885 -0.00382555 1.9083577 -0.00765109 2.89145106 -0.01159257 C6.09107599 -0.02191727 9.29052129 -0.01793136 12.49015808 -0.01396179 C14.78330654 -0.0183086 17.07645355 -0.02349164 19.36959839 -0.02944946 C25.60106202 -0.04285517 31.83246505 -0.04341629 38.06394029 -0.04088616 C43.2652341 -0.03981736 48.46651562 -0.04469759 53.6678068 -0.04949158 C66.64122891 -0.0612275 79.61461231 -0.06035862 92.58803608 -0.05393478 C103.84703734 -0.0487678 115.10595202 -0.06001523 126.36493615 -0.07903299 C137.93195126 -0.09842088 149.4989152 -0.10637434 161.06594771 -0.10290974 C167.55738101 -0.10109628 174.04873504 -0.10373936 180.54015541 -0.11762428 C186.64605664 -0.13019541 192.75178463 -0.12826511 198.85768318 -0.11521339 C201.0973949 -0.11284639 203.33711878 -0.1155867 205.57681656 -0.12383652 C208.6371054 -0.1342951 211.69681207 -0.12621 214.75708008 -0.11352539 C215.64084865 -0.12089968 216.52461722 -0.12827396 217.43516666 -0.13587171 C223.76607235 -0.08076763 229.59721921 0.77950027 234.62760925 4.97944641 C235.08264832 5.56725891 235.53768738 6.15507141 236.0065155 6.76069641 C236.47960144 7.34850891 236.95268738 7.93632141 237.44010925 8.54194641 C240.0156855 12.46323896 239.7862831 16.56021665 239.8190155 21.07319641 C239.849953 22.12217102 239.849953 22.12217102 239.8815155 23.19233704 C239.91746025 27.99545392 239.11211052 31.19532621 236.5690155 35.26069641 C232.09306584 39.54203957 228.5064423 42.14985012 222.2565155 42.38569641 C221.3696405 42.34444641 220.4827655 42.30319641 219.5690155 42.26069641 C219.51676252 42.92654125 219.46450954 43.59238609 219.41067314 44.27840805 C218.84509144 51.01796768 217.96309625 57.64323022 216.85075378 64.31245422 C216.67986237 65.35620209 216.50897095 66.39994995 216.332901 67.47532654 C215.77266587 70.88888072 215.20641986 74.30140009 214.639328 77.71382141 C214.24428593 80.10270158 213.84933915 82.49159751 213.45448303 84.88050842 C212.62856332 89.87035871 211.79924705 94.85963139 210.96794128 99.84858704 C209.90443541 106.23471865 208.85290635 112.62275993 207.8043232 119.01135635 C206.99367913 123.93833806 206.17496039 128.86395301 205.35398483 133.78922272 C204.9627759 136.14421065 204.57447409 138.49968347 204.18916702 140.85564423 C203.64992743 144.14740847 203.09939954 147.43709641 202.54606628 150.72651672 C202.39010986 151.69394806 202.23415344 152.66137939 202.07347107 153.65812683 C201.17292741 158.93082317 200.07320232 163.51052567 197.5690155 168.26069641 C193.90920029 170.70057322 192.15254701 170.51853999 187.78804016 170.53485107 C187.09480081 170.54008775 186.40156147 170.54532443 185.68731487 170.5507198 C183.35892402 170.56574975 181.03075235 170.56642559 178.70231628 170.5670929 C177.03512703 170.57471236 175.3679413 170.58313949 173.70075989 170.59231567 C169.16768179 170.61428822 164.63467115 170.62306323 160.10154581 170.62814212 C157.27040077 170.63178235 154.4392735 170.63802066 151.60813522 170.64514351 C141.73392203 170.66964731 131.85976145 170.68269197 121.98551941 170.68623352 C112.77695976 170.68986982 103.5687332 170.7197695 94.36027539 170.7616381 C86.45785505 170.7963107 78.55554526 170.81178143 70.65304935 170.81247956 C65.93165264 170.81327339 61.21059511 170.82206073 56.48927689 170.85047722 C52.04863097 170.87660617 47.60860669 170.87889229 43.16791916 170.86282158 C41.53809507 170.86100296 39.90823566 170.86773508 38.27848816 170.88364029 C36.05290583 170.90403627 33.82951183 170.89359084 31.60395813 170.87542725 C30.35882509 170.87743857 29.11369205 170.8794499 27.83082771 170.88152218 C23.632618 170.08247043 22.17818095 168.58479395 19.5690155 165.26069641 C18.70930672 163.18477917 18.70930672 163.18477917 18.37397766 161.12573242 C18.16635992 159.9527916 18.16635992 159.9527916 17.95454788 158.75615501 C17.8273222 157.93265368 17.70009651 157.10915234 17.5690155 156.26069641 C17.2610962 154.54668586 16.95314199 152.83268158 16.64515686 151.11868286 C16.32420012 149.21957355 16.00582729 147.32002629 15.68962097 145.42012024 C15.51376465 144.37505814 15.33790833 143.32999603 15.15672302 142.25326538 C14.58065485 138.82517673 14.00820376 135.39649718 13.436203 131.96772766 C13.03556821 129.57356597 12.63486112 127.17941637 12.23408508 124.78527832 C11.39689524 119.78005718 10.56170244 114.77450739 9.72770691 109.76875305 C8.65888144 103.35549449 7.58335056 96.94338026 6.50611687 90.53152943 C5.6775223 85.59330174 4.8533457 80.65434423 4.03041458 75.71516991 C3.63566821 73.35023069 3.23934496 70.98555411 2.84141159 68.62114906 C2.28619263 65.31921349 1.73714224 62.01630844 1.18962097 58.71308899 C1.02444977 57.73892029 0.85927856 56.76475159 0.68910217 55.76106262 C-0.05920676 51.20782698 -0.63099848 46.89479552 -0.4309845 42.26069641 C-1.060047 42.30710266 -1.6891095 42.35350891 -2.3372345 42.40132141 C-8.66613639 42.66820282 -13.20489593 41.96250915 -18.4309845 38.26069641 C-23.33678345 33.48399744 -24.50822411 27.99231696 -24.7434845 21.32319641 C-24.58844822 15.64714614 -23.73528641 10.82103186 -19.84895325 6.50288391 C-13.58478325 0.85284823 -8.2194709 -0.03488536 0 0 Z " fill="#A96000" transform="translate(157.4309844970703,341.7393035888672)"/>
<path d="M0 0 C-0.74121094 0.52722656 -1.48242188 1.05445313 -2.24609375 1.59765625 C-15.00933702 12.73154932 -17.54427803 32.20204339 -20 48 C-20.17490967 49.04099854 -20.34981934 50.08199707 -20.5300293 51.15454102 C-21.07621986 55.62365663 -21.14324652 59.97596733 -21.1328125 64.47265625 C-21.13417709 65.37927505 -21.13554169 66.28589386 -21.13694763 67.21998596 C-21.13897171 70.16752797 -21.13264503 73.1149682 -21.125 76.0625 C-21.12378143 77.07906677 -21.12256287 78.09563354 -21.12130737 79.14300537 C-21.10303501 92.15011419 -20.93201027 105.12832122 -20.42626953 118.1262207 C-19.98360654 129.6653267 -19.72455662 141.20478062 -19.5 152.75 C-19.46919846 154.32923248 -19.46919846 154.32923248 -19.43777466 155.94036865 C-19.01199304 178.12714457 -18.72520618 200.31579304 -18.43850708 222.50469971 C-18.06158995 251.67204152 -17.5678223 280.83568036 -17 310 C-30.2 310 -43.4 310 -57 310 C-57.33 304.72 -57.66 299.44 -58 294 C-59.31355469 294.04640625 -60.62710938 294.0928125 -61.98046875 294.140625 C-63.71612304 294.17815266 -65.45180199 294.21455175 -67.1875 294.25 C-68.05181641 294.28351563 -68.91613281 294.31703125 -69.80664062 294.3515625 C-74.04407088 294.41650396 -76.36249669 294.38886072 -80.0546875 292.13671875 C-82.33372791 289.63343541 -82.91771297 288.37376839 -83 285 C-82.0638375 281.90346249 -81.29576678 280.29576678 -79 278 C-74.98212483 276.67860488 -70.93259204 276.8894667 -66.75 276.9375 C-66.00492188 276.94201172 -65.25984375 276.94652344 -64.4921875 276.95117188 C-62.6614236 276.96290754 -60.83070127 276.9808415 -59 277 C-59 272.71 -59 268.42 -59 264 C-84.74 264 -110.48 264 -137 264 C-137 272.58 -137 281.16 -137 290 C-140 295 -140 295 -142.875 296.4375 C-146.47580258 297.08564446 -147.87856128 296.85599059 -151 295 C-154.19449608 291.67553718 -154.35705186 289.23166483 -154.29296875 284.703125 C-154.28330078 283.49785156 -154.27363281 282.29257812 -154.26367188 281.05078125 C-154.23853516 279.79652344 -154.21339844 278.54226563 -154.1875 277.25 C-154.17396484 275.98027344 -154.16042969 274.71054687 -154.14648438 273.40234375 C-154.1111324 270.26780156 -154.06178248 267.13411455 -154 264 C-155.31613281 264.04640625 -156.63226563 264.0928125 -157.98828125 264.140625 C-176.51185541 264.60252435 -176.51185541 264.60252435 -185 260 C-185.78375 259.57589844 -186.5675 259.15179688 -187.375 258.71484375 C-197.53894806 252.55123336 -204.24445643 243.50854107 -207.54978943 232.10284424 C-208.00921314 229.95696726 -208.1204615 228.06583462 -208.11352539 225.87402344 C-208.11344986 225.07349548 -208.11337433 224.27296753 -208.11329651 223.44818115 C-208.10813522 222.59387512 -208.10297394 221.73956909 -208.09765625 220.859375 C-208.0962413 219.97719299 -208.09482635 219.09501099 -208.09336853 218.18609619 C-208.08778001 215.37402935 -208.07522961 212.5620427 -208.0625 209.75 C-208.05748352 207.84114698 -208.05292087 205.93229272 -208.04882812 204.0234375 C-208.03781434 199.34892753 -208.02055758 194.67447735 -208 190 C-209.25296875 190.04640625 -210.5059375 190.0928125 -211.796875 190.140625 C-213.44789281 190.17814813 -215.09893642 190.21454771 -216.75 190.25 C-217.575 190.28351563 -218.4 190.31703125 -219.25 190.3515625 C-225.39390491 190.45065774 -225.39390491 190.45065774 -228.54272461 188.109375 C-230.10337671 185.85036442 -230.56781266 184.72008042 -230.5625 182 C-230.58441406 181.34 -230.60632813 180.68 -230.62890625 180 C-230 178 -230 178 -225 174 C-219.39 174 -213.78 174 -208 174 C-208.33 150.9 -208.66 127.8 -209 104 C-216.26 100.04 -223.52 96.08 -231 92 C-234.14431899 87.80757467 -234.70827111 86.95789774 -234 82 C-232.5 79.125 -232.5 79.125 -230 77 C-222.75063603 76.0858103 -218.21694905 78.46655738 -212 82 C-211.12988281 82.47695312 -210.25976562 82.95390625 -209.36328125 83.4453125 C-207.23346512 84.61554114 -205.11336003 85.80038742 -203 87 C-202.31490356 86.39055542 -202.31490356 86.39055542 -201.6159668 85.76879883 C-195.50493465 80.41571168 -195.50493465 80.41571168 -191.8125 78.6875 C-191.17957031 78.38199219 -190.54664063 78.07648438 -189.89453125 77.76171875 C-185.11787095 75.84120585 -180.4692307 75.81671011 -175.375 75.8125 C-174.61832031 75.80025391 -173.86164063 75.78800781 -173.08203125 75.77539062 C-167.19214395 75.76044167 -161.72981151 76.67107525 -156 78 C-155.58637207 77.45996338 -155.17274414 76.91992676 -154.74658203 76.36352539 C-152.87668517 73.9267783 -151.00093193 71.49460353 -149.125 69.0625 C-148.47402344 68.21236328 -147.82304687 67.36222656 -147.15234375 66.48632812 C-146.52714844 65.67744141 -145.90195313 64.86855469 -145.2578125 64.03515625 C-144.6817627 63.2862915 -144.10571289 62.53742676 -143.51220703 61.76586914 C-142 60 -142 60 -140 59 C-136.48944334 58.73995877 -133.86723298 58.61202735 -130.625 60.0625 C-128.81214056 62.22398626 -127.89924635 64.01894008 -127.6484375 66.85546875 C-128.62986119 72.84215324 -133.37672008 78.2232757 -137.35546875 82.578125 C-138.10441406 83.39796875 -138.85335937 84.2178125 -139.625 85.0625 C-140.33914062 85.77535156 -141.05328125 86.48820312 -141.7890625 87.22265625 C-143.23060832 90.52891134 -142.88228069 90.99764763 -141.72265625 94.26953125 C-139.16481449 101.56885374 -139.67792951 109.00272442 -139.8125 116.625 C-139.8275808 118.12108021 -139.84126317 119.6171752 -139.85351562 121.11328125 C-139.88623695 124.74249968 -139.93782944 128.37115248 -140 132 C-138.13794922 131.91298828 -138.13794922 131.91298828 -136.23828125 131.82421875 C-134.59639186 131.77730762 -132.95446168 131.73180891 -131.3125 131.6875 C-130.08756836 131.6246582 -130.08756836 131.6246582 -128.83789062 131.56054688 C-124.4292925 131.471304 -122.58387627 131.55984712 -118.953125 134.296875 C-117 137 -117 137 -116.4375 140.5625 C-117.08086279 144.49416151 -117.84448398 145.65590239 -121 148 C-124.76300374 149.25433458 -128.27210909 149.10695422 -132.1875 149.0625 C-132.93708984 149.05798828 -133.68667969 149.05347656 -134.45898438 149.04882812 C-136.30602383 149.03706354 -138.15302213 149.01912865 -140 149 C-139.95569125 153.59053954 -139.88569892 158.17972389 -139.79248047 162.76953125 C-139.76435587 164.3289915 -139.74309911 165.88859204 -139.72900391 167.44824219 C-139.70745458 169.69799173 -139.66074943 171.94606974 -139.609375 174.1953125 C-139.60814636 174.8861795 -139.60691772 175.57704651 -139.60565186 176.28884888 C-139.45600983 181.29925813 -138.32603634 184.25770148 -135 188 C-128.42304227 192.30051571 -120.70626958 191.47829506 -113.09765625 191.51171875 C-111.65032952 191.52858362 -110.20301728 191.54673628 -108.75572205 191.56611633 C-104.96646655 191.61342675 -101.17726981 191.64335807 -97.38781738 191.66955566 C-93.51298423 191.69945752 -89.63835314 191.74595452 -85.76367188 191.79101562 C-78.17588194 191.87683266 -70.58807696 191.9442732 -63 192 C-63.15887192 191.41581802 -63.31774384 190.83163605 -63.48143005 190.22975159 C-64.27286859 186.82671724 -64.35720215 183.38049534 -64.53515625 179.90234375 C-64.57813339 179.11283829 -64.62111053 178.32333282 -64.66539001 177.50990295 C-64.75545893 175.83816423 -64.84359359 174.16632033 -64.92993164 172.49438477 C-65.06078582 169.97056191 -65.19884152 167.44721121 -65.33789062 164.92382812 C-65.78494401 156.61060975 -66.15771917 148.32874057 -66 140 C-66.67579102 140.02618408 -67.35158203 140.05236816 -68.04785156 140.0793457 C-71.11499712 140.18339264 -74.18177158 140.24834947 -77.25 140.3125 C-78.84521484 140.3753418 -78.84521484 140.3753418 -80.47265625 140.43945312 C-88.34802964 140.56327975 -88.34802964 140.56327975 -91.69921875 137.66796875 C-93.30550262 134.37339852 -93.67825771 132.61737448 -93 129 C-91.140625 126.33203125 -91.140625 126.33203125 -88 124 C-84.37567553 123.38931341 -80.84964758 123.52763459 -77.1875 123.6875 C-76.20845703 123.71005859 -75.22941406 123.73261719 -74.22070312 123.75585938 C-71.81222545 123.81460273 -69.40690922 123.89667871 -67 124 C-67.05534912 123.24605957 -67.11069824 122.49211914 -67.16772461 121.71533203 C-69.46045332 90.37103469 -69.46045332 90.37103469 -70 78 C-70.05414063 76.93394531 -70.10828125 75.86789063 -70.1640625 74.76953125 C-70.51143445 62.81677816 -67.64459607 51.68925416 -63.0859375 40.70703125 C-62.72757813 39.81371094 -62.36921875 38.92039063 -62 38 C-61.73864258 37.36747314 -61.47728516 36.73494629 -61.20800781 36.08325195 C-60.7552971 33.8773836 -60.7552971 33.8773836 -62.43115234 32.01708984 C-63.14223145 31.33855957 -63.85331055 30.6600293 -64.5859375 29.9609375 C-65.35164062 29.21585938 -66.11734375 28.47078125 -66.90625 27.703125 C-67.7209375 26.93484375 -68.535625 26.1665625 -69.375 25.375 C-70.96800095 23.84307257 -72.55923801 22.30930815 -74.1484375 20.7734375 C-74.86177246 20.09716309 -75.57510742 19.42088867 -76.31005859 18.72412109 C-78.93708965 16.04395737 -78.99801439 15.02462156 -79.3125 11.125 C-79.25340627 8.17031347 -79.06564964 7.10941607 -77.5 4.5 C-74.70559409 2.82335645 -72.51623765 2.35379004 -69.25976562 2.41601562 C-64.40478072 3.67067464 -61.28167332 7.92257796 -58 11.5 C-56.83791016 12.71623047 -56.83791016 12.71623047 -55.65234375 13.95703125 C-53.74887891 15.95449435 -51.86657685 17.96812684 -50 20 C-46.49844954 17.71702889 -43.19121815 15.38330727 -40 12.6875 C-31.5056534 6.09022414 -22.24764875 1.97835377 -11.875 -0.5625 C-11.15248047 -0.74321045 -10.42996094 -0.9239209 -9.68554688 -1.11010742 C-5.82100029 -1.96266143 -3.30739842 -2.39058072 0 0 Z " fill="#4E901E" transform="translate(262,32)"/>
<path d="M0 0 C1.14275391 0.04640625 1.14275391 0.04640625 2.30859375 0.09375 C3.45521484 0.10921875 3.45521484 0.10921875 4.625 0.125 C7.22801864 0.70025274 8.12565126 1.50539859 9.74609375 3.59375 C11.37743353 8.48776934 10.93061977 13.53208796 10.93359375 18.65625 C10.94583984 19.77064453 10.95808594 20.88503906 10.97070312 22.03320312 C10.97263672 23.09603516 10.97457031 24.15886719 10.9765625 25.25390625 C10.98067139 26.22980713 10.98478027 27.20570801 10.98901367 28.21118164 C10.74609375 30.59375 10.74609375 30.59375 8.74609375 32.59375 C9.75671875 33.439375 10.76734375 34.285 11.80859375 35.15625 C28.85855755 52.27524199 29.02635583 81.87371343 28.99525452 104.34654236 C28.98454931 106.64900052 28.97308093 108.95145523 28.9609375 111.25390625 C28.95434931 113.75716635 28.94783656 116.26042666 28.94139099 118.76368713 C28.81039908 153.64740993 28.11036027 188.52786916 27.4664911 223.40502417 C27.32413993 231.13421795 27.18753444 238.86350495 27.0524202 246.59282821 C26.88743224 256.02758235 26.71842633 265.4622616 26.54829669 274.89692426 C26.50079146 277.54571379 26.45400951 280.19451521 26.40741158 282.84332085 C26.05538609 302.77248741 25.55689328 322.67692932 24.74609375 342.59375 C37.61609375 342.59375 50.48609375 342.59375 63.74609375 342.59375 C63.74609375 342.92375 63.74609375 343.25375 63.74609375 343.59375 C23.15609375 343.59375 -17.43390625 343.59375 -59.25390625 343.59375 C-59.25390625 343.26375 -59.25390625 342.93375 -59.25390625 342.59375 C-46.38390625 342.59375 -33.51390625 342.59375 -20.25390625 342.59375 C-20.58390625 339.95375 -20.91390625 337.31375 -21.25390625 334.59375 C-21.34472151 333.2458825 -21.41487266 331.89603324 -21.44335938 330.54541016 C-21.46011719 329.84088715 -21.476875 329.13636414 -21.49414062 328.41049194 C-21.51444336 327.28304062 -21.51444336 327.28304062 -21.53515625 326.1328125 C-21.55320313 325.3034317 -21.57125 324.4740509 -21.58984375 323.61953735 C-21.64908743 320.81934799 -21.70168622 318.01907862 -21.75390625 315.21875 C-21.794852 313.18066266 -21.83587012 311.14257677 -21.87695312 309.10449219 C-22.2877711 288.07916043 -22.54382265 267.05133347 -22.81640625 246.02386475 C-23.07879607 225.79613018 -23.35842347 205.56942617 -23.75390625 185.34375 C-23.78434525 183.77986542 -23.78434525 183.77986542 -23.81539917 182.18438721 C-24.04631677 170.52356548 -24.36400415 158.87318046 -24.81640625 147.21875 C-25.25457253 135.53911854 -25.39013597 123.86335448 -25.43014526 112.1762085 C-25.43752883 110.19609091 -25.4480976 108.21598209 -25.46218872 106.23590088 C-25.55774412 91.52099895 -24.90512656 77.33588534 -21.06640625 63.03125 C-20.855 62.23823486 -20.64359375 61.44521973 -20.42578125 60.62817383 C-17.58028356 50.53377079 -13.30962149 41.43979698 -6.25390625 33.59375 C-5.59390625 33.26375 -4.93390625 32.93375 -4.25390625 32.59375 C-4.91390625 32.26375 -5.57390625 31.93375 -6.25390625 31.59375 C-6.37024558 27.36481532 -6.44120577 23.13629326 -6.50390625 18.90625 C-6.53742188 17.70806641 -6.5709375 16.50988281 -6.60546875 15.27539062 C-6.61835938 14.11845703 -6.63125 12.96152344 -6.64453125 11.76953125 C-6.66547852 10.70645752 -6.68642578 9.64338379 -6.70800781 8.5480957 C-6.0679567 4.38397825 -4.23726791 1.11623002 0 0 Z " fill="#7ED53D" transform="translate(265.25390625,-0.59375)"/>
<path d="M0 0 C0.95417885 -0.00382555 1.9083577 -0.00765109 2.89145106 -0.01159257 C6.09107599 -0.02191727 9.29052129 -0.01793136 12.49015808 -0.01396179 C14.78330654 -0.0183086 17.07645355 -0.02349164 19.36959839 -0.02944946 C25.60106202 -0.04285517 31.83246505 -0.04341629 38.06394029 -0.04088616 C43.2652341 -0.03981736 48.46651562 -0.04469759 53.6678068 -0.04949158 C66.64122891 -0.0612275 79.61461231 -0.06035862 92.58803608 -0.05393478 C103.84703734 -0.0487678 115.10595202 -0.06001523 126.36493615 -0.07903299 C137.93195126 -0.09842088 149.4989152 -0.10637434 161.06594771 -0.10290974 C167.55738101 -0.10109628 174.04873504 -0.10373936 180.54015541 -0.11762428 C186.64605664 -0.13019541 192.75178463 -0.12826511 198.85768318 -0.11521339 C201.0973949 -0.11284639 203.33711878 -0.1155867 205.57681656 -0.12383652 C208.6371054 -0.1342951 211.69681207 -0.12621 214.75708008 -0.11352539 C215.64084865 -0.12089968 216.52461722 -0.12827396 217.43516666 -0.13587171 C223.76607235 -0.08076763 229.59721921 0.77950027 234.62760925 4.97944641 C235.08264832 5.56725891 235.53768738 6.15507141 236.0065155 6.76069641 C236.47960144 7.34850891 236.95268738 7.93632141 237.44010925 8.54194641 C240.0156855 12.46323896 239.7862831 16.56021665 239.8190155 21.07319641 C239.849953 22.12217102 239.849953 22.12217102 239.8815155 23.19233704 C239.91746025 27.99545392 239.11211052 31.19532621 236.5690155 35.26069641 C229.9313298 41.60978709 224.87690293 42.558516 216.06210327 42.52812195 C215.09975732 42.53265306 214.13741136 42.53718417 213.14590341 42.54185259 C209.91864663 42.55452095 206.69155808 42.55287464 203.46427917 42.55122375 C201.15142601 42.55720748 198.83857485 42.56401267 196.52572632 42.57157898 C190.24055107 42.58926215 183.95543026 42.59393535 177.67023253 42.59521055 C172.42420192 42.59710898 167.17818402 42.60446589 161.93215829 42.61155474 C150.26223707 42.62691453 138.5923424 42.63289187 126.92241188 42.63154404 C126.22240973 42.63146413 125.52240758 42.63138421 124.80119324 42.63130188 C124.10033414 42.63122012 123.39947505 42.63113836 122.6773778 42.63105412 C111.32135619 42.63024138 99.96546727 42.64937659 88.60948404 42.67757861 C76.94302755 42.70632253 65.27664182 42.71975199 53.6101492 42.71839106 C47.06279488 42.71788101 40.51559071 42.72358796 33.96826744 42.74474716 C27.80980073 42.76410594 21.65162776 42.76426988 15.49315071 42.7497139 C13.23408454 42.74762178 10.97500009 42.75235059 8.71596527 42.76443481 C5.62925773 42.77987575 2.54356444 42.77058605 -0.54312134 42.75517273 C-1.88044704 42.77060342 -1.88044704 42.77060342 -3.24478942 42.78634584 C-10.30163897 42.70860721 -15.69312694 40.92650509 -20.8059845 35.94819641 C-24.86944813 29.22785271 -25.48400114 21.66937279 -24.001297 14.05366516 C-22.32806187 8.65180115 -19.15703826 5.28922883 -14.4309845 2.26069641 C-9.69305674 -0.21391661 -5.21286917 -0.02212464 0 0 Z " fill="#FEC376" transform="translate(157.4309844970703,341.7393035888672)"/>
<path d="M0 0 C59.07 0 118.14 0 179 0 C179 10.12554168 179 10.12554168 178.18969727 14.9152832 C178.01273819 15.98281326 177.83577911 17.05034332 177.65345764 18.15022278 C177.45973068 19.27240707 177.26600372 20.39459137 177.06640625 21.55078125 C176.77031715 23.31532906 176.77031715 23.31532906 176.46824646 25.11552429 C175.8398425 28.84904331 175.20112601 32.58071748 174.5625 36.3125 C174.13673286 38.83908546 173.71159622 41.36577725 173.28710938 43.89257812 C171.72315687 53.15663494 171.72315687 53.15663494 170.93969727 57.73168945 C170.78203384 58.65496536 170.62437042 59.57824127 170.46192932 60.52949524 C170.05552713 62.70302807 169.5362949 64.85482041 169 67 C116.53 67 64.06 67 10 67 C9.34 62.71 8.68 58.42 8 54 C9.47125336 53.99453156 9.47125336 53.99453156 10.972229 53.98895264 C20.21292003 53.95202123 29.45327724 53.89426908 38.69371414 53.81609726 C43.44442381 53.77657754 48.19494687 53.7444112 52.94580078 53.72900391 C57.53015166 53.7138668 62.11398969 53.67947409 66.69811249 53.63169098 C68.44756362 53.61684667 70.19708796 53.60895724 71.94660187 53.60811615 C74.39627342 53.60575383 76.84451914 53.57873574 79.29394531 53.54589844 C80.01827255 53.5509288 80.74259979 53.55595917 81.48887634 53.56114197 C84.87889895 53.4907696 86.7107025 53.21720875 89.45428467 51.1572876 C91.53895574 48.24780294 91.52157917 46.50203158 91 43 C89.45493534 40.96332385 88.27853844 40.13926922 86 39 C83.4377732 38.87773147 80.90091182 38.81434423 78.33740234 38.79467773 C77.54707108 38.78477814 76.75673981 38.77487854 75.94245911 38.76467896 C73.3236493 38.73302878 70.70482134 38.70829267 68.0859375 38.68359375 C66.27275108 38.66302726 64.45956948 38.64203087 62.64639282 38.62062073 C57.86901758 38.56536858 53.09159885 38.51597318 48.31414795 38.46777344 C43.44116332 38.41758134 38.56824202 38.36188333 33.6953125 38.30664062 C24.1302624 38.19902062 14.56515738 38.09758419 5 38 C4.67 35.03 4.34 32.06 4 29 C4.9034465 28.99635437 5.80689301 28.99270874 6.73771667 28.98895264 C15.25702647 28.95106658 23.77595368 28.89420688 32.2949934 28.81609726 C36.67462335 28.77660874 41.05405183 28.74442713 45.43383789 28.72900391 C49.66160117 28.71384618 53.88881061 28.67941693 58.11632729 28.63169098 C59.72818497 28.61686795 61.34012173 28.60895845 62.95204735 28.60811615 C65.21236401 28.60574738 67.47114897 28.5786785 69.73120117 28.54589844 C71.65980232 28.53257477 71.65980232 28.53257477 73.62736511 28.51898193 C77.56690349 27.91276474 79.25980866 26.8569298 82 24 C82.42884908 20.49773248 82.1149272 18.34478161 81 15 C77.42754408 13.49180634 73.39123308 13.82626983 69.56933594 13.79467773 C68.82748047 13.78477814 68.085625 13.77487854 67.32128906 13.76467896 C64.87568321 13.73315853 62.43005795 13.70834405 59.984375 13.68359375 C58.2861481 13.66301605 56.58792623 13.64201936 54.88970947 13.62062073 C50.4247241 13.56548433 45.95969315 13.51603793 41.49462891 13.46777344 C36.93648228 13.41749678 32.37840166 13.36184291 27.8203125 13.30664062 C18.88026475 13.19916222 9.94015964 13.09769441 1 13 C0.67 8.71 0.34 4.42 0 0 Z " fill="#FEB554" transform="translate(192,416)"/>
<path d="M0 0 C1.94140625 0.33984375 1.94140625 0.33984375 4.44140625 1.83984375 C6.52187695 5.30729492 6.64985269 8.44206498 5.94140625 12.33984375 C4.47472494 15.11328129 2.56916178 17.36551962 0.50390625 19.71484375 C-0.5165475 20.93021563 -1.536121 22.14632729 -2.5546875 23.36328125 C-3.38097656 24.34554687 -4.20726562 25.3278125 -5.05859375 26.33984375 C-5.38859375 26.99984375 -5.71859375 27.65984375 -6.05859375 28.33984375 C-5.19429276 30.49149832 -4.13123235 32.503588 -3.06640625 34.5625 C-0.44076783 41.79827101 -0.99093256 49.6901733 -1.26245117 57.26879883 C-1.32867916 59.45348818 -1.39391613 61.63820773 -1.45829773 63.82295227 C-1.49323523 64.96911829 -1.52817272 66.11528431 -1.56416893 67.29618263 C-1.77147632 74.69081377 -1.88657504 82.08755085 -2.0127058 89.48393726 C-2.12838894 95.96922471 -2.28066192 102.44963098 -2.51245117 108.93188477 C-2.73564298 115.22559361 -2.85962028 121.51442128 -2.91720009 127.81174278 C-2.95647461 130.20022744 -3.03109056 132.58841681 -3.14262962 134.97461891 C-3.76632174 145.90119293 -3.76632174 145.90119293 -1.05859375 156.33984375 C3.85729546 161.63039234 10.26803577 164.35137874 16.76943016 167.21547508 C19.69331143 168.72908313 21.28572407 170.51707709 22.94140625 173.33984375 C23.50390625 176.33984375 23.50390625 176.33984375 22.94140625 179.33984375 C20.60705012 182.49809028 19.21412384 184.14847162 15.265625 184.7421875 C10.77791952 184.19902221 7.70834689 182.33358952 3.87890625 180.02734375 C2.83766602 179.42116211 2.83766602 179.42116211 1.77539062 178.80273438 C-0.17774404 177.6620147 -2.11991724 176.5049263 -4.05859375 175.33984375 C-5.54166016 174.45232422 -5.54166016 174.45232422 -7.0546875 173.546875 C-8.04662109 172.94939453 -8.04662109 172.94939453 -9.05859375 172.33984375 C-9.28546875 172.87609375 -9.51234375 173.41234375 -9.74609375 173.96484375 C-15.47555934 184.33244816 -25.93403202 189.62666025 -36.95605469 192.90405273 C-39.43940264 193.4187736 -41.72568356 193.45224439 -44.26171875 193.4375 C-45.24140625 193.43427734 -46.22109375 193.43105469 -47.23046875 193.42773438 C-48.24625 193.41935547 -49.26203125 193.41097656 -50.30859375 193.40234375 C-51.85546875 193.39557617 -51.85546875 193.39557617 -53.43359375 193.38867188 C-55.97531948 193.37690463 -58.51692694 193.36046386 -61.05859375 193.33984375 C-61.02717285 194.34567505 -61.02717285 194.34567505 -60.99511719 195.37182617 C-60.91173348 198.42351155 -60.85986359 201.47495692 -60.80859375 204.52734375 C-60.77507812 205.58244141 -60.7415625 206.63753906 -60.70703125 207.72460938 C-60.60802384 215.57094667 -60.60802384 215.57094667 -62.921875 219.51953125 C-65.43482494 221.66036246 -66.76238822 222.25944849 -70.05859375 222.33984375 C-72.68359375 221.71484375 -72.68359375 221.71484375 -75.05859375 220.33984375 C-78.05859375 215.33984375 -78.05859375 215.33984375 -78.05859375 193.33984375 C-93.89859375 193.33984375 -109.73859375 193.33984375 -126.05859375 193.33984375 C-126.05859375 185.41984375 -126.05859375 177.49984375 -126.05859375 169.33984375 C-123.65723145 169.33049805 -121.25586914 169.32115234 -118.78173828 169.31152344 C-110.81882145 169.27765055 -102.85616096 169.2220446 -94.89344978 169.15594101 C-90.0689273 169.11654921 -85.24458507 169.08432019 -80.41992188 169.06884766 C-75.75774501 169.05362622 -71.09606398 169.01908406 -66.43410873 168.97153473 C-64.66170453 168.95677729 -62.88922951 168.94880599 -61.11676407 168.9479599 C-45.84183514 169.01774652 -45.84183514 169.01774652 -32.4375 162.26171875 C-31.83808594 161.545 -31.23867188 160.82828125 -30.62109375 160.08984375 C-30.00363281 159.3834375 -29.38617188 158.67703125 -28.75 157.94921875 C-23.79782068 150.30936705 -23.63740718 143.36812559 -23.71801758 134.49804688 C-23.7175795 133.22891449 -23.71714142 131.9597821 -23.71669006 130.65219116 C-23.71583393 127.19396783 -23.7333971 123.73606052 -23.75441194 120.27791023 C-23.77324296 116.65578973 -23.77493422 113.03366093 -23.77848816 109.41149902 C-23.78778985 102.56224796 -23.81237799 95.71314159 -23.84253663 88.86395407 C-23.87613931 81.06224459 -23.89258135 73.26052798 -23.90762293 65.45876408 C-23.9389294 49.41903945 -23.99165308 33.3794601 -24.05859375 17.33984375 C-27.72957412 16.08084326 -31.06336085 15.0666831 -34.93359375 14.71484375 C-35.71476562 14.64007813 -36.4959375 14.5653125 -37.30078125 14.48828125 C-37.88085938 14.43929687 -38.4609375 14.3903125 -39.05859375 14.33984375 C-39.05859375 14.00984375 -39.05859375 13.67984375 -39.05859375 13.33984375 C-31.54052526 12.89952304 -25.21635098 14.05371597 -18.05859375 16.33984375 C-17.79949219 15.77394531 -17.54039062 15.20804688 -17.2734375 14.625 C-15.93787575 12.1127697 -14.37976752 10.01256138 -12.62109375 7.77734375 C-11.72583984 6.63072266 -11.72583984 6.63072266 -10.8125 5.4609375 C-7.31004394 1.22522783 -5.89146562 -0.27124612 0 0 Z " fill="#4E911E" transform="translate(461.05859375,50.66015625)"/>
<path d="M0 0 C-0.74121094 0.52722656 -1.48242188 1.05445313 -2.24609375 1.59765625 C-15.00933702 12.73154932 -17.54427803 32.20204339 -20 48 C-20.17490967 49.04099854 -20.34981934 50.08199707 -20.5300293 51.15454102 C-21.07621986 55.62365663 -21.14324652 59.97596733 -21.1328125 64.47265625 C-21.13417709 65.37927505 -21.13554169 66.28589386 -21.13694763 67.21998596 C-21.13897171 70.16752797 -21.13264503 73.1149682 -21.125 76.0625 C-21.12378143 77.07906677 -21.12256287 78.09563354 -21.12130737 79.14300537 C-21.10303501 92.15011419 -20.93201027 105.12832122 -20.42626953 118.1262207 C-19.98360654 129.6653267 -19.72455662 141.20478062 -19.5 152.75 C-19.47946564 153.80282166 -19.45893127 154.85564331 -19.43777466 155.94036865 C-19.01199304 178.12714457 -18.72520618 200.31579304 -18.43850708 222.50469971 C-18.06159061 251.67199051 -17.5715227 280.83580297 -17 310 C-21.95 310 -26.9 310 -32 310 C-33.05984097 306.82047708 -33.25244165 304.26633418 -33.43310547 300.92285156 C-33.50355576 299.65677063 -33.57400604 298.3906897 -33.64659119 297.08624268 C-33.7202 295.68770749 -33.7937297 294.28916813 -33.8671875 292.890625 C-33.94674503 291.43363492 -34.02667335 289.97666505 -34.10694885 288.51971436 C-34.3226756 284.58574562 -34.53330152 280.65151859 -34.7429924 276.71722412 C-34.96514278 272.56523006 -35.19189152 268.41348717 -35.41821289 264.26171875 C-35.78222969 257.57499159 -36.14371314 250.8881323 -36.50341797 244.20117188 C-36.91319832 236.58684375 -37.33070209 228.97296993 -37.75390625 221.359375 C-38.96701547 199.47877955 -40.12847057 177.59579582 -41.26171875 155.7109375 C-41.37460216 153.53297901 -41.48749179 151.35502084 -41.60038757 149.17706299 C-42.11034665 139.33506312 -42.61932995 129.49301673 -43.12406254 119.6507473 C-43.33590694 115.52547311 -43.54905776 111.40026705 -43.76247597 107.27507401 C-43.86211289 105.34319713 -43.96116866 103.41129017 -44.05959129 101.47935104 C-44.53327441 92.18480961 -45.02407564 82.90079972 -45.79615784 73.62510681 C-47.67938712 49.37262667 -42.65785456 30.28635116 -27.52734375 10.83984375 C-25.63550031 8.7140784 -23.92963016 7.0299147 -21.75390625 5.25390625 C-18.97684679 3.29445604 -18.97684679 3.29445604 -18 1 C-14.98046875 0.078125 -14.98046875 0.078125 -11.1875 -0.75 C-9.94355469 -1.03359375 -8.69960937 -1.3171875 -7.41796875 -1.609375 C-3.9992551 -2.00008513 -2.76645673 -1.92327974 0 0 Z " fill="#5DAB24" transform="translate(262,32)"/>
<path d="M0 0 C0.79212891 -0.00128906 1.58425781 -0.00257812 2.40039062 -0.00390625 C3.64272461 0.00189453 3.64272461 0.00189453 4.91015625 0.0078125 C5.73451172 0.00394531 6.55886719 0.00007813 7.40820312 -0.00390625 C8.20162109 -0.00261719 8.99503906 -0.00132813 9.8125 0 C10.90099243 0.00169189 10.90099243 0.00169189 12.01147461 0.00341797 C13.97265625 0.1328125 13.97265625 0.1328125 16.97265625 1.1328125 C16.9750446 1.72234931 16.97743296 2.31188612 16.97989368 2.91928768 C17.03914235 17.29299371 17.11475518 31.66654565 17.20837116 46.04006863 C17.25325329 52.9911338 17.29268519 59.9421486 17.3190918 66.89331055 C17.34460146 73.60427103 17.38555689 80.31497644 17.43584251 87.02580452 C17.45249961 89.58334616 17.46402106 92.14092669 17.47027016 94.69851494 C17.47992343 98.28679735 17.50799914 101.87450599 17.5402832 105.46264648 C17.53813057 107.04113876 17.53813057 107.04113876 17.53593445 108.65151978 C17.66528296 118.84839044 19.84316713 125.81238804 26.91796875 133.25 C33.06333571 138.88130584 39.82298252 139.27449565 47.79223633 139.33813477 C48.56349854 139.34803436 49.33476074 139.35793396 50.12939453 139.36813354 C52.66696145 139.39960448 55.20454707 139.42444872 57.7421875 139.44921875 C59.50624566 139.46980073 61.27029903 139.49079753 63.03434753 139.51219177 C67.66865141 139.56728395 72.30299884 139.61674973 76.93737793 139.66503906 C81.66987975 139.71534814 86.40231862 139.77098503 91.13476562 139.82617188 C100.41400867 139.93359615 109.69330647 140.03507583 118.97265625 140.1328125 C119.14409535 142.2574328 119.3095222 144.38253839 119.47265625 146.5078125 C119.56546875 147.69117188 119.65828125 148.87453125 119.75390625 150.09375 C120.06142098 154.77133736 120.01556492 159.44742445 119.97265625 164.1328125 C107.79354625 164.24903343 95.61456976 164.33769348 83.43501663 164.39187336 C77.77858032 164.41788658 72.12252544 164.45313298 66.46630859 164.51000977 C61.00032591 164.56462513 55.53470846 164.59429517 50.06847382 164.60719872 C47.99060066 164.61638578 45.91274585 164.63432524 43.8350296 164.66146278 C29.348296 164.84302798 17.59421278 163.91803776 6.0078125 154.203125 C-3.24978853 144.7856038 -6.35218623 133.49873205 -6.40060425 120.5776825 C-6.38981842 119.41098526 -6.37903259 118.24428802 -6.36791992 117.04223633 C-6.368358 115.78241943 -6.36879608 114.52260254 -6.36924744 113.22460938 C-6.37010015 109.80581604 -6.3525935 106.38734532 -6.33152556 102.96862626 C-6.31263646 99.38255893 -6.31099877 95.79648234 -6.30744934 92.21037292 C-6.2981645 85.43559421 -6.27359958 78.66096256 -6.24340087 71.88624829 C-6.20974522 64.16669295 -6.19334293 56.4471302 -6.17831457 48.72751963 C-6.14704635 32.8625324 -6.09435605 16.99769149 -6.02734375 1.1328125 C-3.7647851 0.00153317 -2.50946466 0.00390665 0 0 Z " fill="#7DD53D" transform="translate(82.02734375,107.8671875)"/>
<path d="M0 0 C3.29382721 1.47355428 3.85648123 2.63742626 5.1875 6 C5.70202036 11.81898029 1.31905786 16.60695085 -2 21 C-2.77730469 21.85078125 -3.55460937 22.7015625 -4.35546875 23.578125 C-5.10441406 24.39796875 -5.85335937 25.2178125 -6.625 26.0625 C-7.33914062 26.77535156 -8.05328125 27.48820312 -8.7890625 28.22265625 C-10.23060832 31.52891134 -9.88228069 31.99764763 -8.72265625 35.26953125 C-6.16481449 42.56885374 -6.67792951 50.00272442 -6.8125 57.625 C-6.8275808 59.12108021 -6.84126317 60.6171752 -6.85351562 62.11328125 C-6.88623695 65.74249968 -6.93782944 69.37115248 -7 73 C-5.75863281 72.94199219 -4.51726562 72.88398438 -3.23828125 72.82421875 C-1.59639186 72.77730762 0.04553832 72.73180891 1.6875 72.6875 C2.50412109 72.64560547 3.32074219 72.60371094 4.16210938 72.56054688 C8.5707075 72.471304 10.41612373 72.55984712 14.046875 75.296875 C16 78 16 78 16.5625 81.5625 C15.91913721 85.49416151 15.15551602 86.65590239 12 89 C8.23699626 90.25433458 4.72789091 90.10695422 0.8125 90.0625 C0.06291016 90.05798828 -0.68667969 90.05347656 -1.45898438 90.04882812 C-3.30602383 90.03706354 -5.15302213 90.01912865 -7 90 C-6.95569125 94.59053954 -6.88569892 99.17972389 -6.79248047 103.76953125 C-6.76435587 105.3289915 -6.74309911 106.88859204 -6.72900391 108.44824219 C-6.70745458 110.69799173 -6.66074943 112.94606974 -6.609375 115.1953125 C-6.60814636 115.8861795 -6.60691772 116.57704651 -6.60565186 117.28884888 C-6.45600983 122.29925813 -5.32603634 125.25770148 -2 129 C4.57322174 133.29984507 12.26379827 132.45955574 19.8671875 132.4765625 C21.31211796 132.49088697 22.75703485 132.50664657 24.20193481 132.52377319 C27.98589397 132.56544604 31.7697688 132.59056805 35.55389404 132.61126709 C41.63135831 132.64722463 47.70861545 132.7079468 53.78586197 132.76975632 C55.9092325 132.78887829 58.03254715 132.80058026 60.15597534 132.81118774 C61.43465485 132.82144989 62.71333435 132.83171204 64.03076172 132.84228516 C65.16214569 132.84878082 66.29352966 132.85527649 67.459198 132.86196899 C70 133 70 133 71 134 C71.08713831 135.70772358 71.10700007 137.41898649 71.09765625 139.12890625 C71.09282227 140.68061523 71.09282227 140.68061523 71.08789062 142.26367188 C71.07532227 143.8965918 71.07532227 143.8965918 71.0625 145.5625 C71.05798828 146.65498047 71.05347656 147.74746094 71.04882812 148.87304688 C71.03699826 151.58208495 71.02051543 154.29101599 71 157 C60.98554452 157.06969739 50.97114733 157.12291119 40.95649815 157.15543652 C36.30562802 157.17105184 31.6549246 157.19221412 27.00415039 157.22631836 C22.51078097 157.25905987 18.01757128 157.27688406 13.52409172 157.28463173 C11.81498642 157.2901488 10.10588927 157.30092197 8.39685249 157.31719017 C-3.43121254 157.42524074 -13.21672565 157.41649476 -22.27734375 148.82421875 C-29.80984656 140.84762281 -30.29781127 132.98335308 -30.22705078 122.55688477 C-30.22734283 121.42444839 -30.22763489 120.29201202 -30.22793579 119.1252594 C-30.22654695 115.39722932 -30.21100646 111.66940125 -30.1953125 107.94140625 C-30.19158079 105.35066334 -30.18873457 102.75991902 -30.18673706 100.16917419 C-30.17989152 94.05657335 -30.16414251 87.94405538 -30.14403808 81.83148569 C-30.12163804 74.86895089 -30.11067535 67.90641254 -30.10064721 60.94385064 C-30.07977501 46.62919517 -30.04462474 32.31460015 -30 18 C-27.69 18.33 -25.38 18.66 -23 19 C-22.58637207 18.45996338 -22.17274414 17.91992676 -21.74658203 17.36352539 C-19.87668517 14.9267783 -18.00093193 12.49460353 -16.125 10.0625 C-15.47402344 9.21236328 -14.82304688 8.36222656 -14.15234375 7.48632812 C-13.21455078 6.27299805 -13.21455078 6.27299805 -12.2578125 5.03515625 C-11.6817627 4.2862915 -11.10571289 3.53742676 -10.51220703 2.76586914 C-7.49610808 -0.75615923 -4.42879987 -0.30543447 0 0 Z " fill="#5EAC24" transform="translate(129,91)"/>
<path d="M0 0 C3.01171875 -0.3984375 3.01171875 -0.3984375 6.6875 -0.375 C7.88761719 -0.38273437 9.08773437 -0.39046875 10.32421875 -0.3984375 C14.51538982 0.05586585 17.1812635 1.27750609 21 3 C21.09358461 19.79441884 21.16404819 36.5887559 21.20724869 53.38337612 C21.22784368 61.18202385 21.25590534 68.98050923 21.30175781 76.77905273 C21.3417198 83.57900943 21.36745507 90.37884851 21.37635398 97.17891937 C21.38155299 100.77708094 21.3937077 104.37490613 21.42292023 107.97295952 C21.4553242 111.99701515 21.45595344 116.02049193 21.45410156 120.04467773 C21.46848267 121.22791626 21.48286377 122.41115479 21.49768066 123.63024902 C21.44752354 133.72078826 18.79767756 140.85143506 11.9375 148.2734375 C5.90371855 153.65031533 -0.80204335 155.15196295 -8.68432617 155.11352539 C-9.4650499 155.11367142 -10.24577362 155.11381744 -11.05015564 155.1139679 C-13.63112159 155.11327114 -16.2120154 155.10548982 -18.79296875 155.09765625 C-20.58230042 155.09579123 -22.3716326 155.09436772 -24.16096497 155.09336853 C-28.87097584 155.08954999 -33.58095589 155.07972533 -38.29095459 155.06866455 C-43.09696028 155.05843621 -47.90297094 155.05386786 -52.70898438 155.04882812 C-62.13933864 155.03810249 -71.56966193 155.02051102 -81 155 C-80.67 147.08 -80.34 139.16 -80 131 C-74.09287109 130.94392578 -74.09287109 130.94392578 -68.06640625 130.88671875 C-64.23375026 130.8404495 -60.40118983 130.78923529 -56.56860352 130.73754883 C-53.91394197 130.70277337 -51.25957104 130.67632813 -48.60473633 130.65356445 C-44.77916148 130.61986211 -40.9542147 130.56753604 -37.12890625 130.51171875 C-35.36118614 130.50213387 -35.36118614 130.50213387 -33.55775452 130.49235535 C-23.46265873 130.31401792 -16.10135385 128.79650711 -8.66015625 121.76953125 C-4.28593209 117.10712291 -2.88585488 112.70393614 -2.85523987 106.43907166 C-2.84834137 105.52917984 -2.84144287 104.61928802 -2.83433533 103.68182373 C-2.83172195 102.69103821 -2.82910858 101.70025269 -2.82641602 100.67944336 C-2.8163855 99.10571709 -2.8163855 99.10571709 -2.80615234 97.50019836 C-2.79210695 95.22268266 -2.78021127 92.94515292 -2.77020454 90.66761589 C-2.75379986 87.06649015 -2.73056403 83.46546901 -2.70530701 79.86439514 C-2.63450216 69.62603962 -2.57429974 59.38764241 -2.52319336 49.14916992 C-2.49145929 42.88755129 -2.45020309 36.62605457 -2.40299797 30.36453438 C-2.38695026 27.97507473 -2.37464156 25.58558702 -2.36609077 23.19608879 C-2.35398032 19.86098668 -2.3298501 16.52617317 -2.30297852 13.19116211 C-2.30238937 12.19835236 -2.30180023 11.2055426 -2.30119324 10.18264771 C-2.29147491 9.27557571 -2.28175659 8.36850372 -2.27174377 7.4339447 C-2.26751184 6.64547622 -2.2632799 5.85700773 -2.25891972 5.04464626 C-2 3 -2 3 0 0 Z " fill="#7DD53D" transform="translate(417,65)"/>
<path d="M0 0 C62.04 0 124.08 0 188 0 C184 24 184 24 179 29 C175.74377441 29.6292057 175.74377441 29.6292057 171.97851562 29.63491821 C170.93609333 29.64661814 170.93609333 29.64661814 169.872612 29.65855443 C167.5499479 29.6784575 165.22892548 29.66271855 162.90625 29.64697266 C161.23875982 29.65374961 159.57127712 29.66265318 157.90380859 29.67352295 C153.37893315 29.69631392 148.85462782 29.68748092 144.32974243 29.67162752 C139.59416163 29.65896744 134.8586296 29.67070893 130.12304688 29.67855835 C122.17048377 29.6876546 114.21815285 29.67566766 106.265625 29.65185547 C97.07174829 29.62464421 87.87842596 29.63345839 78.68456268 29.6609875 C70.79055791 29.68367827 62.89672002 29.68687881 55.00269318 29.67379415 C50.28807996 29.66599946 45.57372733 29.66495852 40.85913086 29.68147659 C36.42659559 29.69592169 31.99477497 29.6858993 27.56231689 29.65700531 C25.93574205 29.65039465 24.30910705 29.65229191 22.68255615 29.66331863 C20.46138751 29.67698798 18.24250721 29.65984651 16.02148438 29.63491821 C14.77894897 29.63303308 13.53641357 29.63114796 12.25622559 29.6292057 C8.11338013 28.82867702 6.63579972 27.21702405 4 24 C0.97901868 17.18554898 0.86952331 6.52142485 0 0 Z " fill="#AA6100" transform="translate(173,483)"/>
<path d="M0 0 C9.9 0 19.8 0 30 0 C30.33 4.29 30.66 8.58 31 13 C31.94325134 12.99555878 32.88650269 12.99111755 33.8583374 12.98654175 C42.74562732 12.94600631 51.63289849 12.91602071 60.52025986 12.89637566 C65.08939211 12.88593644 69.65844975 12.8717747 74.22753906 12.84912109 C78.63658634 12.82739767 83.04556184 12.81543241 87.45465851 12.81024551 C89.13718038 12.80654886 90.8196983 12.79933028 92.50218964 12.78853989 C94.85799158 12.77403158 97.21349653 12.77202177 99.56933594 12.77294922 C100.26561096 12.76575867 100.96188599 12.75856812 101.67926025 12.75115967 C105.27453297 12.76648522 108.01736144 12.89257352 111 15 C113.35048538 18.52572807 113.66397817 19.85013645 113 24 C109.7532327 27.36044985 108.14310277 28.80322413 103.5071106 29.60127258 C102.22359711 29.59016953 100.94008362 29.57906647 99.61767578 29.56762695 C98.54834557 29.56872215 98.54834557 29.56872215 97.45741272 29.56983948 C95.11925075 29.56637747 92.78312297 29.52758777 90.4453125 29.48828125 C88.81722095 29.47894805 87.18911529 29.47183433 85.56100464 29.46684265 C81.28959939 29.4478124 77.01905321 29.39874707 72.74798584 29.34332275 C68.38419209 29.29204373 64.02025863 29.26931023 59.65625 29.24414062 C51.10377378 29.19062338 42.55199396 29.10536014 34 29 C34.495 33.455 34.495 33.455 35 38 C36.00367111 37.99333817 37.00734222 37.98667633 38.04142761 37.97981262 C47.50231618 37.91898475 56.96316504 37.8740193 66.42420483 37.84456348 C71.28817587 37.82891083 76.15198899 37.8076798 81.01586914 37.77368164 C85.71021895 37.74107402 90.4044169 37.72314397 95.09887123 37.71536827 C96.88943179 37.70982729 98.67998409 37.69900709 100.47047997 37.68280983 C102.97944443 37.66101679 105.48778221 37.65803384 107.99682617 37.65942383 C108.73625961 37.648638 109.47569305 37.63785217 110.23753357 37.6267395 C114.66378679 37.65325506 117.48321545 38.26523197 121 41 C122.44430855 43.88861709 122.37688506 45.79647701 122 49 C119.30376841 52.52976704 117.83120183 53.86118866 113.39958191 54.60127258 C111.99322351 54.61566579 110.5864147 54.60269505 109.18041992 54.56762695 C108.02352661 54.56872215 108.02352661 54.56872215 106.84326172 54.56983948 C104.30493778 54.56636796 101.76847033 54.52753062 99.23046875 54.48828125 C97.4664256 54.4789515 95.70236947 54.47183615 93.93830872 54.46684265 C89.30359904 54.44778548 84.66967742 54.39869609 80.03527832 54.34332275 C75.30292419 54.29210241 70.57044227 54.26932268 65.83789062 54.24414062 C56.55824821 54.19057581 47.27918973 54.10527877 38 54 C38.144375 54.60328125 38.28875 55.2065625 38.4375 55.828125 C38.623125 56.62734375 38.80875 57.4265625 39 58.25 C39.185625 59.03890625 39.37125 59.8278125 39.5625 60.640625 C40 63 40 63 40 67 C30.43 67 20.86 67 11 67 C8.15987458 52.68576787 5.66160591 38.32907122 3.25 23.9375 C3.08966278 22.98723938 2.92932556 22.03697876 2.76412964 21.05792236 C2.30271045 18.31914765 1.84592493 15.57964162 1.390625 12.83984375 C1.25018265 12.00830276 1.1097403 11.17676178 0.96504211 10.32002258 C0.83768173 9.54660019 0.71032135 8.7731778 0.57910156 7.97631836 C0.46681213 7.30241562 0.35452271 6.62851288 0.23883057 5.93418884 C0 4 0 4 0 0 Z " fill="#FBA532" transform="translate(162,416)"/>
<path d="M0 0 C0.98820992 0.00424484 0.98820992 0.00424484 1.99638367 0.00857544 C4.08501937 0.01970326 6.17321431 0.04479302 8.26171875 0.0703125 C9.68423857 0.08035191 11.10676515 0.08947608 12.52929688 0.09765625 C16.00274556 0.11961803 19.47593908 0.15409604 22.94921875 0.1953125 C21.95921875 0.8553125 20.96921875 1.5153125 19.94921875 2.1953125 C18.93859375 2.8965625 17.92796875 3.5978125 16.88671875 4.3203125 C13.94921875 6.1953125 13.94921875 6.1953125 11.94921875 6.1953125 C11.63984375 6.9790625 11.33046875 7.7628125 11.01171875 8.5703125 C9.94921875 11.1953125 9.94921875 11.1953125 8.94921875 13.1953125 C8.39984943 20.56226499 7.90209318 27.91539959 11.48828125 34.58203125 C14.82054092 38.26177254 17.92236226 40.06190287 22.85783195 40.70312119 C24.364172 40.72710192 25.87095601 40.72943029 27.37741089 40.71429443 C28.21149857 40.72179569 29.04558625 40.72929694 29.90494931 40.7370255 C32.69193311 40.75727967 35.4781016 40.74920452 38.26513672 40.74121094 C40.26600447 40.74994718 42.26686524 40.76043314 44.26771545 40.77253723 C49.69492855 40.80041142 55.12191384 40.80380159 60.54918814 40.80281734 C66.22271427 40.8059452 71.89613761 40.8315608 77.5696106 40.85479736 C88.31107229 40.89537053 99.05247326 40.91570121 109.79399979 40.92877126 C122.02370685 40.9446368 134.2533105 40.9830506 146.4829576 41.02336454 C171.63834328 41.10578156 196.79372614 41.15986245 221.94921875 41.1953125 C221.94921875 41.5253125 221.94921875 41.8553125 221.94921875 42.1953125 C192.7847857 42.2865992 163.62036662 42.35736992 134.45581922 42.39957382 C131.01123602 42.40457653 127.56665309 42.40975383 124.12207031 42.41503906 C123.09345594 42.41661293 123.09345594 42.41661293 122.04406148 42.41821858 C110.94639599 42.43561506 99.84881354 42.46714854 88.75119728 42.50392368 C77.36063495 42.54135426 65.97013411 42.56325348 54.5795064 42.57166648 C48.1829619 42.57688202 41.78660564 42.58914374 35.39012146 42.61823273 C29.36881496 42.64539354 23.34777414 42.65375599 17.3264122 42.64774323 C15.11732921 42.64884315 12.90823729 42.65679282 10.69920731 42.6721344 C7.6801277 42.69207226 4.66204767 42.68723735 1.64294434 42.67633057 C0.77132896 42.68798193 -0.10028642 42.6996333 -0.99831438 42.71163774 C-7.99446425 42.64344773 -13.36139041 40.8139299 -18.42578125 35.8828125 C-22.48924488 29.1624688 -23.10379789 21.60398888 -21.62109375 13.98828125 C-19.94785863 8.58641724 -16.77683502 5.22384491 -12.05078125 2.1953125 C-7.92326305 0.17895627 -4.56979751 -0.03889189 0 0 Z " fill="#FBA636" transform="translate(155.05078125,341.8046875)"/>
<path d="M0 0 C0.80385132 -0.00394272 1.60770264 -0.00788544 2.43591309 -0.01194763 C5.08478747 -0.01864369 7.73192619 0.01047175 10.38061523 0.04077148 C12.22476365 0.04502315 14.06891742 0.04735033 15.91307068 0.0478363 C19.77416307 0.05399739 23.63467436 0.0766775 27.49560547 0.11230469 C32.44440804 0.15760848 37.39268496 0.17233261 42.34167576 0.1760416 C46.14809857 0.18047041 49.95441112 0.19577414 53.76078606 0.21491814 C55.58563264 0.22379585 57.41049097 0.23052803 59.23535347 0.23507881 C61.78470758 0.24412332 64.33358708 0.26651501 66.8828125 0.29296875 C67.63668747 0.29363342 68.39056244 0.2942981 69.1672821 0.29498291 C72.86090445 0.34787099 75.81889119 0.40135685 78.87670898 2.59936523 C81.22719436 6.1250933 81.54068715 7.44950168 80.87670898 11.59936523 C77.50084864 15.16225935 75.93108566 16.42713049 71.03109741 17.22755432 C69.56760067 17.25397829 68.10344918 17.25333821 66.63989258 17.23046875 C65.43389656 17.24120171 65.43389656 17.24120171 64.20353699 17.25215149 C61.56015282 17.26898743 58.91847656 17.2496706 56.27514648 17.22827148 C54.43242249 17.2291005 52.58969856 17.23156109 50.74697876 17.23558044 C46.89188281 17.23843472 43.03736906 17.2237707 39.18237305 17.19628906 C34.24122958 17.16215881 29.30112362 17.16824382 24.35993004 17.18695164 C20.55776314 17.19751791 16.75583782 17.18858804 12.95369339 17.17356682 C11.13163597 17.16838502 9.30955333 17.16886678 7.48749924 17.17511177 C4.94269227 17.18056147 2.39937367 17.16020001 -0.14526367 17.1328125 C-1.27371956 17.14260132 -1.27371956 17.14260132 -2.42497253 17.15258789 C-5.84835576 17.08992889 -7.7793451 16.85652305 -10.55551147 14.78086853 C-12.81046782 11.64318586 -13.19081531 9.44825017 -13.12329102 5.59936523 C-9.35563301 0.53128735 -6.00780215 -0.11853613 0 0 Z " fill="#AC6302" transform="translate(194.123291015625,428.400634765625)"/>
<path d="M0 0 C0.83281998 -0.00686325 1.66563995 -0.0137265 2.5236969 -0.02079773 C5.28037501 -0.03911916 8.03648688 -0.0352206 10.79321289 -0.02954102 C12.70748582 -0.03410038 14.62175711 -0.03940521 16.536026 -0.04542542 C20.5501266 -0.0543671 24.56402836 -0.05192151 28.578125 -0.04199219 C33.72442789 -0.03050332 38.87004457 -0.05070735 44.01625729 -0.07990932 C47.97022366 -0.09824848 51.92402492 -0.0979834 55.87802315 -0.0922718 C57.775457 -0.0921183 59.67290184 -0.0981868 61.57029533 -0.11056328 C64.22308358 -0.12542784 66.87459567 -0.11483003 69.52734375 -0.09765625 C70.31241302 -0.10732422 71.0974823 -0.11699219 71.90634155 -0.12695312 C75.43179322 -0.07911826 77.44552642 0.11922983 80.31202698 2.2518158 C81.82836914 4.40405273 81.82836914 4.40405273 82.39086914 7.34155273 C81.62288758 11.52278567 80.14683736 12.78584389 76.82836914 15.40405273 C73.89941305 15.89908857 71.55252471 16.08997581 68.62915039 16.05102539 C67.81715179 16.05978699 67.0051532 16.06854858 66.16854858 16.07757568 C63.49210725 16.09953108 60.81732642 16.08503152 58.14086914 16.06811523 C56.27668949 16.0714845 54.41251198 16.07633804 52.54833984 16.08261108 C48.64439954 16.08997716 44.74103186 16.07928557 40.8371582 16.0559082 C35.83653688 16.02742043 30.83725729 16.04382585 25.83668518 16.07377052 C21.98813798 16.09185076 18.13990815 16.08608217 14.29135132 16.07313156 C12.4477828 16.06979955 10.60418534 16.07387744 8.76065063 16.08552933 C6.1821884 16.09825032 3.60588925 16.07884568 1.02758789 16.05102539 C0.26795746 16.06114655 -0.49167297 16.0712677 -1.27432251 16.08169556 C-5.21235617 16.00309993 -7.02510916 15.51659652 -10.18408203 13.09017944 C-12.17163086 10.40405273 -12.17163086 10.40405273 -12.17163086 6.77905273 C-10.1235603 -0.1331854 -6.67568784 -0.03818047 0 0 Z " fill="#AA6100" transform="translate(202.171630859375,454.595947265625)"/>
<path d="M0 0 C9.57 0 19.14 0 29 0 C31.09448717 10.66284378 32.74712601 21.20600871 34 32 C24.43 32 14.86 32 5 32 C3.56073481 26.24293925 2.33736276 20.69827668 1.375 14.875 C1.2409375 14.10285156 1.106875 13.33070313 0.96875 12.53515625 C0.84242188 11.77847656 0.71609375 11.02179688 0.5859375 10.2421875 C0.41650635 9.23454346 0.41650635 9.23454346 0.24365234 8.20654297 C-0.05671785 5.48635683 0 2.73671973 0 0 Z " fill="#884D00" transform="translate(157,384)"/>
<path d="M0 0 C9.9 0 19.8 0 30 0 C31.6875 10.625 31.6875 10.625 32.18237305 13.93994141 C33.22838682 20.06763735 34.51458811 23.64104251 39 28 C34.81919399 28.12403121 30.63937498 28.21453601 26.45727539 28.2746582 C25.03618709 28.29973147 23.61522687 28.33379999 22.19458008 28.37719727 C20.14632538 28.43817858 18.09978117 28.46627762 16.05078125 28.48828125 C14.20480347 28.52755737 14.20480347 28.52755737 12.3215332 28.56762695 C8.09504495 27.84534947 6.66754968 26.27294229 4 23 C1.11824988 16.38118579 0.92520367 6.47642567 0 0 Z " fill="#884D00" transform="translate(173,484)"/>
<path d="M0 0 C5.61 0 11.22 0 17 0 C17.08093399 4.22955053 17.1404757 8.45755211 17.1875 12.6875 C17.21263672 13.88568359 17.23777344 15.08386719 17.26367188 16.31835938 C17.27333984 17.47529297 17.28300781 18.63222656 17.29296875 19.82421875 C17.3086792 20.88729248 17.32438965 21.95036621 17.34057617 23.0456543 C16.94862589 26.44564742 16.0501511 28.2804241 14 31 C10.7069753 32.64651235 8.9183239 33.2135637 5.3125 32.375 C2.6631045 30.79968375 1.5750606 29.64572112 0 27 C-0.34057617 24.06738281 -0.34057617 24.06738281 -0.29296875 20.703125 C-0.28330078 19.49785156 -0.27363281 18.29257812 -0.26367188 17.05078125 C-0.23853516 15.79652344 -0.21339844 14.54226563 -0.1875 13.25 C-0.17396484 11.98027344 -0.16042969 10.71054687 -0.14648438 9.40234375 C-0.11113518 6.26804816 -0.05732873 3.13397062 0 0 Z " fill="#91DC5A" transform="translate(108,296)"/>
<path d="M0 0 C5.04410161 1.35455414 8.36203881 5.89585561 11.79101562 9.61523438 C12.6134375 10.47375 13.43585938 11.33226562 14.28320312 12.21679688 C16.30506204 14.33269574 18.30590918 16.46491421 20.29101562 18.61523438 C18.62601321 22.10072581 16.612981 24.86572844 14.16601562 27.86523438 C13.4415625 28.75726563 12.71710938 29.64929688 11.97070312 30.56835938 C11.41640625 31.24382812 10.86210937 31.91929688 10.29101562 32.61523438 C5.58493941 28.76480838 1.21990949 24.65374804 -3.08398438 20.36523438 C-3.61991211 19.83381836 -4.15583984 19.30240234 -4.70800781 18.75488281 C-8.2447767 15.20451968 -9.61228462 13.81431136 -10.02148438 8.74023438 C-9.96239064 5.78554785 -9.77463401 4.72465044 -8.20898438 2.11523438 C-5.42682535 0.44593896 -3.24551875 -0.06201628 0 0 Z " fill="#91DB59" transform="translate(192.708984375,34.384765625)"/>
<path d="M0 0 C4.8398442 1.72233024 9.14143961 4.2357618 13.5625 6.8125 C14.31724609 7.23853516 15.07199219 7.66457031 15.84960938 8.10351562 C20.08565582 10.5704995 23.30411981 12.77459192 26 17 C26.5625 20 26.5625 20 26 23 C23.66729775 26.15600893 22.27392446 27.80816635 18.328125 28.40234375 C13.82573247 27.85804043 10.72419614 25.99059045 6.875 23.6875 C6.17246094 23.28337891 5.46992188 22.87925781 4.74609375 22.46289062 C1.34383577 20.48520758 -1.92118561 18.46464675 -5 16 C-4.19429304 12.50577615 -3.08208283 9.14682647 -1.9375 5.75 C-1.57527344 4.67234375 -1.21304687 3.5946875 -0.83984375 2.484375 C-0.56269531 1.66453125 -0.28554688 0.8446875 0 0 Z " fill="#90DB59" transform="translate(458,207)"/>
<path d="M0 0 C4.51739377 0.73751426 8.30454483 3.03851459 12.25537109 5.25341797 C13.11710937 5.71361328 13.97884766 6.17380859 14.86669922 6.64794922 C21.16491858 10.07251294 21.16491858 10.07251294 22.31787109 12.37841797 C21.61083984 14.07763672 21.61083984 14.07763672 20.50537109 16.06591797 C18.48576933 19.70411754 17.39114886 23.36212515 16.31787109 27.37841797 C-7.41999298 15.90268981 -7.41999298 15.90268981 -9.68212891 11.37841797 C-10.0882912 7.72295732 -9.89647144 5.78924115 -8.18212891 2.50341797 C-5.32305134 0.07320203 -3.68890787 -0.10151418 0 0 Z " fill="#91DB59" transform="translate(37.68212890625,108.62158203125)"/>
<path d="M0 0 C1.14275391 0.04640625 1.14275391 0.04640625 2.30859375 0.09375 C3.45521484 0.10921875 3.45521484 0.10921875 4.625 0.125 C7.22801864 0.70025274 8.12565126 1.50539859 9.74609375 3.59375 C10.78557125 6.7121825 10.86104213 8.86850586 10.84375 12.13671875 C10.84052734 13.20986328 10.83730469 14.28300781 10.83398438 15.38867188 C10.82560547 16.50822266 10.81722656 17.62777344 10.80859375 18.78125 C10.80408203 19.91240234 10.79957031 21.04355469 10.79492188 22.20898438 C10.78312886 25.00392876 10.76519332 27.79884599 10.74609375 30.59375 C5.13609375 30.59375 -0.47390625 30.59375 -6.25390625 30.59375 C-6.36185871 26.53053919 -6.44121175 22.47019721 -6.50390625 18.40625 C-6.53742188 17.25576172 -6.5709375 16.10527344 -6.60546875 14.91992188 C-6.61835938 13.80810547 -6.63125 12.69628906 -6.64453125 11.55078125 C-6.66547852 10.52960205 -6.68642578 9.50842285 -6.70800781 8.45629883 C-6.05515201 4.34085028 -4.17826085 1.1006857 0 0 Z " fill="#91DC59" transform="translate(265.25390625,-0.59375)"/>
<path d="M0 0 C3.29382721 1.47355428 3.85648123 2.63742626 5.1875 6 C5.93344759 14.66026963 -4.08203028 23.77905117 -9.27734375 29.98046875 C-9.84582031 30.64691406 -10.41429688 31.31335938 -11 32 C-11.74636719 31.24332031 -12.49273437 30.48664063 -13.26171875 29.70703125 C-15.39198392 27.60107724 -17.525522 25.61573636 -19.8125 23.6875 C-20.71935547 22.91986328 -20.71935547 22.91986328 -21.64453125 22.13671875 C-22.09183594 21.76160156 -22.53914063 21.38648437 -23 21 C-20.88446611 16.50636154 -17.97855668 12.76400504 -15 8.8125 C-14.4534375 8.07580078 -13.906875 7.33910156 -13.34375 6.58007812 C-12.8178125 5.87947266 -12.291875 5.17886719 -11.75 4.45703125 C-11.03070313 3.4976062 -11.03070313 3.4976062 -10.296875 2.51879883 C-7.43421017 -0.8337309 -4.14869401 -0.28611683 0 0 Z " fill="#90DB59" transform="translate(129,91)"/>
<path d="M0 0 C3.0929069 0.04434275 3.99505235 0.17926701 6.625 2 C8.41599814 4.65067724 9.11116259 6.10632862 9.1875 9.3125 C7.02988895 14.56647218 3.79178727 18.38144634 0.0625 22.5625 C-1.02516315 23.79535472 -2.11118184 25.02966278 -3.1953125 26.265625 C-3.67371582 26.80348633 -4.15211914 27.34134766 -4.64501953 27.89550781 C-5.91263312 29.32643308 -5.91263312 29.32643308 -6.8125 31.3125 C-7.4725 31.3125 -8.1325 31.3125 -8.8125 31.3125 C-10.47791663 29.43114124 -11.99380392 27.56455353 -13.5 25.5625 C-13.92861328 25.02367188 -14.35722656 24.48484375 -14.79882812 23.9296875 C-17.87431119 19.86866317 -17.87431119 19.86866317 -17.59301758 17.33764648 C-16.72669163 15.08985989 -15.71181196 13.70129992 -14.125 11.89453125 C-13.59132813 11.28029297 -13.05765625 10.66605469 -12.5078125 10.03320312 C-11.66863281 9.08864258 -11.66863281 9.08864258 -10.8125 8.125 C-9.97332031 7.16303711 -9.97332031 7.16303711 -9.1171875 6.18164062 C-3.99892341 0.32778061 -3.99892341 0.32778061 0 0 Z " fill="#91DC59" transform="translate(338.8125,33.6875)"/>
<path d="M0 0 C5.61 0 11.22 0 17 0 C17.10802731 3.72994296 17.18733597 7.45675221 17.25 11.1875 C17.30027344 12.77014648 17.30027344 12.77014648 17.3515625 14.38476562 C17.45056991 22.23110292 17.45056991 22.23110292 15.13671875 26.1796875 C12.62376881 28.32051871 11.29620553 28.91960474 8 29 C4.93323806 28.26981859 3.43646442 27.50104865 1.36328125 25.12109375 C-0.71157786 20.37091487 -0.31523152 15.80658646 -0.1875 10.6875 C-0.17396484 9.66076172 -0.16042969 8.63402344 -0.14648438 7.57617188 C-0.11124321 5.05055511 -0.05743947 2.52520944 0 0 Z " fill="#91DC59" transform="translate(383,244)"/>
<path d="M0 0 C3.15618831 2.46843782 3.90455075 3.41669903 4.5625 7.4375 C3.82641451 12.09937476 2.76606899 13.16153421 -1 16 C-4.72994442 17.0255598 -8.469979 17.426527 -12.3125 17.8125 C-13.33923828 17.93302734 -14.36597656 18.05355469 -15.42382812 18.17773438 C-17.94704832 18.47113207 -20.47330821 18.73817768 -23 19 C-23 13.39 -23 7.78 -23 2 C-7.36562627 -1.2914471 -7.36562627 -1.2914471 0 0 Z " fill="#90DB59" transform="translate(364,118)"/>
<path d="M0 0 C1.54010742 0.03383789 1.54010742 0.03383789 3.11132812 0.06835938 C5.63734666 0.12710399 8.16261224 0.21677974 10.6875 0.3125 C10.6875 5.5925 10.6875 10.8725 10.6875 16.3125 C6.93630325 16.44732736 3.18993703 16.54654403 -0.5625 16.625 C-1.62597656 16.66689453 -2.68945312 16.70878906 -3.78515625 16.75195312 C-11.66052964 16.87577975 -11.66052964 16.87577975 -15.01171875 13.98046875 C-16.61800262 10.68589852 -16.99075771 8.92987448 -16.3125 5.3125 C-11.96989895 -1.0250994 -6.99039869 -0.29070756 0 0 Z " fill="#90DB59" transform="translate(185.3125,155.6875)"/>
<path d="M0 0 C3.58305992 -0.11627503 7.16563417 -0.1872736 10.75 -0.25 C11.76578125 -0.28351563 12.7815625 -0.31703125 13.828125 -0.3515625 C21.31883812 -0.45012451 21.31883812 -0.45012451 24.671875 1.765625 C26.05209796 4.08764716 26.5418435 5.32201632 26.5 8 C26.5103125 8.66 26.520625 9.32 26.53125 10 C25.75627748 12.91754359 24.31030844 14.09675988 22 16 C19.43457031 16.45410156 19.43457031 16.45410156 16.578125 16.390625 C15.04091797 16.37128906 15.04091797 16.37128906 13.47265625 16.3515625 C11.87744141 16.30128906 11.87744141 16.30128906 10.25 16.25 C9.17105469 16.23195313 8.09210938 16.21390625 6.98046875 16.1953125 C4.31941212 16.14821415 1.66015746 16.082456 -1 16 C-1.02725341 14.2709226 -1.04650987 12.54171824 -1.0625 10.8125 C-1.07410156 9.84957031 -1.08570313 8.88664062 -1.09765625 7.89453125 C-1.00486622 5.14423487 -0.62111685 2.67520409 0 0 Z " fill="#90DB59" transform="translate(333,277)"/>
<path d="M0 0 C1.94140625 0.33984375 1.94140625 0.33984375 4.44140625 1.83984375 C6.52257232 5.30845387 6.62365428 8.43977639 5.94140625 12.33984375 C4.54547209 15.1569398 2.71199686 17.44392715 0.69140625 19.83984375 C0.20027344 20.47148438 -0.29085938 21.103125 -0.796875 21.75390625 C-2.26171875 23.55859375 -2.26171875 23.55859375 -5.05859375 26.33984375 C-9.62289287 26.33984375 -10.03167476 25.88048774 -13.18359375 22.90234375 C-15.90289835 20.30744776 -15.90289835 20.30744776 -19.05859375 18.33984375 C-17.67321789 14.33445654 -15.8044268 11.48281361 -13.12109375 8.21484375 C-12.43144531 7.36664063 -11.74179687 6.5184375 -11.03125 5.64453125 C-10.05478516 4.50371094 -10.05478516 4.50371094 -9.05859375 3.33984375 C-8.31222656 2.46005859 -8.31222656 2.46005859 -7.55078125 1.5625 C-5.25447449 -0.31902884 -2.86128502 -0.13173504 0 0 Z " fill="#91DC59" transform="translate(461.05859375,50.66015625)"/>
<path d="M0 0 C0.75410156 0.00322266 1.50820312 0.00644531 2.28515625 0.00976562 C3.06246094 0.01814453 3.83976563 0.02652344 4.640625 0.03515625 C5.43339844 0.03966797 6.22617188 0.04417969 7.04296875 0.04882812 C8.99222008 0.0605706 10.94143238 0.07850479 12.890625 0.09765625 C13.50376261 4.07818453 14.02956983 7.94259957 14.015625 11.97265625 C14.01949219 13.11347656 14.01949219 13.11347656 14.0234375 14.27734375 C13.890625 16.09765625 13.890625 16.09765625 12.890625 17.09765625 C9.81695822 17.40358821 6.7276458 17.37605808 3.640625 17.41015625 C2.78082031 17.43916016 1.92101562 17.46816406 1.03515625 17.49804688 C-3.18175194 17.54028093 -5.4908431 17.47621995 -9.16015625 15.23046875 C-11.44528666 12.73010561 -12.02704593 11.47314815 -12.109375 8.09765625 C-11.1732125 5.00111874 -10.40514178 3.39342303 -8.109375 1.09765625 C-5.3660948 0.18884609 -2.87677895 -0.02179378 0 0 Z " fill="#90DB58" transform="translate(191.109375,308.90234375)"/>
<path d="M0 0 C2.41211992 1.43531103 4.32037648 2.7308604 6.4375 4.5 C6.97826172 4.92925781 7.51902344 5.35851562 8.07617188 5.80078125 C9.39622913 6.85215429 10.69989563 7.92405156 12 9 C11.46027438 12.27770873 10.77259599 14.75371739 9 17.5625 C7.44160643 20.24098894 6.47799966 22.01250213 6 25 C2.96525604 24.41346668 1.14318075 23.57172786 -1.19921875 21.56640625 C-1.76833984 21.08236328 -2.33746094 20.59832031 -2.92382812 20.09960938 C-3.50583984 19.59236328 -4.08785156 19.08511719 -4.6875 18.5625 C-5.28111328 18.05912109 -5.87472656 17.55574219 -6.48632812 17.03710938 C-11.8038029 12.47147824 -11.8038029 12.47147824 -12.375 8.1875 C-12 5 -12 5 -9.9375 2.125 C-6.20940608 -0.57191901 -4.53381103 -0.50481509 0 0 Z " fill="#90DC59" transform="translate(390,65)"/>
<path d="M0 0 C2.89740622 -0.13539281 5.78845621 -0.23426829 8.6875 -0.3125 C9.50412109 -0.35439453 10.32074219 -0.39628906 11.16210938 -0.43945312 C15.5707075 -0.528696 17.41612373 -0.44015288 21.046875 2.296875 C23 5 23 5 23.5625 8.5625 C22.91913721 12.49416151 22.15551602 13.65590239 19 16 C15.23508833 17.25497056 11.72793525 17.10661648 7.8125 17.0625 C5.234375 17.041875 2.65625 17.02125 0 17 C0 11.39 0 5.78 0 0 Z " fill="#91DC5A" transform="translate(122,164)"/>
<path d="M0 0 C1.18239258 0.02707031 1.18239258 0.02707031 2.38867188 0.0546875 C4.32214261 0.10155952 6.25498285 0.1732959 8.1875 0.25 C8.1875 5.53 8.1875 10.81 8.1875 16.25 C5.26984109 16.35806144 2.35618875 16.43732877 -0.5625 16.5 C-1.3875 16.53351563 -2.2125 16.56703125 -3.0625 16.6015625 C-9.16440878 16.69998038 -9.16440878 16.69998038 -12.35546875 14.484375 C-13.87033645 12.1613071 -14.38035892 10.99376666 -14.375 8.25 C-14.39691406 7.59 -14.41882813 6.93 -14.44140625 6.25 C-12.29166905 -0.58643134 -5.91136039 -0.25766198 0 0 Z " fill="#91DB59" transform="translate(45.8125,205.75)"/>
</svg>
