<?xml version="1.0" standalone="no"?>
<!DOCTYPE svg PUBLIC "-//W3C//DTD SVG 20010904//EN"
 "http://www.w3.org/TR/2001/REC-SVG-20010904/DTD/svg10.dtd">
<svg version="1.0" xmlns="http://www.w3.org/2000/svg"
 width="512.000000pt" height="512.000000pt" viewBox="0 0 512.000000 512.000000"
 preserveAspectRatio="xMidYMid meet">

<g transform="translate(0.000000,512.000000) scale(0.100000,-0.100000)"
fill="#000000" stroke="none">
<path d="M2280 5074 c-106 -39 -187 -123 -220 -232 -19 -60 -20 -93 -20 -506
l0 -443 -252 -118 c-361 -168 -467 -224 -603 -313 -386 -252 -701 -604 -904
-1010 -72 -143 -81 -166 -182 -447 -88 -244 -104 -316 -96 -416 22 -259 221
-466 479 -499 124 -15 192 1 526 127 9 4 12 -13 12 -64 0 -115 43 -251 116
-364 16 -25 15 -29 -155 -351 -94 -179 -171 -332 -171 -340 0 -29 40 -68 70
-68 61 0 45 -23 250 365 72 138 134 252 136 255 3 2 17 -4 32 -14 49 -32 146
-75 199 -88 l52 -14 -110 -206 c-60 -114 -109 -216 -109 -226 0 -35 38 -72 73
-72 18 0 39 4 47 10 8 5 71 116 140 247 l126 238 230 6 c387 11 631 67 927
215 137 69 213 118 406 262 406 302 711 582 874 799 218 293 368 653 439 1057
19 110 22 174 28 706 6 520 9 591 24 640 38 118 74 168 251 350 94 96 183 190
198 208 53 66 29 109 -80 141 -221 65 -490 69 -726 10 -117 -29 -178 -56 -765
-330 -334 -156 -546 -261 -561 -277 -43 -47 -12 -121 50 -122 15 0 281 119
592 265 574 269 651 301 792 330 96 20 297 31 343 18 l34 -8 -175 -181 c-186
-193 -226 -250 -268 -379 -22 -68 -23 -83 -29 -655 -7 -616 -10 -658 -60 -868
-100 -420 -307 -801 -604 -1110 -104 -108 -187 -177 -503 -420 -319 -246 -394
-297 -549 -374 -162 -79 -280 -104 -564 -119 -325 -17 -495 1 -611 62 -160 86
-261 299 -229 487 l12 73 126 130 127 130 244 -56 c265 -61 286 -62 310 -9 36
80 6 101 -211 149 -98 22 -178 42 -178 45 0 11 185 128 273 173 49 25 127 59
173 76 l85 31 388 0 c422 0 491 6 646 57 93 30 150 58 335 161 185 103 200
115 200 158 0 41 -37 84 -72 84 -13 0 -104 -46 -203 -101 -278 -156 -411 -199
-616 -199 -54 0 -99 1 -99 3 1 1 11 32 23 68 22 66 24 67 335 371 328 320 380
378 436 493 36 74 316 928 316 964 0 32 -44 71 -78 71 -59 0 -64 -11 -215
-480 -79 -245 -158 -475 -177 -510 -28 -55 -77 -108 -314 -343 l-281 -277 -5
1152 c-4 795 -9 1162 -16 1183 -37 101 -101 178 -186 221 -68 35 -206 44 -278
18z m208 -153 c43 -22 73 -53 96 -98 13 -27 16 -71 16 -278 l0 -245 -76 0
c-71 0 -77 -2 -106 -30 -24 -25 -29 -36 -23 -58 13 -53 31 -62 122 -62 l83 0
0 -195 0 -195 -76 0 c-70 0 -78 -2 -105 -29 -35 -36 -37 -61 -5 -98 22 -25 31
-28 105 -31 l81 -4 0 -188 0 -188 -81 -4 c-74 -3 -83 -6 -105 -31 -32 -37 -30
-62 5 -98 27 -27 35 -29 105 -29 l76 0 0 -189 0 -188 -81 -5 c-88 -5 -112 -19
-124 -70 -6 -22 -1 -33 23 -58 29 -28 35 -30 106 -30 l76 0 0 -131 c0 -149
-12 -184 -77 -229 -34 -23 -46 -25 -185 -28 l-148 -4 0 331 0 331 73 0 c82 0
118 14 131 51 24 70 -25 109 -139 109 l-65 0 0 189 0 189 86 3 c76 4 88 7 105
28 24 30 24 72 0 102 -17 21 -29 24 -105 28 l-86 3 0 189 0 189 64 0 c107 0
146 23 146 88 0 49 -30 67 -126 71 l-84 3 0 194 0 194 85 0 c99 0 125 15 125
74 0 56 -35 76 -132 76 l-80 0 3 113 c4 106 6 117 34 162 54 88 173 122 263
76z m-448 -2004 l0 -802 -62 -24 c-100 -38 -270 -127 -374 -197 -53 -35 -98
-64 -101 -64 -3 0 -3 152 -1 338 4 301 7 345 26 413 42 154 108 269 231 401
81 86 94 119 62 159 -24 31 -59 40 -94 25 -39 -17 -188 -188 -240 -275 -53
-89 -88 -177 -119 -295 -19 -74 -21 -116 -25 -492 l-5 -411 -88 -88 -88 -88
-11 39 c-5 21 -50 200 -99 397 -54 213 -97 366 -107 377 -39 43 -118 26 -132
-28 -4 -19 26 -158 104 -469 l110 -441 -151 -58 c-204 -78 -259 -94 -320 -94
-223 0 -398 172 -398 391 0 83 4 95 117 409 150 417 334 711 622 990 180 176
333 291 528 396 89 48 593 291 608 293 4 1 7 -360 7 -802z"/>
<path d="M2810 1640 c-216 -46 -434 -80 -506 -80 -61 0 -91 -20 -100 -66 -5
-24 0 -37 19 -60 25 -28 27 -29 119 -28 101 2 175 13 491 76 121 24 217 48
228 57 31 26 35 73 7 104 -12 14 -34 28 -48 31 -14 2 -108 -13 -210 -34z"/>
</g>
</svg>
