<?xml version="1.0" encoding="UTF-8"?>
<svg version="1.1" xmlns="http://www.w3.org/2000/svg" width="512" height="512">
<path d="M0 0 C0.65974823 0.00021149 1.31949646 0.00042297 1.99923706 0.00064087 C12.70047727 0.03481875 22.24489982 0.97218182 32.375 4.375 C33.49003906 4.725625 34.60507813 5.07625 35.75390625 5.4375 C49.06734835 10.05154492 60.98803648 17.9470601 71.375 27.375 C71.89835938 27.84921387 72.42171875 28.32342773 72.9609375 28.81201172 C81.31456759 36.48176188 87.83655888 44.4831508 93.375 54.375 C94.00019531 55.48488281 94.62539062 56.59476563 95.26953125 57.73828125 C100.12955442 66.91832502 103.31164522 76.47800765 106.375 86.375 C106.87386719 85.65957031 107.37273437 84.94414063 107.88671875 84.20703125 C123.92683013 61.94669715 144.02277547 47.60570541 171.12109375 41.78515625 C199.91887465 38.15518387 228.23654687 46.56853318 251.5 63.6875 C253.4732638 65.23110152 255.43123572 66.79441273 257.375 68.375 C257.90867187 68.8071582 258.44234375 69.23931641 258.9921875 69.68457031 C286.64898482 92.19629442 309.32934919 122.21450253 314.375 158.375 C314.6527879 162.15134307 314.70965493 165.90189719 314.6875 169.6875 C314.68258545 170.69151855 314.6776709 171.69553711 314.67260742 172.72998047 C314.26344119 198.78652543 301.98188193 220.11455794 283.89038086 238.16894531 C273.3576386 248.375 273.3576386 248.375 268.375 248.375 C268.375 249.035 268.375 249.695 268.375 250.375 C269.37402344 250.48585937 270.37304688 250.59671875 271.40234375 250.7109375 C275.43668435 251.29233632 279.14548633 252.53592928 282.9375 254 C283.63004883 254.26578857 284.32259766 254.53157715 285.03613281 254.80541992 C313.71997611 266.05443515 336.09236035 286.95932248 348.51855469 315.25146484 C357.59873076 337.76553882 358.8940145 365.21729342 351.375 388.375 C351.13362305 389.13780273 350.89224609 389.90060547 350.64355469 390.68652344 C335.44174293 437.66872656 297.81402986 476.74209038 254.57421875 499.40234375 C236.95096705 508.24691026 218.43164113 512.77618732 198.75 512.75 C198.09025177 512.74978851 197.43050354 512.74957703 196.75076294 512.74935913 C186.04952273 512.71518125 176.50510018 511.77781818 166.375 508.375 C165.25996094 508.024375 164.14492188 507.67375 162.99609375 507.3125 C149.68265165 502.69845508 137.76196352 494.8029399 127.375 485.375 C126.85164063 484.90078613 126.32828125 484.42657227 125.7890625 483.93798828 C117.43543241 476.26823812 110.91344112 468.2668492 105.375 458.375 C104.43720703 456.71017578 104.43720703 456.71017578 103.48046875 455.01171875 C98.62044558 445.83167498 95.43835478 436.27199235 92.375 426.375 C91.87613281 427.09042969 91.37726563 427.80585938 90.86328125 428.54296875 C75.67737237 449.61784768 55.45687714 465.81672129 29.3828125 470.6796875 C1.22385529 475.08551074 -26.39264639 467.01366216 -49.77734375 451.25 C-52.79327014 449.03065863 -55.71982099 446.73736925 -58.625 444.375 C-59.15867187 443.9428418 -59.69234375 443.51068359 -60.2421875 443.06542969 C-87.89898482 420.55370558 -110.57934919 390.53549747 -115.625 354.375 C-115.9027879 350.59865693 -115.95965493 346.84810281 -115.9375 343.0625 C-115.93012817 341.55647217 -115.93012817 341.55647217 -115.92260742 340.02001953 C-115.51344119 313.96347457 -103.23188193 292.63544206 -85.14038086 274.58105469 C-74.6076386 264.375 -74.6076386 264.375 -69.625 264.375 C-69.625 263.715 -69.625 263.055 -69.625 262.375 C-70.62789063 262.2615625 -71.63078125 262.148125 -72.6640625 262.03125 C-76.61929234 261.45969647 -80.27370417 260.29458607 -84 258.875 C-84.68336426 258.61509277 -85.36672852 258.35518555 -86.07080078 258.08740234 C-98.23701697 253.30001425 -109.98540551 247.30850954 -119.625 238.375 C-120.12451172 237.91641602 -120.62402344 237.45783203 -121.13867188 236.98535156 C-139.94735956 219.54272103 -155.3239004 195.52559981 -156.80200195 169.22558594 C-157.35336736 138.93783186 -157.35336736 138.93783186 -152.625 124.375 C-152.38362305 123.61219727 -152.14224609 122.84939453 -151.89355469 122.06347656 C-137.01077004 76.06724779 -100.04257885 36.3757439 -57.51171875 14.19140625 C-39.22535584 5.01833814 -20.48738881 -0.0272594 0 0 Z " fill="#FE94B8" transform="translate(156.625,-0.375)"/>
<path d="M0 0 C4.18201742 3.48501451 8.12351254 7.1800211 12 11 C12.65742188 11.64453125 13.31484375 12.2890625 13.9921875 12.953125 C26.5146769 26.22580962 33.41799735 44.63202806 38 62 C38.43699219 60.67548828 38.43699219 60.67548828 38.8828125 59.32421875 C46.09660355 38.20459777 58.44774895 21.28882453 78.50390625 10.69140625 C85.95432621 7.0869014 93.66916498 4.33830802 102 4 C103.68416016 3.92265625 103.68416016 3.92265625 105.40234375 3.84375 C128.04020256 3.29216765 147.56478102 12.73962895 163.8984375 27.984375 C164.59195312 28.64953125 165.28546875 29.3146875 166 30 C166.845625 30.804375 167.69125 31.60875 168.5625 32.4375 C169.7690625 33.7059375 169.7690625 33.7059375 171 35 C171.98033203 35.98806641 171.98033203 35.98806641 172.98046875 36.99609375 C188.70637642 53.47987648 196.65417172 73.77940238 196.25 96.58984375 C194.7997927 116.37157776 183.85595289 133.4575346 169.3203125 146.3828125 C159.94682613 153.87652111 149.36532662 158.35816933 138 162 C138.6077124 162.1952124 139.2154248 162.3904248 139.84155273 162.59155273 C157.34355627 168.27718994 174.2333929 174.36220561 188 187 C188.75410156 187.67417969 189.50820313 188.34835937 190.28515625 189.04296875 C203.17418432 201.18032109 212.72224431 217.58856177 216 235 C216.226875 236.134375 216.45375 237.26875 216.6875 238.4375 C218.72859325 261.70596303 212.30843802 283.16802396 197.875 301.4375 C196.59173745 302.96543129 195.30078239 304.48695605 194 306 C193.48695313 306.63421875 192.97390625 307.2684375 192.4453125 307.921875 C178.92342119 324.44050979 156.72473838 337.8891063 135.5 340.75 C134.00163004 340.85877459 132.50111661 340.94005524 131 341 C130.04996094 341.0515625 129.09992188 341.103125 128.12109375 341.15625 C104.29594989 341.85784933 84.47083526 332.37725987 67.265625 316.2265625 C66.51796875 315.49179687 65.7703125 314.75703125 65 314 C64.31421875 313.32710938 63.6284375 312.65421875 62.921875 311.9609375 C52.31160201 300.80761905 46.48827384 287.41663669 41.67626953 273.01904297 C41.0785906 271.23463691 40.44615793 269.46195334 39.80859375 267.69140625 C39 265 39 265 39 261 C38.34 261 37.68 261 37 261 C36.8453125 262.49466797 36.8453125 262.49466797 36.6875 264.01953125 C36.08786462 268.1638862 34.6869455 271.87270279 33 275.6875 C32.54077148 276.72861938 32.54077148 276.72861938 32.07226562 277.79077148 C28.93050032 284.60812001 24.88749861 290.28619766 20 296 C19.44828125 296.65226562 18.8965625 297.30453125 18.328125 297.9765625 C6.76660996 310.51107633 -10.38092681 318.82483175 -27.3046875 320.28515625 C-51.16133884 320.90726847 -71.45482737 311.52487774 -88.59765625 295.359375 C-91.08045185 292.92098713 -93.54918747 290.47054532 -96 288 C-96.63421875 287.36320312 -97.2684375 286.72640625 -97.921875 286.0703125 C-107.31729336 276.07262374 -113.82799296 264.02437491 -118 251 C-118.36738281 249.88818359 -118.36738281 249.88818359 -118.7421875 248.75390625 C-123.33046644 232.12925173 -119.32758374 213.49775825 -111.234375 198.73046875 C-100.0889946 179.53835794 -82.60832292 168.51448506 -62 162 C-63.61841797 161.50693359 -63.61841797 161.50693359 -65.26953125 161.00390625 C-82.459542 155.61567422 -98.36956576 149.0077635 -112 137 C-112.81726563 136.28199219 -113.63453125 135.56398437 -114.4765625 134.82421875 C-130.20039535 120.04597722 -140.68653488 99.19044307 -141.47094727 77.56396484 C-141.7563416 52.37731558 -130.37027374 30.5139455 -113.36328125 12.33203125 C-82.22407348 -18.39541841 -36.29287272 -28.51582857 0 0 Z " fill="#FEB8C6" transform="translate(218,94)"/>
<path d="M0 0 C1.72938885 1.34842203 3.43988544 2.72164093 5.125 4.125 C5.78242188 4.66898438 6.43984375 5.21296875 7.1171875 5.7734375 C16.89902729 14.68578042 20.66893372 26.80026776 24.125 39.125 C24.455 40.115 24.785 41.105 25.125 42.125 C25.45371094 41.43535156 25.78242188 40.74570313 26.12109375 40.03515625 C32.355983 27.71744822 40.83471831 19.57814329 54.125 15.125 C66.62228087 13.27261116 77.0477758 16.408525 87.203125 23.62890625 C89.7587676 25.61835974 91.95100443 27.72216279 94.125 30.125 C94.67929687 30.68703125 95.23359375 31.2490625 95.8046875 31.828125 C104.2369445 40.73085127 107.74478018 51.00253207 107.45703125 63.1328125 C106.82771744 73.97358449 100.77721733 81.89208225 93.125 89.125 C89.99450586 91.82659179 87.1255876 93.78147085 83.3125 95.375 C82.12720703 95.87773437 82.12720703 95.87773437 80.91796875 96.390625 C80.32628906 96.63296875 79.73460937 96.8753125 79.125 97.125 C80.33750032 98.52149599 80.33750032 98.52149599 83.8125 98.875 C100.61395633 102.54028585 114.15382236 109.96883674 123.8125 124.375 C130.57384759 135.61345613 133.59721533 147.27757447 130.63134766 160.29101562 C125.90123848 176.76523466 114.75619904 191.16986245 100.125 200.125 C87.72004461 206.68855337 75.36811249 209.54366748 61.53515625 206.27734375 C46.84258081 201.12358661 35.22493186 190.85015897 28.125 177.125 C24.77637432 170.05442212 22.85105266 162.73532311 21.125 155.125 C20.79628906 155.88683594 20.46757812 156.64867187 20.12890625 157.43359375 C14.32003274 170.04309965 6.88834555 176.7590289 -5.875 182.125 C-14.93300015 185.14433338 -24.80850686 183.63426409 -33.234375 179.6015625 C-37.13002958 177.4232231 -40.52941336 175.07778497 -43.875 172.125 C-44.98488281 171.18914062 -44.98488281 171.18914062 -46.1171875 170.234375 C-54.15329485 162.92882287 -60.03868255 152.86093638 -61.21875 141.9453125 C-61.6952436 130.67623882 -58.87572368 122.52367457 -51.79296875 113.4609375 C-46.62375238 107.89122328 -40.69513328 104.37571773 -33.875 101.125 C-35.05835938 100.74988281 -36.24171875 100.37476563 -37.4609375 99.98828125 C-55.1374332 94.30882281 -69.80506981 87.57473263 -79.47265625 70.86328125 C-85.85248729 58.40572816 -86.46415427 46.79149593 -82.90625 33.21875 C-79.65366673 23.46100018 -73.94987807 16.42567205 -66.875 9.125 C-66.33359375 8.49851563 -65.7921875 7.87203125 -65.234375 7.2265625 C-48.48493939 -11.46851462 -20.20122598 -14.16566187 0 0 Z " fill="#FEE752" transform="translate(232.875,156.875)"/>
<path d="M0 0 C27.66534996 11.29277703 49.20818571 32.18370201 61.23730469 59.57177734 C70.31748076 82.08585132 71.6127645 109.53760592 64.09375 132.6953125 C63.85237305 133.45811523 63.61099609 134.22091797 63.36230469 135.00683594 C48.16049293 181.98903906 10.53277986 221.06240288 -32.70703125 243.72265625 C-50.33028295 252.56722276 -68.84960887 257.09649982 -88.53125 257.0703125 C-89.19099823 257.07010101 -89.85074646 257.06988953 -90.53048706 257.06967163 C-101.23172727 257.03549375 -110.77614982 256.09813068 -120.90625 252.6953125 C-122.02128906 252.3446875 -123.13632812 251.9940625 -124.28515625 251.6328125 C-137.59859835 247.01876758 -149.51928648 239.1232524 -159.90625 229.6953125 C-160.69128906 228.9839917 -160.69128906 228.9839917 -161.4921875 228.25830078 C-169.84581759 220.58855062 -176.36780888 212.5871617 -181.90625 202.6953125 C-182.53144531 201.58542969 -183.15664063 200.47554687 -183.80078125 199.33203125 C-187.25695818 192.80369705 -189.98887656 186.16607919 -192.40625 179.1953125 C-192.67397217 178.4415332 -192.94169434 177.68775391 -193.2175293 176.91113281 C-195.46334057 170.09678244 -194.47803887 165.553273 -191.59375 159.0078125 C-191.14515625 157.95207031 -190.6965625 156.89632812 -190.234375 155.80859375 C-189.4332204 153.93059311 -188.63135512 152.05289511 -187.828125 150.17578125 C-184.19912484 141.03127687 -182.66856851 131.33564809 -180.90625 121.6953125 C-178.48659374 124.69512026 -176.88799561 127.69993608 -175.28125 131.1953125 C-165.21150867 151.60829431 -147.64815874 166.0016651 -126.90625 174.6953125 C-122.94138632 175.97006773 -118.99689417 176.92523641 -114.90625 177.6953125 C-113.2046875 178.035625 -113.2046875 178.035625 -111.46875 178.3828125 C-88.16485174 180.4270141 -66.68296803 173.98712573 -48.40625 159.5078125 C-46.90099799 158.24320436 -45.40029049 156.97314676 -43.90625 155.6953125 C-43.34550781 155.25574219 -42.78476562 154.81617188 -42.20703125 154.36328125 C-25.91597098 141.57843343 -12.90492103 118.58748001 -10.15625 98.1953125 C-10.04747541 96.69694254 -9.96619476 95.19642911 -9.90625 93.6953125 C-9.8546875 92.74527344 -9.803125 91.79523438 -9.75 90.81640625 C-9.04705982 66.94572938 -18.56522412 47.13162873 -34.7421875 29.8984375 C-35.45632813 29.17140625 -36.17046875 28.444375 -36.90625 27.6953125 C-37.82277344 26.75945312 -37.82277344 26.75945312 -38.7578125 25.8046875 C-46.92024691 18.09379202 -57.61969502 12.95181801 -67.90625 8.6953125 C-67.90625 8.3653125 -67.90625 8.0353125 -67.90625 7.6953125 C-66.83890625 7.55996094 -65.7715625 7.42460937 -64.671875 7.28515625 C-55.89595076 6.05891757 -47.64563011 4.21554413 -39.28125 1.2578125 C-38.4655957 0.96962646 -37.64994141 0.68144043 -36.80957031 0.38452148 C-32.92263106 -1.04098198 -29.25666652 -2.60343155 -25.6015625 -4.55078125 C-17.54824232 -8.67543307 -7.85532183 -3.11024298 0 0 Z " fill="#FE95B9" transform="translate(443.90625,255.3046875)"/>
<path d="M0 0 C8.75862674 -0.62444243 19.37122394 3.11589344 26.95703125 7.2890625 C25.92964844 7.65257812 24.90226562 8.01609375 23.84375 8.390625 C1.08776134 16.58189954 -16.35804835 29.00060863 -27.04296875 51.2890625 C-32.77076781 66.28728778 -34.62282442 83.00236357 -29.04296875 98.2890625 C-28.62917969 99.47242188 -28.21539062 100.65578125 -27.7890625 101.875 C-23.33425812 114.09407058 -16.74807905 123.914471 -7.73046875 133.328125 C-6.04296875 135.2890625 -6.04296875 135.2890625 -6.04296875 137.2890625 C-5.18638672 137.65837891 -5.18638672 137.65837891 -4.3125 138.03515625 C-1.67304738 139.49344246 0.11526438 141.24194365 2.26953125 143.3515625 C18.24156612 157.93778846 37.97996202 164.92120049 59.546875 164.5390625 C73.33952561 163.52791744 86.20754538 157.81273187 96.95703125 149.2890625 C97.79105469 148.63164062 98.62507812 147.97421875 99.484375 147.296875 C112.36496313 136.46050964 119.60298948 122.28763458 123.95703125 106.2890625 C124.61703125 106.2890625 125.27703125 106.2890625 125.95703125 106.2890625 C126.9792618 109.26105282 127.9705069 112.24254853 128.95703125 115.2265625 C129.24320313 116.05736328 129.529375 116.88816406 129.82421875 117.74414062 C132.91498749 127.20042119 132.20446874 134.86311694 129.83203125 144.4140625 C129.60684814 145.33131104 129.38166504 146.24855957 129.1496582 147.19360352 C124.58205798 165.11795038 117.00698662 181.05334264 103.95703125 194.2890625 C103.35632813 194.96195313 102.755625 195.63484375 102.13671875 196.328125 C87.43627088 212.30133892 65.78329906 221.51093802 44.32421875 222.671875 C15.56397918 223.55724962 -10.81995003 213.35988561 -33.04296875 195.2890625 C-33.57664063 194.8569043 -34.1103125 194.42474609 -34.66015625 193.97949219 C-62.31695357 171.46776808 -84.99731794 141.44955997 -90.04296875 105.2890625 C-90.32075665 101.51271943 -90.37762368 97.76216531 -90.35546875 93.9765625 C-90.3505542 92.97254395 -90.34563965 91.96852539 -90.34057617 90.93408203 C-89.93354055 65.01321854 -77.74128418 43.49884834 -59.66821289 25.55004883 C-44.31260014 10.81660521 -20.7647097 2.93802776 0 0 Z " fill="#FE73A9" transform="translate(131.04296875,248.7109375)"/>
<path d="M0 0 C1.9732638 1.54360152 3.93123572 3.10691273 5.875 4.6875 C6.40867187 5.1196582 6.94234375 5.55181641 7.4921875 5.99707031 C35.14898482 28.50879442 57.82934919 58.52700253 62.875 94.6875 C63.1527879 98.46384307 63.20965493 102.21439719 63.1875 106 C63.18012817 107.50602783 63.18012817 107.50602783 63.17260742 109.04248047 C62.7655718 134.96334396 50.57331543 156.47771416 32.50024414 174.42651367 C17.06420678 189.23712331 -9.99213062 200.05154774 -31.39428711 199.89916992 C-36.05696094 199.53774496 -40.3270253 198.14216723 -44.75 196.6875 C-45.65878906 196.40132812 -46.56757813 196.11515625 -47.50390625 195.8203125 C-49.71531291 195.12197355 -51.92173065 194.41101902 -54.125 193.6875 C-51.42574732 190.98824732 -48.27974897 190.22468144 -44.75 189 C-25.52693575 181.98809703 -10.86637241 169.93742159 -1.56640625 151.6171875 C6.3215549 133.68787522 6.88939491 115.4963672 0.62109375 96.984375 C-4.42403365 84.50215245 -11.85387453 74.35314145 -21.125 64.6875 C-21.95 63.82125 -22.775 62.955 -23.625 62.0625 C-24.45 61.27875 -25.275 60.495 -26.125 59.6875 C-27.00285156 58.81738281 -27.00285156 58.81738281 -27.8984375 57.9296875 C-43.34836142 43.28384884 -63.12369869 35.14061847 -84.38671875 35.50390625 C-103.7880231 36.45673938 -120.30704139 45.23456224 -133.72460938 59.11914062 C-141.36604777 67.67712533 -146.00411871 78.1083195 -150.125 88.6875 C-150.79127986 90.35432134 -151.45779832 92.02104744 -152.125 93.6875 C-154.05879426 90.10004056 -155.42176536 86.34184147 -156.75 82.5 C-156.97945312 81.87802734 -157.20890625 81.25605469 -157.4453125 80.61523438 C-163.43526992 63.198007 -153.95089068 42.38271407 -146.65625 26.75 C-143.75455274 20.80801695 -140.57746779 15.59922583 -136.125 10.6875 C-135.67318359 10.18105957 -135.22136719 9.67461914 -134.75585938 9.15283203 C-98.6897222 -30.7538997 -41.99088303 -30.89999277 0 0 Z " fill="#FE73A9" transform="translate(408.125,63.3125)"/>
<path d="M0 0 C0.90919189 0.31138916 1.81838379 0.62277832 2.75512695 0.94360352 C15.71811132 5.55213634 27.80875014 11.7068963 38 21.0625 C38.75410156 21.73667969 39.50820313 22.41085937 40.28515625 23.10546875 C53.17418432 35.24282109 62.72224431 51.65106177 66 69.0625 C66.3403125 70.7640625 66.3403125 70.7640625 66.6875 72.5 C68.72859325 95.76846303 62.30843802 117.23052396 47.875 135.5 C46.59173745 137.02793129 45.30078239 138.54945605 44 140.0625 C43.48695313 140.69671875 42.97390625 141.3309375 42.4453125 141.984375 C28.92342119 158.50300979 6.72473838 171.9516063 -14.5 174.8125 C-15.99836996 174.92127459 -17.49888339 175.00255524 -19 175.0625 C-19.95003906 175.1140625 -20.90007812 175.165625 -21.87890625 175.21875 C-45.70405011 175.92034933 -65.52916474 166.43975987 -82.734375 150.2890625 C-83.85585938 149.18691406 -83.85585938 149.18691406 -85 148.0625 C-85.68578125 147.38960937 -86.3715625 146.71671875 -87.078125 146.0234375 C-97.68960362 134.86885171 -103.51153124 121.47706504 -108.32495117 107.07836914 C-108.91638867 105.3121849 -109.54142933 103.55732646 -110.171875 101.8046875 C-113.151644 91.93771658 -109.93744605 80.89965169 -108 71.0625 C-106.80384898 72.85672653 -105.63373772 74.66939369 -104.51953125 76.515625 C-96.99790092 88.8393946 -87.13539971 97.83196084 -73.12890625 102.39453125 C-58.95766019 105.41985344 -46.65674284 102.40962207 -34.1640625 95.4921875 C-20.63161823 86.65554408 -10.34066566 73.9250807 -5.6640625 58.390625 C-3.04360812 45.25752421 -4.80408868 33.63575367 -11.796875 22.09765625 C-18.48383864 12.34806327 -26.16853214 5.7659349 -37 1.0625 C-37 0.7325 -37 0.4025 -37 0.0625 C-34.18892806 -0.44694993 -31.37658411 -0.9452016 -28.5625 -1.4375 C-27.77939453 -1.58058594 -26.99628906 -1.72367187 -26.18945312 -1.87109375 C-16.64307561 -3.52108493 -9.18548091 -3.19670921 0 0 Z " fill="#FEB8C6" transform="translate(368,259.9375)"/>
<path d="M0 0 C0.81791016 0.23847656 1.63582031 0.47695312 2.47851562 0.72265625 C4.46801089 1.30438001 6.45324189 1.90065559 8.4375 2.5 C5.61947103 4.70259736 2.74223801 6.5023831 -0.375 8.25 C-9.8921127 13.99934081 -16.24927159 21.73200765 -19.5625 32.5 C-21.39216148 44.70186404 -18.44651983 55.38293771 -11.30078125 65.3125 C-3.67160902 74.91325606 4.78294258 80.61514753 16.4375 84.5 C27.76279523 85.48236762 36.73277984 84.33120261 46.19140625 77.515625 C53.48550573 71.38466806 58.04986831 64.34548275 61.4375 55.5 C61.7675 55.5 62.0975 55.5 62.4375 55.5 C62.71464844 56.62019531 62.99179688 57.74039063 63.27734375 58.89453125 C63.64316667 60.36720302 64.00905553 61.83985842 64.375 63.3125 C64.64860352 64.41948242 64.64860352 64.41948242 64.92773438 65.54882812 C65.6797615 68.57060984 66.45235573 71.54456718 67.4375 74.5 C68.04799871 83.35223124 66.10636092 91.84775083 64.4375 100.5 C63.7775 100.5 63.1175 100.5 62.4375 100.5 C62.2828125 101.99466797 62.2828125 101.99466797 62.125 103.51953125 C61.52536462 107.6638862 60.1244455 111.37270279 58.4375 115.1875 C58.13134766 115.88157959 57.82519531 116.57565918 57.50976562 117.29077148 C54.36800032 124.10812001 50.32499861 129.78619766 45.4375 135.5 C44.88578125 136.15226563 44.3340625 136.80453125 43.765625 137.4765625 C32.20410996 150.01107633 15.05657319 158.32483175 -1.8671875 159.78515625 C-25.72383884 160.40726847 -46.01732737 151.02487774 -63.16015625 134.859375 C-65.64295185 132.42098713 -68.11168747 129.97054532 -70.5625 127.5 C-71.19671875 126.86320313 -71.8309375 126.22640625 -72.484375 125.5703125 C-81.87979336 115.57262374 -88.39049296 103.52437491 -92.5625 90.5 C-92.80742188 89.75878906 -93.05234375 89.01757812 -93.3046875 88.25390625 C-97.89296644 71.62925173 -93.89008374 52.99775825 -85.796875 38.23046875 C-74.50527227 18.78656615 -55.75708862 6.68530835 -34.5625 0.5 C-22.51123107 -2.58701089 -11.96102946 -3.64245341 0 0 Z " fill="#FE95B8" transform="translate(192.5625,254.5)"/>
<path d="M0 0 C22.63785881 -0.55158235 42.16243727 8.89587895 58.49609375 24.140625 C59.18960938 24.80578125 59.883125 25.4709375 60.59765625 26.15625 C61.44328125 26.960625 62.28890625 27.765 63.16015625 28.59375 C64.36671875 29.8621875 64.36671875 29.8621875 65.59765625 31.15625 C66.25121094 31.81496094 66.90476562 32.47367188 67.578125 33.15234375 C83.30403267 49.63612648 91.25182797 69.93565238 90.84765625 92.74609375 C89.39744895 112.52782776 78.45360914 129.6137846 63.91796875 142.5390625 C48.63505935 154.7571066 25.30584707 163.77167548 5.59765625 162.15625 C3.34928975 161.51914432 1.1770864 160.76446948 -1.015625 159.95703125 C-5.05131781 158.60299356 -9.21791224 157.89879004 -13.40234375 157.15625 C-11.03519621 154.78910246 -8.82543795 153.91253826 -5.77734375 152.53125 C4.96890127 147.18383621 9.92609344 140.06733961 14.59765625 129.15625 C17.61810481 120.09490431 16.09025241 110.25970141 12.1015625 101.81640625 C10.28814207 98.60877166 8.28388374 95.70748941 5.9296875 92.875 C4.59765625 91.15625 4.59765625 91.15625 3.671875 89.0625 C2.31310502 86.6513009 1.10227334 86.25000939 -1.40234375 85.15625 C-2.76584694 84.21124779 -4.11948998 83.25191646 -5.46484375 82.28125 C-15.11087187 75.88193378 -24.82919053 73.44083846 -36.40234375 75.15625 C-48.56332464 79.23100114 -57.19098137 86.33178243 -62.96484375 97.71875 C-63.79592543 99.52280536 -64.61544243 101.33249047 -65.40234375 103.15625 C-65.73234375 103.15625 -66.06234375 103.15625 -66.40234375 103.15625 C-66.67949219 102.02445312 -66.95664062 100.89265625 -67.2421875 99.7265625 C-67.60794863 98.24476098 -67.97384086 96.76299182 -68.33984375 95.28125 C-68.52224609 94.53488281 -68.70464844 93.78851563 -68.89257812 93.01953125 C-69.85444067 88.98585875 -69.85444067 88.98585875 -71.40234375 85.15625 C-71.8814469 72.99235326 -69.7801232 60.10795892 -64.40234375 49.15625 C-63.81710851 47.88829752 -63.23253189 46.62004093 -62.6484375 45.3515625 C-53.66409939 26.23116342 -39.81774546 11.90632579 -20.125 3.80859375 C-13.38900577 1.43867901 -7.09642113 0.32589764 0 0 Z " fill="#FE95B8" transform="translate(323.40234375,97.84375)"/>
<path d="M0 0 C0.65974823 0.00021149 1.31949646 0.00042297 1.99923706 0.00064087 C12.70047727 0.03481875 22.24489982 0.97218182 32.375 4.375 C33.49003906 4.725625 34.60507813 5.07625 35.75390625 5.4375 C55.55476375 12.29989105 75.35915534 27.14394499 87.375 44.375 C87.045 45.035 86.715 45.695 86.375 46.375 C85.73175781 45.93929687 85.08851563 45.50359375 84.42578125 45.0546875 C74.8449033 38.74032856 64.98104965 34.04348103 54.0625 30.5625 C53.41708252 30.35544434 52.77166504 30.14838867 52.10668945 29.93505859 C22.55842079 20.95674171 -9.62579833 30.32213403 -36.00146484 43.9453125 C-52.25350913 52.80181458 -66.22172094 64.74353898 -79.625 77.375 C-80.3571875 78.06464844 -81.089375 78.75429687 -81.84375 79.46484375 C-102.46947036 99.47670339 -119.11417342 126.60770173 -126.625 154.375 C-126.83898437 155.11234375 -127.05296875 155.8496875 -127.2734375 156.609375 C-134.71527515 183.57255491 -128.82851036 212.37929881 -115.359375 236.203125 C-113.88818142 238.89368623 -112.68313391 241.50292224 -111.625 244.375 C-134.90289814 228.39997187 -150.90790197 203.29134657 -156.15112305 175.59594727 C-158.59181576 159.00653 -157.80808343 140.33830545 -152.625 124.375 C-152.38362305 123.61219727 -152.14224609 122.84939453 -151.89355469 122.06347656 C-137.01077004 76.06724779 -100.04257885 36.3757439 -57.51171875 14.19140625 C-39.22535584 5.01833814 -20.48738881 -0.0272594 0 0 Z " fill="#FE73AA" transform="translate(156.625,-0.375)"/>
<path d="M0 0 C23.41156512 16.06676037 39.21387686 41.0388587 44.54199219 68.82666016 C46.93720623 85.42207171 46.18383403 104.03438278 41 120 C40.75862305 120.76280273 40.51724609 121.52560547 40.26855469 122.31152344 C25.06674293 169.29372656 -12.56097014 208.36709038 -55.80078125 231.02734375 C-73.42403295 239.87191026 -91.94335887 244.40118732 -111.625 244.375 C-112.28474823 244.37478851 -112.94449646 244.37457703 -113.62423706 244.37435913 C-124.32547727 244.34018125 -133.86989982 243.40281818 -144 240 C-145.11503906 239.649375 -146.23007812 239.29875 -147.37890625 238.9375 C-164.03357164 233.165486 -177.59919536 222.44169055 -190.0625 210.25 C-190.62340332 209.70698242 -191.18430664 209.16396484 -191.76220703 208.60449219 C-194.75737305 205.60286908 -196.75861341 203.16365688 -198 199 C-197.37996094 199.35191406 -196.75992187 199.70382812 -196.12109375 200.06640625 C-170.57854609 214.30628362 -143.13153076 222.18357545 -113.80859375 215.08984375 C-111.92333984 214.55037109 -111.92333984 214.55037109 -110 214 C-108.84781982 213.67733154 -108.84781982 213.67733154 -107.67236328 213.34814453 C-62.3949439 200.38533817 -22.71023187 166.21117232 0.16772461 125.31005859 C5.47841152 115.56817877 9.92918509 105.82364372 13.3125 95.25 C13.55500488 94.49436768 13.79750977 93.73873535 14.04736328 92.96020508 C17.07555235 83.06776412 18.34766418 73.52404339 18.25 63.1875 C18.24250732 62.13506104 18.23501465 61.08262207 18.22729492 59.99829102 C17.96521883 40.98679316 13.17793825 25.21790603 3.98828125 8.6796875 C2.42529615 5.85609121 1.1058124 3.03950574 0 0 Z " fill="#FE73AA" transform="translate(467,268)"/>
<path d="M0 0 C11.98529442 8.06912679 21.93077459 19.87947536 25.0078125 34.29296875 C26.71773782 49.17675348 23.34272062 62.82049508 14.10546875 74.859375 C2.91156324 87.84597301 -10.17335052 99.21977211 -28.0703125 100.70703125 C-43.83223846 101.4923673 -55.13101858 95.65311196 -67.01953125 85.57421875 C-77.33512639 76.00351341 -83.31498936 61.45094088 -84.2421875 47.54296875 C-84.12253677 42.89499809 -83.25988905 38.3483207 -82.50390625 33.76953125 C-81.69887329 28.30022333 -81.33517482 22.80784377 -80.9921875 17.29296875 C-80.33992188 17.1228125 -79.68765625 16.95265625 -79.015625 16.77734375 C-70.87705582 14.52063135 -65.64548022 11.94285986 -61.0703125 4.68359375 C-59.54848402 1.30910452 -58.82219772 -2.10025957 -57.9921875 -5.70703125 C-57.38221924 -5.76238037 -56.77225098 -5.81772949 -56.14379883 -5.87475586 C-53.36383477 -6.12858441 -50.58426626 -6.386519 -47.8046875 -6.64453125 C-46.84498047 -6.73154297 -45.88527344 -6.81855469 -44.89648438 -6.90820312 C-43.96513672 -6.99521484 -43.03378906 -7.08222656 -42.07421875 -7.171875 C-41.22061768 -7.25042725 -40.3670166 -7.32897949 -39.48754883 -7.40991211 C-24.85266441 -9.15246708 -12.95209635 -7.38912024 0 0 Z " fill="#FEF7A4" transform="translate(338.9921875,263.70703125)"/>
<path d="M0 0 C1.72938885 1.34842203 3.43988544 2.72164093 5.125 4.125 C5.78242188 4.66898438 6.43984375 5.21296875 7.1171875 5.7734375 C17.44939953 15.18723069 23.98967702 31.24476094 25.125 45.125 C24.48867522 47.46678984 23.81683449 49.79900474 23.125 52.125 C22.61156295 55.75914968 22.30494664 59.40563986 22 63.0625 C21.87044922 64.5175293 21.87044922 64.5175293 21.73828125 66.00195312 C21.52778881 68.37584011 21.32352115 70.75008706 21.125 73.125 C20.53114502 73.30458252 19.93729004 73.48416504 19.32543945 73.66918945 C12.22291013 75.90855646 6.08010692 78.8008605 1.7421875 85.1484375 C-0.24609152 88.9924436 -1.52900419 93.01709071 -2.875 97.125 C-3.79539062 97.16238281 -4.71578125 97.19976562 -5.6640625 97.23828125 C-12.33839852 97.58491174 -18.22943741 98.12996312 -24.6875 100 C-36.1853436 102.66937479 -48.98236142 97.44125754 -59.06640625 91.97265625 C-71.48462045 83.803233 -81.5804134 71.89180779 -84.875 57.125 C-86.39598271 42.31270244 -83.13996846 28.13673684 -73.73046875 16.46484375 C-71.50607457 13.95245305 -69.20992547 11.53444437 -66.875 9.125 C-66.33359375 8.49851563 -65.7921875 7.87203125 -65.234375 7.2265625 C-48.48493939 -11.46851462 -20.20122598 -14.16566187 0 0 Z " fill="#FEF7A4" transform="translate(232.875,156.875)"/>
<path d="M0 0 C1.9732638 1.54360152 3.93123572 3.10691273 5.875 4.6875 C6.40867187 5.1196582 6.94234375 5.55181641 7.4921875 5.99707031 C35.14898482 28.50879442 57.82934919 58.52700253 62.875 94.6875 C63.1527879 98.46384307 63.20965493 102.21439719 63.1875 106 C63.18012817 107.50602783 63.18012817 107.50602783 63.17260742 109.04248047 C62.83582129 130.48971216 54.50019364 149.28757087 40.875 165.6875 C39.875 163.6875 39.875 163.6875 40.58203125 161.40234375 C40.94683594 160.48582031 41.31164062 159.56929687 41.6875 158.625 C45.20859122 149.76507011 46.23974342 141.55944572 46.1875 132.0625 C46.18258545 131.00361572 46.1776709 129.94473145 46.17260742 128.85375977 C46.04761293 120.44836095 45.15865419 112.81025372 42.875 104.6875 C42.55789063 103.50800781 42.24078125 102.32851562 41.9140625 101.11328125 C37.24634481 85.53767008 29.2314435 71.17716442 18.875 58.6875 C18.43510742 58.14899414 17.99521484 57.61048828 17.54199219 57.05566406 C0.99364465 36.81959787 -18.32579012 21.50305716 -42.125 10.6875 C-43.20265625 10.1925 -44.2803125 9.6975 -45.390625 9.1875 C-67.38807824 -0.09785715 -92.73924071 0.11154701 -114.75 8.875 C-126.98537477 14.01724549 -136.63120084 21.56747246 -146.125 30.6875 C-146.455 30.0275 -146.785 29.3675 -147.125 28.6875 C-143.71232917 18.8036326 -137.2907379 11.93791428 -130.125 4.6875 C-129.55136719 4.04167969 -128.97773438 3.39585938 -128.38671875 2.73046875 C-94.9413751 -34.17175796 -36.75231539 -27.04506783 0 0 Z " fill="#FE5E89" transform="translate(408.125,63.3125)"/>
<path d="M0 0 C1 2 1 2 0.0390625 5.30078125 C-0.42487848 6.6406108 -0.89658411 7.97777056 -1.375 9.3125 C-9.66326456 32.78832628 -5.54100459 57.84701311 4.92578125 79.8359375 C21.42692004 113.41746985 49.07571155 139.58309823 83 155 C84.61648437 155.7425 84.61648437 155.7425 86.265625 156.5 C104.29110454 164.10874513 127.34603808 166.33772847 146 160 C147.63775391 159.50693359 147.63775391 159.50693359 149.30859375 159.00390625 C164.30793069 154.17134396 175.93686836 146.02192818 187 135 C187.33 135.66 187.66 136.32 188 137 C184.58732917 146.8838674 178.1657379 153.74958572 171 161 C170.42636719 161.64582031 169.85273438 162.29164063 169.26171875 162.95703125 C155.097776 178.58494741 133.07455655 187.26254313 112.3671875 188.3828125 C83.60694793 189.26818712 57.22301872 179.07082311 35 161 C34.46632812 160.5678418 33.93265625 160.13568359 33.3828125 159.69042969 C5.72601518 137.17870558 -16.95434919 107.16049747 -22 71 C-22.2777879 67.22365693 -22.33465493 63.47310281 -22.3125 59.6875 C-22.30758545 58.68348145 -22.3026709 57.67946289 -22.29760742 56.64501953 C-21.96082129 35.19778784 -13.62519364 16.39992913 0 0 Z " fill="#FE5D89" transform="translate(63,283)"/>
<path d="M0 0 C13.12075754 6.17264953 21.72839838 16.9501501 27.4375 30.125 C31.86069745 43.7036367 29.09832839 56.54528478 23 69 C14.63656959 84.25847227 -0.0452715 96.33054639 -16.671875 101.3359375 C-29.77827877 103.95106501 -41.54554393 102.26201823 -53 95.1328125 C-58.52927547 91.27133479 -63.44750491 86.97200829 -68 82 C-67.01 81.505 -67.01 81.505 -66 81 C-64.83855469 81.4640625 -63.67710937 81.928125 -62.48046875 82.40625 C-57.72004941 84.28595581 -53.39327726 84.53820133 -48.3125 84.5 C-46.99693115 84.49250732 -46.99693115 84.49250732 -45.65478516 84.48486328 C-38.00231931 84.28107861 -31.80993872 82.55177611 -25 79 C-23.71802734 78.38318359 -23.71802734 78.38318359 -22.41015625 77.75390625 C-7.8388575 69.99635857 2.4815274 55.89030935 7.42211914 40.34936523 C8.38470453 36.43599001 8.48844818 32.63963445 8.4375 28.625 C8.43137695 27.79718018 8.42525391 26.96936035 8.41894531 26.11645508 C8.18052273 16.74369662 5.42906077 9.56190608 0 2 C0 1.34 0 0.68 0 0 Z " fill="#FEE753" transform="translate(335,262)"/>
<path d="M0 0 C3.36307878 2.83375478 6.48781334 5.82748066 9.45703125 9.0703125 C7.45703125 10.0703125 7.45703125 10.0703125 4.76953125 9.29296875 C3.67640625 8.91011719 2.58328125 8.52726562 1.45703125 8.1328125 C-10.54025553 4.34003688 -21.35463193 5.97631474 -32.73046875 11.3203125 C-37.79501447 14.03866292 -42.20846899 17.30814986 -46.54296875 21.0703125 C-47.29578125 21.71613281 -48.04859375 22.36195313 -48.82421875 23.02734375 C-58.00391152 31.49969718 -66.23714382 44.28937673 -67.01171875 57.0234375 C-67.04508316 58.78877797 -67.0548379 60.55469667 -67.04296875 62.3203125 C-67.04087402 63.24328125 -67.0387793 64.16625 -67.03662109 65.1171875 C-66.85992958 72.79989628 -65.22020046 78.29529166 -61.54296875 85.0703125 C-60.85649064 86.72891734 -60.18374277 88.39352066 -59.54296875 90.0703125 C-71.82875162 84.38211985 -80.16129961 74.06331633 -85.48046875 61.8203125 C-89.74770782 49.82134324 -88.19853782 36.78743874 -83.32421875 25.1640625 C-79.77692951 18.14831268 -74.98328863 12.68425961 -69.54296875 7.0703125 C-69.0015625 6.44382813 -68.46015625 5.81734375 -67.90234375 5.171875 C-50.00557685 -14.80380927 -20.60585534 -15.86922388 0 0 Z " fill="#FEE753" transform="translate(235.54296875,158.9296875)"/>
<path d="M0 0 C5.0343691 5.15554647 8.76691908 11.30306638 9.12890625 18.59765625 C8.78030596 26.108408 6.57598951 32.89204511 1.58203125 38.62890625 C-4.50492151 44.09574049 -11.97458017 46.18463389 -20 46 C-27.43450289 44.7321957 -33.9132781 40.92925145 -38.57421875 34.99609375 C-42.61724005 28.52030891 -43.74352097 21.85058916 -42.58984375 14.32421875 C-40.71030181 6.90734368 -36.99622839 2.4100098 -31.125 -2.3125 C-20.9084539 -7.82943489 -9.22622561 -7.26587748 0 0 Z " fill="#FFDD40" transform="translate(273,236)"/>
<path d="M0 0 C-0.144375 0.6290625 -0.28875 1.258125 -0.4375 1.90625 C-3.30833171 15.14397402 -1.86602447 26.21436085 5.40234375 37.84375 C6.98622698 40.09799518 6.98622698 40.09799518 9.19140625 42.15625 C11 44 11 44 11 46 C11.58523437 46.27070313 12.17046875 46.54140625 12.7734375 46.8203125 C14.9789107 47.98882637 16.70054646 49.29449135 18.625 50.875 C26.97449007 57.25806811 36.61810605 59.69972012 47 59 C50.36562953 58.46093678 53.68149178 57.77593512 57 57 C54.151885 65.13545721 48.22120675 69.63868545 40.6875 73.4375 C31.9641562 77.53668972 23.00067019 78.61129107 13.625 76.09375 C7.37762323 73.60754904 2.03299123 70.44207323 -3 66 C-3.73992187 65.37609375 -4.47984375 64.7521875 -5.2421875 64.109375 C-13.27829485 56.80382287 -19.16368255 46.73593638 -20.34375 35.8203125 C-20.82157414 24.51977163 -18.08018571 16.01513845 -10.6015625 7.16015625 C-3.6110782 0 -3.6110782 0 0 0 Z " fill="#FEDC40" transform="translate(192,263)"/>
<path d="M0 0 C6.32281452 3.21080425 11.72705362 6.99416946 16.5 12.26953125 C17.05429687 12.8315625 17.60859375 13.39359375 18.1796875 13.97265625 C26.6119445 22.87538252 30.11978018 33.14706332 29.83203125 45.27734375 C29.19505371 56.25013379 23.0465056 63.82194988 15.5 71.26953125 C14.97664063 71.85605469 14.45328125 72.44257813 13.9140625 73.046875 C12.5 74.26953125 12.5 74.26953125 9.5 74.26953125 C9.644375 73.65207031 9.78875 73.03460938 9.9375 72.3984375 C12.52187203 60.60724013 12.01929391 50.48642926 6.0390625 39.61328125 C4.59990704 37.42167394 3.11383427 35.33523912 1.5 33.26953125 C0.88382812 32.44582031 0.26765625 31.62210938 -0.3671875 30.7734375 C-7.48799655 22.41365984 -17.74157032 17.07110083 -28.5 15.26953125 C-35.05275895 14.7467694 -41.1317946 15.78051454 -47.5 17.26953125 C-46.57833697 11.35218743 -41.92448983 7.89676088 -37.5 4.26953125 C-25.65328736 -3.69611112 -13.33127451 -5.61421233 0 0 Z " fill="#FEDC40" transform="translate(310.5,174.73046875)"/>
</svg>
