<?xml version="1.0" standalone="no"?>
<!DOCTYPE svg PUBLIC "-//W3C//DTD SVG 20010904//EN"
 "http://www.w3.org/TR/2001/REC-SVG-20010904/DTD/svg10.dtd">
<svg version="1.0" xmlns="http://www.w3.org/2000/svg"
 width="512.000000pt" height="512.000000pt" viewBox="0 0 512.000000 512.000000"
 preserveAspectRatio="xMidYMid meet">

<g transform="translate(0.000000,512.000000) scale(0.100000,-0.100000)"
fill="#000000" stroke="none">
<path d="M2915 4936 c-555 -183 -983 -446 -1278 -786 l-57 -65 0 280 c0 202
-4 287 -13 304 -60 118 -294 79 -552 -91 -123 -80 -325 -287 -418 -428 -174
-264 -280 -558 -328 -910 -17 -123 -17 -484 0 -625 19 -164 57 -361 101 -533
l40 -154 -34 -46 c-47 -65 -135 -222 -178 -317 -107 -238 -177 -531 -195 -819
l-6 -106 59 -26 c179 -79 458 -153 680 -179 436 -51 934 32 1353 225 112 52
113 52 136 34 13 -11 65 -53 117 -95 594 -487 1279 -585 1968 -284 254 111
531 294 735 487 l79 74 -58 170 c-227 663 -480 1144 -769 1465 -42 46 -77 92
-77 102 0 10 14 73 31 140 90 357 221 673 463 1122 214 395 242 497 159 578
-124 118 -662 93 -1034 -48 -47 -18 -128 -55 -180 -81 -52 -27 -97 -50 -100
-52 -3 -1 -11 17 -18 40 -40 133 -185 374 -306 506 -65 70 -170 163 -183 161
-4 0 -65 -19 -137 -43z m229 -92 c206 -204 338 -438 404 -718 24 -102 26 -129
26 -321 0 -190 -2 -222 -27 -337 -33 -155 -97 -339 -172 -497 -55 -115 -58
-119 -99 -131 -118 -34 -332 -159 -454 -264 -30 -25 -57 -46 -62 -46 -17 0
-163 166 -220 251 -80 120 -161 287 -214 438 l-43 124 59 71 c121 145 170 306
116 386 -13 19 -42 44 -66 56 l-43 20 60 118 c68 134 178 303 276 425 59 73
66 85 53 98 -13 13 -20 9 -58 -34 -118 -135 -244 -326 -327 -500 -49 -102 -57
-113 -81 -113 -38 -1 -97 -23 -140 -54 -33 -22 -42 -25 -72 -16 -92 26 -179 3
-230 -63 -21 -26 -60 -124 -60 -149 0 -7 -27 -21 -59 -30 -72 -22 -140 -71
-164 -121 -24 -48 -11 -92 43 -141 61 -55 263 -105 360 -90 l39 6 11 -43 c84
-334 281 -649 505 -810 25 -18 45 -36 45 -39 0 -4 -26 -39 -57 -76 -32 -38
-70 -84 -84 -103 l-27 -34 -63 39 c-125 75 -479 358 -479 381 0 3 73 4 162 2
122 -3 162 -1 165 8 8 23 -40 31 -215 38 l-172 8 -57 66 c-94 107 -87 89 -68
188 24 122 16 227 -25 308 -34 68 -65 95 -119 102 -80 11 -196 -71 -242 -170
-22 -49 -22 -46 -8 81 32 302 144 597 317 842 84 119 296 333 423 428 182 135
461 289 684 377 90 36 347 124 361 125 6 0 50 -39 98 -86z m-1636 -170 l22
-14 0 -326 0 -325 -39 -58 c-146 -214 -260 -555 -278 -829 l-6 -93 -46 -24
c-102 -51 -131 -132 -96 -267 l16 -60 -41 -45 c-70 -76 -95 -159 -66 -224 9
-21 -63 -57 -75 -37 -28 45 -75 319 -90 528 -15 211 -7 381 38 793 5 48 3 57
-10 57 -9 0 -19 -5 -22 -10 -4 -6 -16 -79 -27 -163 -29 -209 -32 -712 -5 -887
14 -96 53 -277 73 -341 3 -12 -19 -33 -83 -75 -50 -33 -139 -109 -208 -176
-65 -64 -120 -116 -122 -114 -8 7 -74 286 -92 386 -50 274 -66 617 -40 848 42
388 187 750 407 1023 246 305 645 523 790 433z m3275 -218 c95 -36 111 -102
54 -241 -18 -44 -92 -191 -165 -326 -249 -464 -380 -783 -468 -1140 l-29 -116
-61 47 c-133 102 -274 169 -401 191 -37 6 -73 13 -80 15 -23 6 76 284 163 455
124 248 305 478 507 646 79 66 88 79 62 89 -31 12 -242 -180 -365 -333 -153
-189 -294 -452 -376 -701 l-49 -149 -95 -10 c-52 -6 -96 -9 -98 -8 -2 2 13 36
33 76 85 168 158 388 190 574 38 223 26 503 -31 687 -4 14 22 30 128 82 186
90 344 140 553 171 132 20 463 14 528 -9z m-2393 -651 c60 -31 57 -138 -8
-259 -38 -72 -164 -195 -238 -234 -117 -61 -217 -74 -357 -48 -219 42 -275
154 -114 229 49 24 113 39 220 52 38 5 47 10 45 23 -3 14 -15 17 -61 17 -62 0
-64 2 -46 56 29 85 93 135 164 127 41 -5 124 -40 176 -74 29 -18 62 -13 54 9
-3 7 -23 25 -45 39 l-40 26 27 18 c68 44 159 52 223 19z m-110 -593 c73 -224
219 -477 375 -649 l68 -75 -66 -66 -66 -66 -55 37 c-207 137 -391 428 -490
773 l-14 52 56 21 c32 11 77 34 102 50 25 16 47 30 50 30 3 0 21 -48 40 -107z
m-732 -28 c45 -31 66 -91 70 -200 10 -236 -102 -438 -292 -528 -185 -88 -322
-80 -318 17 3 68 62 147 175 234 31 24 57 49 57 54 0 23 -32 18 -75 -11 l-45
-31 -10 26 c-6 15 -10 52 -10 83 0 112 54 153 210 162 87 5 95 7 95 25 0 17
-8 20 -47 23 -58 4 -60 14 -15 74 59 77 152 110 205 72z m2207 -368 c389 -106
756 -539 1068 -1262 59 -137 189 -479 232 -614 l18 -54 -59 -54 c-372 -337
-788 -551 -1210 -622 -112 -19 -154 -21 -319 -17 -277 7 -448 49 -700 172
-240 116 -435 262 -676 507 -133 135 -158 156 -169 143 -10 -12 -4 -24 38 -72
28 -32 80 -87 116 -123 36 -35 66 -67 66 -71 0 -21 -314 -144 -495 -194 -515
-141 -1029 -117 -1522 72 l-93 36 0 76 c0 42 9 136 20 209 91 624 383 1095
839 1358 l83 48 107 1 c94 1 115 5 186 33 44 17 96 42 115 56 l35 23 97 -92
c111 -105 254 -217 380 -296 l86 -54 -106 -16 c-334 -51 -636 -170 -927 -364
-251 -167 -484 -385 -412 -385 7 0 55 39 107 86 387 353 816 562 1276 621
l131 17 85 -39 85 -39 -42 -66 c-83 -131 -105 -176 -93 -188 7 -7 15 -12 19
-12 4 0 31 39 60 88 66 109 139 220 197 296 l45 58 146 -4 c110 -4 175 -12
266 -33 430 -98 904 -369 1388 -793 120 -106 157 -127 157 -90 0 22 -254 241
-445 383 -496 371 -1008 585 -1398 585 l-79 0 31 38 c280 354 602 588 906 658
78 18 278 12 360 -10z m-1766 -482 c68 -57 176 -138 240 -181 64 -42 118 -78
120 -80 7 -5 -72 -115 -86 -120 -31 -12 -319 149 -478 267 -93 69 -236 195
-280 249 l-26 30 46 57 c26 31 56 76 67 100 l21 42 126 -130 c69 -72 182 -177
250 -234z"/>
</g>
</svg>
