<?xml version="1.0" standalone="no"?>
<!DOCTYPE svg PUBLIC "-//W3C//DTD SVG 20010904//EN"
 "http://www.w3.org/TR/2001/REC-SVG-20010904/DTD/svg10.dtd">
<svg version="1.0" xmlns="http://www.w3.org/2000/svg"
 width="512.000000pt" height="512.000000pt" viewBox="0 0 512.000000 512.000000"
 preserveAspectRatio="xMidYMid meet">

<g transform="translate(0.000000,512.000000) scale(0.100000,-0.100000)"
fill="#000000" stroke="none">
<path d="M2364 4477 c-3 -8 -27 -100 -53 -203 -27 -104 -68 -261 -91 -349 -39
-143 -43 -172 -44 -276 l-1 -117 -82 79 c-85 82 -193 159 -223 159 -9 0 -21
-5 -28 -12 -15 -15 -15 -91 -1 -158 6 -28 9 -53 7 -55 -2 -2 -53 21 -113 51
-162 80 -604 266 -615 259 -22 -13 -13 -39 134 -415 53 -135 96 -248 96 -252
0 -5 -60 -8 -133 -8 -74 0 -216 -3 -315 -7 -176 -6 -182 -7 -182 -27 0 -14 72
-92 227 -243 125 -122 225 -224 223 -226 -3 -3 -88 -39 -190 -80 -245 -99
-344 -143 -348 -155 -6 -19 61 -54 295 -153 131 -56 279 -118 328 -139 97 -42
186 -60 249 -52 l40 5 -36 -32 c-20 -17 -83 -81 -139 -142 -80 -87 -100 -113
-88 -120 8 -5 67 -9 131 -9 l117 0 -29 -77 c-16 -43 -59 -168 -96 -278 -58
-174 -67 -210 -68 -279 -1 -61 2 -81 15 -89 12 -7 82 22 299 126 157 75 285
135 287 134 1 -2 9 -79 18 -172 21 -228 42 -351 66 -402 31 -65 53 -59 130 34
35 43 118 142 185 219 l121 142 32 -67 c66 -134 173 -322 211 -369 41 -52 70
-67 93 -48 18 14 217 611 217 649 0 15 2 27 5 27 3 0 56 -38 119 -85 62 -47
120 -85 128 -85 29 0 41 55 35 158 -3 53 -9 107 -13 119 -5 20 12 15 213 -54
241 -82 453 -146 461 -138 12 12 -26 100 -149 346 -72 143 -129 262 -127 263
2 2 71 9 153 15 83 7 227 22 320 33 94 11 180 21 193 22 12 0 22 5 22 11 0 14
-99 104 -264 238 -199 162 -202 165 -196 170 3 2 103 54 223 116 120 61 237
123 260 138 23 15 53 32 67 39 24 13 23 14 -32 38 -68 30 -456 156 -593 192
-69 18 -115 25 -152 22 l-52 -5 84 89 c111 116 141 156 128 169 -7 7 -62 9
-147 7 -75 -2 -136 -3 -136 -2 0 1 18 39 39 85 72 156 188 565 208 729 5 44 4
50 -13 50 -10 0 -57 -23 -104 -51 -107 -64 -456 -259 -464 -259 -3 0 -6 19 -6
43 0 118 -80 580 -111 639 -14 26 -33 13 -80 -55 -23 -34 -98 -137 -167 -229
-111 -151 -142 -185 -142 -160 0 16 -143 259 -227 385 -85 128 -118 162 -129
134z m389 -1425 c156 -57 289 -195 338 -351 26 -84 28 -226 4 -308 -52 -180
-195 -324 -374 -377 -68 -20 -217 -21 -290 -1 -163 43 -302 166 -367 325 -22
53 -28 86 -32 177 -4 98 -2 122 18 184 57 176 201 314 382 364 77 22 245 15
321 -13z"/>
</g>
</svg>
