<?xml version="1.0" standalone="no"?>
<!DOCTYPE svg PUBLIC "-//W3C//DTD SVG 20010904//EN"
 "http://www.w3.org/TR/2001/REC-SVG-20010904/DTD/svg10.dtd">
<svg version="1.0" xmlns="http://www.w3.org/2000/svg"
 width="512.000000pt" height="512.000000pt" viewBox="0 0 512.000000 512.000000"
 preserveAspectRatio="xMidYMid meet">

<g transform="translate(0.000000,512.000000) scale(0.100000,-0.100000)"
fill="#000000" stroke="none">
<path d="M2693 4458 l-562 -562 -38 30 c-68 54 -186 121 -286 164 -54 23 -101
40 -103 37 -8 -8 15 -234 32 -316 75 -362 273 -655 531 -786 141 -71 115 -69
846 -73 435 -2 657 -6 657 -13 0 -13 -88 -684 -95 -726 l-6 -33 -230 0 -229 0
7 28 c26 91 -10 215 -79 278 -61 55 -111 74 -199 74 -130 0 -228 -39 -321
-128 l-58 -55 -58 55 c-99 95 -202 133 -337 126 -92 -5 -151 -31 -201 -90 -57
-69 -84 -180 -61 -260 l7 -28 -229 0 -229 0 -6 28 c-8 37 -96 706 -96 726 0
14 52 16 533 17 462 1 523 2 462 14 -242 43 -473 161 -653 332 l-82 78 -755
-755 -756 -756 46 -134 c59 -173 181 -422 283 -575 327 -490 790 -844 1340
-1025 428 -140 908 -163 1352 -64 681 152 1276 585 1640 1194 328 548 435
1227 294 1860 -85 379 -265 748 -518 1060 -82 101 -262 280 -366 364 -221 177
-523 344 -779 431 -73 25 -134 45 -135 45 0 0 -254 -253 -563 -562z m-386
-2114 c50 -24 105 -79 132 -132 17 -32 4 -34 -160 -30 l-141 3 -29 33 c-18 20
-29 43 -29 61 0 32 32 78 64 92 32 13 104 1 163 -27z m706 -4 c36 -40 35 -80
-2 -122 l-29 -33 -147 -3 c-85 -3 -151 0 -156 5 -14 14 50 102 99 137 49 35
124 57 172 51 23 -3 45 -15 63 -35z m-578 -380 c-41 -79 -128 -142 -214 -156
l-41 -7 0 -94 0 -95 53 7 c110 15 237 81 297 153 l30 37 30 -37 c61 -74 184
-137 298 -153 l52 -7 0 95 0 94 -41 7 c-86 14 -173 77 -214 156 l-16 30 486 0
485 0 0 -21 c0 -22 -45 -373 -55 -436 l-6 -33 161 0 160 0 0 -73 c0 -223 -136
-415 -339 -477 -61 -19 -97 -20 -1006 -20 -890 0 -945 1 -998 19 -212 70 -337
247 -337 478 l0 83 160 0 160 0 -5 23 c-2 12 -16 112 -30 222 -14 110 -27 208
-29 218 -4 16 24 17 485 17 l490 0 -16 -30z"/>
</g>
</svg>
