<?xml version="1.0" standalone="no"?>
<!DOCTYPE svg PUBLIC "-//W3C//DTD SVG 20010904//EN"
 "http://www.w3.org/TR/2001/REC-SVG-20010904/DTD/svg10.dtd">
<svg version="1.0" xmlns="http://www.w3.org/2000/svg"
 width="512.000000pt" height="512.000000pt" viewBox="0 0 512.000000 512.000000"
 preserveAspectRatio="xMidYMid meet">

<g transform="translate(0.000000,512.000000) scale(0.100000,-0.100000)"
fill="#000000" stroke="none">
<path d="M2743 4370 c-34 -14 -43 -42 -43 -133 0 -74 3 -86 23 -105 31 -29 72
-28 102 3 22 21 25 33 25 104 0 95 -4 107 -41 126 -32 17 -35 17 -66 5z"/>
<path d="M2121 4358 c-39 -14 -50 -38 -51 -109 0 -83 23 -119 76 -119 56 0 74
27 74 111 0 39 -4 79 -10 89 -13 25 -59 39 -89 28z"/>
<path d="M3407 4138 c-22 -18 -59 -106 -60 -147 -2 -60 74 -94 121 -53 27 23
64 127 56 158 -12 47 -79 70 -117 42z"/>
<path d="M2691 3914 c-12 -15 -21 -36 -21 -48 0 -45 -50 -259 -85 -362 -38
-116 -113 -275 -131 -281 -27 -9 -137 306 -178 510 -27 132 -42 157 -93 157
-44 0 -73 -30 -73 -76 0 -89 86 -401 156 -567 33 -79 33 -81 14 -94 -36 -25
-114 -95 -132 -119 -10 -12 -29 -42 -43 -65 l-24 -43 -18 33 c-72 129 -220
325 -252 334 -32 8 -66 -15 -69 -49 -2 -24 8 -44 49 -95 89 -110 238 -354 224
-367 -7 -8 -173 41 -254 74 -48 20 -126 58 -174 86 -94 54 -126 57 -148 17
-19 -37 -3 -65 61 -104 139 -85 336 -161 474 -186 50 -8 66 -15 66 -28 0 -9 3
-26 6 -37 5 -20 0 -23 -58 -33 -121 -23 -333 -25 -493 -6 l-148 18 -19 -23
c-24 -29 -23 -46 5 -74 19 -19 43 -26 128 -37 139 -19 439 -16 544 4 91 18 74
26 150 -72 107 -139 289 -223 450 -208 160 15 335 114 405 229 l18 30 47 -74
c77 -119 174 -237 200 -244 53 -13 93 44 61 89 -8 12 -44 59 -79 105 -88 114
-167 249 -167 285 0 27 2 28 33 22 82 -17 223 -72 336 -131 68 -35 131 -64
141 -64 27 0 50 28 50 61 0 23 -8 34 -41 54 -130 82 -283 149 -419 184 -46 11
-85 22 -87 24 -1 2 -6 24 -9 49 l-6 46 78 9 c118 12 356 7 464 -11 84 -13 97
-13 117 0 28 18 31 64 5 87 -51 46 -434 64 -662 32 -44 -7 -46 -6 -77 37 -17
23 -41 55 -53 70 l-21 27 62 68 c142 155 329 434 329 489 0 55 -60 91 -110 64
-10 -5 -45 -53 -78 -107 -72 -117 -189 -274 -269 -362 l-59 -64 -57 21 c-32
12 -69 22 -82 22 -13 0 -26 4 -29 8 -2 4 11 43 30 86 64 146 144 451 144 552
0 71 -86 103 -129 48z m-264 -935 c15 -5 41 -22 57 -37 100 -94 59 -256 -74
-292 -119 -32 -242 91 -210 210 27 100 132 155 227 119z"/>
<path d="M1501 3531 c-31 -31 -26 -59 19 -103 46 -43 86 -50 113 -20 26 29 20
55 -20 94 -49 48 -84 57 -112 29z"/>
<path d="M1192 3174 c-37 -25 -29 -68 21 -115 51 -48 79 -57 113 -34 42 27 30
70 -34 122 -58 48 -67 50 -100 27z"/>
<path d="M3962 2854 c-27 -19 -29 -65 -4 -86 21 -18 77 -38 107 -38 27 0 55
29 55 57 0 26 -26 49 -79 68 -53 18 -52 18 -79 -1z"/>
<path d="M4522 2802 c6 -26 6 -52 -1 -78 -21 -79 -166 -218 -296 -286 -44 -22
-81 -42 -83 -43 -1 -1 10 -52 24 -113 34 -144 29 -186 -29 -247 -28 -29 -57
-47 -87 -56 -51 -14 -156 -17 -216 -7 l-41 8 -7 -53 c-4 -28 -16 -87 -28 -131
-33 -123 -90 -176 -191 -176 -46 0 -63 6 -108 36 l-54 36 40 -42 c53 -55 162
-143 202 -164 68 -34 156 -15 209 46 32 37 66 141 79 246 l7 52 51 -7 c133
-20 233 1 293 61 56 56 63 99 33 226 -12 52 -24 105 -26 116 -4 18 6 26 64 53
115 54 233 155 298 254 22 35 24 121 2 162 -13 27 -128 145 -140 145 -3 0 0
-17 5 -38z"/>
<path d="M986 2664 c-24 -24 -20 -71 7 -89 66 -43 131 -43 147 1 14 35 -3 62
-53 85 -51 23 -81 24 -101 3z"/>
<path d="M3744 2365 c-22 -34 -11 -59 48 -105 56 -45 79 -49 108 -20 36 36 25
65 -44 119 -48 38 -89 41 -112 6z"/>
<path d="M3456 2004 c-29 -28 -20 -68 24 -108 41 -37 67 -44 101 -26 13 7 19
21 19 45 0 27 -8 40 -42 69 -45 39 -77 45 -102 20z"/>
</g>
</svg>
