<?xml version="1.0" encoding="UTF-8"?>
<!DOCTYPE svg PUBLIC "-//W3C//DTD SVG 1.1//EN" "http://www.w3.org/Graphics/SVG/1.1/DTD/svg11.dtd">
<svg xmlns="http://www.w3.org/2000/svg" version="1.1" width="512px" height="512px" style="shape-rendering:geometricPrecision; text-rendering:geometricPrecision; image-rendering:optimizeQuality; fill-rule:evenodd; clip-rule:evenodd" xmlns:xlink="http://www.w3.org/1999/xlink">
<g><path style="opacity:0.991" fill="#122715" d="M 203.5,35.5 C 212.857,37.512 221.191,41.6787 228.5,48C 247.785,66.0637 259.618,88.2303 264,114.5C 288.339,74.822 324.006,55.4887 371,56.5C 379.531,56.516 388.031,57.016 396.5,58C 405.115,59.7173 408.281,64.884 406,73.5C 400.063,99.0375 389.063,122.037 373,142.5C 367.096,149.074 360.596,154.908 353.5,160C 380.089,160.699 399.255,172.866 411,196.5C 421.1,224.597 415.267,248.763 393.5,269C 381.601,277.634 368.267,282.3 353.5,283C 371.136,309.159 370.636,334.993 352,360.5C 338.945,374.472 322.778,381.805 303.5,382.5C 320.654,407.341 320.82,432.341 304,457.5C 283.866,480.532 259.366,486.698 230.5,476C 199.821,459.124 188.988,433.624 198,399.5C 200.139,393.219 203.305,387.552 207.5,382.5C 169.275,379.275 148.275,358.608 144.5,320.5C 144.778,306.533 149.112,294.033 157.5,283C 113.717,277.889 93.2165,253.389 96,209.5C 102.399,182.434 119.232,166.267 146.5,161C 153.886,160.444 161.219,160.444 168.5,161C 149.765,142.699 139.265,120.532 137,94.5C 138.668,90.8345 141.501,88.6678 145.5,88C 173.079,83.2583 198.413,88.5916 221.5,104C 229.452,110.946 236.286,118.779 242,127.5C 241.17,102.662 231.67,81.8291 213.5,65C 208.666,61.7484 203.666,58.7484 198.5,56C 192.035,47.0267 193.701,40.1934 203.5,35.5 Z M 199.5,178.5 C 199.56,177.957 199.893,177.624 200.5,177.5C 203.554,178.347 206.554,179.347 209.5,180.5C 208.333,182.167 207.167,183.833 206,185.5C 203.6,183.271 201.433,180.937 199.5,178.5 Z M 307.5,178.5 C 308.552,178.351 309.552,178.517 310.5,179C 309.042,181.46 307.209,183.627 305,185.5C 303.833,183.833 302.667,182.167 301.5,180.5C 303.631,179.831 305.631,179.165 307.5,178.5 Z M 205.5,256.5 C 208.341,259.187 207.675,260.021 203.5,259C 204.381,258.292 205.047,257.458 205.5,256.5 Z M 304.5,256.5 C 308.773,259.023 308.44,259.856 303.5,259C 304.252,258.329 304.586,257.496 304.5,256.5 Z M 253.5,283.5 C 254.601,282.402 255.934,282.235 257.5,283C 256.318,284.768 254.985,284.935 253.5,283.5 Z M 254.5,356.5 C 258.774,358.957 258.441,359.791 253.5,359C 254.252,358.329 254.586,357.496 254.5,356.5 Z"/></g>
<g><path style="opacity:1" fill="#38ec4b" d="M 351.5,78.5 C 361.522,78.1681 371.522,78.5015 381.5,79.5C 364.968,135.005 327.635,162.005 269.5,160.5C 279.317,115.35 306.65,88.0162 351.5,78.5 Z"/></g>
<g><path style="opacity:1" fill="#38eb4b" d="M 161.5,108.5 C 198.006,107.589 221.672,124.589 232.5,159.5C 195.982,160.406 172.315,143.406 161.5,108.5 Z"/></g>
<g><path style="opacity:1" fill="#7f47c6" d="M 146.5,182.5 C 170.067,179.853 185.901,189.52 194,211.5C 197.311,237.831 186.145,253.998 160.5,260C 139.376,260.876 125.209,251.376 118,231.5C 114.126,207.234 123.626,190.901 146.5,182.5 Z"/></g>
<g><path style="opacity:1" fill="#7f47c6" d="M 246.5,182.5 C 270.526,179.753 286.36,189.753 294,212.5C 296.464,238.103 285.298,253.936 260.5,260C 237.146,260.976 222.646,250.143 217,227.5C 215.311,204.865 225.144,189.865 246.5,182.5 Z"/></g>
<g><path style="opacity:1" fill="#7f47c6" d="M 345.5,182.5 C 368.728,179.605 384.562,188.939 393,210.5C 396.789,240.254 383.789,256.92 354,260.5C 336.533,258.69 324.533,249.69 318,233.5C 312.555,208.379 321.722,191.379 345.5,182.5 Z"/></g>
<g><path style="opacity:1" fill="#7f47c6" d="M 198.5,281.5 C 230.703,281.533 245.87,297.533 244,329.5C 236.377,352.401 220.544,362.234 196.5,359C 174.748,351.682 164.914,336.515 167,313.5C 171.683,296.985 182.183,286.318 198.5,281.5 Z"/></g>
<g><path style="opacity:1" fill="#7f47c6" d="M 297.5,281.5 C 321.522,279.918 337.022,290.585 344,313.5C 344.459,345.708 328.626,360.874 296.5,359C 273.604,351.389 263.771,335.556 267,311.5C 271.762,295.904 281.929,285.904 297.5,281.5 Z"/></g>
<g><path style="opacity:1" fill="#7f47c6" d="M 246.5,381.5 C 270.526,378.753 286.36,388.753 294,411.5C 296.727,434.235 287.56,449.735 266.5,458C 244.567,462.283 228.733,454.45 219,434.5C 212.34,408.483 221.507,390.816 246.5,381.5 Z"/></g>
</svg>
