<?xml version="1.0" standalone="no"?>
<!DOCTYPE svg PUBLIC "-//W3C//DTD SVG 20010904//EN"
 "http://www.w3.org/TR/2001/REC-SVG-20010904/DTD/svg10.dtd">
<svg version="1.0" xmlns="http://www.w3.org/2000/svg"
 width="512.000000pt" height="512.000000pt" viewBox="0 0 512.000000 512.000000"
 preserveAspectRatio="xMidYMid meet">

<g transform="translate(0.000000,512.000000) scale(0.100000,-0.100000)"
fill="#000000" stroke="none">
<path d="M2060 4944 c-298 -63 -522 -298 -575 -599 -8 -48 -15 -98 -15 -111
l0 -24 -172 0 c-216 -1 -301 -15 -415 -70 -106 -52 -219 -159 -273 -260 -33
-62 -34 -70 -32 -150 2 -47 4 -111 5 -142 3 -76 -18 -103 -118 -153 -44 -22
-98 -58 -120 -80 -53 -53 -140 -223 -165 -321 -76 -296 68 -605 345 -739 39
-19 130 -51 204 -73 l135 -39 -95 -63 c-190 -128 -251 -178 -315 -255 -156
-188 -190 -463 -83 -678 54 -109 216 -285 306 -330 37 -19 123 -37 177 -37 50
0 101 -30 127 -75 10 -17 24 -62 33 -101 20 -100 43 -139 129 -221 213 -202
345 -260 569 -251 183 8 290 59 467 225 116 108 217 228 306 363 l67 102 21
-33 c101 -167 172 -257 333 -421 166 -171 285 -234 464 -245 95 -6 216 13 295
47 69 30 160 95 267 192 108 99 142 154 154 251 3 33 16 71 28 89 38 57 65 69
168 78 62 5 108 15 134 28 41 21 155 118 208 175 138 153 196 382 147 577 -49
195 -145 319 -360 466 -40 27 -59 45 -50 48 8 2 57 17 109 32 163 46 251 94
345 187 128 128 185 264 185 442 0 109 -16 174 -78 320 -58 137 -121 208 -218
244 -111 41 -142 100 -117 218 20 94 10 148 -49 264 -81 163 -177 267 -308
334 -193 98 -367 98 -585 -1 -7 -3 -10 17 -7 60 5 75 -19 204 -53 288 -112
274 -401 460 -698 446 -90 -4 -146 -26 -241 -93 -37 -27 -58 -35 -91 -35 -59
0 -84 11 -144 64 -83 74 -197 93 -351 60z m705 -1610 c33 -8 62 -17 64 -19 2
-2 -6 -16 -16 -32 -28 -40 -87 -153 -82 -157 10 -9 129 -66 138 -66 5 0 28 33
50 73 67 122 56 117 138 52 91 -72 173 -175 223 -279 51 -106 69 -179 76 -301
18 -323 -159 -625 -450 -765 -126 -60 -190 -74 -346 -74 -156 0 -220 14 -346
74 -160 77 -297 214 -374 374 -60 126 -74 190 -74 346 0 156 14 220 75 347 35
73 150 233 167 233 4 0 27 18 51 41 82 74 235 146 362 168 75 14 272 5 344
-15z"/>
<path d="M2480 3200 l0 -80 80 0 80 0 0 80 0 80 -80 0 -80 0 0 -80z"/>
<path d="M2045 3070 l-60 -60 58 -57 57 -58 60 60 60 60 -58 58 -58 57 -59
-60z"/>
<path d="M2950 3075 l-54 -55 59 -60 59 -60 58 57 58 57 -57 58 c-32 32 -60
58 -63 58 -3 0 -30 -25 -60 -55z"/>
<path d="M2480 2957 l0 -84 -41 -12 -42 -13 -58 58 -59 59 -57 -58 -58 -57 59
-59 58 -58 -13 -42 -12 -41 -89 0 -88 0 0 -80 0 -80 83 0 84 0 12 -41 13 -42
-58 -58 -59 -59 58 -57 57 -58 59 59 59 59 39 -15 38 -16 3 -91 3 -91 79 0 80
0 0 83 0 84 41 12 42 13 58 -58 59 -58 55 54 c30 30 55 59 55 66 0 6 -9 19
-21 30 -12 10 -34 36 -50 56 -28 35 -29 38 -17 77 l13 41 87 0 88 0 0 80 0 80
-83 0 -84 0 -12 41 -13 42 58 58 59 59 -57 57 -57 57 -65 -57 -65 -58 -40 13
-41 13 0 87 0 88 -80 0 -80 0 0 -83z m150 -259 c48 -25 90 -89 90 -138 0 -14
-10 -46 -22 -70 -25 -48 -89 -90 -138 -90 -14 0 -46 10 -70 23 -48 24 -90 88
-90 137 0 14 10 46 23 70 24 48 88 90 137 90 14 0 46 -10 70 -22z"/>
<path d="M1840 2560 l0 -80 80 0 80 0 0 80 0 80 -80 0 -80 0 0 -80z"/>
<path d="M3120 2560 l0 -80 80 0 80 0 0 80 0 80 -80 0 -80 0 0 -80z"/>
<path d="M2047 2162 l-57 -58 60 -59 60 -60 57 58 58 57 -60 60 -60 60 -58
-58z"/>
<path d="M2957 2162 l-57 -58 58 -57 58 -57 59 60 59 60 -54 55 c-30 30 -57
55 -60 55 -3 0 -31 -26 -63 -58z"/>
<path d="M2480 1920 l0 -80 80 0 80 0 0 80 0 80 -80 0 -80 0 0 -80z"/>
</g>
</svg>
