<?xml version="1.0" standalone="no"?>
<!DOCTYPE svg PUBLIC "-//W3C//DTD SVG 20010904//EN"
 "http://www.w3.org/TR/2001/REC-SVG-20010904/DTD/svg10.dtd">
<svg version="1.0" xmlns="http://www.w3.org/2000/svg"
 width="512.000000pt" height="512.000000pt" viewBox="0 0 512.000000 512.000000"
 preserveAspectRatio="xMidYMid meet">

<g transform="translate(0.000000,512.000000) scale(0.100000,-0.100000)"
fill="#000000" stroke="none">
<path d="M2463 5096 c-118 -39 -223 -137 -318 -301 -10 -16 -17 -14 -74 29
-176 129 -351 160 -490 86 -76 -41 -123 -93 -167 -185 -38 -81 -59 -154 -69
-247 l-7 -64 -81 24 c-67 21 -104 25 -202 26 -154 0 -213 -20 -296 -103 -81
-82 -103 -142 -103 -291 0 -77 6 -135 17 -176 22 -78 22 -74 -14 -74 -55 0
-173 -32 -245 -66 -132 -62 -211 -169 -221 -298 -10 -118 38 -248 138 -380 29
-39 48 -71 42 -73 -5 -2 -47 -27 -93 -55 -107 -65 -190 -150 -232 -236 -30
-60 -33 -76 -33 -152 0 -76 4 -93 32 -150 46 -95 143 -186 278 -265 16 -10 14
-17 -29 -74 -129 -176 -160 -351 -86 -490 41 -76 93 -123 185 -167 81 -38 154
-59 247 -69 l64 -7 -24 -81 c-21 -67 -25 -104 -26 -202 0 -154 20 -213 103
-296 82 -81 142 -103 291 -103 77 0 135 6 176 17 78 22 74 22 74 -14 0 -55 32
-173 66 -245 63 -133 169 -211 299 -222 115 -9 249 40 379 139 39 29 71 48 73
42 2 -5 26 -46 53 -91 66 -107 153 -192 238 -234 60 -30 76 -33 152 -33 76 0
93 4 150 32 95 46 186 143 265 278 10 16 17 14 74 -29 176 -129 351 -160 490
-86 76 41 123 93 167 185 38 81 59 154 69 247 l7 64 81 -24 c67 -21 104 -25
202 -26 154 0 213 20 296 103 81 82 103 142 103 291 0 77 -6 135 -17 176 -22
78 -22 74 14 74 55 0 173 32 245 66 132 62 211 169 221 298 10 117 -38 248
-137 379 -29 38 -50 70 -48 71 1 2 41 25 87 52 109 64 200 154 243 241 30 61
33 76 33 153 0 76 -4 93 -32 151 -40 80 -138 181 -228 234 -36 21 -65 39 -65
41 0 2 20 31 45 65 128 174 158 350 85 488 -41 76 -93 123 -185 167 -81 38
-154 59 -247 69 l-64 7 24 81 c21 67 25 104 26 202 0 154 -20 213 -103 296
-82 81 -142 103 -291 103 -77 0 -135 -6 -176 -17 -78 -22 -74 -22 -74 14 0 55
-32 173 -66 245 -126 266 -402 296 -688 76 -33 -25 -61 -41 -63 -36 -2 6 -26
47 -53 91 -105 171 -233 263 -373 269 -43 3 -89 -2 -114 -10z m189 -222 c129
-83 240 -338 295 -669 23 -145 24 -514 1 -658 -9 -54 -18 -100 -20 -102 -2 -3
-27 4 -54 15 -173 65 -455 65 -628 0 -27 -11 -52 -18 -54 -15 -2 2 -11 48 -20
102 -23 143 -22 501 1 653 45 291 133 514 247 631 82 84 151 96 232 43z
m-1461 -630 c190 -48 458 -212 665 -407 l91 -86 6 -98 c4 -54 15 -147 26 -205
l19 -107 -109 -110 -110 -109 -107 19 c-58 11 -151 22 -205 26 l-98 6 -80 84
c-284 301 -466 668 -428 866 15 80 50 120 122 138 40 10 134 3 208 -17z m2976
5 c101 -32 126 -182 62 -373 -67 -199 -258 -487 -436 -657 l-48 -47 -97 -6
c-53 -3 -144 -15 -202 -25 l-105 -19 -110 109 -109 110 19 107 c11 58 22 150
26 204 l6 98 76 73 c201 192 438 344 635 407 119 39 201 44 283 19z m-1416
-964 c263 -71 471 -285 540 -556 18 -70 18 -268 0 -338 -71 -279 -283 -491
-562 -562 -70 -18 -268 -18 -338 0 -278 71 -494 286 -562 561 -18 71 -18 269
0 340 68 275 301 507 561 559 30 6 64 13 75 15 38 9 230 -4 286 -19z m-1168
-339 c49 -8 90 -16 92 -18 3 -2 -4 -27 -15 -54 -29 -79 -50 -207 -50 -314 0
-107 21 -235 50 -314 11 -27 18 -52 15 -54 -11 -11 -198 -32 -340 -38 -434
-18 -868 92 -1046 266 -102 100 -102 180 0 280 135 132 430 233 771 264 87 8
436 -4 523 -18z m2503 13 c330 -32 613 -130 745 -259 102 -100 102 -180 0
-280 -116 -113 -333 -199 -626 -247 -145 -23 -514 -24 -658 -1 -54 9 -100 18
-102 20 -3 2 4 27 15 54 65 173 65 455 0 628 -11 27 -18 51 -16 53 1 2 27 8
57 13 157 29 404 37 585 19z m-2198 -1069 l110 -111 -19 -107 c-11 -58 -22
-150 -26 -204 l-6 -98 -76 -73 c-390 -372 -867 -551 -987 -370 -76 113 -5 373
176 648 72 108 189 252 267 326 l48 47 100 6 c81 6 160 18 296 45 4 0 56 -49
117 -109z m1582 85 c47 -8 128 -18 180 -21 l95 -6 53 -52 c71 -67 202 -230
272 -337 199 -302 252 -592 125 -675 -86 -56 -261 -30 -464 69 -158 77 -396
251 -517 379 -41 43 -42 43 -48 140 -3 53 -15 144 -25 202 l-19 105 106 110
c89 91 111 108 132 105 14 -2 63 -11 110 -19z m-1224 -314 c173 -66 454 -66
628 -1 27 11 52 18 54 15 11 -11 32 -198 38 -340 18 -434 -92 -868 -266 -1046
-100 -102 -180 -102 -280 0 -113 116 -199 334 -246 626 -31 187 -23 595 13
743 3 12 6 22 7 22 0 0 24 -9 52 -19z"/>
<path d="M2448 2995 c-82 -22 -141 -57 -204 -119 -180 -180 -180 -452 0 -631
180 -180 453 -180 632 -1 179 180 179 452 0 632 -115 115 -278 161 -428 119z
m219 -217 c83 -39 135 -123 135 -218 0 -137 -104 -242 -240 -242 -139 0 -244
104 -244 240 0 186 180 300 349 220z"/>
</g>
</svg>
