<?xml version="1.0" encoding="UTF-8"?>
<!DOCTYPE svg PUBLIC "-//W3C//DTD SVG 1.1//EN" "http://www.w3.org/Graphics/SVG/1.1/DTD/svg11.dtd">
<svg xmlns="http://www.w3.org/2000/svg" version="1.1" width="512px" height="512px" style="shape-rendering:geometricPrecision; text-rendering:geometricPrecision; image-rendering:optimizeQuality; fill-rule:evenodd; clip-rule:evenodd" xmlns:xlink="http://www.w3.org/1999/xlink">
<g><path style="opacity:0.916" fill="#060605" d="M 257.5,-0.5 C 259.5,-0.5 261.5,-0.5 263.5,-0.5C 282.891,25.6233 296.391,54.6233 304,86.5C 313.865,131.552 302.699,170.385 270.5,203C 274.114,204.32 277.78,205.487 281.5,206.5C 282.544,211.207 282.71,215.874 282,220.5C 290.351,212.648 298.851,204.982 307.5,197.5C 301.907,187.571 301.074,177.238 305,166.5C 313.661,146.023 326.161,128.19 342.5,113C 344.624,111.418 346.79,111.251 349,112.5C 351.288,118.317 352.954,124.317 354,130.5C 358.079,129.371 362.245,129.204 366.5,130C 368.676,130.163 370.509,130.996 372,132.5C 372.83,137.808 373.33,143.141 373.5,148.5C 390.387,149.426 395.387,157.759 388.5,173.5C 394.472,176.306 398.972,180.639 402,186.5C 402.667,187.5 402.667,188.5 402,189.5C 380.014,202.829 356.181,209.663 330.5,210C 323.696,208.952 317.363,206.952 311.5,204C 300.667,213.5 289.833,223 279,232.5C 275.383,243.599 269.216,252.932 260.5,260.5C 262.733,263.186 265.233,265.519 268,267.5C 275.078,265.88 282.245,264.88 289.5,264.5C 289.479,259.062 290.979,254.062 294,249.5C 303.17,238.677 314.67,231.51 328.5,228C 343.178,223.387 358.178,221.053 373.5,221C 373.858,227.764 371.858,233.931 367.5,239.5C 367.808,240.308 368.308,240.975 369,241.5C 378.305,236.787 388.138,233.787 398.5,232.5C 400.624,223.204 405.958,216.371 414.5,212C 431.788,203.143 450.121,198.477 469.5,198C 470.804,198.804 471.471,199.971 471.5,201.5C 470.181,206.305 468.181,210.805 465.5,215C 470.617,217.114 473.95,220.781 475.5,226C 474.028,229.942 472.028,233.609 469.5,237C 473.739,241.716 475.572,247.216 475,253.5C 471.651,256.682 468.484,260.015 465.5,263.5C 467.32,268.362 467.82,273.362 467,278.5C 465.991,279.658 464.658,280.325 463,280.5C 445.798,277.433 429.631,271.6 414.5,263C 408.622,258.79 403.789,253.623 400,247.5C 398.921,244.937 398.421,242.271 398.5,239.5C 390.534,240.575 382.867,242.742 375.5,246C 379.533,249.168 380.367,253.001 378,257.5C 375.833,260.333 373.667,263.167 371.5,266C 376.933,271.025 379.433,277.192 379,284.5C 377.859,286.609 376.359,288.442 374.5,290C 413.823,302.71 448.657,322.877 479,350.5C 479.269,353.28 478.102,355.446 475.5,357C 417.166,397.409 354.666,405.242 288,380.5C 284.167,385.667 279.667,390.167 274.5,394C 285.609,404.903 290.942,418.236 290.5,434C 289.88,438.82 289.38,443.653 289,448.5C 288.907,451.007 288.074,453.174 286.5,455C 271.011,455.969 256.345,452.969 242.5,446C 237.748,443.252 233.581,439.752 230,435.5C 216.955,451.271 200.122,459.438 179.5,460C 177.683,458.2 176.516,456.034 176,453.5C 171.284,437.871 171.451,422.371 176.5,407C 167.151,405.076 158.985,400.909 152,394.5C 126.075,429.691 108.242,468.691 98.5,511.5C 96.5,511.5 94.5,511.5 92.5,511.5C 92.5,510.5 92.5,509.5 92.5,508.5C 102.921,465.167 121.254,425.667 147.5,390C 144.882,387.261 142.382,384.427 140,381.5C 110.733,419.371 90.5667,461.705 79.5,508.5C 79.4431,509.609 79.1098,510.609 78.5,511.5C 76.5,511.5 74.5,511.5 72.5,511.5C 83.1429,461.388 104.143,416.221 135.5,376C 134.424,374.274 134.257,372.441 135,370.5C 138.534,366.631 142.367,363.131 146.5,360C 144,358.167 141.5,356.333 139,354.5C 126.957,371.609 110.457,381.109 89.5,383C 81.0446,366.313 78.7113,348.813 82.5,330.5C 63.03,326.853 48.03,316.686 37.5,300C 49.9969,281.686 67.3303,271.519 89.5,269.5C 87.3109,246.704 94.9776,227.871 112.5,213C 125.598,214.144 137.431,218.644 148,226.5C 150.235,225.632 152.402,224.632 154.5,223.5C 152.905,216.975 150.738,210.642 148,204.5C 145.723,199.738 142.89,195.405 139.5,191.5C 129.277,193.155 119.777,191.155 111,185.5C 99.5927,194.067 86.7594,196.901 72.5,194C 58.4438,191.989 45.1104,187.822 32.5,181.5C 31.3387,179.776 31.5053,178.11 33,176.5C 36.5,173.667 40,170.833 43.5,168C 40.6774,163.539 39.5107,158.706 40,153.5C 43.59,150.954 47.4234,148.787 51.5,147C 47.0929,133.32 52.0929,126.486 66.5,126.5C 66.5548,119.723 69.2215,114.39 74.5,110.5C 82.5762,116.071 89.9095,122.571 96.5,130C 100.113,129.409 103.78,129.576 107.5,130.5C 109.224,115.886 116.724,111.886 130,118.5C 132.924,111.567 137.924,108.233 145,108.5C 153.107,125.258 157.94,142.925 159.5,161.5C 159.986,172.688 155.986,181.854 147.5,189C 153.945,198.995 158.445,209.828 161,221.5C 164.047,221.929 167.214,221.929 170.5,221.5C 168.279,197.951 176.446,178.951 195,164.5C 196.473,164.903 197.806,165.57 199,166.5C 193.941,118.069 204.608,73.4023 231,32.5C 239.287,21.0476 248.121,10.0476 257.5,-0.5 Z M 283.5,271.5 C 285.604,271.201 287.604,271.534 289.5,272.5C 290.559,275.618 291.892,278.618 293.5,281.5C 288.352,283.29 283.019,284.624 277.5,285.5C 275.643,281.619 273.643,277.786 271.5,274C 275.637,273.161 279.637,272.327 283.5,271.5 Z"/></g>
<g><path style="opacity:1" fill="#a1b74a" d="M 259.5,7.5 C 280.81,34.477 294.31,65.1436 300,99.5C 305.096,140.563 292.262,174.729 261.5,202C 250.315,201.102 239.815,203.268 230,208.5C 226.099,194.366 218.432,182.699 207,173.5C 198.122,109.64 215.622,54.3069 259.5,7.5 Z"/></g>
<g><path style="opacity:1" fill="#fcfcfc" d="M 140.5,115.5 C 151.029,134.675 154.196,155.009 150,176.5C 144.006,185.049 135.84,187.883 125.5,185C 109.171,177.662 95.1712,167.162 83.5,153.5C 87.8468,152.778 92.1802,152.112 96.5,151.5C 97.4941,146.544 97.8275,141.544 97.5,136.5C 102.511,136.666 107.511,136.499 112.5,136C 113.148,131.601 114.481,127.434 116.5,123.5C 117.667,123.167 118.833,122.833 120,122.5C 124.479,123.78 128.979,124.613 133.5,125C 135.25,121.415 137.583,118.248 140.5,115.5 Z"/></g>
<g><path style="opacity:1" fill="#fafafa" d="M 74.5,119.5 C 80.6947,123.182 86.1947,127.849 91,133.5C 91.499,137.821 91.6657,142.154 91.5,146.5C 86.3249,146.272 81.3249,147.105 76.5,149C 75.4464,150.388 75.2797,151.888 76,153.5C 84.5766,164.079 94.4099,173.245 105.5,181C 101.66,184.92 96.9936,187.253 91.5,188C 74.0173,189.137 57.3506,185.97 41.5,178.5C 44.3617,175.812 47.5283,173.479 51,171.5C 51.6667,170.167 51.6667,168.833 51,167.5C 48.9702,164.774 47.4702,161.774 46.5,158.5C 46.6082,157.558 46.9415,156.725 47.5,156C 50.935,154.301 54.435,152.801 58,151.5C 57.999,147.638 57.499,143.805 56.5,140C 56.8333,138.5 57.1667,137 57.5,135.5C 61.9175,133.396 66.5842,132.229 71.5,132C 72,131.5 72.5,131 73,130.5C 73.2401,126.748 73.7401,123.081 74.5,119.5 Z"/></g>
<g><path style="opacity:1" fill="#fcfcfc" d="M 344.5,120.5 C 346.716,125.131 347.883,130.131 348,135.5C 348.5,136 349,136.5 349.5,137C 355.107,136.649 360.773,136.483 366.5,136.5C 366.334,142.176 366.501,147.843 367,153.5C 373.073,153.733 378.739,155.4 384,158.5C 384.4,164.338 383.566,170.004 381.5,175.5C 383.05,178.808 385.717,180.975 389.5,182C 391.361,183.028 392.695,184.528 393.5,186.5C 372.734,198.442 350.4,203.942 326.5,203C 317.768,200.683 312.268,195.183 310,186.5C 309.196,180.431 309.529,174.431 311,168.5C 319.241,150.431 330.408,134.431 344.5,120.5 Z"/></g>
<g><path style="opacity:1" fill="#fbfbfb" d="M 194.5,172.5 C 206.925,179.428 216.091,189.428 222,202.5C 223.457,206.741 223.791,211.074 223,215.5C 220.953,219.761 218.787,223.928 216.5,228C 217.385,231.178 219.218,232.011 222,230.5C 224.535,224.592 227.702,219.092 231.5,214C 240.548,208.911 250.215,207.244 260.5,209C 265.21,209.375 269.877,210.042 274.5,211C 275.308,211.308 275.975,211.808 276.5,212.5C 274.628,224.992 270.461,236.658 264,247.5C 260.799,251.036 257.299,254.203 253.5,257C 248.5,257.333 243.5,257.667 238.5,258C 237.167,259.667 237.167,261.333 238.5,263C 243.5,263.333 248.5,263.667 253.5,264C 263.684,270.858 269.85,280.358 272,292.5C 273.414,299.785 273.747,307.118 273,314.5C 254.608,317.653 238.274,313.32 224,301.5C 221.066,295.79 218.732,289.79 217,283.5C 214.52,281.91 212.687,282.41 211.5,285C 212.833,289.333 214.167,293.667 215.5,298C 210.143,310.355 201.143,319.022 188.5,324C 183.515,325.661 178.515,327.161 173.5,328.5C 171.514,320.889 169.681,313.222 168,305.5C 166.752,297.192 167.752,289.192 171,281.5C 175.214,277.618 179.714,274.118 184.5,271C 185.813,267.308 184.48,265.641 180.5,266C 176.452,269.716 172.118,273.05 167.5,276C 156.997,276.088 147.664,272.755 139.5,266C 134.833,261.333 130.167,256.667 125.5,252C 133.419,243.076 142.753,236.076 153.5,231C 161.592,229.095 169.759,227.928 178,227.5C 177.401,222.011 176.567,216.511 175.5,211C 177.448,195.939 183.781,183.105 194.5,172.5 Z"/></g>
<g><path style="opacity:1" fill="#fbfbfb" d="M 457.5,204.5 C 459.527,204.338 461.527,204.505 463.5,205C 461.793,208.248 459.96,211.415 458,214.5C 457.333,215.5 457.333,216.5 458,217.5C 462.006,219.918 465.506,222.918 468.5,226.5C 465.624,230.206 462.957,234.039 460.5,238C 464.605,241.114 467.605,245.114 469.5,250C 465.966,253.869 462.133,257.369 458,260.5C 459.12,264.772 460.287,269.105 461.5,273.5C 441.022,270.628 423.188,262.295 408,248.5C 402.462,238.743 403.628,229.91 411.5,222C 419.553,215.807 428.553,211.474 438.5,209C 445.068,207.914 451.401,206.414 457.5,204.5 Z"/></g>
<g><path style="opacity:1" fill="#fbfbfb" d="M 114.5,219.5 C 124.404,221.022 133.404,224.688 141.5,230.5C 133.591,235.904 126.424,242.237 120,249.5C 119.333,251.167 119.333,252.833 120,254.5C 131.107,269.777 145.94,279.11 164.5,282.5C 161.731,289.579 160.898,296.912 162,304.5C 163.264,314.558 165.931,324.225 170,333.5C 170.893,334.081 171.893,334.415 173,334.5C 178.489,333.058 183.989,331.725 189.5,330.5C 189.5,336.167 189.5,341.833 189.5,347.5C 176.24,346.19 164.073,349.19 153,356.5C 148.427,353.934 144.427,350.601 141,346.5C 139.872,341.861 138.872,337.195 138,332.5C 135.486,329.823 133.653,330.323 132.5,334C 136.285,343.179 134.785,351.345 128,358.5C 118.241,367.381 106.907,373.381 94,376.5C 87.0931,361.302 85.7597,345.636 90,329.5C 94.4851,325.592 99.1518,321.926 104,318.5C 104.779,316.094 103.946,314.427 101.5,313.5C 96.6544,316.757 91.9878,320.257 87.5,324C 77.9974,324.167 69.3308,321.5 61.5,316C 56.0319,311.533 50.8653,306.7 46,301.5C 45.3333,300.5 45.3333,299.5 46,298.5C 54.4752,289.688 64.3085,282.855 75.5,278C 81.4308,276.529 87.4308,276.196 93.5,277C 96.535,280.37 99.8683,283.37 103.5,286C 107.111,287.254 108.611,286.088 108,282.5C 103.965,278.8 100.298,274.8 97,270.5C 94.335,259.795 95.335,249.462 100,239.5C 104.108,232.273 108.942,225.606 114.5,219.5 Z"/></g>
<g><path style="opacity:1" fill="#fbfbfb" d="M 356.5,227.5 C 359.85,227.335 363.183,227.502 366.5,228C 364.021,232.458 361.688,236.958 359.5,241.5C 359.608,242.442 359.941,243.275 360.5,244C 365.408,245.924 369.408,248.924 372.5,253C 369.368,257.436 366.368,261.936 363.5,266.5C 367.111,270.607 370.111,275.107 372.5,280C 372.081,283.425 370.414,286.091 367.5,288C 356.858,286.56 346.192,284.894 335.5,283C 324.5,282.667 313.5,282.333 302.5,282C 292.184,268.828 293.517,256.828 306.5,246C 321.886,236.162 338.552,229.995 356.5,227.5 Z"/></g>
<g><path style="opacity:1" fill="#0c0b09" d="M 203.5,233.5 C 204.873,233.343 206.207,233.51 207.5,234C 208.376,235.586 209.376,237.086 210.5,238.5C 214.794,239.645 218.461,241.812 221.5,245C 224.06,244.562 226.56,244.729 229,245.5C 229.449,248.094 228.449,250.094 226,251.5C 225.919,256.187 225.085,260.687 223.5,265C 225.09,266.046 226.59,267.213 228,268.5C 228.816,271.738 227.65,273.238 224.5,273C 222.714,272.215 221.214,271.049 220,269.5C 214.774,273.103 208.941,275.103 202.5,275.5C 201.988,278.532 200.322,279.699 197.5,279C 196.281,276.717 196.281,274.384 197.5,272C 195.681,269.511 193.848,267.011 192,264.5C 191.023,262.26 190.523,259.927 190.5,257.5C 186.64,257.701 184.806,256.035 185,252.5C 186.396,250.473 188.062,250.14 190,251.5C 193.035,245.632 197.535,241.298 203.5,238.5C 202.185,236.801 202.185,235.135 203.5,233.5 Z"/></g>
<g><path style="opacity:1" fill="#f8cb55" d="M 203.5,244.5 C 218.166,244.33 222.666,250.997 217,264.5C 208.099,270.941 201.099,269.274 196,259.5C 195.306,252.888 197.806,247.888 203.5,244.5 Z"/></g>
<g><path style="opacity:1" fill="#0d0c0b" d="M 122.5,281.5 C 126.4,280.991 128.733,282.658 129.5,286.5C 133.544,287.356 137.211,289.022 140.5,291.5C 142.429,290.62 144.263,289.62 146,288.5C 148.978,289.27 149.811,290.937 148.5,293.5C 146.833,294.667 145.167,295.833 143.5,297C 144.768,299.141 145.435,301.474 145.5,304C 144.907,306.509 144.741,309.009 145,311.5C 147.178,312.647 148.678,314.313 149.5,316.5C 149.566,318.266 148.732,319.266 147,319.5C 144.845,318.756 142.845,317.756 141,316.5C 135.459,321.515 128.959,323.515 121.5,322.5C 121.185,327.041 119.351,328.041 116,325.5C 115.845,323.144 115.845,320.811 116,318.5C 112.017,315.018 109.517,310.685 108.5,305.5C 103.946,305.137 102.612,302.971 104.5,299C 106.488,298.82 108.488,298.986 110.5,299.5C 112.167,293.167 116.167,289.167 122.5,287.5C 122.5,285.5 122.5,283.5 122.5,281.5 Z"/></g>
<g><path style="opacity:1" fill="#a0b64a" d="M 292.5,288.5 C 345.503,285.084 394.17,297.917 438.5,327C 449.012,334.423 459.345,342.09 469.5,350C 470.451,350.718 470.617,351.551 470,352.5C 424.443,384.612 374.276,395.112 319.5,384C 310.331,381.666 301.331,378.832 292.5,375.5C 292.167,375 291.833,374.5 291.5,374C 297.182,363.922 300.182,353.256 300.5,342C 283.498,334.974 266.165,333.808 248.5,338.5C 248.112,331.668 246.112,325.335 242.5,319.5C 242.833,319.167 243.167,318.833 243.5,318.5C 250.126,320.84 256.959,321.84 264,321.5C 268.853,321.719 273.519,321.052 278,319.5C 278.752,310.132 278.585,300.799 277.5,291.5C 282.647,290.604 287.647,289.604 292.5,288.5 Z"/></g>
<g><path style="opacity:1" fill="#f8cb55" d="M 123.5,292.5 C 136.908,292.719 141.408,299.053 137,311.5C 131.833,317 126,317.833 119.5,314C 113.116,305.202 114.45,298.036 123.5,292.5 Z"/></g>
<g><path style="opacity:1" fill="#fcfcfc" d="M 218.5,305.5 C 223.696,309.025 228.863,312.691 234,316.5C 240.331,324.822 242.998,334.156 242,344.5C 239.916,348.336 237.583,352.003 235,355.5C 233.894,359.897 235.394,361.23 239.5,359.5C 242.463,354.406 245.796,349.572 249.5,345C 252.089,343.803 254.756,342.803 257.5,342C 270.101,340.686 282.435,341.853 294.5,345.5C 293.043,358.037 288.543,369.371 281,379.5C 273.767,388.781 264.267,392.281 252.5,390C 251.14,391.938 251.473,393.604 253.5,395C 258.614,395.109 263.614,395.776 268.5,397C 282.723,411.046 287.39,427.879 282.5,447.5C 268.546,449.263 255.546,446.429 243.5,439C 239.667,436.5 236.5,433.333 234,429.5C 231.953,423.598 230.287,417.598 229,411.5C 227.644,410.62 226.144,410.286 224.5,410.5C 224.567,416.067 225.233,421.567 226.5,427C 222.941,435.561 216.941,441.894 208.5,446C 200.137,449.622 191.47,452.122 182.5,453.5C 180.52,444.954 179.187,436.287 178.5,427.5C 178.609,420.508 180.109,413.841 183,407.5C 187.893,403.609 193.06,400.109 198.5,397C 200.367,393.359 199.367,391.692 195.5,392C 190.999,394.416 186.666,397.083 182.5,400C 173.461,400.543 165.461,397.876 158.5,392C 152.092,386.262 146.425,379.929 141.5,373C 150.922,364.58 161.589,358.246 173.5,354C 179.5,353.333 185.5,353.333 191.5,354C 194.464,357.966 197.797,361.633 201.5,365C 205.088,365.611 206.254,364.111 205,360.5C 202,356.833 199,353.167 196,349.5C 195.333,343.167 195.333,336.833 196,330.5C 196.346,328.152 197.513,326.319 199.5,325C 208.071,320.596 214.405,314.096 218.5,305.5 Z"/></g>
<g><path style="opacity:1" fill="#100f0c" d="M 220.5,361.5 C 221.873,361.343 223.207,361.51 224.5,362C 225.599,366.728 228.599,369.395 233.5,370C 235.355,371.855 237.188,373.688 239,375.5C 241.403,373.017 243.736,373.017 246,375.5C 245.627,378.277 243.961,380.277 241,381.5C 240.776,385.797 239.943,389.963 238.5,394C 239.833,396 241.167,398 242.5,400C 242.241,401.261 241.574,402.261 240.5,403C 237.728,402.948 235.394,401.781 233.5,399.5C 228.129,401.946 222.463,403.113 216.5,403C 215.531,406.075 213.531,407.075 210.5,406C 209.202,403.501 209.536,401.167 211.5,399C 207.217,395.162 205.05,390.329 205,384.5C 201.09,383.76 199.256,381.427 199.5,377.5C 201.591,377.318 203.591,377.652 205.5,378.5C 208.441,372.55 213.108,368.884 219.5,367.5C 219.325,365.379 219.659,363.379 220.5,361.5 Z"/></g>
<g><path style="opacity:1" fill="#fbce56" d="M 217.5,373.5 C 230.156,371.657 235.656,376.99 234,389.5C 230.677,395.908 225.511,398.075 218.5,396C 211.93,392.345 209.763,386.845 212,379.5C 213.36,376.977 215.193,374.977 217.5,373.5 Z"/></g>
<g><path style="opacity:1" fill="#b45862" d="M 92.5,508.5 C 88.1667,508.5 83.8333,508.5 79.5,508.5C 90.5667,461.705 110.733,419.371 140,381.5C 142.382,384.427 144.882,387.261 147.5,390C 121.254,425.667 102.921,465.167 92.5,508.5 Z"/></g>
</svg>
