<?xml version="1.0" encoding="UTF-8"?>
<svg version="1.1" xmlns="http://www.w3.org/2000/svg" width="512" height="512">
<path d="M0 0 C7.08678135 5.02047608 11.87036884 15.74092033 13.87890625 24.0234375 C13.96914063 24.68472656 14.059375 25.34601563 14.15234375 26.02734375 C18.68921636 23.47422918 23.13940078 20.81752543 27.55957031 18.06787109 C49.4997684 4.44803507 49.4997684 4.44803507 57.15234375 4.02734375 C60.32240039 5.44187072 61.82767306 6.27542604 63.2223053 9.50531006 C63.42359543 10.47132141 63.62488556 11.43733276 63.83227539 12.43261719 C64.06198029 13.50668823 64.29168518 14.58075928 64.52835083 15.68737793 C65.51416789 20.96403278 66.44745483 26.23868333 67.2734375 31.54296875 C67.45838272 32.70575348 67.64332794 33.86853821 67.83387756 35.06655884 C68.42555065 38.80251928 69.00839037 42.53978013 69.58984375 46.27734375 C69.78932617 47.54902405 69.98880859 48.82070435 70.19433594 50.13092041 C85.72402697 149.22179013 85.72402697 149.22179013 61.17578125 183.8125 C47.09411725 201.9615769 26.30095008 216.45267141 3.15234375 220.02734375 C0.8190654 220.04336239 -1.51438916 220.04492561 -3.84765625 220.02734375 C-3.80940215 227.92147839 -3.74975883 235.81505364 -3.66375351 243.70879841 C-3.62445747 247.37529956 -3.59218258 251.04156698 -3.57666016 254.70825195 C-3.56137412 258.25528187 -3.52672246 261.80166842 -3.47934723 265.34840965 C-3.45756725 267.34157344 -3.45519284 269.33491941 -3.45330811 271.32820129 C-3.2688199 282.93395118 -0.48121782 293.05366804 7.15234375 302.02734375 C17.09394064 311.49999739 27.62171175 314.54998393 41.03125 314.3046875 C54.84024529 313.66822613 64.24643469 304.69190432 73.15234375 295.02734375 C78.13827253 289.36939849 81.929392 283.47108225 82.24609375 275.73828125 C81.90967874 270.84344293 80.47524076 267.01604944 78.08984375 262.75390625 C77.15234375 261.02734375 77.15234375 261.02734375 76.15234375 258.02734375 C74.45465141 256.92565391 74.45465141 256.92565391 72.15234375 256.02734375 C70.51265625 255.22296875 70.51265625 255.22296875 68.83984375 254.40234375 C63.31908817 252.34375692 59.30588437 252.28170302 53.96484375 254.71484375 C49.82157191 256.97116039 47.26773068 259.7965699 45.15234375 264.02734375 C44.72601303 267.11824144 44.47852205 269.04778842 45.15234375 272.02734375 C46.69851888 274.11161532 46.69851888 274.11161532 48.65234375 276.02734375 C51.29201167 278.75285452 52.7026663 280.42642154 52.90234375 284.27734375 C52.15234375 288.02734375 52.15234375 288.02734375 50.08984375 290.58984375 C46.17172803 292.50721953 44.3147495 292.26876301 40.15234375 291.02734375 C33.7454614 287.05507669 30.26380359 280.70386344 28.53125 273.4140625 C27.16763413 264.8246883 28.88042844 256.78765245 33.96484375 249.71484375 C39.65253542 242.78645463 46.10428749 238.88828414 54.58984375 236.27734375 C66.84723998 235.08150022 75.80742734 237.16854376 85.671875 244.79296875 C92.14517735 250.62403795 95.283168 257.94301913 98.15234375 266.02734375 C101.94149983 262.93415512 105.37102022 259.8926241 108.52734375 256.15234375 C120.1226033 242.62023683 137.12084383 231.85210273 155.15234375 230.02734375 C159.25749487 229.80350468 163.35401219 229.733802 167.46484375 229.71484375 C168.4911792 229.70928467 169.51751465 229.70372559 170.57495117 229.69799805 C176.43605136 229.75374544 181.53464231 230.34270449 187.15234375 232.02734375 C187.23484375 230.87234375 187.31734375 229.71734375 187.40234375 228.52734375 C188.4398275 220.6839666 191.89958328 215.4601245 198.0078125 210.5078125 C202.60125873 207.33674488 206.37111169 205.99814322 211.96484375 206.08984375 C215.15234375 207.02734375 215.15234375 207.02734375 217.08984375 208.90234375 C218.15234375 211.02734375 218.15234375 211.02734375 218.15234375 214.02734375 C219.05984375 214.29546875 219.96734375 214.56359375 220.90234375 214.83984375 C224.15234375 216.02734375 224.15234375 216.02734375 226.08984375 217.58984375 C228.21886539 219.31151416 228.21886539 219.31151416 231.65234375 219.46484375 C235.62999037 220.10410839 236.78420056 220.83945869 239.15234375 224.02734375 C241.4173588 231.33923798 240.39102577 237.88917556 237.35546875 244.8046875 C235.72917459 247.80910756 233.74138183 249.81718929 231.15234375 252.02734375 C230.22421875 252.95546875 229.29609375 253.88359375 228.33984375 254.83984375 C227.61796875 255.56171875 226.89609375 256.28359375 226.15234375 257.02734375 C226.50425781 257.44242187 226.85617187 257.8575 227.21875 258.28515625 C240.60067828 274.98636178 243.77107422 293.15182913 242.15234375 314.02734375 C240.22929141 328.475877 232.33855037 340.96219561 222.15234375 351.02734375 C221.46527344 351.73632812 220.77820313 352.4453125 220.0703125 353.17578125 C208.46790064 364.41225433 193.05112909 369.54369847 177.08789062 369.38134766 C160.88073458 368.83359861 147.36739486 361.8567316 136.3359375 350.08984375 C127.23316424 338.68166838 122.91847446 325.53525845 124.15234375 311.02734375 C125.99760753 298.39567442 131.741316 288.12774688 141.53515625 279.94140625 C146.74761795 276.12930739 151.57484783 273.35992387 158.02734375 272.52734375 C161.45384847 273.07558451 162.91956132 273.36518009 165.15234375 276.02734375 C166.28198612 279.83988676 166.66680507 281.97269804 164.90234375 285.58984375 C162.24691956 287.94351519 159.91106194 289.2842522 156.77734375 290.90234375 C148.4411318 295.28690263 144.77480878 300.32672095 141.83984375 309.25390625 C140.18399438 315.93375313 140.96142465 321.59151889 143.15234375 328.02734375 C143.29929687 327.13273437 143.44625 326.238125 143.59765625 325.31640625 C145.72110027 313.86933449 149.00159226 305.35253956 158.75390625 298.5 C167.64354561 293.04170352 175.74004615 291.91774476 186.15234375 293.02734375 C194.26113744 295.01991198 200.25592693 298.92598458 204.90234375 305.90234375 C209.21622647 313.33720271 210.32049293 321.00990299 208.6875 329.421875 C206.66125903 336.45976524 202.83004543 341.62883781 196.52734375 345.40234375 C190.7685635 348.17508979 185.50122773 348.6138695 179.15234375 348.02734375 C175.46611364 346.41461808 174.39879375 345.39701875 172.15234375 342.02734375 C172.47679428 335.97093381 172.47679428 335.97093381 174.36328125 333.3359375 C176.80237589 331.55188356 178.59406924 331.65894574 181.58984375 331.58984375 C186.01676238 331.34515927 186.01676238 331.34515927 189.77734375 329.08984375 C192.37801439 325.18883779 192.2906417 322.86626515 191.73046875 318.2890625 C190.84068001 314.80806466 188.95119714 313.15980347 186.15234375 311.02734375 C180.60348812 309.17772521 175.21081135 309.22836773 169.83984375 311.65234375 C165.12611438 314.29090541 162.84411748 317.95202255 161.15234375 323.02734375 C160.44904283 330.16411863 160.73670618 336.18094093 165.15234375 342.02734375 C170.90098556 348.21630706 175.91461925 351.00950377 184.40234375 351.40234375 C195.54489208 351.14567258 203.46161909 345.45702599 211.28125 337.99609375 C221.41672811 327.37980548 225.62791021 314.9340714 225.58178711 300.50732422 C225.1987647 284.81692385 218.13947884 271.49402882 206.96484375 260.65234375 C192.23622946 248.49416825 174.73043519 245.42489084 156.15234375 247.02734375 C151.52769726 247.85584823 147.44862601 249.14218001 143.15234375 251.02734375 C142.22550781 251.42824219 141.29867188 251.82914063 140.34375 252.2421875 C128.47588689 258.04986519 119.72295502 268.24711093 111.15234375 278.02734375 C109.36552556 279.99043997 107.57485997 281.94912474 105.77734375 283.90234375 C104.84501301 284.91793288 103.91272158 285.9335581 102.98046875 286.94921875 C101.56587003 288.48903783 100.15109896 290.02869843 98.73632812 291.56835938 C97.33293098 293.09598531 95.93002855 294.62406373 94.52734375 296.15234375 C94.07077393 296.64943848 93.6142041 297.1465332 93.14379883 297.65869141 C90.22460704 300.84202795 87.33890043 304.05327331 84.46484375 307.27734375 C83.03086826 308.86386982 81.59353578 310.44737026 80.15234375 312.02734375 C79.4975 312.74921875 78.84265625 313.47109375 78.16796875 314.21484375 C70.17729417 322.65299611 57.92683936 330.5225525 45.95410156 331.14086914 C45.17905273 331.13563232 44.40400391 331.13039551 43.60546875 331.125 C42.76113281 331.12177734 41.91679687 331.11855469 41.046875 331.11523438 C40.17417969 331.10685547 39.30148437 331.09847656 38.40234375 331.08984375 C37.07009766 331.08307617 37.07009766 331.08307617 35.7109375 331.07617188 C33.52467046 331.06441775 31.33854196 331.04798624 29.15234375 331.02734375 C29.17852783 332.24728027 29.20471191 333.4672168 29.23168945 334.72412109 C29.32281848 339.29001211 29.37981916 343.85582428 29.42700195 348.42236328 C29.45200422 350.39125122 29.48601775 352.36004768 29.52954102 354.32861328 C29.99461869 375.91916054 29.99461869 375.91916054 24.15234375 383.02734375 C18.30454121 388.74990013 11.68620696 391.55009499 3.58984375 392.40234375 C-2.98889848 391.68466278 -7.91271154 389.4996374 -12.84765625 385.02734375 C-15.42675611 386.26531168 -17.8873422 387.63481931 -20.34765625 389.08984375 C-25.78430787 392.18827444 -30.7582243 392.89524478 -37.01953125 391.56640625 C-43.71644253 389.60351846 -49.5234216 386.5742527 -53.421875 380.625 C-57.25883036 373.31389594 -58.00130526 366.77325166 -57.9453125 358.56640625 C-57.94319008 357.38055435 -57.94319008 357.38055435 -57.94102478 356.17074585 C-57.93546129 353.66457209 -57.92291569 351.15849017 -57.91015625 348.65234375 C-57.90513653 346.9453138 -57.90057445 345.23828243 -57.89648438 343.53125 C-57.88550384 339.36324627 -57.86826464 335.19531054 -57.84765625 331.02734375 C-59.68251587 331.05671021 -59.68251587 331.05671021 -61.55444336 331.08666992 C-63.18212453 331.10250682 -64.80981044 331.11786215 -66.4375 331.1328125 C-67.24102905 331.1469519 -68.04455811 331.16109131 -68.87243652 331.17565918 C-75.8020726 331.22330374 -81.52004501 329.91996603 -87.84765625 327.02734375 C-88.63269531 326.67671875 -89.41773438 326.32609375 -90.2265625 325.96484375 C-96.67318054 322.73592898 -101.69251927 317.99896452 -106.84765625 313.02734375 C-107.56179687 312.3415625 -108.2759375 311.65578125 -109.01171875 310.94921875 C-112.75403846 307.27914459 -116.25316887 303.46562976 -119.66796875 299.4921875 C-122.66108778 296.10749555 -125.75587886 292.82180119 -128.84765625 289.52734375 C-136.22143577 281.66503819 -136.22143577 281.66503819 -139.41015625 277.96484375 C-140.55419744 276.65078133 -141.70034726 275.33855402 -142.84765625 274.02734375 C-143.29931152 273.50785156 -143.7509668 272.98835938 -144.21630859 272.453125 C-155.16540067 259.94776425 -168.52421893 248.14596654 -186.05493164 246.86621094 C-204.57513932 246.54086361 -220.44409606 248.81884325 -235.16015625 261.08984375 C-245.94454312 271.55443002 -252.90084757 285.33039963 -253.87890625 300.44140625 C-253.6944696 315.70353864 -248.31215969 328.32640166 -237.75 339.18359375 C-229.70720397 346.78666019 -220.92465389 351.4588701 -209.76171875 351.296875 C-203.07773688 350.67865148 -198.44494931 348.03309009 -193.91015625 343.15234375 C-189.18650607 337.2149779 -188.01436376 331.4879156 -188.84765625 324.02734375 C-190.75657724 317.99917219 -193.5863217 313.92978891 -199.09765625 310.71484375 C-204.36782281 309.39730211 -209.06195485 309.43210995 -214.22265625 311.15234375 C-217.5648261 313.53960793 -218.61146977 315.10063376 -219.84765625 319.02734375 C-219.97607877 322.15764261 -219.88272244 325.05789157 -218.84765625 328.02734375 C-215.85219963 331.07738728 -213.52068985 331.34502186 -209.34765625 331.40234375 C-204.19271328 331.76070877 -204.19271328 331.76070877 -201.09765625 334.15234375 C-199.45349833 337.93390696 -199.75277755 340.08578043 -200.84765625 344.02734375 C-202.742995 346.6118966 -203.73592142 346.99009881 -206.84765625 348.02734375 C-215.25673853 348.80402631 -221.9278336 347.57355112 -228.59765625 342.27734375 C-233.65098655 337.63935567 -236.47337617 332.21191781 -237.0859375 325.36328125 C-237.32796576 315.70762762 -235.3188095 307.76728733 -228.625 300.5625 C-220.82390737 293.8244134 -212.86553588 292.46839343 -202.81640625 292.68359375 C-194.03178266 293.44446666 -185.64927791 297.28853705 -179.84765625 304.02734375 C-174.14414505 311.33919104 -172.33224339 318.98959396 -170.84765625 328.02734375 C-167.52302873 318.26125042 -168.35060769 310.36191143 -172.84765625 301.02734375 C-176.55991356 294.51505617 -182.42014259 291.85968191 -189.01953125 288.703125 C-191.93734136 286.97420161 -192.89331348 286.22501174 -193.84765625 283.02734375 C-193.71851212 279.346736 -193.62625016 276.95566725 -191.22265625 274.08984375 C-187.680728 272.5052969 -185.74033634 272.47124659 -181.84765625 273.02734375 C-169.26741232 278.22311772 -160.50552291 286.69963428 -154.84765625 299.02734375 C-149.85400235 312.74656372 -150.9704434 325.9564622 -157.03515625 339.08984375 C-164.75393184 353.54250665 -176.66796429 362.40840583 -191.9765625 367.7734375 C-207.5115286 372.04776404 -223.6740279 368.45400503 -237.51953125 360.97265625 C-253.60422183 351.57104133 -263.49120407 336.66243246 -268.84765625 319.02734375 C-273.35882659 299.308732 -268.9399422 280.09400961 -258.84765625 263.02734375 C-257.24049812 260.64177203 -255.5633379 258.3378349 -253.84765625 256.02734375 C-254.36714844 255.69863281 -254.88664063 255.36992187 -255.421875 255.03125 C-262.01312371 250.53555541 -266.27968648 244.97695047 -267.84765625 237.02734375 C-268.80346131 229.11453134 -266.9936532 221.43662963 -262.33984375 214.9140625 C-257.53557149 209.69639937 -252.00902629 206.57282063 -244.95703125 205.6484375 C-236.838517 205.3257786 -229.84787752 206.62000025 -223.5546875 211.98046875 C-217.86930206 217.90403974 -214.84765625 223.77330948 -214.84765625 232.02734375 C-213.76484375 231.70507812 -212.68203125 231.3828125 -211.56640625 231.05078125 C-192.63569848 226.35137444 -171.86773572 230.20240941 -155.2578125 239.88671875 C-144.09754747 246.72117947 -135.26738718 256.13415991 -126.84765625 266.02734375 C-125.7872104 263.93055309 -124.75563824 261.82830479 -123.76953125 259.6953125 C-118.6757078 248.9133862 -111.97354361 241.79782006 -100.7109375 237.14453125 C-91.13192768 234.38546554 -81.5524639 235.82649525 -72.6875 240.05859375 C-64.11605086 244.94712736 -58.75570259 252.08899343 -56.16015625 261.52734375 C-55.05939617 270.3334244 -56.53009395 278.18455022 -61.72265625 285.46484375 C-64.14172036 288.4010051 -66.20097967 290.69319378 -69.84765625 292.02734375 C-73.26556467 291.90948484 -75.77329324 291.61651056 -78.78515625 289.96484375 C-80.57612531 286.698959 -80.67811303 283.56976094 -79.84765625 280.02734375 C-78.4835035 277.94051485 -77.00431827 276.24806401 -75.2578125 274.47265625 C-73.04260125 272.20221812 -72.84557154 271.00566273 -72.53515625 267.77734375 C-72.90970229 263.28279131 -73.95485596 261.4530283 -76.84765625 258.02734375 C-82.1989442 253.9865753 -86.11580139 252.38621472 -92.84765625 253.02734375 C-98.76950537 254.86386658 -102.9584823 257.44164366 -106.41015625 262.65234375 C-109.62982324 268.8348382 -110.61167394 274.61146168 -109.421875 281.48828125 C-106.75847022 289.92922562 -100.00141375 295.97494225 -93.84765625 302.02734375 C-93.10644531 302.76726562 -92.36523438 303.5071875 -91.6015625 304.26953125 C-82.6526611 312.66025167 -72.86115647 314.5221311 -60.96484375 314.3046875 C-51.10815753 313.85049357 -41.65198436 309.06950989 -34.875 301.95703125 C-28.13866897 293.74757475 -24.79615534 285.47378092 -24.64233398 274.86010742 C-24.62238876 273.63921921 -24.60244354 272.41833099 -24.58189392 271.16044617 C-24.56518143 269.85195206 -24.54846893 268.54345795 -24.53125 267.1953125 C-24.51066045 265.83481747 -24.48966347 264.47432856 -24.46827698 263.11384583 C-24.41326278 259.54486052 -24.36376308 255.97581948 -24.31542969 252.40673828 C-24.26506319 248.76004109 -24.20945645 245.11342416 -24.15429688 241.46679688 C-24.04696821 234.32038224 -23.94546782 227.1738955 -23.84765625 220.02734375 C-24.92958252 220.04176514 -26.01150879 220.05618652 -27.1262207 220.07104492 C-46.44534493 219.84417861 -66.14710133 207.94619303 -79.87109375 195.0703125 C-91.32255839 183.23411486 -98.93521103 169.6093172 -103.84765625 154.02734375 C-104.18925781 152.96644531 -104.53085938 151.90554687 -104.8828125 150.8125 C-109.20032654 134.56659833 -110.80079731 105.4186743 -102.84765625 90.02734375 C-98.70972522 87.02734375 -98.70972522 87.02734375 -95.84765625 87.02734375 C-95.51765625 84.05734375 -95.18765625 81.08734375 -94.84765625 78.02734375 C-96.16765625 77.36734375 -97.48765625 76.70734375 -98.84765625 76.02734375 C-104.58346068 67.4236371 -98.10596932 48.09456967 -96.51904297 38.38623047 C-95.96971401 35.00925647 -95.43769425 31.62982899 -94.90625 28.25 C-94.55703845 26.0922779 -94.20681432 23.93471939 -93.85546875 21.77734375 C-93.62091476 20.26950317 -93.62091476 20.26950317 -93.38162231 18.73120117 C-91.9002265 9.8578678 -91.9002265 9.8578678 -88.84765625 6.02734375 C-86.02909126 4.30870656 -84.13997195 3.74950862 -80.8671875 4.453125 C-67.66596168 9.24737396 -54.82861672 17.36834849 -43.84765625 26.02734375 C-43.05101562 24.39925781 -43.05101562 24.39925781 -42.23828125 22.73828125 C-41.52495715 21.29286136 -40.81140324 19.84755486 -40.09765625 18.40234375 C-39.74960938 17.68949219 -39.4015625 16.97664063 -39.04296875 16.2421875 C-34.85443971 7.78756406 -30.45213436 0.22910301 -21.34765625 -3.34765625 C-13.38475396 -4.76960309 -7.10817153 -3.74193385 0 0 Z M-14.84765625 302.02734375 C-16.09265212 303.65151102 -17.26808094 305.32922773 -18.41015625 307.02734375 C-24.94842385 316.19269906 -31.78950997 321.22747119 -41.84765625 326.02734375 C-41.92210536 331.59575514 -41.97639943 337.16387339 -42.01245117 342.73266602 C-42.02748871 344.62497 -42.0479241 346.51723941 -42.07397461 348.40942383 C-42.11058024 351.13761961 -42.12743315 353.86535246 -42.140625 356.59375 C-42.15610886 357.43257217 -42.17159271 358.27139435 -42.18754578 359.13563538 C-42.18907078 364.52176927 -41.44891015 368.27475158 -38.84765625 373.02734375 C-35.76198949 375.17389454 -33.92221301 376.05233344 -30.16015625 375.96484375 C-27.29087409 374.80162125 -26.26027225 373.77409708 -24.84765625 371.02734375 C-24.89139864 368.9707731 -24.89139864 368.9707731 -25.84765625 367.02734375 C-27.89022602 365.7474818 -27.89022602 365.7474818 -30.34765625 364.90234375 C-34.75372279 363.21521068 -34.75372279 363.21521068 -35.84765625 361.02734375 C-36.30974168 354.67366904 -36.30974168 354.67366904 -34.6328125 352.328125 C-31.18281669 349.81423309 -26.91990206 350.54451897 -22.84765625 351.02734375 C-19.47265625 352.40234375 -19.47265625 352.40234375 -16.84765625 354.02734375 C-16.06390625 354.41921875 -15.28015625 354.81109375 -14.47265625 355.21484375 C-13.93640625 355.48296875 -13.40015625 355.75109375 -12.84765625 356.02734375 C-12.08453125 355.38796875 -11.32140625 354.74859375 -10.53515625 354.08984375 C-6.93041126 351.32341155 -4.27708895 350.85644076 0.15234375 350.77734375 C1.01859375 350.7515625 1.88484375 350.72578125 2.77734375 350.69921875 C5.15234375 351.02734375 5.15234375 351.02734375 6.9453125 352.32421875 C8.9351718 355.13191667 8.44887513 357.70619235 8.15234375 361.02734375 C5.32680391 365.26565351 3.03053487 365.00449723 -1.84765625 366.02734375 C-2.79786041 368.26717875 -2.79786041 368.26717875 -2.84765625 371.02734375 C-0.91073256 374.04768112 -0.91073256 374.04768112 2.15234375 376.02734375 C6.22625278 376.19708996 7.7842161 375.32184587 10.96484375 372.77734375 C14.9459067 367.7725789 14.28823316 362.13597285 14.25 356.0078125 C14.24787758 354.71995598 14.24787758 354.71995598 14.24571228 353.40608215 C14.24013432 350.67563326 14.22758589 347.94526768 14.21484375 345.21484375 C14.2098259 343.35872515 14.20526349 341.50260525 14.20117188 339.64648438 C14.19017211 335.10673895 14.17292268 330.56705545 14.15234375 326.02734375 C13.49717773 325.72151367 12.84201172 325.41568359 12.16699219 325.10058594 C1.91805186 320.17400815 -5.94926476 313.55336833 -11.7265625 303.64453125 C-12.28150391 302.84402344 -12.28150391 302.84402344 -12.84765625 302.02734375 C-13.50765625 302.02734375 -14.16765625 302.02734375 -14.84765625 302.02734375 Z " fill="#000000" transform="translate(269.84765625,61.97265625)"/>
<path d="M0 0 C7.31705795 43.18750487 7.31705795 43.18750487 10 63 C10.15098145 64.10601562 10.30196289 65.21203125 10.45751953 66.3515625 C12.12540327 78.87418477 13.2765399 91.29722932 13.375 103.9375 C13.38885742 104.97269775 13.40271484 106.00789551 13.41699219 107.07446289 C13.28901376 127.87264104 3.56401946 146.55654362 -11 161 C-27.85663499 177.00201538 -48.17480149 181.54146616 -70.6953125 181.27734375 C-81.7593223 180.94729537 -96.83702841 178.16297159 -105 170 C-108.50022726 128.26652117 -88.99742805 83.02926733 -63.4375 51.125 C-61.97338636 49.40374812 -60.49388287 47.69547952 -59 46 C-58.17242187 45.05125 -57.34484375 44.1025 -56.4921875 43.125 C-18.2907133 0 -18.2907133 0 0 0 Z " fill="#D93F92" transform="translate(320,86)"/>
<path d="M0 0 C5.57325312 1.4903161 9.7908433 4.23241239 14.5 7.4375 C15.68106323 8.23450317 15.68106323 8.23450317 16.88598633 9.04760742 C26.91444687 15.8904019 36.70927133 23.07870887 45 32 C45.9075 32.9075 46.815 33.815 47.75 34.75 C48.4925 35.4925 49.235 36.235 50 37 C50.61875 37.515625 51.2375 38.03125 51.875 38.5625 C53 40 53 40 52.84765625 41.703125 C51.65292227 44.94046867 49.62305738 47.46030307 47.5625 50.1875 C26.31777146 79.22388147 13.41434572 113.27961424 9.359375 149.00390625 C9.03456508 151.71183244 8.57555493 154.33557762 8 157 C-3.83730222 148.62727404 -9.88073237 132.74163847 -13 119 C-14.86366188 106.46848044 -14.23790481 94.03504345 -12.71166992 81.50854492 C-12.16469604 76.98712143 -11.63214699 72.55792875 -12 68 C-14.86615486 65.50459629 -14.86615486 65.50459629 -18 64 C-17.67 60.7 -17.34 57.4 -17 54 C-15.88625 53.566875 -14.7725 53.13375 -13.625 52.6875 C-9.82487666 51.30088881 -9.82487666 51.30088881 -8 48 C-7.40483637 45.42868396 -7.40483637 45.42868396 -7.03515625 42.50390625 C-6.79696167 40.84270752 -6.79696167 40.84270752 -6.55395508 39.14794922 C-6.3917749 37.96475098 -6.22959473 36.78155273 -6.0625 35.5625 C-5.71361127 33.11847965 -5.36465225 30.67446933 -5.015625 28.23046875 C-4.84482422 27.01407715 -4.67402344 25.79768555 -4.49804688 24.54443359 C-3.78716337 19.48531268 -3.05562523 14.4294721 -2.3125 9.375 C-2.19334229 8.53525635 -2.07418457 7.6955127 -1.95141602 6.83032227 C-1.11345903 1.11345903 -1.11345903 1.11345903 0 0 Z " fill="#D83F91" transform="translate(192,86)"/>
<path d="M0 0 C7.31705795 43.18750487 7.31705795 43.18750487 10 63 C10.15098145 64.10601562 10.30196289 65.21203125 10.45751953 66.3515625 C12.12540327 78.87418477 13.2765399 91.29722932 13.375 103.9375 C13.38885742 104.97269775 13.40271484 106.00789551 13.41699219 107.07446289 C13.28901376 127.87264104 3.56401946 146.55654362 -11 161 C-20.42115122 169.94350544 -33.0242442 177.1463206 -46 179 C-42.65004448 176.27174794 -39.22533774 173.72802238 -35.6875 171.25 C-21.00313956 160.51157064 -11.59186496 146.20005987 -6 129 C-5.66097656 127.96359375 -5.32195312 126.9271875 -4.97265625 125.859375 C2.47242002 98.00037992 -5.35671257 65.76563566 -10 38 C-11.71092912 27.68296874 -13.39478812 17.45555694 -14 7 C-12.04480616 5.82807953 -10.0857461 4.6626071 -8.125 3.5 C-6.48917969 2.52546875 -6.48917969 2.52546875 -4.8203125 1.53125 C-2 0 -2 0 0 0 Z " fill="#C1237B" transform="translate(320,86)"/>
<path d="M0 0 C5.84408835 5.39454309 5.84408835 5.39454309 6 9 C4.41015625 11.55859375 4.41015625 11.55859375 2.0625 14.4375 C-22.85199034 46.09350126 -33.42221299 83.74519738 -39 123 C-44.75211031 118.43262832 -49.12690764 113.9153611 -52 107 C-52.34270522 102.73881618 -51.15459286 99.08383769 -50 95 C-49.60063754 93.28918055 -49.20798366 91.57678778 -48.8203125 89.86328125 C-45.63181773 76.21403941 -41.06016509 63.62513973 -35 51 C-34.60796387 50.18015625 -34.21592773 49.3603125 -33.81201172 48.515625 C-25.19975659 30.77557999 -13.99746607 13.99746607 0 0 Z " fill="#C1237B" transform="translate(239,120)"/>
<path d="M0 0 C4.86123354 3.88744113 6.93905121 8.4824183 9.3125 14.0625 C9.67150391 14.86494141 10.03050781 15.66738281 10.40039062 16.49414062 C12.09099069 20.37447029 13 22.66666782 13 27 C11.49609375 28.67578125 11.49609375 28.67578125 9.4375 30.3125 C5.3743021 33.65866298 1.66784269 37.22899923 -2 41 C-5.30949515 39.56588544 -7.39664885 37.79026636 -9.875 35.1875 C-13.09720225 31.87478645 -16.39330023 28.88535982 -20 26 C-18.32134114 20.27281094 -16.14801304 14.97097551 -13.5 9.625 C-13.20343506 9.01833496 -12.90687012 8.41166992 -12.60131836 7.78662109 C-9.36652658 1.38146493 -7.51382553 -1.03638973 0 0 Z " fill="#D95A9F" transform="translate(259,74)"/>
<path d="M0 0 C3.91211733 1.15585285 6.8745041 2.35534962 10 5 C8.125 8.875 8.125 8.875 7 10 C6.89392056 11.89469671 6.81531747 13.79096049 6.75 15.6875 C6.18795969 22.63035084 6.18795969 22.63035084 4 25.6875 C0.60855396 28.30173966 -1.55414721 29.08688683 -5.77734375 29.3125 C-9.67346466 28.76471499 -11.35907923 26.83898983 -14 24 C-15.6075634 20.78487321 -15.46362379 17.48725721 -15 14 C-12.53548533 9.48172311 -9.32275067 8.08380105 -4.83984375 6.046875 C-2.24778863 4.57199013 -1.19098184 2.67970913 0 0 Z " fill="#D42D3B" transform="translate(488,276)"/>
<path d="M0 0 C2.70567626 1.82339052 4.53728718 3.07457436 6 6 C6.49337839 10.93378393 6.52463704 13.06919235 4.0625 17.4375 C0.62252532 20.31584616 -1.37842288 21.07749922 -5.77734375 21.3125 C-9.67346466 20.76471499 -11.35907923 18.83898983 -14 16 C-15.60306924 12.79386153 -15.48740461 9.47860003 -15 6 C-11.04014817 -0.50547086 -7.32975767 -1.80029136 0 0 Z " fill="#D32C3B" transform="translate(33,284)"/>
</svg>
