<?xml version="1.0" standalone="no"?>
<!DOCTYPE svg PUBLIC "-//W3C//DTD SVG 20010904//EN"
 "http://www.w3.org/TR/2001/REC-SVG-20010904/DTD/svg10.dtd">
<svg version="1.0" xmlns="http://www.w3.org/2000/svg"
 width="512.000000pt" height="512.000000pt" viewBox="0 0 512.000000 512.000000"
 preserveAspectRatio="xMidYMid meet">

<g transform="translate(0.000000,512.000000) scale(0.100000,-0.100000)"
fill="#000000" stroke="none">
<path d="M2402 4954 c-192 -175 -226 -192 -535 -274 -188 -50 -269 -91 -363
-185 -54 -54 -81 -92 -112 -156 -39 -78 -72 -180 -72 -220 0 -15 -12 -16 -112
-11 -130 5 -201 -8 -313 -62 -135 -63 -191 -123 -335 -358 -100 -163 -237
-286 -421 -378 -149 -75 -156 -96 -80 -241 96 -184 129 -343 115 -554 -14
-217 -10 -299 21 -390 34 -104 79 -176 154 -250 51 -50 156 -125 193 -137 5
-2 -5 -33 -22 -69 -112 -241 -66 -494 131 -714 177 -198 258 -367 289 -605 14
-103 20 -115 66 -130 30 -10 60 -9 162 5 215 30 373 7 591 -86 166 -72 214
-82 351 -77 93 4 128 10 185 32 79 30 157 79 221 138 l43 39 67 -57 c202 -171
452 -200 709 -83 207 94 414 128 595 99 30 -5 84 -12 120 -16 61 -6 66 -5 92
21 19 18 29 41 33 73 33 268 83 376 311 659 127 157 174 275 174 438 0 95 -19
181 -59 269 l-29 65 53 26 c109 56 198 147 251 260 52 110 64 196 67 480 3
298 13 349 107 542 33 68 60 133 60 146 0 40 -31 68 -124 111 -172 81 -297
204 -471 466 -129 194 -240 281 -410 325 -61 16 -207 21 -268 10 l-34 -7 -13
64 c-25 130 -86 244 -181 337 -96 95 -202 144 -404 186 -187 39 -346 127 -502
277 -95 91 -104 98 -142 98 -38 0 -50 -8 -159 -106z m189 -170 c45 -49 174
-140 264 -186 100 -51 225 -94 389 -132 132 -31 202 -70 258 -143 63 -82 80
-139 87 -289 7 -143 12 -157 67 -180 30 -12 68 -10 89 7 30 22 141 49 205 49
168 0 291 -80 397 -258 130 -220 307 -403 468 -484 22 -11 42 -22 44 -24 1 -1
-15 -49 -37 -106 -69 -176 -86 -279 -84 -517 1 -133 -4 -230 -12 -281 -34
-194 -125 -295 -300 -335 -88 -20 -102 -28 -122 -67 -22 -43 -12 -81 37 -136
92 -104 132 -238 111 -364 -16 -92 -55 -163 -148 -268 -163 -185 -263 -375
-306 -580 l-11 -57 -142 5 c-219 7 -381 -26 -596 -123 -149 -68 -271 -70 -397
-9 -66 32 -160 122 -191 181 -26 52 -55 73 -101 73 -47 0 -72 -19 -108 -82
-40 -72 -119 -143 -200 -181 -62 -30 -75 -32 -172 -32 -103 0 -107 1 -210 47
-231 102 -320 122 -555 122 l-180 1 -26 107 c-47 189 -142 361 -293 533 -96
110 -129 170 -146 266 -21 121 14 242 104 352 54 67 64 102 42 145 -19 38 -38
48 -108 63 -129 28 -245 119 -299 234 -38 79 -50 160 -38 256 13 115 10 305
-6 404 -14 90 -56 226 -91 299 -22 45 -33 31 101 119 90 58 213 171 285 262
27 34 78 111 114 172 92 156 162 214 299 249 83 22 184 14 265 -20 71 -30 118
-33 148 -8 37 30 44 55 38 138 -11 139 29 249 125 344 70 70 133 100 286 135
219 49 401 136 546 260 41 35 77 64 80 64 3 1 16 -11 30 -25z"/>
<path d="M2524 4011 c-12 -5 -31 -22 -43 -37 -21 -26 -21 -34 -21 -382 l0
-354 -34 -47 c-56 -76 -195 -203 -280 -256 -84 -52 -227 -115 -263 -115 -12 0
-223 65 -467 145 -245 80 -459 145 -476 145 -19 0 -42 -11 -62 -29 -27 -24
-33 -36 -33 -69 0 -50 30 -85 89 -106 33 -12 627 -205 837 -272 38 -12 53 -24
82 -68 57 -86 115 -209 141 -300 25 -84 52 -282 43 -314 -2 -9 -101 -151 -220
-315 -291 -400 -287 -393 -287 -434 0 -50 45 -93 97 -93 21 0 48 7 61 15 12 9
133 169 269 356 l247 339 51 16 c192 57 418 57 610 0 l51 -16 246 -337 c135
-186 256 -347 268 -358 14 -13 36 -20 62 -20 33 0 45 6 69 33 34 38 38 83 10
127 -10 17 -125 176 -255 355 l-237 325 6 85 c9 116 31 220 67 315 28 74 96
199 136 253 14 18 115 54 476 172 505 164 511 166 511 240 0 53 -44 100 -93
100 -37 0 -55 -6 -593 -181 -184 -60 -344 -109 -355 -109 -34 0 -178 64 -260
115 -85 53 -224 180 -280 256 l-34 47 0 356 0 356 -27 30 c-30 32 -75 45 -109
31z m109 -1065 c92 -93 214 -183 325 -239 49 -24 94 -46 101 -48 10 -4 1 -29
-32 -89 -25 -47 -60 -125 -77 -175 -33 -92 -70 -262 -70 -316 0 -27 -3 -30
-22 -26 -149 36 -399 42 -528 14 -94 -21 -90 -22 -90 7 0 109 -75 362 -146
495 -25 46 -44 84 -42 85 197 91 310 167 428 288 41 42 76 77 78 77 2 1 36
-32 75 -73z"/>
</g>
</svg>
