<?xml version="1.0" encoding="UTF-8"?>
<!DOCTYPE svg PUBLIC "-//W3C//DTD SVG 1.1//EN" "http://www.w3.org/Graphics/SVG/1.1/DTD/svg11.dtd">
<svg xmlns="http://www.w3.org/2000/svg" version="1.1" width="512px" height="512px" style="shape-rendering:geometricPrecision; text-rendering:geometricPrecision; image-rendering:optimizeQuality; fill-rule:evenodd; clip-rule:evenodd" xmlns:xlink="http://www.w3.org/1999/xlink">
<g><path style="opacity:0.968" fill="#010100" d="M 511.5,30.5 C 511.5,31.8333 511.5,33.1667 511.5,34.5C 494.19,61.7698 477.357,89.4365 461,117.5C 460.667,127.5 460.333,137.5 460,147.5C 455.393,170.607 441.56,184.607 418.5,189.5C 418.527,194.887 417.527,200.053 415.5,205C 460.706,204.703 484.373,227.203 486.5,272.5C 472.496,272.667 458.496,272.5 444.5,272C 422.635,268.486 407.135,256.653 398,236.5C 384.529,250.971 370.696,265.138 356.5,279C 393.382,274.953 424.216,286.453 449,313.5C 463.865,332.949 470.365,354.949 468.5,379.5C 447.164,379.667 425.831,379.5 404.5,379C 364.642,373.985 338.142,352.485 325,314.5C 300.537,348.217 286.537,385.884 283,427.5C 300.586,407.458 322.753,396.624 349.5,395C 381.165,394.5 412.832,394.333 444.5,394.5C 448.001,433.872 434.668,466.038 404.5,491C 373.333,512.407 340,516.407 304.5,503C 292.04,497.358 280.873,489.858 271,480.5C 236.255,512.097 197.089,518.93 153.5,501C 112.387,477.619 93.7207,442.119 97.5,394.5C 129.168,394.333 160.835,394.5 192.5,395C 218.471,397.07 240.304,407.57 258,426.5C 252.301,393.102 238.968,363.102 218,336.5C 208.97,343.09 198.97,345.756 188,344.5C 181.44,366.546 166.606,378.212 143.5,379.5C 136.003,379.572 129.17,377.572 123,373.5C 101.355,383.704 82.3549,380.038 66,362.5C 61.8585,357.551 59.3585,351.884 58.5,345.5C 25.677,342.506 10.177,324.506 12,291.5C 5.98764,285.134 1.82097,277.801 -0.5,269.5C -0.5,263.167 -0.5,256.833 -0.5,250.5C 2.57992,239.177 8.57992,229.677 17.5,222C 9.88606,198.175 16.2194,179.175 36.5,165C 41.8756,162.264 47.5422,160.43 53.5,159.5C 61.6443,143.084 74.9776,134.751 93.5,134.5C 104.449,134.26 114.116,137.594 122.5,144.5C 139.756,132.547 157.756,131.381 176.5,141C 183.681,145.842 189.014,152.175 192.5,160C 209.179,162.346 221.012,171.18 228,186.5C 232.419,197.61 232.586,208.776 228.5,220C 234.339,225.176 239.506,231.01 244,237.5C 253.395,257.377 250.729,275.377 236,291.5C 237.524,302.553 235.69,313.053 230.5,323C 247.892,344.944 260.725,369.444 269,396.5C 279.203,352.755 299.369,314.421 329.5,281.5C 295.897,276.468 274.064,257.801 264,225.5C 262.684,216.218 262.184,206.884 262.5,197.5C 274.505,197.333 286.505,197.5 298.5,198C 329.335,203.487 349.835,220.987 360,250.5C 370.067,241.102 379.4,231.102 388,220.5C 394.397,211.37 398.897,201.37 401.5,190.5C 377.875,184.044 364.375,168.711 361,144.5C 360.667,135.167 360.333,125.833 360,116.5C 342.915,88.6658 326.082,60.6658 309.5,32.5C 323.378,15.5965 341.044,9.7632 362.5,15C 366.644,16.2656 370.477,18.0989 374,20.5C 390.189,-0.918624 410.356,-5.41862 434.5,7C 439.713,10.5461 443.88,15.0461 447,20.5C 470.958,8.39613 492.458,11.7295 511.5,30.5 Z"/></g>
<g><path style="opacity:1" fill="#fc806c" d="M 402.5,17.5 C 415.337,15.0108 425.504,19.0108 433,29.5C 434.301,31.3646 434.635,33.3646 434,35.5C 429.162,47.3503 424.329,59.1836 419.5,71C 424.232,73.3568 429.066,75.5234 434,77.5C 439.534,65.7596 444.534,53.7596 449,41.5C 454.686,33.4086 462.519,29.7419 472.5,30.5C 479.169,29.8385 485.169,31.5051 490.5,35.5C 476.292,59.4163 461.959,83.2496 447.5,107C 422.827,107.833 398.16,107.666 373.5,106.5C 359.667,83.5 345.833,60.5 332,37.5C 331.316,36.2161 331.483,35.0495 332.5,34C 347.327,26.7684 360.493,28.935 372,40.5C 376.723,52.9467 381.723,65.28 387,77.5C 392.14,75.63 396.973,73.2967 401.5,70.5C 396.696,58.0865 391.696,45.7532 386.5,33.5C 389.883,26.117 395.216,20.7836 402.5,17.5 Z"/></g>
<g><path style="opacity:1" fill="#9b4332" d="M 443.5,124.5 C 421.833,124.5 400.167,124.5 378.5,124.5C 378.5,131.167 378.5,137.833 378.5,144.5C 377.509,137.687 377.175,130.687 377.5,123.5C 399.673,123.169 421.673,123.503 443.5,124.5 Z"/></g>
<g><path style="opacity:1" fill="#fa6d50" d="M 443.5,124.5 C 444.073,134.31 443.24,143.977 441,153.5C 429.358,173.429 413.191,178.262 392.5,168C 384.125,162.423 379.459,154.59 378.5,144.5C 378.5,137.833 378.5,131.167 378.5,124.5C 400.167,124.5 421.833,124.5 443.5,124.5 Z"/></g>
<g><path style="opacity:1" fill="#f96c50" d="M 85.5,151.5 C 93.5028,150.708 101.169,151.875 108.5,155C 109.868,156.34 111.201,157.674 112.5,159C 110.406,162.949 108.906,167.116 108,171.5C 107.414,180.883 107.914,190.216 109.5,199.5C 109.333,200.5 109.167,201.5 109,202.5C 106.876,203.622 105.043,205.122 103.5,207C 84.3713,207.627 75.038,217.46 75.5,236.5C 64.8566,234.756 54.5233,231.923 44.5,228C 31.0764,217.805 27.9097,204.972 35,189.5C 43.006,177.553 53.8393,173.887 67.5,178.5C 66.6062,169.121 69.9395,161.621 77.5,156C 80.3911,154.726 83.0578,153.226 85.5,151.5 Z"/></g>
<g><path style="opacity:1" fill="#f96d50" d="M 143.5,151.5 C 157.239,148.959 168.073,153.293 176,164.5C 177.792,169 178.625,173.667 178.5,178.5C 195.948,174.142 207.781,180.476 214,197.5C 214.823,203.629 214.323,209.629 212.5,215.5C 206.824,215.334 201.157,215.501 195.5,216C 187.288,219.022 179.121,222.188 171,225.5C 167.038,216.873 160.538,211.039 151.5,208C 145.227,208.898 140.227,206.898 136.5,202C 132.979,200.326 129.313,199.16 125.5,198.5C 125.348,192.16 125.015,185.827 124.5,179.5C 124.869,166.089 131.202,156.756 143.5,151.5 Z"/></g>
<g><path style="opacity:1" fill="#f77e6a" d="M 119.5,214.5 C 123.803,213.796 127.303,215.13 130,218.5C 131.487,222.116 132.82,225.783 134,229.5C 138.853,225.483 144.353,223.983 150.5,225C 152.871,226.743 154.205,229.077 154.5,232C 152.682,236.465 151.015,240.965 149.5,245.5C 154.675,246.055 159.175,248.055 163,251.5C 164.227,255.591 163.394,259.091 160.5,262C 156.979,263.674 153.313,264.84 149.5,265.5C 151.015,270.035 152.682,274.535 154.5,279C 153.862,283.97 151.029,286.47 146,286.5C 141.671,285.67 137.671,284.003 134,281.5C 132.214,284.958 130.881,288.624 130,292.5C 126.21,296.854 121.877,297.521 117,294.5C 115.314,290.071 113.481,285.738 111.5,281.5C 106.888,285.644 101.554,287.144 95.5,286C 91.9651,283.293 90.7984,279.793 92,275.5C 93.8091,272.222 95.3091,268.889 96.5,265.5C 92.3072,265.047 88.3072,263.881 84.5,262C 80.5,257.667 80.5,253.333 84.5,249C 88.3072,247.119 92.3072,245.953 96.5,245.5C 95.3091,242.111 93.8091,238.778 92,235.5C 91.0004,226.836 94.8338,223.336 103.5,225C 106.329,226.247 108.995,227.747 111.5,229.5C 112.97,226.293 114.137,222.959 115,219.5C 116.059,217.341 117.559,215.674 119.5,214.5 Z"/></g>
<g><path style="opacity:1" fill="#b1d97d" d="M 279.5,214.5 C 310.858,212.076 332.025,225.41 343,254.5C 343.953,257.432 344.453,260.432 344.5,263.5C 313.224,265.957 292.057,252.624 281,223.5C 280.047,220.568 279.547,217.568 279.5,214.5 Z"/></g>
<g><path style="opacity:1" fill="#b1d97c" d="M 411.5,222.5 C 430.912,219.382 447.078,225.048 460,239.5C 463.56,244.284 465.727,249.617 466.5,255.5C 447.601,258.812 431.767,253.479 419,239.5C 415.406,234.312 412.906,228.646 411.5,222.5 Z"/></g>
<g><path style="opacity:1" fill="#060202" d="M 119.5,230.5 C 136.079,230.595 145.412,238.761 147.5,255C 146.518,270.317 138.351,278.817 123,280.5C 104.411,277.898 96.4109,267.231 99,248.5C 102.657,238.664 109.491,232.664 119.5,230.5 Z"/></g>
<g><path style="opacity:1" fill="#f96c50" d="M 198.5,231.5 C 221.682,231.181 232.849,242.514 232,265.5C 229.627,275.541 223.461,282.041 213.5,285C 222.658,300.041 220.324,313.041 206.5,324C 200.666,327.533 194.5,328.699 188,327.5C 186.791,321.079 184.458,315.079 181,309.5C 175.979,303.98 171.146,298.314 166.5,292.5C 169.564,286.909 171.064,280.909 171,274.5C 181.338,265.131 183.172,254.297 176.5,242C 183.714,238.226 191.047,234.726 198.5,231.5 Z"/></g>
<g><path style="opacity:1" fill="#f96c50" d="M 27.5,236.5 C 38.672,244.894 51.3387,249.561 65.5,250.5C 64.1778,260.209 67.1778,268.209 74.5,274.5C 74.7837,280.832 76.2837,286.832 79,292.5C 81.6648,295.234 84.1648,298.068 86.5,301C 83.2139,306.402 80.0472,311.902 77,317.5C 63.3091,331.737 49.3091,332.07 35,318.5C 31.1533,313.128 28.9867,307.128 28.5,300.5C 29.7713,294.999 31.2713,289.666 33,284.5C 17.7527,276.898 12.7527,264.898 18,248.5C 19.994,243.481 23.1607,239.481 27.5,236.5 Z"/></g>
<g><path style="opacity:1" fill="#e2543d" d="M 119.5,247.5 C 128.152,246.986 131.652,250.986 130,259.5C 127.398,263.212 123.898,264.378 119.5,263C 115.139,260.774 113.639,257.274 115,252.5C 116.025,250.313 117.525,248.646 119.5,247.5 Z"/></g>
<g><path style="opacity:1" fill="#b2db7e" d="M 450.5,357.5 C 450.5,358.833 450.5,360.167 450.5,361.5C 434.5,361.5 418.5,361.5 402.5,361.5C 366.5,354.335 345.167,332.835 338.5,297C 354.167,296.333 369.833,296.333 385.5,297C 420.55,302.886 442.217,323.053 450.5,357.5 Z"/></g>
<g><path style="opacity:1" fill="#f96c50" d="M 151.5,302.5 C 152.239,302.369 152.906,302.536 153.5,303C 157.45,307.072 161.283,311.238 165,315.5C 176.359,331.423 174.525,345.589 159.5,358C 145.377,365.789 133.211,363.622 123,351.5C 119.128,355.036 114.962,358.203 110.5,361C 92.6217,365.229 80.6217,358.729 74.5,341.5C 80.0566,337.437 85.2233,332.771 90,327.5C 94.4155,319.667 99.0822,312 104,304.5C 112.092,312.504 121.592,314.671 132.5,311C 136.072,309.431 139.072,307.098 141.5,304C 145.025,303.821 148.359,303.321 151.5,302.5 Z"/></g>
<g><path style="opacity:1" fill="#9abd6d" d="M 450.5,357.5 C 451.451,358.919 451.784,360.585 451.5,362.5C 434.991,362.83 418.658,362.496 402.5,361.5C 418.5,361.5 434.5,361.5 450.5,361.5C 450.5,360.167 450.5,358.833 450.5,357.5 Z"/></g>
<g><path style="opacity:1" fill="#71964a" d="M 195.5,412.5 C 168.833,412.5 142.167,412.5 115.5,412.5C 115.5,414.5 115.5,416.5 115.5,418.5C 114.532,416.393 114.198,414.059 114.5,411.5C 141.672,411.169 168.672,411.502 195.5,412.5 Z"/></g>
<g><path style="opacity:1" fill="#709549" d="M 345.5,412.5 C 372.662,411.502 399.995,411.169 427.5,411.5C 427.784,413.415 427.451,415.081 426.5,416.5C 426.5,415.167 426.5,413.833 426.5,412.5C 399.5,412.5 372.5,412.5 345.5,412.5 Z"/></g>
<g><path style="opacity:1" fill="#9ed166" d="M 195.5,412.5 C 225.514,416.686 246.848,432.52 259.5,460C 248.559,460.28 237.893,458.613 227.5,455C 209.225,446.353 190.558,438.687 171.5,432C 160.976,429.461 150.31,428.295 139.5,428.5C 139.5,433.833 139.5,439.167 139.5,444.5C 150.04,444.609 160.373,446.109 170.5,449C 186.729,455.115 202.729,461.781 218.5,469C 228.303,472.246 238.303,474.746 248.5,476.5C 229.239,490.943 207.573,496.443 183.5,493C 149.495,485.329 127.328,464.829 117,431.5C 115.925,427.23 115.425,422.897 115.5,418.5C 115.5,416.5 115.5,414.5 115.5,412.5C 142.167,412.5 168.833,412.5 195.5,412.5 Z"/></g>
<g><path style="opacity:1" fill="#9ed166" d="M 345.5,412.5 C 372.5,412.5 399.5,412.5 426.5,412.5C 426.5,413.833 426.5,415.167 426.5,416.5C 421.591,458.246 398.591,483.746 357.5,493C 333.77,496.425 312.436,490.925 293.5,476.5C 303.278,474.444 312.945,471.944 322.5,469C 339.189,461.216 356.189,454.216 373.5,448C 382.985,445.308 392.651,444.141 402.5,444.5C 402.5,439.167 402.5,433.833 402.5,428.5C 390.208,427.716 378.208,429.216 366.5,433C 347.613,440.943 328.613,448.61 309.5,456C 300.663,458.939 291.663,460.105 282.5,459.5C 295.269,432.722 316.269,417.056 345.5,412.5 Z"/></g>
</svg>
