<?xml version="1.0" encoding="UTF-8"?>
<svg version="1.1" xmlns="http://www.w3.org/2000/svg" width="512" height="512">
<path d="M0 0 C0.64694824 0.31727051 1.29389648 0.63454102 1.96044922 0.96142578 C10.57061781 5.23774559 18.42596193 10.03842581 26 16 C27.33611328 17.03060547 27.33611328 17.03060547 28.69921875 18.08203125 C46.67719171 32.31566177 60.59260862 49.60047475 71 70 C71.31662598 70.60489258 71.63325195 71.20978516 71.95947266 71.83300781 C90.62982971 107.76978907 92.79558533 151.60155089 80.7265625 189.9296875 C72.59832591 214.37064804 59.72895834 234.38848736 42 253 C41.29488281 253.76957031 40.58976562 254.53914063 39.86328125 255.33203125 C16.22009273 280.32625911 -21.61173528 297.48072237 -56 299 C-58.06800821 298.96162742 -60.13576639 298.90823869 -62.203125 298.84375 C-63.31147705 298.83053711 -64.4198291 298.81732422 -65.56176758 298.80371094 C-67.76652859 298.76863121 -69.97133739 298.67536823 -72.1706543 298.51660156 C-75.5670278 298.48137003 -77.8548747 298.69609333 -81 300 C-88.11653893 307.22670636 -89.77512573 315.60484985 -89.83964539 325.45727539 C-89.81428604 327.84778163 -89.75558868 330.23535383 -89.6875 332.625 C-89.63561416 335.0580841 -89.5958915 337.48931214 -89.58589172 339.92294312 C-89.5782989 341.42135924 -89.54637584 342.91991613 -89.48625183 344.41714478 C-89.45171088 348.19221501 -89.70914068 349.68937236 -92.33129883 352.48974609 C-95 354 -95 354 -98.125 353.9375 C-101.12028048 352.9607781 -102.13944349 352.46610551 -104 350 C-104.36076355 347.55122375 -104.36076355 347.55122375 -104.34057617 344.6105957 C-104.34034958 343.50968094 -104.34012299 342.40876617 -104.33988953 341.27449036 C-104.32440567 340.08691635 -104.30892181 338.89934235 -104.29296875 337.67578125 C-104.28872391 336.45924362 -104.28447906 335.24270599 -104.28010559 333.98930359 C-104.26328851 330.09681229 -104.22562959 326.20483529 -104.1875 322.3125 C-104.17245713 319.67643976 -104.15876804 317.04037142 -104.14648438 314.40429688 C-104.11337499 307.9360219 -104.06314505 301.46804769 -104 295 C-105.22887939 294.86062012 -106.45775879 294.72124023 -107.72387695 294.57763672 C-133.9164367 291.28758997 -164.61778494 272.60138838 -181.9765625 252.73828125 C-184.69301637 250.4046481 -186.71442802 250.36830184 -190.25 250.0625 C-198.85216162 248.94508595 -204.40402459 245.69290448 -209.74609375 238.8515625 C-213.4397282 233.39741069 -214.11678718 229.67463952 -213.68774414 223.18603516 C-213.1914931 216.41511014 -213.1914931 216.41511014 -215.8984375 210.3515625 C-217.61927548 208.88487905 -219.39235526 207.47775568 -221.20703125 206.12890625 C-225.97928298 202.49131577 -229.36457966 197.73066494 -233 193 C-233.67933594 192.14792969 -234.35867187 191.29585937 -235.05859375 190.41796875 C-242.54234727 180.68763035 -247.89409266 169.98737529 -251.375 158.25 C-252.83529078 153.6438576 -252.83529078 153.6438576 -256.24609375 150.48828125 C-258.80227918 149.5313959 -258.80227918 149.5313959 -261.4375 148.82421875 C-267.64219304 146.82850194 -271.81181865 141.87617566 -275 136.375 C-278.02270295 129.64308191 -278.25435098 122.4702934 -276.265625 115.3828125 C-272.7778926 106.89218525 -267.35826626 101.636579 -259 98 C-255.4375 97.1875 -255.4375 97.1875 -253 97 C-252.814375 95.845 -252.62875 94.69 -252.4375 93.5 C-248.51480971 76.24016273 -238.30175921 60.99304465 -226.2265625 48.3671875 C-223.98506855 45.98412552 -221.86296615 43.69291315 -220 41 C-220.33 40.01 -220.66 39.02 -221 38 C-221.67000408 30.58602042 -221.64476115 24.08436548 -217 18 C-212.80843567 13.55018763 -208.57625814 10.40615321 -202.3515625 9.69921875 C-195.26522996 9.66876173 -190.91019328 10.7597851 -184.75 14.2890625 C-180.8161479 15.30605267 -178.33118323 13.74680741 -174.875 12 C-166.54571767 8.06262772 -158.03407997 5.34080211 -149.22998047 2.68212891 C-143.06436578 0.79612853 -137.09756059 -1.32835078 -131.16503906 -3.85498047 C-89.10110818 -21.62116559 -40.95832952 -20.19935148 0 0 Z " fill="#A8B959" transform="translate(336,111)"/>
<path d="M0 0 C0.64694824 0.31727051 1.29389648 0.63454102 1.96044922 0.96142578 C10.57061781 5.23774559 18.42596193 10.03842581 26 16 C27.33611328 17.03060547 27.33611328 17.03060547 28.69921875 18.08203125 C46.67719171 32.31566177 60.59260862 49.60047475 71 70 C71.31662598 70.60489258 71.63325195 71.20978516 71.95947266 71.83300781 C90.62982971 107.76978907 92.79558533 151.60155089 80.7265625 189.9296875 C72.59832591 214.37064804 59.72895834 234.38848736 42 253 C41.29488281 253.76957031 40.58976562 254.53914063 39.86328125 255.33203125 C16.22009273 280.32625911 -21.61173528 297.48072237 -56 299 C-58.06800821 298.96162742 -60.13576639 298.90823869 -62.203125 298.84375 C-63.31147705 298.83053711 -64.4198291 298.81732422 -65.56176758 298.80371094 C-67.76652859 298.76863121 -69.97133739 298.67536823 -72.1706543 298.51660156 C-75.5670278 298.48137003 -77.8548747 298.69609333 -81 300 C-88.11653893 307.22670636 -89.77512573 315.60484985 -89.83964539 325.45727539 C-89.81428604 327.84778163 -89.75558868 330.23535383 -89.6875 332.625 C-89.63561416 335.0580841 -89.5958915 337.48931214 -89.58589172 339.92294312 C-89.5782989 341.42135924 -89.54637584 342.91991613 -89.48625183 344.41714478 C-89.45171088 348.19221501 -89.70914068 349.68937236 -92.33129883 352.48974609 C-95 354 -95 354 -98.125 353.9375 C-101.12028048 352.9607781 -102.13944349 352.46610551 -104 350 C-104.36076355 347.55122375 -104.36076355 347.55122375 -104.34057617 344.6105957 C-104.34034958 343.50968094 -104.34012299 342.40876617 -104.33988953 341.27449036 C-104.32440567 340.08691635 -104.30892181 338.89934235 -104.29296875 337.67578125 C-104.28872391 336.45924362 -104.28447906 335.24270599 -104.28010559 333.98930359 C-104.26328851 330.09681229 -104.22562959 326.20483529 -104.1875 322.3125 C-104.17245713 319.67643976 -104.15876804 317.04037142 -104.14648438 314.40429688 C-104.11337499 307.9360219 -104.06314505 301.46804769 -104 295 C-105.22887939 294.86062012 -106.45775879 294.72124023 -107.72387695 294.57763672 C-133.9164367 291.28758997 -164.61778494 272.60138838 -181.9765625 252.73828125 C-184.69301637 250.4046481 -186.71442802 250.36830184 -190.25 250.0625 C-198.85216162 248.94508595 -204.40402459 245.69290448 -209.74609375 238.8515625 C-213.4397282 233.39741069 -214.11678718 229.67463952 -213.68774414 223.18603516 C-213.1914931 216.41511014 -213.1914931 216.41511014 -215.8984375 210.3515625 C-217.61927548 208.88487905 -219.39235526 207.47775568 -221.20703125 206.12890625 C-225.97928298 202.49131577 -229.36457966 197.73066494 -233 193 C-233.67933594 192.14792969 -234.35867187 191.29585937 -235.05859375 190.41796875 C-242.54234727 180.68763035 -247.89409266 169.98737529 -251.375 158.25 C-252.83529078 153.6438576 -252.83529078 153.6438576 -256.24609375 150.48828125 C-258.80227918 149.5313959 -258.80227918 149.5313959 -261.4375 148.82421875 C-267.64219304 146.82850194 -271.81181865 141.87617566 -275 136.375 C-278.02270295 129.64308191 -278.25435098 122.4702934 -276.265625 115.3828125 C-272.7778926 106.89218525 -267.35826626 101.636579 -259 98 C-255.4375 97.1875 -255.4375 97.1875 -253 97 C-252.814375 95.845 -252.62875 94.69 -252.4375 93.5 C-248.51480971 76.24016273 -238.30175921 60.99304465 -226.2265625 48.3671875 C-223.98506855 45.98412552 -221.86296615 43.69291315 -220 41 C-220.33 40.01 -220.66 39.02 -221 38 C-221.67000408 30.58602042 -221.64476115 24.08436548 -217 18 C-212.80843567 13.55018763 -208.57625814 10.40615321 -202.3515625 9.69921875 C-195.26522996 9.66876173 -190.91019328 10.7597851 -184.75 14.2890625 C-180.8161479 15.30605267 -178.33118323 13.74680741 -174.875 12 C-166.54571767 8.06262772 -158.03407997 5.34080211 -149.22998047 2.68212891 C-143.06436578 0.79612853 -137.09756059 -1.32835078 -131.16503906 -3.85498047 C-89.10110818 -21.62116559 -40.95832952 -20.19935148 0 0 Z M-178 29 C-178.24032177 31.05865901 -178.24032177 31.05865901 -178.25 33.5 C-178.75919794 39.52407055 -180.87427549 43.6052065 -185 48 C-189.9925698 51.79687031 -195.79497272 53.06566166 -202 53 C-203.314984 52.65517054 -204.6276128 52.30121114 -205.9375 51.9375 C-208.97241444 51.48587583 -209.848229 51.89282405 -212.40625 53.69921875 C-222.56519927 63.43487847 -238.35466218 83.41591255 -239.125 98.4375 C-237.83535351 101.37502812 -236.84820063 101.97047768 -234.25 103.75 C-229.54117631 107.11223562 -226.70878796 110.40688387 -225 116 C-223.99677272 125.05798474 -223.98852531 132.7482626 -229.6171875 140.1171875 C-232.48857055 143.58010011 -234.81922241 146.18986113 -239 148 C-238.45685736 153.31454758 -237.12853332 157.80017869 -234.9375 162.6875 C-234.62586914 163.38520508 -234.31423828 164.08291016 -233.99316406 164.80175781 C-228.58337028 176.55258351 -220.8799371 185.77546833 -212 195 C-211.30132812 195.7734375 -210.60265625 196.546875 -209.8828125 197.34375 C-208.98175781 198.31828125 -208.98175781 198.31828125 -208.0625 199.3125 C-207.30646484 200.14201172 -207.30646484 200.14201172 -206.53515625 200.98828125 C-205.02677011 202.21891487 -205.02677011 202.21891487 -203.01953125 201.765625 C-201.18822684 201.07135873 -199.40226449 200.26030764 -197.625 199.4375 C-190.95352558 196.93102083 -183.08772697 196.66511093 -176.30859375 198.87890625 C-169.14395905 202.55214536 -164.07728816 208.15425193 -161.5234375 215.80078125 C-160.56716333 219.81856004 -160.2445323 223.8851116 -160 228 C-150.0811767 231.55952098 -140.40706233 234.20853554 -130 236 C-128.70098755 236.25487183 -128.70098755 236.25487183 -127.37573242 236.51489258 C-119.443085 237.9933245 -111.7469946 238.34810356 -103.6875 238.3125 C-101.72768188 238.30621582 -101.72768188 238.30621582 -99.72827148 238.29980469 C-76.68286597 238.09633419 -47.72396462 235.14930975 -28 222 C-27.41462343 218.72852701 -27.41462343 218.72852701 -27.1875 214.9375 C-26.45314986 208.05378703 -25.03927836 202.93622564 -20 198 C-12.98924608 192.71669584 -6.82437618 190.42135238 2 191 C5.38583727 191.85140937 8.69334814 192.88225853 12 194 C27.32775421 179.97673551 39.30828819 158.02040838 41.26953125 137.12890625 C40.84434318 133.77053668 38.36882508 132.31373612 36 130 C32.83367583 124.4316368 32.08964837 119.27457414 33 113 C34.38551576 109.09063395 36.06322686 105.93677314 39 103 C38.68636136 97.7269504 37.13826693 93.21367319 35 88.4375 C34.69094727 87.74495117 34.38189453 87.05240234 34.06347656 86.33886719 C28.31746729 73.86165578 20.58610898 63.75477952 11 54 C10.18273437 53.16726562 9.36546875 52.33453125 8.5234375 51.4765625 C6.69600836 49.63621867 4.85765383 47.80974872 3 46 C2.49210938 46.33773437 1.98421875 46.67546875 1.4609375 47.0234375 C-4.8556911 51.11623431 -10.26118654 53.90286157 -18 53 C-23.80052546 50.83040624 -28.69620752 48.41821967 -32 43 C-32.5775 42.175 -33.155 41.35 -33.75 40.5 C-35.68403287 35.08470796 -35.22804004 29.69255502 -35 24 C-79.667171 2.79437336 -134.57000186 7.28500093 -178 29 Z " fill="#4D261E" transform="translate(336,111)"/>
<path d="M0 0 C0.64694824 0.31727051 1.29389648 0.63454102 1.96044922 0.96142578 C10.57061781 5.23774559 18.42596193 10.03842581 26 16 C27.33611328 17.03060547 27.33611328 17.03060547 28.69921875 18.08203125 C46.67719171 32.31566177 60.59260862 49.60047475 71 70 C71.31662598 70.60489258 71.63325195 71.20978516 71.95947266 71.83300781 C90.62982971 107.76978907 92.79558533 151.60155089 80.7265625 189.9296875 C72.59832591 214.37064804 59.72895834 234.38848736 42 253 C41.29488281 253.76957031 40.58976563 254.53914063 39.86328125 255.33203125 C16.12282675 280.42908315 -21.54117837 297.29147684 -56 299 C-64.33310237 299.19708448 -72.66633027 299.12859075 -81 299 C-79.56765741 295.16595165 -77.79605406 291.70937982 -75.76171875 288.16015625 C-74.78972534 286.45702271 -74.78972534 286.45702271 -73.7980957 284.71948242 C-72.37202727 282.24168486 -70.93508849 279.77045848 -69.49291992 277.30200195 C-68.75267095 276.03230945 -68.01284469 274.7623704 -67.2734375 273.4921875 C-66.90521378 272.86025986 -66.53699005 272.22833221 -66.15760803 271.57725525 C-63.87467377 267.6229511 -61.78348438 263.61803364 -59.7890625 259.5078125 C-55.21114747 250.37216592 -51.76167975 243.7709204 -41.80541992 240.10864258 C-38.29103736 239.05645193 -34.78359682 238.18421401 -31.17553711 237.52050781 C-28.89085823 236.9738873 -27.08971334 236.0512971 -25 235 C-21.41908706 235.09678143 -19.35167194 236.36097992 -16.5625 238.4375 C-10.78617287 242.73558427 -5.0834743 243.87573469 2 243 C10.65095709 240.96805931 16.47979934 237.44792959 21.3125 229.96875 C24.47603804 223.9053021 24.80830068 217.72957308 24 211 C23.64164063 210.13890625 23.28328125 209.2778125 22.9140625 208.390625 C21.84770138 205.60168054 22.04296116 204.763462 23 202 C24.08813477 200.39111328 24.08813477 200.39111328 25.44140625 198.8203125 C25.93882324 198.22855225 26.43624023 197.63679199 26.94873047 197.02709961 C27.48127441 196.39940674 28.01381836 195.77171387 28.5625 195.125 C41.62740009 179.22723867 50.40259121 160.27245659 54 140 C54.79664063 139.79246094 55.59328125 139.58492187 56.4140625 139.37109375 C63.38994585 137.34282596 68.2717364 135.45070069 72 129 C74.6511214 123.44921457 74.68067174 118.04596662 74 112 C72.94941654 109.28559658 71.69293333 107.41114746 70 105 C69.67 104.01 69.34 103.02 69 102 C66.70465742 100.86454438 66.70465742 100.86454438 64 100 C63.236875 99.649375 62.47375 99.29875 61.6875 98.9375 C58.12624377 97.69520131 54.75117948 97.38147588 51 97 C50.8040625 96.2471875 50.608125 95.494375 50.40625 94.71875 C46.47892088 80.76996035 40.13695603 68.2784301 31 57 C30.56171875 56.45102051 30.1234375 55.90204102 29.671875 55.33642578 C24.37589965 48.74373669 19.12215998 42.87394505 12.375 37.75 C8.42145576 34.62824039 6.35305291 32.77852239 5.5 27.75 C5.42007813 26.92628906 5.34015625 26.10257813 5.2578125 25.25390625 C4.84591936 21.65296167 3.36745447 19.67896163 1 17 C-5.39005216 12.16144198 -10.89584511 10.28683437 -19 11 C-20.66933058 11.6599679 -22.3364521 12.32558869 -24 13 C-27.44032332 12.50908792 -30.53987806 11.52083007 -33.78125 10.29296875 C-52.24784664 3.4741576 -70.92015945 -1.13825815 -90.69921875 -1.16796875 C-91.4967305 -1.17129715 -92.29424225 -1.17462555 -93.11592102 -1.17805481 C-94.79236278 -1.18308019 -96.46881439 -1.18546451 -98.14526367 -1.18530273 C-100.66407421 -1.18747975 -103.18243902 -1.20565673 -105.70117188 -1.22460938 C-114.31382072 -1.25353969 -122.52732634 -0.91268712 -131.03051758 0.5690918 C-134.06251653 1.00907191 -136.9407967 1.07227364 -140 1 C-128.56892698 -8.13613733 -111.17603135 -11.56830871 -97 -14 C-95.06833984 -14.33644531 -95.06833984 -14.33644531 -93.09765625 -14.6796875 C-61.32440116 -19.38922582 -28.76312315 -14.18506176 0 0 Z " fill="#E4EDED" transform="translate(336,111)"/>
<path d="M0 0 C8.30205038 7.38117449 13.44085864 17.41783031 14.16796875 28.578125 C14.26205095 41.44856985 11.32707562 51.7743148 2.3125 61.3125 C-7.38560391 70.50549433 -18.1001803 73.47554991 -31.28515625 73.2421875 C-41.79071975 72.5572822 -50.86202789 68.12936579 -58.33203125 60.671875 C-67.37277447 50.00413346 -69.86666419 38.73823238 -69 25 C-67.24216869 14.63177467 -61.42598499 4.38190345 -53 -2 C-35.40974962 -12.63767935 -16.59644317 -13.09842361 0 0 Z " fill="#4C241D" transform="translate(444,57)"/>
<path d="M0 0 C8.67786257 4.64885495 13.20897451 10.47871522 16.5 19.875 C17.79997643 27.25807224 16.43262281 33.54104114 12.5 39.875 C7.65262597 46.77177014 2.40395848 50.24034717 -5.5 52.875 C-15.11279372 53.89919416 -21.84810954 52.14917436 -29.53515625 46.3359375 C-35.06367965 41.38256834 -37.87681822 35.43000911 -38.87890625 28.10546875 C-39.23631846 19.86192917 -36.82282713 13.60074314 -31.8125 7.125 C-23.32556203 -1.88711977 -11.82205141 -3.82545913 0 0 Z " fill="#FCCC55" transform="translate(427.5,63.125)"/>
<path d="M0 0 C6.40784597 4.91735297 10.17522058 10.82181965 11.44921875 18.8203125 C11.92800831 26.97037487 9.65213028 33.33293431 5 40 C2.55330753 42.50600623 0.04958119 44.29582228 -3 46 C-4.6396875 46.928125 -4.6396875 46.928125 -6.3125 47.875 C-13.86787328 50.18002914 -20.87746551 49.88087488 -27.9375 46.25 C-34.96187024 41.99280591 -39.57362873 37.00917243 -42 29 C-43.0402376 20.87884678 -42.78231359 13.80815476 -38 7 C-37.4225 6.113125 -36.845 5.22625 -36.25 4.3125 C-26.77392141 -5.42680299 -11.56703999 -7.65099709 0 0 Z " fill="#4E261D" transform="translate(319,201)"/>
<path d="M0 0 C3.94233936 2.71468105 6.35317832 5.69059706 8.671875 9.83984375 C9.6 11.47953125 9.6 11.47953125 10.546875 13.15234375 C12.92181615 20.93687307 12.35311198 28.14734622 8.9921875 35.55078125 C5.54043189 41.53518595 0.67881333 45.6386947 -5.73828125 48.18359375 C-13.8171265 50.23072196 -21.93388233 49.60182686 -29.328125 45.83984375 C-35.23214121 41.63890914 -39.00550695 36.698515 -41.328125 29.83984375 C-42.24674723 21.68974184 -41.8084937 13.87870717 -37.328125 6.83984375 C-26.95677434 -5.10045387 -13.96061907 -7.68557397 0 0 Z " fill="#4E261D" transform="translate(244.328125,151.16015625)"/>
<path d="M0 0 C3.37407858 0.40786343 6.58198759 1.41067467 9.8359375 2.375 C10.73570312 2.63796875 11.63546875 2.9009375 12.5625 3.171875 C14.43031199 3.72184186 16.29750674 4.27390956 18.1640625 4.828125 C22.10311994 5.97607888 25.65252042 6.97146477 29.7578125 7.30859375 C34.32975086 8.28357338 36.40532003 10.69887982 39.5 14.0625 C40.06750977 14.65450195 40.63501953 15.24650391 41.21972656 15.85644531 C44.69125704 19.50324526 48.05085629 23.24347351 51.3046875 27.0859375 C54.10738084 30.25026869 57.15110106 33.17073222 60.1796875 36.1171875 C63.60295386 39.6579909 63.11844847 42.95975836 63.0625 47.625 C63.05798828 48.33140625 63.05347656 49.0378125 63.04882812 49.765625 C63.03703875 51.51045275 63.01910324 53.255237 63 55 C36.84842147 52.5548125 12.57965963 36.6043472 -7.125 20.1875 C-7.65802734 19.74341797 -8.19105469 19.29933594 -8.74023438 18.84179688 C-11.89014474 16.14592764 -14.5129289 13.31411149 -17 10 C-16.19175781 9.69707031 -15.38351563 9.39414062 -14.55078125 9.08203125 C-7.65718737 6.61663197 -7.65718737 6.61663197 -2.0625 2.125 C-1.381875 1.42375 -0.70125 0.7225 0 0 Z " fill="#E4EDED" transform="translate(169,351)"/>
<path d="M0 0 C4.75758547 2.98457225 8.84748571 7.94669013 10.88671875 13.18359375 C11.78321975 20.31785437 11.78976958 26.64050616 7.375 32.53515625 C2.82585575 37.57384095 -1.5044957 40.67926536 -8.43359375 41.4375 C-14.53521172 41.72672042 -19.14122026 40.82194739 -24.11328125 37.18359375 C-29.7431988 32.01658053 -32.11443309 26.9607983 -32.48828125 19.30859375 C-32.33390431 13.2606501 -30.61333329 8.84952602 -26.46484375 4.42578125 C-18.86374443 -2.44508146 -9.60715817 -4.07281148 0 0 Z " fill="#4E261D" transform="translate(178.11328125,215.81640625)"/>
<path d="M0 0 C4.50334071 3.23992499 7.52260466 7.39203273 9.26953125 12.6328125 C9.85406927 18.96156067 9.71237247 25.12654658 6.26953125 30.6328125 C1.75878525 35.58291687 -2.78741146 39.11613603 -9.5625 40.00390625 C-16.67491321 40.16237417 -21.33306606 39.41658936 -26.73046875 34.6328125 C-31.56975027 29.90492109 -34.00717167 25.11264103 -34.10546875 18.3203125 C-33.96059213 11.97982981 -32.44603702 7.52212566 -28.08203125 2.87890625 C-19.54601526 -4.85569339 -10.09565316 -5.56453324 0 0 Z " fill="#4E261D" transform="translate(247.73046875,260.3671875)"/>
<path d="M0 0 C3.80285865 2.0090574 7.09334467 4.08076405 9 8 C9.72617829 12.6887808 9.44424743 16.07733226 7.375 20.375 C3.78174634 24.34649089 0.79988182 25.77501477 -4.5 26.4375 C-8.76506 25.9043675 -10.75593838 24.80168958 -14 22 C-17.10857961 17.68809925 -17.421537 14.21964422 -16.6484375 9.1171875 C-14.37627778 1.69844913 -7.09293206 -1.10155384 0 0 Z " fill="#F78928" transform="translate(338,315)"/>
<path d="M0 0 C3.43615111 2.12017834 5.80717883 4.09622164 7 8 C7.46225901 12.77667642 7.49973779 15.01903323 5.3125 19.3125 C2.41430219 22.68067583 0.36159162 24.6064014 -4.109375 25.3515625 C-8.22604338 25.61403465 -11.12082704 25.38942482 -14.4375 22.8125 C-18.17220552 18.71343296 -19.22978162 16.04968498 -19 10.5625 C-18.40131266 6.18916196 -16.79490762 4.0104692 -13.5703125 1.09375 C-9.31953838 -1.86698819 -4.78711387 -1.0937167 0 0 Z " fill="#F88928" transform="translate(155,322)"/>
<path d="M0 0 C3.9627847 2.03539256 6.52450725 3.99564561 8.17578125 8.26953125 C8.71214024 13.09676217 8.69596026 15.24843911 6.48828125 19.58203125 C3.59008344 22.95020708 1.53737287 24.87593265 -2.93359375 25.62109375 C-7.05026213 25.8835659 -9.94504579 25.65895607 -13.26171875 23.08203125 C-16.76928386 19.23226467 -17.67657714 16.92311726 -18.13671875 11.76953125 C-17.78979472 7.88398215 -17.31825651 6.246286 -14.82421875 3.26953125 C-10.23622196 -0.275739 -5.71391177 -2.28801178 0 0 Z " fill="#F88928" transform="translate(90.82421875,222.73046875)"/>
<path d="M0 0 C5.86842818 4.72734493 5.86842818 4.72734493 6.63671875 8.92578125 C6.90008075 14.32924288 5.97861652 17.69139753 2.25 21.8125 C-1.80108238 24.45451025 -4.9337565 25.51486884 -9.75 24.8125 C-14.48819169 22.34864032 -17.46247345 19.66205629 -19.75 14.8125 C-20.08370126 10.2057948 -19.36287257 6.80577624 -16.9375 2.875 C-11.99019641 -1.78960053 -6.29580035 -2.71864106 0 0 Z " fill="#F88928" transform="translate(235.75,162.1875)"/>
<path d="M0 0 C5.51479631 4.51210607 5.51479631 4.51210607 6.03125 8.328125 C6.26497274 14.21014738 5.1046275 17.50293458 1.25 22 C-1.81862464 24.5571872 -5.32087778 24.58495185 -9.18359375 24.53515625 C-12.60340256 24.06323556 -14.6765947 22.45577598 -17.25 20.25 C-19.98478841 15.83298779 -20.03752069 11.29331434 -19.25 6.25 C-17.60933484 3.04710786 -15.2741932 1.00107501 -12.375 -1.125 C-7.67328643 -2.50785693 -4.31928681 -2.32576982 0 0 Z " fill="#F98A28" transform="translate(310.25,211.75)"/>
<path d="M0 0 C3.6875 0.3125 3.6875 0.3125 5.88671875 1.70703125 C8.66168702 5.72200704 8.26918615 9.54747485 8.1875 14.3125 C8.20296875 15.21484375 8.2184375 16.1171875 8.234375 17.046875 C8.19561916 23.59661178 8.19561916 23.59661178 5.84375 26.91015625 C2.90479678 28.82154068 1.13003896 28.81453693 -2.3125 28.3125 C-5.4484157 26.53265595 -6.15352736 25.78941793 -7.3125 22.3125 C-7.46071529 19.67312776 -7.54347341 17.07743877 -7.5625 14.4375 C-7.583125 13.72980469 -7.60375 13.02210938 -7.625 12.29296875 C-7.65883742 7.75029545 -7.05182783 4.95110212 -4.3125 1.3125 C-3.3125 0.3125 -3.3125 0.3125 0 0 Z " fill="#4B241C" transform="translate(88.3125,381.6875)"/>
<path d="M0 0 C0.85464844 -0.01998047 1.70929688 -0.03996094 2.58984375 -0.06054688 C8.79862572 -0.05570383 8.79862572 -0.05570383 12.06640625 2.2421875 C14.15005503 5.43295211 13.97366891 7.71581571 13.5 11.4375 C11.95737187 13.54108381 10.81891683 14.27804159 8.5 15.4375 C5.54622888 15.64161054 2.64399311 15.76132545 -0.3125 15.8125 C-1.12009766 15.84988281 -1.92769531 15.88726562 -2.75976562 15.92578125 C-7.13797499 15.99032488 -8.95501459 15.84519901 -12.5703125 13.140625 C-14.5 10.4375 -14.5 10.4375 -14.5625 6.8125 C-13.5 3.4375 -13.5 3.4375 -12.02734375 1.75390625 C-8.11547267 -0.28365257 -4.34462927 -0.03604142 0 0 Z " fill="#4B231C" transform="translate(109.5,408.5625)"/>
<path d="M0 0 C0.85464844 -0.01998047 1.70929688 -0.03996094 2.58984375 -0.06054688 C8.79862572 -0.05570383 8.79862572 -0.05570383 12.06640625 2.2421875 C14.15005503 5.43295211 13.97366891 7.71581571 13.5 11.4375 C11.95737187 13.54108381 10.81891683 14.27804159 8.5 15.4375 C5.54622888 15.64161054 2.64399311 15.76132545 -0.3125 15.8125 C-1.12009766 15.84988281 -1.92769531 15.88726562 -2.75976562 15.92578125 C-7.13797499 15.99032488 -8.95501459 15.84519901 -12.5703125 13.140625 C-14.5 10.4375 -14.5 10.4375 -14.5625 6.8125 C-13.5 3.4375 -13.5 3.4375 -12.02734375 1.75390625 C-8.11547267 -0.28365257 -4.34462927 -0.03604142 0 0 Z " fill="#4C231C" transform="translate(68.5,408.5625)"/>
<path d="M0 0 C3.6875 0.3125 3.6875 0.3125 5.88671875 1.70703125 C8.66168702 5.72200704 8.26918615 9.54747485 8.1875 14.3125 C8.20296875 15.21484375 8.2184375 16.1171875 8.234375 17.046875 C8.19561916 23.59661178 8.19561916 23.59661178 5.84375 26.91015625 C2.90479678 28.82154068 1.13003896 28.81453693 -2.3125 28.3125 C-5.4484157 26.53265595 -6.15352736 25.78941793 -7.3125 22.3125 C-7.46071529 19.67312776 -7.54347341 17.07743877 -7.5625 14.4375 C-7.583125 13.72980469 -7.60375 13.02210938 -7.625 12.29296875 C-7.65883742 7.75029545 -7.05182783 4.95110212 -4.3125 1.3125 C-3.3125 0.3125 -3.3125 0.3125 0 0 Z " fill="#4C241C" transform="translate(88.3125,422.6875)"/>
<path d="M0 0 C-1.42058995 3.77718412 -3.14590178 7.22668241 -5.1171875 10.74609375 C-5.72433594 11.83083984 -6.33148438 12.91558594 -6.95703125 14.03320312 C-7.90642578 15.71833008 -7.90642578 15.71833008 -8.875 17.4375 C-9.50019531 18.55705078 -10.12539063 19.67660156 -10.76953125 20.83007812 C-13.68006532 26.01427464 -16.57642369 31.13104414 -20 36 C-20.33 36 -20.66 36 -21 36 C-21 24.78 -21 13.56 -21 2 C-18.2775 1.67 -15.555 1.34 -12.75 1 C-11.89889648 0.89558594 -11.04779297 0.79117187 -10.17089844 0.68359375 C-9.15044434 0.56177734 -9.15044434 0.56177734 -8.109375 0.4375 C-7.07248535 0.31181641 -7.07248535 0.31181641 -6.01464844 0.18359375 C-4.01710903 0.00155914 -2.00581661 0 0 0 Z " fill="#E2EBEA" transform="translate(267,360)"/>
<path d="M0 0 C2.66589042 0.54323805 3.75768995 0.96351964 5.875 2.75 C7.21538506 5.84964046 7.42167869 7.71409302 6.875 11.0625 C4.41905875 14.38524404 2.9493356 15.83868008 -1.125 16.6875 C-5.1993356 15.83868008 -6.66905875 14.38524404 -9.125 11.0625 C-9.75 8.0625 -9.75 8.0625 -9.125 5.0625 C-6.50620524 1.2161452 -4.62486834 -0.35838463 0 0 Z " fill="#F48728" transform="translate(323.125,134.9375)"/>
<path d="M0 0 C3.72975427 1.15283314 5.35163561 1.75988138 7.4375 5.0625 C7.37702191 8.50975099 7.09986979 10.95855036 5.3125 13.9375 C2.28014294 15.75691423 -0.04116855 16.0625 -3.5625 16.0625 C-6.98514067 13.65936932 -8.33064736 12.17539267 -9.1875 8.0625 C-8.06449489 2.67207546 -5.55537361 0.09746269 0 0 Z " fill="#F68828" transform="translate(137.5625,134.9375)"/>
<path d="M0 0 C2.4375 1.5625 2.4375 1.5625 4 4 C4.72468526 8.42863214 4.49454049 10.28066838 1.9375 14 C-1 16 -1 16 -4.625 16.0625 C-8 15 -8 15 -9.9375 13.375 C-11.43699866 10.02317947 -11.45377473 7.63019782 -11 4 C-8.11188513 -0.5054592 -5.11821063 -0.73117295 0 0 Z " fill="#F68828" transform="translate(239,271)"/>
<path d="M0 0 C1.91015625 0.4453125 1.91015625 0.4453125 4.47265625 2.5078125 C6.35626596 6.35692799 6.11780025 8.36951401 4.91015625 12.4453125 C2.54522199 15.26504181 1.08208975 15.42382081 -2.58984375 15.8828125 C-6.08984375 15.4453125 -6.08984375 15.4453125 -8.52734375 13.8828125 C-10.69380403 10.50313446 -10.65272377 8.38547263 -10.08984375 4.4453125 C-7.53315462 0.29069266 -4.61630624 -0.25885829 0 0 Z " fill="#F68828" transform="translate(392.08984375,221.5546875)"/>
<path d="M0 0 C2.4375 0.9375 2.4375 0.9375 4 3 C4.50241849 6.06589467 4.61350778 8.94904237 4 12 C2.71875 13.75390625 2.71875 13.75390625 1 15 C-5.79245283 15.75471698 -5.79245283 15.75471698 -9.5 13.4375 C-11.58392818 10.05111671 -11.55802097 7.90614682 -11 4 C-8.09912777 -0.52536068 -5.13093735 -0.64136717 0 0 Z " fill="#F78928" transform="translate(171,228)"/>
<path d="M0 0 C2.4375 1.5625 2.4375 1.5625 4 4 C4.56288002 7.94016013 4.60396028 10.05782196 2.4375 13.4375 C-0.94217804 15.60396028 -3.05983987 15.56288002 -7 15 C-9.4375 13.5 -9.4375 13.5 -11 11 C-11.57853498 8.03575377 -11.39353376 6.09907833 -11 3 C-8.06403859 -0.7580306 -4.50318499 -0.56289812 0 0 Z " fill="#4B231C" transform="translate(72,318)"/>
<path d="M0 0 C2.64 0 5.28 0 8 0 C8 2.97 8 5.94 8 9 C5.06799526 6.14723863 2.35684596 3.34920216 0 0 Z " fill="#D0D4D3" transform="translate(224,362)"/>
</svg>
