<?xml version="1.0" encoding="UTF-8"?>
<svg version="1.1" xmlns="http://www.w3.org/2000/svg" width="512" height="512">
<path d="M0 0 C13.58809349 8.9599656 23.31619847 23.37790821 27.20263672 39.12353516 C29.17707527 49.73103609 28.9202719 59.62370429 26.76904297 70.16650391 C27.40068359 70.13169922 28.03232422 70.09689453 28.68310547 70.06103516 C44.94783386 69.56887479 60.05988604 74.5037017 72.20654297 85.41650391 C80.14492222 92.92679526 85.38386326 101.8238443 88.76904297 112.16650391 C88.99462891 112.84712891 89.22021484 113.52775391 89.45263672 114.22900391 C93.97640606 130.70176399 89.73968358 146.61815017 81.76904297 161.16650391 C82.51927734 161.50681641 83.26951172 161.84712891 84.04248047 162.19775391 C100.03145849 169.76936063 110.81034121 180.30176777 116.89404297 197.15869141 C121.43203521 212.75803974 118.98825394 228.0758191 111.56591797 242.24072266 C105.70110998 251.79016001 97.11113641 259.73417815 86.76904297 264.16650391 C86.10904297 264.16650391 85.44904297 264.16650391 84.76904297 264.16650391 C84.86443359 265.05208984 84.95982422 265.93767578 85.05810547 266.85009766 C87.13099769 290.01346301 81.73339098 310.75014728 67.38623047 329.23681641 C53.96303947 344.73175392 36.07873875 354.40898913 15.76904297 357.16650391 C-1.5497064 358.29569333 -16.09385442 355.59399393 -32.23095703 349.16650391 C-32.51326172 349.92447266 -32.79556641 350.68244141 -33.08642578 351.46337891 C-36.87025621 360.39993405 -46.75858394 366.93031736 -55.23095703 371.16650391 C-55.56095703 400.86650391 -55.89095703 430.56650391 -56.23095703 461.16650391 C-38.58024803 460.92972389 -38.58024803 460.92972389 -20.93066406 460.62597656 C-18.70005017 460.60843507 -16.46941691 460.59314998 -14.23876953 460.58056641 C-13.10238037 460.54987061 -11.96599121 460.5191748 -10.79516602 460.48754883 C-2.80461352 460.48235454 2.45040064 462.217185 8.76904297 467.16650391 C11.02294922 469.58056641 11.02294922 469.58056641 12.33154297 471.79150391 C12.78658203 472.52626953 13.24162109 473.26103516 13.71044922 474.01806641 C16.01454282 478.69427113 16.0475481 483.46784546 16.14404297 488.60400391 C16.18142578 489.35488281 16.21880859 490.10576172 16.25732422 490.87939453 C16.26892578 491.61222656 16.28052734 492.34505859 16.29248047 493.10009766 C16.3122998 493.76066162 16.33211914 494.42122559 16.35253906 495.10180664 C15.3909741 498.50429822 13.4826936 499.96550759 10.76904297 502.16650391 C7.86139652 502.65718918 5.54165264 502.84006202 2.63987732 502.79469299 C1.41876215 502.80533457 1.41876215 502.80533457 0.17297798 502.81619114 C-2.55272459 502.83378247 -5.27700331 502.81566123 -8.00268555 502.79760742 C-9.95750579 502.80274577 -11.91232141 502.81002641 -13.86712646 502.81929016 C-19.17495506 502.83782177 -24.48228206 502.82485481 -29.79008985 502.80519986 C-35.34158757 502.78882901 -40.89305313 502.79762397 -46.44456482 502.80271912 C-55.76659165 502.80724144 -65.08841791 502.79136063 -74.41040039 502.76342773 C-85.19358786 502.73136591 -95.97641375 502.7313948 -106.75962692 502.7486425 C-117.12710459 502.76449551 -127.49444947 502.75778252 -137.86192131 502.74070549 C-142.27694157 502.73382626 -146.69185567 502.73487637 -151.10687447 502.74225044 C-156.30344593 502.74990077 -161.49960489 502.73782803 -166.69610596 502.71040154 C-168.60529798 502.70350382 -170.51452843 502.70343451 -172.42371941 502.71061707 C-175.0258679 502.71927996 -177.626734 502.70341028 -180.22877502 502.6811676 C-180.98801177 502.68940837 -181.74724852 502.69764914 -182.52949244 502.70613962 C-186.02460869 502.65082626 -187.8867666 502.43406633 -190.68495083 500.25884914 C-194.43759094 495.18007349 -193.63507704 488.5682736 -192.92236328 482.56884766 C-191.54943834 474.51354469 -188.23304023 469.74834834 -182.10986328 464.46337891 C-178.11512686 461.70609722 -174.51149516 460.91694635 -169.70629883 460.93945312 C-168.61055542 460.93969482 -167.51481201 460.93993652 -166.38586426 460.94018555 C-164.67529846 460.95553345 -164.67529846 460.95553345 -162.93017578 460.97119141 C-161.87366821 460.97320557 -160.81716064 460.97521973 -159.7286377 460.97729492 C-155.79186648 460.98773841 -151.85515728 461.01566098 -147.91845703 461.04150391 C-139.11158203 461.08275391 -130.30470703 461.12400391 -121.23095703 461.16650391 C-121.56095703 429.81650391 -121.89095703 398.46650391 -122.23095703 366.16650391 C-124.87095703 368.14650391 -127.51095703 370.12650391 -130.23095703 372.16650391 C-142.92297417 380.35031655 -157.98995378 381.59068824 -172.45483398 378.63867188 C-187.28763193 375.25578533 -198.66298804 366.20846041 -206.79345703 353.60400391 C-211.02210682 346.20166893 -213.42776985 339.71556053 -213.23095703 331.16650391 C-214.03017578 331.15232422 -214.82939453 331.13814453 -215.65283203 331.12353516 C-227.92459442 330.59060651 -237.15635178 327.25261672 -246.03955078 318.61181641 C-253.97798256 309.75360197 -257.96192334 298.75893621 -257.59423828 286.81884766 C-256.66457978 280.03134093 -254.47034475 273.20752425 -251.23095703 267.16650391 C-252.32150391 267.03695312 -252.32150391 267.03695312 -253.43408203 266.90478516 C-268.67435448 264.77505478 -282.35093013 258.17948977 -292.23095703 246.16650391 C-301.77410802 232.14820796 -305.21628408 217.62608334 -302.73486328 200.80322266 C-299.05520037 184.77486047 -290.10134989 172.87815441 -276.23095703 164.16650391 C-273.59677045 162.69799674 -270.98124909 161.41191918 -268.23095703 160.16650391 C-268.67826172 159.50005859 -269.12556641 158.83361328 -269.58642578 158.14697266 C-281.81550959 139.50348667 -287.68256496 119.15200335 -283.19946289 96.95458984 C-279.62058613 81.86325543 -272.31951006 69.84497731 -261.23095703 59.16650391 C-260.58642578 58.50263672 -259.94189453 57.83876953 -259.27783203 57.15478516 C-245.7509998 44.06904528 -227.3139919 39.56160583 -209.04711914 39.68457031 C-199.59520417 39.98170745 -189.6019164 41.5322072 -181.23095703 46.16650391 C-180.86744141 45.33248047 -180.50392578 44.49845703 -180.12939453 43.63916016 C-172.51959443 26.60491531 -163.15136088 14.02418171 -145.21142578 7.13134766 C-129.98046377 2.2007479 -114.92722017 3.44628711 -100.60595703 10.66650391 C-96.90697659 12.59640674 -93.49089375 14.55855453 -90.23095703 17.16650391 C-89.26609375 16.02375 -89.26609375 16.02375 -88.28173828 14.85791016 C-65.56840305 -11.37865792 -30.19205952 -18.49094497 0 0 Z " fill="#6DC17C" transform="translate(348.23095703125,9.83349609375)"/>
<path d="M0 0 C1.44536133 -0.01450195 1.44536133 -0.01450195 2.91992188 -0.02929688 C23.06781117 0.08568791 38.86691121 4.40272476 53.6328125 18.73046875 C66.31846413 32.50465815 72.07628475 48.66823176 72 67.30078125 C71.55467192 71.6872628 70.88128906 75.98173652 70 80.30078125 C70.63164062 80.26597656 71.26328125 80.23117188 71.9140625 80.1953125 C88.1787909 79.70315213 103.29084307 84.63797905 115.4375 95.55078125 C123.37587925 103.0610726 128.61482029 111.95812165 132 122.30078125 C132.22558594 122.98140625 132.45117188 123.66203125 132.68359375 124.36328125 C137.20736309 140.83604133 132.97064061 156.75242751 125 171.30078125 C125.75023437 171.64109375 126.50046875 171.98140625 127.2734375 172.33203125 C143.26241553 179.90363797 154.04129824 190.43604512 160.125 207.29296875 C164.66299224 222.89231708 162.21921098 238.21009644 154.796875 252.375 C148.93206701 261.92443735 140.34209344 269.86845549 130 274.30078125 C129.34 274.30078125 128.68 274.30078125 128 274.30078125 C128.09539062 275.18636719 128.19078125 276.07195312 128.2890625 276.984375 C130.36195472 300.14774035 124.96434802 320.88442463 110.6171875 339.37109375 C98.60161703 353.24115741 82.99267593 362.5938908 65 366.30078125 C64.12601562 366.48640625 63.25203125 366.67203125 62.3515625 366.86328125 C57.7050051 367.46982487 53.1180826 367.44527014 48.4375 367.42578125 C47.50486328 367.42964844 46.57222656 367.43351562 45.61132812 367.4375 C44.70705078 367.43621094 43.80277344 367.43492187 42.87109375 367.43359375 C42.05568115 367.43246582 41.24026855 367.43133789 40.40014648 367.43017578 C37.85418173 367.29292003 35.48525791 366.85735964 33 366.30078125 C35.26463637 364.03614488 37.12268348 363.59070905 40.15307617 362.75561523 C59.51441024 357.40188739 74.92793432 346.07501467 85.1328125 328.6875 C93.08032885 314.27223498 96.20217369 301.17483581 96.0625 284.80078125 C96.05798828 283.78757812 96.05347656 282.774375 96.04882812 281.73046875 C96.03714593 279.25384298 96.02076582 276.77734468 96 274.30078125 C96.67804688 273.97207031 97.35609375 273.64335937 98.0546875 273.3046875 C112.15491682 266.09833761 122.20235043 255.87116214 127.2734375 240.74609375 C128.95148225 235.09848076 129.21713292 230.05898789 129.25 224.17578125 C129.2809375 222.82613281 129.2809375 222.82613281 129.3125 221.44921875 C129.39190053 207.6335272 123.66083451 195.40492846 114.26953125 185.3671875 C108.06285194 179.71601133 100.54516028 175.85981912 93 172.30078125 C94.03229484 169.681811 95.09410859 167.0848141 96.21875 164.50390625 C103.23762003 148.3262668 103.51692177 134.0062266 98 117.30078125 C91.35124849 101.21444021 78.42435176 90.8884648 62.73828125 84.359375 C54.76557119 81.55742087 46.36405266 81.58217049 38 81.30078125 C38.2475 79.63015625 38.2475 79.63015625 38.5 77.92578125 C40.5455213 58.18340143 38.24903567 40.28835925 25.55859375 24.20703125 C15.95565215 12.90186099 4.64114748 7.32646716 -9 2.30078125 C-5.88661005 0.49049273 -3.58613351 0.0356879 0 0 Z " fill="#68B76A" transform="translate(305,-0.30078125)"/>
<path d="M0 0 C1.06163187 -0.00891337 1.06163187 -0.00891337 2.14471084 -0.0180068 C4.51048807 -0.03531589 6.87606212 -0.03839167 9.24189758 -0.04138184 C10.94067819 -0.0506429 12.63945466 -0.06069286 14.33822632 -0.07147217 C18.9500233 -0.097681 23.5617621 -0.11060262 28.17362189 -0.11949348 C31.0574145 -0.12536192 33.94119132 -0.13357289 36.82497597 -0.14250183 C45.85490394 -0.16984281 54.8847957 -0.18917988 63.9147622 -0.19690561 C74.325024 -0.20586211 84.73475994 -0.24093892 95.14486188 -0.2989068 C103.20026488 -0.34219949 111.25552026 -0.36231733 119.31103832 -0.36498785 C124.11814502 -0.36707995 128.92475713 -0.37880818 133.73174095 -0.41462708 C138.25703738 -0.44769148 142.7814702 -0.45185132 147.30684471 -0.43434906 C148.96199362 -0.43281366 150.61718993 -0.44142352 152.27222061 -0.46126556 C161.75069833 -0.56818155 169.2613065 -0.11769156 176.86030579 6.28088379 C179.11421204 8.69494629 179.11421204 8.69494629 180.42280579 10.90588379 C180.87784485 11.64064941 181.33288391 12.37541504 181.80171204 13.13244629 C184.10580564 17.80865101 184.13881092 22.58222534 184.23530579 27.71838379 C184.29138 28.84470215 184.29138 28.84470215 184.34858704 29.99377441 C184.3601886 30.72660645 184.37179016 31.45943848 184.38374329 32.21447754 C184.40356262 32.8750415 184.42338196 33.53560547 184.44380188 34.21618652 C183.48223692 37.6186781 181.57395641 39.07988747 178.86030579 41.28088379 C175.95265934 41.77156906 173.63291546 41.9544419 170.73114014 41.90907288 C169.51002497 41.91971446 169.51002497 41.91971446 168.2642408 41.93057102 C165.53853823 41.94816235 162.81425951 41.93004111 160.08857727 41.9119873 C158.13375702 41.91712566 156.1789414 41.9244063 154.22413635 41.93367004 C148.91630776 41.95220165 143.60898076 41.9392347 138.30117297 41.91957974 C132.74967525 41.90320889 127.19820968 41.91200386 121.646698 41.917099 C112.32467117 41.92162132 103.00284491 41.90574051 93.68086243 41.87780762 C82.89767496 41.84574579 72.11484907 41.84577469 61.33163589 41.86302239 C50.96415823 41.87887539 40.59681335 41.8721624 30.22934151 41.85508537 C25.81432125 41.84820614 21.39940715 41.84925625 16.98438835 41.85663033 C11.78781689 41.86428065 6.59165793 41.85220792 1.39515686 41.82478142 C-0.51403516 41.81788371 -2.42326562 41.8178144 -4.33245659 41.82499695 C-6.93460508 41.83365984 -9.53547118 41.81779016 -12.13751221 41.79554749 C-12.89674895 41.80378825 -13.6559857 41.81202902 -14.43822962 41.82051951 C-17.93334588 41.76520614 -19.79550378 41.54844621 -22.59368801 39.37322903 C-26.34632812 34.29445338 -25.54381422 27.68265349 -24.83110046 21.68322754 C-23.45817552 13.62792457 -20.14177741 8.86272822 -14.01860046 3.57775879 C-9.47982226 0.44496386 -5.44460433 0.02559521 0 0 Z " fill="#975C33" transform="translate(180.1396942138672,470.7191162109375)"/>
<path d="M0 0 C0.43828125 0.36351562 0.8765625 0.72703125 1.328125 1.1015625 C13.82521074 11.007789 27.99418804 16.27786591 44 15 C49.85245552 14.17111145 55.30433047 12.62733415 61 11 C61 41.03 61 71.06 61 102 C39.55 102 18.1 102 -4 102 C-4.16043524 77.99264935 -4.16043524 77.99264935 -4.1953125 67.76367188 C-4.21922911 60.7823471 -4.24753044 53.80123206 -4.30175781 46.82006836 C-4.34520121 41.19203581 -4.36913423 35.56422816 -4.37950897 29.93604088 C-4.38690299 27.7882095 -4.40134167 25.64039051 -4.42292023 23.4926548 C-4.45193366 20.48547334 -4.45595679 17.4792226 -4.45410156 14.47192383 C-4.46848267 13.58287857 -4.48286377 12.69383331 -4.49768066 11.77784729 C-4.46939261 7.54365418 -4.35424578 5.54000017 -1.97161865 1.90800476 C-1.3209845 1.27836319 -0.67035034 0.64872162 0 0 Z " fill="#CE9774" transform="translate(231,369)"/>
<path d="M0 0 C0 30.03 0 60.06 0 91 C-10.23 91 -20.46 91 -31 91 C-31 62.62 -31 34.24 -31 5 C-24.07 4.34 -17.14 3.68 -10 3 C-1 0 -1 0 0 0 Z " fill="#C6865B" transform="translate(292,380)"/>
<path d="M0 0 C7.63270391 4.20194192 12.1019704 10.16884905 14.6875 18.5 C15.82285934 26.78391818 13.97025732 34.02000178 9.02734375 40.765625 C3.2769252 47.14185912 -3.49415047 49.91847506 -11.9375 50.9375 C-19.99871247 49.89252801 -27.60406922 47.17242605 -32.78515625 40.64453125 C-37.2165879 33.96508471 -39.69920409 26.52307368 -38.3125 18.5 C-35.48671525 10.43820232 -31.81483675 4.6924823 -24.3125 0.5 C-22.6728125 -0.428125 -22.6728125 -0.428125 -21 -1.375 C-13.38484105 -3.69826883 -7.27188654 -3.31114437 0 0 Z " fill="#F0B852" transform="translate(168.3125,111.5)"/>
<path d="M0 0 C6.5829742 4.42177135 11.46966708 9.99351206 13.5546875 17.7265625 C15.34339201 26.85836974 13.05165305 33.1716105 8 41 C3.25028661 46.64651242 -2.57424854 49.44907658 -9.82421875 50.3515625 C-18.30083253 50.76399697 -24.67669074 48.82572083 -31.0703125 43.16796875 C-36.60296016 37.29965836 -39.05951665 31.65535032 -39.5 23.625 C-39.25020635 16.40096761 -36.73531661 10.95295482 -31.83984375 5.66796875 C-23.21637076 -2.32206048 -11.06942081 -5.66830686 0 0 Z " fill="#F0B852" transform="translate(310,59)"/>
<path d="M0 0 C6.52486303 3.77302624 11.29310137 9.88314079 13.5625 17.0625 C14.38288833 25.04697713 14.48836513 32.44084524 9.5625 39.0625 C5.27884254 44.17909086 -0.72811432 48.85952327 -7.4375 50.0625 C-16.23018408 50.82871961 -22.4346539 50.12024992 -29.33984375 44.51953125 C-35.8429429 38.51138257 -38.63348879 33.08986443 -39 24.1875 C-38.73171482 16.34854228 -36.97889864 10.50143502 -31.27734375 4.96484375 C-22.16295012 -2.44535608 -11.16228296 -4.96481911 0 0 Z " fill="#F0B852" transform="translate(373.4375,168.9375)"/>
<path d="M0 0 C6.01601489 3.58096124 9.82262353 10.46787058 12 17 C12.94130125 26.41301249 11.04263833 33.3580392 5.25 40.8125 C0.07844972 46.46970348 -6.95848511 49.02271668 -14.5 49.4375 C-21.87970297 49.33924952 -28.82536129 46.19915329 -34.0234375 40.9609375 C-35.5105959 39.02400436 -36.80317592 37.12673057 -38 35 C-38.37125 34.41992188 -38.7425 33.83984375 -39.125 33.2421875 C-41.54649366 27.03710999 -41.2090197 16.54228243 -38.5625 10.5 C-30.07440983 -3.14157348 -14.26545005 -7.26241094 0 0 Z " fill="#F0B852" transform="translate(333,281)"/>
<path d="M0 0 C6.77504952 3.96874651 11.23083842 9.72493505 13.25390625 17.3203125 C14.71136889 26.47064319 12.53063691 33.76296096 7.25390625 41.3203125 C1.51022181 47.20075133 -4.48572196 49.37794496 -12.62109375 49.6328125 C-20.54066484 49.46639382 -26.32120674 47.5718975 -32.13671875 42.08984375 C-38.31786298 35.29358565 -39.57632351 29.13985161 -39.21875 19.98046875 C-38.21598637 12.21526611 -35.28960375 7.24390662 -29.24609375 2.3203125 C-20.3220287 -4.21562247 -10.00666614 -4.59375043 0 0 Z " fill="#F0B852" transform="translate(177.74609375,245.6796875)"/>
<path d="M0 0 C2.8125 2.4375 2.8125 2.4375 5 5 C5.721875 5.825 6.44375 6.65 7.1875 7.5 C11.78576133 13.84242943 11.83977779 20.40664085 11 28 C8.35797254 36.88458537 2.53582748 42.2429284 -5.1875 46.9375 C-12.14087324 48.87532533 -19.84193214 49.44637793 -26.5 46.25 C-27.6888529 45.53568922 -28.85868884 44.78804818 -30 44 C-30.9075 43.38125 -31.815 42.7625 -32.75 42.125 C-37.92958325 37.23317137 -40.53995843 31.7334143 -41.40625 24.703125 C-41.63604406 16.23904385 -40.63275148 10.49198475 -35 4 C-25.26957393 -5.26707245 -11.60920373 -7.35727315 0 0 Z " fill="#F0B852" transform="translate(270,185)"/>
</svg>
