<?xml version="1.0" encoding="UTF-8"?>
<svg version="1.1" xmlns="http://www.w3.org/2000/svg" width="512" height="516">
<path d="M0 0 C5.31639335 4.39867309 10.43313777 4.71832303 17.15771484 5.25195312 C30.3814689 6.61071504 40.80340472 9.55712571 51.53271484 17.75195312 C52.45310547 18.409375 52.45310547 18.409375 53.39208984 19.08007812 C61.5410063 25.35402265 65.83690703 34.63709723 69.19677734 44.12304688 C71.7906262 49.2273167 75.85638347 51.0497543 81.05249023 53.0324707 C93.9239875 57.95985277 103.8051014 66.55938682 110.53271484 78.75195312 C114.29291243 87.39062266 115.48815539 96.52184907 114.06005859 105.83398438 C112.93494822 113.80430406 113.96083695 117.58967948 118.68115234 124.06835938 C126.22843942 135.00714887 128.24970046 150.89600446 126.21191406 163.78027344 C123.61727752 177.16645418 118.87509881 190.259788 107.22802734 198.35351562 C105.03515365 199.61607927 102.84223633 200.72068462 100.53271484 201.75195312 C99.56333984 202.18507813 98.59396484 202.61820313 97.59521484 203.06445312 C88.91634148 205.01277163 82.47835814 203.41095525 74.53271484 199.75195312 C70.58914702 198.07534644 67.86150899 197.2218967 63.53271484 197.75195312 C58.33707687 200.24152966 56.00615693 203.75012635 53.01318359 208.45117188 C46.75362636 218.17908537 37.79548349 224.72632389 26.40771484 227.31445312 C15.78363322 228.9311612 4.8142405 228.09051997 -4.60972595 222.47541809 C-6.46728516 220.75195312 -6.46728516 220.75195312 -6.96607971 218.57133484 C-6.96591354 217.72561417 -6.96574738 216.87989349 -6.96557617 216.00854492 C-6.97561172 215.04712082 -6.98564728 214.08569672 -6.99598694 213.09513855 C-6.98780441 212.05762955 -6.97962189 211.02012054 -6.97119141 209.95117188 C-6.98532326 208.3474749 -6.98532326 208.3474749 -6.9997406 206.71138 C-7.02847028 203.28721069 -7.03146643 199.86373342 -7.02978516 196.43945312 C-7.03339322 193.02598504 -7.04295398 189.61302379 -7.07054138 186.19966125 C-7.08731735 184.07504156 -7.09021533 181.95025536 -7.07752991 179.8256073 C-7.12284448 173.43413048 -7.71027775 168.81529468 -12.15478516 163.87695312 C-15.5655357 162.21766907 -18.78018417 162.25762885 -22.46728516 162.75195312 C-26.37942535 164.18357438 -30.01506145 166.1828391 -33.66845703 168.171875 C-37.9477461 170.29490452 -40.54041188 171.15899256 -45.18603516 169.65820312 C-46.62842522 169.05834307 -48.05772172 168.42534164 -49.46728516 167.75195312 C-50.45857422 167.29433594 -51.44986328 166.83671875 -52.47119141 166.36523438 C-53.31552734 165.93597656 -54.15986328 165.50671875 -55.02978516 165.06445312 C-59.91764216 162.80851912 -63.12006746 161.92221245 -68.46728516 162.75195312 C-72.5516661 165.14930716 -74.01683216 167.32952438 -75.46728516 171.75195312 C-75.73028393 174.27251366 -75.73028393 174.27251366 -75.64331055 176.90600586 C-75.62954124 178.40797768 -75.62954124 178.40797768 -75.61549377 179.94029236 C-75.59881149 181.01122635 -75.58212921 182.08216034 -75.56494141 183.18554688 C-75.56087809 185.46614305 -75.55899193 187.74674396 -75.55908203 190.02734375 C-75.55096928 193.61391747 -75.52964041 197.19829732 -75.47094727 200.78442383 C-75.41974438 204.25264501 -75.42522013 207.71706038 -75.43994141 211.18554688 C-75.40908951 212.25445663 -75.37823761 213.32336639 -75.34645081 214.42466736 C-75.4395523 221.68218197 -75.4395523 221.68218197 -78.37277222 224.73538208 C-87.54340835 231.03442523 -97.47897482 232.90656897 -108.46728516 231.75195312 C-116.3257031 230.0618681 -122.49736764 227.09756555 -128.46728516 221.75195312 C-129.04865234 221.27371094 -129.63001953 220.79546875 -130.22900391 220.30273438 C-134.87202871 216.16053022 -137.69044915 211.19498482 -140.36376953 205.63867188 C-142.09661028 202.27644355 -143.62079363 200.35799037 -147.02587891 198.82617188 C-150.86536064 197.62769574 -152.65769001 197.53612489 -156.46728516 198.75195312 C-158.50063725 200.03384901 -160.49809669 201.3735212 -162.46728516 202.75195312 C-169.92942659 206.88794624 -176.61317927 209.22389067 -185.18603516 207.06835938 C-196.46170334 203.33561757 -201.81894407 197.03699211 -207.46728516 186.75195312 C-214.98751233 171.52466084 -215.56768339 153.85286184 -210.46728516 137.75195312 C-208.15730036 132.09761886 -205.48271187 126.41569892 -201.79150391 121.53710938 C-198.67799435 117.33984132 -199.47741618 111.65904769 -199.59228516 106.68945312 C-199.6376145 86.83520187 -190.96863618 70.55093615 -177.35400391 56.58398438 C-163.69215441 43.67141365 -146.96643023 37.55529801 -128.89306641 33.90429688 C-123.81982419 32.19779009 -121.38618566 29.60220535 -119.02587891 24.84960938 C-118.65591797 23.84800781 -118.28595703 22.84640625 -117.90478516 21.81445312 C-116.13278097 17.29584246 -114.38707206 13.61360677 -111.46728516 9.75195312 C-110.87560547 8.96433594 -110.28392578 8.17671875 -109.67431641 7.36523438 C-99.0436554 -5.22222087 -82.26840301 -11.49331922 -66.46728516 -14.24804688 C-64.58009766 -14.58835937 -64.58009766 -14.58835937 -62.65478516 -14.93554688 C-41.92981733 -16.97335752 -16.47567998 -14.01392281 0 0 Z M-52.77978516 32.56445312 C-55.61039389 36.23376074 -55.58683737 39.24375024 -55.56494141 43.73242188 C-55.56010742 45.47749023 -55.56010742 45.47749023 -55.55517578 47.2578125 C-55.54679687 48.47275391 -55.53841797 49.68769531 -55.52978516 50.93945312 C-55.52527344 52.16599609 -55.52076172 53.39253906 -55.51611328 54.65625 C-55.50431581 57.68819981 -55.48785436 60.72005218 -55.46728516 63.75195312 C-56.52818359 64.02007812 -57.58908203 64.28820312 -58.68212891 64.56445312 C-66.98342464 67.1687812 -72.20645116 72.75621091 -76.31494141 80.26757812 C-80.18064558 88.60177424 -80.35032655 96.52879977 -77.49462891 105.20117188 C-74.02807824 113.80823495 -68.57271278 119.29149677 -60.46728516 123.75195312 C-52.76675162 126.86759525 -43.35116853 127.36544358 -35.59228516 124.12695312 C-34.19290223 123.37923089 -32.81638794 122.58698773 -31.46728516 121.75195312 C-30.76990234 121.33945313 -30.07251953 120.92695313 -29.35400391 120.50195312 C-22.57197482 116.00614476 -18.27762949 109.38009433 -16.09228516 101.56445312 C-14.40168359 91.25178356 -16.53351907 82.39294765 -22.59228516 73.86523438 C-27.25083597 68.6146594 -32.56099144 64.98242194 -39.46728516 63.75195312 C-39.44371948 62.61765869 -39.44371948 62.61765869 -39.41967773 61.46044922 C-39.35710469 58.01602736 -39.3182231 54.57172539 -39.27978516 51.12695312 C-39.25464844 49.93714844 -39.22951172 48.74734375 -39.20361328 47.52148438 C-39.01220638 39.12519231 -39.01220638 39.12519231 -42.46728516 31.75195312 C-46.26259994 29.85429573 -49.4405048 29.94717933 -52.77978516 32.56445312 Z M42.53271484 73.75195312 C41.45316273 76.99060947 41.32829743 79.5435115 41.21630859 82.95117188 C41.17441406 84.15966797 41.13251953 85.36816406 41.08935547 86.61328125 C41.05003906 87.87591797 41.01072266 89.13855469 40.97021484 90.43945312 C40.92703125 91.71369141 40.88384766 92.98792969 40.83935547 94.30078125 C40.73316624 97.45106164 40.63111952 100.60142152 40.53271484 103.75195312 C39.84274414 104.09331299 39.15277344 104.43467285 38.44189453 104.78637695 C37.53858398 105.2352124 36.63527344 105.68404785 35.70458984 106.14648438 C34.80836914 106.59096924 33.91214844 107.0354541 32.98876953 107.4934082 C25.22119708 111.47370999 21.76144924 117.990566 18.15771484 125.68945312 C16.34711544 134.56139019 17.22395205 142.73511297 21.53271484 150.75195312 C27.79643877 159.48917117 34.63711604 164.50396279 45.18505859 166.49414062 C55.19087646 167.59294924 62.63293765 164.04988008 70.78271484 158.56445312 C78.29765408 150.87871981 80.91288171 143.30918452 80.98364258 132.74780273 C80.74515229 123.5198925 76.76537479 116.50495834 70.22021484 110.18945312 C66.16076085 106.59393673 61.64028629 105.26784217 56.53271484 103.75195312 C56.55366211 102.8944043 56.57460938 102.03685547 56.59619141 101.15332031 C56.66448011 97.9627684 56.71456998 94.77258967 56.75244141 91.58154297 C56.77252126 90.20218632 56.7997915 88.82291443 56.83447266 87.44384766 C56.88314301 85.45838334 56.90357902 83.47229058 56.92333984 81.48632812 C56.94428711 80.29233398 56.96523438 79.09833984 56.98681641 77.86816406 C56.77974327 74.67071738 56.77974327 74.67071738 54.69580078 72.35839844 C50.37004052 69.1458135 46.20490288 70.07976509 42.53271484 73.75195312 Z M-141.16333008 80.33496094 C-144.19411907 83.51444711 -144.05069326 85.14854338 -143.95556641 89.48632812 C-143.93945312 90.78183594 -143.92333984 92.07734375 -143.90673828 93.41210938 C-143.86496455 94.7754074 -143.82263985 96.13868865 -143.77978516 97.50195312 C-143.75469426 98.88081937 -143.73188244 100.25972909 -143.71142578 101.63867188 C-143.65247133 105.01086669 -143.57021686 108.38086054 -143.46728516 111.75195312 C-144.52818359 112.01878906 -145.58908203 112.285625 -146.68212891 112.56054688 C-155.45701007 115.32250637 -161.18896195 121.81250744 -165.46728516 129.75195312 C-168.83252044 136.63276066 -168.45992537 145.305876 -166.81494141 152.67382812 C-163.73689212 161.18139783 -158.62619771 166.87643216 -150.71728516 171.18945312 C-141.25419604 175.48017055 -133.44822768 175.64887372 -123.61962891 172.23632812 C-114.59879342 167.9885989 -108.89929672 160.99444009 -105.46728516 151.75195312 C-102.79504332 142.98908216 -104.31618059 134.72644348 -108.46728516 126.75195312 C-112.65101515 118.99974755 -119.42250273 114.89538354 -127.46728516 111.75195312 C-127.48186768 110.96022705 -127.4964502 110.16850098 -127.51147461 109.3527832 C-127.58606871 105.75618769 -127.68269349 102.1605087 -127.77978516 98.56445312 C-127.81362305 96.69563477 -127.81362305 96.69563477 -127.84814453 94.7890625 C-127.88359375 93.58701172 -127.91904297 92.38496094 -127.95556641 91.14648438 C-127.98175049 90.04151611 -128.00793457 88.93654785 -128.03491211 87.7980957 C-128.51918642 84.3862998 -129.36300973 82.46759139 -131.46728516 79.75195312 C-135.51812611 78.47668838 -137.4550749 78.15762447 -141.16333008 80.33496094 Z " fill="#34BA74" transform="translate(301.46728515625,103.248046875)"/>
<path d="M0 0 C1.41465731 0.46303041 2.82857475 0.92832159 4.2421875 1.39453125 C5.02964355 1.65339111 5.81709961 1.91225098 6.62841797 2.17895508 C9.43576874 3.15086373 12.15805358 4.26848988 14.8828125 5.44921875 C20.9863928 7.03705053 25.79392015 5.63184689 31.3125 3 C37.80574324 0 37.80574324 0 40 0 C40.00219984 0.85061744 40.00219984 0.85061744 40.00444412 1.71841908 C40.04160235 15.55876877 40.10098516 29.39887234 40.18390274 43.23902607 C40.2236009 49.93222962 40.25554661 56.62529499 40.27099609 63.31860352 C40.28618765 69.78323094 40.32067857 76.24749863 40.36830902 82.71196556 C40.38309687 85.17295383 40.39103952 87.63399346 40.39188385 90.09502602 C40.39426296 93.55372682 40.42142061 97.0114411 40.45410156 100.4699707 C40.4490712 101.47770538 40.44404083 102.48544006 40.43885803 103.52371216 C40.66062246 118.78596859 47.79496749 127.94479604 58.1875 138.1875 C58.80608887 138.78216064 59.42467773 139.37682129 60.06201172 139.98950195 C60.65385254 140.564021 61.24569336 141.13854004 61.85546875 141.73046875 C62.38809326 142.23989014 62.92071777 142.74931152 63.46948242 143.27416992 C65 145 65 145 68 150 C36.32 150 4.64 150 -28 150 C-23.80802464 144.41069952 -19.99644421 139.91190028 -15 135.25 C-7.78760449 128.29899838 -1.50653442 120.18744903 -0.8613348 109.75866318 C-0.85488225 108.93642384 -0.8484297 108.11418449 -0.84178162 107.26702881 C-0.8319928 106.3191449 -0.82220398 105.37126099 -0.81211853 104.39465332 C-0.80636307 103.36175171 -0.8006076 102.3288501 -0.79467773 101.26464844 C-0.77982834 99.62517242 -0.77982834 99.62517242 -0.76467896 97.95257568 C-0.73307976 94.33819753 -0.70831264 90.72380622 -0.68359375 87.109375 C-0.66302287 84.60402077 -0.64202636 82.09866999 -0.62062073 79.59332275 C-0.57105734 73.67193023 -0.52578838 67.75051473 -0.48259836 61.82907319 C-0.42833179 54.42507519 -0.36740044 47.02113457 -0.30664062 39.6171875 C-0.19907608 26.41149738 -0.09744203 13.20576849 0 0 Z " fill="#0FB187" transform="translate(240,282)"/>
<path d="M0 0 C3.99987674 2.35112903 6.9649241 4.62658665 8.67578125 9.0546875 C10.14510765 15.18652206 9.90766816 19.45275018 6.67578125 25.0546875 C3.36809079 28.87125342 0.4461372 31.60709598 -4.62109375 32.42578125 C-11.14223317 32.60230891 -15.36034327 31.36228136 -20.32421875 27.0546875 C-23.79596719 23.02297964 -24.46740335 18.26302741 -24.32421875 13.0546875 C-22.58476048 7.25649326 -19.72605219 3.08009776 -14.4609375 -0.0546875 C-9.8381465 -1.98155468 -4.62276362 -1.88018285 0 0 Z " fill="#37BA73" transform="translate(261.32421875,181.9453125)"/>
<path d="M0 0 C4.36526056 4.05345623 6.79733023 8.54429907 7.0625 14.5625 C6.31001892 21.22733245 3.62456705 25.06287883 -1.375 29.4375 C-7.38866298 31.44205433 -14.08877996 31.45813395 -19.875 28.875 C-24.72165863 24.14950783 -26.60184266 20.57646017 -26.875 13.875 C-26.6739014 8.98160078 -25.78427346 6.11592663 -22.375 2.4375 C-15.05031576 -3.09338402 -8.38759609 -3.88314634 0 0 Z " fill="#2BB879" transform="translate(175.375,231.5625)"/>
<path d="M0 0 C3.78368523 3.25572915 6.31531923 5.7983809 7.0703125 10.8984375 C7.33129294 17.24896152 6.59549948 21.27323751 2.6875 26.3125 C-1.09335009 29.99882884 -4.19378869 30.6161138 -9.3125 30.8125 C-14.43071229 30.62880179 -17.45307744 29.88246587 -21.3125 26.3125 C-25.31513619 21.87714639 -26.69013255 18.55466389 -26.58984375 12.50390625 C-25.90071822 7.058844 -23.51837449 3.29227302 -19.3125 -0.125 C-12.78920657 -3.52254866 -6.55981716 -3.34179365 0 0 Z " fill="#2DB878" transform="translate(360.3125,223.6875)"/>
<path d="M0 0 C0.66 0.33 1.32 0.66 2 1 C-0.97 3.97 -3.94 6.94 -7 10 C-7 7 -7 7 -4.625 4.4375 C-3.75875 3.633125 -2.8925 2.82875 -2 2 C-1.34 1.34 -0.68 0.68 0 0 Z " fill="#40C06F" transform="translate(198,105)"/>
</svg>
