<?xml version="1.0" encoding="UTF-8"?>
<svg version="1.1" xmlns="http://www.w3.org/2000/svg" width="512" height="512">
<path d="M0 0 C3.07435543 3.07435543 2.979578 5.34034759 3.11352539 9.66699219 C3.11336795 11.1269627 3.10777139 12.58693952 3.09765625 14.046875 C3.0962413 14.81807678 3.09482635 15.58927856 3.09336853 16.3838501 C3.08778534 18.83927338 3.07523595 21.29460442 3.0625 23.75 C3.05748283 25.41796743 3.0529203 27.08593629 3.04882812 28.75390625 C3.03782141 32.83597287 3.02056836 36.91797081 3 41 C3.60521484 41.27473145 4.21042969 41.54946289 4.83398438 41.83251953 C8.01928165 43.54939189 10.13999397 46.19346726 12.5 48.875 C15.58961297 52.33502978 18.7026875 55.73516901 22 59 C22.02956683 54.31252073 22.04925081 49.62505061 22.0625 44.9375 C22.065914 43.906819 22.065914 43.906819 22.06939697 42.85531616 C22.09195442 34.0310748 21.96150255 25.30607387 21.0234375 16.51953125 C21 14 21 14 23 11 C28.98064761 9.44946173 28.98064761 9.44946173 32.14990234 11.16113281 C37.55193478 16.53037381 36.29407472 28.42229853 36.37866211 35.55664062 C36.37684937 37.38485352 36.37684937 37.38485352 36.375 39.25 C36.37701416 40.52037109 36.37902832 41.79074219 36.38110352 43.09960938 C36.28977034 51.560628 35.41443447 59.00454962 32.77734375 67.03125 C31.39357379 72.31599958 33.24844186 75.83520863 35.90625 80.4140625 C36.48503906 81.42210938 37.06382812 82.43015625 37.66015625 83.46875 C38.26730469 84.5103125 38.87445313 85.551875 39.5 86.625 C40.70018713 88.69920875 41.89820736 90.77467327 43.09375 92.8515625 C43.62677734 93.76760254 44.15980469 94.68364258 44.70898438 95.62744141 C46 98 46 98 47 101 C47.56847656 99.87722656 48.13695312 98.75445312 48.72265625 97.59765625 C59.27953088 77.02587402 59.27953088 77.02587402 67 72 C70.16909182 71.61194794 72.10703881 71.46422329 74.875 73.125 C76.57133822 75.95223037 76.44601397 77.75046964 76 81 C74.75163781 83.14718296 73.46900762 85.0125191 72 87 C61.95307029 101.62275908 56.57757781 116.68559482 51.70849609 133.59033203 C50.87688362 136.41873145 49.96319365 139.21378618 49 142 C50.48886719 141.14728516 50.48886719 141.14728516 52.0078125 140.27734375 C58.87468668 136.36568248 65.76265932 132.51141683 72.8125 128.9375 C73.93269531 128.36902344 75.05289063 127.80054687 76.20703125 127.21484375 C79 126 79 126 82 126 C82.061875 124.7625 82.12375 123.525 82.1875 122.25 C84.18412318 105.38378841 98.03628767 86.69237812 110.6328125 75.703125 C113 74 113 74 115.5625 73.4375 C118 74 118 74 120.375 76.1875 C122 79 122 79 121.8828125 81.33203125 C120.73581516 84.79839932 118.92529433 86.77528662 116.5 89.5 C108.37791035 98.88145337 101.65725622 108.92952606 96 120 C97.2065625 119.65066406 98.413125 119.30132812 99.65625 118.94140625 C101.27074559 118.48146274 102.88533392 118.02184466 104.5 117.5625 C105.29148437 117.33240234 106.08296875 117.10230469 106.8984375 116.86523438 C110.78878704 115.76509455 114.43197327 114.90282169 118.46875 114.58984375 C119.6340625 114.39519531 120.799375 114.20054688 122 114 C123.13747026 112.16755686 123.13747026 112.16755686 124 110 C124.76228509 108.80540619 125.54842436 107.62576036 126.35546875 106.4609375 C126.80962158 105.8023877 127.26377441 105.14383789 127.73168945 104.46533203 C128.715855 103.05221357 129.70006851 101.63912852 130.68432617 100.22607422 C131.17779541 99.51725098 131.67126465 98.80842773 132.1796875 98.078125 C132.66405273 97.38267578 133.14841797 96.68722656 133.64746094 95.97070312 C134.8176004 94.26576347 135.94782313 92.53355666 137.0703125 90.796875 C141.224616 84.42570102 141.224616 84.42570102 145.1875 82.25 C148 82 148 82 150.25 82.5 C152.95649827 84.81985566 153.47786241 86.47557129 154 90 C151.95456014 95.87487835 148.09958524 100.90779885 144.375 105.8125 C143.40321012 107.11035095 142.43183959 108.40851602 141.4609375 109.70703125 C141.03603027 110.2688208 140.61112305 110.83061035 140.17333984 111.40942383 C139.0690493 112.90639696 138.03185958 114.45221062 137 116 C143.22745038 118.88877926 149.42799581 121.62804398 155.90625 123.91015625 C158.45139832 125.23496293 159.56304596 126.53067121 161 129 C160.77962372 132.67293796 160.63033454 134.36966546 158 137 C148.96805268 137.95600249 142.06247715 134.59127317 133.8828125 131.11132812 C127.39425528 128.49031423 122.83714308 127.33883085 116 129 C115.23236328 129.17072021 114.46472656 129.34144043 113.67382812 129.51733398 C94.60554784 134.08142662 76.51760152 141.76787633 59.78710938 151.94873047 C58.04716805 152.97225333 56.24988015 153.89626182 54.453125 154.81640625 C49.91529427 157.32958284 46.74930734 159.21023879 44.703125 164.09765625 C44.02097773 167.29609168 43.55374809 170.43409612 43.24316406 173.68847656 C42.97002374 176.28495509 42.58324997 178.85031842 42.1796875 181.4296875 C41.61687677 185.06643156 41.0606041 188.70306061 40.55078125 192.34765625 C40.44419189 193.10054932 40.33760254 193.85344238 40.2277832 194.62915039 C39.95876065 197.42923401 39.96428033 200.18878588 40 203 C40.72145706 202.51165428 40.72145706 202.51165428 41.45748901 202.01344299 C82.28430566 174.38298835 82.28430566 174.38298835 98.5 163.75 C99.54655762 163.06107666 100.59311523 162.37215332 101.67138672 161.66235352 C102.6151416 161.04674561 103.55889648 160.4311377 104.53125 159.796875 C105.73104492 159.01328613 105.73104492 159.01328613 106.95507812 158.21386719 C109.75055845 156.55446793 111.3383821 155.8547668 114.5625 156.5625 C117 158 117 158 118.4375 160.875 C119.07341947 164.40788596 118.92029548 165.09250541 117 168 C114.84521484 169.73925781 114.84521484 169.73925781 112.2109375 171.453125 C111.26992188 172.071875 110.32890625 172.690625 109.359375 173.328125 C108.37453125 173.96234375 107.3896875 174.5965625 106.375 175.25 C105.38242187 175.8996875 104.38984375 176.549375 103.3671875 177.21875 C100.91678227 178.82093803 98.46104923 180.41422993 96 182 C96.495 182.45375 96.99 182.9075 97.5 183.375 C99 185 99 185 99 187 C99.66 186.319375 100.32 185.63875 101 184.9375 C101.9952292 183.95348465 102.99588169 182.97494296 104 182 C104.60457031 181.41089844 105.20914063 180.82179687 105.83203125 180.21484375 C113.0244222 173.53315512 118.48698653 171.77037676 128.3125 171.5 C129.01890625 171.46914307 129.7253125 171.43828613 130.453125 171.40649414 C132.48828125 171.40625 132.48828125 171.40625 136 172 C139.57036792 176.03451575 139.51012309 179.93618431 139.34375 185.09375 C138.41275571 192.96488356 135.05022892 198.60347687 129.5859375 204.2109375 C127.96217139 206.04267366 126.99101409 207.77267131 126 210 C126.86625 210.9075 127.7325 211.815 128.625 212.75 C138.08160885 223.83860045 141.58229396 237.59440836 141.4375 251.875 C141.42614014 253.45317505 141.42614014 253.45317505 141.41455078 255.06323242 C141.24578656 263.03395407 140.34223949 269.68039139 137 277 C136.57589844 277.95777344 136.15179688 278.91554688 135.71484375 279.90234375 C131.02163599 289.4325623 124.15153298 297.17284533 114.1484375 301.1796875 C104.14576843 303.78584197 94.61730792 303.08771843 85.609375 297.8046875 C75.03602675 290.49198257 68.18343096 278.78713699 65.34423828 266.22363281 C62.4573979 247.57587238 65.05237488 229.553497 76 214 C80.35671076 208.52644191 85.60425223 204.82663394 92 202 C92.66 202 93.32 202 94 202 C93.06558465 200.72689688 92.12732889 199.456612 91.1875 198.1875 C90.66542969 197.47980469 90.14335937 196.77210938 89.60546875 196.04296875 C87.5176016 193.30409641 87.5176016 193.30409641 85 191 C81.70586388 191.46592429 79.4485637 192.83744611 76.72216797 194.68383789 C75.88805389 195.24434341 75.05393982 195.80484894 74.19454956 196.38233948 C73.30277008 196.98964401 72.4109906 197.59694855 71.4921875 198.22265625 C70.57035675 198.84273056 69.648526 199.46280487 68.69876099 200.10166931 C65.75378153 202.08315167 62.8139422 204.07207607 59.875 206.0625 C56.92864467 208.05607414 53.9811879 210.04790203 51.02981567 212.03404236 C49.19271861 213.27043513 47.35855059 214.51119286 45.52755737 215.75660706 C44.69974762 216.31396042 43.87193787 216.87131378 43.01904297 217.44555664 C42.28942352 217.93995743 41.55980408 218.43435822 40.80807495 218.94374084 C39 220 39 220 37 220 C36.95101562 220.95390625 36.90203125 221.9078125 36.8515625 222.890625 C36.77605729 224.34375081 36.70053444 225.79687571 36.625 227.25 C36.58246094 228.07935059 36.53992188 228.90870117 36.49609375 229.76318359 C36.23554763 234.76725351 35.95662019 239.76963124 35.64988708 244.77110291 C34.46165735 264.17407568 33.68029908 283.54712709 33.34179688 302.98486328 C33.3255275 303.83278946 33.30925812 304.68071564 33.29249573 305.55433655 C33.26235254 307.14560142 33.23619538 308.73694861 33.21470642 310.32835388 C33.15426839 313.4716022 33.00120679 315.99637964 32 319 C33.14210938 318.96519531 34.28421875 318.93039062 35.4609375 318.89453125 C64.11905252 318.30556296 99.44018613 320.68452918 123 339 C126.92156977 342.76626007 129.8420602 345.94560579 130.13422108 351.59569836 C130.1406313 353.16882274 130.1406313 353.16882274 130.14717102 354.77372742 C130.15432632 355.97792831 130.16148163 357.18212921 130.16885376 358.42282104 C130.17169399 359.75933812 130.17440573 361.09585547 130.17700195 362.43237305 C130.18326784 363.83853829 130.18991476 365.24470187 130.19691467 366.65086365 C130.21794561 371.27113698 130.22831734 375.89141059 130.23828125 380.51171875 C130.24232941 382.10359019 130.24644635 383.69546145 130.25063133 385.28733253 C130.26968226 392.76777855 130.28391251 400.24821471 130.2922433 407.72868031 C130.3020105 416.35601341 130.32831676 424.98308959 130.36874419 433.61033219 C130.39893667 440.28307614 130.41371521 446.95574659 130.41702431 453.6285575 C130.41937159 457.6117018 130.42828936 461.59457159 130.45348549 465.57764244 C130.47682578 469.32796529 130.48097584 473.07783408 130.47072411 476.82821083 C130.46999541 478.85202558 130.48904547 480.87581756 130.50878906 482.89953613 C130.45507605 492.32354048 128.77077292 499.04115005 122 506 C116.03910398 510.26814664 111.66472384 512.12159002 104.23921204 512.14717102 C103.54808939 512.15084771 102.85696674 512.1545244 102.14490098 512.1583125 C99.82356256 512.1693463 97.50226892 512.17319267 95.1809082 512.17700195 C93.51858885 512.18326689 91.85627089 512.18991371 90.19395447 512.19691467 C84.72957332 512.21795567 79.26519188 512.22831777 73.80078125 512.23828125 C71.91916578 512.24232893 70.03755046 512.24644585 68.15593529 512.25063133 C59.31501991 512.26968386 50.47411288 512.28391421 41.63318092 512.2922433 C31.43129161 512.3020134 21.2296194 512.32832674 11.02780658 512.36874419 C3.14063563 512.39891797 -4.74647313 512.41371342 -12.63370067 512.41702431 C-17.34341456 512.41937356 -22.05289653 512.42831755 -26.76254845 512.45348549 C-31.19573631 512.47679299 -35.62854001 512.48098872 -40.0617733 512.47072411 C-41.68549885 512.47022927 -43.30924348 512.47653437 -44.93291092 512.49028015 C-60.04175162 512.61099344 -60.04175162 512.61099344 -67 508 C-67.886875 507.4225 -68.77375 506.845 -69.6875 506.25 C-74.0126907 502.04170635 -77.81564943 496.5689881 -78.13422108 490.40150833 C-78.13849456 489.35145992 -78.14276804 488.30141151 -78.14717102 487.21954346 C-78.15432632 486.0138974 -78.16148163 484.80825134 -78.16885376 483.56607056 C-78.17169398 482.22796657 -78.17440571 480.8898623 -78.17700195 479.55175781 C-78.18326778 478.14397006 -78.18991469 476.73618395 -78.19691467 475.32839966 C-78.21794396 470.7033198 -78.22831624 466.07823965 -78.23828125 461.453125 C-78.24232928 459.85999281 -78.24644622 458.26686078 -78.25063133 456.67372894 C-78.2696808 449.18847957 -78.28391214 441.70324004 -78.2922433 434.21797109 C-78.30201413 425.58213811 -78.32833049 416.94656155 -78.36874419 408.31081891 C-78.39892099 401.63299508 -78.41371367 394.95524469 -78.41702431 388.277354 C-78.4193731 384.29032942 -78.42831091 380.30357885 -78.45348549 376.3166275 C-78.47679873 372.56384546 -78.48098666 368.81151723 -78.47072411 365.05868149 C-78.4699942 363.03109599 -78.48906269 361.00353337 -78.50878906 358.9760437 C-78.46155382 350.69792133 -77.68916196 346.00374166 -71.984375 339.8125 C-54.62536729 325.73106717 -32.50810527 322.66738074 -11 320 C-9.98421875 319.8659375 -8.9684375 319.731875 -7.921875 319.59375 C-1.84062055 318.9053061 4.22870823 318.96285272 10.33984375 318.98046875 C11.26921753 318.98187866 12.19859131 318.98328857 13.15612793 318.98474121 C15.43742518 318.98840536 17.71870925 318.99353404 20 319 C19.98428955 317.85265381 19.9685791 316.70530762 19.95239258 315.52319336 C19.45638579 275.46358183 21.61752939 235.81326707 26 196 C25.48714447 195.65809631 24.97428894 195.31619263 24.44589233 194.96392822 C8.96392822 184.64261882 -6.51803589 174.32130941 -22 164 C-25.15069422 165.36689554 -27.00891774 166.85657885 -29.1875 169.5 C-29.69667969 170.1084375 -30.20585937 170.716875 -30.73046875 171.34375 C-32.07117638 172.98469533 -32.07117638 172.98469533 -33 175 C-32.175 175.20625 -31.35 175.4125 -30.5 175.625 C-19.64115151 179.89097619 -13.49807323 188.48038449 -8.39453125 198.546875 C-4.85705482 207.30634045 -3.46690269 215.44652594 -3.5625 224.875 C-3.57007324 225.9271167 -3.57764648 226.9792334 -3.58544922 228.06323242 C-3.75421344 236.03395407 -4.65776051 242.68039139 -8 250 C-8.42410156 250.95777344 -8.84820312 251.91554687 -9.28515625 252.90234375 C-13.97836401 262.4325623 -20.84846702 270.17284533 -30.8515625 274.1796875 C-40.85423157 276.78584197 -50.38269208 276.08771843 -59.390625 270.8046875 C-69.96397325 263.49198257 -76.81656904 251.78713699 -79.65576172 239.22363281 C-82.55184867 220.51614349 -79.89466393 202.63676096 -69 187 C-67.41266642 185.11504137 -65.88246788 183.59724548 -64 182 C-64.60328125 181.443125 -65.2065625 180.88625 -65.828125 180.3125 C-72.48563576 173.95565101 -77.4674159 167.87238323 -78.203125 158.37890625 C-78.21859375 157.44949219 -78.2340625 156.52007812 -78.25 155.5625 C-78.27578125 154.63566406 -78.3015625 153.70882812 -78.328125 152.75390625 C-77.91807611 149.31242451 -77.32662474 147.59543796 -75 145 C-72.21592432 144.49636384 -70.14632644 144.33103276 -67.375 144.4375 C-66.65441406 144.45482178 -65.93382812 144.47214355 -65.19140625 144.48999023 C-53.17497682 145.02179843 -46.04450406 151.62030827 -38 160 C-37.34 158.35 -36.68 156.7 -36 155 C-36.84304687 154.49210938 -37.68609375 153.98421875 -38.5546875 153.4609375 C-40.19824219 152.42839844 -40.19824219 152.42839844 -41.875 151.375 C-42.96554688 150.70210937 -44.05609375 150.02921875 -45.1796875 149.3359375 C-48.39326323 146.67427782 -49.21523073 145.05464123 -50 141 C-49.125 138.125 -49.125 138.125 -48 136 C-44.37094807 134.90147617 -42.24156775 134.44156094 -38.72460938 136.0234375 C-36.16622996 137.59974951 -33.7057138 139.26807064 -31.25 141 C-29.45981564 142.2151093 -27.66945273 143.42995561 -25.87890625 144.64453125 C-25.0295752 145.23057129 -24.18024414 145.81661133 -23.30517578 146.42041016 C-20.6411018 148.24593003 -17.92852724 149.98004261 -15.1875 151.6875 C-10.40019067 154.71772535 -5.69368563 157.86127648 -0.98730469 161.01489258 C4.70001817 164.81819975 10.43785786 168.54065393 16.18994141 172.24511719 C16.8607373 172.67727539 17.5315332 173.10943359 18.22265625 173.5546875 C18.80797119 173.93093262 19.39328613 174.30717773 19.99633789 174.69482422 C22.67847392 176.44195462 25.33866751 178.22139019 28 180 C28.1858667 178.9483667 28.3717334 177.8967334 28.56323242 176.81323242 C29.42816134 171.93620774 30.30676448 167.06169144 31.1875 162.1875 C31.34418152 161.31541901 31.50086304 160.44333801 31.66229248 159.54483032 C35.50156931 138.26779156 35.50156931 138.26779156 38.84057617 128.61987305 C40.62381087 122.95628509 39.1901041 119.23748417 37 114 C36.75781738 113.36553955 36.51563477 112.7310791 36.26611328 112.07739258 C27.8309106 90.21669556 13.6891528 71.19923715 -2 54 C-2.56992676 53.31421875 -3.13985352 52.6284375 -3.72705078 51.921875 C-6.72869722 49.38385559 -9.22150855 48.97281558 -13.06640625 48.21875 C-13.74170883 48.07852417 -14.41701141 47.93829834 -15.11277771 47.79382324 C-17.98701514 47.19721561 -20.86780138 46.63575908 -23.7487793 46.07275391 C-25.85754931 45.6553312 -27.96175683 45.21889814 -30.06640625 44.78125 C-31.32396729 44.53439453 -32.58152832 44.28753906 -33.87719727 44.03320312 C-37.29297294 42.90306767 -38.38018274 42.1704211 -40 39 C-39.92997301 35.56867754 -39.73832272 33.74000072 -37.28125 31.27734375 C-34.29370774 29.60452471 -32.88888314 29.94798851 -29.5625 30.625 C-28.63566406 30.80289062 -27.70882812 30.98078125 -26.75390625 31.1640625 C-21.16155728 32.40939307 -15.5802801 33.70177544 -10 35 C-10.01571045 34.04633545 -10.0314209 33.0926709 -10.04760742 32.11010742 C-10.10191678 28.57113087 -10.13635333 25.03219114 -10.16479492 21.49291992 C-10.17987936 19.96128139 -10.20034978 18.42968602 -10.22631836 16.89819336 C-10.26271847 14.69634346 -10.27972913 12.49506467 -10.29296875 10.29296875 C-10.30845261 9.60849167 -10.32393646 8.92401459 -10.33988953 8.21879578 C-10.34089147 5.38693836 -10.30361055 3.45372815 -8.7043457 1.0637207 C-5.85913165 -0.71204174 -3.24603444 -0.29509404 0 0 Z " fill="#FFCD28" transform="translate(216,0)"/>
<path d="M0 0 C3.07435543 3.07435543 2.979578 5.34034759 3.11352539 9.66699219 C3.11336795 11.1269627 3.10777139 12.58693952 3.09765625 14.046875 C3.0962413 14.81807678 3.09482635 15.58927856 3.09336853 16.3838501 C3.08778534 18.83927338 3.07523595 21.29460442 3.0625 23.75 C3.05748283 25.41796743 3.0529203 27.08593629 3.04882812 28.75390625 C3.03782141 32.83597287 3.02056836 36.91797081 3 41 C3.60521484 41.27473145 4.21042969 41.54946289 4.83398438 41.83251953 C8.01928165 43.54939189 10.13999397 46.19346726 12.5 48.875 C15.58961297 52.33502978 18.7026875 55.73516901 22 59 C22.02956683 54.31252073 22.04925081 49.62505061 22.0625 44.9375 C22.065914 43.906819 22.065914 43.906819 22.06939697 42.85531616 C22.09195442 34.0310748 21.96150255 25.30607387 21.0234375 16.51953125 C21 14 21 14 23 11 C28.98064761 9.44946173 28.98064761 9.44946173 32.14990234 11.16113281 C37.55193478 16.53037381 36.29407472 28.42229853 36.37866211 35.55664062 C36.37684937 37.38485352 36.37684937 37.38485352 36.375 39.25 C36.37701416 40.52037109 36.37902832 41.79074219 36.38110352 43.09960938 C36.28977034 51.560628 35.41443447 59.00454962 32.77734375 67.03125 C31.39357379 72.31599958 33.24844186 75.83520863 35.90625 80.4140625 C36.48503906 81.42210938 37.06382812 82.43015625 37.66015625 83.46875 C38.26730469 84.5103125 38.87445313 85.551875 39.5 86.625 C40.70018713 88.69920875 41.89820736 90.77467327 43.09375 92.8515625 C43.62677734 93.76760254 44.15980469 94.68364258 44.70898438 95.62744141 C46 98 46 98 47 101 C47.56847656 99.87722656 48.13695312 98.75445312 48.72265625 97.59765625 C59.27953088 77.02587402 59.27953088 77.02587402 67 72 C70.16909182 71.61194794 72.10703881 71.46422329 74.875 73.125 C76.57133822 75.95223037 76.44601397 77.75046964 76 81 C74.75163781 83.14718296 73.46900762 85.0125191 72 87 C61.95307029 101.62275908 56.57757781 116.68559482 51.70849609 133.59033203 C50.87688362 136.41873145 49.96319365 139.21378618 49 142 C50.48886719 141.14728516 50.48886719 141.14728516 52.0078125 140.27734375 C58.87468668 136.36568248 65.76265932 132.51141683 72.8125 128.9375 C73.93269531 128.36902344 75.05289063 127.80054687 76.20703125 127.21484375 C79 126 79 126 82 126 C82.061875 124.7625 82.12375 123.525 82.1875 122.25 C84.18412318 105.38378841 98.03628767 86.69237812 110.6328125 75.703125 C113 74 113 74 115.5625 73.4375 C118 74 118 74 120.375 76.1875 C122 79 122 79 121.8828125 81.33203125 C120.73581516 84.79839932 118.92529433 86.77528662 116.5 89.5 C108.37791035 98.88145337 101.65725622 108.92952606 96 120 C97.2065625 119.65066406 98.413125 119.30132812 99.65625 118.94140625 C101.27074559 118.48146274 102.88533392 118.02184466 104.5 117.5625 C105.29148437 117.33240234 106.08296875 117.10230469 106.8984375 116.86523438 C110.78878704 115.76509455 114.43197327 114.90282169 118.46875 114.58984375 C119.6340625 114.39519531 120.799375 114.20054688 122 114 C123.13747026 112.16755686 123.13747026 112.16755686 124 110 C124.76228509 108.80540619 125.54842436 107.62576036 126.35546875 106.4609375 C126.80962158 105.8023877 127.26377441 105.14383789 127.73168945 104.46533203 C128.715855 103.05221357 129.70006851 101.63912852 130.68432617 100.22607422 C131.17779541 99.51725098 131.67126465 98.80842773 132.1796875 98.078125 C132.66405273 97.38267578 133.14841797 96.68722656 133.64746094 95.97070312 C134.8176004 94.26576347 135.94782313 92.53355666 137.0703125 90.796875 C141.224616 84.42570102 141.224616 84.42570102 145.1875 82.25 C148 82 148 82 150.25 82.5 C152.95649827 84.81985566 153.47786241 86.47557129 154 90 C151.95456014 95.87487835 148.09958524 100.90779885 144.375 105.8125 C143.40321012 107.11035095 142.43183959 108.40851602 141.4609375 109.70703125 C141.03603027 110.2688208 140.61112305 110.83061035 140.17333984 111.40942383 C139.0690493 112.90639696 138.03185958 114.45221062 137 116 C143.22745038 118.88877926 149.42799581 121.62804398 155.90625 123.91015625 C158.45139832 125.23496293 159.56304596 126.53067121 161 129 C160.77962372 132.67293796 160.63033454 134.36966546 158 137 C148.96805268 137.95600249 142.06247715 134.59127317 133.8828125 131.11132812 C127.39425528 128.49031423 122.83714308 127.33883085 116 129 C115.23236328 129.17072021 114.46472656 129.34144043 113.67382812 129.51733398 C94.60554784 134.08142662 76.51760152 141.76787633 59.78710938 151.94873047 C58.04716805 152.97225333 56.24988015 153.89626182 54.453125 154.81640625 C49.91529427 157.32958284 46.74930734 159.21023879 44.703125 164.09765625 C44.02097773 167.29609168 43.55374809 170.43409612 43.24316406 173.68847656 C42.97002374 176.28495509 42.58324997 178.85031842 42.1796875 181.4296875 C41.61687677 185.06643156 41.0606041 188.70306061 40.55078125 192.34765625 C40.44419189 193.10054932 40.33760254 193.85344238 40.2277832 194.62915039 C39.95876065 197.42923401 39.96428033 200.18878588 40 203 C40.72145706 202.51165428 40.72145706 202.51165428 41.45748901 202.01344299 C82.28430566 174.38298835 82.28430566 174.38298835 98.5 163.75 C99.54655762 163.06107666 100.59311523 162.37215332 101.67138672 161.66235352 C102.6151416 161.04674561 103.55889648 160.4311377 104.53125 159.796875 C105.73104492 159.01328613 105.73104492 159.01328613 106.95507812 158.21386719 C109.75055845 156.55446793 111.3383821 155.8547668 114.5625 156.5625 C117 158 117 158 118.4375 160.875 C119.07341947 164.40788596 118.92029548 165.09250541 117 168 C114.84521484 169.73925781 114.84521484 169.73925781 112.2109375 171.453125 C111.26992188 172.071875 110.32890625 172.690625 109.359375 173.328125 C108.37453125 173.96234375 107.3896875 174.5965625 106.375 175.25 C105.38242187 175.8996875 104.38984375 176.549375 103.3671875 177.21875 C100.91678227 178.82093803 98.46104923 180.41422993 96 182 C96.495 182.45375 96.99 182.9075 97.5 183.375 C99 185 99 185 99 187 C99.66 186.319375 100.32 185.63875 101 184.9375 C101.9952292 183.95348465 102.99588169 182.97494296 104 182 C104.60457031 181.41089844 105.20914063 180.82179687 105.83203125 180.21484375 C113.0244222 173.53315512 118.48698653 171.77037676 128.3125 171.5 C129.01890625 171.46914307 129.7253125 171.43828613 130.453125 171.40649414 C132.48828125 171.40625 132.48828125 171.40625 136 172 C139.57036792 176.03451575 139.51012309 179.93618431 139.34375 185.09375 C138.41275571 192.96488356 135.05022892 198.60347687 129.5859375 204.2109375 C127.96217139 206.04267366 126.99101409 207.77267131 126 210 C126.86625 210.9075 127.7325 211.815 128.625 212.75 C138.08160885 223.83860045 141.58229396 237.59440836 141.4375 251.875 C141.42614014 253.45317505 141.42614014 253.45317505 141.41455078 255.06323242 C141.24578656 263.03395407 140.34223949 269.68039139 137 277 C136.57589844 277.95777344 136.15179688 278.91554688 135.71484375 279.90234375 C131.02163599 289.4325623 124.15153298 297.17284533 114.1484375 301.1796875 C104.14576843 303.78584197 94.61730792 303.08771843 85.609375 297.8046875 C75.03602675 290.49198257 68.18343096 278.78713699 65.34423828 266.22363281 C62.4573979 247.57587238 65.05237488 229.553497 76 214 C80.35671076 208.52644191 85.60425223 204.82663394 92 202 C92.66 202 93.32 202 94 202 C93.06558465 200.72689688 92.12732889 199.456612 91.1875 198.1875 C90.66542969 197.47980469 90.14335937 196.77210938 89.60546875 196.04296875 C87.5176016 193.30409641 87.5176016 193.30409641 85 191 C81.70586388 191.46592429 79.4485637 192.83744611 76.72216797 194.68383789 C75.88805389 195.24434341 75.05393982 195.80484894 74.19454956 196.38233948 C73.30277008 196.98964401 72.4109906 197.59694855 71.4921875 198.22265625 C70.57035675 198.84273056 69.648526 199.46280487 68.69876099 200.10166931 C65.75378153 202.08315167 62.8139422 204.07207607 59.875 206.0625 C56.92864467 208.05607414 53.9811879 210.04790203 51.02981567 212.03404236 C49.19271861 213.27043513 47.35855059 214.51119286 45.52755737 215.75660706 C44.69974762 216.31396042 43.87193787 216.87131378 43.01904297 217.44555664 C42.28942352 217.93995743 41.55980408 218.43435822 40.80807495 218.94374084 C39 220 39 220 37 220 C36.95101562 220.95390625 36.90203125 221.9078125 36.8515625 222.890625 C36.77605729 224.34375081 36.70053444 225.79687571 36.625 227.25 C36.58246094 228.07935059 36.53992188 228.90870117 36.49609375 229.76318359 C36.23554763 234.76725351 35.95662019 239.76963124 35.64988708 244.77110291 C34.46165735 264.17407568 33.68029908 283.54712709 33.34179688 302.98486328 C33.3255275 303.83278946 33.30925812 304.68071564 33.29249573 305.55433655 C33.26235254 307.14560142 33.23619538 308.73694861 33.21470642 310.32835388 C33.15426839 313.4716022 33.00120679 315.99637964 32 319 C28.04 319 24.08 319 20 319 C19.43539478 277.7664463 21.48861966 236.98436847 26 196 C25.48714447 195.65809631 24.97428894 195.31619263 24.44589233 194.96392822 C8.96392822 184.64261882 -6.51803589 174.32130941 -22 164 C-25.15069422 165.36689554 -27.00891774 166.85657885 -29.1875 169.5 C-29.69667969 170.1084375 -30.20585937 170.716875 -30.73046875 171.34375 C-32.07117638 172.98469533 -32.07117638 172.98469533 -33 175 C-32.175 175.20625 -31.35 175.4125 -30.5 175.625 C-19.64115151 179.89097619 -13.49807323 188.48038449 -8.39453125 198.546875 C-4.85705482 207.30634045 -3.46690269 215.44652594 -3.5625 224.875 C-3.57007324 225.9271167 -3.57764648 226.9792334 -3.58544922 228.06323242 C-3.75421344 236.03395407 -4.65776051 242.68039139 -8 250 C-8.42410156 250.95777344 -8.84820312 251.91554687 -9.28515625 252.90234375 C-13.97836401 262.4325623 -20.84846702 270.17284533 -30.8515625 274.1796875 C-40.85423157 276.78584197 -50.38269208 276.08771843 -59.390625 270.8046875 C-69.96397325 263.49198257 -76.81656904 251.78713699 -79.65576172 239.22363281 C-82.55184867 220.51614349 -79.89466393 202.63676096 -69 187 C-67.41266642 185.11504137 -65.88246788 183.59724548 -64 182 C-64.60328125 181.443125 -65.2065625 180.88625 -65.828125 180.3125 C-72.48563576 173.95565101 -77.4674159 167.87238323 -78.203125 158.37890625 C-78.21859375 157.44949219 -78.2340625 156.52007812 -78.25 155.5625 C-78.27578125 154.63566406 -78.3015625 153.70882812 -78.328125 152.75390625 C-77.91807611 149.31242451 -77.32662474 147.59543796 -75 145 C-72.21592432 144.49636384 -70.14632644 144.33103276 -67.375 144.4375 C-66.65441406 144.45482178 -65.93382812 144.47214355 -65.19140625 144.48999023 C-53.17497682 145.02179843 -46.04450406 151.62030827 -38 160 C-37.34 158.35 -36.68 156.7 -36 155 C-36.84304687 154.49210938 -37.68609375 153.98421875 -38.5546875 153.4609375 C-40.19824219 152.42839844 -40.19824219 152.42839844 -41.875 151.375 C-42.96554688 150.70210937 -44.05609375 150.02921875 -45.1796875 149.3359375 C-48.39326323 146.67427782 -49.21523073 145.05464123 -50 141 C-49.125 138.125 -49.125 138.125 -48 136 C-44.37094807 134.90147617 -42.24156775 134.44156094 -38.72460938 136.0234375 C-36.16622996 137.59974951 -33.7057138 139.26807064 -31.25 141 C-29.45981564 142.2151093 -27.66945273 143.42995561 -25.87890625 144.64453125 C-25.0295752 145.23057129 -24.18024414 145.81661133 -23.30517578 146.42041016 C-20.6411018 148.24593003 -17.92852724 149.98004261 -15.1875 151.6875 C-10.40019067 154.71772535 -5.69368563 157.86127648 -0.98730469 161.01489258 C4.70001817 164.81819975 10.43785786 168.54065393 16.18994141 172.24511719 C16.8607373 172.67727539 17.5315332 173.10943359 18.22265625 173.5546875 C18.80797119 173.93093262 19.39328613 174.30717773 19.99633789 174.69482422 C22.67847392 176.44195462 25.33866751 178.22139019 28 180 C28.1858667 178.9483667 28.3717334 177.8967334 28.56323242 176.81323242 C29.42816134 171.93620774 30.30676448 167.06169144 31.1875 162.1875 C31.34418152 161.31541901 31.50086304 160.44333801 31.66229248 159.54483032 C35.50156931 138.26779156 35.50156931 138.26779156 38.84057617 128.61987305 C40.62381087 122.95628509 39.1901041 119.23748417 37 114 C36.75781738 113.36553955 36.51563477 112.7310791 36.26611328 112.07739258 C27.8309106 90.21669556 13.6891528 71.19923715 -2 54 C-2.56992676 53.31421875 -3.13985352 52.6284375 -3.72705078 51.921875 C-6.72869722 49.38385559 -9.22150855 48.97281558 -13.06640625 48.21875 C-13.74170883 48.07852417 -14.41701141 47.93829834 -15.11277771 47.79382324 C-17.98701514 47.19721561 -20.86780138 46.63575908 -23.7487793 46.07275391 C-25.85754931 45.6553312 -27.96175683 45.21889814 -30.06640625 44.78125 C-31.32396729 44.53439453 -32.58152832 44.28753906 -33.87719727 44.03320312 C-37.29297294 42.90306767 -38.38018274 42.1704211 -40 39 C-39.92997301 35.56867754 -39.73832272 33.74000072 -37.28125 31.27734375 C-34.29370774 29.60452471 -32.88888314 29.94798851 -29.5625 30.625 C-28.63566406 30.80289062 -27.70882812 30.98078125 -26.75390625 31.1640625 C-21.16155728 32.40939307 -15.5802801 33.70177544 -10 35 C-10.01571045 34.04633545 -10.0314209 33.0926709 -10.04760742 32.11010742 C-10.10191678 28.57113087 -10.13635333 25.03219114 -10.16479492 21.49291992 C-10.17987936 19.96128139 -10.20034978 18.42968602 -10.22631836 16.89819336 C-10.26271847 14.69634346 -10.27972913 12.49506467 -10.29296875 10.29296875 C-10.30845261 9.60849167 -10.32393646 8.92401459 -10.33988953 8.21879578 C-10.34089147 5.38693836 -10.30361055 3.45372815 -8.7043457 1.0637207 C-5.85913165 -0.71204174 -3.24603444 -0.29509404 0 0 Z " fill="#7B4E30" transform="translate(216,0)"/>
<path d="M0 0 C1.06903564 -0.00696899 2.13807129 -0.01393799 3.23950195 -0.02111816 C6.66882302 -0.03841409 10.09798089 -0.04483712 13.52734375 -0.046875 C14.695466 -0.04788208 15.86358826 -0.04888916 17.06710815 -0.04992676 C33.72313355 -0.04018983 50.0277858 0.25151072 66.46484375 3.203125 C67.76470215 3.4199292 67.76470215 3.4199292 69.09082031 3.64111328 C86.13783237 6.5313596 105.12172913 11.62262483 116.44140625 25.625 C119.14007572 29.78630713 118.91433656 34.43850117 118.46484375 39.203125 C116.73172956 43.94638488 114.18458648 46.83764348 110.46484375 50.203125 C109.74296875 50.863125 109.02109375 51.523125 108.27734375 52.203125 C97.90071414 59.58206161 85.48351319 63.27194365 73.15234375 65.828125 C72.1483252 66.04049805 71.14430664 66.25287109 70.10986328 66.47167969 C27.4890397 75.32670665 -30.7549999 77.65025643 -70.53515625 57.203125 C-71.36917969 56.7803125 -72.20320313 56.3575 -73.0625 55.921875 C-80.60485401 51.91232538 -86.7116845 47.67354026 -89.53515625 39.203125 C-90.1474813 34.02345733 -90.02828404 29.42993305 -87.02734375 24.94921875 C-70.07499952 5.11231333 -38.73143021 2.57398107 -14.51805115 0.41752625 C-9.67910095 0.06971749 -4.84988718 0.02133324 0 0 Z " fill="#FEA721" transform="translate(227.53515625,318.796875)"/>
<path d="M0 0 C68.64 0 137.28 0 208 0 C208 41.77777778 208 41.77777778 200 50 C194.03910398 54.26814664 189.66472384 56.12159002 182.23921204 56.14717102 C181.54808939 56.15084771 180.85696674 56.1545244 180.14490098 56.1583125 C177.82356256 56.1693463 175.50226892 56.17319267 173.1809082 56.17700195 C171.51858885 56.18326689 169.85627089 56.18991371 168.19395447 56.19691467 C162.72957332 56.21795567 157.26519188 56.22831777 151.80078125 56.23828125 C149.91916578 56.24232893 148.03755046 56.24644585 146.15593529 56.25063133 C137.31501991 56.26968386 128.47411288 56.28391421 119.63318092 56.2922433 C109.43129161 56.3020134 99.2296194 56.32832674 89.02780658 56.36874419 C81.14063563 56.39891797 73.25352687 56.41371342 65.36629933 56.41702431 C60.65658544 56.41937356 55.94710347 56.42831755 51.23745155 56.45348549 C46.80426369 56.47679299 42.37145999 56.48098872 37.9382267 56.47072411 C36.31450115 56.47022927 34.69075652 56.47653437 33.06708908 56.49028015 C17.95824838 56.61099344 17.95824838 56.61099344 11 52 C9.6696875 51.13375 9.6696875 51.13375 8.3125 50.25 C4.46130588 46.50289221 1.69856894 42.09570683 0 37 C0 24.79 0 12.58 0 0 Z " fill="#E6B924" transform="translate(138,456)"/>
<path d="M0 0 C9.6455324 8.02943791 15.19666296 19.60269184 17.3125 31.875 C18.17993222 44.44259734 18.62894329 57.23182358 13.3125 68.875 C12.88839844 69.83277344 12.46429688 70.79054688 12.02734375 71.77734375 C7.33413599 81.3075623 0.46403298 89.04784533 -9.5390625 93.0546875 C-19.54173157 95.66084197 -29.07019208 94.96271843 -38.078125 89.6796875 C-48.65147325 82.36698257 -55.50406904 70.66213699 -58.34326172 58.09863281 C-61.2301021 39.45087238 -58.63512512 21.428497 -47.6875 5.875 C-35.4015115 -9.56051442 -15.75350081 -11.2563021 0 0 Z " fill="#FEE10D" transform="translate(339.6875,208.125)"/>
<path d="M0 0 C12.33340948 7.49544222 18.81836833 19.30244328 22.40014648 33.02929688 C23.40008703 37.98138337 23.48858488 42.83665254 23.4375 47.875 C23.42992676 48.9271167 23.42235352 49.9792334 23.41455078 51.06323242 C23.24578656 59.03395407 22.34223949 65.68039139 19 73 C18.57589844 73.95777344 18.15179688 74.91554688 17.71484375 75.90234375 C13.02163599 85.4325623 6.15153298 93.17284533 -3.8515625 97.1796875 C-13.85423157 99.78584197 -23.38269208 99.08771843 -32.390625 93.8046875 C-42.96397325 86.49198257 -49.81656904 74.78713699 -52.65576172 62.22363281 C-55.51077452 43.78146503 -53.12216366 25.28444576 -42 10 C-31.52445726 -1.84759927 -14.64568191 -7.2817783 0 0 Z " fill="#FEE10D" transform="translate(189,177)"/>
<path d="M0 0 C0.72445313 -0.03738281 1.44890625 -0.07476562 2.1953125 -0.11328125 C4.3125 -0.1484375 4.3125 -0.1484375 8 0.375 C11.5924396 4.38003663 11.50972726 8.32345505 11.34375 13.46875 C10.11507381 23.85664873 4.12586566 30.29245267 -3 37.375 C-6.78863057 35.95426354 -10.3476877 34.22780635 -13.9375 32.375 C-16.04220648 31.29367924 -16.04220648 31.29367924 -18.58203125 30.5546875 C-21.69089719 29.03792254 -22.29322133 27.62207251 -23.6875 24.5 C-24.08324219 23.63632813 -24.47898437 22.77265625 -24.88671875 21.8828125 C-25.25410156 21.05523437 -25.62148438 20.22765625 -26 19.375 C-26.6594547 18.038085 -27.32346623 16.70335397 -28 15.375 C-19.86274895 5.50481586 -13.15085047 0.25740099 0 0 Z " fill="#8BBE32" transform="translate(344,171.625)"/>
<path d="M0 0 C1.38294955 -0.01053262 2.76646729 0.0133145 4.1484375 0.06640625 C5.22931641 0.09238892 5.22931641 0.09238892 6.33203125 0.11889648 C16.02295397 0.54778529 22.96730712 4.49429378 29.5234375 11.62890625 C30.5643441 13.27033588 31.57482672 14.93246428 32.5234375 16.62890625 C32.10191406 17.31597656 31.68039063 18.00304687 31.24609375 18.7109375 C30.69824219 19.61199219 30.15039062 20.51304687 29.5859375 21.44140625 C29.04066406 22.33472656 28.49539062 23.22804687 27.93359375 24.1484375 C26.41334172 26.63594187 26.41334172 26.63594187 25.5234375 29.62890625 C23.484375 30.65625 23.484375 30.65625 20.8984375 31.56640625 C16.45322282 33.22058815 12.570169 35.16567838 8.5234375 37.62890625 C1.39458893 31.96828208 -4.50037572 25.79122676 -6.4765625 16.62890625 C-6.87957971 11.76391274 -7.15402659 7.45070108 -5.43359375 2.82421875 C-3.4765625 0.62890625 -3.4765625 0.62890625 0 0 Z " fill="#8BBE32" transform="translate(144.4765625,144.37109375)"/>
<path d="M0 0 C3.07435543 3.07435543 2.979578 5.34034759 3.11352539 9.66699219 C3.11336795 11.1269627 3.10777139 12.58693952 3.09765625 14.046875 C3.0962413 14.81807678 3.09482635 15.58927856 3.09336853 16.3838501 C3.08778534 18.83927338 3.07523595 21.29460442 3.0625 23.75 C3.05748283 25.41796743 3.0529203 27.08593629 3.04882812 28.75390625 C3.03782141 32.83597287 3.02056836 36.91797081 3 41 C-1.35249409 39.3770361 -5.6960081 37.74849671 -10 36 C-10.07416067 31.35526018 -10.12860615 26.71086501 -10.16479492 22.06567383 C-10.17988094 20.48553464 -10.2003525 18.90543731 -10.22631836 17.32543945 C-10.26271126 15.05409415 -10.27972762 12.78330241 -10.29296875 10.51171875 C-10.30845261 9.80536789 -10.32393646 9.09901703 -10.33988953 8.3712616 C-10.34087709 5.4927713 -10.32319091 3.48640019 -8.7043457 1.05004883 C-5.85511601 -0.70536399 -3.24037151 -0.29457923 0 0 Z " fill="#000000" transform="translate(216,0)"/>
</svg>
