<?xml version="1.0" standalone="no"?>
<!DOCTYPE svg PUBLIC "-//W3C//DTD SVG 20010904//EN"
 "http://www.w3.org/TR/2001/REC-SVG-20010904/DTD/svg10.dtd">
<svg version="1.0" xmlns="http://www.w3.org/2000/svg"
 width="512.000000pt" height="512.000000pt" viewBox="0 0 512.000000 512.000000"
 preserveAspectRatio="xMidYMid meet">

<g transform="translate(0.000000,512.000000) scale(0.100000,-0.100000)"
fill="#000000" stroke="none">
<path d="M2280 5105 c-65 -19 -128 -54 -181 -102 -36 -32 -41 -34 -70 -24 -45
15 -126 14 -186 -4 -91 -27 -153 -81 -218 -189 -9 -15 -15 -15 -69 4 -82 29
-209 29 -296 0 -166 -56 -290 -197 -322 -366 l-11 -60 -78 -12 c-96 -14 -156
-42 -165 -79 -10 -37 7 -76 40 -91 24 -12 34 -12 73 3 38 15 64 17 148 11 134
-8 139 -4 140 127 1 77 5 101 27 149 52 111 152 180 273 186 90 5 138 -8 213
-58 33 -22 69 -40 81 -40 31 0 71 43 71 77 0 80 45 153 115 184 52 24 99 23
154 -1 24 -11 58 -20 77 -20 28 0 39 8 69 46 45 60 88 91 149 109 101 30 186
8 263 -69 85 -85 105 -204 52 -308 -28 -54 -27 -97 2 -120 23 -19 84 -24 94
-8 3 5 38 19 77 31 175 54 351 -20 439 -183 28 -54 34 -75 37 -148 3 -70 0
-96 -18 -145 -12 -33 -24 -76 -27 -96 -5 -39 2 -47 87 -99 66 -40 119 -132
120 -211 1 -81 79 -118 131 -63 52 56 127 78 200 60 80 -21 139 -94 139 -171
0 -27 8 -44 30 -67 36 -36 68 -33 115 12 44 41 88 60 140 60 95 0 165 -60 185
-157 19 -93 26 -99 118 -106 110 -9 180 -37 251 -103 85 -78 116 -151 116
-269 0 -78 -4 -98 -29 -152 -18 -39 -48 -81 -80 -111 -60 -57 -89 -74 -169
-97 -33 -9 -63 -25 -72 -38 -17 -24 -20 -73 -5 -82 15 -9 46 -74 54 -112 16
-70 -40 -170 -111 -199 -43 -18 -115 -18 -160 1 -49 21 -76 19 -99 -6 -16 -18
-19 -37 -19 -133 0 -103 -2 -115 -31 -176 -78 -164 -253 -249 -424 -206 -67
17 -139 58 -180 101 -33 35 -91 35 -119 -1 -12 -15 -21 -35 -21 -46 0 -25 -33
-88 -57 -110 -29 -26 -88 -48 -130 -48 -79 1 -150 54 -183 138 -25 63 -92 72
-137 18 -43 -52 -96 -79 -157 -79 -62 0 -85 11 -148 69 -69 65 -111 58 -152
-25 -32 -62 -113 -135 -173 -155 -94 -32 -218 -15 -289 39 l-33 25 16 43 c25
64 22 208 -4 274 -104 260 -417 351 -638 184 -30 -23 -70 -67 -92 -101 -21
-33 -43 -60 -49 -60 -19 0 -91 68 -102 97 -6 15 -13 45 -17 65 -3 20 -14 47
-24 59 -17 21 -25 23 -105 20 -69 -2 -95 2 -133 19 -132 58 -196 205 -148 340
8 23 15 52 15 65 0 34 -39 62 -105 75 -33 7 -78 21 -99 32 -66 33 -141 112
-172 181 -25 53 -29 74 -29 152 0 76 4 99 26 145 32 68 77 121 138 162 60 40
71 55 71 94 0 27 -9 40 -46 70 -98 80 -110 191 -31 281 42 48 82 63 165 63 53
0 72 4 84 18 30 33 30 59 3 113 -18 35 -29 77 -34 127 -6 61 -11 78 -30 93
-30 25 -62 24 -96 -2 -26 -21 -27 -24 -23 -111 l3 -90 -47 -16 c-206 -73 -292
-323 -174 -503 l26 -38 -49 -51 c-248 -258 -154 -702 177 -836 l57 -23 5 -104
c5 -91 10 -112 39 -171 64 -130 193 -223 325 -233 l65 -6 26 -52 c33 -69 91
-128 157 -161 29 -14 55 -28 57 -30 3 -3 8 -32 12 -65 26 -219 247 -384 467
-348 65 10 168 55 191 83 19 23 33 20 91 -18 52 -34 126 -59 212 -71 l47 -6
-4 -42 c-3 -23 -12 -161 -20 -307 -23 -399 -24 -407 -52 -440 -13 -16 -45 -36
-73 -45 -103 -34 -190 -147 -190 -247 0 -38 5 -50 26 -67 26 -21 35 -21 624
-21 l597 0 28 22 c26 20 27 25 22 78 -2 31 -14 75 -25 97 -27 53 -99 116 -153
133 -88 29 -124 92 -84 146 23 30 19 87 -8 112 -46 43 -95 21 -143 -65 -31
-55 -35 -68 -29 -106 17 -102 91 -191 185 -222 27 -9 54 -23 60 -31 11 -12
-32 -14 -329 -14 -241 0 -341 3 -341 11 0 28 37 83 70 104 25 16 44 39 59 74
20 48 23 80 37 488 l16 438 47 47 47 47 47 -22 c39 -19 46 -26 47 -52 1 -16 7
-116 14 -222 13 -201 17 -216 65 -234 49 -19 72 3 217 213 77 110 144 202 150
205 6 2 20 0 32 -4 20 -8 16 -18 -88 -196 -79 -136 -110 -198 -110 -221 0 -52
42 -79 100 -63 21 5 54 53 164 241 137 234 137 234 191 261 49 24 145 114 145
136 0 5 11 3 25 -3 18 -8 25 -19 25 -39 0 -140 92 -290 219 -357 208 -111 457
-29 563 185 31 64 33 74 33 174 0 106 0 107 -43 192 l-43 85 15 46 c9 26 19
71 22 100 l7 54 71 4 c87 4 152 34 214 96 82 82 118 211 89 319 l-14 52 56 28
c72 36 167 132 208 208 108 206 74 451 -87 614 -85 87 -162 125 -313 156 -15
3 -30 13 -34 23 -30 90 -96 168 -177 209 -67 34 -183 43 -255 19 -62 -20 -56
-21 -71 14 -20 48 -122 136 -182 156 -65 23 -178 23 -230 1 l-37 -16 -25 56
c-16 33 -49 78 -84 112 l-58 57 13 49 c19 71 18 203 -2 272 -37 127 -113 230
-225 302 -88 57 -157 76 -276 76 l-101 0 -6 75 c-12 174 -111 311 -267 371
-72 28 -188 34 -260 14z m-605 -3289 c94 -43 145 -125 145 -232 0 -279 -375
-354 -491 -99 -12 25 -19 63 -19 100 0 189 194 311 365 231z m2555 -446 c0
-92 -34 -160 -107 -216 -139 -106 -357 -30 -398 139 l-7 27 84 0 c131 0 257
46 348 128 l45 41 17 -37 c10 -20 18 -57 18 -82z m-1351 -125 c-40 -58 -77
-108 -81 -111 -7 -5 -12 144 -5 163 1 4 23 15 49 24 25 8 57 22 70 31 49 34
38 -4 -33 -107z"/>
<path d="M2449 3946 c-72 -28 -115 -55 -165 -105 -161 -161 -161 -415 0 -577
163 -163 422 -162 583 2 195 200 137 532 -116 656 -58 29 -75 33 -165 35 -67
2 -113 -2 -137 -11z m203 -146 c57 -16 119 -69 150 -129 69 -131 6 -301 -131
-358 -51 -22 -148 -20 -202 4 -49 22 -114 88 -135 139 -8 18 -14 62 -14 97 0
175 161 294 332 247z"/>
<path d="M1135 3426 c-117 -29 -224 -116 -278 -225 -30 -62 -32 -72 -32 -176
0 -100 2 -115 28 -167 83 -170 266 -270 440 -239 87 15 175 61 231 121 226
242 101 628 -224 690 -66 13 -102 12 -165 -4z m216 -174 c122 -63 172 -219
110 -341 -51 -98 -137 -147 -249 -139 -75 6 -112 21 -160 69 -56 55 -76 105
-77 184 0 150 104 254 256 255 54 0 77 -5 120 -28z"/>
<path d="M3850 3082 c-295 -98 -385 -464 -168 -681 28 -28 81 -66 117 -84 61
-30 72 -32 171 -32 97 0 110 2 170 31 112 53 177 124 220 241 33 92 27 213
-17 305 -41 87 -113 160 -199 200 -85 40 -209 48 -294 20z m199 -148 c178 -52
238 -277 113 -416 -69 -76 -164 -103 -263 -75 -212 62 -251 353 -63 463 77 45
132 52 213 28z"/>
<path d="M2645 2746 c-210 -66 -331 -296 -269 -507 59 -198 262 -327 460 -290
213 39 354 217 342 430 -5 81 -39 175 -80 218 -29 31 -72 30 -103 -2 -32 -31
-31 -53 1 -116 91 -181 -27 -381 -227 -381 -190 0 -315 203 -229 372 28 55
101 115 157 130 104 26 127 47 116 103 -11 54 -78 71 -168 43z"/>
</g>
</svg>
