<?xml version="1.0" encoding="UTF-8"?>
<svg version="1.1" xmlns="http://www.w3.org/2000/svg" width="512" height="512">
<path d="M0 0 C4.19027758 1.42403965 6.96612908 4.58025159 10 7.6796875 C10.62519531 8.246875 11.25039063 8.8140625 11.89453125 9.3984375 C30.36822883 26.55527273 41.04599258 50.62029692 47 74.6796875 C48.14662109 73.93525391 48.14662109 73.93525391 49.31640625 73.17578125 C73.36743763 57.92320178 104.9603305 46.65629701 133.796875 52.44140625 C137.32534361 53.80546058 138.15168464 54.47644132 140 57.6796875 C140.37231445 60.43774414 140.37231445 60.43774414 140.36328125 63.58984375 C140.36263672 64.74548828 140.36199219 65.90113281 140.36132812 67.09179688 C140.34521484 68.29642578 140.32910156 69.50105469 140.3125 70.7421875 C140.31733398 72.50852539 140.31733398 72.50852539 140.32226562 74.31054688 C140.27765948 81.63812001 139.59226412 88.52589179 138 95.6796875 C138.62753174 95.66397705 139.25506348 95.6482666 139.90161133 95.63208008 C161.7034154 95.16145183 196.72088743 95.19429506 213.8046875 111.390625 C215.59760883 114.82412794 214.90740301 116.9675843 214 120.6796875 C212.93423699 123.15348205 211.86209098 125.40329917 210.5625 127.7421875 C210.20978027 128.38704102 209.85706055 129.03189453 209.49365234 129.69628906 C201.85705876 143.32191189 192.04201919 154.69016603 181 165.6796875 C180.29617188 166.39511719 179.59234375 167.11054688 178.8671875 167.84765625 C177.88105469 168.84732422 177.88105469 168.84732422 176.875 169.8671875 C176.21242188 170.54136719 175.54984375 171.21554688 174.8671875 171.91015625 C172.24467942 174.39550386 170.51629841 175.60676767 166.90234375 176.1171875 C161.64555138 175.5278374 158.05299628 173.3573404 153.5625 170.6796875 C152.73556641 170.20273438 151.90863281 169.72578125 151.05664062 169.234375 C149.02956888 168.06265723 147.011564 166.87776775 145 165.6796875 C145.13277344 166.41832031 145.26554687 167.15695313 145.40234375 167.91796875 C145.96797189 171.16723405 146.48832305 174.42150926 147 177.6796875 C147.1753125 178.69289062 147.350625 179.70609375 147.53125 180.75 C147.6653125 181.69617188 147.799375 182.64234375 147.9375 183.6171875 C148.07027344 184.47183594 148.20304687 185.32648438 148.33984375 186.20703125 C147.81247047 190.04412647 145.96871369 191.27334612 143 193.6796875 C140.27565475 195.34394247 137.45937404 196.71718503 134.5625 198.0546875 C133.73339111 198.43971436 132.90428223 198.82474121 132.05004883 199.22143555 C111.27522439 208.58394611 88.78305701 213.90210876 66 214.6796875 C66.04640625 215.61167969 66.0928125 216.54367188 66.140625 217.50390625 C66.42410364 227.5167767 64.63448377 235.38216747 61.21875 244.84375 C60.79665229 246.72473856 60.79665229 246.72473856 61.99609375 248.22265625 C62.47175781 248.76535156 62.94742187 249.30804688 63.4375 249.8671875 C67.66276068 256.19327611 66.90530754 264.39395883 66 271.6796875 C64.98248909 276.15855251 63.58737524 280.37656184 62 284.6796875 C61.20548805 286.75786912 61.20548805 286.75786912 61 288.6796875 C62.83973235 291.7726232 62.83973235 291.7726232 65 294.6796875 C66.20745835 298.30206255 66.22246029 301.656747 66.25 305.4296875 C66.270625 306.120625 66.29125 306.8115625 66.3125 307.5234375 C66.35094939 312.63720607 65.35557255 316.12862986 63 320.6796875 C62.34 321.3396875 61.68 321.9996875 61 322.6796875 C60.0925 322.6796875 59.185 322.6796875 58.25 322.6796875 C53.5772235 324.11746489 52.63717277 327.01565644 50.390625 331.18359375 C49 333.6796875 49 333.6796875 46.625 336.3671875 C44.40731914 339.52311795 44.93232199 341.88971902 45 345.6796875 C42.9487071 350.28258865 40.49875361 351.83467969 36 353.9296875 C34.948125 354.42984375 33.89625 354.93 32.8125 355.4453125 C30 356.6796875 30 356.6796875 27 357.6796875 C27.61866273 372.38580215 28.53020889 387.05832771 29.58729744 401.73907089 C29.85475111 405.45802938 30.11857216 409.17723061 30.38145447 412.89651489 C31.12814107 423.45416527 31.87981945 434.01145428 32.63696289 444.56835938 C33.10296744 451.06969489 33.56379072 457.57138127 34.02148247 464.07330704 C34.19533083 466.52837177 34.37112464 468.98329962 34.54899788 471.43807602 C36.14047265 493.41078456 36.14047265 493.41078456 36.35717773 502.54736328 C36.3881102 503.65959259 36.41904266 504.7718219 36.45091248 505.91775513 C36 508.6796875 36 508.6796875 34.39222717 511.03060913 C31.22851074 513.21151251 29.19698045 513.18699843 25.3671875 513.19726562 C24.3810849 513.20777954 24.3810849 513.20777954 23.37506104 513.21850586 C21.20794083 513.23607181 19.04213284 513.22446985 16.875 513.2109375 C15.36572011 513.21363286 13.85644192 513.21751565 12.34716797 513.22253418 C9.18635501 513.22842726 6.02599466 513.219873 2.86523438 513.20117188 C-1.18368557 513.17838169 -5.23154498 513.1915059 -9.28042603 513.21546173 C-12.39632133 513.22992528 -15.51196574 513.22531133 -18.62786865 513.21495056 C-20.1205864 513.21228478 -21.61332704 513.21554788 -23.10601807 513.22486877 C-25.19368704 513.23504445 -27.27964574 513.21952319 -29.3671875 513.19726562 C-30.55425293 513.19408325 -31.74131836 513.19090088 -32.96435547 513.18762207 C-36.62345409 512.575369 -37.81623314 511.63585895 -40 508.6796875 C-40.32722976 506.04083464 -40.42822243 503.86180736 -40.3125 501.2421875 C-40.28494629 500.18680786 -40.28494629 500.18680786 -40.25683594 499.11010742 C-40.19201099 496.96532072 -40.09621156 494.82326102 -40 492.6796875 C-39.95166016 490.81570313 -39.95166016 490.81570313 -39.90234375 488.9140625 C-39.62808049 482.7536877 -39.46380229 479.26567416 -35 474.6796875 C-34.01 474.3496875 -33.02 474.0196875 -32 473.6796875 C-30.414131 470.5079495 -30.62133555 467.04454928 -30.4375 463.5546875 C-30.37272461 462.42353516 -30.37272461 462.42353516 -30.30664062 461.26953125 C-30.2005168 459.40646862 -30.09974999 457.54310226 -30 455.6796875 C-31.2065625 454.9990625 -31.2065625 454.9990625 -32.4375 454.3046875 C-35 452.6796875 -35 452.6796875 -36 450.6796875 C-36.50504595 439.99768251 -35.69412396 429.32307014 -34.90625 418.67578125 C-34.79362616 417.09737302 -34.68153578 415.51892664 -34.56994629 413.94044495 C-34.27853509 409.83429179 -33.98122708 405.72858986 -33.68218994 401.62298584 C-33.20232885 395.02308737 -32.73088643 388.42258619 -32.26091003 381.82197762 C-32.09687494 379.53190812 -31.92981075 377.24207493 -31.7623291 374.95225525 C-31.66113113 373.54556872 -31.560012 372.13887651 -31.45898438 370.73217773 C-31.37015991 369.51167221 -31.28133545 368.29116669 -31.18981934 367.03367615 C-31.0128334 363.90644565 -30.96490077 360.81100517 -31 357.6796875 C-31.75023437 357.4115625 -32.50046875 357.1434375 -33.2734375 356.8671875 C-49.0466099 350.82808875 -59.19023334 340.15858585 -66.5546875 325.20703125 C-69.27461164 318.56894613 -70.40914332 312.34177462 -70.4375 305.1796875 C-70.44354248 304.43138672 -70.44958496 303.68308594 -70.45581055 302.91210938 C-70.3560242 297.57616577 -69.26837727 294.64101619 -65.921875 290.4296875 C-64.78909138 288.68201149 -64.78909138 288.68201149 -65.265625 286.4921875 C-66.01666744 284.20097374 -66.01666744 284.20097374 -66.97265625 282.1484375 C-69.55843792 275.934696 -70.41110219 269.84701942 -70.4375 263.1796875 C-70.44354248 262.43138672 -70.44958496 261.68308594 -70.45581055 260.91210938 C-70.3560242 255.57616577 -69.26837727 252.64101619 -65.921875 248.4296875 C-64.78909138 246.68201149 -64.78909138 246.68201149 -65.265625 244.4921875 C-66.06912132 242.16047268 -66.99785883 239.93250084 -68 237.6796875 C-70.49155403 230.07389099 -70.1854015 222.5901515 -70 214.6796875 C-71.89105469 214.55013672 -71.89105469 214.55013672 -73.8203125 214.41796875 C-116.48167425 211.14551959 -156.14045332 194.58216106 -186.53515625 164.140625 C-188.0358874 162.64227219 -189.55504373 161.16171533 -191.10546875 159.71484375 C-201.67224684 149.70316845 -209.16752699 137.42942929 -216 124.6796875 C-216.56847656 123.63039063 -217.13695312 122.58109375 -217.72265625 121.5 C-219.43228634 117.72522041 -219.16861015 115.62374676 -218 111.6796875 C-214.13036522 107.89816585 -209.93332284 106.25514973 -204.9375 104.4921875 C-204.23044922 104.23244141 -203.52339844 103.97269531 -202.79492188 103.70507812 C-196.51916902 101.42459329 -191.65704941 100.2570177 -185 100.6796875 C-183 102.0546875 -183 102.0546875 -182 103.6796875 C-182 104.3396875 -182 104.9996875 -182 105.6796875 C-180.96552734 105.463125 -180.96552734 105.463125 -179.91015625 105.2421875 C-173.8119808 104.03760963 -168.21236555 103.47600338 -162 103.6796875 C-161.896875 102.7309375 -161.79375 101.7821875 -161.6875 100.8046875 C-161 97.6796875 -161 97.6796875 -158 95.6796875 C-155.23344676 95.53722853 -152.57346694 95.49199305 -149.8125 95.5546875 C-149.06291016 95.56371094 -148.31332031 95.57273437 -147.54101562 95.58203125 C-145.69387346 95.60556172 -143.84689588 95.64143189 -142 95.6796875 C-142.14002441 95.12385986 -142.28004883 94.56803223 -142.42431641 93.99536133 C-144.14792372 86.43876817 -144.36689378 79.09647182 -144.375 71.3671875 C-144.39949219 70.11873047 -144.42398438 68.87027344 -144.44921875 67.58398438 C-144.45308594 66.38193359 -144.45695312 65.17988281 -144.4609375 63.94140625 C-144.46915527 62.85819092 -144.47737305 61.77497559 -144.48583984 60.65893555 C-143.88396974 56.96817129 -142.61331658 55.30966267 -140 52.6796875 C-114.6423142 45.40406457 -82.15200107 56.74302461 -60 68.6796875 C-56.87742266 70.54789616 -53.91690036 72.51111183 -51 74.6796875 C-50.52433594 72.87951172 -50.52433594 72.87951172 -50.0390625 71.04296875 C-43.22048152 46.28418907 -31.943906 25.94739331 -14 7.6796875 C-13.27683594 6.92042969 -12.55367187 6.16117187 -11.80859375 5.37890625 C-8.18659443 1.84196366 -5.24164043 -0.51187895 0 0 Z M20 209.6796875 C20 215.6196875 20 221.5596875 20 227.6796875 C23.10527286 223.53932369 23.54342332 221.88412352 24.1875 216.9296875 C24.34605469 215.75921875 24.50460937 214.58875 24.66796875 213.3828125 C24.77753906 212.49078125 24.88710938 211.59875 25 210.6796875 C23.35 210.3496875 21.7 210.0196875 20 209.6796875 Z M-29 210.6796875 C-28.7438709 212.76487966 -28.46951265 214.847838 -28.1875 216.9296875 C-28.03667969 218.08984375 -27.88585937 219.25 -27.73046875 220.4453125 C-27.14800271 224.05043677 -27.14800271 224.05043677 -24 227.6796875 C-24 221.7396875 -24 215.7996875 -24 209.6796875 C-26.21081851 209.57427824 -26.21081851 209.57427824 -29 210.6796875 Z " fill="#010201" transform="translate(258,-0.6796875)"/>
<path d="M0 0 C0.68964844 -0.0515625 1.37929687 -0.103125 2.08984375 -0.15625 C4.0625 0.5 4.0625 0.5 5.7578125 3.48828125 C7.65085063 6.57853577 7.65085063 6.57853577 9.91333008 7.03857422 C12.2888198 7.21390481 14.61830674 7.22612082 17 7.1875 C18.81917514 7.22438635 20.63820894 7.2688908 22.45703125 7.3203125 C23.3898291 7.34383789 24.32262695 7.36736328 25.28369141 7.39160156 C65.19896856 8.94865507 101.59833266 27.40709911 130.0625 54.5 C130.70832031 55.09296875 131.35414063 55.6859375 132.01953125 56.296875 C140.20035242 64.03704304 148.21849256 74.30001686 153.0625 84.5 C153.0625 85.49 153.0625 86.48 153.0625 87.5 C114.0809664 100.77365815 71.51576784 98.69129834 34.20703125 80.734375 C17.89773464 72.61145684 4.15116563 63.12440191 -8.9375 50.5 C-9.85144531 49.66082031 -10.76539062 48.82164062 -11.70703125 47.95703125 C-17.34723135 42.62345147 -22.00331114 37.00047191 -26.5 30.6875 C-27.01304688 29.96997559 -27.52609375 29.25245117 -28.0546875 28.51318359 C-30.74610334 24.62205645 -32.70872842 21.13152365 -33.9375 16.5 C-32.39675192 15.87273892 -30.85485077 15.2483099 -29.3125 14.625 C-27.94738281 14.06425781 -27.94738281 14.06425781 -26.5546875 13.4921875 C-23.9375 12.5 -23.9375 12.5 -20.4375 11.75 C-17.81192516 10.77522063 -17.81192516 10.77522063 -17.1328125 8.6015625 C-16.46117609 6.11946452 -16.46117609 6.11946452 -15.9375 2.5 C-10.67012916 1.39729807 -5.37647452 0.35843163 0 0 Z " fill="#9AE59C" transform="translate(91.9375,102.5)"/>
<path d="M0 0 C-1.35349704 4.84332455 -3.49497813 8.60338306 -6.4375 12.625 C-6.87489502 13.22965088 -7.31229004 13.83430176 -7.76293945 14.45727539 C-14.34328428 23.37449972 -22.08819499 31.26401288 -30 39 C-33.98076498 37.52424462 -37.54190357 35.64066063 -41.21875 33.5234375 C-42.40990168 32.84590642 -43.60131597 32.16883684 -44.79296875 31.4921875 C-46.65207839 30.43250976 -48.50913933 29.36971726 -50.36181641 28.29882812 C-52.1629386 27.25981082 -53.97129858 26.23447652 -55.78125 25.2109375 C-56.85439453 24.59524902 -57.92753906 23.97956055 -59.03320312 23.34521484 C-63.22138611 21.44619508 -65.69363261 21.5645442 -70 23 C-71.3896692 30.032061 -70.30914833 35.59320018 -68.625 42.5 C-67.09084495 48.99908541 -65.68071186 55.35118647 -65 62 C-87.09277115 74.48721847 -111.85151335 79.34193689 -137 79.375 C-138.26312012 79.37685303 -139.52624023 79.37870605 -140.82763672 79.38061523 C-153.07056089 79.23416111 -165.06220464 77.96363494 -176.8125 74.4375 C-177.58658203 74.21642578 -178.36066406 73.99535156 -179.15820312 73.76757812 C-184.62632635 72.18683683 -184.62632635 72.18683683 -187 71 C-184.74018404 53.73751695 -162.87136743 35.0385495 -149.5 24.6875 C-107.97178867 -6.54415227 -49.26911586 -20.83477343 0 0 Z " fill="#9AE49C" transform="translate(454,119)"/>
<path d="M0 0 C12.8748274 5.43925292 22.84815487 25.76436456 28.17822266 37.93505859 C33.69591272 51.79977117 36.19781629 65.15570657 36.24023438 80.05859375 C36.24987894 82.09938296 36.28094 84.13913622 36.3125 86.1796875 C36.38244032 94.85241825 35.31637361 102.64626964 33 111 C32.66654321 112.38799118 32.33318963 113.77600717 32 115.1640625 C29.61786358 123.40848776 26.36016771 128.41246959 19.91796875 134.24609375 C16.76920707 137.11193841 14.19098168 140.2994313 11.625 143.6875 C11.20968018 144.23510986 10.79436035 144.78271973 10.36645508 145.34692383 C8.08249662 148.41276127 5.97651525 151.54142506 4 154.8125 C3.34 155.864375 2.68 156.91625 2 158 C1.34 158 0.68 158 0 158 C-1.69519182 155.633415 -3.29436227 153.25404792 -4.875 150.8125 C-9.49706253 143.8580545 -14.57616663 137.76499881 -20.37109375 131.76953125 C-24.92187671 126.97531859 -27.5719721 123.21951848 -29.625 116.875 C-30.02976563 115.65554687 -30.43453125 114.43609375 -30.8515625 113.1796875 C-33.7100159 103.31104558 -34.31406194 93.80707248 -34.25 83.5625 C-34.25773438 82.32951172 -34.26546875 81.09652344 -34.2734375 79.82617188 C-34.20764713 48.69087729 -21.31028356 22.20006575 0 0 Z " fill="#9AE49C" transform="translate(255,18)"/>
<path d="M0 0 C3.23605646 39.5389476 3.23605646 39.5389476 3.70874023 52.02441406 C3.86873317 56.12295656 4.24939553 60.14956511 4.72802734 64.22143555 C5.44570342 71.55345659 5.72335072 78.93385997 6.125 86.2890625 C6.60490583 96.00457259 6.60490583 96.00457259 7.52734375 105.68359375 C8.27805709 111.78185416 8.36329647 117.926659 8.5625 124.0625 C8.706875 128.331875 8.85125 132.60125 9 137 C-5.52 137 -20.04 137 -35 137 C-35 131.06 -35 125.12 -35 119 C-38.47825081 114.9254644 -38.47825081 114.9254644 -42 114 C-41.85919445 111.22882696 -41.71256882 108.45817359 -41.5625 105.6875 C-41.50352539 104.50897461 -41.50352539 104.50897461 -41.44335938 103.30664062 C-41.40146484 102.54931641 -41.35957031 101.79199219 -41.31640625 101.01171875 C-41.27974854 100.31522217 -41.24309082 99.61872559 -41.20532227 98.90112305 C-41 97 -41 97 -40 94 C-38.35448038 93.28272222 -36.68577711 92.61674772 -35 92 C-32.25424756 89.25424756 -32.53148342 87.3523667 -32.18359375 83.5078125 C-32.12256973 82.85528 -32.06154572 82.2027475 -31.99867249 81.53044128 C-31.80214532 79.39603038 -31.61936078 77.26070678 -31.4375 75.125 C-31.30498919 73.64084217 -31.17217509 72.1567114 -31.0390625 70.67260742 C-30.31867444 62.49951722 -29.73214968 54.33354499 -29.41601562 46.13427734 C-28.77709836 31.06647853 -27.26642637 16.0255591 -26 1 C-24.6224353 1.48569458 -24.6224353 1.48569458 -23.21704102 1.98120117 C-19.6419994 3.11337456 -16.68092161 3.30027991 -12.9375 3.3125 C-11.75027344 3.32925781 -10.56304687 3.34601563 -9.33984375 3.36328125 C-5.94764695 2.99430546 -2.94706365 0 0 0 Z " fill="#3DC1A2" transform="translate(269,360)"/>
<path d="M0 0 C0 0.66 0 1.32 0 2 C-1.14855469 2.60585937 -2.29710937 3.21171875 -3.48046875 3.8359375 C-34.70555561 20.56872394 -62.42590221 47.25996072 -74 81.5 C-74.33 82.655 -74.66 83.81 -75 85 C-74.01 85.495 -74.01 85.495 -73 86 C-85.56229815 85.95645651 -100.6648905 83.66755475 -112 78 C-109.74018404 60.73751695 -87.87136743 42.0385495 -74.5 31.6875 C-54.9375733 16.97540697 -25.32058475 0 0 0 Z " fill="#6DD4A1" transform="translate(379,112)"/>
<path d="M0 0 C24.49159859 -1.04219568 45.97890867 5.65010884 67 18 C68.546875 18.76763672 68.546875 18.76763672 70.125 19.55078125 C73.35083275 21.4707016 75.01381423 22.78951347 77 26 C78.3437351 32.06757353 78.12327613 38.31966385 78.015625 44.49951172 C77.99495985 47.80658172 78.24862206 51.02070507 78.5625 54.3125 C78.68818359 55.69888672 78.68818359 55.69888672 78.81640625 57.11328125 C78.87699219 57.73589844 78.93757813 58.35851562 79 59 C78.40316406 58.67128906 77.80632812 58.34257813 77.19140625 58.00390625 C75.29848126 56.96603207 73.40223447 55.93420807 71.50390625 54.90625 C69.04315886 53.56751564 66.59539477 52.21375326 64.15234375 50.84375 C45.04615258 40.26323093 24.45819638 33.86951082 3 30 C0.77933441 19.82194937 -0.44133265 10.46121827 0 0 Z " fill="#3DC0A1" transform="translate(129,67)"/>
<path d="M0 0 C0.82693359 0.00451172 1.65386719 0.00902344 2.50585938 0.01367188 C4.52477146 0.02534189 6.54364574 0.04327282 8.5625 0.0625 C8.76712296 7.10115079 8.20394884 13.74625705 7.0625 20.6875 C6.91941406 21.59628906 6.77632813 22.50507812 6.62890625 23.44140625 C6.28024111 25.64961883 5.92471173 27.85647643 5.5625 30.0625 C4.65878662 30.24256592 4.65878662 30.24256592 3.73681641 30.42626953 C-21.67588669 35.5531823 -46.1168004 43.07224481 -67.7421875 57.91796875 C-69.4375 59.0625 -69.4375 59.0625 -70.4375 59.0625 C-70.19 57.21011719 -70.19 57.21011719 -69.9375 55.3203125 C-69.51617856 51.58254762 -69.39836679 47.94014409 -69.4375 44.1796875 C-69.43556641 42.64634766 -69.43556641 42.64634766 -69.43359375 41.08203125 C-69.43620796 38.97759388 -69.47031532 36.87297108 -69.53515625 34.76953125 C-69.44962272 27.25208417 -69.44962272 27.25208417 -66.60229492 23.90551758 C-64.29826225 22.07841651 -61.97387797 20.54703169 -59.4375 19.0625 C-58.83502441 18.6715918 -58.23254883 18.28068359 -57.61181641 17.87792969 C-40.28137258 6.79686996 -20.65477738 -0.21636753 0 0 Z " fill="#3DC0A1" transform="translate(374.4375,66.9375)"/>
<path d="M0 0 C2.86068029 1.37766245 5.53351854 2.91206594 8.2109375 4.6171875 C59.86982283 37.23344801 112.65131046 56.05409978 173 65 C170.41138727 67.58861273 168.43420683 67.77385904 164.875 68.5625 C163.77929688 68.81128906 162.68359375 69.06007813 161.5546875 69.31640625 C119.94834255 77.31762643 75.85253759 66.72371127 41.02807617 43.15380859 C33.8111914 38.03718415 27.35036553 32.1343667 21 26 C20.06285156 25.12601563 19.12570313 24.25203125 18.16015625 23.3515625 C11.07133091 16.57094695 5.33551831 9.21739263 0 1 C0 0.67 0 0.34 0 0 Z " fill="#6ED4A1" transform="translate(62,127)"/>
<path d="M0 0 C0.93633637 3.01188199 1.00262534 5.03521957 0.328125 8.10546875 C0.15958008 8.90992432 -0.00896484 9.71437988 -0.18261719 10.54321289 C-0.36985352 11.41582764 -0.55708984 12.28844238 -0.75 13.1875 C-8.42494509 51.84015758 -7.67870604 90.47791969 -0.58911133 129.15380859 C-0.3702124 130.37535645 -0.15131348 131.5969043 0.07421875 132.85546875 C0.27619873 133.94496826 0.47817871 135.03446777 0.6862793 136.15698242 C0.98076317 138.82567087 0.86666441 140.48951783 0 143 C-0.40089844 142.46632812 -0.80179688 141.93265625 -1.21484375 141.3828125 C-5.18211368 136.18308002 -9.3644315 131.27301048 -13.7890625 126.45703125 C-14.51867187 125.64621094 -15.24828125 124.83539063 -16 124 C-16.85980469 123.05898437 -17.71960938 122.11796875 -18.60546875 121.1484375 C-21.19545472 117.74300733 -22.39795305 114.87821446 -23.6875 110.8125 C-24.08324219 109.60207031 -24.47898438 108.39164062 -24.88671875 107.14453125 C-27.67854904 97.27350377 -28.31399648 87.79660348 -28.25 77.5625 C-28.25773438 76.32951172 -28.26546875 75.09652344 -28.2734375 73.82617188 C-28.21385516 45.62883043 -17.55242821 21.62427529 0 0 Z " fill="#6ED5A1" transform="translate(249,24)"/>
<path d="M0 0 C1.39919678 0.48218994 1.39919678 0.48218994 2.82666016 0.97412109 C5.77220765 1.92635918 8.30368401 2.37597438 11.375 2.625 C12.24898437 2.69976562 13.12296875 2.77453125 14.0234375 2.8515625 C15.00183594 2.92503906 15.00183594 2.92503906 16 3 C16 3.33 16 3.66 16 4 C13.69 4 11.38 4 9 4 C9.00222061 4.78353348 9.00444122 5.56706696 9.00672913 6.37434387 C9.03408015 16.52038697 9.05193937 26.66642603 9.0625 36.8125 C9.06335602 37.62903423 9.06421204 38.44556847 9.06509399 39.28684616 C9.09491512 71.5348652 8.6951388 103.75924061 8 136 C2.39 136 -3.22 136 -9 136 C-8.95359375 134.74703125 -8.9071875 133.4940625 -8.859375 132.203125 C-8.82185187 130.55210719 -8.78545229 128.90106358 -8.75 127.25 C-8.71648437 126.425 -8.68296875 125.6 -8.6484375 124.75 C-8.53088917 119.77866665 -8.53088917 119.77866665 -10.828125 115.484375 C-13.01918362 113.84125827 -13.01918362 113.84125827 -16 113 C-15.85919445 110.22882696 -15.71256882 107.45817359 -15.5625 104.6875 C-15.50352539 103.50897461 -15.50352539 103.50897461 -15.44335938 102.30664062 C-15.40146484 101.54931641 -15.35957031 100.79199219 -15.31640625 100.01171875 C-15.27974854 99.31522217 -15.24309082 98.61872559 -15.20532227 97.90112305 C-15 96 -15 96 -14 93 C-12.35448038 92.28272222 -10.68577711 91.61674772 -9 91 C-6.25424756 88.25424756 -6.53148342 86.3523667 -6.18359375 82.5078125 C-6.12256973 81.85528 -6.06154572 81.2027475 -5.99867249 80.53044128 C-5.80214532 78.39603038 -5.61936078 76.26070678 -5.4375 74.125 C-5.30498919 72.64084217 -5.17217509 71.1567114 -5.0390625 69.67260742 C-4.31867444 61.49951722 -3.73214968 53.33354499 -3.41601562 45.13427734 C-2.77709836 30.06647853 -1.26642637 15.0255591 0 0 Z " fill="#0BB292" transform="translate(243,361)"/>
<path d="M0 0 C2.02915907 1.53581921 2.90788721 2.36389421 3.27709961 4.91357422 C3.21534546 5.97342529 3.21534546 5.97342529 3.15234375 7.0546875 C3.12462891 7.83457031 3.09691406 8.61445313 3.06835938 9.41796875 C2.98152335 11.04841233 2.89041708 12.67863441 2.79492188 14.30859375 C2.65231868 18.53103964 2.62386093 20.42369335 5.00390625 24.0703125 C5.66261719 24.70710938 6.32132812 25.34390625 7 26 C0.84965831 36.55808656 0.84965831 36.55808656 -3 41 C-3.680625 40.835 -4.36125 40.67 -5.0625 40.5 C-12.27572209 39.27221752 -16.39812519 40.35169302 -22.66796875 43.90625 C-25 45 -25 45 -29 45 C-29 41.04 -29 37.08 -29 33 C-27.659375 32.34 -26.31875 31.68 -24.9375 31 C-17.531146 26.84777634 -12.82983522 21.43611298 -10.4765625 13.2421875 C-10.00680697 11.03202623 -9.72226821 8.87237858 -9.5 6.625 C-9 3 -9 3 -7.8125 1 C-5.07896214 -0.50815882 -3.06096083 -0.3826201 0 0 Z " fill="#F7CB58" transform="translate(306,297)"/>
<path d="M0 0 C2.23727405 1.63100443 2.920195 2.5230496 3.38095093 5.2767334 C3.38333771 6.16703247 3.38572449 7.05733154 3.38818359 7.97460938 C3.40236832 9.4913324 3.40236832 9.4913324 3.4168396 11.03869629 C3.41076691 12.12936401 3.40469421 13.22003174 3.3984375 14.34375 C3.40274277 16.02470764 3.40274277 16.02470764 3.40713501 17.73962402 C3.40917747 20.11011256 3.40363499 22.48061788 3.39111328 24.85107422 C3.375063 28.48573383 3.39095669 32.11928135 3.41015625 35.75390625 C3.40817385 38.05468996 3.40433025 40.35547298 3.3984375 42.65625 C3.40754654 44.29225159 3.40754654 44.29225159 3.4168396 45.96130371 C3.40738312 46.97245239 3.39792664 47.98360107 3.38818359 49.02539062 C3.38579681 49.9156897 3.38341003 50.80598877 3.38095093 51.7232666 C2.920195 54.4769504 2.23727405 55.36899557 0 57 C-5.12179441 57.6402243 -5.12179441 57.6402243 -7.66323853 55.78747559 C-9.43191213 53.42246062 -9.3803062 51.96375823 -9.38818359 49.02539062 C-9.39764008 48.01424194 -9.40709656 47.00309326 -9.4168396 45.96130371 C-9.41076691 44.87063599 -9.40469421 43.77996826 -9.3984375 42.65625 C-9.40130768 41.53561157 -9.40417786 40.41497314 -9.40713501 39.26037598 C-9.40917747 36.88988744 -9.40363499 34.51938212 -9.39111328 32.14892578 C-9.375063 28.51426617 -9.39095669 24.88071865 -9.41015625 21.24609375 C-9.40817385 18.94531004 -9.40433025 16.64452702 -9.3984375 14.34375 C-9.40451019 13.25308228 -9.41058289 12.16241455 -9.4168396 11.03869629 C-9.40738312 10.02754761 -9.39792664 9.01639893 -9.38818359 7.97460938 C-9.38579681 7.0843103 -9.38341003 6.19401123 -9.38095093 5.2767334 C-8.47669417 -0.12751005 -4.91383114 -0.61422889 0 0 Z " fill="#FDE076" transform="translate(259,292)"/>
<path d="M0 0 C2.38642783 1.71113171 2.94290424 2.7447706 3.58984375 5.63671875 C3.76193359 7.14685547 3.76193359 7.14685547 3.9375 8.6875 C5.37759701 18.18528266 8.45171706 23.02219472 15.68359375 29.3359375 C18.28757215 31.34710752 18.28757215 31.34710752 23 33 C23 36.96 23 40.92 23 45 C13.96858586 44.60732982 7.30031885 39.699938 1.1875 33.3125 C-5.20028871 25.82804668 -9.0460262 17.26772912 -9.25 7.375 C-9.27578125 6.61960937 -9.3015625 5.86421875 -9.328125 5.0859375 C-8.49556688 -0.20675339 -4.69738941 -0.58717368 0 0 Z " fill="#F5C957" transform="translate(212,297)"/>
<path d="M0 0 C2.00013142 1.52592186 2.88021799 2.42575097 3.3984375 4.91015625 C3.31893726 12.21092814 2.06404758 21.41208543 -3 27 C-4.96640659 27.54801495 -6.93900274 28.08756843 -8.94140625 28.484375 C-14.33290154 29.83480646 -17.95729759 33.54461434 -21 38 C-22.67954011 41.18228652 -23.1087059 43.90466497 -23.375 47.4375 C-23.78814567 52.01270573 -25.10118245 54.46706611 -28 58 C-28.33 58 -28.66 58 -29 58 C-29 49.75 -29 41.5 -29 33 C-24.545 30.525 -24.545 30.525 -20 28 C-13.16116906 22.29711047 -10.3599329 15.31987708 -9.5 6.625 C-9 3 -9 3 -7.8125 1 C-5.07896214 -0.50815882 -3.06096083 -0.3826201 0 0 Z " fill="#F1C556" transform="translate(306,255)"/>
<path d="M0 0 C2.38642783 1.71113171 2.94290424 2.7447706 3.58984375 5.63671875 C3.76193359 7.14685547 3.76193359 7.14685547 3.9375 8.6875 C5.37759701 18.18528266 8.45171706 23.02219472 15.68359375 29.3359375 C18.28757215 31.34710752 18.28757215 31.34710752 23 33 C23 41.25 23 49.5 23 58 C18.7444858 53.7444858 18.41740856 52.73809183 17.5 47.125 C15.93621293 39.02021111 13.91600457 34.8412032 7 30 C4.35994773 28.41596864 2.61054271 27.93740865 -0.5 27.4375 C-4.4154449 25.82937084 -4.71402951 25.34890939 -6.375 21.6875 C-8.6097156 15.68050808 -10.01173407 9.431738 -9 3 C-6.37750318 -0.45552523 -4.23948985 -0.52993623 0 0 Z " fill="#F2C656" transform="translate(212,255)"/>
<path d="M0 0 C2.38642783 1.71113171 2.94290424 2.7447706 3.58984375 5.63671875 C3.76193359 7.14685547 3.76193359 7.14685547 3.9375 8.6875 C5.27690366 17.58114027 7.9510219 22.61615429 14.8046875 28.45703125 C17.51469989 30.44289489 17.51469989 30.44289489 23 33 C23 41.25 23 49.5 23 58 C18.8683395 53.8683395 18.56332331 53.54637797 18.0625 48.25 C17.07903699 41.17596782 14.67019515 36.82277773 9.8125 31.6875 C7.04723363 30.02834018 5.03863391 29.48208586 1.9375 28.75 C-2.55087188 27.51619792 -2.55087188 27.51619792 -4.46484375 25.31640625 C-5.53869372 23.2375948 -6.30990358 21.23478898 -7 19 C-7.22171875 18.33355469 -7.4434375 17.66710937 -7.671875 16.98046875 C-9.04928508 12.26190855 -9.41504166 7.8974916 -9 3 C-6.89283346 -0.74607384 -4.00604938 -0.50075617 0 0 Z " fill="#F1C656" transform="translate(212,213)"/>
<path d="M0 0 C1.875 1 1.875 1 3 3 C4.05186211 11.11436485 1.51387383 20.22918925 -3 27 C-4.8828125 27.484375 -4.8828125 27.484375 -7.125 27.75 C-13.83766153 29.04922481 -18.04681205 33.2004306 -21.875 38.6875 C-23.27517549 42.81023893 -23.79912901 46.87488964 -24.27734375 51.1953125 C-25 54 -25 54 -29 58 C-29 49.75 -29 41.5 -29 33 C-24.545 30.525 -24.545 30.525 -20 28 C-13.16116906 22.29711047 -10.3599329 15.31987708 -9.5 6.625 C-9 3 -9 3 -7.8125 1 C-5.07896214 -0.50815882 -3.06096083 -0.3826201 0 0 Z " fill="#F2C656" transform="translate(306,213)"/>
<path d="M0 0 C0.70125 -0.01675781 1.4025 -0.03351563 2.125 -0.05078125 C2.74375 0.06910156 3.3625 0.18898437 4 0.3125 C6.26598448 3.71147673 6.23742654 4.87569173 6.1953125 8.85546875 C6.18564453 10.46518555 6.18564453 10.46518555 6.17578125 12.10742188 C6.15902344 13.22697266 6.14226562 14.34652344 6.125 15.5 C6.11597656 16.63115234 6.10695313 17.76230469 6.09765625 18.92773438 C6.07406965 21.72274629 6.03819841 24.51764959 6 27.3125 C2.04 27.3125 -1.92 27.3125 -6 27.3125 C-6.05372872 23.18732814 -6.09354309 19.06284921 -6.125 14.9375 C-6.14175781 13.761875 -6.15851563 12.58625 -6.17578125 11.375 C-6.18222656 10.25351563 -6.18867188 9.13203125 -6.1953125 7.9765625 C-6.20578613 6.93967285 -6.21625977 5.9027832 -6.22705078 4.83447266 C-5.84271706 0.56547552 -3.86933112 0.02133822 0 0 Z " fill="#FADD75" transform="translate(256,207.6875)"/>
<path d="M0 0 C1.66918945 1.17700195 1.66918945 1.17700195 3 3 C3.34057617 5.54370117 3.34057617 5.54370117 3.29296875 8.54296875 C3.28330078 9.61611328 3.27363281 10.68925781 3.26367188 11.79492188 C3.23853516 12.91447266 3.21339844 14.03402344 3.1875 15.1875 C3.17396484 16.31865234 3.16042969 17.44980469 3.14648438 18.61523438 C3.11110305 21.41035882 3.05729579 24.20523889 3 27 C-0.96 27 -4.92 27 -9 27 C-9.0807316 23.06209217 -9.14037469 19.12582931 -9.1875 15.1875 C-9.21263672 14.06794922 -9.23777344 12.94839844 -9.26367188 11.79492188 C-9.27333984 10.72177734 -9.28300781 9.64863281 -9.29296875 8.54296875 C-9.3086792 7.55321045 -9.32438965 6.56345215 -9.34057617 5.54370117 C-9 3 -9 3 -7.66918945 1.17700195 C-5.07465387 -0.65249286 -3.07930729 -0.38491341 0 0 Z " fill="#FCDE75" transform="translate(259,250)"/>
</svg>
