<?xml version="1.0" encoding="UTF-8"?>
<svg version="1.1" xmlns="http://www.w3.org/2000/svg" width="512" height="512">
<path d="M0 0 C3.13469212 3.13054143 3.52154494 5.97940604 3.94921875 10.296875 C4.07490234 11.50214844 4.20058594 12.70742188 4.33007812 13.94921875 C4.44802734 15.20347656 4.56597656 16.45773438 4.6875 17.75 C4.81705078 19.01972656 4.94660156 20.28945313 5.08007812 21.59765625 C5.39810535 24.73081338 5.7042801 27.86467179 6 31 C7.39605469 30.93425781 7.39605469 30.93425781 8.8203125 30.8671875 C12 31 12 31 14.875 33.125 C17 36 17 36 17.625 39 C16.79456673 42.98607969 15.11743323 44.46255435 12 47 C10.515 47.495 10.515 47.495 9 48 C9.27263672 49.52137573 9.27263672 49.52137573 9.55078125 51.07348633 C10.22428536 54.83571938 10.89439379 58.59855062 11.56347656 62.36157227 C11.85356503 63.9903184 12.1445748 65.61890072 12.43652344 67.24731445 C12.8559397 69.58762869 13.272042 71.92851152 13.6875 74.26953125 C13.81874268 74.99775589 13.94998535 75.72598053 14.08520508 76.47627258 C14.59482126 79.36313629 15 82.06166866 15 85 C16.051875 84.896875 17.10375 84.79375 18.1875 84.6875 C22 85 22 85 24.9375 87.125 C27 90 27 90 27.625 93 C26.78842434 97.01556315 25.21090106 98.51884918 22 101 C20.68 101 19.36 101 18 101 C18.25523437 102.04220703 18.25523437 102.04220703 18.515625 103.10546875 C20.25200286 110.39271412 21.7700563 117.7071336 23.1875 125.0625 C23.36635742 125.97862061 23.54521484 126.89474121 23.72949219 127.83862305 C23.89481445 128.707854 24.06013672 129.57708496 24.23046875 130.47265625 C24.45319458 131.63680054 24.45319458 131.63680054 24.68041992 132.82446289 C25 135 25 135 25 139 C26.8253125 138.8453125 26.8253125 138.8453125 28.6875 138.6875 C32.22393408 138.69378141 32.93853572 138.95646281 36 141.125 C38 144 38 144 38.625 147 C37.78253791 151.04381805 36.26600019 152.53235541 33 155 C30.32421875 155.1328125 30.32421875 155.1328125 28 155 C28.27263672 156.05960937 28.27263672 156.05960937 28.55078125 157.140625 C30.28569883 164.22264755 31.6008397 171.29241167 32.6875 178.5 C32.81874268 179.36012695 32.94998535 180.22025391 33.08520508 181.10644531 C33.66985231 185.10133867 34.17429519 188.94971181 34 193 C34.886875 192.896875 35.77375 192.79375 36.6875 192.6875 C40 193 40 193 42.875 195.125 C45 198 45 198 45.625 201 C44.78842434 205.01556315 43.21090106 206.51884918 40 209 C38.68 209 37.36 209 36 209 C36.12117188 209.7528125 36.24234375 210.505625 36.3671875 211.28125 C37.76953553 220.16997906 38.9126485 229.06818412 40 238 C43.3 233.05 46.6 228.1 50 223 C48.35 221.68 46.7 220.36 45 219 C43.55569145 216.11138291 43.62311494 214.20352299 44 211 C46.125 208.125 46.125 208.125 49 206 C52.6347396 205.55492984 55.50373982 206.08270163 59 207 C60.51012131 204.23456804 62.00630148 201.46183193 63.5 198.6875 C63.92925781 197.90181641 64.35851562 197.11613281 64.80078125 196.30664062 C65.20683594 195.54931641 65.61289062 194.79199219 66.03125 194.01171875 C66.40830078 193.31522217 66.78535156 192.61872559 67.17382812 191.90112305 C68.19928123 189.88690929 68.19928123 189.88690929 68 187 C66.03277992 185.61876037 64.03131672 184.28511874 62 183 C60.55569145 180.11138291 60.62311494 178.20352299 61 175 C63.125 172.125 63.125 172.125 66 170 C70.29453054 169.3737143 73.07692781 170.34992403 77 172 C78.34287473 169.25430077 79.67446996 166.50405734 81 163.75 C81.3815625 162.97269531 81.763125 162.19539062 82.15625 161.39453125 C82.5171875 160.64042969 82.878125 159.88632813 83.25 159.109375 C83.75273438 158.07248535 83.75273438 158.07248535 84.265625 157.01464844 C85.22831619 154.73103546 85.22831619 154.73103546 85 151 C82.0929357 148.83973235 82.0929357 148.83973235 79 147 C77.55569145 144.11138291 77.62311494 142.20352299 78 139 C80.125 136.125 80.125 136.125 83 134 C87.1055374 133.41349466 89.42383387 134.08502072 93 136 C94.12672175 133.60496313 95.25142558 131.2090129 96.375 128.8125 C96.69210937 128.13896484 97.00921875 127.46542969 97.3359375 126.77148438 C99.00011424 123.21777362 100.59091761 119.66503752 102 116 C101.43410156 115.59007812 100.86820312 115.18015625 100.28515625 114.7578125 C99.55167969 114.21898437 98.81820313 113.68015625 98.0625 113.125 C97.33160156 112.59132813 96.60070312 112.05765625 95.84765625 111.5078125 C93.34715627 109.46723535 93.05299186 108.39743897 92.625 105.1875 C93 102 93 102 95.125 99.125 C98.51999234 96.61565784 99.87517332 96.39846278 104 97 C105.67672217 97.6409563 107.34535093 98.30404118 109 99 C109.41511841 97.89543457 109.41511841 97.89543457 109.83862305 96.76855469 C111.10603439 93.42290526 112.39644702 90.08659366 113.6875 86.75 C114.12255859 85.59113281 114.55761719 84.43226562 115.00585938 83.23828125 C115.44091797 82.12324219 115.87597656 81.00820312 116.32421875 79.859375 C116.71697998 78.83295898 117.10974121 77.80654297 117.5144043 76.74902344 C119.24900606 73.53922625 120.93305602 71.95315444 124 70 C127.58295911 70.06177516 129.95217958 70.23159836 132.875 72.375 C141.92323438 85.44467188 137.2234007 117.51569795 137.25 132.5625 C137.25508575 133.71335083 137.26017151 134.86420166 137.26541138 136.04992676 C137.31126534 148.98694933 137.03826064 161.86680531 136.171875 174.77734375 C136.10276917 175.90040421 136.03366333 177.02346466 135.96246338 178.18055725 C135.52197262 184.02403849 134.97455209 188.88743277 132 194 C128.8125 194.9375 128.8125 194.9375 126 195 C125.52819791 197.89391985 125.09707146 200.78469026 124.6875 203.6875 C124.55021484 204.50412109 124.41292969 205.32074219 124.27148438 206.16210938 C123.95468623 208.53329549 123.74002646 210.61963486 124 213 C124.81082031 213.81082031 125.62164062 214.62164062 126.45703125 215.45703125 C129.27257213 218.27257213 129.40682826 218.69489782 129.5 222.4609375 C129.16018617 229.00235364 127.56845813 235.28758133 126 241.625 C125.71382813 242.81996094 125.42765625 244.01492188 125.1328125 245.24609375 C124.43191718 248.1664909 123.71735686 251.08360276 123 254 C126.96 252.35 130.92 250.7 135 249 C134.5978125 246.4321875 134.5978125 246.4321875 134.1875 243.8125 C133.70438772 238.45685534 133.70438772 238.45685534 136.0625 234.8125 C139.52419937 232.67655784 141.01580353 232.16995907 145 233 C149.21705211 236.27992942 149.92248735 237.61243673 151 243 C157.93 240.69 164.86 238.38 172 236 C172 232.71619412 171.80754394 231.0430993 170.875 228.0625 C170.13826291 225.23658702 169.98672659 224.06105771 170.625 221.125 C172.28072546 218.56615157 173.05191729 217.79677911 176 217 C181.92993631 217.31210191 181.92993631 217.31210191 184.75 219.125 C186.59586092 221.89379138 187.71362497 224.9395583 189 228 C191.60499124 226.54312342 194.20901482 225.08456349 196.8125 223.625 C197.91948242 223.00625 197.91948242 223.00625 199.04882812 222.375 C199.76103516 221.97539062 200.47324219 221.57578125 201.20703125 221.1640625 C201.8616333 220.79748535 202.51623535 220.4309082 203.19067383 220.05322266 C204.83176306 219.09793201 206.4200344 218.0533104 208 217 C207.649375 216.01 207.29875 215.02 206.9375 214 C205.70673532 209.61205634 205.89130292 206.43478832 207 202 C209.125 199.9375 209.125 199.9375 212 199 C215.9307967 199.06777236 218.11051949 199.11051949 220.9375 201.9375 C222 204 222 204 222 206 C223.68838564 204.62608764 225.37565901 203.25080839 227.0625 201.875 C228.06925781 201.05902344 229.07601563 200.24304688 230.11328125 199.40234375 C232.42028942 197.48243844 234.58161043 195.50664977 236.75 193.4375 C239.32938476 191.21687859 240.09481553 190.98392957 243.6875 190.375 C247 191 247 191 249.4375 192.4375 C252.0423024 196.70937593 251.54296231 201.46007315 250.51489258 206.26928711 C249.82093178 208.63327575 249.03414563 210.93628756 248.1875 213.25 C247.72597534 214.53221436 247.72597534 214.53221436 247.25512695 215.84033203 C232.59918622 254.96318574 203.51821543 285.0612634 168.25 306.5625 C162.18453214 310.34536387 156.88446322 314.93775621 151.53271484 319.65087891 C150.11954959 320.89477047 148.69503787 322.12573986 147.26953125 323.35546875 C129.14231717 339.2343462 116.56663633 358.99847442 107.875 381.3125 C103.29843168 393.05668516 97.89596133 401.95092402 89 411 C88.38511719 411.62777344 87.77023437 412.25554687 87.13671875 412.90234375 C68.35087642 430.64229336 43.15323989 433.32242882 18.515625 433.30078125 C16.64678861 433.30468013 14.77795308 433.30901719 12.90911865 433.31376648 C9.00937008 433.32118483 5.10971211 433.32096994 1.20996094 433.31567383 C-3.73960589 433.30989162 -8.68879699 433.32680167 -13.63830185 433.3500185 C-17.49410092 433.36489145 -21.34981238 433.36560919 -25.20563507 433.36250877 C-27.02812696 433.36301542 -28.85062463 433.36812666 -30.67308807 433.37832069 C-56.61381473 433.50562615 -80.32692476 428.75066527 -99.796875 410.19140625 C-100.52390625 409.46824219 -101.2509375 408.74507813 -102 408 C-102.62390625 407.41089844 -103.2478125 406.82179688 -103.890625 406.21484375 C-112.27611499 397.62160513 -116.51148327 385.30704651 -121 374.375 C-134.51755688 341.61801253 -159.12850336 318.95844202 -188.3125 299.8125 C-221.87508973 277.66858749 -251.22216333 243.86348795 -261 204 C-261.65188217 199.53091093 -261.8234229 196.35041355 -259.4375 192.4375 C-255.99189043 190.40547384 -253.96982639 190.52264164 -250 191 C-247.27415986 192.63405127 -245.05262247 194.69697831 -242.75 196.875 C-241.53739861 197.97759747 -240.32389039 199.07919866 -239.109375 200.1796875 C-238.58311523 200.67194824 -238.05685547 201.16420898 -237.51464844 201.67138672 C-235.8276461 203.21000121 -235.8276461 203.21000121 -233 205 C-232.7525 204.38125 -232.505 203.7625 -232.25 203.125 C-230.7091547 200.50556299 -229.91019654 199.86519357 -227 199 C-223.64794489 199.17642395 -221.02608699 199.43730713 -218.0625 201.0625 C-215.47160515 205.78707297 -217.10676764 211.95035576 -218 217 C-215.58706946 218.48557291 -213.1700253 219.96356592 -210.75 221.4375 C-210.06808594 221.85837891 -209.38617188 222.27925781 -208.68359375 222.71289062 C-208.01972656 223.11572266 -207.35585937 223.51855469 -206.671875 223.93359375 C-206.0644043 224.30540771 -205.45693359 224.67722168 -204.83105469 225.06030273 C-202.90484128 226.04883545 -201.11305496 226.55740065 -199 227 C-198.74605469 226.44570313 -198.49210937 225.89140625 -198.23046875 225.3203125 C-197.88628906 224.59585938 -197.54210937 223.87140625 -197.1875 223.125 C-196.85105469 222.40570313 -196.51460938 221.68640625 -196.16796875 220.9453125 C-195 219 -195 219 -192 217 C-188.02120782 216.39453162 -186.45249499 216.70154586 -183.0625 218.9375 C-180.53882567 222.68477401 -180.73432097 224.40555407 -181.41015625 228.71875 C-182.06531504 231.25260916 -182.97860311 233.59272435 -184 236 C-182.39583333 236.4375 -180.79166667 236.875 -179.1875 237.3125 C-173.45833333 238.875 -167.72916667 240.4375 -162 242 C-161.73445313 241.43410156 -161.46890625 240.86820313 -161.1953125 240.28515625 C-160.84210938 239.55167969 -160.48890625 238.81820312 -160.125 238.0625 C-159.77695313 237.33160156 -159.42890625 236.60070312 -159.0703125 235.84765625 C-158 234 -158 234 -156 233 C-149.78143361 232.42420682 -149.78143361 232.42420682 -146.625 234.75 C-144.16229117 238.15990453 -144.16229117 238.15990453 -144 241 C-144.588562 243.354248 -145.24592899 245.69342986 -146 248 C-144.02204824 249.00240089 -142.04260558 250.00186043 -140.0625 251 C-138.96035156 251.556875 -137.85820312 252.11375 -136.72265625 252.6875 C-134.35361757 254.07237383 -134.35361757 254.07237383 -133 254 C-133.15557373 253.37996094 -133.31114746 252.75992188 -133.47143555 252.12109375 C-146.78004948 198.43731966 -149.70350917 143.56026788 -146.1875 88.4375 C-146.08272339 86.73799194 -146.08272339 86.73799194 -145.97583008 85.00415039 C-145.24358017 75.84046175 -145.24358017 75.84046175 -142 72 C-139 70 -139 70 -135.5625 70.0625 C-131.0740596 71.24366853 -130.5249811 72.12931334 -128 76 C-126.24772376 79.87521921 -124.74320067 83.83144219 -123.25 87.8125 C-122.83878906 88.88693359 -122.42757812 89.96136719 -122.00390625 91.06835938 C-120.99448995 93.7092741 -119.99351291 96.35307044 -119 99 C-118.07316406 98.67902344 -117.14632812 98.35804688 -116.19140625 98.02734375 C-112.77189682 96.92657144 -110.55629154 96.47033956 -107 97 C-103.67725596 99.45594125 -102.22381992 100.9256644 -101.375 105 C-102.21533227 109.0335949 -103.81395239 110.45116191 -107 113 C-108.65128429 113.70390513 -110.31634838 114.37747335 -112 115 C-111.50628906 116.16917969 -111.01257813 117.33835937 -110.50390625 118.54296875 C-109.85652902 120.09104473 -109.20940701 121.63922746 -108.5625 123.1875 C-108.23701172 123.95642578 -107.91152344 124.72535156 -107.57617188 125.51757812 C-105.99156426 129.32390364 -104.58515561 132.88742747 -104 137 C-102.700625 136.2575 -102.700625 136.2575 -101.375 135.5 C-97.76415174 133.89517855 -95.88289028 133.33908251 -92 134 C-88.67725596 136.45594125 -87.22381992 137.9256644 -86.375 142 C-87.42721065 147.0506111 -90.86752769 149.24501846 -95 152 C-94.35014905 156.71370756 -92.48438608 160.57686444 -90.4375 164.8125 C-90.10814453 165.50537109 -89.77878906 166.19824219 -89.43945312 166.91210938 C-88.63127749 168.61044948 -87.81631623 170.30555769 -87 172 C-85.60974609 171.51853516 -85.60974609 171.51853516 -84.19140625 171.02734375 C-80.77189682 169.92657144 -78.55629154 169.47033956 -75 170 C-71.67725596 172.45594125 -70.22381992 173.9256644 -69.375 178 C-70.42721065 183.0506111 -73.86752769 185.24501846 -78 188 C-76.56347895 192.91441412 -74.45840385 197.00238358 -71.875 201.375 C-71.50246094 202.01566406 -71.12992188 202.65632812 -70.74609375 203.31640625 C-69.83565998 204.88048477 -68.91851809 206.44065534 -68 208 C-67.10087891 207.51853516 -67.10087891 207.51853516 -66.18359375 207.02734375 C-63.18669484 205.61735374 -61.27957463 205.53148934 -58 206 C-54.67725596 208.45594125 -53.22381992 209.9256644 -52.375 214 C-53.20127939 217.9661411 -54.89474674 219.48622355 -58 222 C-58.66 222 -59.32 222 -60 222 C-58.8989859 223.91847937 -57.79405904 225.83471354 -56.6875 227.75 C-56.07261719 228.81734375 -55.45773438 229.8846875 -54.82421875 230.984375 C-53.32904649 233.45605163 -51.78623484 235.73560384 -50 238 C-49.87882813 236.99582031 -49.75765625 235.99164063 -49.6328125 234.95703125 C-48.5735386 226.27823177 -47.38962616 217.6334221 -46 209 C-47.42699219 208.80470703 -47.42699219 208.80470703 -48.8828125 208.60546875 C-52 208 -52 208 -53.875 206.3125 C-55.38185358 203.21507874 -55.55651279 201.40864082 -55 198 C-52.875 195.125 -52.875 195.125 -50 193 C-46.8203125 192.8671875 -46.8203125 192.8671875 -44 193 C-43.92652344 191.92032959 -43.92652344 191.92032959 -43.8515625 190.81884766 C-43.28591111 183.25447934 -42.28433553 175.8483437 -41 168.375 C-40.73316406 166.76431641 -40.73316406 166.76431641 -40.4609375 165.12109375 C-39.13389881 157.26779762 -39.13389881 157.26779762 -38 155 C-39.093125 154.9175 -40.18625 154.835 -41.3125 154.75 C-45 154 -45 154 -46.9375 152.3125 C-48.3613395 149.2135552 -48.55153827 147.37817188 -48 144 C-46 141.125 -46 141.125 -43 139 C-40.19242993 138.59002212 -37.86006586 138.75762154 -35 139 C-34.93522461 138.15211914 -34.93522461 138.15211914 -34.86914062 137.28710938 C-34.227436 129.9222242 -32.92539439 122.74914863 -31.5 115.5 C-31.16162109 113.73269531 -31.16162109 113.73269531 -30.81640625 111.9296875 C-29.13375235 103.2675047 -29.13375235 103.2675047 -28 101 C-28.928125 100.9175 -29.85625 100.835 -30.8125 100.75 C-34 100 -34 100 -35.875 98.3125 C-37.38185358 95.21507874 -37.55651279 93.40864082 -37 90 C-34.9375 87.125 -34.9375 87.125 -32 85 C-28.1875 84.6875 -28.1875 84.6875 -25 85 C-24.85304687 83.99259766 -24.85304687 83.99259766 -24.703125 82.96484375 C-23.54545772 75.23042872 -22.26109195 67.52008949 -20.9375 59.8125 C-20.7631543 58.78439209 -20.58880859 57.75628418 -20.40917969 56.69702148 C-20.24192383 55.73094971 -20.07466797 54.76487793 -19.90234375 53.76953125 C-19.75273193 52.89917236 -19.60312012 52.02881348 -19.44897461 51.13208008 C-19 49 -19 49 -18 47 C-18.928125 46.9175 -19.85625 46.835 -20.8125 46.75 C-24 46 -24 46 -25.875 44.3125 C-27.38185358 41.21507874 -27.55651279 39.40864082 -27 36 C-24.875 33.125 -24.875 33.125 -22 31 C-18.8203125 30.8671875 -18.8203125 30.8671875 -16 31 C-15.88724731 29.80455566 -15.88724731 29.80455566 -15.7722168 28.58496094 C-15.42391457 24.97188476 -15.05593972 21.36107586 -14.6875 17.75 C-14.56955078 16.49574219 -14.45160156 15.24148437 -14.33007812 13.94921875 C-14.20439453 12.74394531 -14.07871094 11.53867187 -13.94921875 10.296875 C-13.83924561 9.18666992 -13.72927246 8.07646484 -13.6159668 6.93261719 C-12.95877135 3.80371044 -12.21873877 2.27429873 -10 0 C-6.20519658 -1.26493447 -3.87641726 -0.89988258 0 0 Z " fill="#000100" transform="translate(261,40)"/>
<path d="M0 0 C0.33 0 0.66 0 1 0 C1.39478712 46.44822283 1.39478712 46.44822283 -0.5625 65.33203125 C-1.74168552 73.32342648 -1.74168552 73.32342648 0.875 80.4375 C2.90705546 82.02417441 2.90705546 82.02417441 5 83 C4.87961612 85.92532827 4.70597687 88.83050169 4.5 91.75 C4.47164062 92.575 4.44328125 93.4 4.4140625 94.25 C4.21360593 96.73566151 3.96739008 98.69669028 3 101 C1.01111058 102.45559774 -0.80311306 103.26638548 -3.13183594 104.05957031 C-5.16038705 104.86255207 -5.16038705 104.86255207 -6.08740234 106.9387207 C-6.9441238 109.60390097 -7.47964319 112.24724822 -8 115 C-8.29325906 116.50150005 -8.58762197 118.00278473 -8.8828125 119.50390625 C-9.04354248 120.32375 -9.20427246 121.14359375 -9.36987305 121.98828125 C-9.53656494 122.83777344 -9.70325684 123.68726563 -9.875 124.5625 C-10.04233643 125.42101562 -10.20967285 126.27953125 -10.38208008 127.1640625 C-11.54042122 132.99979714 -12.84731478 138.76617113 -14.4375 144.5 C-14.61845215 145.19939697 -14.7994043 145.89879395 -14.98583984 146.61938477 C-17.16719848 154.13884228 -23.03206393 156.71561499 -29.3125 160.5 C-41.99095148 168.30449333 -53.76830311 177.16638533 -64.46875 187.52880859 C-66.15765675 189.15147315 -67.87556688 190.74042704 -69.59375 192.33203125 C-70.79297308 193.46997898 -71.99091606 194.60927746 -73.1875 195.75 C-73.75299561 196.26876709 -74.31849121 196.78753418 -74.90112305 197.32202148 C-77.82116073 200.1644202 -78.91333786 201.66184079 -79.95703125 205.734375 C-80.28644231 209.01912181 -80.28644231 209.01912181 -78.5 211.5 C-75.76264932 213.14241041 -74.1860339 213.38877932 -71.05175781 212.84765625 C-66.31986435 210.89273787 -63.03702434 206.43055715 -59.625 202.75 C-51.01865177 193.81897356 -42.22290746 186.01547647 -32 179 C-31.36739258 178.56574707 -30.73478516 178.13149414 -30.08300781 177.68408203 C-8.96413702 163.43184874 14.27981005 153.00853819 38.28222656 144.73022461 C59.68335584 137.34626586 79.60769715 128.98695598 98.36425781 116.1015625 C100.52514808 114.64634804 102.74921645 113.31080115 105 112 C94.62170261 140.22896891 68.21147295 161.6288898 44.23608398 177.73461914 C11.50493574 199.76401963 -13.86983073 227.14314094 -28.0625 264.375 C-34.64268548 281.4925606 -45.46360096 292.49236211 -62.07666016 300.15429688 C-75.98323078 306.26909259 -90.09749278 305.44025132 -105 305 C-105.16886822 297.29135335 -105.05127438 289.98853667 -103.4375 282.4375 C-103.1751355 281.17848877 -103.1751355 281.17848877 -102.9074707 279.89404297 C-99.88627073 266.20761242 -95.12240078 253.1772181 -88.28515625 240.9453125 C-86.86353554 237.68725167 -86.66839798 235.51699111 -87 232 C-87.93597315 229.98048938 -87.93597315 229.98048938 -90 229 C-93.41356344 228.08279076 -93.41356344 228.08279076 -97 229 C-99.29264052 231.31906865 -100.56087612 234.09905313 -102 237 C-102.46019531 237.81339844 -102.92039062 238.62679687 -103.39453125 239.46484375 C-111.90454613 255.11518773 -115.98748516 272.57980551 -119 290 C-121.27209221 287.92619222 -122.57866574 286.14142562 -123.75390625 283.3046875 C-124.05031006 282.59368896 -124.34671387 281.88269043 -124.65209961 281.15014648 C-125.1027478 280.02394897 -125.1027478 280.02394897 -125.5625 278.875 C-125.8726001 278.10164307 -126.1827002 277.32828613 -126.50219727 276.53149414 C-132.1658943 262.14251927 -132.25961049 248.07310331 -129 233 C-128.82855469 232.08476562 -128.65710938 231.16953125 -128.48046875 230.2265625 C-122.22702096 200.77484066 -101.67585662 176.23144456 -82.4765625 154.08984375 C-52.51952611 118.98246514 -33.0693915 74.85990388 -14.4375 33 C-14.10574768 32.25558655 -13.77399536 31.5111731 -13.43218994 30.74420166 C-9.46869681 21.83060647 -5.69048651 12.87118626 -2.14868164 3.78125 C-1 1 -1 1 0 0 Z " fill="#67C843" transform="translate(382,152)"/>
<path d="M0 0 C2.84806039 1.42403019 3.08336309 3.15698641 4.28515625 6.08203125 C4.72843262 7.14856934 5.17170898 8.21510742 5.62841797 9.31396484 C6.10166504 10.46848145 6.57491211 11.62299805 7.0625 12.8125 C8.06471863 15.21815169 9.06864044 17.62309449 10.07421875 20.02734375 C10.57228027 21.21956543 11.0703418 22.41178711 11.58349609 23.64013672 C14.50721988 30.57503618 17.6113212 37.42569993 20.74853516 44.26611328 C21.63505091 46.2027507 22.51709297 48.14143886 23.39599609 50.08154297 C40.56246609 87.9624825 58.77775999 127.8034795 87.57421875 158.34375 C97.89753728 169.6478669 107.04590687 182.49156082 115.1875 195.4375 C115.75855469 196.34371094 116.32960937 197.24992188 116.91796875 198.18359375 C119.28282321 204.33904525 116.26486543 210.44311775 114.125 216.3125 C110.93210795 225.40260449 109.28367035 234.4738148 108 244 C104.80586537 242.40293269 104.0152491 239.05748102 102.5625 235.9375 C94.95275148 220.2241393 84.0118181 204.74443322 71 193 C67.41456334 192.24954494 67.41456334 192.24954494 64 193 C61.81452316 194.44148975 61.81452316 194.44148975 61 197 C60.8709299 200.42035777 61.03670526 202.83760482 63.28515625 205.55078125 C64.46040387 206.67046161 65.6479898 207.77725293 66.84375 208.875 C87.59196112 229.3225124 105.52955102 265.80655272 106.05981445 295.33032227 C106.06221466 298.55423272 106.04362753 301.77641048 106 305 C101.91680782 305.0885085 97.83386837 305.14089063 93.75 305.1875 C92.04070312 305.22520508 92.04070312 305.22520508 90.296875 305.26367188 C74.37453745 305.39937362 60.53008636 300.76786285 48 291 C47.21367187 290.3915625 46.42734375 289.783125 45.6171875 289.15625 C35.42087222 280.72268753 31.17146579 270.32375383 26.40405273 258.33740234 C11.67871762 221.53496759 -16.17204213 195.25117678 -48.8125 173.8125 C-69.9237564 159.89764911 -86.71319314 142.4509894 -100 121 C-100.59772217 120.04432129 -100.59772217 120.04432129 -101.20751953 119.06933594 C-102.20415872 117.41751852 -103.1104245 115.71185451 -104 114 C-103.505 113.01 -103.505 113.01 -103 112 C-102.22398438 112.556875 -101.44796875 113.11375 -100.6484375 113.6875 C-92.71673159 119.31853862 -84.59642572 124.43804571 -76 129 C-75.38141113 129.33435059 -74.76282227 129.66870117 -74.12548828 130.01318359 C-62.79544328 136.04576751 -50.91962135 140.22497676 -38.8125 144.375 C-13.26343786 153.14125454 12.41881904 163.73300797 34.15844727 180.09204102 C37.08154577 182.19151578 38.6412164 183.01193105 42.2890625 182.890625 C45.11156792 182.18915298 45.11156792 182.18915298 47 180 C47.92215518 175.89806343 47.92215518 175.89806343 47 172 C43.78902741 168.68971898 39.90915116 166.39663847 36 164 C34.59174217 163.11570625 33.184224 162.23023379 31.77734375 161.34375 C29.62776715 159.99254621 27.47539067 158.64814285 25.30859375 157.32470703 C18.07920397 152.90341274 18.07920397 152.90341274 16.6328125 147.87890625 C16.38909912 147.03674561 16.14538574 146.19458496 15.89428711 145.3269043 C15.64042236 144.41465088 15.38655762 143.50239746 15.125 142.5625 C14.72583374 141.13514526 14.72583374 141.13514526 14.31860352 139.67895508 C7.133723 113.52859872 2.81935223 86.0506083 1 59 C0.94360352 58.20239258 0.88720703 57.40478516 0.82910156 56.58300781 C-0.43898808 37.75675394 -0.09820047 18.85751103 0 0 Z " fill="#67C943" transform="translate(129,152)"/>
<path d="M0 0 C0.33 0 0.66 0 1 0 C1.39478712 46.44822283 1.39478712 46.44822283 -0.5625 65.33203125 C-1.74168552 73.32342648 -1.74168552 73.32342648 0.875 80.4375 C2.90705546 82.02417441 2.90705546 82.02417441 5 83 C4.87961612 85.92532827 4.70597687 88.83050169 4.5 91.75 C4.47164062 92.575 4.44328125 93.4 4.4140625 94.25 C4.21360593 96.73566151 3.96739008 98.69669028 3 101 C1.01111058 102.45559774 -0.80311306 103.26638548 -3.13183594 104.05957031 C-5.16038705 104.86255207 -5.16038705 104.86255207 -6.08740234 106.9387207 C-6.9441238 109.60390097 -7.47964319 112.24724822 -8 115 C-8.29325906 116.50150005 -8.58762197 118.00278473 -8.8828125 119.50390625 C-9.04354248 120.32375 -9.20427246 121.14359375 -9.36987305 121.98828125 C-9.53656494 122.83777344 -9.70325684 123.68726563 -9.875 124.5625 C-10.04233643 125.42101562 -10.20967285 126.27953125 -10.38208008 127.1640625 C-11.54042122 132.99979714 -12.84731478 138.76617113 -14.4375 144.5 C-14.61845215 145.19939697 -14.7994043 145.89879395 -14.98583984 146.61938477 C-17.16719848 154.13884228 -23.03206393 156.71561499 -29.3125 160.5 C-41.99095148 168.30449333 -53.76830311 177.16638533 -64.46875 187.52880859 C-66.15765675 189.15147315 -67.87556688 190.74042704 -69.59375 192.33203125 C-70.79297308 193.46997898 -71.99091606 194.60927746 -73.1875 195.75 C-73.75299561 196.26876709 -74.31849121 196.78753418 -74.90112305 197.32202148 C-77.77021156 200.11482568 -78.9096442 201.6671478 -79.98828125 205.640625 C-79.99953659 208.8671571 -79.78660601 210.37263822 -78 213 C-79.24846488 214.73027536 -80.49884402 216.45916957 -81.75 218.1875 C-82.44609375 219.15042969 -83.1421875 220.11335937 -83.859375 221.10546875 C-84.91898437 222.53826172 -84.91898437 222.53826172 -86 224 C-86.67675781 224.94875 -87.35351562 225.8975 -88.05078125 226.875 C-88.69402344 227.57625 -89.33726562 228.2775 -90 229 C-91.134375 228.938125 -92.26875 228.87625 -93.4375 228.8125 C-96.89449753 228.59807985 -96.89449753 228.59807985 -98.3515625 230.33984375 C-99.72097504 232.4999816 -100.86333019 234.70873183 -102 237 C-102.46019531 237.81339844 -102.92039062 238.62679687 -103.39453125 239.46484375 C-111.90454613 255.11518773 -115.98748516 272.57980551 -119 290 C-121.27209221 287.92619222 -122.57866574 286.14142562 -123.75390625 283.3046875 C-124.05031006 282.59368896 -124.34671387 281.88269043 -124.65209961 281.15014648 C-125.1027478 280.02394897 -125.1027478 280.02394897 -125.5625 278.875 C-125.8726001 278.10164307 -126.1827002 277.32828613 -126.50219727 276.53149414 C-132.1658943 262.14251927 -132.25961049 248.07310331 -129 233 C-128.82855469 232.08476562 -128.65710938 231.16953125 -128.48046875 230.2265625 C-122.22702096 200.77484066 -101.67585662 176.23144456 -82.4765625 154.08984375 C-52.51952611 118.98246514 -33.0693915 74.85990388 -14.4375 33 C-14.10574768 32.25558655 -13.77399536 31.5111731 -13.43218994 30.74420166 C-9.46869681 21.83060647 -5.69048651 12.87118626 -2.14868164 3.78125 C-1 1 -1 1 0 0 Z " fill="#21B07E" transform="translate(382,152)"/>
<path d="M0 0 C2.84806039 1.42403019 3.08336309 3.15698641 4.28515625 6.08203125 C4.9500708 7.68183838 4.9500708 7.68183838 5.62841797 9.31396484 C6.10166504 10.46848145 6.57491211 11.62299805 7.0625 12.8125 C8.06471863 15.21815169 9.06864044 17.62309449 10.07421875 20.02734375 C10.82131104 21.81567627 10.82131104 21.81567627 11.58349609 23.64013672 C14.50721988 30.57503618 17.6113212 37.42569993 20.74853516 44.26611328 C21.63505091 46.2027507 22.51709297 48.14143886 23.39599609 50.08154297 C40.56246609 87.9624825 58.77775999 127.8034795 87.57421875 158.34375 C97.89753728 169.6478669 107.04590687 182.49156082 115.1875 195.4375 C115.75855469 196.34371094 116.32960938 197.24992188 116.91796875 198.18359375 C119.28282321 204.33904525 116.26486543 210.44311775 114.125 216.3125 C110.93210795 225.40260449 109.28367035 234.4738148 108 244 C104.80586537 242.40293269 104.0152491 239.05748102 102.5625 235.9375 C94.96970804 220.25915288 84.03051149 204.67669212 71 193 C67.41600593 192.58307147 67.41600593 192.58307147 64 193 C59.94040721 193 58.99302054 191.48221464 56.0625 188.75 C55.20785156 187.96109375 54.35320312 187.1721875 53.47265625 186.359375 C52.65667969 185.58078125 51.84070313 184.8021875 51 184 C50.2265625 183.319375 49.453125 182.63875 48.65625 181.9375 C47.83640625 180.9784375 47.83640625 180.9784375 47 180 C47.144375 178.7625 47.28875 177.525 47.4375 176.25 C47.62764095 174.10982607 47.62764095 174.10982607 47 172 C43.80481865 168.67807868 39.90653303 166.39503333 36 164 C34.59174217 163.11570625 33.184224 162.23023379 31.77734375 161.34375 C29.62776715 159.99254621 27.47539067 158.64814285 25.30859375 157.32470703 C18.07920397 152.90341274 18.07920397 152.90341274 16.6328125 147.87890625 C16.38909912 147.03674561 16.14538574 146.19458496 15.89428711 145.3269043 C15.64042236 144.41465088 15.38655762 143.50239746 15.125 142.5625 C14.85888916 141.61093018 14.59277832 140.65936035 14.31860352 139.67895508 C7.133723 113.52859872 2.81935223 86.0506083 1 59 C0.94360352 58.20239258 0.88720703 57.40478516 0.82910156 56.58300781 C-0.43898808 37.75675394 -0.09820047 18.85751103 0 0 Z " fill="#21B07D" transform="translate(129,152)"/>
<path d="M0 0 C0.66 0 1.32 0 2 0 C2.16460472 0.87606903 2.16460472 0.87606903 2.33253479 1.76983643 C3.51180821 8.04498068 4.69255427 14.31984672 5.87420654 20.59454346 C6.33296891 23.03098374 6.7915058 25.46746649 7.24981689 27.9039917 C10.60679987 45.75634298 10.60679987 45.75634298 14.08203125 63.5859375 C14.31401718 64.75546715 14.31401718 64.75546715 14.5506897 65.94862366 C14.84861138 67.45001242 15.14653411 68.95140098 15.44445801 70.45278931 C18.06653139 83.68191898 20.32979815 96.92179678 22.17578125 110.28515625 C22.68427535 113.95158567 23.27964866 117.57974658 23.9765625 121.21484375 C25.35118048 128.59656211 26.19559646 136.04540686 27.0625 143.5 C27.15059937 144.25222839 27.23869873 145.00445679 27.32946777 145.77947998 C28.57751702 156.50420829 29.68748997 167.18414725 29.91357422 177.98681641 C30.00329224 180.07668885 30.22636584 182.12237852 30.47265625 184.19921875 C31.01934959 189.83400826 31.19890806 194.77701714 27.74609375 199.5078125 C25.23201686 202.527789 22.47253812 205.30009262 19.72851562 208.109375 C16.65245412 211.47392589 14.09346664 215.19629851 11.5 218.9375 C11.00854492 219.63544678 10.51708984 220.33339355 10.01074219 221.05249023 C7.09212176 225.24888711 4.47289979 229.5266176 2 234 C1.34 234 0.68 234 0 234 C-1.37511654 232.0267386 -2.63266057 230.05524846 -3.875 228 C-7.39336784 222.35628656 -11.13226706 216.94363579 -15.125 211.625 C-15.63498535 210.93792969 -16.1449707 210.25085938 -16.67041016 209.54296875 C-19.31767049 206.02813329 -22.00226858 202.98475722 -25.25 200 C-28.80887604 196.03513567 -28.64706798 191.87069376 -28.40852356 186.70755005 C-28.36499252 186.02562592 -28.32146149 185.34370178 -28.27661133 184.64111328 C-28.09561596 181.67679954 -27.93873649 178.71420743 -27.81811523 175.74682617 C-27.33774237 164.53896343 -26.27674803 153.46757504 -24.89819336 142.33642578 C-24.56021738 139.60656309 -24.23150161 136.87570405 -23.90429688 134.14453125 C-21.82614306 116.92921609 -18.9544434 99.92497177 -15.8125 82.875 C-15.61435699 81.79640717 -15.41621399 80.71781433 -15.21206665 79.60653687 C-12.38604979 64.23675972 -9.43789035 48.89718589 -6.32910156 33.58227539 C-4.06382274 22.41491967 -1.97043955 11.22293829 0 0 Z " fill="#67C843" transform="translate(255,105)"/>
<path d="M0 0 C0.64324219 0.4125 1.28648438 0.825 1.94921875 1.25 C3.88379279 2.48636116 5.82161429 3.71764792 7.76171875 4.9453125 C9.83492213 6.2607588 11.90081182 7.58784813 13.95703125 8.9296875 C23.22607755 14.85521389 32.99894741 19.45276796 43 24 C43 24.99 43 25.98 43 27 C51.97963422 37.26243911 63.77286884 44.93409741 75 52.5 C108.57370682 75.14689828 133.58586099 102.09839757 148.265625 140.29296875 C154.97731917 157.5867674 167.5080592 169.06876129 184 177 C192.10334091 180.17169093 200.40084178 181.82245761 209 183 C209.33 182.01 209.66 181.02 210 180 C210 184.29 210 188.58 210 193 C205.91625168 193.08179615 201.8341818 193.14088706 197.75 193.1875 C196.61046875 193.21263672 195.4709375 193.23777344 194.296875 193.26367188 C178.37453745 193.39937362 164.53008636 188.76786285 152 179 C150.82050781 178.08734375 150.82050781 178.08734375 149.6171875 177.15625 C139.42087222 168.72268753 135.17146579 158.32375383 130.40405273 146.33740234 C115.67871762 109.53496759 87.82795787 83.25117678 55.1875 61.8125 C31.94803369 46.49490344 13.2274733 26.5265678 0 2 C0 1.34 0 0.68 0 0 Z " fill="#4EBF22" transform="translate(25,264)"/>
<path d="M0 0 C0.33 0 0.66 0 1 0 C1 14.85 1 29.7 1 45 C0.34 44.34 -0.32 43.68 -1 43 C-1.46672119 44.00450195 -1.93344238 45.00900391 -2.41430664 46.04394531 C-38.99827673 124.64101078 -38.99827673 124.64101078 -67.40625 155.078125 C-88.67643262 179.03911385 -113.07004346 213.86619559 -111.87890625 247.41015625 C-111.56928969 256.93321116 -112.96482876 264.66468302 -115.75390625 273.7578125 C-117.37907933 279.08376773 -118.27550914 284.48521886 -119 290 C-121.27209221 287.92619222 -122.57866574 286.14142562 -123.75390625 283.3046875 C-124.05031006 282.59368896 -124.34671387 281.88269043 -124.65209961 281.15014648 C-125.1027478 280.02394897 -125.1027478 280.02394897 -125.5625 278.875 C-125.8726001 278.10164307 -126.1827002 277.32828613 -126.50219727 276.53149414 C-132.1658943 262.14251927 -132.25961049 248.07310331 -129 233 C-128.82855469 232.08476562 -128.65710938 231.16953125 -128.48046875 230.2265625 C-122.22702096 200.77484066 -101.67585662 176.23144456 -82.4765625 154.08984375 C-52.51952611 118.98246514 -33.0693915 74.85990388 -14.4375 33 C-14.10574768 32.25558655 -13.77399536 31.5111731 -13.43218994 30.74420166 C-9.46869681 21.83060647 -5.69048651 12.87118626 -2.14868164 3.78125 C-1 1 -1 1 0 0 Z " fill="#028D5B" transform="translate(382,152)"/>
<path d="M0 0 C0 14.37579332 -19.97488527 32.82816152 -29.49365234 42.50341797 C-38.65142705 51.60182299 -49.08250918 58.55926746 -59.76391602 65.73461914 C-92.49506426 87.76401963 -117.86983073 115.14314094 -132.0625 152.375 C-138.64268548 169.4925606 -149.46360096 180.49236211 -166.07666016 188.15429688 C-180.00676444 194.27944047 -194.07332345 193.40678301 -209 193 C-209 188.71 -209 184.42 -209 180 C-208.67 181.32 -208.34 182.64 -208 184 C-191.86855821 181.72402925 -177.2937443 177.82865357 -164 168 C-162.94425781 167.23623047 -162.94425781 167.23623047 -161.8671875 166.45703125 C-151.98291669 158.60775737 -146.44808073 147.53007029 -142 136 C-126.77907789 98.99052759 -101.71730706 73.18273923 -68.53125 51.37597656 C-58.44586036 44.71241555 -49.21892905 37.44894241 -40.625 28.9375 C-40.05869873 28.37683838 -39.49239746 27.81617676 -38.90893555 27.23852539 C-35.94980549 24.60244152 -35.94980549 24.60244152 -35 21 C-34.48727539 20.73896484 -33.97455078 20.47792969 -33.44628906 20.20898438 C-21.69656065 14.1999428 -10.53941958 7.99626498 0 0 Z " fill="#4EBF22" transform="translate(486,264)"/>
<path d="M0 0 C0.66 0 1.32 0 2 0 C7.93802358 25.44638189 11.93853988 46.37549134 5 72 C4.44726986 74.47256468 3.97278498 76.94749911 3.5 79.4375 C3.27183594 80.55253906 3.04367187 81.66757813 2.80859375 82.81640625 C-1.32224889 103.7499482 -4.17700966 124.84110466 -6.55029297 146.03369141 C-6.97376028 149.76857193 -7.42361723 153.49935724 -7.87890625 157.23046875 C-10.1792071 176.79861437 -10.70377697 196.31671584 -11 216 C-14.05827558 212.97397282 -16.90510865 209.99583501 -19.5 206.5625 C-21.48134433 203.95030311 -23.4304229 201.54712025 -25.6953125 199.1640625 C-29.50075875 193.9396363 -28.36480772 188.51421392 -28.10046387 182.36817932 C-28.03658672 180.86243848 -27.97460389 179.35661517 -27.91516113 177.85069275 C-27.43750219 165.93679624 -26.36349402 154.16800612 -24.89819336 142.33642578 C-24.56021738 139.60656309 -24.23150161 136.87570405 -23.90429688 134.14453125 C-21.82614306 116.92921609 -18.9544434 99.92497177 -15.8125 82.875 C-15.61435699 81.79640717 -15.41621399 80.71781433 -15.21206665 79.60653687 C-12.38604979 64.23675972 -9.43789035 48.89718589 -6.32910156 33.58227539 C-4.06382274 22.41491967 -1.97043955 11.22293829 0 0 Z " fill="#4DBE22" transform="translate(255,105)"/>
<path d="M0 0 C2.87071965 1.43535982 3.13195919 3.24544166 4.35546875 6.1875 C5.0374231 7.81147705 5.0374231 7.81147705 5.7331543 9.46826172 C6.21308838 10.63373535 6.69302246 11.79920898 7.1875 13 C8.17655131 15.39865694 9.16613465 17.79709458 10.15625 20.1953125 C10.63964844 21.36739258 11.12304688 22.53947266 11.62109375 23.74707031 C12.77656713 26.4729073 13.98993299 29.14163753 15.28125 31.8046875 C19.24404772 40.12607528 20.5165283 46.76404285 20.15161133 55.98657227 C19.76413254 66.20644743 21.251502 76.16071777 22.6328125 86.26806641 C22.93612384 88.52475118 23.21454024 90.78038419 23.46875 93.04296875 C26.21319142 116.3971097 31.99710364 139.45406739 39.43359375 161.734375 C40 164 40 164 39 166 C35.87229355 164.04596384 32.74831477 162.08604677 29.625 160.125 C28.73554688 159.56941406 27.84609375 159.01382813 26.9296875 158.44140625 C26.07890625 157.90644531 25.228125 157.37148438 24.3515625 156.8203125 C23.56604004 156.32805176 22.78051758 155.83579102 21.97119141 155.32861328 C18.75651005 153.16186868 17.68257324 151.52558818 16.6328125 147.87890625 C16.38909912 147.03674561 16.14538574 146.19458496 15.89428711 145.3269043 C15.64042236 144.41465088 15.38655762 143.50239746 15.125 142.5625 C14.85888916 141.61093018 14.59277832 140.65936035 14.31860352 139.67895508 C7.133723 113.52859872 2.81935223 86.0506083 1 59 C0.94360352 58.20239258 0.88720703 57.40478516 0.82910156 56.58300781 C-0.43898808 37.75675394 -0.09820047 18.85751103 0 0 Z " fill="#028D5B" transform="translate(129,152)"/>
</svg>
