<?xml version="1.0" encoding="UTF-8"?>
<svg version="1.1" xmlns="http://www.w3.org/2000/svg" width="512" height="512">
<path d="M0 0 C11.71942406 6.46380605 17.8970928 15.75781455 22.2734375 28.25390625 C22.61652667 29.58476263 22.95172697 30.91772092 23.2734375 32.25390625 C23.78132812 31.19171875 24.28921875 30.12953125 24.8125 29.03515625 C30.88868478 16.48354543 36.34846431 6.03782308 49.7890625 0.15234375 C56.98805337 -2.26995821 64.48768906 -3.30398564 71.5859375 -0.12109375 C76.54307584 2.70297294 80.19165637 6.91249414 82.2734375 12.25390625 C83.5978592 26.06793255 80.41706982 36.39664768 73.2734375 48.25390625 C74.12164062 47.96515625 74.96984375 47.67640625 75.84375 47.37890625 C88.4802411 43.37966511 99.97275679 42.29930537 112.2734375 48.25390625 C117.98773165 51.3805955 123.17543654 55.95990336 125.2734375 62.25390625 C125.95698789 69.39212536 126.25564992 75.6431294 121.8125 81.55078125 C112.9592223 91.34780936 101.19385173 96.51753944 88.01416016 97.40625 C85.55732752 97.50585805 83.10721063 97.55160752 80.6484375 97.56640625 C79.88539307 97.57196533 79.12234863 97.57752441 78.33618164 97.58325195 C74.12717653 97.53073477 70.2285353 97.0960478 66.10546875 96.2421875 C59.27083153 94.90625045 52.52580941 95.03536728 45.5859375 95.12890625 C43.65717773 95.14244141 43.65717773 95.14244141 41.68945312 95.15625 C38.55058018 95.17958735 35.41211274 95.21232592 32.2734375 95.25390625 C31.82097656 96.64863159 31.82097656 96.64863159 31.359375 98.0715332 C30.23527884 101.36573138 28.82222713 104.32521174 27.2734375 107.44140625 C14.20740725 133.40649072 14.20740725 133.40649072 8.2734375 161.25390625 C8.84505615 160.65872192 8.84505615 160.65872192 9.42822266 160.05151367 C18.18481602 150.98489452 27.10401839 142.70339051 37.2734375 135.25390625 C38.33046875 134.46371094 39.3875 133.67351562 40.4765625 132.859375 C57.06964518 120.86412927 76.77415861 111.06164626 97.796875 113.6953125 C107.96732495 115.76970497 118.33511415 120.34925963 124.55859375 129.05078125 C128.39578347 135.48735755 129.34809256 141.99894161 127.84765625 149.3359375 C125.32266714 157.18973798 120.36789714 162.38693575 113.12231445 166.20483398 C91.78419778 176.86966584 70.96213874 173.40164426 48.72680664 167.61230469 C41.59784877 165.76415841 34.98191657 165.04841902 27.6484375 165.00390625 C26.82214844 164.98328125 25.99585938 164.96265625 25.14453125 164.94140625 C18.18877796 164.89853566 11.94060259 166.34406375 5.2734375 168.25390625 C3.77655664 173.78070244 2.2834246 179.30849424 0.79345703 184.8371582 C0.28825048 186.70981825 -0.21790252 188.58222327 -0.72509766 190.4543457 C-3.29908813 199.95772242 -5.84119986 209.46684468 -8.1484375 219.0390625 C-8.32546204 219.75831406 -8.50248657 220.47756561 -8.68487549 221.21861267 C-9.07850448 222.88677198 -9.40976356 224.56946638 -9.7265625 226.25390625 C-9.3965625 226.58390625 -9.0665625 226.91390625 -8.7265625 227.25390625 C-8.28489746 226.79653076 -7.84323242 226.33915527 -7.38818359 225.86791992 C14.30627336 203.50865998 40.19979194 180.89825559 72.859375 179.26171875 C84.5478871 179.23497158 95.25321859 183.09598456 103.8359375 191.19140625 C109.69386821 197.67044812 110.84194193 203.50482162 110.625 212.09375 C109.7417846 220.03287509 105.50635681 224.85514714 99.41015625 229.75 C86.13178139 239.48423824 68.33551025 240.91932949 52.42578125 238.72265625 C44.75444769 237.23840244 37.22533457 235.24687713 29.7109375 233.12109375 C22.74863194 231.36469394 16.03556714 231.0715042 8.8984375 231.06640625 C7.55652344 231.04803711 7.55652344 231.04803711 6.1875 231.02929688 C-2.56249871 230.78351895 -2.56249871 230.78351895 -10.7265625 233.25390625 C-13.08781043 238.43161392 -13.89438727 244.36094461 -15.0390625 249.91796875 C-15.36064331 251.46065933 -15.36064331 251.46065933 -15.6887207 253.03451538 C-16.14088586 255.2077105 -16.59128737 257.38127323 -17.04003906 259.55517578 C-17.72010307 262.84763362 -18.40646975 266.13872935 -19.09375 269.4296875 C-19.53423261 271.55070269 -19.97434835 273.67179411 -20.4140625 275.79296875 C-20.61620361 276.7621524 -20.81834473 277.73133606 -21.02661133 278.72988892 C-22.42931325 285.54573312 -23.62517351 292.38315258 -24.7265625 299.25390625 C-24.26161377 298.7120166 -23.79666504 298.17012695 -23.31762695 297.61181641 C-16.09526391 289.22393693 -8.39644028 282.14245673 0.2734375 275.25390625 C1.77583984 274.02607422 1.77583984 274.02607422 3.30859375 272.7734375 C22.02397992 257.68161256 41.95104282 248.78578761 66.2734375 250.25390625 C75.70765657 251.58593977 84.98314539 256.84575047 90.8359375 264.37890625 C95.4748739 271.01382418 96.10873047 277.31346691 95.2734375 285.25390625 C92.97566878 292.83033283 87.45190271 297.6155802 81.2734375 302.25390625 C78.51171875 303.66796875 78.51171875 303.66796875 75.5859375 304.87890625 C74.63332031 305.28367187 73.68070313 305.6884375 72.69921875 306.10546875 C53.35017164 312.5919224 34.73279819 308.97699013 15.5625 303.8828125 C8.34670934 301.97134825 1.55299402 301.05957376 -5.9140625 301.06640625 C-6.65003662 301.06576172 -7.38601074 301.06511719 -8.14428711 301.06445312 C-14.48021853 301.1250511 -20.52261064 301.9776456 -26.7265625 303.25390625 C-26.77559219 303.90671066 -26.82462189 304.55951508 -26.87513733 305.23210144 C-27.46173249 312.37679493 -28.48628447 319.37120491 -29.72265625 326.4296875 C-29.91626236 327.55731003 -30.10986847 328.68493256 -30.30934143 329.84672546 C-30.92352763 333.42066539 -31.54340655 336.9935847 -32.1640625 340.56640625 C-32.97785066 345.2703896 -33.78900871 349.97481775 -34.59765625 354.6796875 C-34.78935394 355.7940921 -34.98105164 356.9084967 -35.17855835 358.05667114 C-36.49678216 365.77252192 -37.71395452 373.49117321 -38.7265625 381.25390625 C-38.20513672 380.44590576 -37.68371094 379.63790527 -37.14648438 378.80541992 C-29.99020222 367.77093702 -21.68791372 357.87059437 -12.7265625 348.25390625 C-11.96859375 347.43019531 -11.210625 346.60648437 -10.4296875 345.7578125 C3.33301828 331.34295236 21.17480992 319.68022452 41.5234375 318.87890625 C51.92266564 319.07328435 62.4786078 322.10864569 70.2734375 329.25390625 C76.30748114 337.0285394 77.01661505 343.47412052 76.2734375 353.25390625 C74.33994729 360.88934528 68.09085597 366.74366441 61.6953125 370.94921875 C46.49135319 379.59375561 30.05493683 383.11507336 12.62890625 380.76171875 C-3.07053627 378.68412785 -26.22130675 377.23587381 -39.7265625 387.25390625 C-40.73816505 389.71685056 -40.73816505 389.71685056 -41.01269531 392.60473633 C-41.16925598 393.70050491 -41.32581665 394.7962735 -41.48712158 395.92524719 C-41.63316833 397.11264999 -41.77921509 398.3000528 -41.9296875 399.5234375 C-42.18187042 401.36502693 -42.18187042 401.36502693 -42.43914795 403.24382019 C-42.88247384 406.51647949 -43.30570435 409.79052994 -43.72009277 413.06689453 C-44.14118338 416.34983795 -44.59218242 419.62868659 -45.0390625 422.90820312 C-46.61747453 434.68456538 -47.99091633 446.39059435 -48.7265625 458.25390625 C-48.17943604 457.56337158 -47.63230957 456.87283691 -47.06860352 456.16137695 C-38.30222179 445.15362172 -28.82203506 433.98092217 -17.7265625 425.25390625 C-16.85 424.55136719 -15.9734375 423.84882813 -15.0703125 423.125 C2.15137629 409.73287096 19.97847981 400.67265709 42.2734375 403.25390625 C52.54434201 405.40670708 61.12194198 410.89055006 67.1796875 419.421875 C70.25739147 424.57702914 69.67341425 430.45801669 69.2734375 436.25390625 C66.85798364 444.77903754 60.37558348 451.23284022 53 455.87109375 C35.53794112 464.72720957 17.00542127 464.69376909 -1.7890625 461.25390625 C-17.21892618 458.45996148 -30.4561408 458.6243602 -45.7265625 462.25390625 C-47.39175769 462.59451436 -49.05787651 462.93083359 -50.7265625 463.25390625 C-50.80003906 464.51847656 -50.80003906 464.51847656 -50.875 465.80859375 C-50.94976562 466.90429688 -51.02453125 468 -51.1015625 469.12890625 C-51.17117187 470.21945312 -51.24078125 471.31 -51.3125 472.43359375 C-51.7265625 475.25390625 -51.7265625 475.25390625 -53.7265625 477.25390625 C-57.2265625 477.50390625 -57.2265625 477.50390625 -60.7265625 477.25390625 C-61.3865625 476.59390625 -62.0465625 475.93390625 -62.7265625 475.25390625 C-62.66197144 473.29742221 -62.58713203 471.34030188 -62.44140625 469.38818359 C-61.90122653 462.32412465 -61.90122653 462.32412465 -64.16015625 455.8203125 C-66.57354335 453.84489357 -68.89922052 452.5794523 -71.7265625 451.25390625 C-72.30567383 450.96370605 -72.88478516 450.67350586 -73.48144531 450.37451172 C-85.55231324 444.35163196 -98.0639549 440.96589403 -111.3515625 438.81640625 C-130.5944163 435.66095124 -147.65802871 426.34700876 -159.3203125 410.50390625 C-163.20070987 404.29527046 -164.79962792 397.52148565 -163.7265625 390.25390625 C-161.90733625 383.106946 -158.99718538 378.22398614 -152.7265625 374.25390625 C-143.59147616 369.30654606 -132.51655922 368.90403864 -122.46484375 370.90234375 C-99.81157525 377.83157882 -86.34059631 397.40081026 -75.6015625 417.25390625 C-69.88060952 428.12885038 -65.78902023 439.68021083 -61.7265625 451.25390625 C-59.9672239 449.49456765 -60.18866461 446.93982154 -59.87866211 444.54418945 C-59.71857162 443.32234451 -59.55848114 442.10049957 -59.39353943 440.84162903 C-59.22179184 439.49600777 -59.05025266 438.1503599 -58.87890625 436.8046875 C-58.7012381 435.43040095 -58.52330175 434.05614905 -58.34510803 432.68193054 C-57.97169592 429.7945674 -57.60134807 426.90683192 -57.2331543 424.01879883 C-56.76230116 420.32722516 -56.28427949 416.63662365 -55.80396175 412.94627094 C-55.43483602 410.10438079 -55.06940508 407.26202483 -54.70508003 404.41951561 C-54.53035017 403.05949037 -54.35452502 401.69960536 -54.17756462 400.33986855 C-53.92968467 398.43058951 -53.68727259 396.52060303 -53.44506836 394.6105957 C-53.30596542 393.52551224 -53.16686249 392.44042877 -53.02354431 391.32246399 C-52.273502 385.70656272 -52.273502 385.70656272 -53.73046875 380.453125 C-66.55280663 368.01642134 -83.57366844 362.02361077 -100.45117188 357.34960938 C-117.70421635 352.57015564 -132.65771498 343.40467209 -142.7265625 328.25390625 C-146.74073339 320.80901954 -149.11581605 313.38296605 -147.1953125 304.91015625 C-144.92689949 297.51315731 -141.54633627 293.13181683 -134.7265625 289.25390625 C-124.23831116 285.66784973 -111.83916773 285.81819218 -101.4921875 289.875 C-78.45027229 301.36341253 -66.41142532 326.17223252 -58.46679688 349.4675293 C-55.62438082 358.00334691 -53.0678541 366.56764168 -50.7265625 375.25390625 C-50.61825104 374.56423264 -50.50993958 373.87455902 -50.39834595 373.16398621 C-49.37015574 366.61851943 -48.34068401 360.0732556 -47.30982399 353.52820873 C-46.78007748 350.16450313 -46.25080188 346.80072494 -45.72265625 343.43676758 C-45.11343848 339.55657319 -44.50207571 335.67671816 -43.890625 331.796875 C-43.70408356 330.60684372 -43.51754211 329.41681244 -43.3253479 328.1907196 C-42.02812907 319.97409329 -40.66212616 311.77579726 -38.9765625 303.62890625 C-40.43041478 297.08657101 -46.1694971 293.56451943 -51.54638672 290.07177734 C-61.9341061 283.70222267 -72.75844696 280.1269796 -84.43603516 276.89501953 C-102.77022164 271.76332334 -119.95923631 262.19218077 -129.7265625 245.25390625 C-133.86078075 236.6074144 -135.32107844 229.22311915 -132.1640625 220.06640625 C-129.40708609 213.814671 -125.38701375 210.79696798 -119.6015625 207.44140625 C-108.60105606 203.34990386 -96.0409954 205.02983998 -85.52734375 209.6640625 C-61.38654707 222.73903945 -50.25652591 250.32214305 -42.58398438 275.23876953 C-40.79428345 281.53227932 -39.27024198 287.89638416 -37.7265625 294.25390625 C-36.1744441 286.71767622 -34.62675283 279.18054826 -33.08455753 271.64228153 C-32.36815808 268.14120519 -31.65029266 264.6404434 -30.92895508 261.14038086 C-30.23161785 257.75648967 -29.53829079 254.37179852 -28.84762383 250.98653984 C-28.45762482 249.08015294 -28.06358107 247.17459491 -27.66944885 245.26905823 C-24.65767093 234.38988809 -24.65767093 234.38988809 -26.03515625 223.94140625 C-38.7781891 213.84050682 -52.26753033 207.90242641 -67.7265625 203.25390625 C-86.53789929 197.58812479 -104.20032178 189.51771595 -114.8515625 172.06640625 C-119.21452541 163.7874181 -120.78949167 156.55065944 -118.7265625 147.25390625 C-116.19111141 140.90434986 -111.60342337 136.59953491 -105.7265625 133.25390625 C-94.54567369 129.08476127 -82.53810303 130.71277804 -71.7265625 135.25390625 C-68.47980726 136.98984472 -65.61596317 138.97891837 -62.7265625 141.25390625 C-61.74816406 141.97126953 -61.74816406 141.97126953 -60.75 142.703125 C-41.46708594 157.95276023 -32.87247198 185.02180078 -26.2890625 207.62890625 C-26.0297998 208.51465332 -25.77053711 209.40040039 -25.50341797 210.31298828 C-24.36288584 214.36952009 -23.36723287 217.99453552 -23.7265625 222.25390625 C-23.0665625 222.25390625 -22.4065625 222.25390625 -21.7265625 222.25390625 C-21.60434326 220.94848877 -21.48212402 219.64307129 -21.35620117 218.2980957 C-20.83029067 213.59028637 -19.85046363 209.1236117 -18.65234375 204.546875 C-18.44765976 203.74706207 -18.24297577 202.94724915 -18.03208923 202.12319946 C-17.37399293 199.56094448 -16.70663564 197.00120663 -16.0390625 194.44140625 C-15.5860209 192.68129603 -15.1332221 190.92112329 -14.68066406 189.16088867 C-12.12227229 179.26879671 -9.49632865 169.40719675 -6.17700195 159.73706055 C-4.91332753 155.91053348 -4.91332753 155.91053348 -5.29296875 151.9765625 C-14.62271543 140.76561349 -34.80630785 135.73769181 -48.51171875 133.43359375 C-69.29652909 129.90099753 -87.69731788 122.96112063 -100.7265625 105.25390625 C-105.37938617 97.60319911 -107.03743342 89.97662961 -105.30078125 81.0703125 C-103.25988468 74.64712267 -99.23241775 70.29949133 -93.45703125 66.9296875 C-83.67061123 62.64531007 -70.82703841 62.46425672 -60.7265625 65.87890625 C-59.03855751 66.62399217 -57.36998358 67.41504926 -55.7265625 68.25390625 C-54.91316406 68.64320312 -54.09976563 69.0325 -53.26171875 69.43359375 C-24.97771957 84.5362663 -12.86090188 120.13800238 -2.7265625 148.25390625 C-2.50629395 147.58673584 -2.28602539 146.91956543 -2.05908203 146.23217773 C2.73049688 131.82280961 7.97039179 117.80378083 14.20703125 103.95703125 C14.89759383 102.39009761 15.58662134 100.82248564 16.2734375 99.25390625 C16.75554687 98.16078125 17.23765625 97.06765625 17.734375 95.94140625 C18.53076186 93.21752782 18.53076186 93.21752782 17.25390625 90.61328125 C10.10950316 80.21576216 2.42756073 72.05728651 -7.64453125 64.5625 C-11.53594956 61.64763534 -15.20823269 58.60804734 -18.7265625 55.25390625 C-19.59667969 54.43986328 -19.59667969 54.43986328 -20.484375 53.609375 C-29.26711734 44.57063345 -34.88471604 31.89298668 -34.9765625 19.37890625 C-35.0075 18.33669922 -35.0075 18.33669922 -35.0390625 17.2734375 C-35.0832903 11.402197 -33.79455614 7.47616554 -29.7890625 3.171875 C-29.1084375 2.60082031 -28.4278125 2.02976562 -27.7265625 1.44140625 C-27.0459375 0.85746094 -26.3653125 0.27351563 -25.6640625 -0.328125 C-18.64950295 -5.46176435 -7.37147262 -3.42332143 0 0 Z " fill="#2F6952" transform="translate(273.7265625,18.74609375)"/>
<path d="M0 0 C4.0814866 3.74136272 7.66710656 9.1217861 8.11328125 14.6953125 C8.32023443 24.86869512 7.15569142 30.36823083 0.3125 37.84375 C-12.8882288 50.31110498 -31.1454149 53.98975695 -48.703125 53.88671875 C-52.125 53.71875 -52.125 53.71875 -55.76953125 53.2265625 C-71.78165835 51.10759239 -87.69546556 52.16127185 -103.125 56.71875 C-104.78729813 57.07322682 -106.45248844 57.41610505 -108.125 57.71875 C-105.81882598 44.16997766 -90.17705756 30.43277776 -81.125 20.71875 C-80.36703125 19.89503906 -79.6090625 19.07132812 -78.828125 18.22265625 C-58.8920432 -2.65810917 -26.85883945 -19.35416372 0 0 Z " fill="#2B604B" transform="translate(342.125,346.28125)"/>
<path d="M0 0 C5.72430294 4.52013247 9.95102364 10.43563717 10.82421875 17.796875 C10.93450143 26.21144312 9.64896475 31.39894441 4.05078125 37.71484375 C-0.18685673 41.43569661 -3.95365095 44.41878098 -9.19921875 46.58984375 C-10.15183594 46.99460937 -11.10445313 47.399375 -12.0859375 47.81640625 C-31.43498461 54.3028599 -50.05235806 50.68792763 -69.22265625 45.59375 C-76.45700622 43.67789456 -83.2146277 42.79190402 -90.69921875 42.83984375 C-91.80317993 42.84274414 -91.80317993 42.84274414 -92.92944336 42.84570312 C-99.15476089 42.89441771 -105.32121024 43.29688908 -111.51171875 43.96484375 C-104.15681447 33.26136516 -94.65729386 24.95004033 -84.51171875 16.96484375 C-83.51398438 16.15015625 -82.51625 15.33546875 -81.48828125 14.49609375 C-58.66025763 -3.92658428 -27.02502961 -18.08039463 0 0 Z " fill="#2B614C" transform="translate(358.51171875,277.03515625)"/>
<path d="M0 0 C11.71942406 6.46380605 17.8970928 15.75781455 22.2734375 28.25390625 C22.61652667 29.58476263 22.95172697 30.91772092 23.2734375 32.25390625 C24.03527344 30.660625 24.03527344 30.660625 24.8125 29.03515625 C30.88868478 16.48354543 36.34846431 6.03782308 49.7890625 0.15234375 C57.2513736 -2.35855967 64.67876276 -3.31779904 71.8984375 0.25390625 C73.0121875 0.91390625 74.1259375 1.57390625 75.2734375 2.25390625 C75.2734375 3.24390625 75.2734375 4.23390625 75.2734375 5.25390625 C73.26171875 6.90234375 73.26171875 6.90234375 70.5859375 8.62890625 C66.70262168 11.24320021 63.42884196 13.76635395 60.2734375 17.25390625 C59.69335938 17.84171875 59.11328125 18.42953125 58.515625 19.03515625 C40.90363765 37.54500962 32.84419263 63.31734234 25.27563477 87.12036133 C24.2991943 90.17337312 23.29322389 93.21513151 22.2734375 96.25390625 C20.03962368 92.90318552 19.69769299 90.76252974 19.0234375 86.81640625 C14.81115454 64.10829513 6.97373198 38.44635214 -7.7265625 20.25390625 C-7.7265625 19.59390625 -7.7265625 18.93390625 -7.7265625 18.25390625 C-8.3865625 18.25390625 -9.0465625 18.25390625 -9.7265625 18.25390625 C-10.79517245 17.08761173 -11.8068623 15.86884693 -12.7890625 14.62890625 C-16.98259678 9.66890667 -21.92870616 6.15283442 -27.7265625 3.25390625 C-26.73583161 0.5519129 -26.14250408 -0.53590263 -23.53125 -1.85546875 C-15.74366509 -4.32840658 -7.33587266 -3.40678876 0 0 Z " fill="#6CB48E" transform="translate(273.7265625,18.74609375)"/>
<path d="M0 0 C5.14167144 6.70652796 4.74567077 13.79762154 4 22 C2.3652868 29.24959769 -1.18858859 35.67368188 -5 42 C-4.15179688 41.71125 -3.30359375 41.4225 -2.4296875 41.125 C10.2068036 37.12575886 21.69931929 36.04539912 34 42 C38.93144751 44.6983392 43.0513431 48.17580395 46 53 C46.74262111 55.77148139 46.8984109 58.1047107 47 61 C45.89527344 60.84144531 44.79054688 60.68289062 43.65234375 60.51953125 C7.60019319 56.06151219 -22.99420106 71.87768579 -53 90 C-53 86.31401983 -52.06465747 85.38820918 -49.8984375 82.46484375 C-46.18489595 77.31834939 -42.89573952 71.99671307 -39.625 66.5625 C-34.89405239 58.82316187 -30.03858446 51.78421837 -24 45 C-12.34332492 31.79513907 -1.65791142 18.23702566 0 0 Z " fill="#6CB48E" transform="translate(352,25)"/>
<path d="M0 0 C5.19268753 4.70587307 7.44322404 9.79080338 7.875 16.69921875 C6.93398438 16.54066406 5.99296875 16.38210938 5.0234375 16.21875 C-9.55437844 14.15971579 -24.13587012 15.24828917 -38.125 19.69921875 C-38.76002441 19.89757324 -39.39504883 20.09592773 -40.04931641 20.30029297 C-64.38221668 28.12892252 -87.15771066 41.91669065 -107.125 57.69921875 C-108.125 54.69921875 -108.125 54.69921875 -107.32739258 53.02026367 C-106.68000122 52.10917847 -106.68000122 52.10917847 -106.01953125 51.1796875 C-105.53685791 50.49422852 -105.05418457 49.80876953 -104.55688477 49.10253906 C-104.02248779 48.37131836 -103.48809082 47.64009766 -102.9375 46.88671875 C-102.39085693 46.12842773 -101.84421387 45.37013672 -101.28100586 44.58886719 C-95.94263186 37.28122633 -90.25193578 30.35698711 -84.125 23.69921875 C-83.60824707 23.1371875 -83.09149414 22.57515625 -82.55908203 21.99609375 C-62.03723416 -0.03536374 -28.92214374 -21.10678505 0 0 Z " fill="#6CB48E" transform="translate(342.125,346.30078125)"/>
<path d="M0 0 C4.9724364 3.56194277 9.34418415 7.63498605 10.7734375 13.76171875 C11.02642857 15.93949325 11.17735541 18.05876928 11.1875 20.25 C10.630625 20.11722656 10.07375 19.98445313 9.5 19.84765625 C-29.39909451 10.84566985 -67.9055072 28.70509798 -100.8125 48.25 C-102.84279948 49.54594694 -104.82931929 50.88217922 -106.8125 52.25 C-107.4725 51.92 -108.1325 51.59 -108.8125 51.25 C-103.34241868 43.73346473 -97.54388107 36.6640644 -91.1875 29.875 C-90.2747229 28.89563477 -90.2747229 28.89563477 -89.34350586 27.89648438 C-66.90758489 4.22967251 -32.15170024 -19.45045006 0 0 Z " fill="#6CB48E" transform="translate(331.8125,428.75)"/>
<path d="M0 0 C4.79943268 5.14960587 7.85923649 10.19938524 8.125 17.375 C8.08375 18.24125 8.0425 19.1075 8 20 C7.39414062 19.80664062 6.78828125 19.61328125 6.1640625 19.4140625 C3.45258708 18.57141937 0.73083936 17.77753065 -2 17 C-2.721875 16.78730469 -3.44375 16.57460937 -4.1875 16.35546875 C-37.44355296 8.10084132 -74.87011882 23.44721406 -104.32104492 37.49462891 C-105.28115479 37.95015137 -106.24126465 38.40567383 -107.23046875 38.875 C-108.08020264 39.28492188 -108.92993652 39.69484375 -109.80541992 40.1171875 C-112 41 -112 41 -115 41 C-105.39490626 29.55912043 -94.96145792 19.88057792 -83 11 C-82.46117187 10.59507324 -81.92234375 10.19014648 -81.3671875 9.77294922 C-58.29121915 -7.44166633 -25.23135402 -21.40247151 0 0 Z " fill="#6CB48E" transform="translate(394,143)"/>
<path d="M0 0 C21.57155408 16.5744027 40.56994176 49.39601051 44.4609375 76.2890625 C44.54472656 77.21203125 44.62851563 78.135 44.71484375 79.0859375 C44.16957031 78.39628906 43.62429687 77.70664062 43.0625 76.99609375 C16.5754843 44.16277145 -12.62863113 13.16266993 -56.28515625 7.0859375 C-55.01587985 1.16264764 -52.11784653 -1.61416489 -47.28515625 -4.9140625 C-32.05671699 -13.25575534 -13.6983026 -9.3156319 0 0 Z " fill="#579272" transform="translate(168.28515625,397.9140625)"/>
<path d="M0 0 C0.81339844 0.38929687 1.62679687 0.77859375 2.46484375 1.1796875 C27.15084551 14.36115447 39.78696797 44.20896064 49 69 C49.3702832 69.9909668 49.3702832 69.9909668 49.74804688 71.00195312 C53.20748731 80.37753807 53.20748731 80.37753807 52 84 C51.41734375 83.22398437 50.8346875 82.44796875 50.234375 81.6484375 C27.96148864 52.20191023 -0.2321144 20.76913699 -38 13 C-41.66673757 12.49468988 -45.30213174 12.1509334 -49 12 C-46.46133177 5.49466266 -42.04861036 1.37563087 -36.109375 -2.109375 C-25.19778305 -6.66303148 -10.28916196 -5.25193178 0 0 Z " fill="#579272" transform="translate(218,87)"/>
<path d="M0 0 C4.73511417 4.35174607 9.5406183 8.97693691 9.89453125 15.7265625 C9.90836734 17.69820522 9.85195487 19.67006559 9.78515625 21.640625 C8.83253906 21.36347656 7.87992187 21.08632812 6.8984375 20.80078125 C5.64417969 20.43855469 4.38992188 20.07632813 3.09765625 19.703125 C1.85628906 19.34347656 0.61492187 18.98382813 -0.6640625 18.61328125 C-38.03833197 8.37544506 -79.36639227 27.74281675 -112.21484375 43.640625 C-109.93590321 38.46691138 -105.92521219 35.01052932 -101.96484375 31.078125 C-101.1543457 30.2725415 -100.34384766 29.46695801 -99.50878906 28.63696289 C-92.8016535 22.05850614 -85.89236919 16.05257802 -78.21484375 10.640625 C-77.64846191 10.24053223 -77.08208008 9.84043945 -76.49853516 9.42822266 C-64.81559821 1.30053279 -52.23775585 -5.39976541 -38.21484375 -8.359375 C-36.57515625 -8.730625 -36.57515625 -8.730625 -34.90234375 -9.109375 C-22.16926595 -9.97263451 -10.10421609 -8.21615929 0 0 Z " fill="#6CB48E" transform="translate(374.21484375,207.359375)"/>
<path d="M0 0 C4.83071535 3.81452091 8.93737692 8.91631688 10.48828125 14.96484375 C10.5647429 17.29692395 10.57971424 19.63330253 10.48828125 21.96484375 C9.45380859 21.67480469 9.45380859 21.67480469 8.3984375 21.37890625 C6.42319773 20.8315833 4.44509539 20.29452765 2.46484375 19.765625 C0.76533848 19.30840901 -0.93070146 18.83634534 -2.61328125 18.3203125 C-34.4917696 9.49340039 -72.45154608 25.98997851 -100.68115234 39.40893555 C-101.65648926 39.86953369 -102.63182617 40.33013184 -103.63671875 40.8046875 C-104.50554687 41.22097412 -105.374375 41.63726074 -106.26953125 42.06616211 C-108.51171875 42.96484375 -108.51171875 42.96484375 -111.51171875 42.96484375 C-85.87182807 13.98508755 -40.05554423 -26.79812224 0 0 Z " fill="#6CB48E" transform="translate(358.51171875,277.03515625)"/>
<path d="M0 0 C0.61119877 6.84542621 -0.64180845 10.67946666 -5 16 C-13.92507506 25.62730177 -26.82517296 29.72931093 -39.66796875 30.25 C-41.32014009 30.28168192 -42.97255485 30.30255435 -44.625 30.3125 C-45.76956665 30.32083862 -45.76956665 30.32083862 -46.93725586 30.3293457 C-51.19319081 30.27624296 -55.15761666 29.83126393 -59.33203125 28.9921875 C-65.27707648 27.83320498 -71.02117055 27.73906093 -77.0625 27.8125 C-78.07376953 27.81314453 -79.08503906 27.81378906 -80.12695312 27.81445312 C-86.47163277 27.85122203 -92.70083482 28.24403058 -99 29 C-95.73824161 25.34287696 -92.0043801 23.0724369 -87.75 20.75 C-87.04399658 20.36086426 -86.33799316 19.97172852 -85.6105957 19.57080078 C-83.41316678 18.36883422 -81.20822229 17.18200477 -79 16 C-78.3385498 15.64325195 -77.67709961 15.28650391 -76.99560547 14.91894531 C-53.8254977 2.5249527 -26.32805892 -7.73810631 0 0 Z " fill="#2B604B" transform="translate(399,86)"/>
<path d="M0 0 C0 0.99 0 1.98 0 3 C-2.01171875 4.6484375 -2.01171875 4.6484375 -4.6875 6.375 C-8.57081582 8.98929396 -11.84459554 11.5124477 -15 15 C-15.58007812 15.5878125 -16.16015625 16.175625 -16.7578125 16.78125 C-34.07292003 34.9790885 -42.35818709 60.68141333 -50 84 C-50.33 84 -50.66 84 -51 84 C-50.99476318 82.81559326 -50.98952637 81.63118652 -50.98413086 80.41088867 C-50.96587784 75.96965303 -50.95449459 71.52842062 -50.94506836 67.0871582 C-50.94007417 65.17374105 -50.93327652 63.26032765 -50.92456055 61.34692383 C-50.78239535 48.94326814 -50.78239535 48.94326814 -51.62890625 36.58203125 C-52.74868917 26.39733901 -46.17929749 15.74825975 -40 8 C-29.12175143 -3.21819383 -13.90125612 -8.2377814 0 0 Z " fill="#77C49E" transform="translate(349,21)"/>
<path d="M0 0 C0.99 0.33 1.98 0.66 3 1 C4.26779425 13.6779425 -2.44922892 25.30923583 -10 35 C-12.61940586 38.09741887 -15.31580581 41.12640423 -18.00756836 44.16088867 C-27.23853519 54.68379212 -34.53949673 66.63327502 -41.85375977 78.53027344 C-44.62212193 82.99583441 -47.47202226 87.09803169 -51 91 C-51.33 91 -51.66 91 -52 91 C-50.0913981 67.20031269 -37.38522507 39.92032614 -23 21 C-22.31679688 20.06285156 -21.63359375 19.12570313 -20.9296875 18.16015625 C-15.28995472 10.79211826 -8.39029658 4.19514829 0 0 Z " fill="#2C614C" transform="translate(349,23)"/>
<path d="M0 0 C13.62420249 0.1381765 25.05475491 5.72082436 34.875 15.0625 C44.64947998 25.4190332 50.33190391 36.23182523 54.3125 49.75 C54.6115625 50.73548828 54.910625 51.72097656 55.21875 52.73632812 C60.21498038 69.41622113 60.21498038 69.41622113 58.6875 74.3125 C58.37635254 73.83530518 58.06520508 73.35811035 57.74462891 72.86645508 C51.09376047 62.69733825 44.3278337 52.77253463 36.6875 43.3125 C36.27209961 42.79413574 35.85669922 42.27577148 35.42871094 41.74169922 C24.63971088 28.3480321 12.89725063 16.30402034 -1.265625 6.484375 C-3.55175811 4.85477242 -5.45325549 3.38730909 -7.3125 1.3125 C-5.44604795 -0.55395205 -2.5009657 0.05193262 0 0 Z " fill="#6CB48E" transform="translate(163.3125,325.6875)"/>
<path d="M0 0 C18.55837642 -0.7750598 18.55837642 -0.7750598 27 4 C28.33417969 4.7115625 28.33417969 4.7115625 29.6953125 5.4375 C38.81528197 10.72149345 45.61503728 17.99514567 51 27 C51.47953125 27.42506836 51.9590625 27.85013672 52.453125 28.28808594 C54.5265882 30.5827709 55.18478715 32.81087609 56.15625 35.7421875 C56.73052734 37.46695313 56.73052734 37.46695313 57.31640625 39.2265625 C57.70699219 40.43054688 58.09757812 41.63453125 58.5 42.875 C59.08587891 44.62296875 59.08587891 44.62296875 59.68359375 46.40625 C66.94319634 68.45393194 66.94319634 68.45393194 65 74 C64.46632813 73.15179688 63.93265625 72.30359375 63.3828125 71.4296875 C54.78722357 57.856162 45.64340795 45.04808376 35 33 C34.5447998 32.48163574 34.08959961 31.96327148 33.62060547 31.42919922 C24.72580584 21.34631978 15.38193809 12.20023738 4.06298828 4.86645508 C2.67729391 3.95705365 1.33381131 2.9839244 0 2 C0 1.34 0 0.68 0 0 Z " fill="#6CB48E" transform="translate(185,171)"/>
<path d="M0 0 C15.07992755 0.16840528 25.395658 6.12463881 36.125 16.3125 C39.16303402 19.4623635 41.50339323 22.74001936 43.64453125 26.55078125 C44.67009256 28.35861604 44.67009256 28.35861604 46.21386719 29.65234375 C48.00285275 31.58576744 48.60895838 33.14331023 49.43359375 35.63671875 C49.71968506 36.49330078 50.00577637 37.34988281 50.30053711 38.23242188 C50.59323486 39.14572266 50.88593262 40.05902344 51.1875 41 C51.49244385 41.93521484 51.7973877 42.87042969 52.11157227 43.83398438 C59.11296584 65.64666155 59.11296584 65.64666155 58.75 73.3125 C55.38774556 70.22042672 53.13525127 66.94756836 50.75 63.0625 C42.75143677 50.35275438 33.69739441 38.63430559 23.24121094 27.85498047 C21.75197885 26.31454689 20.28585396 24.75435678 18.8203125 23.19140625 C12.63890211 16.7022078 6.10226757 11.39475424 -1.31640625 6.37109375 C-3.5740719 4.78681972 -5.42108585 3.34968908 -7.25 1.3125 C-5.39156511 -0.54593489 -2.49308444 0.05216807 0 0 Z " fill="#6BB48E" transform="translate(177.25,244.6875)"/>
<path d="M0 0 C1.41256067 1.04015831 2.80923173 2.10231176 4.1875 3.1875 C5.16589844 3.90486328 5.16589844 3.90486328 6.1640625 4.63671875 C15.23417612 11.80969705 21.39982511 22.34534153 26.875 32.375 C27.22626953 33.01050781 27.57753906 33.64601562 27.93945312 34.30078125 C28.77276696 35.88837297 29.49030893 37.53559684 30.1875 39.1875 C29.8575 40.1775 29.5275 41.1675 29.1875 42.1875 C28.58164063 41.341875 27.97578125 40.49625 27.3515625 39.625 C18.84382566 28.0053038 9.33623974 19.18243828 -4.8125 15.1875 C-7.76639742 14.82799789 -10.71534231 14.68340133 -13.6875 14.5625 C-14.47125 14.52382812 -15.255 14.48515625 -16.0625 14.4453125 C-17.97881367 14.35183378 -19.89562319 14.26861505 -21.8125 14.1875 C-22.1425 14.8475 -22.4725 15.5075 -22.8125 16.1875 C-23.58851563 15.78917969 -24.36453125 15.39085937 -25.1640625 14.98046875 C-33.37511907 10.95332764 -40.7780799 8.73161378 -49.8125 7.1875 C-47.94577871 1.89247325 -45.49089242 -0.78632795 -40.8125 -3.8125 C-27.78584428 -9.93731357 -11.89220349 -7.60856244 0 0 Z " fill="#579272" transform="translate(206.8125,156.8125)"/>
<path d="M0 0 C8.5620557 8.96069392 15.97157984 20.77930244 20 32.5 C19.505 33.49 19.505 33.49 19 34.5 C18.25556641 33.43072266 18.25556641 33.43072266 17.49609375 32.33984375 C9.07422748 20.46613096 -0.278385 10.39712535 -15.015625 6.92578125 C-24.71311851 5.48012983 -24.71311851 5.48012983 -34 7.5 C-36.07421875 6.64453125 -36.07421875 6.64453125 -38.6875 5.3125 C-45.55611738 2.0425997 -52.6388878 0.2781904 -60 -1.5 C-57.81423113 -7.63657175 -54.25080757 -10.33291459 -48.625 -13.25 C-30.59870283 -19.46596454 -13.39455306 -12.34768418 0 0 Z " fill="#579272" transform="translate(203,239.5)"/>
<path d="M0 0 C14.78495133 10.05624483 25.63996309 25.80508765 32.171875 42.33984375 C31.676875 43.32984375 31.676875 43.32984375 31.171875 44.33984375 C30.55441406 43.49421875 29.93695313 42.64859375 29.30078125 41.77734375 C20.03095309 29.2717512 9.29792137 18.12019657 -6.828125 15.33984375 C-15.04493575 14.58217719 -15.04493575 14.58217719 -22.828125 16.33984375 C-24.60638959 15.65956803 -26.35186154 14.89297167 -28.078125 14.08984375 C-34.87377847 11.12911608 -41.54594983 9.66485491 -48.828125 8.33984375 C-47.85273803 3.29141231 -44.6709676 0.99840209 -40.953125 -2.34765625 C-29.28011909 -9.55745402 -11.16266833 -6.55267133 0 0 Z " fill="#579271" transform="translate(177.828125,311.66015625)"/>
<path d="M0 0 C7.78423395 6.55887436 14.09135322 13.86932205 19.4140625 22.5390625 C20.83056348 24.95240187 20.83056348 24.95240187 22.49169922 26.40917969 C24.17452885 28.18407737 24.85438742 29.63621921 25.71875 31.9140625 C26.01136719 32.67589844 26.30398438 33.43773437 26.60546875 34.22265625 C26.90066406 35.01542969 27.19585937 35.80820313 27.5 36.625 C27.94279297 37.77935547 27.94279297 37.77935547 28.39453125 38.95703125 C29.28441469 41.2973855 30.14652116 43.64614417 31 46 C31.30421875 46.82081055 31.6084375 47.64162109 31.921875 48.48730469 C32.20546875 49.28297852 32.4890625 50.07865234 32.78125 50.8984375 C33.03970703 51.61435059 33.29816406 52.33026367 33.56445312 53.06787109 C34 55 34 55 33 58 C32.41734375 57.22398437 31.8346875 56.44796875 31.234375 55.6484375 C12.20444436 30.48935563 -9.0654807 8.83015827 -36.83203125 -6.6875 C-37.54746094 -7.120625 -38.26289063 -7.55375 -39 -8 C-39 -8.33 -39 -8.66 -39 -9 C-24.76998425 -11.91897759 -11.68270928 -8.6028569 0 0 Z " fill="#6CB48E" transform="translate(237,113)"/>
<path d="M0 0 C19.63969951 -0.77780988 19.63969951 -0.77780988 29 4 C29.81339844 4.38929688 30.62679687 4.77859375 31.46484375 5.1796875 C43.58823472 11.65315693 55.22467454 24.10662125 60 37 C60.66 37 61.32 37 62 37 C63.29456387 40.20717178 64.58512709 43.41593903 65.875 46.625 C66.42220703 47.98044922 66.42220703 47.98044922 66.98046875 49.36328125 C72.49765625 63.10609375 72.49765625 63.10609375 71 67 C70.52691406 66.32195312 70.05382812 65.64390625 69.56640625 64.9453125 C65.39768198 59.07821909 61.02529033 53.6163069 56.14453125 48.328125 C54.25445395 46.27623781 52.43342036 44.18599121 50.625 42.0625 C36.43212581 25.84207236 19.31264552 11.69573632 0 2 C0 1.34 0 0.68 0 0 Z " fill="#6CB48E" transform="translate(141,410)"/>
<path d="M0 0 C0.99 0.495 0.99 0.495 2 1 C-1.9188492 9.82288395 -7.45754248 15.44068249 -16 20 C-35.74492689 27.55374927 -54.30184196 25.67126965 -74.1875 19.9375 C-83.31342169 17.40360047 -92.58380226 16.72652896 -102 16 C-97.7768717 13.18458113 -93.7963158 13.03134127 -88.8125 12.4375 C-87.17027466 12.23918579 -87.17027466 12.23918579 -85.49487305 12.03686523 C-77.36964815 11.17979218 -69.29344735 10.85350107 -61.125 10.7265625 C-60.07696701 10.71003128 -59.02893402 10.69350006 -57.94914246 10.6764679 C-52.65624783 10.60157949 -47.36494144 10.55940203 -42.0715332 10.55444336 C-19.44593207 10.48428588 -19.44593207 10.48428588 0 0 Z " fill="#6BB38D" transform="translate(382,233)"/>
<path d="M0 0 C1 3 1 3 0.06640625 5.05078125 C-6.83944769 15.43646809 -15.86027449 20.63225903 -27.91015625 23.75390625 C-43.39475924 26.73411921 -57.73927249 24.47929681 -72.78344727 20.45898438 C-82.4442197 17.89717061 -92.05097927 16.82187563 -102 16 C-97.89081127 13.26054085 -94.15945411 13.04307066 -89.3125 12.4375 C-88.26465332 12.30529053 -87.21680664 12.17308105 -86.13720703 12.03686523 C-78.14779832 11.16204423 -70.22286213 10.85164355 -62.19140625 10.7265625 C-61.14457169 10.71003128 -60.09773712 10.69350006 -59.0191803 10.6764679 C-53.71986743 10.60148226 -48.42214143 10.55939788 -43.12231445 10.55444336 C-27.34651239 10.46529044 -13.47309755 8.98206503 0 0 Z " fill="#6BB38D" transform="translate(400,167)"/>
<path d="M0 0 C2.13906219 2.13906219 2.72239004 3.61409707 3.875 6.375 C11.56015759 21.87935864 28.10430503 30.88197802 42.75 38.75 C56.20271976 45.98078228 67.99744196 55.62925563 80 65 C79.67 65.66 79.34 66.32 79 67 C78.32582031 66.59910156 77.65164062 66.19820313 76.95703125 65.78515625 C67.34453466 60.51917986 57.26668619 57.42247352 46.74731445 54.46118164 C29.41708108 49.41951071 14.14092342 40.25921968 4 25 C-0.08567104 17.42250545 -2.21725897 10.08629484 -0.5 1.5 C-0.335 1.005 -0.17 0.51 0 0 Z " fill="#6CB38E" transform="translate(127,322)"/>
<path d="M0 0 C0.33 0 0.66 0 1 0 C0.68123041 8.92554848 -3.38282463 13.72069468 -9.75 19.6875 C-21.32416964 29.2962446 -37.12849579 33.15831609 -51.9375 33.125 C-53.08089844 33.12757813 -54.22429687 33.13015625 -55.40234375 33.1328125 C-59 33 -59 33 -62.47265625 32.49609375 C-69.09895638 31.59989086 -75.82686954 31.89596924 -82.5 31.9375 C-83.90885258 31.94252467 -85.31770689 31.94708587 -86.7265625 31.95117188 C-90.15108638 31.9628997 -93.57552047 31.97931309 -97 32 C-94.71326088 29.71326088 -93.32843179 29.32469927 -90.2578125 28.4140625 C-89.28424805 28.12499023 -88.31068359 27.83591797 -87.30761719 27.53808594 C-86.25735352 27.23676758 -85.20708984 26.93544922 -84.125 26.625 C-83.04379883 26.31336914 -81.96259766 26.00173828 -80.84863281 25.68066406 C-68.45230625 22.18202388 -56.00904486 19.66003539 -43.25268555 17.91577148 C-27.84468579 15.79381701 -10.74008918 12.17210107 0 0 Z " fill="#6BB38E" transform="translate(349,367)"/>
<path d="M0 0 C2 2 2 2 3.5625 5.5 C10.88614374 20.41753264 26.11669252 28.89068738 39.94726562 36.82128906 C53.57617039 44.64721106 66.1788445 53.65020595 78 64 C77.01 64.495 77.01 64.495 76 65 C74.26103802 64.23262888 72.55953415 63.38044985 70.875 62.5 C64.43517681 59.39828316 57.94592065 57.45356135 51.0625 55.5625 C32.4204133 50.33297572 14.84148454 41.79629008 4 25 C0.9449227 19.30969521 -1.14702155 13.94486695 -1.125 7.4375 C-1.12757813 6.67308594 -1.13015625 5.90867188 -1.1328125 5.12109375 C-1 3 -1 3 0 0 Z " fill="#6CB48E" transform="translate(141,241)"/>
<path d="M0 0 C2.14577988 2.14577988 2.89375336 3.81156781 4.125 6.5625 C11.98494303 22.32755814 27.67951774 30.94208027 42.65625 38.94921875 C56.33799974 46.32437328 68.06824225 56.11368643 80 66 C76.2156931 66 73.5957369 64.51939299 70.25 62.9375 C63.44527694 59.81767376 56.56272999 57.5688213 49.375 55.5 C31.28165272 50.1996754 14.53517766 41.78015077 4.27734375 25.21875 C-0.24296327 16.92617731 -2.1472553 9.30477297 0 0 Z " fill="#6CB48E" transform="translate(155,166)"/>
<path d="M0 0 C2.20264498 2.0989911 3.9870399 4.27393244 5.75 6.75 C16.01477439 20.43636585 30.59104464 27.18031713 45.93505859 33.83984375 C55.77943883 38.11551152 64.88904082 43.19033263 74 48.875 C75.06984131 49.54208984 76.13968262 50.20917969 77.24194336 50.89648438 C84.86666794 55.73333587 84.86666794 55.73333587 86 58 C85.44054687 57.82984375 84.88109375 57.6596875 84.3046875 57.484375 C82.56253153 56.95780696 80.81885774 56.43625063 79.07421875 55.91796875 C77.03140994 55.30798137 74.99224692 54.68564314 72.95703125 54.05078125 C66.76177802 52.17814198 60.71228584 50.7307085 54.33691406 49.65136719 C34.66979957 46.28734868 17.21575781 38.6016564 5 22 C1.54900254 16.32547356 -0.15030693 11.42332641 -0.0625 4.75 C-0.05347656 3.85796875 -0.04445312 2.9659375 -0.03515625 2.046875 C-0.02355469 1.37140625 -0.01195312 0.6959375 0 0 Z " fill="#6CB48E" transform="translate(168,102)"/>
<path d="M0 0 C0.66 0 1.32 0 2 0 C0.84711542 8.89368103 -4.40388113 14.43876882 -11.359375 19.828125 C-29.71825932 31.70740309 -51.62840386 30.2463347 -72.13061523 26.50219727 C-80.75692573 24.94989238 -89.24721029 24.23784755 -98 24 C-83.48713719 16.13385415 -63.37991306 16.2096448 -47.14208984 15.07641602 C-31.52040541 13.95134551 -14.5043762 12.18955223 -2 2 C-1.34 2 -0.68 2 0 2 C0 1.34 0 0.68 0 0 Z " fill="#6BB38E" transform="translate(341,453)"/>
<path d="M0 0 C0.99 0.495 0.99 0.495 2 1 C-2.10511429 10.24224056 -8.21516761 16.704542 -17.6875 20.625 C-18.64011719 21.02976562 -19.59273438 21.43453125 -20.57421875 21.8515625 C-38.4700488 27.85084874 -55.61150915 25.32003595 -73.49414062 20.64648438 C-82.65481027 18.25483063 -91.56394025 16.66912725 -101 16 C-96.13528582 13.27457937 -91.09361397 12.99934736 -85.625 12.375 C-83.87823975 12.17390625 -83.87823975 12.17390625 -82.09619141 11.96875 C-69.9486563 10.73463473 -57.83572749 10.81726403 -45.63916016 11.11083984 C-30.51530439 11.40397327 -11.68117669 10.90243158 0 0 Z " fill="#6BB38E" transform="translate(367,303)"/>
<path d="M0 0 C0.66 0 1.32 0 2 0 C2.35191406 0.78503906 2.70382813 1.57007813 3.06640625 2.37890625 C9.96835918 17.06582958 20.47906943 24.36159967 35.625 29.8984375 C38.99707695 30.99904595 42.38118378 31.91567872 45.8125 32.8125 C58.50912401 36.35344736 69.27288226 42.6006974 79.42578125 50.8984375 C82.00466465 53.07280516 82.00466465 53.07280516 85 55 C84.505 55.99 84.505 55.99 84 57 C82.43378906 56.41992188 82.43378906 56.41992188 80.8359375 55.828125 C72.18982804 52.73417895 63.75700331 50.42266533 54.6875 48.9375 C46.22866688 47.52999908 38.79308217 45.70171403 31 42 C30.05125 41.55914062 29.1025 41.11828125 28.125 40.6640625 C16.92890855 35.03491652 5.574592 25.53224533 1.0625 13.5 C-0.25622001 8.94076681 -0.22475446 4.71984357 0 0 Z " fill="#6CB48E" transform="translate(110,409)"/>
<path d="M0 0 C0.83988427 2.36217452 1.17347191 3.55367122 0.25 5.9296875 C-6.31637831 16.14861375 -15.26186575 21.63767696 -26.9375 24.8125 C-36.96952332 26.90201018 -48.25261705 27.20083261 -58.3125 25.0625 C-62.08268088 24.2919191 -65.71137833 23.82013937 -69.5546875 23.64453125 C-71.06228638 23.57383423 -71.06228638 23.57383423 -72.6003418 23.50170898 C-77.06640993 23.31840417 -81.5325284 23.14542782 -86 23 C-81.88799255 20.2586617 -77.72160965 19.57179893 -72.9375 18.5 C-71.95249512 18.27787842 -70.96749023 18.05575684 -69.95263672 17.8269043 C-61.70460904 16.03133834 -53.51437247 14.95854888 -45.1171875 14.19726562 C-20.79908369 11.94426149 -20.79908369 11.94426149 0 0 Z " fill="#6BB38D" transform="translate(398,90)"/>
<path d="M0 0 C0.33 0 0.66 0 1 0 C1.09796875 0.82242187 1.1959375 1.64484375 1.296875 2.4921875 C3.52868761 19.153823 11.01210409 30.33378707 21.65234375 43.109375 C28.35875107 51.36684824 34.23328686 60.12262011 39.6875 69.25 C40.13407959 69.98943848 40.58065918 70.72887695 41.04077148 71.49072266 C42.09324876 73.29009892 43.05588655 75.14147554 44 77 C43.67 77.66 43.34 78.32 43 79 C42.42894531 78.32195312 41.85789062 77.64390625 41.26953125 76.9453125 C35.68514464 70.53525346 29.86304009 65.33473593 23.046875 60.2734375 C19.16281873 57.37533398 15.50669753 54.34305165 12 51 C11.12988281 50.18595703 11.12988281 50.18595703 10.2421875 49.35546875 C1.45944516 40.3167272 -4.15815354 27.63908043 -4.25 15.125 C-4.270625 14.43019531 -4.29125 13.73539063 -4.3125 13.01953125 C-4.34847024 8.24448191 -3.46613194 5.07285427 -1 1 C-0.67 0.67 -0.34 0.34 0 0 Z " fill="#6CB48E" transform="translate(243,23)"/>
<path d="M0 0 C11.38942668 6.28179719 18.53201275 15.76300384 22.2734375 28.25390625 C21.9434375 28.91390625 21.6134375 29.57390625 21.2734375 30.25390625 C20.83515625 29.80660156 20.396875 29.35929687 19.9453125 28.8984375 C14.01879462 23.24897228 6.77201159 18.29731605 -1.6953125 18.23046875 C-3.10296875 18.33488281 -3.10296875 18.33488281 -4.5390625 18.44140625 C-9.18812723 18.68749408 -9.18812723 18.68749408 -11.65234375 16.703125 C-12.79449285 15.30891541 -13.89879872 13.88291595 -14.96484375 12.4296875 C-18.2908328 8.3219804 -23.03123487 5.60157007 -27.7265625 3.25390625 C-26.73583161 0.5519129 -26.14250408 -0.53590263 -23.53125 -1.85546875 C-15.74366509 -4.32840658 -7.33587266 -3.40678876 0 0 Z " fill="#579271" transform="translate(273.7265625,18.74609375)"/>
<path d="M0 0 C5.14860129 6.7155669 4.73007886 13.79009414 4 22 C0.96199 36.00956611 -7.09695568 44.77206048 -18.3125 52.8125 C-26.58760152 58.76058395 -33.91066318 65.69939155 -41 73 C-41.33 72.34 -41.66 71.68 -42 71 C-40.78945763 68.59412308 -39.53115123 66.35136112 -38.125 64.0625 C-37.7129834 63.38590332 -37.3009668 62.70930664 -36.87646484 62.01220703 C-32.71698926 55.32252894 -27.85876922 49.38989591 -22.66259766 43.47851562 C-11.48268536 30.73506144 -1.58983119 17.4881431 0 0 Z " fill="#76C39E" transform="translate(352,25)"/>
<path d="M0 0 C0.66 0.33 1.32 0.66 2 1 C-0.97 3.97 -3.94 6.94 -7 10 C-7 7 -7 7 -4.625 4.4375 C-3.75875 3.633125 -2.8925 2.82875 -2 2 C-1.34 1.34 -0.68 0.68 0 0 Z " fill="#5C9977" transform="translate(137,309)"/>
<path d="M0 0 C2.86453858 3.41016497 4.34703566 6.90694544 6 11 C5.34 11 4.68 11 4 11 C3.1361871 9.54735962 2.28419546 8.0876837 1.4375 6.625 C0.72400391 5.40683594 0.72400391 5.40683594 -0.00390625 4.1640625 C-0.33261719 3.44992187 -0.66132813 2.73578125 -1 2 C-0.67 1.34 -0.34 0.68 0 0 Z " fill="#5AA073" transform="translate(197,436)"/>
</svg>
