<?xml version="1.0" encoding="UTF-8"?>
<svg version="1.1" xmlns="http://www.w3.org/2000/svg" width="512" height="512">
<path d="M0 0 C3.46033053 0.98866587 5.68462034 1.69895578 8.3203125 4.21484375 C12.69895447 7.19960217 17.45673606 5.54294534 22.34765625 4.62304688 C23.63542969 4.35556641 24.92320312 4.08808594 26.25 3.8125 C63.35360242 -3.4240182 107.87395828 -3.65637048 143.1640625 11.5546875 C152.45166981 16.11960905 152.45166981 16.11960905 162.35498047 16.32128906 C166.63721896 14.07247337 170.06680659 11.04410368 173.30688477 7.47729492 C175.62899964 5.45117854 178.22173597 4.29942101 181 3 C182.53244568 6.73433218 184.06230042 10.46971441 185.58984375 14.20605469 C186.10900286 15.47489505 186.6288482 16.74345488 187.14941406 18.01171875 C187.90092874 19.8429959 188.64970775 21.67539495 189.3984375 23.5078125 C190.07398682 25.15740967 190.07398682 25.15740967 190.76318359 26.84033203 C192 30 192 30 192.9831543 33.25219727 C194.41250287 37.11469864 197.10939922 38.66796884 200.4375 40.8125 C201.71684899 41.68195253 202.99417184 42.55439331 204.26953125 43.4296875 C205.22013428 44.07695801 205.22013428 44.07695801 206.18994141 44.73730469 C215.11700541 50.96481683 223.08760575 58.55438009 231 66 C231.65871094 66.61617188 232.31742187 67.23234375 232.99609375 67.8671875 C238.14631516 72.83899477 242.55208317 78.4035257 247 84 C247.78375 84.95519531 248.5675 85.91039063 249.375 86.89453125 C262.91121538 103.79310783 273.14679611 123.17288594 281.25 143.1875 C281.59353516 144.03586426 281.93707031 144.88422852 282.29101562 145.75830078 C283.74865566 149.45487017 285.09586662 153.06829115 285.96875 156.94921875 C287.36824557 163.48582209 287.36824557 163.48582209 291.90625 168.12109375 C294.89815306 169.63452135 297.83214164 170.90918085 301 172 C300.47148437 172.86238281 299.94296875 173.72476563 299.3984375 174.61328125 C295.26641595 181.92497946 293.41826486 187.45339498 294.765625 195.82421875 C294.9870379 197.50197363 295.20151995 199.18065527 295.40966797 200.86010742 C295.56819244 202.13801651 295.56819244 202.13801651 295.72991943 203.44174194 C296.50246555 210.75945585 296.39106724 218.14968295 296.375 225.5 C296.37512085 226.36174835 296.3752417 227.2234967 296.37536621 228.11135864 C296.34272523 244.58195951 296.01057465 262.01551792 290.421875 277.68359375 C288.17575929 284.1179553 286.96946607 288.50366707 290.03515625 294.890625 C292.5502767 299.45481623 295.40166503 303.79052099 298.24560547 308.15429688 C301.25707819 313.03903471 303.68414061 318.18781064 306.125 323.375 C306.58527588 324.33164551 307.04555176 325.28829102 307.51977539 326.27392578 C309.81418581 331.12462039 311.7215427 335.78561796 313 341 C305.6041401 343.75290341 298.10872577 345.27795589 290.36328125 346.67993164 C288.26697777 347.05942651 286.17247637 347.44778081 284.078125 347.83789062 C282.70318006 348.09144461 281.32818043 348.34470218 279.953125 348.59765625 C279.28142273 348.7225795 278.60972046 348.84750275 277.91766357 348.97621155 C274.70065893 349.56216352 271.50339377 350.05798056 268.25488281 350.43725586 C261.63252181 351.0943971 261.63252181 351.0943971 256.078125 354.43359375 C255.47484375 355.42488281 254.8715625 356.41617187 254.25 357.4375 C253.54101562 358.51902344 252.83203125 359.60054688 252.1015625 360.71484375 C251.40804688 361.79894531 250.71453125 362.88304687 250 364 C243.79483178 372.07567922 236.9729988 379.58985602 230 387 C229.38382812 387.65871094 228.76765625 388.31742187 228.1328125 388.99609375 C223.16100523 394.14631516 217.5964743 398.55208317 212 403 C211.04480469 403.78375 210.08960938 404.5675 209.10546875 405.375 C202.69312073 410.51146362 196.04512895 414.95779139 189 419.1875 C187.70570068 419.97036377 187.70570068 419.97036377 186.38525391 420.76904297 C182.73581543 422.93956055 179.17297906 425.02456496 175.21484375 426.578125 C165.22860199 430.72021336 162.38697638 437.70857298 157.96875 447.00390625 C154.81254497 453.58844063 151.02919688 459.71225132 147.125 465.875 C146.49416504 466.87845459 145.86333008 467.88190918 145.21337891 468.91577148 C141.95414622 474.05934315 138.59860326 479.08783813 135 484 C131.48157214 483.41884626 129.83744782 482.20392497 127.35546875 479.68359375 C126.67806641 479.00103516 126.00066406 478.31847656 125.30273438 477.61523438 C124.60470703 476.89658203 123.90667969 476.17792969 123.1875 475.4375 C122.50107422 474.74591797 121.81464844 474.05433594 121.10742188 473.34179688 C116.55025219 468.71564449 112.23881028 463.91709856 108 459 C106.35965542 457.14465773 104.71356423 455.29460213 103.06640625 453.4453125 C102 452 102 452 102 450 C101.35490479 450.14002441 100.70980957 450.28004883 100.04516602 450.42431641 C90.34051719 452.30231415 80.7830767 452.39783581 70.9375 452.375 C70.05627472 452.37445618 69.17504944 452.37391235 68.26712036 452.37335205 C43.12578368 452.30227109 17.8054408 449.07634812 -5.71875 439.75 C-15.4794558 436.19325601 -23.77596884 441.04481107 -32.93164062 444.67382812 C-39.23721357 447.11868341 -45.31372082 448.94671383 -52 450 C-52.08451416 448.96593018 -52.16902832 447.93186035 -52.25610352 446.86645508 C-52.57956675 443.01461625 -52.94565288 439.16780188 -53.32446289 435.32104492 C-53.48220442 433.65869186 -53.62851026 431.995211 -53.76293945 430.33081055 C-53.95876028 427.9314675 -54.1960209 425.53925105 -54.44140625 423.14453125 C-54.49277237 422.4047554 -54.54413849 421.66497955 -54.59706116 420.90278625 C-54.93837002 417.89810601 -55.41895111 415.59938756 -57.557724 413.39311218 C-60.42419736 411.25848735 -62.26603369 410.06890296 -65.87109375 409.73046875 C-67.14146484 409.95669922 -67.14146484 409.95669922 -68.4375 410.1875 C-69.73494141 410.39439453 -69.73494141 410.39439453 -71.05859375 410.60546875 C-71.69925781 410.73566406 -72.33992188 410.86585938 -73 411 C-72.773125 409.700625 -72.54625 408.40125 -72.3125 407.0625 C-72.32828599 403.67377383 -72.62426556 402.40498323 -74.95703125 399.890625 C-76.83709789 398.42620999 -78.73915122 396.98980844 -80.65625 395.57421875 C-90.78320707 388.03626648 -99.30721076 377.90887714 -107 368 C-107.77472656 367.05382812 -108.54945312 366.10765625 -109.34765625 365.1328125 C-131.95984369 336.96612577 -148.06992095 300.92207682 -153.1640625 265.15234375 C-154.66388362 259.49647625 -158.7112602 257.37783886 -163.5 254.4375 C-170.53556439 250.09825768 -170.53556439 250.09825768 -173 248 C-173 247.34 -173 246.68 -173 246 C-170.57350969 244.19931985 -168.15260703 242.52163451 -165.625 240.875 C-164.92632812 240.40707031 -164.22765625 239.93914062 -163.5078125 239.45703125 C-158.26683218 236 -158.26683218 236 -156 236 C-156.02094727 235.23260498 -156.04189453 234.46520996 -156.06347656 233.67456055 C-157.01244274 193.23238508 -149.31723972 154.80668771 -130 119 C-129.6376123 118.32066406 -129.27522461 117.64132813 -128.90185547 116.94140625 C-124.59398213 108.90552963 -120.1925481 101.45313239 -114.3359375 94.4296875 C-112.5548763 91.19044755 -113.07723509 89.51396333 -114 86 C-114.33 84.68 -114.66 83.36 -115 82 C-111.37 82 -107.74 82 -104 82 C-103.01 80.02 -103.01 80.02 -102 78 C-100.14071431 75.84164863 -98.26687059 73.75539631 -96.3125 71.6875 C-95.76795166 71.10645508 -95.22340332 70.52541016 -94.66235352 69.92675781 C-93.11352199 68.27940833 -91.55760339 66.63905019 -90 65 C-89.35289063 64.31035156 -88.70578125 63.62070313 -88.0390625 62.91015625 C-83.10102653 57.79146043 -77.56013272 53.41903359 -72 49 C-71.04480469 48.21625 -70.08960937 47.4325 -69.10546875 46.625 C-54.20634305 34.69039867 -24.16047828 12 -4 12 C-3.8453125 10.700625 -3.8453125 10.700625 -3.6875 9.375 C-2.96601586 5.83316877 -1.72876739 3.15687958 0 0 Z " fill="#ABB634" transform="translate(186,14)"/>
<path d="M0 0 C3.46033053 0.98866587 5.68462034 1.69895578 8.3203125 4.21484375 C12.69895447 7.19960217 17.45673606 5.54294534 22.34765625 4.62304688 C23.63542969 4.35556641 24.92320312 4.08808594 26.25 3.8125 C63.35360242 -3.4240182 107.87395828 -3.65637048 143.1640625 11.5546875 C152.45166981 16.11960905 152.45166981 16.11960905 162.35498047 16.32128906 C166.63721896 14.07247337 170.06680659 11.04410368 173.30688477 7.47729492 C175.62899964 5.45117854 178.22173597 4.29942101 181 3 C182.53244568 6.73433218 184.06230042 10.46971441 185.58984375 14.20605469 C186.10900286 15.47489505 186.6288482 16.74345488 187.14941406 18.01171875 C187.90092874 19.8429959 188.64970775 21.67539495 189.3984375 23.5078125 C190.07398682 25.15740967 190.07398682 25.15740967 190.76318359 26.84033203 C192 30 192 30 192.9831543 33.25219727 C194.41250287 37.11469864 197.10939922 38.66796884 200.4375 40.8125 C201.71684899 41.68195253 202.99417184 42.55439331 204.26953125 43.4296875 C205.22013428 44.07695801 205.22013428 44.07695801 206.18994141 44.73730469 C215.11700541 50.96481683 223.08760575 58.55438009 231 66 C231.65871094 66.61617188 232.31742187 67.23234375 232.99609375 67.8671875 C238.14631516 72.83899477 242.55208317 78.4035257 247 84 C247.78375 84.95519531 248.5675 85.91039063 249.375 86.89453125 C266.04769397 107.70867965 282.91595077 136.45414479 288 163 C287.57543945 165.29052734 287.57543945 165.29052734 287 167 C259.10084136 158.90713467 259.10084136 158.90713467 254.83203125 152.08203125 C253.28830936 148.59169867 252.42145371 144.94370348 251.59765625 141.22607422 C250.55642526 137.34782905 248.66913921 133.94489235 246.75 130.4375 C246.37456055 129.73850586 245.99912109 129.03951172 245.61230469 128.31933594 C235.01634309 109.01094088 220.49894986 92.49894986 205 77 C205 85.25 205 93.5 205 102 C204.34 102.33 203.68 102.66 203 103 C202.75765625 101.92363281 202.5153125 100.84726563 202.265625 99.73828125 C200.38846921 91.52053132 198.3441933 83.46157864 195.734375 75.44140625 C195 73 195 73 195 71 C154.57899423 74.95048302 154.57899423 74.95048302 120.96484375 95.390625 C117.40047301 100.32474331 114.55385463 105.48367399 112 111 C108.66562301 108.05008996 107.2031244 105.58660533 105.8125 101.375 C104.57784207 97.61577932 104.57784207 97.61577932 103 94 C101.59991133 79.9073042 106.45421676 68.96361459 115 58 C121.39360922 50.37469724 128.36242072 43.38393622 136 37 C134.4426649 36.47442633 132.88515696 35.94936063 131.3269043 35.42651367 C129.96951866 34.97065189 128.61292316 34.51243138 127.25708008 34.05200195 C124.00525819 32.95769353 120.778886 31.9411827 117.4609375 31.05859375 C110.58348003 29.22843502 106.0431967 26.92861561 100.69921875 22.23828125 C97.42594224 19.52397236 93.96572433 17.26794462 90.375 15 C89.4315271 14.40312378 89.4315271 14.40312378 88.46899414 13.79418945 C86.98218144 12.85824695 85.49151264 11.92843438 84 11 C83.7525 11.825 83.505 12.65 83.25 13.5 C81.81295189 17.52373471 79.97645485 21.21979024 78 25 C76.95042114 25.029729 76.95042114 25.029729 75.87963867 25.06005859 C72.64860628 25.15647552 69.41812033 25.26567275 66.1875 25.375 C65.08728516 25.4059375 63.98707031 25.436875 62.85351562 25.46875 C55.73807308 25.72062407 48.96345589 26.5105188 42 28 C42.5880542 28.44472656 43.1761084 28.88945313 43.78198242 29.34765625 C49.81230922 33.92825675 55.46162167 38.83862635 61 44 C62.05380859 44.97259766 62.05380859 44.97259766 63.12890625 45.96484375 C68.51028896 51.11454266 72.77212692 56.88307724 77 63 C76.67 63.66 76.34 64.32 76 65 C75.43796875 64.51273437 74.8759375 64.02546875 74.296875 63.5234375 C60.21557735 51.64504224 44.73351018 41.53679248 29 32 C15.20387326 52.69419011 10.11403034 86.5381114 8 111 C4.20970992 112.17117205 0.41755098 113.33617215 -3.375 114.5 C-4.45523438 114.83386719 -5.53546875 115.16773438 -6.6484375 115.51171875 C-7.6796875 115.82753906 -8.7109375 116.14335937 -9.7734375 116.46875 C-10.72653809 116.76201172 -11.67963867 117.05527344 -12.66162109 117.35742188 C-15 118 -15 118 -17 118 C-17.17015625 118.7528125 -17.3403125 119.505625 -17.515625 120.28125 C-18.6489786 125.24871471 -19.78717801 130.20955577 -21.0546875 135.14453125 C-21.23225586 135.83804688 -21.40982422 136.5315625 -21.59277344 137.24609375 C-22.10212578 139.22368926 -22.61733239 141.19977415 -23.1328125 143.17578125 C-24.77213533 150.40504725 -25.15994238 157.30883467 -25.125 164.6875 C-25.12886719 165.51572266 -25.13273438 166.34394531 -25.13671875 167.19726562 C-25.13020965 171.26219926 -25.01755932 175.03474899 -24 179 C-24.5576001 179.06469482 -25.1152002 179.12938965 -25.68969727 179.19604492 C-52.89118303 182.45128179 -80.51836257 192.84548985 -103.1015625 208.6796875 C-110.75147929 214 -110.75147929 214 -114 214 C-84.08294624 254.69718751 -84.08294624 254.69718751 -42 280 C-37.77122567 280.43649024 -33.62001411 280.38410737 -29.375 280.25 C-28.27542969 280.23195313 -27.17585937 280.21390625 -26.04296875 280.1953125 C-23.36103297 280.14867014 -20.68100657 280.08324119 -18 280 C-17.98018066 280.63800537 -17.96036133 281.27601074 -17.93994141 281.93334961 C-17.51358955 295.05014684 -16.81953738 307.99825719 -15 321 C-7.14123979 324.66915626 0.7645963 327.72618831 9.0625 330.25 C10.3474939 330.64360718 10.3474939 330.64360718 11.65844727 331.04516602 C16.56192804 332.48173814 21.06506895 333.2565937 26.1875 333.5625 C30.29289837 334.07173739 31.62486669 334.60324686 34.5078125 337.65234375 C36.51983611 340.42190386 38.24982434 343.34058029 39.96484375 346.30029297 C41.54185529 348.88971617 43.40536639 351.21013483 45.3125 353.5625 C45.92738281 354.32691406 46.54226562 355.09132813 47.17578125 355.87890625 C48.94528543 358.06980737 48.94528543 358.06980737 51.23046875 359.77734375 C53.39329336 362.49400424 53.44486121 364.44312205 53.26171875 367.85888672 C52.83229447 371.37199392 52.02614317 374.67889338 51 378.0625 C50.77997314 378.79275391 50.55994629 379.52300781 50.33325195 380.27539062 C44.62664242 398.18667508 34.61085606 409.93385349 19 420 C26.7743571 422.36556383 34.36244717 423.77786587 42.4375 424.625 C43.58387939 424.74979736 44.73025879 424.87459473 45.91137695 425.00317383 C58.91288415 426.33036148 71.9392248 426.73053684 85 427 C84.45730469 425.96101563 83.91460937 424.92203125 83.35546875 423.8515625 C76.17973614 409.95609704 73.51008329 399.64104457 74 384 C79.62201779 388.14841353 85.0937569 392.44988991 90.5 396.875 C91.22703125 397.46796875 91.9540625 398.0609375 92.703125 398.671875 C94.46989678 400.11318882 96.23549858 401.55590841 98 403 C101.93105956 401.20298858 104.23299172 398.73697045 106.9375 395.4375 C107.41131104 394.86668701 107.88512207 394.29587402 108.37329102 393.70776367 C122.82227295 376.14864484 135.53531839 357.62892458 147 338 C160.01772071 343.96895489 166.43028338 354.56002089 171.6796875 367.3125 C175.00689235 376.60504845 176.41875654 386.17898987 177 396 C205.84731806 376.75087351 205.84731806 376.75087351 227 350 C228.81567383 349.40917969 228.81567383 349.40917969 231.20703125 348.921875 C232.09479248 348.73326904 232.98255371 348.54466309 233.8972168 348.3503418 C235.34028198 348.05317261 235.34028198 348.05317261 236.8125 347.75 C245.60073696 345.86252063 254.1704616 343.59167708 262.73950195 340.87988281 C263.520271 340.63463867 264.30104004 340.38939453 265.10546875 340.13671875 C265.78762451 339.91717529 266.46978027 339.69763184 267.17260742 339.47143555 C269 339 269 339 272 339 C263.28390863 312.26329777 251.7108452 284.16348409 233.70703125 262.203125 C232 260 232 260 232 258 C233.2375 257.566875 234.475 257.13375 235.75 256.6875 C238.33539442 255.74118225 239.94331604 255.04809548 242.0625 253.25 C244 252 244 252 247.25 252.0625 C255.46014288 254.11503572 260.87900569 258.28608287 267 264 C268.37208238 257.82846584 269.14547332 251.81736519 269.38671875 245.49609375 C269.43892578 244.17802734 269.49113281 242.85996094 269.54492188 241.50195312 C269.62117994 239.46603434 269.68761189 237.43175647 269.72729492 235.39477539 C269.91292775 226.85258851 270.65198215 221.08435749 276.0949707 214.37084961 C278.10361625 211.87104737 279.63932857 209.33230037 281.203125 206.53515625 C281.96109375 205.18260742 281.96109375 205.18260742 282.734375 203.80273438 C283.23453125 202.89845703 283.7346875 201.99417969 284.25 201.0625 C285.27145145 199.21750332 286.29731454 197.37494038 287.328125 195.53515625 C287.7705957 194.734729 288.21306641 193.93430176 288.66894531 193.10961914 C289.93861555 191.09728962 291.24877015 189.5982378 293 188 C293.31919939 189.31088682 293.62985947 190.62385248 293.9375 191.9375 C294.11152344 192.66839844 294.28554688 193.39929688 294.46484375 194.15234375 C295.74309283 200.9541217 296.16788089 207.76981992 296.23828125 214.6796875 C296.24798447 215.48201309 296.25768768 216.28433868 296.26768494 217.11097717 C296.29251751 219.69903644 296.30520644 222.28683357 296.3125 224.875 C296.31511841 225.76172394 296.31773682 226.64844788 296.32043457 227.56204224 C296.32568994 244.22738096 296.08098228 261.81812814 290.421875 277.68359375 C288.17575929 284.1179553 286.96946607 288.50366707 290.03515625 294.890625 C292.5502767 299.45481623 295.40166503 303.79052099 298.24560547 308.15429688 C301.25707819 313.03903471 303.68414061 318.18781064 306.125 323.375 C306.58527588 324.33164551 307.04555176 325.28829102 307.51977539 326.27392578 C309.81418581 331.12462039 311.7215427 335.78561796 313 341 C305.6041401 343.75290341 298.10872577 345.27795589 290.36328125 346.67993164 C288.26697777 347.05942651 286.17247637 347.44778081 284.078125 347.83789062 C282.70318006 348.09144461 281.32818043 348.34470218 279.953125 348.59765625 C279.28142273 348.7225795 278.60972046 348.84750275 277.91766357 348.97621155 C274.70065893 349.56216352 271.50339377 350.05798056 268.25488281 350.43725586 C261.63252181 351.0943971 261.63252181 351.0943971 256.078125 354.43359375 C255.47484375 355.42488281 254.8715625 356.41617187 254.25 357.4375 C253.54101562 358.51902344 252.83203125 359.60054688 252.1015625 360.71484375 C251.40804688 361.79894531 250.71453125 362.88304687 250 364 C243.79483178 372.07567922 236.9729988 379.58985602 230 387 C229.38382812 387.65871094 228.76765625 388.31742187 228.1328125 388.99609375 C223.16100523 394.14631516 217.5964743 398.55208317 212 403 C211.04480469 403.78375 210.08960938 404.5675 209.10546875 405.375 C202.69312073 410.51146362 196.04512895 414.95779139 189 419.1875 C187.70570068 419.97036377 187.70570068 419.97036377 186.38525391 420.76904297 C182.73581543 422.93956055 179.17297906 425.02456496 175.21484375 426.578125 C165.22860199 430.72021336 162.38697638 437.70857298 157.96875 447.00390625 C154.81254497 453.58844063 151.02919688 459.71225132 147.125 465.875 C146.49416504 466.87845459 145.86333008 467.88190918 145.21337891 468.91577148 C141.95414622 474.05934315 138.59860326 479.08783813 135 484 C131.48157214 483.41884626 129.83744782 482.20392497 127.35546875 479.68359375 C126.67806641 479.00103516 126.00066406 478.31847656 125.30273438 477.61523438 C124.60470703 476.89658203 123.90667969 476.17792969 123.1875 475.4375 C122.50107422 474.74591797 121.81464844 474.05433594 121.10742188 473.34179688 C116.55025219 468.71564449 112.23881028 463.91709856 108 459 C106.35965542 457.14465773 104.71356423 455.29460213 103.06640625 453.4453125 C102 452 102 452 102 450 C101.35490479 450.14002441 100.70980957 450.28004883 100.04516602 450.42431641 C90.34051719 452.30231415 80.7830767 452.39783581 70.9375 452.375 C70.05627472 452.37445618 69.17504944 452.37391235 68.26712036 452.37335205 C43.12578368 452.30227109 17.8054408 449.07634812 -5.71875 439.75 C-15.4794558 436.19325601 -23.77596884 441.04481107 -32.93164062 444.67382812 C-39.23721357 447.11868341 -45.31372082 448.94671383 -52 450 C-52.08451416 448.96593018 -52.16902832 447.93186035 -52.25610352 446.86645508 C-52.57956675 443.01461625 -52.94565288 439.16780188 -53.32446289 435.32104492 C-53.48220442 433.65869186 -53.62851026 431.995211 -53.76293945 430.33081055 C-53.95876028 427.9314675 -54.1960209 425.53925105 -54.44140625 423.14453125 C-54.49277237 422.4047554 -54.54413849 421.66497955 -54.59706116 420.90278625 C-54.93837002 417.89810601 -55.41895111 415.59938756 -57.557724 413.39311218 C-60.42419736 411.25848735 -62.26603369 410.06890296 -65.87109375 409.73046875 C-67.14146484 409.95669922 -67.14146484 409.95669922 -68.4375 410.1875 C-69.73494141 410.39439453 -69.73494141 410.39439453 -71.05859375 410.60546875 C-71.69925781 410.73566406 -72.33992188 410.86585938 -73 411 C-72.773125 409.700625 -72.54625 408.40125 -72.3125 407.0625 C-72.32828599 403.67377383 -72.62426556 402.40498323 -74.95703125 399.890625 C-76.83709789 398.42620999 -78.73915122 396.98980844 -80.65625 395.57421875 C-90.78320707 388.03626648 -99.30721076 377.90887714 -107 368 C-107.77472656 367.05382812 -108.54945312 366.10765625 -109.34765625 365.1328125 C-131.95984369 336.96612577 -148.06992095 300.92207682 -153.1640625 265.15234375 C-154.66388362 259.49647625 -158.7112602 257.37783886 -163.5 254.4375 C-170.53556439 250.09825768 -170.53556439 250.09825768 -173 248 C-173 247.34 -173 246.68 -173 246 C-170.57350969 244.19931985 -168.15260703 242.52163451 -165.625 240.875 C-164.92632812 240.40707031 -164.22765625 239.93914062 -163.5078125 239.45703125 C-158.26683218 236 -158.26683218 236 -156 236 C-156.02094727 235.23260498 -156.04189453 234.46520996 -156.06347656 233.67456055 C-157.01244274 193.23238508 -149.31723972 154.80668771 -130 119 C-129.6376123 118.32066406 -129.27522461 117.64132813 -128.90185547 116.94140625 C-124.59398213 108.90552963 -120.1925481 101.45313239 -114.3359375 94.4296875 C-112.5548763 91.19044755 -113.07723509 89.51396333 -114 86 C-114.33 84.68 -114.66 83.36 -115 82 C-111.37 82 -107.74 82 -104 82 C-103.01 80.02 -103.01 80.02 -102 78 C-100.14071431 75.84164863 -98.26687059 73.75539631 -96.3125 71.6875 C-95.76795166 71.10645508 -95.22340332 70.52541016 -94.66235352 69.92675781 C-93.11352199 68.27940833 -91.55760339 66.63905019 -90 65 C-89.35289063 64.31035156 -88.70578125 63.62070313 -88.0390625 62.91015625 C-83.10102653 57.79146043 -77.56013272 53.41903359 -72 49 C-71.04480469 48.21625 -70.08960937 47.4325 -69.10546875 46.625 C-54.20634305 34.69039867 -24.16047828 12 -4 12 C-3.8453125 10.700625 -3.8453125 10.700625 -3.6875 9.375 C-2.96601586 5.83316877 -1.72876739 3.15687958 0 0 Z " fill="#9B9B1B" transform="translate(186,14)"/>
<path d="M0 0 C3.46033053 0.98866587 5.68462034 1.69895578 8.3203125 4.21484375 C12.69895447 7.19960217 17.45673606 5.54294534 22.34765625 4.62304688 C23.63542969 4.35556641 24.92320312 4.08808594 26.25 3.8125 C63.35360242 -3.4240182 107.87395828 -3.65637048 143.1640625 11.5546875 C152.45166981 16.11960905 152.45166981 16.11960905 162.35498047 16.32128906 C166.63721896 14.07247337 170.06680659 11.04410368 173.30688477 7.47729492 C175.62899964 5.45117854 178.22173597 4.29942101 181 3 C182.53244568 6.73433218 184.06230042 10.46971441 185.58984375 14.20605469 C186.10900286 15.47489505 186.6288482 16.74345488 187.14941406 18.01171875 C187.90092874 19.8429959 188.64970775 21.67539495 189.3984375 23.5078125 C190.07398682 25.15740967 190.07398682 25.15740967 190.76318359 26.84033203 C192 30 192 30 192.9831543 33.25219727 C194.41250287 37.11469864 197.10939922 38.66796884 200.4375 40.8125 C201.71684899 41.68195253 202.99417184 42.55439331 204.26953125 43.4296875 C205.22013428 44.07695801 205.22013428 44.07695801 206.18994141 44.73730469 C215.11700541 50.96481683 223.08760575 58.55438009 231 66 C231.65871094 66.61617188 232.31742187 67.23234375 232.99609375 67.8671875 C238.14631516 72.83899477 242.55208317 78.4035257 247 84 C247.78375 84.95519531 248.5675 85.91039063 249.375 86.89453125 C266.04769397 107.70867965 282.91595077 136.45414479 288 163 C287.57543945 165.29052734 287.57543945 165.29052734 287 167 C259.10084136 158.90713467 259.10084136 158.90713467 254.83203125 152.08203125 C253.28830936 148.59169867 252.42145371 144.94370348 251.59765625 141.22607422 C250.55642526 137.34782905 248.66913921 133.94489235 246.75 130.4375 C246.37456055 129.73850586 245.99912109 129.03951172 245.61230469 128.31933594 C235.01634309 109.01094088 220.49894986 92.49894986 205 77 C205 85.25 205 93.5 205 102 C204.34 102.33 203.68 102.66 203 103 C202.75765625 101.92363281 202.5153125 100.84726563 202.265625 99.73828125 C200.38846921 91.52053132 198.3441933 83.46157864 195.734375 75.44140625 C195 73 195 73 195 71 C154.57899423 74.95048302 154.57899423 74.95048302 120.96484375 95.390625 C117.40047301 100.32474331 114.55385463 105.48367399 112 111 C108.66562301 108.05008996 107.2031244 105.58660533 105.8125 101.375 C104.57784207 97.61577932 104.57784207 97.61577932 103 94 C101.59991133 79.9073042 106.45421676 68.96361459 115 58 C121.39360922 50.37469724 128.36242072 43.38393622 136 37 C134.4426649 36.47442633 132.88515696 35.94936063 131.3269043 35.42651367 C129.96951866 34.97065189 128.61292316 34.51243138 127.25708008 34.05200195 C124.00525819 32.95769353 120.778886 31.9411827 117.4609375 31.05859375 C110.58348003 29.22843502 106.0431967 26.92861561 100.69921875 22.23828125 C97.42594224 19.52397236 93.96572433 17.26794462 90.375 15 C89.74601807 14.60208252 89.11703613 14.20416504 88.46899414 13.79418945 C86.98218144 12.85824695 85.49151264 11.92843438 84 11 C83.7525 11.825 83.505 12.65 83.25 13.5 C81.81295189 17.52373471 79.97645485 21.21979024 78 25 C76.95042114 25.029729 76.95042114 25.029729 75.87963867 25.06005859 C72.64860628 25.15647552 69.41812033 25.26567275 66.1875 25.375 C65.08728516 25.4059375 63.98707031 25.436875 62.85351562 25.46875 C55.73807308 25.72062407 48.96345589 26.5105188 42 28 C42.5880542 28.44472656 43.1761084 28.88945313 43.78198242 29.34765625 C49.81230922 33.92825675 55.46162167 38.83862635 61 44 C62.05380859 44.97259766 62.05380859 44.97259766 63.12890625 45.96484375 C68.51028896 51.11454266 72.77212692 56.88307724 77 63 C76.67 63.66 76.34 64.32 76 65 C75.43796875 64.51273437 74.8759375 64.02546875 74.296875 63.5234375 C60.21557735 51.64504224 44.73351018 41.53679248 29 32 C15.20387326 52.69419011 10.11403034 86.5381114 8 111 C4.20970992 112.17117205 0.41755098 113.33617215 -3.375 114.5 C-4.45523438 114.83386719 -5.53546875 115.16773438 -6.6484375 115.51171875 C-7.6796875 115.82753906 -8.7109375 116.14335937 -9.7734375 116.46875 C-10.72653809 116.76201172 -11.67963867 117.05527344 -12.66162109 117.35742188 C-15 118 -15 118 -17 118 C-17.17015625 118.7528125 -17.3403125 119.505625 -17.515625 120.28125 C-18.6489786 125.24871471 -19.78717801 130.20955577 -21.0546875 135.14453125 C-21.23225586 135.83804688 -21.40982422 136.5315625 -21.59277344 137.24609375 C-22.10212578 139.22368926 -22.61733239 141.19977415 -23.1328125 143.17578125 C-24.77213533 150.40504725 -25.15994238 157.30883467 -25.125 164.6875 C-25.12886719 165.51572266 -25.13273438 166.34394531 -25.13671875 167.19726562 C-25.13020965 171.26219926 -25.01755932 175.03474899 -24 179 C-24.5576001 179.06469482 -25.1152002 179.12938965 -25.68969727 179.19604492 C-49.29424799 182.02083194 -69.02661622 190.30698737 -90.07983398 201.06103516 C-94.09926373 203.09954968 -98.15879482 204.96712483 -102.30053711 206.74316406 C-119.73420562 214.22828225 -136.28208919 223.48324353 -152.02734375 234.05078125 C-155 236 -155 236 -156 236 C-157.1269875 194.71324655 -149.74794747 155.60505321 -130 119 C-129.6376123 118.32066406 -129.27522461 117.64132813 -128.90185547 116.94140625 C-124.59398213 108.90552963 -120.1925481 101.45313239 -114.3359375 94.4296875 C-112.5548763 91.19044755 -113.07723509 89.51396333 -114 86 C-114.33 84.68 -114.66 83.36 -115 82 C-111.37 82 -107.74 82 -104 82 C-103.34 80.68 -102.68 79.36 -102 78 C-100.14071431 75.84164863 -98.26687059 73.75539631 -96.3125 71.6875 C-95.76795166 71.10645508 -95.22340332 70.52541016 -94.66235352 69.92675781 C-93.11352199 68.27940833 -91.55760339 66.63905019 -90 65 C-89.35289063 64.31035156 -88.70578125 63.62070313 -88.0390625 62.91015625 C-83.10102653 57.79146043 -77.56013272 53.41903359 -72 49 C-71.04480469 48.21625 -70.08960937 47.4325 -69.10546875 46.625 C-54.20634305 34.69039867 -24.16047828 12 -4 12 C-3.8453125 10.700625 -3.8453125 10.700625 -3.6875 9.375 C-2.96601586 5.83316877 -1.72876739 3.15687958 0 0 Z " fill="#9B9B1B" transform="translate(186,14)"/>
<path d="M0 0 C3.67933132 1.47173253 5.98538747 2.50788884 9.06640625 4.71484375 C10.1656543 5.49698242 10.1656543 5.49698242 11.28710938 6.29492188 C12.03798828 6.83697266 12.78886719 7.37902344 13.5625 7.9375 C14.31724609 8.47568359 15.07199219 9.01386719 15.84960938 9.56835938 C21.66693289 13.72505486 21.66693289 13.72505486 23.89990234 15.56835938 C26.39148757 17.26687783 28.62973198 17.95693307 31.53515625 18.75390625 C32.59154297 19.05103516 33.64792969 19.34816406 34.73632812 19.65429688 C35.83396484 19.95400391 36.93160156 20.25371094 38.0625 20.5625 C40.24219852 21.1632244 42.42065099 21.76849366 44.59765625 22.37890625 C45.56195557 22.6426001 46.52625488 22.90629395 47.51977539 23.17797852 C50 24 50 24 53 26 C52.16597656 26.75023438 51.33195313 27.50046875 50.47265625 28.2734375 C36.54762555 40.89312628 22.01689415 54.44899233 19.62109375 74.109375 C19.34772224 81.05830234 20.76834013 85.93050261 24 92 C24.59675096 93.34830762 25.18135315 94.70210083 25.75 96.0625 C26.36875 97.5165625 26.36875 97.5165625 27 99 C28.29164445 97.06253332 29.52977896 95.08780588 30.69921875 93.07421875 C40.13167653 77.00753723 53.30267119 70.73559176 71 66 C71.88171875 65.73574219 72.7634375 65.47148438 73.671875 65.19921875 C85.43960067 61.88316889 98.75134344 59.80670839 111 60 C114.59153494 70.24470623 117.47707403 80.44108761 120 91 C120 82.42 120 73.84 120 65 C141.34284893 83.29387051 157.46850555 105.89176971 169.5625 131.1875 C169.89717285 131.88206299 170.2318457 132.57662598 170.57666016 133.29223633 C172.38025092 137.18387042 173.51589583 140.73590439 174 145 C173.34257812 144.82984375 172.68515625 144.6596875 172.0078125 144.484375 C165.5690186 142.84414024 159.10961732 141.32133372 152.625 139.875 C151.48442139 139.61928223 151.48442139 139.61928223 150.32080078 139.35839844 C134.78583049 135.91985496 118.48049763 134.29637526 104 142 C102.93007813 142.56589844 101.86015625 143.13179687 100.7578125 143.71484375 C95.40454275 146.70560692 90.52165608 149.85514859 86 154 C88.89675481 156.41396234 91.59787701 158.38617243 95 160 C95.05901588 164.39577504 95.09393248 168.79144562 95.125 173.1875 C95.14175781 174.41404297 95.15851563 175.64058594 95.17578125 176.90429688 C95.24583105 190.17873338 94.04082851 203.22522445 87.3125 214.9375 C80.75879113 220.7826998 73.53853753 221.58054054 65.0625 221.3125 C64.11826172 221.30283203 63.17402344 221.29316406 62.20117188 221.28320312 C55.34050009 221.17025005 55.34050009 221.17025005 53 220 C52.32983398 217.99047852 52.32983398 217.99047852 51.74609375 215.37890625 C51.42415039 213.97608398 51.42415039 213.97608398 51.09570312 212.54492188 C50.87849609 211.56072266 50.66128906 210.57652344 50.4375 209.5625 C50.0007636 207.62583509 49.56205659 205.68961321 49.12109375 203.75390625 C48.9295874 202.89095947 48.73808105 202.0280127 48.54077148 201.13891602 C48.0730937 198.96757416 48.0730937 198.96757416 47 197 C46.79230112 195.49075752 46.63283459 193.97469612 46.5 192.45703125 C46.4175 191.54759766 46.335 190.63816406 46.25 189.70117188 C46.1675 188.74791016 46.085 187.79464844 46 186.8125 C45.4730165 180.84688214 44.91700317 174.91958299 44 169 C43.29915283 168.89453857 42.59830566 168.78907715 41.8762207 168.68041992 C38.68648993 168.19397608 35.499594 167.69091806 32.3125 167.1875 C31.20970703 167.02185547 30.10691406 166.85621094 28.97070312 166.68554688 C27.3706543 166.4293457 27.3706543 166.4293457 25.73828125 166.16796875 C24.75899658 166.01610107 23.77971191 165.8642334 22.77075195 165.70776367 C19.74570314 164.93504215 17.64642705 163.62401183 15 162 C12.14188713 161.61753469 9.60871987 161.42939143 6.75 161.4375 C5.93732666 161.4377417 5.12465332 161.4379834 4.28735352 161.43823242 C-9.73631315 161.81186475 -23.65674058 166.19970512 -36.92700195 170.48632812 C-39.84518566 171.20943006 -42.10363531 170.69260895 -45 170 C-50.07053193 169.42752059 -52.84321484 169.48318428 -57.0625 172.4375 C-60.14731352 174.93045976 -62.12862862 177.58359385 -64.3125 180.875 C-66.26489033 183.48847058 -67.27380686 184.78600105 -70.42578125 185.71484375 C-81.5696996 186.11802459 -93.20221243 181.68186398 -102 175 C-106.91066953 170.38539994 -109.98553007 165.87073734 -110.30078125 158.98828125 C-110.32040898 157.4298062 -110.32340455 155.8710605 -110.3125 154.3125 C-110.30758545 153.4767041 -110.3026709 152.6409082 -110.29760742 151.77978516 C-110.07612397 139.70155432 -107.79133828 128.15605597 -104.5 116.5625 C-104.29866455 115.84626465 -104.0973291 115.1300293 -103.88989258 114.39208984 C-102.80493863 110.80342948 -101.92736707 108.3629903 -99 106 C-96.76342773 105.10864258 -96.76342773 105.10864258 -94.18359375 104.39453125 C-92.79043945 104.00297852 -92.79043945 104.00297852 -91.36914062 103.60351562 C-90.40169922 103.34248047 -89.43425781 103.08144531 -88.4375 102.8125 C-87.46619141 102.53986328 -86.49488281 102.26722656 -85.49414062 101.98632812 C-78.33041588 100 -78.33041588 100 -76 100 C-76.02827881 99.4325708 -76.05655762 98.8651416 -76.08569336 98.28051758 C-76.2883836 90.83443546 -75.10239798 83.95449531 -73.5625 76.6875 C-73.16913452 74.81106812 -73.16913452 74.81106812 -72.76782227 72.89672852 C-68.86600103 54.78925984 -63.39957894 36.98570359 -56 20 C-39.22193514 28.94459749 -23.88163118 40.21418261 -9 52 C-15.7196697 37.32370647 -30.26988397 26.33002145 -43 17 C-36.05005663 12.65628539 -25.89432386 13.71330398 -18 13.4375 C-16.84371094 13.39431641 -15.68742187 13.35113281 -14.49609375 13.30664062 C-11.6641763 13.20132138 -8.83210205 13.10023253 -6 13 C-4.02 8.71 -2.04 4.42 0 0 Z " fill="#AAB634" transform="translate(270,25)"/>
<path d="M0 0 C8.07226865 1.83858614 14.26781792 5.24159555 21 10 C22.5778125 11.11375 22.5778125 11.11375 24.1875 12.25 C29.7257655 17.66519293 36.71050054 25.20588886 37.1953125 33.234375 C37.17210937 34.39453125 37.14890625 35.5546875 37.125 36.75 C37.10695313 37.92046875 37.08890625 39.0909375 37.0703125 40.296875 C37.04710937 41.18890625 37.02390625 42.0809375 37 43 C45.49609609 46.22199581 54.56995139 47.8100162 63.375 44.875 C64.24125 44.25625 65.1075 43.6375 66 43 C67.0725 42.236875 68.145 41.47375 69.25 40.6875 C71.73195577 38.54844601 73.52043667 36.30226996 75.28125 33.56640625 C81.7309392 23.5558165 81.7309392 23.5558165 86.0859375 21.6484375 C88.78302344 21.18390085 91.26745982 20.92727079 94 21 C100.72189686 28.78421298 105.95774988 37.08528439 111 46 C111.36206543 46.63228516 111.72413086 47.26457031 112.09716797 47.91601562 C119.5729344 61.07336455 125.3410698 74.98427753 131 89 C131.32516602 89.79647949 131.65033203 90.59295898 131.98535156 91.41357422 C133.3533395 94.87674367 134 97.2182629 134 101 C129.93996302 102.27879118 125.87654351 103.546505 121.8125 104.8125 C120.68134766 105.16892578 119.55019531 105.52535156 118.38476562 105.89257812 C97.87492345 112.26173139 97.87492345 112.26173139 89 112 C88.67708984 113.04414063 88.67708984 113.04414063 88.34765625 114.109375 C86.64514136 117.76114606 84.19352016 120.37633964 81.4375 123.25 C80.62514893 124.10924072 80.62514893 124.10924072 79.79638672 124.98583984 C78.70466581 126.13629359 77.60934108 127.28333936 76.51025391 128.42675781 C75.22917711 129.76126458 73.96257337 131.10964139 72.69921875 132.4609375 C63.07749951 142.4994167 50.60609499 153.03919943 38 159 C37.89042969 157.90042969 37.78085937 156.80085937 37.66796875 155.66796875 C35.74425619 137.32302986 31.76856789 117.76049752 16.8125 105.5 C14.12236424 103.41731425 12.23708283 102.07902761 9 101 C8.72961914 101.48654053 8.45923828 101.97308105 8.18066406 102.47436523 C-0.6528735 118.27736402 -10.43802366 133.050733 -22 147 C-22.73992187 147.91265625 -23.47984375 148.8253125 -24.2421875 149.765625 C-28.71645372 155.27936721 -33.27587146 160.69864675 -38 166 C-41.24460895 164.52920916 -43.80554495 162.68575824 -46.5625 160.4375 C-47.42746094 159.73496094 -48.29242188 159.03242188 -49.18359375 158.30859375 C-50.11300781 157.54675781 -51.04242188 156.78492188 -52 156 C-53.02222656 155.16597656 -54.04445313 154.33195313 -55.09765625 153.47265625 C-57.73477064 151.31872927 -60.36872179 149.16104978 -63 147 C-63.8464371 161.31419178 -61.61500939 172.92960022 -53.91796875 185.36328125 C-53 187 -53 187 -53 189 C-67.25323888 189.31681085 -81.31704849 189.26961009 -95.5 187.6875 C-96.57677002 187.56979248 -97.65354004 187.45208496 -98.76293945 187.33081055 C-106.00955628 186.45108533 -112.96094029 184.92253139 -120 183 C-117.09367294 180.02205439 -114.20696567 177.69610552 -110.75 175.375 C-95.79608517 164.53738885 -89.0591787 147.19721034 -85.515625 129.59375 C-85.23672937 126.80479372 -85.45248278 124.69095623 -87.22265625 122.45703125 C-88.38756907 121.34168919 -89.57931833 120.25404997 -90.7890625 119.1875 C-93.67056639 116.33654209 -95.92245051 113.18356153 -98.25 109.875 C-98.67394043 109.27671387 -99.09788086 108.67842773 -99.53466797 108.06201172 C-101.34419178 105.47872088 -102.99605274 103.00834074 -104.34765625 100.15234375 C-105.89691225 97.68481812 -105.89691225 97.68481812 -109.16796875 97.13671875 C-110.50610074 96.97238377 -111.84622381 96.82381363 -113.1875 96.6875 C-120.95848194 95.61359466 -128.19347173 93.55558091 -135.625 91.0625 C-136.64360107 90.72629639 -137.66220215 90.39009277 -138.71166992 90.04370117 C-141.50281792 89.09023782 -144.25447791 88.07728356 -147 87 C-147.73573242 86.71495605 -148.47146484 86.42991211 -149.22949219 86.13623047 C-151.1484375 85.24609375 -151.1484375 85.24609375 -154 83 C-155.0341413 77.41958233 -155.17164818 71.87884415 -155.203125 66.21484375 C-155.20882507 65.39609268 -155.21452515 64.57734161 -155.22039795 63.73377991 C-155.2297892 62.0084866 -155.23635835 60.28317584 -155.24023438 58.55786133 C-155.24988417 55.96857886 -155.2809407 53.38011067 -155.3125 50.79101562 C-155.49359484 22.43685947 -155.49359484 22.43685947 -147 12 C-142.44302331 7.72956749 -137.43510571 4 -131 4 C-129.40351408 6.18246202 -128.00345231 8.31050407 -126.625 10.625 C-120.43982409 20.91416232 -120.43982409 20.91416232 -111 28 C-109.21125873 28.13197934 -107.41812922 28.20875075 -105.625 28.25 C-99.06636463 28.55295819 -94.34239364 30.93219185 -88.69580078 34.03027344 C-81.70043146 37.86262674 -75.37507711 39.34777812 -67.4375 39.3125 C-66.34405273 39.33666992 -66.34405273 39.33666992 -65.22851562 39.36132812 C-60.32932175 39.36573784 -57.36335092 38.38054132 -53 36 C-50.6586813 35.36706619 -48.30282275 34.78630847 -45.9375 34.25 C-33.27253705 31.08336928 -22.94141913 23.96393285 -12.63378906 16.21679688 C-11.08389158 15.06247992 -9.50738011 13.94415183 -7.9296875 12.828125 C-3.22729072 9.58392762 -3.22729072 9.58392762 -0.16796875 4.94921875 C0.21305648 2.83335857 0.21305648 2.83335857 0 0 Z " fill="#ABB634" transform="translate(324,252)"/>
<path d="M0 0 C8.07226865 1.83858614 14.26781792 5.24159555 21 10 C22.051875 10.7425 23.10375 11.485 24.1875 12.25 C29.7257655 17.66519293 36.71050054 25.20588886 37.1953125 33.234375 C37.17210937 34.39453125 37.14890625 35.5546875 37.125 36.75 C37.10695313 37.92046875 37.08890625 39.0909375 37.0703125 40.296875 C37.04710937 41.18890625 37.02390625 42.0809375 37 43 C45.49609609 46.22199581 54.56995139 47.8100162 63.375 44.875 C64.24125 44.25625 65.1075 43.6375 66 43 C67.60875 41.8553125 67.60875 41.8553125 69.25 40.6875 C71.73195577 38.54844601 73.52043667 36.30226996 75.28125 33.56640625 C81.7309392 23.5558165 81.7309392 23.5558165 86.0859375 21.6484375 C88.78302344 21.18390085 91.26745982 20.92727079 94 21 C100.72189686 28.78421298 105.95774988 37.08528439 111 46 C111.36206543 46.63228516 111.72413086 47.26457031 112.09716797 47.91601562 C119.5729344 61.07336455 125.3410698 74.98427753 131 89 C131.32516602 89.79647949 131.65033203 90.59295898 131.98535156 91.41357422 C133.3533395 94.87674367 134 97.2182629 134 101 C129.93996302 102.27879118 125.87654351 103.546505 121.8125 104.8125 C120.68134766 105.16892578 119.55019531 105.52535156 118.38476562 105.89257812 C97.87492345 112.26173139 97.87492345 112.26173139 89 112 C88.67708984 113.04414063 88.67708984 113.04414063 88.34765625 114.109375 C86.64514136 117.76114606 84.19352016 120.37633964 81.4375 123.25 C80.62514893 124.10924072 80.62514893 124.10924072 79.79638672 124.98583984 C78.70466581 126.13629359 77.60934108 127.28333936 76.51025391 128.42675781 C75.22917711 129.76126458 73.96257337 131.10964139 72.69921875 132.4609375 C63.07749951 142.4994167 50.60609499 153.03919943 38 159 C37.83564453 157.35064453 37.83564453 157.35064453 37.66796875 155.66796875 C35.91943272 138.99355109 32.62031315 119.47482483 19.46484375 107.73828125 C17.721885 106.3414064 15.95879003 104.96909252 14.171875 103.62890625 C12 102 12 102 10 100 C10.27610213 96.22660428 11.34659937 92.84576951 12.55078125 89.28515625 C12.82188721 88.48086182 13.09299316 87.67656738 13.37231445 86.84790039 C13.57945068 86.23809326 13.78658691 85.62828613 14 85 C13.23558594 84.93006836 12.47117187 84.86013672 11.68359375 84.78808594 C-34.64810963 80.45320033 -34.64810963 80.45320033 -45.625 68.5 C-50.9279477 61.9436283 -50.47451647 53.97552685 -50 46 C-49.48933365 42.29326668 -48.81931562 38.6503437 -48 35 C-47.26136719 34.78085937 -46.52273438 34.56171875 -45.76171875 34.3359375 C-33.22503736 30.41722896 -23.09821896 24.01571191 -12.66601562 16.23291016 C-11.10076071 15.07456647 -9.51198843 13.94819487 -7.921875 12.82421875 C-3.22445146 9.58075209 -3.22445146 9.58075209 -0.16796875 4.94921875 C0.21305648 2.83335857 0.21305648 2.83335857 0 0 Z " fill="#C5CB49" transform="translate(324,252)"/>
<path d="M0 0 C0.33 0.66 0.66 1.32 1 2 C-3.1643689 11.45045332 -8.89731439 20.38612326 -14.0625 29.3125 C-14.63943604 30.31361816 -15.21637207 31.31473633 -15.81079102 32.34619141 C-18.58898957 37.10645743 -21.38384757 41.48408055 -24.8515625 45.76953125 C-29.3485319 52.08035154 -29.16579821 58.87250859 -29.3125 66.375 C-29.4005726 69.05008412 -29.50708863 71.72395672 -29.61328125 74.3984375 C-29.66178223 75.67428711 -29.7102832 76.95013672 -29.76025391 78.26464844 C-30.10199881 83.58918715 -30.95893115 88.7719035 -32 94 C-32.55244385 93.58041016 -33.1048877 93.16082031 -33.67407227 92.72851562 C-42.6944234 85.56248421 -42.6944234 85.56248421 -53.3125 81.5625 C-56.14094547 82.02294461 -57.08459846 82.64226674 -59.375 84.25 C-62.67960264 86.52230772 -65.6409444 87.46731025 -69.56298828 88.2734375 C-75.39997741 89.48217176 -79.49732455 90.54761356 -83 95.75 C-84.00692554 97.49602433 -85.00709891 99.24596253 -86 101 C-90.45265388 106.81125874 -94.91104061 111.63701354 -102 114 C-109.72516987 114.5634065 -117.95653573 114.65718337 -125 111 C-126.04654028 107.86037917 -125.92589432 106.18620693 -125.6875 102.9375 C-125.60870286 96.32729532 -128.1371466 92.19181672 -132 87 C-132.61617188 86.17113281 -133.23234375 85.34226562 -133.8671875 84.48828125 C-141.42822779 75.66706758 -151.37476458 71.00803999 -162 67 C-162.33 67.99 -162.66 68.98 -163 70 C-163 66.7 -163 63.4 -163 60 C-161.45570313 60.05800781 -159.91140625 60.11601562 -158.3203125 60.17578125 C-156.25523881 60.22271474 -154.1901321 60.26821101 -152.125 60.3125 C-151.11179687 60.35439453 -150.09859375 60.39628906 -149.0546875 60.43945312 C-141.66417313 60.55789086 -136.10952565 59.29943451 -130 55 C-127.91916545 52.75127277 -127.91916545 52.75127277 -127 50.1875 C-126.63390625 49.31609375 -126.2678125 48.4446875 -125.890625 47.546875 C-122.00954774 36.44835583 -121.80143526 25.10132677 -121.4375 13.4375 C-121.37272461 11.49520508 -121.37272461 11.49520508 -121.30664062 9.51367188 C-121.20132615 6.34253616 -121.09919383 3.17133207 -121 0 C-121.76699219 -0.29648438 -122.53398437 -0.59296875 -123.32421875 -0.8984375 C-126.07457175 -2.03069961 -128.48539389 -3.41939045 -131 -5 C-97.87023428 -41.4427423 -37.21817144 -18.32868566 0 0 Z " fill="#ABB734" transform="translate(486,185)"/>
<path d="M0 0 C3.59153494 10.24470623 6.47707403 20.44108761 9 31 C9 22.42 9 13.84 9 5 C30.34284893 23.29387051 46.46850555 45.89176971 58.5625 71.1875 C58.89717285 71.88206299 59.2318457 72.57662598 59.57666016 73.29223633 C61.38025092 77.18387042 62.51589583 80.73590439 63 85 C62.34257812 84.82984375 61.68515625 84.6596875 61.0078125 84.484375 C54.5690186 82.84414024 48.10961732 81.32133372 41.625 79.875 C40.86461426 79.70452148 40.10422852 79.53404297 39.32080078 79.35839844 C23.78583049 75.91985496 7.48049763 74.29637526 -7 82 C-8.06992187 82.56589844 -9.13984375 83.13179688 -10.2421875 83.71484375 C-15.59545725 86.70560692 -20.47834392 89.85514859 -25 94 C-22.10324519 96.41396234 -19.40212299 98.38617243 -16 100 C-15.94098412 104.39577504 -15.90606752 108.79144562 -15.875 113.1875 C-15.85824219 114.41404297 -15.84148437 115.64058594 -15.82421875 116.90429688 C-15.75416895 130.17873338 -16.95917149 143.22522445 -23.6875 154.9375 C-30.24120887 160.7826998 -37.46146247 161.58054054 -45.9375 161.3125 C-46.88173828 161.30283203 -47.82597656 161.29316406 -48.79882812 161.28320312 C-55.65949991 161.17025005 -55.65949991 161.17025005 -58 160 C-58.67016602 157.99047852 -58.67016602 157.99047852 -59.25390625 155.37890625 C-59.46853516 154.44369141 -59.68316406 153.50847656 -59.90429688 152.54492188 C-60.12150391 151.56072266 -60.33871094 150.57652344 -60.5625 149.5625 C-60.9992364 147.62583509 -61.43794341 145.68961321 -61.87890625 143.75390625 C-62.0704126 142.89095947 -62.26191895 142.0280127 -62.45922852 141.13891602 C-62.9269063 138.96757416 -62.9269063 138.96757416 -64 137 C-64.70669746 133.31475788 -65.12330143 129.60013969 -65.5625 125.875 C-65.72041016 124.8540625 -65.87832031 123.833125 -66.04101562 122.78125 C-66.87706673 115.26162271 -66.87706673 115.26162271 -64.37353516 111.66040039 C-62.32897615 109.6557871 -60.19848113 107.83228763 -58 106 C-52.09026379 98.37899125 -48.04388766 89.95015966 -46.375 80.4375 C-49.0212161 65.88331147 -63.93058813 54.64971631 -75 46 C-77.62051738 44.18760624 -80.22831361 42.57605697 -83 41 C-80.28372049 30.29009795 -74.53189431 21.71260789 -65 16 C-56.99108436 11.42018904 -48.8795654 8.42169966 -40 6 C-39.11570312 5.73445313 -38.23140625 5.46890625 -37.3203125 5.1953125 C-25.55150223 1.88640063 -12.24798538 -0.19328102 0 0 Z " fill="#C5CB49" transform="translate(381,85)"/>
<path d="M0 0 C0.80969238 -0.01385742 1.61938477 -0.02771484 2.45361328 -0.04199219 C7.35889941 -0.00295536 9.71940369 0.80420758 13.9375 3.375 C17.62896365 4.30245077 21.36915566 4.89382758 25.125 5.5 C27.11891885 5.83338018 29.11243243 6.1691963 31.10546875 6.5078125 C31.98485107 6.65105957 32.8642334 6.79430664 33.77026367 6.94189453 C35.9375 7.375 35.9375 7.375 37.9375 8.375 C39.99830236 14.01588237 40.39112708 19.54542012 40.8125 25.5 C41.30610023 31.57326977 41.90596646 37.1513915 43.9375 42.9375 C45.90656084 48.54969212 46.66293915 53.98696977 47.25 59.875 C47.33830078 60.73681885 47.42660156 61.5986377 47.51757812 62.48657227 C48.28940006 71.16700765 48.28940006 71.16700765 46.9375 74.375 C44.78967363 76.481121 42.75096761 78.25284672 40.375 80.0625 C39.70750732 80.58142822 39.04001465 81.10035645 38.35229492 81.63500977 C25.15421737 91.71317808 11.58265021 99.75273886 -4.6875 103.69921875 C-7.04365169 104.26463962 -7.04365169 104.26463962 -8.8828125 105.4296875 C-16.57042839 108.76374314 -27.83971577 106.86383949 -35.4375 104.25 C-55.69335972 96.02178541 -55.69335972 96.02178541 -58.95385742 89.62670898 C-59.7720437 87.47978196 -60.46623576 85.3260722 -61.125 83.125 C-61.3739502 82.32795654 -61.62290039 81.53091309 -61.87939453 80.7097168 C-62.62912017 78.2708124 -63.34855731 75.82458783 -64.0625 73.375 C-64.2785791 72.66102051 -64.4946582 71.94704102 -64.71728516 71.21142578 C-67.52498599 61.8427592 -69.6365559 52.16655358 -68.0625 42.375 C-66.01103603 38.69801162 -64.57403617 36.71602411 -61.0625 34.375 C-59.7425 34.375 -58.4225 34.375 -57.0625 34.375 C-56.7325 33.199375 -56.4025 32.02375 -56.0625 30.8125 C-50.07283934 13.26335404 -50.07283934 13.26335404 -43.99609375 8.88671875 C-41.68558279 8.1250586 -39.46567838 7.74956947 -37.0625 7.375 C-34.99321261 6.72970906 -32.93108582 6.06119369 -30.875 5.375 C-20.54338927 2.26954475 -10.80901436 0.11153961 0 0 Z " fill="#9B9B1B" transform="translate(276.0625,185.625)"/>
<path d="M0 0 C2.76066878 3.24510949 3.93287525 6.33746092 5.20703125 10.3828125 C11.84056794 30.35840667 11.84056794 30.35840667 28 43 C29.91610366 44.42551948 31.79378952 45.90445492 33.625 47.4375 C34.49898438 48.16582031 35.37296875 48.89414063 36.2734375 49.64453125 C41.2921501 53.98018125 46.17042008 58.45533055 51 63 C51.65871094 63.61617187 52.31742188 64.23234375 52.99609375 64.8671875 C58.14631516 69.83899477 62.55208317 75.4035257 67 81 C67.78375 81.95519531 68.5675 82.91039063 69.375 83.89453125 C86.04769397 104.70867965 102.91595077 133.45414479 108 160 C107.57543945 162.29052734 107.57543945 162.29052734 107 164 C79.10084136 155.90713467 79.10084136 155.90713467 74.83203125 149.08203125 C73.28830936 145.59169867 72.42145371 141.94370348 71.59765625 138.22607422 C70.55642526 134.34782905 68.66913921 130.94489235 66.75 127.4375 C66.37456055 126.73850586 65.99912109 126.03951172 65.61230469 125.31933594 C55.01634309 106.01094088 40.49894986 89.49894986 25 74 C25 82.25 25 90.5 25 99 C24.01 99.495 24.01 99.495 23 100 C22.75765625 98.92363281 22.5153125 97.84726563 22.265625 96.73828125 C20.38846921 88.52053132 18.3441933 80.46157864 15.734375 72.44140625 C15 70 15 70 15 68 C-25.42100577 71.95048302 -25.42100577 71.95048302 -59.03515625 92.390625 C-62.59952699 97.32474331 -65.44614537 102.48367399 -68 108 C-71.33437699 105.05008996 -72.7968756 102.58660533 -74.1875 98.375 C-75.42215793 94.61577932 -75.42215793 94.61577932 -77 91 C-78.40075464 76.9006008 -73.54048359 65.9726344 -65 55 C-54.51673278 42.39928989 -42.29819456 31.54895496 -29.33203125 21.5859375 C-26.33860572 19.28303984 -23.44828988 16.87438923 -20.5625 14.4375 C-14.07965179 9.08041585 -7.0534558 4.55952136 0 0 Z " fill="#9B9B1B" transform="translate(366,17)"/>
<path d="M0 0 C6.54160556 6.54160556 4.37831407 25.83087358 4.38049316 34.76071167 C4.37868042 35.60280182 4.37686768 36.44489197 4.375 37.3125 C4.37518127 38.61636154 4.37518127 38.61636154 4.37536621 39.94656372 C4.34284218 56.47160927 4.02982151 73.9615588 -1.578125 89.68359375 C-3.82424071 96.1179553 -5.03053393 100.50366707 -1.96484375 106.890625 C0.5502767 111.45481623 3.40166503 115.79052099 6.24560547 120.15429688 C9.25707819 125.03903471 11.68414061 130.18781064 14.125 135.375 C14.58527588 136.33164551 15.04555176 137.28829102 15.51977539 138.27392578 C17.81418581 143.12462039 19.7215427 147.78561796 21 153 C13.6041401 155.75290341 6.10872577 157.27795589 -1.63671875 158.67993164 C-3.73302223 159.05942651 -5.82752363 159.44778081 -7.921875 159.83789062 C-9.29681994 160.09144461 -10.67181957 160.34470218 -12.046875 160.59765625 C-12.71857727 160.7225795 -13.39027954 160.84750275 -14.08233643 160.97621155 C-17.29934107 161.56216352 -20.49660623 162.05798056 -23.74511719 162.43725586 C-30.36747819 163.0943971 -30.36747819 163.0943971 -35.921875 166.43359375 C-36.52515625 167.42488281 -37.1284375 168.41617188 -37.75 169.4375 C-38.45898438 170.51902344 -39.16796875 171.60054687 -39.8984375 172.71484375 C-40.93871094 174.34099609 -40.93871094 174.34099609 -42 176 C-48.20516822 184.07567922 -55.0270012 191.58985602 -62 199 C-62.61617188 199.65871094 -63.23234375 200.31742188 -63.8671875 200.99609375 C-68.83899477 206.14631516 -74.4035257 210.55208317 -80 215 C-80.95519531 215.78375 -81.91039062 216.5675 -82.89453125 217.375 C-92.3253431 224.92933452 -102.54960993 230.96806464 -113 237 C-114.20709255 237.70953115 -115.41413179 238.41915298 -116.62109375 239.12890625 C-121.98749481 242.20051164 -121.98749481 242.20051164 -124 243 C-124.99 242.67 -125.98 242.34 -127 242 C-126.60167969 241.03320312 -126.20335937 240.06640625 -125.79296875 239.0703125 C-120.43313762 226.45139267 -120.43313762 226.45139267 -117.625 213.125 C-116.55855486 207.79277432 -111.58887361 205.67649127 -107.29443359 202.70361328 C-92.40179252 192.35392051 -73.28443133 178.56886266 -65 162 C-63.18432617 161.40917969 -63.18432617 161.40917969 -60.79296875 160.921875 C-59.4613269 160.63896606 -59.4613269 160.63896606 -58.1027832 160.3503418 C-57.14073975 160.152229 -56.17869629 159.95411621 -55.1875 159.75 C-46.39926304 157.86252063 -37.8295384 155.59167708 -29.26049805 152.87988281 C-28.08934448 152.5120166 -28.08934448 152.5120166 -26.89453125 152.13671875 C-26.21237549 151.91717529 -25.53021973 151.69763184 -24.82739258 151.47143555 C-23 151 -23 151 -20 151 C-28.71609137 124.26329777 -40.2891548 96.16348409 -58.29296875 74.203125 C-60 72 -60 72 -60 70 C-58.7625 69.566875 -57.525 69.13375 -56.25 68.6875 C-53.66460558 67.74118225 -52.05668396 67.04809548 -49.9375 65.25 C-48 64 -48 64 -44.75 64.0625 C-36.53985712 66.11503572 -31.12099431 70.28608287 -25 76 C-23.62791762 69.82846584 -22.85452668 63.81736519 -22.61328125 57.49609375 C-22.56107422 56.17802734 -22.50886719 54.85996094 -22.45507812 53.50195312 C-22.37882006 51.46603434 -22.31238811 49.43175647 -22.27270508 47.39477539 C-22.08714807 38.85607726 -21.34970516 33.08273999 -15.90942383 26.37084961 C-12.61627532 22.28188845 -10.23997244 17.63608728 -7.6875 13.0625 C-6.6506087 11.21956282 -5.6128852 9.37709355 -4.57421875 7.53515625 C-4.12651123 6.734729 -3.67880371 5.93430176 -3.2175293 5.10961914 C-2.21143602 3.36635626 -1.11647649 1.67471473 0 0 Z " fill="#9B9B1B" transform="translate(478,202)"/>
<path d="M0 0 C1.03181396 -0.02247803 2.06362793 -0.04495605 3.12670898 -0.06811523 C9.49752615 -0.04785744 13.42211454 0.58389517 18.5625 4.4375 C23.89230608 10.19677392 26.58075788 17.40607166 28.0625 25 C27.51263816 27.68057647 26.64637205 28.80417738 25.0625 31 C21.2290587 36.74473215 21.71679806 43.1876701 23.02734375 49.7734375 C23.52391894 51.66549771 24.04230599 53.5517967 24.5625 55.4375 C24.89702897 59.70274435 24.38364342 62.56757023 22.5625 66.4375 C24.5425 66.4375 26.5225 66.4375 28.5625 66.4375 C28.8925 67.4275 29.2225 68.4175 29.5625 69.4375 C12.17210334 76.02283403 12.17210334 76.02283403 4.5625 74.4375 C-0.50803193 73.86502059 -3.28071484 73.92068428 -7.5 76.875 C-10.58481352 79.36795976 -12.56612862 82.02109385 -14.75 85.3125 C-16.70239033 87.92597058 -17.71130686 89.22350105 -20.86328125 90.15234375 C-32.0071996 90.55552459 -43.63971243 86.11936398 -52.4375 79.4375 C-57.34816953 74.82289994 -60.42303007 70.30823734 -60.73828125 63.42578125 C-60.75790898 61.8673062 -60.76090455 60.3085605 -60.75 58.75 C-60.74508545 57.9142041 -60.7401709 57.0784082 -60.73510742 56.21728516 C-60.51362397 44.13905432 -58.22883828 32.59355597 -54.9375 21 C-54.73616455 20.28376465 -54.5348291 19.5675293 -54.32739258 18.82958984 C-53.24157615 15.23807669 -52.36038719 12.80755414 -49.4375 10.4375 C-47.20776367 9.50195312 -47.20776367 9.50195312 -44.60546875 8.71875 C-43.64970947 8.42750244 -42.6939502 8.13625488 -41.70922852 7.83618164 C-40.69143311 7.5396167 -39.6736377 7.24305176 -38.625 6.9375 C-37.57691162 6.62997803 -36.52882324 6.32245605 -35.44897461 6.00561523 C-32.44880289 5.13613798 -29.44369063 4.28587607 -26.4375 3.4375 C-25.18710938 3.06753906 -23.93671875 2.69757813 -22.6484375 2.31640625 C-15.14864834 0.37167184 -7.70953117 0.11022685 0 0 Z " fill="#C5CB49" transform="translate(220.4375,120.5625)"/>
<path d="M0 0 C1.59648592 2.18246202 2.99654769 4.31050407 4.375 6.625 C10.56017591 16.91416232 10.56017591 16.91416232 20 24 C21.78874127 24.13197934 23.58187078 24.20875075 25.375 24.25 C31.93363537 24.55295819 36.65760636 26.93219185 42.30419922 30.03027344 C49.67580078 34.06874236 56.09681158 35.29974448 64.4375 35.125 C65.67790039 35.11146484 65.67790039 35.11146484 66.94335938 35.09765625 C68.96236708 35.07431512 70.98122356 35.03845288 73 35 C73.25201772 53.76386483 66.1561684 69.98287384 53.3828125 83.73046875 C43.88306589 92.77858806 36.49722064 93.44454553 23.8828125 93.2734375 C9.30062773 92.7994109 -4.66387954 87.62468893 -18 82 C-18.98484375 81.59910156 -19.9696875 81.19820313 -20.984375 80.78515625 C-24.00880963 78.10653876 -23.72040732 74.83018708 -24 71 C-24.14115082 68.07082522 -24.18682903 65.14717288 -24.203125 62.21484375 C-24.20882507 61.39609268 -24.21452515 60.57734161 -24.22039795 59.73377991 C-24.2297892 58.0084866 -24.23635835 56.28317584 -24.24023438 54.55786133 C-24.24988417 51.96857886 -24.2809407 49.38011067 -24.3125 46.79101562 C-24.49359484 18.43685947 -24.49359484 18.43685947 -16 8 C-11.44302331 3.72956749 -6.43510571 0 0 0 Z " fill="#C5CB49" transform="translate(193,256)"/>
<path d="M0 0 C6.02470464 5.51612567 10.47619413 13.14644976 10.9921875 21.40234375 C11.04246094 22.15128906 11.09273438 22.90023437 11.14453125 23.671875 C11.52812054 33.66054009 8.40393742 41.73423743 1.9921875 49.40234375 C-5.89689813 56.76228339 -14.69132627 59.77184725 -25.39453125 59.61328125 C-34.70631168 58.86165772 -42.9970505 53.88868316 -49.3203125 47.15234375 C-55.51597855 39.25286954 -57.99041728 29.34461357 -57.0078125 19.40234375 C-54.11328066 9.80210563 -48.16634883 2.15040344 -40.0078125 -3.59765625 C-25.1535664 -11.51798669 -13.29220873 -10.57687426 0 0 Z " fill="#AAB634" transform="translate(288.0078125,217.59765625)"/>
<path d="M0 0 C0.66 0 1.32 0 2 0 C2.31114746 0.66829834 2.62229492 1.33659668 2.94287109 2.02514648 C12.86532342 23.24827066 22.92875126 43.52168499 39.01953125 60.80859375 C40.81843221 62.79909363 42.40764578 64.84437555 44 67 C43.44763672 67.23074219 42.89527344 67.46148437 42.32617188 67.69921875 C32.4163018 71.85364647 22.59316801 76.06566004 13.03344727 80.97851562 C7.74853944 83.67651262 2.36509948 86.10394962 -3.0625 88.5 C-10.04910191 91.58573243 -16.83754169 94.89100764 -23.50805664 98.61328125 C-27.81136435 101 -27.81136435 101 -30 101 C-28.99349431 65.49464419 -19.93569866 29.90354799 0 0 Z " fill="#C8A18F" transform="translate(85,133)"/>
<path d="M0 0 C3.68897697 1.960018 7.34907706 3.97022782 11 6 C11.70656738 6.39106934 12.41313477 6.78213867 13.14111328 7.18505859 C15.43567487 8.46343603 17.71857641 9.76084229 20 11.0625 C20.7417749 11.4735498 21.4835498 11.88459961 22.24780273 12.30810547 C30.30832777 16.95773233 31.82961204 23.10235625 34.625 31.625 C43.87128953 58.87122079 59.01929765 87.10770362 80.8046875 106.49609375 C83.55273935 109.63043758 83.56319496 111.01442596 83.375 115.125 C83.33117187 116.33671875 83.28734375 117.5484375 83.2421875 118.796875 C83.16253295 120.19797817 83.0817137 121.59901541 83 123 C82.91786539 124.71347488 82.83720483 126.42702087 82.7578125 128.140625 C82.53543671 132.76243532 82.27575628 137.38108227 82 142 C77.36293301 139.51460235 73.79378418 136.27234403 70 132.6875 C69.34136963 132.06576904 68.68273926 131.44403809 68.00415039 130.8034668 C50.07962284 113.7190505 35.75036941 94.81937736 24 73 C23.63181152 72.32404785 23.26362305 71.6480957 22.88427734 70.95166016 C11.11126855 49.14637764 2.74786048 24.68336737 0 0 Z " fill="#559AFE" transform="translate(32,274)"/>
<path d="M0 0 C20.75321886 11.42855607 39.48700042 29.50353725 54 48 C54.77859375 48.95003906 55.5571875 49.90007812 56.359375 50.87890625 C73.04551098 71.68343566 89.91602324 100.45452318 95 127 C94.57543945 129.29052734 94.57543945 129.29052734 94 131 C66.10084136 122.90713467 66.10084136 122.90713467 61.83203125 116.08203125 C60.28830936 112.59169867 59.42145371 108.94370348 58.59765625 105.22607422 C57.55642526 101.34782905 55.66913921 97.94489235 53.75 94.4375 C53.37456055 93.73850586 52.99912109 93.03951172 52.61230469 92.31933594 C44.67830334 77.86167384 34.50898052 64.97917069 23.4375 52.8125 C22.97335693 52.29864746 22.50921387 51.78479492 22.03100586 51.25537109 C20.00663508 49.04547172 17.98977225 46.99167071 15.6640625 45.09765625 C9.3055464 39.88556406 8.41978065 33.68828369 7.0078125 25.98046875 C5.85235135 19.82168911 3.89368477 13.95792851 1.92919922 8.01831055 C0 2.16043581 0 2.16043581 0 0 Z " fill="#559AFD" transform="translate(379,50)"/>
<path d="M0 0 C4.20806765 3.69758572 5.67893286 8.79859884 7.75 13.875 C8.38615234 15.36580078 8.38615234 15.36580078 9.03515625 16.88671875 C9.43089844 17.84964844 9.82664063 18.81257813 10.234375 19.8046875 C10.59756836 20.68108887 10.96076172 21.55749023 11.33496094 22.46044922 C12.47663492 26.8201015 11.28928117 29.45625268 9.21484375 33.35546875 C8.45928628 34.63491977 7.69994201 35.91213959 6.9375 37.1875 C-5.81928628 59.28750077 -17.43778787 87.43707554 -16.93359375 113.328125 C-16.9360231 127.62726652 -16.9360231 127.62726652 -20.73974609 132 C-25.0202104 135.42670784 -29.76433623 137.79899237 -34.76708984 139.99316406 C-37.98399277 141.44368972 -40.96475838 143.20404713 -44 145 C-45.1275075 103.69419656 -37.7235897 64.63084286 -18 28 C-17.64292969 27.32598145 -17.28585938 26.65196289 -16.91796875 25.95751953 C-11.98354162 16.67931445 -6.57609463 8.20845855 0 0 Z " fill="#559AFE" transform="translate(74,105)"/>
<path d="M0 0 C0.82849457 0.00215515 1.65698914 0.0043103 2.5105896 0.00653076 C32.88737075 0.13276473 61.10696062 6.17879651 89.375 17.3125 C87.51747611 21.48642008 84.74371103 23.6068028 81.125 26.25 C79.99386361 27.09120143 78.86365115 27.93364668 77.734375 28.77734375 C77.17169922 29.18839355 76.60902344 29.59944336 76.02929688 30.02294922 C74.34924662 31.28521655 74.34924662 31.28521655 72.86132812 32.77783203 C70.17209927 35.36259881 68.90016406 36.32066643 65.109375 36.26171875 C63.87703125 35.94847656 62.6446875 35.63523438 61.375 35.3125 C60.64345703 35.1676416 59.91191406 35.0227832 59.15820312 34.87353516 C44.71105033 31.9811562 34.71671341 26.08642947 23.39550781 16.85839844 C20.53883279 14.67274519 17.5495361 12.99609302 14.375 11.3125 C14.1275 12.1375 13.88 12.9625 13.625 13.8125 C12.64811245 16.54778515 11.60502537 18.95749074 10.296875 21.53125 C9.75691895 22.59762695 9.75691895 22.59762695 9.20605469 23.68554688 C8.93180664 24.22244141 8.65755859 24.75933594 8.375 25.3125 C7.68575439 25.33755615 6.99650879 25.3626123 6.28637695 25.38842773 C4.23951481 25.46381955 2.19272603 25.5412176 0.14599609 25.62011719 C-2.16983607 25.70708759 -4.48593922 25.7871061 -6.80224609 25.86035156 C-13.76418204 26.05796172 -13.76418204 26.05796172 -20.65234375 26.98828125 C-25.70324633 27.92457719 -28.92966012 27.96905856 -33.30859375 25.20703125 C-36.60525412 22.89458519 -39.70236434 20.36424343 -42.79394531 17.78710938 C-45.59597538 15.53054116 -48.55155731 13.59451075 -51.5625 11.625 C-52.54089844 10.98175781 -53.51929688 10.33851562 -54.52734375 9.67578125 C-55.21957031 9.22589844 -55.91179687 8.77601562 -56.625 8.3125 C-55.625 6.3125 -55.625 6.3125 -53.9453125 5.75 C-53.22085938 5.605625 -52.49640625 5.46125 -51.75 5.3125 C-50.92757812 5.1475 -50.10515625 4.9825 -49.2578125 4.8125 C-48.38898438 4.6475 -47.52015625 4.4825 -46.625 4.3125 C-45.81804687 4.1475 -45.01109375 3.9825 -44.1796875 3.8125 C-29.48566261 0.93660522 -14.94115485 -0.07053853 0 0 Z " fill="#559AFD" transform="translate(255.625,13.6875)"/>
<path d="M0 0 C4.75913757 1.43727421 9.04525892 3.46006513 13.4375 5.75 C21.12457431 9.66629253 28.89554541 13.04621245 37 16 C37.88429687 16.33 38.76859375 16.66 39.6796875 17 C48.78433579 19.94979259 58.51582558 19.73061601 68 20 C67.81751709 20.58990723 67.63503418 21.17981445 67.44702148 21.78759766 C59.69567744 47.18582952 54.75946832 73.4186087 54 100 C53.67 100 53.34 100 53 100 C53.020625 98.700625 53.04125 97.40125 53.0625 96.0625 C52.43042392 90.48637677 49.68938998 88.23739024 45.671875 84.578125 C40.50078789 79.58847954 36.30597711 73.73556839 32 68 C31.05833984 66.75089844 31.05833984 66.75089844 30.09765625 65.4765625 C17.88367489 48.63563761 0 21.48468392 0 0 Z " fill="#C8A18E" transform="translate(62,292)"/>
<path d="M0 0 C-0.29221436 0.90117554 -0.29221436 0.90117554 -0.59033203 1.82055664 C-1.98285234 6.26109199 -3.15795509 10.58058787 -3.8671875 15.18359375 C-6.22564271 28.52149578 -6.22564271 28.52149578 -11.07421875 32.85302734 C-16.18034901 36.14713916 -21.74125374 38.42539073 -27.32617188 40.77734375 C-31.39645879 42.63855603 -34.98633464 45.03663433 -38.625 47.625 C-39.27339844 48.08326172 -39.92179687 48.54152344 -40.58984375 49.01367188 C-50.52209938 56.11003685 -50.52209938 56.11003685 -59.26171875 64.55859375 C-62.85414768 68.46818109 -65.70847668 71.10926741 -71.1015625 71.59765625 C-75.75836446 71.73410271 -80.36236778 71.38524712 -85 71 C-86.4984315 70.90953593 -87.99713574 70.82346228 -89.49609375 70.7421875 C-93.00180581 70.54366688 -96.50043892 70.28904929 -100 70 C-98.33269909 65.846905 -95.33728 62.88798379 -92.3125 59.6875 C-91.76795166 59.10645508 -91.22340332 58.52541016 -90.66235352 57.92675781 C-89.11352199 56.27940833 -87.55760339 54.63905019 -86 53 C-85.35289063 52.31035156 -84.70578125 51.62070313 -84.0390625 50.91015625 C-79.10102653 45.79146043 -73.56013272 41.41903359 -68 37 C-67.04480469 36.21625 -66.08960938 35.4325 -65.10546875 34.625 C-50.20634305 22.69039867 -20.16047828 0 0 0 Z " fill="#559AFE" transform="translate(182,26)"/>
<path d="M0 0 C1.50964623 0.04519705 3.01942248 0.08625258 4.52929688 0.12304688 C8.2097542 0.22170724 11.88529319 0.37668623 15.5625 0.5625 C11.6398405 6.95254559 7.68261625 13.02609697 2.6875 18.625 C2.1728418 19.21297363 1.65818359 19.80094727 1.12792969 20.40673828 C-0.38640906 22.13210686 -1.91088189 23.84799831 -3.4375 25.5625 C-4.67113281 26.96435547 -4.67113281 26.96435547 -5.9296875 28.39453125 C-13.84104799 37.30507741 -22.09365418 45.15910894 -31.4375 52.5625 C-32.39140625 53.34496094 -33.3453125 54.12742187 -34.328125 54.93359375 C-43.75923707 62.49057458 -53.98554425 68.52966093 -64.4375 74.5625 C-65.64459255 75.27203115 -66.85163179 75.98165298 -68.05859375 76.69140625 C-73.42499481 79.76301164 -73.42499481 79.76301164 -75.4375 80.5625 C-76.4275 80.2325 -77.4175 79.9025 -78.4375 79.5625 C-78.03917969 78.59570312 -77.64085937 77.62890625 -77.23046875 76.6328125 C-71.87063762 64.01389267 -71.87063762 64.01389267 -69.0625 50.6875 C-67.99605486 45.35527432 -63.02637361 43.23899127 -58.73193359 40.26611328 C-38.02086013 26.08787753 -38.02086013 26.08787753 -22.11254883 7.21655273 C-16.75516911 -1.67626026 -9.26806309 -0.482364 0 0 Z " fill="#559AFD" transform="translate(429.4375,364.4375)"/>
<path d="M0 0 C1.55654297 0.39058594 1.55654297 0.39058594 3.14453125 0.7890625 C8.75883337 2.03668519 14.30010221 2.93896847 20.01953125 3.5390625 C20.83695801 3.63026367 21.65438477 3.72146484 22.49658203 3.81542969 C27.80837577 4.3328315 32.96622079 4.39329619 38.30078125 4.1953125 C57.31543445 3.68423719 57.31543445 3.68423719 62.24169922 6.91015625 C65.80051828 10.55129843 67.98189203 14.71019291 69.98046875 19.35253906 C71.56111686 22.68928722 73.73524944 25.47483032 75.95703125 28.4140625 C65.60793266 30.66043859 55.42921569 30.81349662 44.89453125 30.7890625 C44.01330597 30.78851868 43.13208069 30.78797485 42.22415161 30.78741455 C14.47561942 30.70896238 -13.41748005 26.52991748 -39.04296875 15.4140625 C-36.62430183 12.66187309 -34.12990322 11.32415769 -30.82421875 9.78515625 C-29.80972656 9.30755859 -28.79523438 8.82996094 -27.75 8.33789062 C-26.69167969 7.84740234 -25.63335937 7.35691406 -24.54296875 6.8515625 C-22.44827821 5.87310474 -20.35448643 4.89271998 -18.26171875 3.91015625 C-17.33294922 3.47888428 -16.40417969 3.0476123 -15.44726562 2.60327148 C-9.58480035 -0.29641052 -6.71523342 -1.2930488 0 0 Z " fill="#559AFD" transform="translate(212.04296875,435.5859375)"/>
<path d="M0 0 C21.39603354 18.10054379 37.51466387 40.98831419 49.5625 66.1875 C49.89717285 66.88206299 50.2318457 67.57662598 50.57666016 68.29223633 C52.38025092 72.18387042 53.51589583 75.73590439 54 80 C53.34257812 79.82984375 52.68515625 79.6596875 52.0078125 79.484375 C48.67671247 78.63580209 45.33906667 77.81667575 42 77 C41.34112793 76.83419434 40.68225586 76.66838867 40.00341797 76.49755859 C27.73268958 73.43204754 15.603929 71.94467318 3 71 C3.01047363 70.44763672 3.02094727 69.89527344 3.03173828 69.32617188 C3.24904327 56.04581107 2.48474556 43.51680661 0.4375 30.39453125 C-0.29168788 24.45542172 -0.1051633 18.47286202 -0.0625 12.5 C-0.05798828 11.29601562 -0.05347656 10.09203125 -0.04882812 8.8515625 C-0.0371195 5.90098927 -0.02071995 2.95052141 0 0 Z " fill="#C8A28F" transform="translate(390,90)"/>
<path d="M0 0 C0.66 0 1.32 0 2 0 C3.3046875 1.36328125 3.3046875 1.36328125 4.875 3.3125 C7.56082036 6.58442099 10.35555302 9.03720349 13.73071289 11.58178711 C17.9586854 14.90703883 21.14746496 17.62559922 21.81640625 23.1796875 C21.97327672 26.26202535 21.92091612 29.33278542 21.88671875 32.41796875 C21.86045242 42.02538354 26.09860848 51.31313677 31.08203125 59.36328125 C32 61 32 61 32 63 C17.74676112 63.31681085 3.68295151 63.26961009 -10.5 61.6875 C-12.11515503 61.51093872 -12.11515503 61.51093872 -13.76293945 61.33081055 C-21.00955628 60.45108533 -27.96094029 58.92253139 -35 57 C-32.09367294 54.02205439 -29.20696567 51.69610552 -25.75 49.375 C-10.66391545 38.44160096 -3.56323029 20.49723104 -0.3984375 2.59765625 C-0.26695312 1.74042969 -0.13546875 0.88320313 0 0 Z " fill="#C8A18E" transform="translate(239,378)"/>
<path d="M0 0 C6.54164223 6.54164223 4.37831408 25.83111624 4.38049316 34.76098633 C4.37777405 36.0239856 4.37777405 36.0239856 4.375 37.3125 C4.37512085 38.18140869 4.3752417 39.05031738 4.37536621 39.94555664 C4.34522217 55.25452202 3.12186033 69.97571475 0 85 C-0.18143555 85.87688477 -0.36287109 86.75376953 -0.54980469 87.65722656 C-1.51232446 92.15775164 -2.47397165 96.65274277 -4 101 C-4.99 101.495 -4.99 101.495 -6 102 C-6.47308594 101.26136719 -6.94617188 100.52273438 -7.43359375 99.76171875 C-12.38774584 92.16148932 -17.5554013 84.4445987 -24 78 C-23.9226983 76.13619131 -23.77571209 74.27523294 -23.6015625 72.41796875 C-23.16791315 67.37593464 -22.87747897 62.35868382 -22.7109375 57.30078125 C-22.62674108 55.30845903 -22.54252573 53.31613528 -22.45458984 51.32397461 C-22.40133279 49.97800878 -22.35909372 48.6315638 -22.32763672 47.28491211 C-22.11622123 38.78826745 -21.30824628 33.05439423 -15.90722656 26.37524414 C-12.61977252 22.28107615 -10.24031365 17.63669865 -7.6875 13.0625 C-6.6506087 11.21956282 -5.6128852 9.37709355 -4.57421875 7.53515625 C-4.12651123 6.734729 -3.67880371 5.93430176 -3.2175293 5.10961914 C-2.21143602 3.36635626 -1.11647649 1.67471473 0 0 Z " fill="#559AFD" transform="translate(478,202)"/>
<path d="M0 0 C5.46697039 1.77676538 5.46697039 1.77676538 7.828125 2.765625 C13.21914634 5.00092653 18.18651446 5.73755811 24 6 C25.05574219 6.05285156 26.11148437 6.10570312 27.19921875 6.16015625 C37.86005786 6.42990245 48.14156179 4.92640117 58.65087891 3.27539062 C61.12119585 2.98579205 63.51505514 2.95370695 66 3 C63.76164731 7.0616466 61.03159873 10.38555038 57.875 13.75 C57.38491455 14.27585693 56.8948291 14.80171387 56.38989258 15.34350586 C54.93199486 16.90085413 53.46632352 18.45058994 52 20 C50.89591797 21.18529297 50.89591797 21.18529297 49.76953125 22.39453125 C40.11231904 32.45035259 27.64309119 43.02170575 15 49 C14.89042969 47.90042969 14.78085937 46.80085938 14.66796875 45.66796875 C12.91897496 28.98918579 8.624735 14.53359601 0 0 Z " fill="#C8A28F" transform="translate(347,362)"/>
<path d="M0 0 C-0.54364024 6.41495481 -1.72170145 12.44541429 -3.28125 18.69140625 C-4.81397882 25.74695685 -5.22555303 32.8081155 -5.5625 40 C-5.62727539 41.30517578 -5.62727539 41.30517578 -5.69335938 42.63671875 C-5.79824218 44.75768219 -5.89950075 46.87882433 -6 49 C-6.88051025 48.81824219 -6.88051025 48.81824219 -7.77880859 48.6328125 C-26.73896024 44.77323965 -45.69664875 42.28358546 -65 41 C-65 40.67 -65 40.34 -65 40 C-63.80503906 39.94585937 -62.61007813 39.89171875 -61.37890625 39.8359375 C-56.66686847 39.23748489 -54.13036014 36.98623363 -50.9375 33.625 C-40.23769753 23.09593906 -15.52092738 0 0 0 Z " fill="#C7A18E" transform="translate(172,57)"/>
<path d="M0 0 C1.73443359 0.00676758 1.73443359 0.00676758 3.50390625 0.01367188 C6.33599225 0.02537471 9.16796811 0.04177004 12 0.0625 C10.00614061 6.10848278 7.94202076 12.12553534 5.8125 18.125 C5.53986328 18.89521484 5.26722656 19.66542969 4.98632812 20.45898438 C4.32495174 22.32708258 3.66258343 24.19482957 3 26.0625 C-0.84859607 24.49817458 -3.10813134 22.05780156 -5.9375 19.0625 C-11.77353026 13.01619877 -18.23481129 8.02077026 -25 3.0625 C-17.91306805 -1.36683247 -7.99647701 -0.05953849 0 0 Z " fill="#C7A28E" transform="translate(252,38.9375)"/>
<path d="M0 0 C0.33 0 0.66 0 1 0 C1.315957 13.86700152 0.39141101 27.31940547 -2 41 C-2.50789063 40.61328125 -3.01578125 40.2265625 -3.5390625 39.828125 C-9.78722967 35.10104722 -15.70127181 30.91949128 -23 28 C-21.70721741 24.509487 -19.69663648 22.93495775 -16.83984375 20.671875 C-10.7514189 15.13929361 -5.89339494 8.01612244 -1.09375 1.36328125 C-0.7328125 0.91339844 -0.371875 0.46351563 0 0 Z " fill="#C7A28E" transform="translate(456,238)"/>
<path d="M0 0 C17.85649203 4.03872437 17.85649203 4.03872437 26 7 C23.14021487 9.93922361 20.31192213 12.58682597 17 15 C14.91474746 13.25224498 12.83176923 11.50189573 10.75 9.75 C10.16347656 9.25886719 9.57695312 8.76773438 8.97265625 8.26171875 C5.84378521 5.62502968 2.84047379 2.9529678 0 0 Z " fill="#C6A28D" transform="translate(297,43)"/>
<path d="M0 0 C2.31 0 4.62 0 7 0 C7.33 0.99 7.66 1.98 8 3 C2.555 4.485 2.555 4.485 -3 6 C-2.01 4.02 -1.02 2.04 0 0 Z " fill="#C8A38A" transform="translate(242,187)"/>
<path d="M0 0 C0 2.64 0 5.28 0 8 C-2.64 6.35 -5.28 4.7 -8 3 C-7.67 2.34 -7.34 1.68 -7 1 C-2.2 0 -2.2 0 0 0 Z " fill="#589AF6" transform="translate(131,421)"/>
<path d="M0 0 C-4.95 2.475 -4.95 2.475 -10 5 C-10.66 4.34 -11.32 3.68 -12 3 C-10.5682384 2.30062798 -9.12932968 1.61587282 -7.6875 0.9375 C-6.48673828 0.36322266 -6.48673828 0.36322266 -5.26171875 -0.22265625 C-3 -1 -3 -1 0 0 Z " fill="#A29E2B" transform="translate(88,220)"/>
</svg>
