<?xml version="1.0" encoding="UTF-8"?>
<svg version="1.1" xmlns="http://www.w3.org/2000/svg" width="512" height="512">
<path d="M0 0 C3.13607538 0.63419706 4.23418164 1.86265971 6.10546875 4.42578125 C6.49609375 7.66015625 6.49609375 7.66015625 6.35546875 11.17578125 C6.319375 12.34625 6.28328125 13.51671875 6.24609375 14.72265625 C6.1996875 15.6146875 6.15328125 16.50671875 6.10546875 17.42578125 C6.7603125 17.51214844 7.41515625 17.59851563 8.08984375 17.6875 C23.05872008 19.9920304 37.03789456 27.11281439 48.10546875 37.42578125 C48.60175781 36.99265625 49.09804688 36.55953125 49.609375 36.11328125 C53.0912179 33.25909504 55.33806358 31.55368211 59.85546875 30.80078125 C63.66261627 31.532925 64.89014291 32.27320217 67.10546875 35.42578125 C68.40446123 38.71656219 68.25375616 40.03858635 66.98046875 43.36328125 C64.93016826 46.71210538 62.69800055 49.48290731 60.10546875 52.42578125 C60.4921875 53.09222656 60.87890625 53.75867187 61.27734375 54.4453125 C68.4730158 67.18022714 72.42066696 79.37077698 72.40625 94.0078125 C72.41053513 94.9844133 72.41482025 95.9610141 72.41923523 96.96720886 C72.42494137 99.01515939 72.42550646 101.06313016 72.42114258 103.11108398 C72.41795997 106.24692842 72.44156602 109.38184845 72.46679688 112.51757812 C72.46906796 114.51432173 72.46977425 116.51106786 72.46875 118.5078125 C72.47795975 119.44325394 72.48716949 120.37869537 72.49665833 121.34248352 C72.4511223 127.7142508 72.4511223 127.7142508 70.83276367 131.0456543 C69.10546875 132.42578125 69.10546875 132.42578125 65.10546875 132.42578125 C65.10546875 139.02578125 65.10546875 145.62578125 65.10546875 152.42578125 C66.42546875 152.75578125 67.74546875 153.08578125 69.10546875 153.42578125 C70.83418274 154.64570618 70.83418274 154.64570618 72.10546875 156.42578125 C72.4662323 158.91252136 72.4662323 158.91252136 72.44604492 161.90698242 C72.44581833 163.02791794 72.44559174 164.14885345 72.44535828 165.30375671 C72.42987442 166.5132045 72.41439056 167.72265228 72.3984375 168.96875 C72.39419266 170.20748367 72.38994781 171.44621735 72.38557434 172.7224884 C72.37161608 176.01227126 72.34467088 179.30161328 72.3114624 182.59124756 C72.28074808 185.94944871 72.26706614 189.30771443 72.25195312 192.66601562 C72.21884234 199.25277699 72.16861132 205.83924305 72.10546875 212.42578125 C72.93401367 212.40837891 73.76255859 212.39097656 74.61621094 212.37304688 C75.70063477 212.35951172 76.78505859 212.34597656 77.90234375 212.33203125 C79.51641113 212.30592773 79.51641113 212.30592773 81.16308594 212.27929688 C84.10546875 212.42578125 84.10546875 212.42578125 87.35546875 213.92578125 C89.46702824 216.94229481 89.66483308 218.82031871 89.671875 222.42578125 C89.10546875 224.42578125 89.10546875 224.42578125 85.10546875 228.42578125 C80.81546875 228.42578125 76.52546875 228.42578125 72.10546875 228.42578125 C72.10546875 241.95578125 72.10546875 255.48578125 72.10546875 269.42578125 C78.04546875 269.32265625 83.98546875 269.21953125 90.10546875 269.11328125 C91.96429688 269.08838623 93.823125 269.06349121 95.73828125 269.0378418 C97.23570164 269.00551257 98.73309988 268.97213336 100.23046875 268.9375 C101.36742187 268.92813416 101.36742187 268.92813416 102.52734375 268.9185791 C110.29792817 268.71204778 116.77507587 266.48329938 122.56640625 261.16796875 C127.76405949 255.28433082 129.1873695 248.47909182 129.31079102 240.80932617 C129.33073624 239.70856247 129.35068146 238.60779877 129.37123108 237.47367859 C129.38794357 236.29642715 129.40465607 235.11917572 129.421875 233.90625 C129.45304665 232.0856884 129.45304665 232.0856884 129.48484802 230.22834778 C129.55015791 226.35671574 129.60914238 222.4850167 129.66796875 218.61328125 C129.7111716 215.98632123 129.75478646 213.35936796 129.79882812 210.73242188 C129.90582033 204.29694554 130.00762111 197.86140276 130.10546875 191.42578125 C128.86156372 191.45406006 128.86156372 191.45406006 127.5925293 191.48291016 C126.5075415 191.49757324 125.42255371 191.51223633 124.3046875 191.52734375 C122.68953247 191.55562256 122.68953247 191.55562256 121.04174805 191.58447266 C118.10546875 191.42578125 118.10546875 191.42578125 114.91796875 189.80078125 C112.67142396 186.8570329 112.10546875 185.13008719 112.10546875 181.42578125 C114.23590353 176.86056386 114.23590353 176.86056386 117.10546875 175.42578125 C119.31276105 175.35485283 121.52214327 175.341631 123.73046875 175.36328125 C124.91898437 175.37230469 126.1075 175.38132813 127.33203125 175.390625 C128.70488281 175.40802734 128.70488281 175.40802734 130.10546875 175.42578125 C130.0590625 174.69875 130.01265625 173.97171875 129.96484375 173.22265625 C129.47505159 159.57844611 134.14478687 147.94799713 143.4296875 137.9140625 C151.22150973 130.51366619 161.0526274 124.22212756 172.10546875 124.42578125 C172.05326172 123.07033203 172.05326172 123.07033203 172 121.6875 C171.97292969 120.50800781 171.94585937 119.32851562 171.91796875 118.11328125 C171.86576172 116.35564453 171.86576172 116.35564453 171.8125 114.5625 C172.10546875 111.42578125 172.10546875 111.42578125 173.4375 109.5625 C175.99568597 107.81909926 178.03093072 107.54876277 181.10546875 107.42578125 C183.93364682 108.64703996 185.57956795 109.59703412 187.23828125 112.2109375 C188.26993764 114.84584368 188.30468136 116.85570214 188.23046875 119.67578125 C188.21242188 120.5678125 188.194375 121.45984375 188.17578125 122.37890625 C188.15257812 123.054375 188.129375 123.72984375 188.10546875 124.42578125 C189.07484375 124.50828125 190.04421875 124.59078125 191.04296875 124.67578125 C195.12498636 125.2150722 198.38192741 126.86390051 201.9921875 128.78125 C204.11453484 129.65412067 204.11453484 129.65412067 206.2265625 128.69921875 C208.33034503 127.37653839 208.33034503 127.37653839 210.48046875 124.86328125 C213.52064954 122.04025623 214.98590317 121.42578125 219.10546875 121.42578125 C221.43278431 122.56357997 223.27387589 123.59418839 225.10546875 125.42578125 C225.91826496 132.16037841 225.91826496 132.16037841 223.765625 135.51171875 C222.27451836 137.23087699 220.75298364 138.85671945 219.10546875 140.42578125 C220.23118154 142.69344308 221.37660873 144.94816778 222.54296875 147.1953125 C228.84247296 159.46359694 230.28223475 170.18303927 230.203125 183.80859375 C230.20100258 185.21901443 230.20100258 185.21901443 230.19883728 186.65792847 C230.19329883 189.62224693 230.18075837 192.58648613 230.16796875 195.55078125 C230.16294578 197.57682182 230.15838428 199.60286358 230.15429688 201.62890625 C230.14334967 206.56122784 230.12612856 211.49349117 230.10546875 216.42578125 C230.9253125 216.39097656 231.74515625 216.35617188 232.58984375 216.3203125 C234.20632813 216.27970703 234.20632813 216.27970703 235.85546875 216.23828125 C236.9228125 216.20347656 237.99015625 216.16867188 239.08984375 216.1328125 C242.44980112 216.45923323 243.7415572 217.0618697 246.10546875 219.42578125 C247.27954509 223.02628203 247.43306551 224.70506838 245.85546875 228.17578125 C244.10546875 230.42578125 244.10546875 230.42578125 241.10546875 232.42578125 C238.40625 232.62109375 238.40625 232.62109375 235.41796875 232.55078125 C234.42410156 232.53273437 233.43023437 232.5146875 232.40625 232.49609375 C231.64699219 232.47289062 230.88773437 232.4496875 230.10546875 232.42578125 C230.12867188 233.204375 230.151875 233.98296875 230.17578125 234.78515625 C230.6426755 263.73259977 224.60484531 296.76434363 205.10546875 319.42578125 C202.60546875 320.92578125 202.60546875 320.92578125 200.10546875 321.42578125 C199.00138672 321.01005859 199.00138672 321.01005859 197.875 320.5859375 C194.59658968 320.39635383 194.18802932 320.83032956 191.7734375 322.890625 C190.59743677 324.03207655 189.43770066 325.19047342 188.29296875 326.36328125 C187.69548828 326.92080078 187.09800781 327.47832031 186.48242188 328.05273438 C183.20042608 331.2453053 183.20042608 331.2453053 181.89697266 335.47705078 C181.96343994 336.50548096 181.96343994 336.50548096 182.03125 337.5546875 C182.10546875 341.42578125 182.10546875 341.42578125 180 344.15234375 C154.20362561 364.41346371 124.52127837 370.04560328 92.41796875 369.61328125 C90.43295306 369.59818052 88.44792604 369.58450181 86.46289062 369.57226562 C81.67655937 369.54233859 76.89186157 369.48355175 72.10546875 369.42578125 C72.10546875 376.68578125 72.10546875 383.94578125 72.10546875 391.42578125 C73.98234375 391.34328125 75.85921875 391.26078125 77.79296875 391.17578125 C81.65736132 391.19403104 83.81287169 391.29073645 87.35546875 392.92578125 C89.46702824 395.94229481 89.66483308 397.82031871 89.671875 401.42578125 C88.82789514 404.40590322 87.58535686 405.59123227 85.10546875 407.42578125 C80.71333146 407.95623261 76.54658949 407.60342608 72.10546875 407.42578125 C72.10546875 413.03578125 72.10546875 418.64578125 72.10546875 424.42578125 C73.98234375 424.34328125 75.85921875 424.26078125 77.79296875 424.17578125 C81.65736132 424.19403104 83.81287169 424.29073645 87.35546875 425.92578125 C89.46702824 428.94229481 89.66483308 430.82031871 89.671875 434.42578125 C88.8371891 437.37308594 87.49730105 438.53091175 85.10546875 440.42578125 C81.87109375 440.81640625 81.87109375 440.81640625 78.35546875 440.67578125 C77.185 440.6396875 76.01453125 440.60359375 74.80859375 440.56640625 C73.9165625 440.52 73.02453125 440.47359375 72.10546875 440.42578125 C72.1143512 441.26880798 72.12323364 442.11183472 72.13238525 442.98040771 C72.21253925 450.92582318 72.27343716 458.87110283 72.31271744 466.81682968 C72.33359086 470.90182495 72.36190338 474.9864861 72.40722656 479.07128906 C72.45069405 483.0135247 72.4746077 486.95543902 72.48497772 490.89789581 C72.49236757 492.40182809 72.50679842 493.90574282 72.52838898 495.40953827 C72.55743687 497.51657584 72.56142446 499.62228654 72.55957031 501.72949219 C72.56845276 502.92862244 72.57733521 504.12775269 72.58648682 505.36322021 C72.01032811 509.03152569 71.01211326 510.19265125 68.10546875 512.42578125 C65.19761994 513.13460428 63.16292975 512.76549914 60.10546875 512.42578125 C57.43115386 510.61414858 57.14626516 509.54817048 56.10546875 506.42578125 C46.53546875 506.09578125 36.96546875 505.76578125 27.10546875 505.42578125 C26.77546875 507.07578125 26.44546875 508.72578125 26.10546875 510.42578125 C22.89090805 512.56882171 20.87618459 512.89788599 17.046875 512.8203125 C15.10546875 512.42578125 15.10546875 512.42578125 12.60546875 510.05078125 C11.10546875 507.42578125 11.10546875 507.42578125 11.10546875 505.42578125 C-0.77453125 505.42578125 -12.65453125 505.42578125 -24.89453125 505.42578125 C-25.55453125 507.07578125 -26.21453125 508.72578125 -26.89453125 510.42578125 C-28.89453125 512.42578125 -28.89453125 512.42578125 -32.76953125 512.80078125 C-35.92180492 512.72627296 -36.738418 512.53896336 -39.39453125 510.61328125 C-40.89453125 508.42578125 -40.89453125 508.42578125 -40.89453125 505.42578125 C-44.97050054 505.44519244 -49.04465927 505.49687451 -53.11987305 505.57836914 C-54.50582088 505.60155203 -55.89194495 505.61594566 -57.27807617 505.62133789 C-59.27156445 505.63062322 -61.26479953 505.67424103 -63.2578125 505.71875 C-64.45704346 505.73446045 -65.65627441 505.7501709 -66.8918457 505.76635742 C-70.09216757 506.12587912 -70.09216757 506.12587912 -71.74682617 508.9074707 C-72.12556885 509.73851318 -72.50431152 510.56955566 -72.89453125 511.42578125 C-74.74485115 513.27610115 -77.31925207 512.71718257 -79.7890625 512.8515625 C-82.99984859 512.20225696 -83.94497216 511.0670364 -85.89453125 508.42578125 C-86.48277783 505.24774684 -86.39949947 502.10724998 -86.34863281 498.88378906 C-86.34921692 497.91760147 -86.34980103 496.95141388 -86.35040283 495.95594788 C-86.34761672 492.76323486 -86.3164991 489.57145611 -86.28515625 486.37890625 C-86.27769576 484.16502391 -86.27200192 481.95113496 -86.26800537 479.73724365 C-86.25273408 473.91080487 -86.21343893 468.08476505 -86.16918945 462.25848389 C-86.12826926 456.31300249 -86.11000128 450.36745663 -86.08984375 444.421875 C-86.0469465 432.75633515 -85.97867672 421.09109138 -85.89453125 409.42578125 C-86.7865625 409.4721875 -87.67859375 409.51859375 -88.59765625 409.56640625 C-89.768125 409.6025 -90.93859375 409.63859375 -92.14453125 409.67578125 C-93.3046875 409.7221875 -94.46484375 409.76859375 -95.66015625 409.81640625 C-98.89453125 409.42578125 -98.89453125 409.42578125 -101.28100586 407.53515625 C-103.49175834 404.64502137 -103.55108641 402.86616883 -103.3203125 399.33203125 C-102.89453125 397.42578125 -102.89453125 397.42578125 -101.14453125 394.92578125 C-96.05418946 392.57639273 -91.46288564 393.18101842 -85.89453125 393.42578125 C-85.89453125 385.83578125 -85.89453125 378.24578125 -85.89453125 370.42578125 C-87.77140625 370.50828125 -89.64828125 370.59078125 -91.58203125 370.67578125 C-95.44642382 370.65753146 -97.60193419 370.56082605 -101.14453125 368.92578125 C-103.25609074 365.90926769 -103.45389558 364.03124379 -103.4609375 360.42578125 C-102.89453125 358.42578125 -102.89453125 358.42578125 -98.89453125 354.42578125 C-94.60453125 354.42578125 -90.31453125 354.42578125 -85.89453125 354.42578125 C-85.89453125 340.56578125 -85.89453125 326.70578125 -85.89453125 312.42578125 C-90.18453125 312.42578125 -94.47453125 312.42578125 -98.89453125 312.42578125 C-102.89453125 308.42578125 -102.89453125 308.42578125 -103.4609375 306.42578125 C-103.45389558 302.82031871 -103.25609074 300.94229481 -101.14453125 297.92578125 C-96.05418946 295.57639273 -91.46288564 296.18101842 -85.89453125 296.42578125 C-85.89453125 290.15578125 -85.89453125 283.88578125 -85.89453125 277.42578125 C-88.94574219 277.46058594 -91.99695313 277.49539063 -95.140625 277.53125 C-98.15599638 277.55476828 -101.17135684 277.57291465 -104.18676758 277.59057617 C-106.25322175 277.60549352 -108.31964524 277.62583466 -110.38598633 277.65209961 C-140.40749741 278.02363493 -171.14852729 271.76245408 -194.73828125 251.87109375 C-196.14453125 250.42578125 -196.14453125 250.42578125 -197.89453125 247.42578125 C-197.77078125 246.20890625 -197.64703125 244.99203125 -197.51953125 243.73828125 C-197.22554449 241.65555736 -197.22554449 241.65555736 -197.89453125 239.42578125 C-200.56234768 236.25614083 -203.42130536 233.51811072 -206.48828125 230.74609375 C-207.28234375 229.98039063 -208.07640625 229.2146875 -208.89453125 228.42578125 C-208.89453125 227.76578125 -208.89453125 227.10578125 -208.89453125 226.42578125 C-209.55453125 226.75578125 -210.21453125 227.08578125 -210.89453125 227.42578125 C-214.14453125 227.92578125 -214.14453125 227.92578125 -217.89453125 227.42578125 C-236.44009791 210.85314722 -242.18900884 180.35068736 -243.76269531 156.89208984 C-244.05618296 151.40169683 -244.06079204 145.92162408 -243.89453125 140.42578125 C-244.6421875 140.44898438 -245.38984375 140.4721875 -246.16015625 140.49609375 C-247.145 140.51414063 -248.12984375 140.5321875 -249.14453125 140.55078125 C-250.1190625 140.57398438 -251.09359375 140.5971875 -252.09765625 140.62109375 C-254.94676519 140.42213363 -256.5093025 139.95102956 -258.89453125 138.42578125 C-260.78339378 135.90729787 -260.90168964 134.59758257 -260.76953125 131.42578125 C-259.73934806 127.89372459 -258.775934 126.6807921 -255.89453125 124.42578125 C-252.87890625 124.03515625 -252.87890625 124.03515625 -249.64453125 124.17578125 C-248.566875 124.211875 -247.48921875 124.24796875 -246.37890625 124.28515625 C-245.5590625 124.3315625 -244.73921875 124.37796875 -243.89453125 124.42578125 C-243.90500488 123.16096924 -243.91547852 121.89615723 -243.92626953 120.59301758 C-243.96282352 115.84239601 -243.9855589 111.09178655 -244.00439453 106.34106445 C-244.01437224 104.2957957 -244.0279592 102.25054091 -244.04541016 100.20532227 C-244.28210802 71.72499991 -244.28210802 71.72499991 -239.51953125 60.92578125 C-238.92011719 59.518125 -238.92011719 59.518125 -238.30859375 58.08203125 C-236.78732201 55.22439373 -234.98950557 52.88626172 -232.89453125 50.42578125 C-233.99393547 47.86050474 -234.80134775 46.49977991 -237.01953125 44.73828125 C-239.53022696 41.64175655 -239.33466812 39.4269479 -239.328125 35.546875 C-238.78577963 32.89378009 -238.07565338 32.00893282 -235.89453125 30.42578125 C-232.78521577 29.59422013 -230.01642994 29.67239743 -226.89453125 30.42578125 C-224.14164151 32.44155844 -222.00992327 34.75943504 -219.89453125 37.42578125 C-219.09015625 37.15765625 -218.28578125 36.88953125 -217.45703125 36.61328125 C-216.28140625 36.22140625 -215.10578125 35.82953125 -213.89453125 35.42578125 C-213.1365625 35.16152344 -212.37859375 34.89726563 -211.59765625 34.625 C-210.80875 34.35300781 -210.01984375 34.08101562 -209.20703125 33.80078125 C-208.46066406 33.54039063 -207.71429688 33.28 -206.9453125 33.01171875 C-204.89453125 32.42578125 -204.89453125 32.42578125 -201.89453125 32.42578125 C-201.94673828 31.42998047 -201.94673828 31.42998047 -202 30.4140625 C-202.26986878 21.61119979 -202.26986878 21.61119979 -198.89453125 17.42578125 C-197.04421135 15.57546135 -194.46981043 16.13437993 -192 16 C-188.88249465 16.63044171 -187.76788889 17.893202 -185.89453125 20.42578125 C-185.50390625 23.44140625 -185.50390625 23.44140625 -185.64453125 26.67578125 C-185.680625 27.7534375 -185.71671875 28.83109375 -185.75390625 29.94140625 C-185.8003125 30.76125 -185.84671875 31.58109375 -185.89453125 32.42578125 C-184.86328125 32.44640625 -183.83203125 32.46703125 -182.76953125 32.48828125 C-171.52983582 33.90824277 -160.67762837 41.4336725 -153.77734375 50.078125 C-146.38115843 60.38672762 -142.97917726 70.73795786 -143.89453125 83.42578125 C-143.0025 83.379375 -142.11046875 83.33296875 -141.19140625 83.28515625 C-140.0209375 83.2490625 -138.85046875 83.21296875 -137.64453125 83.17578125 C-136.484375 83.129375 -135.32421875 83.08296875 -134.12890625 83.03515625 C-130.89453125 83.42578125 -130.89453125 83.42578125 -128.52734375 85.2890625 C-126.60860917 87.79994244 -126.04831765 89.27315998 -125.89453125 92.42578125 C-126.62678361 95.28822229 -127.10071879 96.89229528 -129.5859375 98.5625 C-132.54591856 99.66936263 -134.99299041 99.61929301 -138.14453125 99.55078125 C-139.2221875 99.53273438 -140.29984375 99.5146875 -141.41015625 99.49609375 C-142.23 99.47289063 -143.04984375 99.4496875 -143.89453125 99.42578125 C-143.827233 107.07583003 -143.73731041 114.7253797 -143.63208008 122.375 C-143.59894321 124.97422339 -143.57087676 127.57351678 -143.5480957 130.17285156 C-143.51434327 133.92152583 -143.46201539 137.66956496 -143.40625 141.41796875 C-143.39986008 142.56941376 -143.39347015 143.72085876 -143.3868866 144.90719604 C-143.23732307 153.22164969 -142.61352793 162.33568348 -136.76953125 168.80078125 C-136.25132812 169.40664062 -135.733125 170.0125 -135.19921875 170.63671875 C-125.8858266 177.86643673 -115.60728963 177.08638582 -104.33203125 177.17578125 C-102.54228924 177.20397637 -100.7525737 177.23390868 -98.96289062 177.265625 C-94.60651536 177.34230043 -90.25190248 177.38320801 -85.89453125 177.42578125 C-85.89453125 167.19578125 -85.89453125 156.96578125 -85.89453125 146.42578125 C-90.18453125 146.42578125 -94.47453125 146.42578125 -98.89453125 146.42578125 C-102.89453125 142.42578125 -102.89453125 142.42578125 -103.4609375 140.42578125 C-103.45389558 136.82031871 -103.25609074 134.94229481 -101.14453125 131.92578125 C-97.5815964 130.28134978 -95.56905679 130.26931992 -91.69140625 130.33203125 C-90.60698242 130.34556641 -89.52255859 130.35910156 -88.40527344 130.37304688 C-87.57672852 130.39044922 -86.74818359 130.40785156 -85.89453125 130.42578125 C-85.9034137 129.87027084 -85.91229614 129.31476044 -85.92144775 128.74241638 C-86.01093833 122.88478033 -86.07068009 117.02734282 -86.11425781 111.16918945 C-86.13419492 108.99202569 -86.16135464 106.81491421 -86.19628906 104.63793945 C-86.45302733 88.2104657 -85.42837458 74.31960999 -77.89453125 59.42578125 C-77.32992187 58.27722656 -77.32992187 58.27722656 -76.75390625 57.10546875 C-75.81393772 55.20567321 -74.85616422 53.31470316 -73.89453125 51.42578125 C-74.63509766 50.66394531 -74.63509766 50.66394531 -75.390625 49.88671875 C-78.29465868 46.76648941 -80.58798805 44.29432031 -82.01953125 40.23828125 C-81.8672999 36.81307577 -80.97459086 35.12215482 -78.89453125 32.42578125 C-75.70402271 30.83052698 -73.41955151 31.01452889 -69.89453125 31.42578125 C-67.49914442 33.21579799 -65.85706455 35.12818129 -63.89453125 37.42578125 C-60.23987308 35.77811761 -57.19315577 33.52787175 -53.95703125 31.17578125 C-40.95959355 22.03922297 -25.96103074 15.96215307 -9.89453125 16.42578125 C-9.92933594 15.76191406 -9.96414062 15.09804687 -10 14.4140625 C-10.26986878 5.61119979 -10.26986878 5.61119979 -6.89453125 1.42578125 C-5.04421135 -0.42453865 -2.46981043 0.13437993 0 0 Z " fill="#000201" transform="translate(262.89453125,-0.42578125)"/>
<path d="M0 0 C14.29488532 7.14744266 23.57975525 20.46936003 28.81591797 35.31298828 C32.06979305 46.22827774 31.46663474 57.56148993 31.51123047 68.84033203 C31.52689318 71.58130734 31.55984293 74.3216996 31.59375 77.0625 C31.59072876 77.90103516 31.58770752 78.73957031 31.58459473 79.60351562 C31.62909699 83.04455085 31.69321543 85.39958548 33.27539062 88.49609375 C35.14793577 90.35914498 35.14793577 90.35914498 39 91 C39 97.6 39 104.2 39 111 C40.32 111.33 41.64 111.66 43 112 C44.72871399 113.21992493 44.72871399 113.21992493 46 115 C46.36076355 117.48674011 46.36076355 117.48674011 46.34057617 120.48120117 C46.34023628 122.16260445 46.34023628 122.16260445 46.33988953 123.87797546 C46.32440567 125.08742325 46.30892181 126.29687103 46.29296875 127.54296875 C46.28872391 128.78170242 46.28447906 130.0204361 46.28010559 131.29670715 C46.26614733 134.58649001 46.23920213 137.87583203 46.20599365 141.16546631 C46.17527933 144.52366746 46.16159739 147.88193318 46.14648438 151.24023438 C46.11337359 157.82699574 46.06314257 164.4134618 46 171 C46.82854492 170.98259766 47.65708984 170.96519531 48.51074219 170.94726562 C49.59516602 170.93373047 50.67958984 170.92019531 51.796875 170.90625 C53.41094238 170.88014648 53.41094238 170.88014648 55.05761719 170.85351562 C58 171 58 171 61.25 172.5 C63.36155949 175.51651356 63.55936433 177.39453746 63.56640625 181 C63 183 63 183 59 187 C54.71 187 50.42 187 46 187 C46 200.53 46 214.06 46 228 C51.94 227.896875 57.88 227.79375 64 227.6875 C65.85882813 227.66260498 67.71765625 227.63770996 69.6328125 227.61206055 C71.13023289 227.57973132 72.62763113 227.54635211 74.125 227.51171875 C74.88296875 227.50547485 75.6409375 227.49923096 76.421875 227.49279785 C84.19245942 227.28626653 90.66960712 225.05751813 96.4609375 219.7421875 C101.65859074 213.85854957 103.08190075 207.05331057 103.20532227 199.38354492 C103.22526749 198.28278122 103.24521271 197.18201752 103.26576233 196.04789734 C103.28247482 194.8706459 103.29918732 193.69339447 103.31640625 192.48046875 C103.3475779 190.65990715 103.3475779 190.65990715 103.37937927 188.80256653 C103.44468916 184.93093449 103.50367363 181.05923545 103.5625 177.1875 C103.60570285 174.56053998 103.64931771 171.93358671 103.69335938 169.30664062 C103.80035158 162.87116429 103.90215236 156.43562151 104 150 C102.75609497 150.02827881 102.75609497 150.02827881 101.48706055 150.05712891 C100.40207275 150.07179199 99.31708496 150.08645508 98.19921875 150.1015625 C96.58406372 150.12984131 96.58406372 150.12984131 94.9362793 150.15869141 C92 150 92 150 88.8125 148.375 C86.56595521 145.43125165 86 143.70430594 86 140 C88.13043478 135.43478261 88.13043478 135.43478261 91 134 C93.2072923 133.92907158 95.41667452 133.91584975 97.625 133.9375 C98.81351562 133.94652344 100.00203125 133.95554688 101.2265625 133.96484375 C102.14179688 133.97644531 103.05703125 133.98804688 104 134 C103.95359375 133.27296875 103.9071875 132.5459375 103.859375 131.796875 C103.36958284 118.15266486 108.03931812 106.52221588 117.32421875 96.48828125 C125.11604098 89.08788494 134.94715865 82.79634631 146 83 C145.96519531 82.09636719 145.93039062 81.19273438 145.89453125 80.26171875 C145.86746094 79.08222656 145.84039062 77.90273437 145.8125 76.6875 C145.77769531 75.51574219 145.74289062 74.34398438 145.70703125 73.13671875 C146 70 146 70 147.33203125 68.13671875 C149.89021722 66.39331801 151.92546197 66.12298152 155 66 C157.82817807 67.22125871 159.4740992 68.17125287 161.1328125 70.78515625 C162.16446889 73.42006243 162.19921261 75.42992089 162.125 78.25 C162.10695313 79.14203125 162.08890625 80.0340625 162.0703125 80.953125 C162.04710937 81.62859375 162.02390625 82.3040625 162 83 C162.969375 83.0825 163.93875 83.165 164.9375 83.25 C169.01951761 83.78929095 172.27645866 85.43811926 175.88671875 87.35546875 C178.00906609 88.22833942 178.00906609 88.22833942 180.12109375 87.2734375 C182.22487628 85.95075714 182.22487628 85.95075714 184.375 83.4375 C187.41518079 80.61447498 188.88043442 80 193 80 C195.32731556 81.13779872 197.16840714 82.16840714 199 84 C199.81279621 90.73459716 199.81279621 90.73459716 197.66015625 94.0859375 C196.16904961 95.80509574 194.64751489 97.4309382 193 99 C194.12571279 101.26766183 195.27113998 103.52238653 196.4375 105.76953125 C202.73700421 118.03781569 204.176766 128.75725802 204.09765625 142.3828125 C204.09553383 143.79323318 204.09553383 143.79323318 204.09336853 145.23214722 C204.08783008 148.19646568 204.07528962 151.16070488 204.0625 154.125 C204.05747703 156.15104057 204.05291553 158.17708233 204.04882812 160.203125 C204.03788092 165.13544659 204.02065981 170.06770992 204 175 C204.81984375 174.96519531 205.6396875 174.93039063 206.484375 174.89453125 C207.56203125 174.86746094 208.6396875 174.84039062 209.75 174.8125 C210.81734375 174.77769531 211.8846875 174.74289063 212.984375 174.70703125 C216.34433237 175.03345198 217.63608845 175.63608845 220 178 C221.17407634 181.60050078 221.32759676 183.27928713 219.75 186.75 C218 189 218 189 215 191 C212.30078125 191.1953125 212.30078125 191.1953125 209.3125 191.125 C208.31863281 191.10695312 207.32476562 191.08890625 206.30078125 191.0703125 C205.54152344 191.04710937 204.78226563 191.02390625 204 191 C204.02320313 191.77859375 204.04640625 192.5571875 204.0703125 193.359375 C204.53720675 222.30681852 198.49937656 255.33856238 179 278 C176.5 279.5 176.5 279.5 174 280 C173.26394531 279.72285156 172.52789062 279.44570313 171.76953125 279.16015625 C168.49112093 278.97057258 168.08256057 279.40454831 165.66796875 281.46484375 C164.49196802 282.6062953 163.33223191 283.76469217 162.1875 284.9375 C161.59001953 285.49501953 160.99253906 286.05253906 160.37695312 286.62695312 C157.09495733 289.81952405 157.09495733 289.81952405 155.79150391 294.05126953 C155.85797119 295.07969971 155.85797119 295.07969971 155.92578125 296.12890625 C156 300 156 300 153.89453125 302.7265625 C128.09815686 322.98768246 98.41580962 328.61982203 66.3125 328.1875 C64.32748431 328.17239927 62.34245729 328.15872056 60.35742188 328.14648438 C55.57109062 328.11655734 50.78639282 328.0577705 46 328 C46 335.26 46 342.52 46 350 C47.876875 349.9175 49.75375 349.835 51.6875 349.75 C55.55189257 349.76824979 57.70740294 349.8649552 61.25 351.5 C63.36155949 354.51651356 63.55936433 356.39453746 63.56640625 360 C62.72242639 362.98012197 61.47988811 364.16545102 59 366 C54.60786271 366.53045136 50.44112074 366.17764483 46 366 C46 371.61 46 377.22 46 383 C47.876875 382.9175 49.75375 382.835 51.6875 382.75 C55.55189257 382.76824979 57.70740294 382.8649552 61.25 384.5 C63.36155949 387.51651356 63.55936433 389.39453746 63.56640625 393 C62.73172035 395.94730469 61.3918323 397.1051305 59 399 C55.765625 399.390625 55.765625 399.390625 52.25 399.25 C51.07953125 399.21390625 49.9090625 399.1778125 48.703125 399.140625 C47.81109375 399.09421875 46.9190625 399.0478125 46 399 C46.00888245 399.84302673 46.01776489 400.68605347 46.0269165 401.55462646 C46.1070705 409.50004193 46.16796841 417.44532158 46.20724869 425.39104843 C46.22812211 429.4760437 46.25643463 433.56070485 46.30175781 437.64550781 C46.3452253 441.58774345 46.36913895 445.52965777 46.37950897 449.47211456 C46.38689882 450.97604684 46.40132967 452.47996157 46.42292023 453.98375702 C46.45196812 456.09079459 46.45595571 458.19650529 46.45410156 460.30371094 C46.46298401 461.50284119 46.47186646 462.70197144 46.48101807 463.93743896 C45.90485936 467.60574444 44.90664451 468.76687 42 471 C39.09215119 471.70882303 37.057461 471.33971789 34 471 C31.32568511 469.18836733 31.04079641 468.12238923 30 465 C20.43 464.67 10.86 464.34 1 464 C1 420.44 1 376.88 1 332 C3.97 331.67 6.94 331.34 10 331 C14 329.5 14 329.5 15 327 C15.41673207 323.54199641 15.41673207 323.54199641 15 320 C10.48921424 316.0779322 10.48921424 316.0779322 1 316 C1 255.61 1 195.22 1 133 C4.96 132.67 8.92 132.34 13 132 C14.98 130.02 14.98 130.02 17 128 C17.08916154 124.37350049 17.08916154 124.37350049 16 121 C11.92898075 117.93665831 11.92898075 117.93665831 1 118 C0.67 79.06 0.34 40.12 0 0 Z " fill="#000100" transform="translate(289,41)"/>
<path d="M0 0 C4.52815133 2.96671983 7.45827109 7.32793828 9.15234375 12.41015625 C9.24615942 15.1206705 9.28265558 17.80508921 9.27259827 20.51554871 C9.27345269 21.35115666 9.27430712 22.18676462 9.27518743 23.04769403 C9.27683919 25.85758256 9.27132579 28.66741186 9.26586914 31.47729492 C9.26558718 33.48756407 9.26574518 35.49783333 9.26631165 37.50810242 C9.26659926 42.97470155 9.26070825 48.44127887 9.25373769 53.90787292 C9.24749826 59.61739858 9.24689988 65.3269247 9.24571228 71.03645325 C9.24260071 81.85239459 9.23438965 92.66832586 9.22436279 103.48426276 C9.21319626 115.79606772 9.20768984 128.10787315 9.20266736 140.41968191 C9.19220691 165.74984561 9.17461082 191.08000037 9.15234375 216.41015625 C7.68861328 216.46623047 7.68861328 216.46623047 6.1953125 216.5234375 C4.92300781 216.58917969 3.65070313 216.65492188 2.33984375 216.72265625 C0.44298828 216.80966797 0.44298828 216.80966797 -1.4921875 216.8984375 C-4.77327395 217.14424126 -4.77327395 217.14424126 -6.77734375 218.765625 C-8.4501751 221.33592426 -8.15845219 223.4265152 -7.84765625 226.41015625 C-7.18765625 227.40015625 -6.52765625 228.39015625 -5.84765625 229.41015625 C-3.22088078 229.79679399 -0.85651944 230.01193224 1.77734375 230.09765625 C5.42796875 230.25234375 5.42796875 230.25234375 9.15234375 230.41015625 C9.15234375 239.32015625 9.15234375 248.23015625 9.15234375 257.41015625 C6.90421875 257.51328125 4.65609375 257.61640625 2.33984375 257.72265625 C-2.51959073 257.79953127 -2.51959073 257.79953127 -6.77734375 259.765625 C-8.4501751 262.33592426 -8.15845219 264.4265152 -7.84765625 267.41015625 C-6.85765625 268.89515625 -6.85765625 268.89515625 -5.84765625 270.41015625 C-0.89765625 270.74015625 4.05234375 271.07015625 9.15234375 271.41015625 C9.15234375 337.41015625 9.15234375 403.41015625 9.15234375 471.41015625 C-3.38765625 471.41015625 -15.92765625 471.41015625 -28.84765625 471.41015625 C-28.84765625 342.05015625 -28.84765625 212.69015625 -28.84765625 79.41015625 C-23.40265625 78.91515625 -23.40265625 78.91515625 -17.84765625 78.41015625 C-14.48468401 74.82457763 -14.48468401 74.82457763 -15.03515625 71.28515625 C-15.62376543 68.30861183 -15.62376543 68.30861183 -17.84765625 66.41015625 C-20.51008446 65.94725404 -20.51008446 65.94725404 -23.47265625 65.78515625 C-24.47554687 65.71039063 -25.4784375 65.635625 -26.51171875 65.55859375 C-27.66800781 65.48511719 -27.66800781 65.48511719 -28.84765625 65.41015625 C-28.94938988 58.00874623 -29.01926195 50.60751772 -29.06738281 43.20556641 C-29.08745141 40.68954734 -29.11471255 38.17357464 -29.14941406 35.65771484 C-29.19813937 32.03341197 -29.22067347 28.40972784 -29.23828125 24.78515625 C-29.25892639 23.66713623 -29.27957153 22.54911621 -29.30084229 21.3972168 C-29.30301746 13.7620753 -28.403567 8.00701799 -22.8125 2.3515625 C-22.14347656 1.89652344 -21.47445312 1.44148438 -20.78515625 0.97265625 C-20.11355469 0.49957031 -19.44195312 0.02648438 -18.75 -0.4609375 C-12.49644106 -4.17198172 -6.24179786 -2.97685744 0 0 Z " fill="#2CAD7E" transform="translate(265.84765625,33.58984375)"/>
<path d="M0 0 C8.47073579 5.26958564 14.76084435 13.0569876 17.2313385 22.82133484 C17.80934804 26.4332999 17.84813581 29.99224995 17.86108398 33.63989258 C17.867771 34.42756516 17.87445801 35.21523773 17.88134766 36.02677917 C17.89535944 37.73186027 17.90726569 39.43695969 17.91729546 41.14206886 C17.93377247 43.84573141 17.95701358 46.5492587 17.98219299 49.25285339 C18.05277914 56.93811239 18.11299203 64.62342646 18.16430664 72.30883789 C18.19620638 77.01552848 18.23750832 81.72206221 18.28450203 86.42862511 C18.30045469 88.21665296 18.31280711 90.00471686 18.32140923 91.79279518 C18.33364724 94.30058225 18.35783179 96.80800461 18.38452148 99.31567383 C18.38511063 100.04581696 18.38569977 100.77596008 18.38630676 101.52822876 C18.55476442 113.55339938 22.98417167 122.64287103 31.12890625 131.3359375 C40.18073771 139.60005233 50.757136 141.90570656 62.66015625 142.0859375 C63.46867538 142.10530365 64.27719452 142.1246698 65.11021423 142.1446228 C67.65670697 142.2037249 70.20324664 142.25052211 72.75 142.296875 C74.49155463 142.33511887 76.23309164 142.37417417 77.97460938 142.4140625 C82.21214045 142.51087425 86.44951632 142.59098932 90.6875 142.671875 C90.6875 151.581875 90.6875 160.491875 90.6875 169.671875 C81.4475 169.671875 72.2075 169.671875 62.6875 169.671875 C62.3575 165.381875 62.0275 161.091875 61.6875 156.671875 C58.975743 153.33236555 58.975743 153.33236555 55.1875 153.296875 C51.83744419 153.3784947 51.83744419 153.3784947 50.01171875 154.80859375 C48.13392293 157.45080203 48.17251339 159.65062595 48 162.859375 C47.93425781 163.94605469 47.86851562 165.03273437 47.80078125 166.15234375 C47.76339844 166.98378906 47.72601563 167.81523437 47.6875 168.671875 C40.8021699 167.57942179 34.88392684 165.86580558 28.6875 162.671875 C27.76066406 162.21167969 26.83382812 161.75148437 25.87890625 161.27734375 C9.08598468 152.30219321 -1.18166268 137.87715477 -7.40234375 120.05859375 C-9.36325119 112.76199826 -9.44587353 105.67356579 -9.375 98.171875 C-9.37048828 97.2540625 -9.36597656 96.33625 -9.36132812 95.390625 C-9.34966348 93.1510129 -9.33173286 90.91143489 -9.3125 88.671875 C-4.3625 88.341875 0.5875 88.011875 5.6875 87.671875 C5.9659375 85.5371875 5.9659375 85.5371875 6.25 83.359375 C6.35441406 82.55886719 6.45882812 81.75835937 6.56640625 80.93359375 C6.83505178 78.50370384 6.83505178 78.50370384 5.6875 75.671875 C0.7375 75.341875 -4.2125 75.011875 -9.3125 74.671875 C-9.32708252 73.26381592 -9.34166504 71.85575684 -9.35668945 70.4050293 C-9.41459523 65.18846036 -9.49182865 59.9723266 -9.57495117 54.75610352 C-9.60823686 52.49706069 -9.63625733 50.23793397 -9.65893555 47.97875977 C-9.69241426 44.73417352 -9.74472718 41.49035867 -9.80078125 38.24609375 C-9.80717117 37.23350998 -9.8135611 36.22092621 -9.82014465 35.17765808 C-9.84983589 33.76653496 -9.84983589 33.76653496 -9.88012695 32.3269043 C-9.89678154 31.08447212 -9.89678154 31.08447212 -9.91377258 29.81694031 C-10.40904635 27.15247698 -11.13677574 26.25698694 -13.3125 24.671875 C-17.85257304 24.13271331 -17.85257304 24.13271331 -22.00698853 25.70498657 C-24.04171936 28.77051959 -23.72932654 31.95952246 -23.70068359 35.51708984 C-23.70856903 36.71537415 -23.70856903 36.71537415 -23.71661377 37.93786621 C-23.7298438 40.58637924 -23.72105691 43.234293 -23.7109375 45.8828125 C-23.71295937 47.73068354 -23.71587175 49.5785538 -23.71963501 51.42642212 C-23.72406406 55.30860963 -23.71761602 59.19059041 -23.70361328 63.07275391 C-23.68664042 68.01630098 -23.69628266 72.95935512 -23.71433067 77.90288353 C-23.72525535 81.72595824 -23.72168066 85.54891939 -23.7139473 89.37199783 C-23.71196293 91.19220667 -23.71434167 93.01242624 -23.72138596 94.83262253 C-23.76073114 107.87350307 -22.68373767 119.50056152 -17.75 131.734375 C-17.12931641 133.29865234 -17.12931641 133.29865234 -16.49609375 134.89453125 C-15.37945837 137.60880698 -15.37945837 137.60880698 -14.1640625 139.8984375 C-13.3125 141.671875 -13.3125 141.671875 -13.25 143.984375 C-14.41839513 146.93972739 -15.55175919 147.94467127 -17.875 150.046875 C-20.74903149 152.74976293 -21.25656318 153.33625411 -21.9375 157.421875 C-21.51895722 160.56155083 -21.51895722 160.56155083 -20.1875 162.609375 C-17.19610708 164.30449766 -15.72608101 164.31594689 -12.3125 163.671875 C-10.05810796 161.98422956 -8.06090874 160.17032075 -6.046875 158.203125 C-4.3125 156.671875 -4.3125 156.671875 -2.3125 156.671875 C-0.97349464 158.33398817 0.35876863 160.00153716 1.6875 161.671875 C17.53224396 175.7252546 37.72552215 183.80449906 58.8515625 184.0859375 C59.76964691 184.10530365 60.68773132 184.1246698 61.63363647 184.1446228 C64.52650056 184.20374645 67.41940591 184.25053143 70.3125 184.296875 C72.29038062 184.33511683 74.26824569 184.37417203 76.24609375 184.4140625 C81.05980856 184.51090169 85.87338546 184.59100128 90.6875 184.671875 C90.6875 193.581875 90.6875 202.491875 90.6875 211.671875 C46.11465775 212.27240731 46.11465775 212.27240731 31.6875 208.671875 C31.03604004 208.51090332 30.38458008 208.34993164 29.71337891 208.18408203 C16.92570205 204.84020572 4.57293787 198.52141056 -5.9375 190.546875 C-9.25603545 188.09183602 -9.87437409 187.66480845 -14.1875 187.734375 C-15.21875 188.04375 -16.25 188.353125 -17.3125 188.671875 C-21.3125 188.671875 -21.3125 188.671875 -24.07421875 186.37109375 C-25.05991779 185.37743483 -26.0348984 184.37305125 -27 183.359375 C-27.49822266 182.85986328 -27.99644531 182.36035156 -28.50976562 181.84570312 C-30.82045831 179.47857561 -32.2535999 177.8485753 -33.3125 174.671875 C-32.6525 173.681875 -31.9925 172.691875 -31.3125 171.671875 C-30.57678074 166.30946759 -32.48968282 163.16420343 -35.375 158.859375 C-46.43681691 141.35541877 -51.41689042 122.49272979 -51.48950195 101.82250977 C-51.49607315 100.98869781 -51.50264435 100.15488586 -51.50941467 99.29580688 C-51.52893982 96.56829711 -51.54075958 93.84084167 -51.55078125 91.11328125 C-51.55485678 90.17418348 -51.5589323 89.23508572 -51.56313133 88.26753044 C-51.58389744 83.302298 -51.59824309 78.33709247 -51.60766602 73.37182617 C-51.61874731 68.26670621 -51.65319436 63.16202001 -51.69283772 58.05705357 C-51.7190598 54.10803962 -51.72736251 50.15912866 -51.73094749 46.21003532 C-51.73579414 44.32870471 -51.74735278 42.44737809 -51.76598549 40.5661335 C-51.94113297 21.72098362 -51.94113297 21.72098362 -47.3125 13.671875 C-46.79429688 12.76953125 -46.27609375 11.8671875 -45.7421875 10.9375 C-34.7109585 -3.36429438 -16.3543097 -7.9105085 0 0 Z " fill="#5ABB91" transform="translate(86.3125,50.328125)"/>
<path d="M0 0 C14.29488532 7.14744266 23.57975525 20.46936003 28.81591797 35.31298828 C32.06979305 46.22827774 31.46663474 57.56148993 31.51123047 68.84033203 C31.52689318 71.58130734 31.55984293 74.3216996 31.59375 77.0625 C31.59072876 77.90103516 31.58770752 78.73957031 31.58459473 79.60351562 C31.62909699 83.04455085 31.69321543 85.39958548 33.27539062 88.49609375 C35.14793577 90.35914498 35.14793577 90.35914498 39 91 C39 97.93 39 104.86 39 112 C36.03 112.99 36.03 112.99 33 114 C31.66674455 116.6665109 31.86885227 118.69328207 31.8613348 121.68094063 C31.85312313 123.50524626 31.85312313 123.50524626 31.84474558 125.36640656 C31.84366924 126.72824924 31.84268457 128.090092 31.84178162 129.45193481 C31.83721865 130.88909286 31.83221902 132.32624958 31.82681805 133.76340473 C31.81319728 137.7266308 31.80580723 141.68984827 31.79939139 145.65309167 C31.79140469 149.92168202 31.77770099 154.19025436 31.76467896 158.45883179 C31.74289159 165.85909589 31.72475539 173.2593618 31.70907402 180.65964127 C31.68639594 191.35930481 31.65825028 202.05894843 31.62875474 212.75859509 C31.5810535 230.11656112 31.5377962 247.47453528 31.49731445 264.83251953 C31.4579724 281.69776035 31.41654928 298.56299393 31.37231445 315.42822266 C31.36959018 316.46717167 31.36686591 317.50612068 31.36405908 318.576553 C31.35037982 323.78846862 31.3366595 329.00038413 31.32291877 334.21229959 C31.20891423 377.47485148 31.10238664 420.73741919 31 464 C21.1 464 11.2 464 1 464 C1 420.44 1 376.88 1 332 C3.97 331.67 6.94 331.34 10 331 C14 329.5 14 329.5 15 327 C15.41673207 323.54199641 15.41673207 323.54199641 15 320 C10.48921424 316.0779322 10.48921424 316.0779322 1 316 C1 255.61 1 195.22 1 133 C4.96 132.67 8.92 132.34 13 132 C14.98 130.02 14.98 130.02 17 128 C17.08916154 124.37350049 17.08916154 124.37350049 16 121 C11.92898075 117.93665831 11.92898075 117.93665831 1 118 C0.67 79.06 0.34 40.12 0 0 Z " fill="#1CA46F" transform="translate(289,41)"/>
<path d="M0 0 C7.58523623 4.99409637 12.46505368 13.13345761 14.859375 21.78515625 C15.04822892 24.60788392 15.14320277 27.33041772 15.1340332 30.15112305 C15.13914413 30.97004028 15.14425507 31.78895752 15.14952087 32.63269043 C15.16338641 35.33332704 15.16246021 38.03370705 15.16015625 40.734375 C15.1640492 42.63084506 15.16838509 44.52731426 15.17314148 46.42378235 C15.18060042 50.40405087 15.18031795 54.38423075 15.17504883 58.36450195 C15.16930134 63.41159888 15.18607138 68.45832316 15.2093935 73.5053587 C15.22429918 77.42902169 15.22497919 81.35259887 15.22188377 85.27628517 C15.22239014 87.13340801 15.22749589 88.99053656 15.23769569 90.84763145 C15.35999411 116.26230029 11.11975759 142.33241174 -4.89453125 163.0546875 C-6.90781705 165.85056715 -6.37493829 168.44619184 -6.140625 171.78515625 C-5.85316406 172.55214844 -5.56570313 173.31914062 -5.26953125 174.109375 C-5.140625 176.78515625 -5.140625 176.78515625 -7.52734375 179.93359375 C-8.61198067 181.0248686 -9.71304891 182.10000373 -10.828125 183.16015625 C-11.37146484 183.71832031 -11.91480469 184.27648437 -12.47460938 184.8515625 C-14.08984375 186.43359375 -14.08984375 186.43359375 -17.140625 188.78515625 C-19.16137695 188.48706055 -19.16137695 188.48706055 -21.140625 187.78515625 C-24.12678649 186.81980232 -26.14878293 186.34785767 -29.08203125 187.64111328 C-31.32254667 188.97233541 -33.48108307 190.38880571 -35.640625 191.84765625 C-53.34416538 203.19986046 -71.67694669 208.9982327 -92.765625 208.8828125 C-94.24687866 208.88069008 -94.24687866 208.88069008 -95.75805664 208.87852478 C-98.88561136 208.87296552 -102.01309223 208.86042071 -105.140625 208.84765625 C-107.27213438 208.84263598 -109.40364488 208.838074 -111.53515625 208.83398438 C-116.73702992 208.823864 -121.93874562 208.80428081 -127.140625 208.78515625 C-127.140625 200.20515625 -127.140625 191.62515625 -127.140625 182.78515625 C-123.44746094 182.72908203 -123.44746094 182.72908203 -119.6796875 182.671875 C-117.22681044 182.62532662 -114.77406638 182.57421622 -112.32128906 182.52270508 C-110.64982566 182.48997199 -108.97826533 182.46179019 -107.30664062 182.4387207 C-92.64297584 182.23113268 -76.91606892 181.77374234 -63.328125 175.66015625 C-62.63855713 175.36230225 -61.94898926 175.06444824 -61.23852539 174.75756836 C-50.77110695 170.03834297 -41.83661789 163.31817556 -34.140625 154.78515625 C-31.24541687 156.10566874 -29.70680136 157.19969884 -27.328125 159.47265625 C-24.29106901 162.15217351 -24.29106901 162.15217351 -20.390625 161.78515625 C-16.88063739 161.0799788 -16.88063739 161.0799788 -15.140625 157.78515625 C-14.65689153 154.07985764 -14.65431604 152.43321349 -16.92578125 149.40625 C-18.05306641 148.32537109 -18.05306641 148.32537109 -19.203125 147.22265625 C-21.48828125 145.03125 -21.48828125 145.03125 -23.140625 142.78515625 C-22.97134951 139.00063988 -21.38818796 135.88740706 -19.828125 132.47265625 C-13.84924738 118.24399053 -12.53910867 105.18168916 -12.64453125 89.953125 C-12.64437586 88.09987837 -12.64288027 86.24663142 -12.64012146 84.39338684 C-12.63874967 80.54685765 -12.65110408 76.70070697 -12.67407227 72.85424805 C-12.70271535 67.9224014 -12.69963327 62.99116973 -12.68698215 58.05927563 C-12.68004222 54.24948339 -12.68779055 50.43983416 -12.70023918 46.6300602 C-12.70475187 44.80996562 -12.70509208 42.98985571 -12.70117378 41.16975975 C-12.69827153 38.64043679 -12.71471104 36.11197751 -12.73657227 33.58276367 C-12.73207062 32.83322418 -12.72756897 32.08368469 -12.72293091 31.31143188 C-12.77490763 27.31509422 -12.77490763 27.31509422 -14.52452087 23.81611633 C-16.71963504 22.41578882 -18.24781208 22.48546873 -20.828125 22.59765625 C-21.63636719 22.62472656 -22.44460938 22.65179688 -23.27734375 22.6796875 C-24.19966797 22.73189453 -24.19966797 22.73189453 -25.140625 22.78515625 C-26.07852198 25.59884719 -26.28994482 27.42826125 -26.34594727 30.34838867 C-26.36589249 31.26911667 -26.38583771 32.18984467 -26.40638733 33.13847351 C-26.42309982 34.1291835 -26.43981232 35.11989349 -26.45703125 36.140625 C-26.4882029 37.66578484 -26.4882029 37.66578484 -26.52000427 39.22175598 C-26.58542548 42.47198688 -26.64435037 45.72229902 -26.703125 48.97265625 C-26.74631727 51.17513863 -26.78993179 53.37761278 -26.83398438 55.58007812 C-26.94109927 60.98168478 -27.04287957 66.38337237 -27.140625 71.78515625 C-27.96046875 71.8109375 -28.7803125 71.83671875 -29.625 71.86328125 C-31.24148438 71.94835937 -31.24148438 71.94835937 -32.890625 72.03515625 C-33.95796875 72.0815625 -35.0253125 72.12796875 -36.125 72.17578125 C-39.71890527 72.90201081 -40.98554629 73.85214669 -43.140625 76.78515625 C-42.99780992 81.84208524 -42.99780992 81.84208524 -40.140625 85.78515625 C-37.01866164 86.25002343 -37.01866164 86.25002343 -33.515625 86.41015625 C-32.32710938 86.48492187 -31.13859375 86.5596875 -29.9140625 86.63671875 C-28.54121094 86.71019531 -28.54121094 86.71019531 -27.140625 86.78515625 C-26.5098611 109.59293188 -26.5098611 109.59293188 -30.140625 120.78515625 C-30.39585937 121.62691406 -30.65109375 122.46867187 -30.9140625 123.3359375 C-36.6952373 139.96344483 -49.86209148 152.75301291 -65.140625 160.78515625 C-71.5313549 163.71394459 -77.02447388 166.1245256 -84.140625 165.78515625 C-84.17800781 165.02589844 -84.21539062 164.26664063 -84.25390625 163.484375 C-84.31964844 162.49050781 -84.38539063 161.49664062 -84.453125 160.47265625 C-84.51113281 159.48652344 -84.56914062 158.50039063 -84.62890625 157.484375 C-85.19503064 154.49817689 -85.67022935 153.50694716 -88.140625 151.78515625 C-91.640625 151.28515625 -91.640625 151.28515625 -95.140625 151.78515625 C-99.62298313 155.616723 -99.62298313 155.616723 -99.140625 167.78515625 C-108.380625 167.78515625 -117.620625 167.78515625 -127.140625 167.78515625 C-127.140625 158.87515625 -127.140625 149.96515625 -127.140625 140.78515625 C-124.62050781 140.759375 -122.10039062 140.73359375 -119.50390625 140.70703125 C-117.01804215 140.66843632 -114.53237342 140.62333311 -112.04663086 140.57763672 C-110.34099925 140.54969923 -108.63524472 140.52835179 -106.92944336 140.51416016 C-90.94503345 140.37332835 -77.44198054 138.61927968 -65.33203125 127.05859375 C-57.61200793 118.62624908 -54.81439103 108.5934182 -54.90112305 97.35644531 C-54.89910889 96.55525269 -54.89709473 95.75406006 -54.89501953 94.92858887 C-54.89149581 93.20227655 -54.892214 91.47595126 -54.89679527 89.74964142 C-54.90243427 87.00675303 -54.89315451 84.2642804 -54.8795929 81.52142334 C-54.84266137 73.72747895 -54.82388783 65.93367811 -54.83520508 58.13964844 C-54.84109319 53.35801766 -54.82261923 48.57697448 -54.78931618 43.79546356 C-54.78142151 41.98560988 -54.78255758 40.17569113 -54.79334068 38.36585236 C-54.86532812 25.73913211 -54.08681839 14.00204082 -44.87109375 4.3125 C-31.73464345 -7.28197419 -15.14573752 -8.59548242 0 0 Z " fill="#0E794E" transform="translate(462.140625,144.21484375)"/>
<path d="M0 0 C-0.33 48.18 -0.66 96.36 -1 146 C-4.63 146.33 -8.26 146.66 -12 147 C-14.88715115 148.38145419 -14.88715115 148.38145419 -16 151 C-15.85718492 156.05692899 -15.85718492 156.05692899 -13 160 C-9.04 160.33 -5.08 160.66 -1 161 C-1 216.11 -1 271.22 -1 328 C-4.96 328.33 -8.92 328.66 -13 329 C-16.24584138 331.65061383 -16.24584138 331.65061383 -16.4375 334.9375 C-16.19182899 337.99030467 -16.19182899 337.99030467 -14.6875 340.3125 C-10.96768958 342.93104451 -10.96768958 342.93104451 -1 343 C-1 382.93 -1 422.86 -1 464 C-10.9 464 -20.8 464 -31 464 C-31.06844587 410.82614751 -31.12153322 357.65230062 -31.15319599 304.4784127 C-31.15694808 298.19996386 -31.16083105 291.92151511 -31.16479492 285.64306641 C-31.16558185 284.39314654 -31.16636878 283.14322668 -31.16717956 281.85543045 C-31.18023151 261.62006258 -31.20388422 241.3847203 -31.23145839 221.1493676 C-31.25951841 200.38420338 -31.27617753 179.61905255 -31.28226548 158.85387015 C-31.28638067 146.04188454 -31.29937573 133.22997124 -31.3237494 120.41800788 C-31.33961393 111.63095523 -31.34439872 102.84393994 -31.34050413 94.05687401 C-31.33858372 88.98812084 -31.3415164 83.919494 -31.35761642 78.85076332 C-31.37226329 74.20550692 -31.37292136 69.56046126 -31.36269668 64.91519496 C-31.36143381 63.23934899 -31.36519865 61.56348963 -31.37464955 59.88766983 C-31.48200431 39.66733428 -26.36374709 22.80535096 -12 8 C-3.12241653 0 -3.12241653 0 0 0 Z " fill="#2CB080" transform="translate(223,41)"/>
<path d="M0 0 C7.92562136 3.60255516 11.89922801 12.65053644 14.84375 20.46875 C15.4375 22.5625 15.4375 22.5625 15.4375 25.5625 C12.1375 25.8925 8.8375 26.2225 5.4375 26.5625 C4.49960302 29.37619094 4.28818018 31.205605 4.23217773 34.12573242 C4.21223251 35.04646042 4.19228729 35.96718842 4.17173767 36.91581726 C4.15502518 37.90652725 4.13831268 38.89723724 4.12109375 39.91796875 C4.0899221 41.44312859 4.0899221 41.44312859 4.05812073 42.99909973 C3.99269952 46.24933063 3.93377463 49.49964277 3.875 52.75 C3.83180773 54.95248238 3.78819321 57.15495653 3.74414062 59.35742188 C3.63702573 64.75902853 3.53524543 70.16071612 3.4375 75.5625 C2.61765625 75.58828125 1.7978125 75.6140625 0.953125 75.640625 C-0.66335938 75.72570312 -0.66335938 75.72570312 -2.3125 75.8125 C-3.37984375 75.85890625 -4.4471875 75.9053125 -5.546875 75.953125 C-9.14078027 76.67935456 -10.40742129 77.62949044 -12.5625 80.5625 C-12.41968492 85.61942899 -12.41968492 85.61942899 -9.5625 89.5625 C-6.44053664 90.02736718 -6.44053664 90.02736718 -2.9375 90.1875 C-1.74898438 90.26226562 -0.56046875 90.33703125 0.6640625 90.4140625 C2.03691406 90.48753906 2.03691406 90.48753906 3.4375 90.5625 C4.0682639 113.37027563 4.0682639 113.37027563 0.4375 124.5625 C0.18226563 125.40425781 -0.07296875 126.24601562 -0.3359375 127.11328125 C-6.1171123 143.74078858 -19.28396648 156.53035666 -34.5625 164.5625 C-40.9532299 167.49128834 -46.44634888 169.90186935 -53.5625 169.5625 C-53.59988281 168.80324219 -53.63726562 168.04398438 -53.67578125 167.26171875 C-53.74152344 166.26785156 -53.80726563 165.27398437 -53.875 164.25 C-53.93300781 163.26386719 -53.99101562 162.27773438 -54.05078125 161.26171875 C-54.61690564 158.27552064 -55.09210435 157.28429091 -57.5625 155.5625 C-61.0625 155.0625 -61.0625 155.0625 -64.5625 155.5625 C-69.04485813 159.39406675 -69.04485813 159.39406675 -68.5625 171.5625 C-77.8025 171.5625 -87.0425 171.5625 -96.5625 171.5625 C-96.5625 162.6525 -96.5625 153.7425 -96.5625 144.5625 C-94.04238281 144.53671875 -91.52226562 144.5109375 -88.92578125 144.484375 C-86.43991715 144.44578007 -83.95424842 144.40067686 -81.46850586 144.35498047 C-79.76287425 144.32704298 -78.05711972 144.30569554 -76.35131836 144.29150391 C-60.36690845 144.1506721 -46.86385554 142.39662343 -34.75390625 130.8359375 C-27.03388293 122.40359283 -24.23626603 112.37076195 -24.32299805 101.13378906 C-24.32098389 100.33259644 -24.31896973 99.53140381 -24.31689453 98.70593262 C-24.31337081 96.9796203 -24.314089 95.25329501 -24.31867027 93.52698517 C-24.32430927 90.78409678 -24.31502951 88.04162415 -24.3014679 85.29876709 C-24.26453637 77.5048227 -24.24576283 69.71102186 -24.25708008 61.91699219 C-24.26296819 57.13536141 -24.24449423 52.35431823 -24.21119118 47.57280731 C-24.20329651 45.76295363 -24.20443258 43.95303488 -24.21521568 42.14319611 C-24.28704061 29.54498015 -23.53348806 17.74590914 -14.29296875 8.1015625 C-9.87114715 4.16883629 -5.95073242 0.93958933 0 0 Z " fill="#148D5C" transform="translate(431.5625,140.4375)"/>
<path d="M0 0 C11.48152787 -0.65567101 21.04232028 -0.3879593 30.5625 6.984375 C38.15412233 14.02660361 42.73305137 22.24980411 43.14476013 32.66047668 C43.1592141 34.09628304 43.16848702 35.53214751 43.17358398 36.96801758 C43.180271 37.75569016 43.18695801 38.54336273 43.19384766 39.35490417 C43.20785944 41.05998527 43.21976569 42.76508469 43.22979546 44.47019386 C43.24627247 47.17385641 43.26951358 49.8773837 43.29469299 52.58097839 C43.36527914 60.26623739 43.42549203 67.95155146 43.47680664 75.63696289 C43.50870638 80.34365348 43.55000832 85.05018721 43.59700203 89.75675011 C43.61295469 91.54477796 43.62530711 93.33284186 43.63390923 95.12092018 C43.64614724 97.62870725 43.67033179 100.13612961 43.69702148 102.64379883 C43.69761063 103.37394196 43.69819977 104.10408508 43.69880676 104.85635376 C43.86726442 116.88152438 48.29667167 125.97099603 56.44140625 134.6640625 C65.49323771 142.92817733 76.069636 145.23383156 87.97265625 145.4140625 C88.78117538 145.43342865 89.58969452 145.4527948 90.42271423 145.4727478 C92.96920697 145.5318499 95.51574664 145.57864711 98.0625 145.625 C99.80405463 145.66324387 101.54559164 145.70229917 103.28710938 145.7421875 C107.52464045 145.83899925 111.76201632 145.91911432 116 146 C116 154.91 116 163.82 116 173 C106.76 173 97.52 173 88 173 C87.67 168.71 87.34 164.42 87 160 C84.288243 156.66049055 84.288243 156.66049055 80.5 156.625 C77.14994419 156.7066197 77.14994419 156.7066197 75.32421875 158.13671875 C73.44642293 160.77892703 73.48501339 162.97875095 73.3125 166.1875 C73.24675781 167.27417969 73.18101562 168.36085937 73.11328125 169.48046875 C73.07589844 170.31191406 73.03851563 171.14335937 73 172 C66.1146699 170.90754679 60.19642684 169.19393058 54 166 C53.07316406 165.53980469 52.14632812 165.07960937 51.19140625 164.60546875 C34.39848468 155.63031821 24.13083732 141.20527977 17.91015625 123.38671875 C15.94924881 116.09012326 15.86662647 109.00169079 15.9375 101.5 C15.94201172 100.5821875 15.94652344 99.664375 15.95117188 98.71875 C15.96283652 96.4791379 15.98076714 94.23955989 16 92 C20.95 91.67 25.9 91.34 31 91 C31.185625 89.576875 31.37125 88.15375 31.5625 86.6875 C31.66691406 85.88699219 31.77132812 85.08648437 31.87890625 84.26171875 C32.14755178 81.83182884 32.14755178 81.83182884 31 79 C26.05 78.67 21.1 78.34 16 78 C17.98 77.505 17.98 77.505 20 77 C19.93262356 70.20440649 19.84267244 63.40937136 19.73754883 56.61425781 C19.70444072 54.30605726 19.67636556 51.9977785 19.65356445 49.68945312 C19.61975817 46.35773611 19.56742933 43.02672682 19.51171875 39.6953125 C19.50532883 38.67511017 19.4989389 37.65490784 19.49235535 36.60379028 C19.24484477 24.34638134 15.47290453 13.46794093 6.875 4.5 C4.51229372 2.4454728 2.7710836 1.28445077 0 0 Z " fill="#2CAE7F" transform="translate(61,47)"/>
<path d="M0 0 C1.32 0 2.64 0 4 0 C4.00257812 1.30453125 4.00515625 2.6090625 4.0078125 3.953125 C4.21209852 16.50469852 5.57099695 26.17905076 14.1875 35.9375 C21.79890855 42.70686552 30.12462262 44.38744865 39.93310547 45.26293945 C44.63639843 45.71698853 48.11240964 46.52185057 52.11195374 48.99795532 C58.10566363 52.17900296 65.32962947 52.31347635 71.97265625 52.4140625 C73.18543495 52.44311172 73.18543495 52.44311172 74.42271423 52.4727478 C76.96920697 52.5318499 79.51574664 52.57864711 82.0625 52.625 C83.80405463 52.66324387 85.54559164 52.70229917 87.28710938 52.7421875 C91.52464045 52.83899925 95.76201632 52.91911432 100 53 C100 61.91 100 70.82 100 80 C90.76 80 81.52 80 72 80 C71.67 75.71 71.34 71.42 71 67 C68.288243 63.66049055 68.288243 63.66049055 64.5 63.625 C61.14994419 63.7066197 61.14994419 63.7066197 59.32421875 65.13671875 C57.44642293 67.77892703 57.48501339 69.97875095 57.3125 73.1875 C57.21388672 74.81751953 57.21388672 74.81751953 57.11328125 76.48046875 C57.07589844 77.31191406 57.03851563 78.14335937 57 79 C50.1146699 77.90754679 44.19642684 76.19393058 38 73 C37.07316406 72.53980469 36.14632812 72.07960938 35.19140625 71.60546875 C18.39848468 62.63031821 8.13083732 48.20527977 1.91015625 30.38671875 C-0.00689618 23.25330905 -0.13571817 16.33308121 -0.0625 9 C-0.05798828 8.12988281 -0.05347656 7.25976562 -0.04882812 6.36328125 C-0.0371736 4.24215707 -0.01924357 2.1210689 0 0 Z " fill="#59BA91" transform="translate(77,140)"/>
<path d="M0 0 C1.32 0.66 2.64 1.32 4 2 C0.38094404 12.12971945 -7.74395636 20.29211482 -15 28 C-15.53882813 28.60328125 -16.07765625 29.2065625 -16.6328125 29.828125 C-26.43037337 40.36419548 -39.14155155 46.99416371 -52 53 C-52.99 53.495 -52.99 53.495 -54 54 C-56.91699274 54.08698228 -59.80982548 54.11551923 -62.7265625 54.09765625 C-64.02078629 54.09553383 -64.02078629 54.09553383 -65.34115601 54.09336853 C-68.1024723 54.08776188 -70.86370812 54.07520827 -73.625 54.0625 C-75.4947905 54.05748586 -77.36458226 54.0529228 -79.234375 54.04882812 C-83.82297277 54.0386403 -88.41139608 54.01906622 -93 54 C-93 45.42 -93 36.84 -93 28 C-89.30683594 27.94392578 -89.30683594 27.94392578 -85.5390625 27.88671875 C-83.08618544 27.84017037 -80.63344138 27.78905997 -78.18066406 27.73754883 C-76.50920066 27.70481574 -74.83764033 27.67663394 -73.16601562 27.65356445 C-58.50235084 27.44597643 -42.77544392 26.98858609 -29.1875 20.875 C-28.49793213 20.577146 -27.80836426 20.27929199 -27.09790039 19.97241211 C-16.63048195 15.25318672 -7.69599289 8.53301931 0 0 Z " fill="#148E5D" transform="translate(428,299)"/>
<path d="M0 0 C6.10606931 -0.51966547 10.82287666 0.62972079 16 4 C18.45852894 6.41400829 20.58181906 8.84300591 22 12 C21.6484375 14.25 21.6484375 14.25 21 16 C20.62230469 15.57589844 20.24460937 15.15179688 19.85546875 14.71484375 C14.85403503 9.38544716 9.2293497 5.75943238 3 2 C2.01 1.34 1.02 0.68 0 0 Z " fill="#1A9A68" transform="translate(252,31)"/>
</svg>
