<?xml version="1.0" encoding="UTF-8"?>
<svg version="1.1" xmlns="http://www.w3.org/2000/svg" width="512" height="512">
<path d="M0 0 C1.09828125 -0.00193359 1.09828125 -0.00193359 2.21875 -0.00390625 C5.69640569 0.85955278 7.0577989 1.86941468 9.5 4.5625 C11.04040478 8.2968982 11.97961498 12.14393167 12.9375 16.0625 C13.23261475 17.22031982 13.52772949 18.37813965 13.83178711 19.57104492 C14.74956178 23.2286071 15.63133057 26.89298512 16.5 30.5625 C16.89687012 32.22853271 16.89687012 32.22853271 17.30175781 33.92822266 C30.14473081 88.71892386 33.86323718 144.52069218 36.5 200.5625 C36.8309668 199.90991211 37.16193359 199.25732422 37.50292969 198.58496094 C61.36590585 151.69659415 61.36590585 151.69659415 71.5 141.5625 C72.85479543 141.56822852 74.20958486 141.61591719 75.5625 141.6875 C79.13420089 141.36227195 80.40489834 140.64728602 83.12890625 138.21875 C87.89281543 132.62700006 87.89281543 132.62700006 89.55859375 125.671875 C89.22829835 123.85134917 88.88977122 122.0322973 88.54296875 120.21484375 C88.45454973 114.75697853 92.92819217 111.27077225 96.5 107.5625 C97.83341482 106.02090381 99.16674626 104.4792355 100.5 102.9375 C104.84755969 98.16206097 109.3820587 93.57670002 113.9375 89 C114.64841797 88.28440918 115.35933594 87.56881836 116.09179688 86.83154297 C116.76146484 86.16396973 117.43113281 85.49639648 118.12109375 84.80859375 C118.7236499 84.20716553 119.32620605 83.6057373 119.94702148 82.98608398 C122.88661033 80.29142236 125.53126032 80.23380691 129.4609375 80.26953125 C132.63134567 80.72504967 134.3192402 82.31565657 136.5 84.5625 C140.26823516 92.09897031 135.59712818 101.64068229 133.22265625 108.98046875 C132.77236644 110.40139363 132.32312392 111.82265078 131.87486267 113.24421692 C130.6898898 116.99276709 129.49141354 120.73686027 128.28979492 124.48010254 C127.10422295 128.18028898 125.93029198 131.88415664 124.75585938 135.58789062 C124.29139274 137.05137237 123.82687458 138.51483777 123.36230469 139.97828674 C123.13300262 140.70064577 122.90370056 141.4230048 122.66744995 142.16725349 C121.51156445 145.80765248 120.35459921 149.44770764 119.19726562 153.08764648 C118.97168976 153.79749915 118.74611389 154.50735182 118.51370239 155.23871517 C117.41238396 158.70243486 116.3075612 162.16496091 115.19482422 165.62503052 C110.85080044 179.13917171 106.60213953 192.51130191 104.23187256 206.53039551 C103.58679576 210.31656716 102.86642437 214.08887749 102.15625 217.86328125 C101.94668167 218.98595901 101.94668167 218.98595901 101.73287964 220.13131714 C95.1925427 254.91390923 83.66771677 289.17247041 69.5 321.5625 C69.14147949 322.40167969 68.78295898 323.24085938 68.41357422 324.10546875 C63.32549295 335.99649403 63.32549295 335.99649403 60.51171875 337.92578125 C57.7972695 338.78491761 55.32588086 338.69094913 52.5 338.5625 C52.12875 339.8 52.12875 339.8 51.75 341.0625 C50.5239742 344.49537225 49.0019022 347.47434702 47.20703125 350.6328125 C46.32695863 353.03477865 46.6472173 354.18653896 47.5 356.5625 C47.83 357.2225 48.16 357.8825 48.5 358.5625 C49.064132 363.84061171 47.45257979 367.37860654 44.9375 371.875 C44.54328857 372.59937256 44.14907715 373.32374512 43.74291992 374.07006836 C38.87369854 382.8951313 33.60526664 391.49237195 28.38671875 400.11328125 C24.73959614 406.14544317 21.16706194 412.21817488 17.625 418.3125 C17.06022949 419.28372803 16.49545898 420.25495605 15.91357422 421.25561523 C14.73572725 423.2813473 13.55799553 425.30714638 12.38037109 427.33300781 C8.91112326 433.29135763 5.42472466 439.23965855 1.9375 445.1875 C1.57562592 445.80473938 1.21375183 446.42197876 0.84091187 447.05792236 C-4.8047701 456.68588699 -10.46430365 466.30554852 -16.15625 475.90625 C-18.32472438 479.56621163 -20.47931559 483.23391457 -22.62416077 486.90774536 C-24.07642239 489.39344394 -25.53353094 491.87628368 -26.99118042 494.35882568 C-27.69806355 495.56543018 -28.40280343 496.77329318 -29.10525513 497.98248291 C-30.08666844 499.67129789 -31.07638976 501.35527645 -32.06640625 503.0390625 C-32.63302979 504.00924316 -33.19965332 504.97942383 -33.78344727 505.97900391 C-37.87005241 512.12954517 -37.87005241 512.12954517 -41.5 513.09375 C-42.16 513.0834375 -42.82 513.073125 -43.5 513.0625 C-44.16 513.0728125 -44.82 513.083125 -45.5 513.09375 C-49.24102404 512.10004049 -51.19138551 509.03226593 -53.24487305 505.90649414 C-53.82793213 504.89707764 -54.41099121 503.88766113 -55.01171875 502.84765625 C-55.33709122 502.28860596 -55.66246368 501.72955566 -55.99769592 501.15356445 C-57.06669912 499.31396888 -58.12699687 497.46950652 -59.1875 495.625 C-59.94041843 494.32635733 -60.69401083 493.02810519 -61.44824219 491.73022461 C-63.01744693 489.0286981 -64.58372713 486.32550812 -66.14794922 483.62109375 C-69.46901387 477.88410225 -72.82368771 472.16686265 -76.17910767 466.44992065 C-77.25441919 464.6174692 -78.32885808 462.78450864 -79.40307617 460.95141602 C-84.09933143 452.93903857 -88.81719893 444.93962654 -93.54785156 436.94750977 C-98.79035299 428.08476083 -103.99474736 419.1997364 -109.19433594 410.31176758 C-112.44829222 404.75191305 -115.70968562 399.19716185 -119.015625 393.66796875 C-153.37184025 336.18777113 -178.62804964 274.48713491 -191.15551758 208.58569336 C-191.29098999 207.87541992 -191.4264624 207.16514648 -191.56604004 206.43334961 C-191.92964331 204.51554951 -192.28697725 202.59656369 -192.64379883 200.67749023 C-194.60140684 190.88643527 -197.3942316 181.34742658 -200.37890625 171.828125 C-200.74766373 170.64296295 -201.1164212 169.4578009 -201.49635315 168.23672485 C-202.48020167 165.07670802 -203.46695846 161.91761683 -204.45468903 158.75881195 C-205.47503752 155.49148616 -206.48988636 152.22245325 -207.50537109 148.95361328 C-210.93304852 137.92742207 -214.37367687 126.90594586 -217.91015625 115.9140625 C-218.38550611 114.42811453 -218.86069425 112.94211482 -219.33569336 111.45605469 C-220.16362139 108.86612007 -221.00592757 106.28257046 -221.85766602 103.70019531 C-223.75373618 97.78088133 -225.16227592 92.78933341 -224.5 86.5625 C-222.70636089 83.7524654 -221.48119065 82.05309532 -218.5 80.5625 C-211.83622494 79.64335861 -211.83622494 79.64335861 -208.61499023 81.85913086 C-207.99825439 82.43026611 -207.38151855 83.00140137 -206.74609375 83.58984375 C-206.05290039 84.22712402 -205.35970703 84.8644043 -204.64550781 85.52099609 C-203.93749023 86.19469238 -203.22947266 86.86838867 -202.5 87.5625 C-201.8203418 88.20396973 -201.14068359 88.84543945 -200.44042969 89.50634766 C-190.10381877 99.4030505 -180.45673981 109.62739028 -172.5 121.5625 C-172.83984375 123.83984375 -172.83984375 123.83984375 -173.4375 126.5 C-174.24460322 133.36037736 -171.03937231 137.15237353 -167.08984375 142.32421875 C-163.88886281 145.09067739 -162.60419925 144.75997123 -158.5 144.5625 C-154.37796406 146.52363412 -152.45042543 148.65421775 -150.15234375 152.55078125 C-149.55325195 153.55584717 -148.95416016 154.56091309 -148.33691406 155.59643555 C-147.71010742 156.67836182 -147.08330078 157.76028809 -146.4375 158.875 C-145.7784668 159.99495361 -145.11943359 161.11490723 -144.44042969 162.26879883 C-121.08990941 202.08144647 -121.08990941 202.08144647 -113.5 221.5625 C-113.48541748 220.2520874 -113.47083496 218.9416748 -113.45581055 217.59155273 C-112.75862803 159.2644122 -108.93209148 101.64632738 -92.8125 45.3125 C-92.62627075 44.65365814 -92.4400415 43.99481628 -92.24816895 43.31600952 C-87.8133724 27.77141493 -87.8133724 27.77141493 -81.5 23.5625 C-76.55951804 23.10504797 -73.37804618 23.34926174 -69.5 26.5625 C-67.52247456 30.48393732 -67.1848038 33.92801188 -67.0078125 38.28515625 C-66.9449455 39.62681522 -66.88152641 40.9684484 -66.81762695 42.31005859 C-66.78690094 43.01249695 -66.75617493 43.7149353 -66.72451782 44.43865967 C-64.959794 83.20846778 -56.79360013 121.2332 -46.5 158.5625 C-46.32225037 159.20797791 -46.14450073 159.85345581 -45.96136475 160.51849365 C-45.42019129 162.47586989 -44.87335604 164.43156325 -44.32421875 166.38671875 C-43.99897217 167.54647217 -43.67372559 168.70622559 -43.33862305 169.90112305 C-42.75801117 172.45845615 -42.75801117 172.45845615 -41.5 173.5625 C-41.36013672 172.92675049 -41.22027344 172.29100098 -41.07617188 171.63598633 C-38.24290301 158.84869692 -35.18935098 146.16683366 -31.625 133.5625 C-21.7004627 98.16911291 -13.16855352 61.693586 -11.12109375 24.890625 C-11.04858398 23.71185791 -10.97607422 22.53309082 -10.90136719 21.31860352 C-10.76178733 18.98956381 -10.64298541 16.65915906 -10.54785156 14.32788086 C-10.07265343 6.36831215 -10.07265343 6.36831215 -7.20703125 2.3359375 C-4.47582407 0.5466618 -3.21574079 -0.09624576 0 0 Z " fill="#000101" transform="translate(299.5,-0.5625)"/>
<path d="M0 0 C1.38654009 2.77308019 0.59184824 3.94636545 -0.328125 6.875 C-0.63363281 7.86113281 -0.93914062 8.84726563 -1.25390625 9.86328125 C-1.58261719 10.89839844 -1.91132813 11.93351563 -2.25 13 C-2.88036066 15.02078582 -3.51057019 17.0416188 -4.140625 19.0625 C-4.61242187 20.56103516 -4.61242187 20.56103516 -5.09375 22.08984375 C-5.92577064 24.76163417 -6.72581716 27.44049358 -7.515625 30.125 C-9.01610276 35.1439083 -10.71303611 40.07643213 -12.5 45 C-12.83531738 45.92409668 -13.17063477 46.84819336 -13.51611328 47.80029297 C-23.41069632 74.61759518 -23.41069632 74.61759518 -29.15673828 85.11279297 C-30.55241806 88.23630329 -29.75389726 90.75244255 -29 94 C-27.51469767 96.18247497 -27.51469767 96.18247497 -26 98 C-30.83399021 109.8554285 -30.83399021 109.8554285 -34 114 C-36.40625 114.91015625 -36.40625 114.91015625 -38.875 114.9375 C-41.46597523 114.84609648 -41.46597523 114.84609648 -44 116 C-48.23096828 121.04428027 -50.97950847 127.21791621 -54 133 C-63.9 132.505 -63.9 132.505 -74 132 C-76.875 124.0625 -76.875 124.0625 -77.76904297 121.55883789 C-78.97541142 117.55399135 -78.97541142 117.55399135 -82 115 C-84.0374763 114.77141886 -86.08040303 114.58975722 -88.125 114.4375 C-89.76855469 114.31181641 -89.76855469 114.31181641 -91.4453125 114.18359375 C-92.28835938 114.12300781 -93.13140625 114.06242187 -94 114 C-90.68511397 107.13760435 -86.7442357 101.02472026 -82.1875 94.9375 C-81.71473633 94.30199219 -81.24197266 93.66648437 -80.75488281 93.01171875 C-73.57809942 83.57690933 -65.30731987 75.17897406 -56.875 66.875 C-51.59003624 61.66974912 -46.40795425 56.45993332 -41.57763672 50.82714844 C-39.17154068 48.04051539 -36.64308793 45.37250022 -34.125 42.6875 C-28.82708999 36.98548416 -23.8532941 31.0867725 -19 25 C-18.00858543 23.77671692 -17.01634861 22.55409994 -16.0234375 21.33203125 C-10.40782984 14.3981361 -4.96211303 7.42569732 0 0 Z " fill="#028E5C" transform="translate(379,240)"/>
<path d="M0 0 C3.68604926 -0.0377669 6.63042256 0.47232931 10 2 C13.49539402 5.87379448 15.70718306 10.35775336 18 15 C18.37543945 15.74121094 18.75087891 16.48242188 19.13769531 17.24609375 C30.89338019 40.58272995 40.21746765 65.55150951 37.0625 91.9375 C35.66107001 104.58744479 35.35334793 117.28521984 35 130 C32.17464478 127.47701676 30.47911315 124.64803492 28.5859375 121.3828125 C28.25915009 120.82234726 27.93236267 120.26188202 27.59567261 119.68443298 C26.51784104 117.83373745 25.44650217 115.97936601 24.375 114.125 C23.61735718 112.8218962 22.85921094 111.51908498 22.10058594 110.21655273 C20.52113383 107.50374811 18.94387013 104.78968911 17.36816406 102.07470703 C14.03503394 96.33511222 10.67754778 90.60982233 7.31906128 84.88504028 C6.24679428 83.05703488 5.17520751 81.22863218 4.10375977 79.40014648 C-0.14386718 72.1530293 -4.40836388 64.91606374 -8.6875 57.6875 C-13.33964628 49.82826436 -17.96065251 41.95129576 -22.5625 34.0625 C-23.43878052 32.56046021 -23.43878052 32.56046021 -24.33276367 31.02807617 C-25.41262213 29.17488445 -26.49078573 27.32070362 -27.56689453 25.46533203 C-28.46770778 23.91568771 -29.37412575 22.36927417 -30.28857422 20.82763672 C-33 16.21666758 -33 16.21666758 -33 14 C-32.33355469 14.0721875 -31.66710937 14.144375 -30.98046875 14.21875 C-29.03869546 14.41428521 -27.09425317 14.58431209 -25.1484375 14.734375 C-23.12580924 14.90501858 -21.10701725 15.13960377 -19.1015625 15.453125 C-16.06723747 15.77610638 -13.94005033 15.85399344 -11 15 C-7.64623788 11.71830219 -5.37947938 8.01817744 -3 4 C-2.01865323 2.65287852 -1.02583062 1.3135636 0 0 Z " fill="#21B07D" transform="translate(210,340)"/>
<path d="M0 0 C2.76580253 1.02344678 4.66633901 2.59943134 6.9765625 4.42578125 C10.19949466 6.70300631 11.69097369 7.75009316 15.6640625 8.17578125 C19.96134245 6.48756413 23.23329432 4.06687369 26.83203125 1.19921875 C29.1640625 -0.19921875 29.1640625 -0.19921875 31.01651001 0.05134583 C35.65742737 1.67089547 39.12967784 3.8938703 42.1640625 7.80078125 C43.43520543 12.97373917 43.23857269 18.04063948 43.078125 23.3203125 C43.06382663 24.86224849 43.05343642 26.4042251 43.04672241 27.94621277 C43.01808627 32.01292117 42.93478639 36.0767554 42.84033203 40.14239502 C42.7565023 44.18248896 42.72674641 48.22291701 42.69140625 52.26367188 C42.60622608 60.73420459 42.4351837 69.20114005 42.21833801 77.66925812 C42.1653478 79.75030449 42.11538142 81.83140672 42.0657959 83.91253662 C41.97354177 87.58805376 41.86596715 91.2626629 41.75 94.9375 C41.70741562 96.54526054 41.70741562 96.54526054 41.66397095 98.1855011 C41.62839081 99.15642197 41.59281067 100.12734283 41.55615234 101.12768555 C41.51498795 102.3829731 41.51498795 102.3829731 41.47299194 103.66362 C41.1640625 105.80078125 41.1640625 105.80078125 39.1640625 108.80078125 C38.72578125 107.62386719 38.2875 106.44695312 37.8359375 105.234375 C31.0280862 87.3724816 22.99985973 69.89973861 11.22265625 54.73828125 C7.26384515 49.08927566 5.24291031 42.42020289 2.9921875 35.9453125 C2.56217438 34.70922493 2.56217438 34.70922493 2.12347412 33.44816589 C1.52360539 31.71835168 0.92534167 29.98798011 0.32861328 28.25708008 C-0.28351422 26.48753157 -0.90041799 24.71962841 -1.52197266 22.95336914 C-2.42342944 20.39164638 -3.31091447 17.82546691 -4.1953125 15.2578125 C-4.61547638 14.07491386 -4.61547638 14.07491386 -5.04412842 12.86811829 C-7.19121823 6.54757413 -7.19121823 6.54757413 -5.8359375 2.80078125 C-2.73804882 -0.29710743 -2.73804882 -0.29710743 0 0 Z " fill="#0DCF8E" transform="translate(214.8359375,271.19921875)"/>
<path d="M0 0 C2.58477581 1.70816405 4.96921297 3.58747836 7.40234375 5.50390625 C10.63599625 7.36629559 12.3183751 7.56312772 16 7 C18.96012909 5.29195847 18.96012909 5.29195847 21.6875 3 C26.70833333 -1 26.70833333 -1 30 -1 C30.79992991 4.60227732 31.136767 10.00201885 31.09765625 15.65625 C31.0962413 16.44398804 31.09482635 17.23172607 31.09336853 18.04333496 C31.08782612 20.52893064 31.07528485 23.01443211 31.0625 25.5 C31.05747754 27.19791535 31.05291595 28.89583214 31.04882812 30.59375 C31.03787564 34.72920229 31.02065166 38.86458524 31 43 C30.41702148 42.95214355 29.83404297 42.90428711 29.23339844 42.85498047 C23.49816091 42.58249181 20.71787737 43.22552123 16.25 47.125 C13.578125 49.4453125 13.578125 49.4453125 11 51 C7.30811316 50.19814222 4.99123266 48.31867436 2.1875 45.875 C-1.21318433 43.28946098 -3.60182283 42.08283424 -7.90234375 42.390625 C-12.13697516 43.62079725 -15.55720405 46.32226981 -19 49 C-18.77177421 36.24010373 -16.2169532 24.07035516 -13.55664062 11.62451172 C-13.17886908 9.84335202 -12.83384855 8.05499257 -12.51855469 6.26171875 C-11.88061821 3.47930654 -11.0597134 2.74179938 -8.75 1.125 C-8.16734375 0.69445312 -7.5846875 0.26390625 -6.984375 -0.1796875 C-4.22245165 -1.32142747 -2.8188581 -0.93676771 0 0 Z " fill="#21AF7D" transform="translate(288,159)"/>
<path d="M0 0 C2.53425706 1.74386996 4.9406609 3.61364963 7.3671875 5.50390625 C10.61403235 7.34892342 12.31319989 7.52466002 16 7 C19.04750873 5.51962931 19.04750873 5.51962931 21.875 3.5 C22.84179688 2.8503125 23.80859375 2.200625 24.8046875 1.53125 C25.52914062 1.0259375 26.25359375 0.520625 27 0 C26.35400714 3.76957854 25.28359517 7.11635728 23.8828125 10.671875 C23.22804932 12.3571228 23.22804932 12.3571228 22.56005859 14.07641602 C22.08648926 15.28869873 21.61291992 16.50098145 21.125 17.75 C17.89797017 26.04206362 14.82317511 34.34618011 12.140625 42.83203125 C11.90749603 43.56261749 11.67436707 44.29320374 11.43417358 45.04592896 C10.30797229 48.58266332 9.20702993 52.12413932 8.14501953 55.68066406 C5.27187549 64.95916662 1.11641387 71.44073608 -5 79 C-6.46232149 81.20659017 -7.72179731 83.42711242 -9 85.75 C-9.97654062 87.51319835 -10.96842369 89.26842548 -12 91 C-12.33 91 -12.66 91 -13 91 C-13.36280468 80.03943804 -13.67077269 69.0788262 -13.90927315 58.1148138 C-14.02174168 53.02332758 -14.15288306 47.93376978 -14.32714844 42.84399414 C-14.49471621 37.92955252 -14.61264364 33.0161673 -14.69659042 28.09961128 C-14.73722243 26.22652243 -14.79557277 24.35372956 -14.87210464 22.48176384 C-15.45174163 7.88801814 -15.45174163 7.88801814 -11.86126709 3.21853638 C-7.95359543 0.29969162 -4.82184588 -1.9611025 0 0 Z " fill="#21B07D" transform="translate(285,255)"/>
<path d="M0 0 C0.495 0.99 0.495 0.99 1 2 C0.19696914 4.38782023 -0.67173441 6.66403984 -1.640625 8.984375 C-1.92347351 9.6775885 -2.20632202 10.370802 -2.4977417 11.08502197 C-3.0995327 12.55588761 -3.70505215 14.02523236 -4.31396484 15.49316406 C-5.23925428 17.72409145 -6.15385734 19.95914772 -7.06640625 22.1953125 C-7.65301849 23.62525752 -8.24023925 25.05495308 -8.828125 26.484375 C-9.23614349 27.47845367 -9.23614349 27.47845367 -9.65240479 28.49261475 C-10.89536144 31.48470648 -12.19679289 34.37409799 -13.70605469 37.24316406 C-15.43801424 40.93321827 -15.01076107 43.10135014 -14 47 C-13.04132171 48.36334651 -12.04736028 49.70353781 -11 51 C-15.83399021 62.8554285 -15.83399021 62.8554285 -19 67 C-21.40625 67.91015625 -21.40625 67.91015625 -23.875 67.9375 C-26.46597523 67.84609648 -26.46597523 67.84609648 -29 69 C-33.23096828 74.04428027 -35.97950847 80.21791621 -39 86 C-45.6 85.67 -52.2 85.34 -59 85 C-60.86771017 80.86839871 -61.86714515 78.45063737 -62 74 C-59.72072866 68.48883878 -56.46443011 63.82741867 -53 59 C-52.33871094 58.02804687 -51.67742187 57.05609375 -50.99609375 56.0546875 C-49.07400131 53.30196221 -47.06670942 50.64569481 -45 48 C-43.94232422 46.63488281 -43.94232422 46.63488281 -42.86328125 45.2421875 C-35.61482615 36.30125899 -27.43381652 28.28096133 -19.23608398 20.22167969 C-14.43413091 15.49317142 -9.73724708 10.7419188 -5.3737793 5.60083008 C-3.68184199 3.62925857 -1.87361468 1.79867009 0 0 Z " fill="#21B07D" transform="translate(364,287)"/>
<path d="M0 0 C6.6 0.66 13.2 1.32 20 2 C20 2.99 20 3.98 20 5 C21.12046537 7.43526619 22.29252238 9.76863277 23.5625 12.125 C24.15490479 13.23403687 24.15490479 13.23403687 24.75927734 14.36547852 C28.94904937 22.09238803 33.49735687 29.60072322 38.05126953 37.11669922 C42.78474691 44.93666322 47.39028157 52.82082719 51.9375 60.75 C57.80338671 70.97947026 57.80338671 70.97947026 63.8125 81.125 C64.39644531 82.09695313 64.98039062 83.06890625 65.58203125 84.0703125 C66.04996094 84.70710938 66.51789063 85.34390625 67 86 C67.66 86 68.32 86 69 86 C68.67 95.9 68.34 105.8 68 116 C65.1729912 113.1729912 63.57400493 110.8116979 61.5859375 107.3828125 C61.25915009 106.82234726 60.93236267 106.26188202 60.59567261 105.68443298 C59.51784104 103.83373745 58.44650217 101.97936601 57.375 100.125 C56.61735718 98.8218962 55.85921094 97.51908498 55.10058594 96.21655273 C53.52113383 93.50374811 51.94387013 90.78968911 50.36816406 88.07470703 C47.03503394 82.33511222 43.67754778 76.60982233 40.31906128 70.88504028 C39.24679428 69.05703488 38.17520751 67.22863218 37.10375977 65.40014648 C32.85613282 58.1530293 28.59163612 50.91606374 24.3125 43.6875 C19.66035372 35.82826436 15.03934749 27.95129576 10.4375 20.0625 C9.85331299 19.06114014 9.26912598 18.05978027 8.66723633 17.02807617 C7.58737787 15.17488445 6.50921427 13.32070362 5.43310547 11.46533203 C4.53229222 9.91568771 3.62587425 8.36927417 2.71142578 6.82763672 C0 2.21666758 0 2.21666758 0 0 Z " fill="#028E5C" transform="translate(177,354)"/>
<path d="M0 0 C2.46326593 0.99703621 3.88601641 1.99683842 5.9375 3.625 C9.04664553 5.92657527 11.57780369 6.86197703 15.5703125 6.63671875 C18.92900092 5.69807389 21.27253036 3.64519145 23.86328125 1.375 C25.625 0.0625 25.625 0.0625 28.625 0.0625 C32.21462067 11.92464751 34.08494701 23.78288391 35.625 36.0625 C35.04274658 35.94390625 34.46049316 35.8253125 33.8605957 35.703125 C29.60004679 35.00158355 27.38449736 34.65491881 23.48046875 36.75 C22.60003906 37.513125 21.71960938 38.27625 20.8125 39.0625 C16.12218733 43.06923174 16.12218733 43.06923174 13.60546875 43.03515625 C10.15600909 41.34104293 7.27822554 38.91148604 4.2578125 36.55859375 C0.88356382 34.64117944 -0.53430694 34.3637715 -4.375 35.0625 C-7.345 37.0425 -10.315 39.0225 -13.375 41.0625 C-13.375 29.8425 -13.375 18.6225 -13.375 7.0625 C-11.395 6.0725 -9.415 5.0825 -7.375 4.0625 C-6.529375 3.32 -5.68375 2.5775 -4.8125 1.8125 C-2.375 0.0625 -2.375 0.0625 0 0 Z " fill="#0DCE8D" transform="translate(215.375,184.9375)"/>
<path d="M0 0 C3.08830814 3.08830814 3.66509894 7.02986407 4.90234375 11.15234375 C6.00272982 14.00708199 6.65831591 15.1302937 9 17 C11.01792826 17.4994461 11.01792826 17.4994461 13.23046875 17.51171875 C14.43413086 17.56489258 14.43413086 17.56489258 15.66210938 17.61914062 C16.49548828 17.64169922 17.32886719 17.66425781 18.1875 17.6875 C19.03248047 17.72166016 19.87746094 17.75582031 20.74804688 17.79101562 C22.83156649 17.87341471 24.91576216 17.93838645 27 18 C28.29533562 21.82069581 28.48168795 23.88730495 26.85644531 27.64160156 C25.03006768 30.86165243 23.10284736 33.99563208 21.125 37.125 C20.40208146 38.29805389 19.68125041 39.47239654 18.96240234 40.64794922 C17.83142834 42.49674455 16.69898923 44.34446982 15.55947876 46.1880188 C12.70430931 50.81225737 9.94100695 55.48393101 7.21875 60.1875 C6.83210175 60.85457977 6.44545349 61.52165955 6.04708862 62.20895386 C4.53022124 64.82797177 3.01480427 67.44779712 1.50494385 70.07086182 C0.45861854 71.88601359 -0.59419713 73.69724977 -1.6484375 75.5078125 C-2.54828369 77.06459717 -2.54828369 77.06459717 -3.46630859 78.65283203 C-5 81 -5 81 -7 82 C-11.08348562 56.23228925 -8.9000889 24.67390718 0 0 Z " fill="#028D5B" transform="translate(268,398)"/>
<path d="M0 0 C3.10211173 1.26227963 5.37575104 3.33446184 7.9375 5.453125 C9.96116607 7.01385104 9.96116607 7.01385104 12.47998047 7.05493164 C15.03515625 7.828125 15.03515625 7.828125 16.63745117 10.28295898 C17.31964722 11.91213257 17.31964722 11.91213257 18.015625 13.57421875 C18.27016449 14.16845642 18.52470398 14.76269409 18.78695679 15.37493896 C19.61835991 17.33091773 20.42077987 19.29737758 21.22265625 21.265625 C21.79230379 22.62527378 22.36319908 23.98440043 22.93530273 25.34301758 C27.86306483 37.11875687 32.53086081 49.00719449 36.97314453 60.97412109 C37.71437294 62.96606594 38.46903919 64.95303942 39.23388672 66.93603516 C39.6104541 67.92780762 39.98702148 68.91958008 40.375 69.94140625 C40.88921509 71.27812378 40.88921509 71.27812378 41.41381836 72.6418457 C42.03515625 74.828125 42.03515625 74.828125 41.03515625 76.828125 C39.96201172 75.66410156 39.96201172 75.66410156 38.8671875 74.4765625 C38.15526245 73.70481689 38.15526245 73.70481689 37.42895508 72.91748047 C36.3594364 71.75796833 35.29027289 70.5981285 34.22143555 69.43798828 C31.38079313 66.35757541 28.53138851 63.28631418 25.66015625 60.234375 C19.15825182 53.31314692 12.92634574 46.2848054 7.03515625 38.828125 C6.16554403 37.73943997 5.29574351 36.65090534 4.42578125 35.5625 C-0.54430431 29.31742182 -5.39872344 22.98955298 -10.15234375 16.578125 C-10.63429199 15.93391602 -11.11624023 15.28970703 -11.61279297 14.62597656 C-14.96484375 10.06404303 -14.96484375 10.06404303 -14.96484375 7.828125 C-14.11921875 7.43625 -13.27359375 7.044375 -12.40234375 6.640625 C-9.14949301 4.92548552 -6.50781477 3.03224217 -3.67578125 0.71875 C-1.96484375 -0.171875 -1.96484375 -0.171875 0 0 Z " fill="#0DCD8C" transform="translate(155.96484375,217.171875)"/>
<path d="M0 0 C3.57988797 1.2996676 5.60110656 3.32725726 8.41015625 5.875 C7.13849545 9.3556151 5.6732273 12.15904486 3.46875 15.1328125 C2.88971924 15.91769043 2.31068848 16.70256836 1.71411133 17.51123047 C0.79021606 18.74317139 0.79021606 18.74317139 -0.15234375 20 C-0.78567627 20.85094238 -1.41900879 21.70188477 -2.0715332 22.57861328 C-6.74566825 28.82627258 -11.54841178 34.91857504 -16.58984375 40.875 C-17.44723041 41.90573806 -18.3039688 42.9370156 -19.16015625 43.96875 C-24.81748682 50.75571485 -30.68171279 57.31200453 -36.70703125 63.7734375 C-40.72845905 68.08615584 -44.6600336 72.47877298 -48.58984375 76.875 C-49.58984375 74.875 -49.58984375 74.875 -48.99169922 72.66137695 C-48.65025879 71.73800537 -48.30881836 70.81463379 -47.95703125 69.86328125 C-47.56926514 68.81003662 -47.18149902 67.75679199 -46.78198242 66.67163086 C-46.12999878 64.94698608 -46.12999878 64.94698608 -45.46484375 63.1875 C-45.02052002 62.00099854 -44.57619629 60.81449707 -44.1184082 59.59204102 C-40.53132704 50.08621737 -36.700372 40.68398969 -32.77734375 31.3125 C-32.50557312 30.66141266 -32.23380249 30.01032532 -31.95379639 29.33950806 C-28.76203656 21.71340869 -25.41474592 14.20828276 -21.58984375 6.875 C-20.31109375 7.019375 -19.03234375 7.16375 -17.71484375 7.3125 C-12.12731092 7.38300515 -9.10623144 4.79314851 -4.94921875 1.30859375 C-2.58984375 -0.125 -2.58984375 -0.125 0 0 Z " fill="#0DCD8D" transform="translate(363.58984375,217.125)"/>
<path d="M0 0 C3.01648473 2.87540192 5.48729623 5.88273339 7.9375 9.25 C15.80122164 19.84723938 24.10476563 30.11428977 33.0234375 39.84375 C34.8809692 41.87014821 36.69688809 43.92518629 38.5 46 C42.60916283 50.71828579 46.80508492 55.3580078 51 60 C49.87548273 62.9719385 48.77706209 65.33440687 47 68 C43.75181033 68.24514639 40.87622532 68.18945412 37.6875 67.5 C33.47855009 66.71693955 29.26859406 66.93488585 25 67 C24.01 67 23.02 67 22 67 C3.68614564 18.06696383 3.68614564 18.06696383 0 0 Z " fill="#028D5B" transform="translate(132,240)"/>
<path d="M0 0 C1.33431596 2.66863193 0.6992556 3.54100955 -0.22265625 6.33984375 C-0.655177 7.67317749 -0.655177 7.67317749 -1.09643555 9.03344727 C-1.41523682 9.99178467 -1.73403809 10.95012207 -2.0625 11.9375 C-2.71641127 13.94522607 -3.37005232 15.95304016 -4.0234375 17.9609375 C-4.35569336 18.97381836 -4.68794922 19.98669922 -5.03027344 21.03027344 C-6.4457401 25.36505101 -7.81838231 29.71290813 -9.1875 34.0625 C-9.55548706 35.22338135 -9.55548706 35.22338135 -9.9309082 36.40771484 C-11.04573382 39.93063926 -12.14343527 43.45656472 -13.19140625 47 C-13.54074219 48.175625 -13.89007813 49.35125 -14.25 50.5625 C-14.69085938 52.08037109 -14.69085938 52.08037109 -15.140625 53.62890625 C-16 56 -16 56 -18 58 C-18.91523438 57.79375 -19.83046875 57.5875 -20.7734375 57.375 C-24.08264152 56.66052881 -24.08264152 56.66052881 -26.8515625 58.6875 C-27.76679688 59.450625 -28.68203125 60.21375 -29.625 61 C-34.49185411 65.03526279 -34.49185411 65.03526279 -37.1953125 64.84765625 C-39.37619121 63.82330413 -41.14178044 62.52639464 -43 61 C-41.92473965 57.89897291 -40.57358829 55.22017489 -38.80078125 52.4765625 C-38.39666016 51.8475 -37.99253906 51.2184375 -37.57617188 50.5703125 C-36.7337804 49.27352438 -35.87954348 47.98435456 -35.01367188 46.703125 C-32.78402398 43.18451801 -31.97455758 41.5644667 -32.16796875 37.2734375 C-32.61712016 35.50635356 -33.0858597 33.74153248 -33.66064453 32.01123047 C-34.27500685 28.37013925 -31.69973152 25.60625791 -29.6875 22.75 C-29.2325415 22.10321289 -28.77758301 21.45642578 -28.30883789 20.79003906 C-24.77051846 16.16811312 -24.77051846 16.16811312 -21.421875 15.4375 C-19.76183834 15.64630964 -18.10513214 15.88349296 -16.453125 16.1484375 C-13.79747424 16.22413758 -13.79747424 16.22413758 -11.546875 14.0390625 C-9.2412384 11.43567812 -7.09672046 8.77361447 -5 6 C-3.98547632 4.7863642 -2.96598603 3.57682637 -1.9375 2.375 C-0.9784375 1.199375 -0.9784375 1.199375 0 0 Z " fill="#0DCE8D" transform="translate(414,110)"/>
<path d="M0 0 C5.70353197 5.51954707 11.44140638 11.33553094 15.98828125 17.84765625 C16.98408203 18.91306641 16.98408203 18.91306641 18 20 C20.27557798 20.07954843 20.27557798 20.07954843 22.625 19.4375 C25.51393106 19.24777915 27.23829674 19.34103811 29.46972656 21.27148438 C31.02215134 23.00781652 32.39695389 24.79184844 33.75 26.6875 C34.20455566 27.31261475 34.65911133 27.93772949 35.12744141 28.58178711 C36.359375 30.44921875 36.359375 30.44921875 38 34 C37.265625 36.51953125 37.265625 36.51953125 36 39 C35.1172445 45.59332425 37.44637327 49.0605919 41.0625 54.25 C42.02081374 55.64483647 42.97050561 57.0456483 43.91015625 58.453125 C44.33433838 59.06317383 44.75852051 59.67322266 45.19555664 60.30175781 C46 62 46 62 45 65 C41.59303995 64.40453574 39.83157153 63.19370818 37.25 60.9375 C34.36768872 58.70048229 32.42800744 57.54729127 28.75 57.4375 C25.04596067 57.9931059 23.67792953 58.52806505 21 61 C20.34 61 19.68 61 19 61 C15.05635152 51.59457287 12.21549111 42.04648544 9.48046875 32.23828125 C8.18007001 27.58721386 6.77705152 22.97667791 5.3125 18.375 C3.37920377 12.29096031 1.60988534 6.17777137 0 0 Z " fill="#0DCD8D" transform="translate(97,110)"/>
<path d="M0 0 C2.42795979 3.64193968 2.77882814 6.95420424 3.375 11.1875 C3.6358812 12.92069919 3.89764064 14.65376636 4.16015625 16.38671875 C4.29695801 17.30372559 4.43375977 18.22073242 4.57470703 19.16552734 C6.85298874 34.34971256 9.56964288 49.33159915 13.1574707 64.26757812 C13.41101318 65.34974609 13.66455566 66.43191406 13.92578125 67.546875 C14.15692627 68.50432617 14.38807129 69.46177734 14.6262207 70.44824219 C15.00178654 73.01219658 14.8301958 74.57123948 14 77 C10.40073484 76.67279408 8.42338357 75.65883666 5.6875 73.4375 C1.62853102 70.38664096 -0.99245393 70.35386502 -6 71 C-8.9254644 72.3509288 -8.9254644 72.3509288 -11 74 C-11.26356914 65.50613207 -10.47736533 57.34524155 -9.3125 48.9375 C-9.13605957 47.63997803 -8.95961914 46.34245605 -8.77783203 45.00561523 C-6.68522472 29.93146262 -4.46836245 14.57342067 0 0 Z " fill="#00BC81" transform="translate(217,67)"/>
<path d="M0 0 C5.2652826 0.34628334 8.4025468 3.3535115 12.40234375 6.50390625 C15.63478168 8.36559606 17.32045364 8.56900201 21 8 C23.99804914 6.09971088 26.5869017 3.91725178 29.31640625 1.65234375 C32 0 32 0 34.71484375 0.19140625 C37 1 37 1 39 2 C39 7.94 39 13.88 39 20 C36.36 20 33.72 20 31 20 C27.92886741 21.7055701 27.92886741 21.7055701 25.3125 24.0625 C20.65201563 28.00806202 20.65201563 28.00806202 17.47265625 27.96875 C14.59037861 26.83951642 12.55111232 25.3559115 10.125 23.4375 C6.9907018 21.19341667 5.18198378 20.04078947 1.375 19.1875 C-3.32944782 20.32005225 -6.39803201 22.8564643 -10 26 C-12.42479736 22.36280395 -12.38662577 20.14296518 -12.625 15.8125 C-12.69976562 14.54019531 -12.77453125 13.26789063 -12.8515625 11.95703125 C-12.90054687 10.98121094 -12.94953125 10.00539062 -13 9 C-12.22914063 8.51789063 -11.45828125 8.03578125 -10.6640625 7.5390625 C-9.66117187 6.90742188 -8.65828125 6.27578125 -7.625 5.625 C-6.62726563 4.99851563 -5.62953125 4.37203125 -4.6015625 3.7265625 C-1.9751981 2.10730288 -1.9751981 2.10730288 0 0 Z " fill="#00BE82" transform="translate(280,218)"/>
<path d="M0 0 C3.53397381 1.25951316 6.03808624 2.68831473 8.875 5.125 C11.52468206 7.11842933 13.0436948 8.01154202 16.3125 8.875 C21.34247967 7.6814455 24.4530389 4.87234226 28.3515625 1.5546875 C31 0 31 0 33.5234375 0.5078125 C34.34070313 1.00023437 35.15796875 1.49265625 36 2 C36.91136719 2.52078125 37.82273438 3.0415625 38.76171875 3.578125 C42.00218476 7.08438839 41.77799001 10.1256617 41.8125 14.75 C41.83763672 15.54277344 41.86277344 16.33554688 41.88867188 17.15234375 C41.9473673 19.10103195 41.9765898 21.05056859 42 23 C40.96875 22.34 39.9375 21.68 38.875 21 C35.4003541 19.04160298 33.03894072 18.2952184 29 19 C26.00329208 20.9368459 23.41031015 23.1479089 20.68359375 25.4453125 C18 27 18 27 15.4375 26.4375 C13.04052322 25.02389831 10.80119167 23.52708262 8.5625 21.875 C5.85368588 20.05571395 4.14910825 19.03347328 0.9375 18.3125 C-3.29095736 19.30213896 -6.48882414 21.50474812 -10 24 C-11.53363229 9.95874439 -11.53363229 9.95874439 -7.7734375 5.15625 C-5.26207294 3.20375248 -2.79384557 1.51665903 0 0 Z " fill="#21AE7C" transform="translate(213,236)"/>
<path d="M0 0 C-0.33 0.33 -0.66 0.66 -1 1 C-1.04689786 3.22763652 -1.02220457 5.45679133 -0.97070312 7.68432617 C-0.94101938 9.13510101 -0.91161388 10.58588156 -0.88244629 12.03666687 C-0.85680351 13.19776254 -0.85680351 13.19776254 -0.8306427 14.38231468 C-0.74646106 18.49087334 -0.69985422 22.59990743 -0.6484375 26.70898438 C-0.58271091 31.93432318 -0.50577762 37.1583835 -0.37597656 42.38256836 C-0.27207257 46.60486947 -0.21397954 50.82573442 -0.18504333 55.04918861 C-0.16610464 56.64835305 -0.13120065 58.24742192 -0.07899475 59.84584618 C0.30632318 72.04279932 -2.30838609 79.47956577 -10 89 C-10.99 89.99 -10.99 89.99 -12 91 C-12.36280468 80.03943804 -12.67077269 69.0788262 -12.90927315 58.1148138 C-13.02174168 53.02332758 -13.15288306 47.93376978 -13.32714844 42.84399414 C-13.49471621 37.92955252 -13.61264364 33.0161673 -13.69659042 28.09961128 C-13.73722243 26.22652243 -13.79557277 24.35372956 -13.87210464 22.48176384 C-14.4528957 7.85896163 -14.4528957 7.85896163 -10.82611084 3.21853638 C-4.46146371 -1.48715457 -4.46146371 -1.48715457 0 0 Z " fill="#09A46B" transform="translate(284,255)"/>
<path d="M0 0 C0.66 0.33 1.32 0.66 2 1 C2.73022461 3.67016602 2.73022461 3.67016602 3.40234375 7.25390625 C3.58603516 8.22059738 3.58603516 8.22059738 3.7734375 9.20681763 C4.17167206 11.32362396 4.55553429 13.44270167 4.9375 15.5625 C5.06939728 16.28063873 5.20129456 16.99877747 5.33718872 17.73867798 C7.10114542 27.35680916 8.69138426 36.9867449 9.9375 46.6875 C10.12977173 48.15328491 10.12977173 48.15328491 10.32592773 49.64868164 C10.43364502 50.55223389 10.5413623 51.45578613 10.65234375 52.38671875 C10.74507568 53.16233154 10.83780762 53.93794434 10.93334961 54.73706055 C11.00997083 57.33853348 10.69931579 59.49374832 10 62 C7.890625 64.08984375 7.890625 64.08984375 5.25 65.9375 C3.95835937 66.87916016 3.95835937 66.87916016 2.640625 67.83984375 C0 69 0 69 -2.65234375 68.296875 C-5.52339129 66.71087203 -7.73012652 65.39958053 -10 63 C-10.72969274 56.25726966 -8.76355508 49.84506509 -7.25 43.3125 C-4.03211632 28.95520058 -1.86703187 14.59435686 0 0 Z " fill="#08A169" transform="translate(302,45)"/>
<path d="M0 0 C3.51749997 1.58287498 6.46879817 3.75769252 9.5 6.125 C9.25765625 7.02476562 9.0153125 7.92453125 8.765625 8.8515625 C5.70606629 20.49881618 3.54066967 32.26155704 1.5 44.125 C0.90904541 44.09019531 0.31809082 44.05539063 -0.29077148 44.01953125 C-5.30316794 43.84769519 -8.43216681 43.97807947 -12.5625 47.125 C-13.31660156 47.681875 -14.07070313 48.23875 -14.84765625 48.8125 C-15.39292969 49.245625 -15.93820312 49.67875 -16.5 50.125 C-16.27177421 37.36510373 -13.7169532 25.19535516 -11.05664062 12.74951172 C-10.67886908 10.96835202 -10.33384855 9.17999257 -10.01855469 7.38671875 C-9.21915702 3.90008033 -7.22152691 2.87398883 -4.328125 1.015625 C-2.5 0.125 -2.5 0.125 0 0 Z " fill="#09A36B" transform="translate(285.5,157.875)"/>
<path d="M0 0 C1.77206945 0.08044414 3.5437602 0.17736708 5.3125 0.3125 C5.80169922 1.77623047 5.80169922 1.77623047 6.30078125 3.26953125 C6.74172834 4.55484511 7.18316008 5.83999278 7.625 7.125 C7.94500977 8.08889648 7.94500977 8.08889648 8.27148438 9.07226562 C9.46911054 12.52214398 10.42579257 15.03741161 13.3125 17.3125 C15.33042826 17.8119461 15.33042826 17.8119461 17.54296875 17.82421875 C18.74663086 17.87739258 18.74663086 17.87739258 19.97460938 17.93164062 C20.80798828 17.95419922 21.64136719 17.97675781 22.5 18 C23.34498047 18.03416016 24.18996094 18.06832031 25.06054688 18.10351562 C27.14406649 18.18591471 29.22826216 18.25088645 31.3125 18.3125 C30.72984728 22.73573682 29.04483789 25.8280864 26.75 29.625 C26.10933594 30.69363281 25.46867187 31.76226562 24.80859375 32.86328125 C24.31488281 33.67152344 23.82117188 34.47976563 23.3125 35.3125 C22.74176758 34.99104004 22.17103516 34.66958008 21.58300781 34.33837891 C19.20693242 33.26480161 17.57135128 33.00930791 14.984375 32.8984375 C14.18515625 32.85976563 13.3859375 32.82109375 12.5625 32.78125 C11.7375 32.7503125 10.9125 32.719375 10.0625 32.6875 C9.22203125 32.64882813 8.3815625 32.61015625 7.515625 32.5703125 C5.44826618 32.47634164 3.38041373 32.39334436 1.3125 32.3125 C0.94898438 31.18070312 0.58546875 30.04890625 0.2109375 28.8828125 C-0.29563549 27.40061746 -0.80351677 25.9188691 -1.3125 24.4375 C-1.66634766 23.31794922 -1.66634766 23.31794922 -2.02734375 22.17578125 C-2.77141714 20.05803391 -3.48313839 18.20856329 -4.6875 16.3125 C-7.74347356 14.70679655 -7.74347356 14.70679655 -10.6875 14.3125 C-8.04467681 0.04125475 -8.04467681 0.04125475 0 0 Z " fill="#00EBA1" transform="translate(283.6875,368.6875)"/>
<path d="M0 0 C3.63061667 1.53218685 5.9863773 3.7183144 8.75 6.5 C9.54921875 7.2940625 10.3484375 8.088125 11.171875 8.90625 C13 11 13 11 13 13 C12.27425781 13.39832031 11.54851562 13.79664063 10.80078125 14.20703125 C7.30864417 16.44258344 5.40662928 19.2794196 3.1875 22.6875 C2.78080078 23.29400391 2.37410156 23.90050781 1.95507812 24.52539062 C0.96088486 26.01083233 -0.02084534 27.50460258 -1 29 C-2.051875 28.855625 -3.10375 28.71125 -4.1875 28.5625 C-8.07668298 28.08071611 -11.97036124 27.70869277 -15.875 27.375 C-17.54175781 27.23191406 -17.54175781 27.23191406 -19.2421875 27.0859375 C-21.96118722 26.78273745 -21.96118722 26.78273745 -24 28 C-25.22812793 25.59167108 -26.43228415 23.17578675 -27.625 20.75 C-27.975625 20.06808594 -28.32625 19.38617188 -28.6875 18.68359375 C-31.17660385 13.55603983 -31.17660385 13.55603983 -30.2109375 10.515625 C-29.81132812 10.01546875 -29.41171875 9.5153125 -29 9 C-28.31035156 9.144375 -27.62070313 9.28875 -26.91015625 9.4375 C-18.00550314 11.37224802 -18.00550314 11.37224802 -9 11 C-5.04608374 8.0125966 -2.60797651 4.15344407 0 0 Z " fill="#00ECA1" transform="translate(193,312)"/>
<path d="M0 0 C2.66809325 1.0531947 3.70922559 1.60721504 5.375 3.9375 C5.56681219 6.46494088 5.58630883 8.71866578 5.44921875 11.23046875 C5.42277786 11.93649734 5.39633698 12.64252594 5.36909485 13.36994934 C5.28139949 15.62250008 5.17223333 17.87342574 5.0625 20.125 C4.99923374 21.65293676 4.93736792 23.18093221 4.87695312 24.70898438 C4.72587087 28.45269731 4.55552823 32.1950961 4.375 35.9375 C3.82972656 35.79570312 3.28445312 35.65390625 2.72265625 35.5078125 C-5.42005414 33.92102791 -5.73135136 35.67506757 -13.625 40.9375 C-13.625 29.7175 -13.625 18.4975 -13.625 6.9375 C-11.645 5.9475 -9.665 4.9575 -7.625 3.9375 C-6.779375 3.195 -5.93375 2.4525 -5.0625 1.6875 C-2.625 -0.0625 -2.625 -0.0625 0 0 Z " fill="#00BF83" transform="translate(215.625,185.0625)"/>
<path d="M0 0 C2.37590142 3.70416126 2.20500286 6.92984573 2.125 11.25 C2.10695313 12.51328125 2.08890625 13.7765625 2.0703125 15.078125 C2.04710937 16.04234375 2.02390625 17.0065625 2 18 C0.989375 18.556875 -0.02125 19.11375 -1.0625 19.6875 C-3.79854661 21.21858063 -6.18196577 22.91520331 -8.625 24.875 C-9.73875 25.57625 -10.8525 26.2775 -12 27 C-16.51254681 25.74490257 -19.9652876 23.04260101 -23.71875 20.33984375 C-26.17233571 18.89878228 -28.19973684 18.3993333 -31 18 C-30.45018084 11.95198929 -29.09570426 6.69398894 -27 1 C-23.953807 2.07512694 -21.70128318 3.21609302 -19.0625 5.125 C-15.518198 7.29498081 -14.07925078 7.43579574 -10 7 C-7.17158114 5.52455748 -7.17158114 5.52455748 -4.625 3.5 C-3.75101562 2.8503125 -2.87703125 2.200625 -1.9765625 1.53125 C-1.32429688 1.0259375 -0.67203125 0.520625 0 0 Z " fill="#00BD82" transform="translate(314,123)"/>
<path d="M0 0 C4.47636581 1.11909145 6.3950662 2.7892776 9.8046875 5.72265625 C12.78251571 7.45530719 14.59957593 7.44560265 18 7 C20.76028425 5.52097862 20.76028425 5.52097862 23.25 3.5 C27.83333333 0 27.83333333 0 30 0 C24.834 17.22 24.834 17.22 19.05859375 22.9140625 C17 24 17 24 15.01953125 23.87890625 C12.63302567 22.84029163 10.7676521 21.50038515 8.6875 19.9375 C5.63611494 17.86655998 4.01456772 17.00271602 0.3125 16.3125 C-4.06600736 17.22124681 -5.82495382 18.90239398 -9 22 C-9.66 21.67 -10.32 21.34 -11 21 C-7.37 14.07 -3.74 7.14 0 0 Z " fill="#018B5A" transform="translate(362,184)"/>
<path d="M0 0 C3.5011179 1.92218237 6.55620914 3.61032997 9.5625 6.25 C12.70064117 8.50302443 14.20678932 8.6192997 18 8 C20.0180755 6.69418644 22.02053408 5.36363208 24 4 C27 5 27 5 28.60546875 7.72265625 C29.38857422 9.37587891 29.38857422 9.37587891 30.1875 11.0625 C30.71730469 12.16722656 31.24710938 13.27195313 31.79296875 14.41015625 C32.19128906 15.26480469 32.58960938 16.11945313 33 17 C31.845 17.20625 30.69 17.4125 29.5 17.625 C25.05141632 18.68982056 22.25117939 20.8631124 18.859375 23.85546875 C17 25 17 25 15.13671875 24.88671875 C7.65850449 21.78332819 1.19365681 17.64551151 -2.3125 10.1875 C-4.18030691 5.54092072 -4.18030691 5.54092072 -3 2 C-2.01 1.34 -1.02 0.68 0 0 Z " fill="#00BD81" transform="translate(125,183)"/>
<path d="M0 0 C3.61111681 0.21241864 5.58384496 1.35834616 8.3125 3.5625 C12.33423263 6.60953324 15.03900474 6.48796675 20 6 C22.35529281 5.58268982 22.35529281 5.58268982 24 5 C25.31626692 8.61973402 26 11.09567131 26 15 C23.14761934 18.1496511 19.73933452 20.87273162 15.4375 21.1875 C13.21004443 20.10232934 11.62293713 18.95446424 9.6875 17.4375 C6.42954969 15.01347189 4.05106812 14.2550545 -0.00390625 14.4921875 C-3.66025096 15.42237304 -6.10625434 17.63775865 -9 20 C-9.33 20 -9.66 20 -10 20 C-10.53463851 15.55127956 -10.79888619 11.42540903 -10 7 C-7.38328306 4.12368812 -4.50067045 2.61467597 -1 1 C-0.67 0.67 -0.34 0.34 0 0 Z " fill="#20AB7A" transform="translate(213,154)"/>
<path d="M0 0 C3.00833342 1.4585859 5.45302677 2.87674229 8.0625 5 C8.76171875 8.08984375 8.76171875 8.08984375 8.75 11.9375 C8.77426288 13.44026087 8.8075668 14.94289054 8.84765625 16.4453125 C8.88076904 17.72970215 8.88076904 17.72970215 8.91455078 19.04003906 C9.28493469 26.45016207 10.28579001 33.82933505 11.13549805 41.19702148 C11.26867432 42.40688721 11.40185059 43.61675293 11.5390625 44.86328125 C11.66361816 45.94907471 11.78817383 47.03486816 11.91650391 48.15356445 C12.04939256 50.7444488 11.86749065 52.55735881 11.0625 55 C7.75809583 50.46721756 5.83768287 46.17439664 4.1171875 40.85546875 C3.8612381 40.08624588 3.6052887 39.31702301 3.34158325 38.52449036 C2.80465969 36.90470222 2.27208383 35.28346707 1.74365234 33.66088867 C0.94224085 31.2020456 0.12662549 28.74827924 -0.69140625 26.29492188 C-1.21438916 24.71121711 -1.73655134 23.12724104 -2.2578125 21.54296875 C-2.49742706 20.82078659 -2.73704163 20.09860443 -2.98391724 19.35453796 C-4.62435561 14.29502288 -5.86575677 9.20870639 -6.9375 4 C-2.57386364 0 -2.57386364 0 0 0 Z " fill="#00BF83" transform="translate(214.9375,271)"/>
<path d="M0 0 C3.96 0 7.92 0 12 0 C13.24820115 5.60264627 12.89599219 8.24971602 9.88671875 13.1171875 C9.21576172 14.21804688 8.54480469 15.31890625 7.85351562 16.453125 C7.49813721 17.01451172 7.14275879 17.57589844 6.77661133 18.15429688 C5.68390196 19.8806846 4.61835223 21.62159934 3.55664062 23.3671875 C-1.67120869 31.83560434 -1.67120869 31.83560434 -4 33 C-4.54324918 21.95393343 -2.67756868 10.71027471 0 0 Z " fill="#20AE7C" transform="translate(283,416)"/>
<path d="M0 0 C4.17234355 3.25646326 7.62310286 6.70643564 11.0546875 10.73046875 C13.30758938 13.35885427 15.61830281 15.92998054 17.9375 18.5 C18.70964844 19.3559375 19.48179687 20.211875 20.27734375 21.09375 C20.84582031 21.7228125 21.41429687 22.351875 22 23 C20.87548273 25.9719385 19.77706209 28.33440687 18 31 C14.375 31.1875 14.375 31.1875 11 31 C9.72769002 27.83392468 8.45742647 24.66703203 7.1875 21.5 C6.65286133 20.1696875 6.65286133 20.1696875 6.10742188 18.8125 C5.06488784 16.21094717 4.03035448 13.60639842 3 11 C2.69271973 10.22914063 2.38543945 9.45828125 2.06884766 8.6640625 C0.88927611 5.63503927 0 3.2806422 0 0 Z " fill="#20AC7A" transform="translate(161,277)"/>
<path d="M0 0 C3.69949397 3.82706272 4.24772288 8.46583539 5.25 13.5 C5.435625 14.35464844 5.62125 15.20929688 5.8125 16.08984375 C7.2440398 23.04148777 7.2440398 23.04148777 6 27 C2.62537285 26.45276317 0.91765 25.9451 -2 24 C-2.08470084 21.35612392 -2.00220783 18.98970197 -1.75 16.375 C-1.69207275 15.653125 -1.63414551 14.93125 -1.57446289 14.1875 C-1.17986667 9.44163714 -0.68728504 4.71281171 0 0 Z " fill="#0CC889" transform="translate(225,117)"/>
<path d="M0 0 C0.33 0 0.66 0 1 0 C1.33 3.3 1.66 6.6 2 10 C0.02 10.99 0.02 10.99 -2 12 C-1.85904936 10.3745692 -1.71207913 8.74965949 -1.5625 7.125 C-1.48128906 6.22007813 -1.40007812 5.31515625 -1.31640625 4.3828125 C-1 2 -1 2 0 0 Z " fill="#1EAC79" transform="translate(311,96)"/>
</svg>
