<?xml version="1.0" encoding="UTF-8"?>
<!DOCTYPE svg PUBLIC "-//W3C//DTD SVG 1.1//EN" "http://www.w3.org/Graphics/SVG/1.1/DTD/svg11.dtd">
<svg xmlns="http://www.w3.org/2000/svg" version="1.1" width="512px" height="512px" style="shape-rendering:geometricPrecision; text-rendering:geometricPrecision; image-rendering:optimizeQuality; fill-rule:evenodd; clip-rule:evenodd" xmlns:xlink="http://www.w3.org/1999/xlink">
<g><path style="opacity:0.985" fill="#010201" d="M 251.5,-0.5 C 254.167,-0.5 256.833,-0.5 259.5,-0.5C 320.129,32.292 368.295,78.292 404,137.5C 426.09,176.268 437.923,217.935 439.5,262.5C 438.643,309.907 423.977,352.407 395.5,390C 392.21,391.735 388.877,391.901 385.5,390.5C 384.928,389.027 384.095,387.693 383,386.5C 382.333,384.833 382.333,383.167 383,381.5C 429.244,315.957 436.244,246.29 404,172.5C 375.153,110.15 331.319,61.1496 272.5,25.5C 267.025,21.9261 261.359,18.5928 255.5,15.5C 192.316,50.1835 144.15,99.5168 111,163.5C 65.4977,266.649 85.9977,354.149 172.5,426C 195.692,443.43 221.025,456.93 248.5,466.5C 248.83,459.8 248.497,453.134 247.5,446.5C 224.502,434.005 202.169,420.505 180.5,406C 138.848,372.208 112.348,329.041 101,276.5C 102.744,271.921 105.91,268.921 110.5,267.5C 120.167,267.5 129.833,267.5 139.5,267.5C 137.435,257.235 134.769,247.235 131.5,237.5C 128.312,224.433 124.812,211.433 121,198.5C 120.175,191.985 122.675,187.151 128.5,184C 134.157,183.501 139.824,183.334 145.5,183.5C 150.833,183.5 156.167,183.5 161.5,183.5C 161.5,172.167 161.5,160.833 161.5,149.5C 161.04,137.066 161.54,124.733 163,112.5C 165.262,109.569 168.095,107.403 171.5,106C 177.491,105.501 183.491,105.334 189.5,105.5C 192.85,105.665 196.183,105.498 199.5,105C 209.223,91.7034 218.556,78.2034 227.5,64.5C 234.358,55.3119 241.358,46.1452 248.5,37C 252.026,35.6632 255.692,35.1632 259.5,35.5C 262.028,36.5077 264.195,38.1743 266,40.5C 280.778,62.2773 295.945,83.7773 311.5,105C 320.833,105.333 330.167,105.667 339.5,106C 344.245,107.115 347.412,109.948 349,114.5C 349.667,121.167 349.667,127.833 349,134.5C 347.809,137.534 345.642,139.201 342.5,139.5C 339.039,139.854 336.539,138.521 335,135.5C 334.501,130.511 334.334,125.511 334.5,120.5C 324.062,120.951 313.729,120.451 303.5,119C 287.274,96.9495 271.274,74.7829 255.5,52.5C 239.968,74.3838 224.301,96.2171 208.5,118C 207.167,118.667 205.833,119.333 204.5,120C 195.173,120.5 185.839,120.666 176.5,120.5C 176.667,143.502 176.5,166.502 176,189.5C 174.5,193.667 171.667,196.5 167.5,198C 157.172,198.5 146.839,198.666 136.5,198.5C 143.084,221.745 149.417,245.079 155.5,268.5C 155.751,276.243 152.084,280.577 144.5,281.5C 135.167,281.5 125.833,281.5 116.5,281.5C 116.263,282.791 116.596,283.791 117.5,284.5C 135.574,344.731 172.407,389.398 228,418.5C 221.83,406.521 214.83,394.854 207,383.5C 202.801,375.887 203.968,369.387 210.5,364C 214.784,362.833 219.117,362.333 223.5,362.5C 208.472,341.305 193.638,319.971 179,298.5C 175.118,285.416 179.951,279.249 193.5,280C 200.802,284.175 208.135,287.341 215.5,289.5C 204.402,271.633 193.569,253.633 183,235.5C 182.047,224.12 187.213,219.287 198.5,221C 204.206,223.069 209.872,225.235 215.5,227.5C 215.833,227.167 216.167,226.833 216.5,226.5C 208.2,211.704 199.7,197.037 191,182.5C 187.7,172.435 191.2,166.102 201.5,163.5C 208.777,165.876 216.11,167.71 223.5,169C 219.257,165.025 217.424,160.191 218,154.5C 228.333,126.5 238.667,98.5 249,70.5C 256.18,65.4241 261.18,67.0908 264,75.5C 273.667,101.833 283.333,128.167 293,154.5C 293.576,160.191 291.743,165.025 287.5,169C 294.503,167.505 301.503,165.671 308.5,163.5C 319.172,165.183 323.005,171.183 320,181.5C 311.7,196.628 303.2,211.628 294.5,226.5C 294.833,226.833 295.167,227.167 295.5,227.5C 303.281,222.927 311.614,220.76 320.5,221C 326.823,223.811 329.323,228.645 328,235.5C 324.265,242.906 320.098,250.072 315.5,257C 312.21,258.735 308.877,258.901 305.5,257.5C 303.984,255.801 302.984,253.801 302.5,251.5C 304.998,246.846 307.165,242.179 309,237.5C 301.683,241.719 293.85,243.886 285.5,244C 276.716,239.314 274.55,232.481 279,223.5C 287.813,209.32 295.646,194.987 302.5,180.5C 292.919,184.897 282.919,187.064 272.5,187C 266.842,183.373 264.675,178.207 266,171.5C 269.675,166.332 273.508,161.332 277.5,156.5C 270.559,136.675 263.225,117.008 255.5,97.5C 247.782,116.984 240.448,136.651 233.5,156.5C 237.492,161.332 241.325,166.332 245,171.5C 246.308,181.25 242.141,186.583 232.5,187.5C 224.77,186.424 217.27,184.424 210,181.5C 209.5,181.833 209,182.167 208.5,182.5C 216.333,196.167 224.167,209.833 232,223.5C 236.45,232.481 234.284,239.314 225.5,244C 217.111,244.068 209.278,241.901 202,237.5C 201.833,237.833 201.667,238.167 201.5,238.5C 212,255.5 222.5,272.5 233,289.5C 235.233,294.869 234.567,299.869 231,304.5C 228.31,306.899 225.143,308.232 221.5,308.5C 213.087,305.982 205.087,302.815 197.5,299C 212.371,319.906 226.871,341.073 241,362.5C 241.6,376.226 235.1,381.726 221.5,379C 230.057,392.051 238.391,405.217 246.5,418.5C 246.56,419.043 246.893,419.376 247.5,419.5C 248.5,345.503 248.833,271.503 248.5,197.5C 249.422,193.917 251.756,192.25 255.5,192.5C 259.244,192.25 261.578,193.917 262.5,197.5C 262.167,271.503 262.5,345.503 263.5,419.5C 264.107,419.376 264.44,419.043 264.5,418.5C 272.473,405.517 280.473,392.517 288.5,379.5C 279.838,381.753 273.671,378.753 270,370.5C 269.333,367.833 269.333,365.167 270,362.5C 284.129,341.073 298.629,319.906 313.5,299C 306.526,301.643 299.526,304.643 292.5,308C 282.71,309.214 277.377,304.881 276.5,295C 278.762,288.144 282.095,281.811 286.5,276C 289.351,274.711 292.351,274.211 295.5,274.5C 297.461,276.292 298.795,278.458 299.5,281C 298.391,284.348 297.224,287.515 296,290.5C 303.879,285.726 312.212,282.059 321,279.5C 332.097,281.348 335.764,287.681 332,298.5C 317.362,319.971 302.528,341.305 287.5,362.5C 291.837,362.106 296.17,362.606 300.5,364C 307.032,369.387 308.199,375.887 304,383.5C 296.17,395.24 289.003,406.906 282.5,418.5C 339.66,389.185 376.66,343.519 393.5,281.5C 383.161,281.666 372.828,281.5 362.5,281C 356.627,277.061 354.46,271.561 356,264.5C 362.173,242.47 368.34,220.47 374.5,198.5C 364.161,198.666 353.828,198.5 343.5,198C 340.438,196.939 337.938,195.106 336,192.5C 334.416,183.242 334.083,173.909 335,164.5C 336.539,161.479 339.039,160.146 342.5,160.5C 345.263,160.744 347.429,162.077 349,164.5C 349.5,170.825 349.666,177.158 349.5,183.5C 359.839,183.334 370.172,183.5 380.5,184C 387.813,186.128 390.98,190.961 390,198.5C 383.358,221.404 377.191,244.404 371.5,267.5C 381.839,267.334 392.172,267.5 402.5,268C 408.357,271.187 410.523,276.021 409,282.5C 394.347,339.351 362.847,384.184 314.5,417C 297.5,426.833 280.5,436.667 263.5,446.5C 262.503,453.134 262.17,459.8 262.5,466.5C 301.475,453.187 335.475,432.02 364.5,403C 367.681,402.403 370.681,402.903 373.5,404.5C 376.003,408.172 376.003,411.839 373.5,415.5C 342.368,446.082 306.035,468.582 264.5,483C 263.683,490.754 263.183,498.588 263,506.5C 262.003,508.323 260.836,509.99 259.5,511.5C 256.833,511.5 254.167,511.5 251.5,511.5C 250.199,510.36 249.032,509.027 248,507.5C 247.817,499.255 247.317,491.088 246.5,483C 183.02,461.491 133.853,422.324 99,365.5C 68.0089,307.937 63.3422,248.271 85,186.5C 103.848,134.296 134.015,89.7961 175.5,53C 199.074,32.5808 224.407,14.7475 251.5,-0.5 Z"/></g>
<g><path style="opacity:1" fill="#4ebe23" d="M 272.5,25.5 C 272.719,26.675 272.386,27.675 271.5,28.5C 267.729,31.3799 263.729,33.7133 259.5,35.5C 255.692,35.1632 252.026,35.6632 248.5,37C 241.358,46.1452 234.358,55.3119 227.5,64.5C 221.591,68.9018 216.091,73.9018 211,79.5C 203.622,88.0402 196.455,96.7068 189.5,105.5C 183.491,105.334 177.491,105.501 171.5,106C 168.095,107.403 165.262,109.569 163,112.5C 161.54,124.733 161.04,137.066 161.5,149.5C 155.216,160.333 149.883,171.667 145.5,183.5C 139.824,183.334 134.157,183.501 128.5,184C 122.675,187.151 120.175,191.985 121,198.5C 124.812,211.433 128.312,224.433 131.5,237.5C 131.122,247.165 130.789,256.831 130.5,266.5C 123.646,266.176 116.979,266.509 110.5,267.5C 105.91,268.921 102.744,271.921 101,276.5C 112.348,329.041 138.848,372.208 180.5,406C 202.169,420.505 224.502,434.005 247.5,446.5C 248.497,453.134 248.83,459.8 248.5,466.5C 221.025,456.93 195.692,443.43 172.5,426C 85.9977,354.149 65.4977,266.649 111,163.5C 144.15,99.5168 192.316,50.1835 255.5,15.5C 261.359,18.5928 267.025,21.9261 272.5,25.5 Z"/></g>
<g><path style="opacity:1" fill="#66c743" d="M 272.5,25.5 C 331.319,61.1496 375.153,110.15 404,172.5C 436.244,246.29 429.244,315.957 383,381.5C 382.333,383.167 382.333,384.833 383,386.5C 384.095,387.693 384.928,389.027 385.5,390.5C 381.845,395.486 377.845,400.153 373.5,404.5C 370.681,402.903 367.681,402.403 364.5,403C 335.475,432.02 301.475,453.187 262.5,466.5C 262.17,459.8 262.503,453.134 263.5,446.5C 280.5,436.667 297.5,426.833 314.5,417C 362.847,384.184 394.347,339.351 409,282.5C 410.523,276.021 408.357,271.187 402.5,268C 392.172,267.5 381.839,267.334 371.5,267.5C 377.191,244.404 383.358,221.404 390,198.5C 390.98,190.961 387.813,186.128 380.5,184C 370.172,183.5 359.839,183.334 349.5,183.5C 349.666,177.158 349.5,170.825 349,164.5C 347.429,162.077 345.263,160.744 342.5,160.5C 341.167,153.5 341.167,146.5 342.5,139.5C 345.642,139.201 347.809,137.534 349,134.5C 349.667,127.833 349.667,121.167 349,114.5C 347.412,109.948 344.245,107.115 339.5,106C 330.167,105.667 320.833,105.333 311.5,105C 295.945,83.7773 280.778,62.2773 266,40.5C 264.195,38.1743 262.028,36.5077 259.5,35.5C 263.729,33.7133 267.729,31.3799 271.5,28.5C 272.386,27.675 272.719,26.675 272.5,25.5 Z"/></g>
<g><path style="opacity:1" fill="#028e5c" d="M 342.5,139.5 C 341.167,146.5 341.167,153.5 342.5,160.5C 339.039,160.146 336.539,161.479 335,164.5C 334.083,173.909 334.416,183.242 336,192.5C 337.938,195.106 340.438,196.939 343.5,198C 353.828,198.5 364.161,198.666 374.5,198.5C 368.34,220.47 362.173,242.47 356,264.5C 354.46,271.561 356.627,277.061 362.5,281C 372.828,281.5 383.161,281.666 393.5,281.5C 376.66,343.519 339.66,389.185 282.5,418.5C 289.003,406.906 296.17,395.24 304,383.5C 308.199,375.887 307.032,369.387 300.5,364C 296.17,362.606 291.837,362.106 287.5,362.5C 302.528,341.305 317.362,319.971 332,298.5C 335.764,287.681 332.097,281.348 321,279.5C 312.212,282.059 303.879,285.726 296,290.5C 297.224,287.515 298.391,284.348 299.5,281C 298.795,278.458 297.461,276.292 295.5,274.5C 299.586,269.335 302.92,263.668 305.5,257.5C 308.877,258.901 312.21,258.735 315.5,257C 320.098,250.072 324.265,242.906 328,235.5C 329.323,228.645 326.823,223.811 320.5,221C 311.614,220.76 303.281,222.927 295.5,227.5C 295.167,227.167 294.833,226.833 294.5,226.5C 303.2,211.628 311.7,196.628 320,181.5C 323.005,171.183 319.172,165.183 308.5,163.5C 301.503,165.671 294.503,167.505 287.5,169C 291.743,165.025 293.576,160.191 293,154.5C 283.333,128.167 273.667,101.833 264,75.5C 261.18,67.0908 256.18,65.4241 249,70.5C 238.667,98.5 228.333,126.5 218,154.5C 217.424,160.191 219.257,165.025 223.5,169C 216.11,167.71 208.777,165.876 201.5,163.5C 191.2,166.102 187.7,172.435 191,182.5C 199.7,197.037 208.2,211.704 216.5,226.5C 216.167,226.833 215.833,227.167 215.5,227.5C 209.872,225.235 204.206,223.069 198.5,221C 187.213,219.287 182.047,224.12 183,235.5C 193.569,253.633 204.402,271.633 215.5,289.5C 208.135,287.341 200.802,284.175 193.5,280C 179.951,279.249 175.118,285.416 179,298.5C 193.638,319.971 208.472,341.305 223.5,362.5C 219.117,362.333 214.784,362.833 210.5,364C 203.968,369.387 202.801,375.887 207,383.5C 214.83,394.854 221.83,406.521 228,418.5C 172.407,389.398 135.574,344.731 117.5,284.5C 126.287,282.844 135.287,281.844 144.5,281.5C 152.084,280.577 155.751,276.243 155.5,268.5C 149.417,245.079 143.084,221.745 136.5,198.5C 146.839,198.666 157.172,198.5 167.5,198C 171.667,196.5 174.5,193.667 176,189.5C 176.5,166.502 176.667,143.502 176.5,120.5C 185.839,120.666 195.173,120.5 204.5,120C 205.833,119.333 207.167,118.667 208.5,118C 224.301,96.2171 239.968,74.3838 255.5,52.5C 271.274,74.7829 287.274,96.9495 303.5,119C 313.729,120.451 324.062,120.951 334.5,120.5C 334.334,125.511 334.501,130.511 335,135.5C 336.539,138.521 339.039,139.854 342.5,139.5 Z"/></g>
<g><path style="opacity:1" fill="#64c441" d="M 227.5,64.5 C 218.556,78.2034 209.223,91.7034 199.5,105C 196.183,105.498 192.85,105.665 189.5,105.5C 196.455,96.7068 203.622,88.0402 211,79.5C 216.091,73.9018 221.591,68.9018 227.5,64.5 Z"/></g>
<g><path style="opacity:1" fill="#ceee9c" d="M 305.5,257.5 C 302.92,263.668 299.586,269.335 295.5,274.5C 292.351,274.211 289.351,274.711 286.5,276C 282.095,281.811 278.762,288.144 276.5,295C 277.377,304.881 282.71,309.214 292.5,308C 299.526,304.643 306.526,301.643 313.5,299C 298.629,319.906 284.129,341.073 270,362.5C 269.333,365.167 269.333,367.833 270,370.5C 273.671,378.753 279.838,381.753 288.5,379.5C 280.473,392.517 272.473,405.517 264.5,418.5C 263.833,344.833 263.167,271.167 262.5,197.5C 261.578,193.917 259.244,192.25 255.5,192.5C 251.756,192.25 249.422,193.917 248.5,197.5C 247.833,271.167 247.167,344.833 246.5,418.5C 238.391,405.217 230.057,392.051 221.5,379C 235.1,381.726 241.6,376.226 241,362.5C 226.871,341.073 212.371,319.906 197.5,299C 205.087,302.815 213.087,305.982 221.5,308.5C 225.143,308.232 228.31,306.899 231,304.5C 234.567,299.869 235.233,294.869 233,289.5C 222.5,272.5 212,255.5 201.5,238.5C 201.667,238.167 201.833,237.833 202,237.5C 209.278,241.901 217.111,244.068 225.5,244C 234.284,239.314 236.45,232.481 232,223.5C 224.167,209.833 216.333,196.167 208.5,182.5C 209,182.167 209.5,181.833 210,181.5C 217.27,184.424 224.77,186.424 232.5,187.5C 242.141,186.583 246.308,181.25 245,171.5C 241.325,166.332 237.492,161.332 233.5,156.5C 240.448,136.651 247.782,116.984 255.5,97.5C 263.225,117.008 270.559,136.675 277.5,156.5C 273.508,161.332 269.675,166.332 266,171.5C 264.675,178.207 266.842,183.373 272.5,187C 282.919,187.064 292.919,184.897 302.5,180.5C 295.646,194.987 287.813,209.32 279,223.5C 274.55,232.481 276.716,239.314 285.5,244C 293.85,243.886 301.683,241.719 309,237.5C 307.165,242.179 304.998,246.846 302.5,251.5C 302.984,253.801 303.984,255.801 305.5,257.5 Z"/></g>
<g><path style="opacity:1" fill="#67c943" d="M 161.5,149.5 C 161.5,160.833 161.5,172.167 161.5,183.5C 156.167,183.5 150.833,183.5 145.5,183.5C 149.883,171.667 155.216,160.333 161.5,149.5 Z"/></g>
<g><path style="opacity:1" fill="#66764d" d="M 248.5,197.5 C 248.833,271.503 248.5,345.503 247.5,419.5C 246.893,419.376 246.56,419.043 246.5,418.5C 247.167,344.833 247.833,271.167 248.5,197.5 Z"/></g>
<g><path style="opacity:1" fill="#6b7b50" d="M 262.5,197.5 C 263.167,271.167 263.833,344.833 264.5,418.5C 264.44,419.043 264.107,419.376 263.5,419.5C 262.5,345.503 262.167,271.503 262.5,197.5 Z"/></g>
<g><path style="opacity:1" fill="#5ab13a" d="M 131.5,237.5 C 134.769,247.235 137.435,257.235 139.5,267.5C 129.833,267.5 120.167,267.5 110.5,267.5C 116.979,266.509 123.646,266.176 130.5,266.5C 130.789,256.831 131.122,247.165 131.5,237.5 Z"/></g>
<g><path style="opacity:1" fill="#014b31" d="M 144.5,281.5 C 135.287,281.844 126.287,282.844 117.5,284.5C 116.596,283.791 116.263,282.791 116.5,281.5C 125.833,281.5 135.167,281.5 144.5,281.5 Z"/></g>
</svg>
