<?xml version="1.0" encoding="UTF-8"?>
<!DOCTYPE svg PUBLIC "-//W3C//DTD SVG 1.1//EN" "http://www.w3.org/Graphics/SVG/1.1/DTD/svg11.dtd">
<svg xmlns="http://www.w3.org/2000/svg" version="1.1" width="512px" height="512px" style="shape-rendering:geometricPrecision; text-rendering:geometricPrecision; image-rendering:optimizeQuality; fill-rule:evenodd; clip-rule:evenodd" xmlns:xlink="http://www.w3.org/1999/xlink">
<g><path style="opacity:0.985" fill="#87d680" d="M 260.5,11.5 C 259.167,11.5 257.833,11.5 256.5,11.5C 256.5,21.5 256.5,31.5 256.5,41.5C 254.05,40.2235 251.717,38.7235 249.5,37C 243.498,36.0069 241.332,38.5069 243,44.5C 245.667,46.5 248.333,48.5 251,50.5C 251.828,54.8713 251.661,59.2047 250.5,63.5C 246.79,60.646 242.79,58.3127 238.5,56.5C 233.336,58.1616 232.336,61.1616 235.5,65.5C 240.752,68.7087 245.918,72.042 251,75.5C 251.828,79.8713 251.661,84.2047 250.5,88.5C 244.235,84.1173 237.735,80.1173 231,76.5C 225.706,79.3049 225.206,82.8049 229.5,87C 236.667,91.5 243.833,96 251,100.5C 251.827,104.541 251.66,108.541 250.5,112.5C 243.634,107.803 236.634,103.303 229.5,99C 223.01,98.1651 221.01,100.832 223.5,107C 232.667,112.833 241.833,118.667 251,124.5C 251.821,127.554 251.655,130.554 250.5,133.5C 244.833,130 239.167,126.5 233.5,123C 229.492,121.584 227.159,122.918 226.5,127C 226.643,129.151 227.643,130.818 229.5,132C 236.5,136.5 243.5,141 250.5,145.5C 251.655,148.446 251.821,151.446 251,154.5C 246.584,150.199 241.418,148.033 235.5,148C 232.595,151.374 232.928,154.374 236.5,157C 241.298,159.635 245.965,162.468 250.5,165.5C 251.822,174.992 251.822,184.325 250.5,193.5C 227.477,175.143 211.643,151.809 203,123.5C 197.453,95.569 202.786,69.9023 219,46.5C 226.429,35.5013 234.929,25.3346 244.5,16C 246.901,13.9376 249.567,12.2709 252.5,11C 255.367,10.1993 258.034,10.3659 260.5,11.5 Z"/></g>
<g><path style="opacity:1" fill="#72b96b" d="M 260.5,11.5 C 262.783,11.6079 264.783,12.4412 266.5,14C 285.527,31.3646 299.36,52.1979 308,76.5C 315.08,103.686 311.414,129.353 297,153.5C 287.485,169.182 275.651,182.848 261.5,194.5C 261.334,184.828 261.5,175.161 262,165.5C 266.584,162.792 271.084,159.958 275.5,157C 278.978,154.294 279.311,151.294 276.5,148C 275.5,147.833 274.5,147.667 273.5,147.5C 269.438,148.699 265.772,150.699 262.5,153.5C 261.348,150.894 261.182,148.227 262,145.5C 269.415,140.542 276.915,135.709 284.5,131C 287.1,128.541 287.1,126.041 284.5,123.5C 282.568,122.48 280.568,122.313 278.5,123C 273,126.5 267.5,130 262,133.5C 261.333,130.5 261.333,127.5 262,124.5C 270.245,118.626 278.745,113.126 287.5,108C 291.072,105.374 291.405,102.374 288.5,99C 286.5,98.3333 284.5,98.3333 282.5,99C 275.581,103.376 268.748,107.876 262,112.5C 261.333,108.5 261.333,104.5 262,100.5C 269.415,95.542 276.915,90.7087 284.5,86C 287.197,82.7291 286.864,79.7291 283.5,77C 282.167,76.3333 280.833,76.3333 279.5,77C 273.667,80.8333 267.833,84.6667 262,88.5C 261.333,84.1667 261.333,79.8333 262,75.5C 266.563,71.9401 271.396,68.7734 276.5,66C 279.699,61.493 278.699,58.3263 273.5,56.5C 269.559,58.5979 265.725,60.9313 262,63.5C 261.172,58.798 261.338,54.1313 262.5,49.5C 266.224,47.7758 268.891,45.1092 270.5,41.5C 269.833,38.8333 268.167,37.1667 265.5,36.5C 262.251,37.7554 259.251,39.4221 256.5,41.5C 256.5,31.5 256.5,21.5 256.5,11.5C 257.833,11.5 259.167,11.5 260.5,11.5 Z"/></g>
<g><path style="opacity:0.993" fill="#44701f" d="M 256.5,41.5 C 259.251,39.4221 262.251,37.7554 265.5,36.5C 268.167,37.1667 269.833,38.8333 270.5,41.5C 268.891,45.1092 266.224,47.7758 262.5,49.5C 261.338,54.1313 261.172,58.798 262,63.5C 265.725,60.9313 269.559,58.5979 273.5,56.5C 278.699,58.3263 279.699,61.493 276.5,66C 271.396,68.7734 266.563,71.9401 262,75.5C 261.333,79.8333 261.333,84.1667 262,88.5C 267.833,84.6667 273.667,80.8333 279.5,77C 280.833,76.3333 282.167,76.3333 283.5,77C 286.864,79.7291 287.197,82.7291 284.5,86C 276.915,90.7087 269.415,95.542 262,100.5C 261.333,104.5 261.333,108.5 262,112.5C 268.748,107.876 275.581,103.376 282.5,99C 284.5,98.3333 286.5,98.3333 288.5,99C 291.405,102.374 291.072,105.374 287.5,108C 278.745,113.126 270.245,118.626 262,124.5C 261.333,127.5 261.333,130.5 262,133.5C 267.5,130 273,126.5 278.5,123C 280.568,122.313 282.568,122.48 284.5,123.5C 287.1,126.041 287.1,128.541 284.5,131C 276.915,135.709 269.415,140.542 262,145.5C 261.182,148.227 261.348,150.894 262.5,153.5C 265.772,150.699 269.438,148.699 273.5,147.5C 274.5,147.667 275.5,147.833 276.5,148C 279.311,151.294 278.978,154.294 275.5,157C 271.084,159.958 266.584,162.792 262,165.5C 261.5,175.161 261.334,184.828 261.5,194.5C 261.333,224.502 261.5,254.502 262,284.5C 275.369,271.299 288.535,257.965 301.5,244.5C 308.442,238.731 315.275,232.731 322,226.5C 321.492,219.452 320.325,212.452 318.5,205.5C 319.852,201.746 322.518,200.579 326.5,202C 327,202.5 327.5,203 328,203.5C 329.355,207.771 330.522,212.104 331.5,216.5C 336.188,213.787 337.688,209.787 336,204.5C 334.498,197.329 332.998,190.162 331.5,183C 332.528,178.794 335.195,177.461 339.5,179C 340,179.5 340.5,180 341,180.5C 342.284,187.922 343.951,195.256 346,202.5C 348,200.5 350,198.5 352,196.5C 350.55,185.416 348.383,174.416 345.5,163.5C 347.326,158.301 350.493,157.301 355,160.5C 356.893,169.522 358.893,178.522 361,187.5C 364.427,184.58 367.261,181.247 369.5,177.5C 367.5,168.833 365.5,160.167 363.5,151.5C 365.376,146.294 368.543,145.294 373,148.5C 375.049,155.744 376.716,163.078 378,170.5C 381.167,167.333 384.333,164.167 387.5,161C 386.081,154.894 384.747,148.728 383.5,142.5C 385.651,136.837 388.818,136.17 393,140.5C 393.85,144.62 395.017,148.62 396.5,152.5C 399.484,150.016 402.318,147.35 405,144.5C 405.159,141.118 404.659,137.785 403.5,134.5C 405.162,129.336 408.162,128.336 412.5,131.5C 413.713,134.997 415.046,138.33 416.5,141.5C 419.962,142.156 423.128,143.489 426,145.5C 426.635,147.635 426.301,149.635 425,151.5C 420.559,152.305 416.059,152.471 411.5,152C 408.833,154.667 406.167,157.333 403.5,160C 407.787,161.488 412.12,162.822 416.5,164C 418.717,168.683 417.384,171.516 412.5,172.5C 406.505,171.862 400.672,170.529 395,168.5C 391.348,170.985 388.182,173.985 385.5,177.5C 392.437,179.546 399.437,181.379 406.5,183C 408.706,185.209 409.04,187.709 407.5,190.5C 406.312,191.84 404.812,192.507 403,192.5C 394.571,190.19 386.071,188.19 377.5,186.5C 374.089,188.403 371.089,190.903 368.5,194C 376.986,196.955 385.652,199.288 394.5,201C 397.706,205.457 396.706,208.624 391.5,210.5C 380.633,207.37 369.633,205.204 358.5,204C 356.833,205.667 355.167,207.333 353.5,209C 360.335,211.372 367.335,213.372 374.5,215C 376.984,217.284 377.151,219.784 375,222.5C 373.769,223.108 372.436,223.441 371,223.5C 361.845,221.549 352.679,220.049 343.5,219C 341.981,220.351 340.648,221.851 339.5,223.5C 343.398,224.975 347.398,226.142 351.5,227C 353.984,229.284 354.151,231.784 352,234.5C 350.431,235.122 348.764,235.456 347,235.5C 341.215,234.063 335.382,233.229 329.5,233C 323.636,239.199 317.469,245.032 311,250.5C 310.536,251.094 310.369,251.761 310.5,252.5C 294.201,268.298 278.035,284.298 262,300.5C 261.501,305.155 261.334,309.821 261.5,314.5C 257.833,315.833 254.167,315.833 250.5,314.5C 250.666,310.154 250.499,305.821 250,301.5C 233.632,284.965 217.132,268.632 200.5,252.5C 200.631,251.761 200.464,251.094 200,250.5C 193.547,245.014 187.38,239.18 181.5,233C 174.217,234.092 166.883,234.758 159.5,235C 156.833,232.333 156.833,229.667 159.5,227C 163.404,225.524 167.404,224.357 171.5,223.5C 169.833,221.167 167.833,219.167 165.5,217.5C 158.259,219.652 150.925,221.486 143.5,223C 138.643,224.753 135.643,223.253 134.5,218.5C 134.529,216.971 135.196,215.804 136.5,215C 143.524,212.83 150.524,210.83 157.5,209C 155.833,207.333 154.167,205.667 152.5,204C 141.353,205.082 130.353,207.249 119.5,210.5C 115.233,209.398 113.733,206.731 115,202.5C 115.903,201.299 117.069,200.465 118.5,200C 126.718,198.635 134.718,196.635 142.5,194C 139.814,190.46 136.481,187.96 132.5,186.5C 124.143,188.393 115.809,190.393 107.5,192.5C 102.301,190.674 101.301,187.507 104.5,183C 111.463,181.009 118.463,179.176 125.5,177.5C 122.813,173.979 119.647,170.979 116,168.5C 110.363,169.825 104.696,171.159 99,172.5C 93.6738,171.856 92.1738,169.023 94.5,164C 98.8669,162.793 103.2,161.459 107.5,160C 104.833,157.333 102.167,154.667 99.5,152C 94.9406,152.471 90.4406,152.305 86,151.5C 83.7091,148.165 84.2091,145.332 87.5,143C 90.2066,142.605 92.8733,142.105 95.5,141.5C 95.6944,137.117 97.361,133.283 100.5,130C 104.229,129.217 106.563,130.717 107.5,134.5C 106.341,137.785 105.841,141.118 106,144.5C 108.682,147.35 111.516,150.016 114.5,152.5C 115.983,148.62 117.15,144.62 118,140.5C 122.182,136.17 125.349,136.837 127.5,142.5C 126.323,148.739 124.99,154.906 123.5,161C 126.667,164.167 129.833,167.333 133,170.5C 134.284,163.078 135.951,155.744 138,148.5C 142.457,145.294 145.624,146.294 147.5,151.5C 145.372,160.14 143.372,168.807 141.5,177.5C 143.739,181.247 146.573,184.58 150,187.5C 152.128,178.526 154.128,169.526 156,160.5C 160.507,157.301 163.674,158.301 165.5,163.5C 162.616,174.421 160.449,185.421 159,196.5C 161,198.5 163,200.5 165,202.5C 167.049,195.256 168.716,187.922 170,180.5C 172.153,178.556 174.653,178.056 177.5,179C 178.894,179.956 179.561,181.289 179.5,183C 178.002,190.162 176.502,197.329 175,204.5C 173.312,209.787 174.812,213.787 179.5,216.5C 180.478,212.104 181.645,207.771 183,203.5C 185.153,201.556 187.653,201.056 190.5,202C 191.804,202.804 192.471,203.971 192.5,205.5C 190.676,212.445 189.509,219.445 189,226.5C 195.725,232.731 202.558,238.731 209.5,244.5C 222.798,258.299 236.298,271.965 250,285.5C 250.5,254.835 250.667,224.168 250.5,193.5C 251.822,184.325 251.822,174.992 250.5,165.5C 245.965,162.468 241.298,159.635 236.5,157C 232.928,154.374 232.595,151.374 235.5,148C 241.418,148.033 246.584,150.199 251,154.5C 251.821,151.446 251.655,148.446 250.5,145.5C 243.5,141 236.5,136.5 229.5,132C 227.643,130.818 226.643,129.151 226.5,127C 227.159,122.918 229.492,121.584 233.5,123C 239.167,126.5 244.833,130 250.5,133.5C 251.655,130.554 251.821,127.554 251,124.5C 241.833,118.667 232.667,112.833 223.5,107C 221.01,100.832 223.01,98.1651 229.5,99C 236.634,103.303 243.634,107.803 250.5,112.5C 251.66,108.541 251.827,104.541 251,100.5C 243.833,96 236.667,91.5 229.5,87C 225.206,82.8049 225.706,79.3049 231,76.5C 237.735,80.1173 244.235,84.1173 250.5,88.5C 251.661,84.2047 251.828,79.8713 251,75.5C 245.918,72.042 240.752,68.7087 235.5,65.5C 232.336,61.1616 233.336,58.1616 238.5,56.5C 242.79,58.3127 246.79,60.646 250.5,63.5C 251.661,59.2047 251.828,54.8713 251,50.5C 248.333,48.5 245.667,46.5 243,44.5C 241.332,38.5069 243.498,36.0069 249.5,37C 251.717,38.7235 254.05,40.2235 256.5,41.5 Z"/></g>
<g><path style="opacity:0.985" fill="#87d681" d="M 437.5,120.5 C 430.194,127.14 423.194,134.14 416.5,141.5C 415.046,138.33 413.713,134.997 412.5,131.5C 408.162,128.336 405.162,129.336 403.5,134.5C 404.659,137.785 405.159,141.118 405,144.5C 402.318,147.35 399.484,150.016 396.5,152.5C 395.017,148.62 393.85,144.62 393,140.5C 388.818,136.17 385.651,136.837 383.5,142.5C 384.747,148.728 386.081,154.894 387.5,161C 384.333,164.167 381.167,167.333 378,170.5C 376.716,163.078 375.049,155.744 373,148.5C 368.543,145.294 365.376,146.294 363.5,151.5C 365.5,160.167 367.5,168.833 369.5,177.5C 367.261,181.247 364.427,184.58 361,187.5C 358.893,178.522 356.893,169.522 355,160.5C 350.493,157.301 347.326,158.301 345.5,163.5C 348.383,174.416 350.55,185.416 352,196.5C 350,198.5 348,200.5 346,202.5C 343.951,195.256 342.284,187.922 341,180.5C 340.5,180 340,179.5 339.5,179C 335.195,177.461 332.528,178.794 331.5,183C 332.998,190.162 334.498,197.329 336,204.5C 337.688,209.787 336.188,213.787 331.5,216.5C 330.522,212.104 329.355,207.771 328,203.5C 327.5,203 327,202.5 326.5,202C 322.518,200.579 319.852,201.746 318.5,205.5C 320.325,212.452 321.492,219.452 322,226.5C 315.275,232.731 308.442,238.731 301.5,244.5C 298.579,153.92 342.245,111.086 432.5,116C 434.708,117.047 436.374,118.547 437.5,120.5 Z"/></g>
<g><path style="opacity:1" fill="#71b96b" d="M 209.5,244.5 C 202.558,238.731 195.725,232.731 189,226.5C 189.509,219.445 190.676,212.445 192.5,205.5C 192.471,203.971 191.804,202.804 190.5,202C 187.653,201.056 185.153,201.556 183,203.5C 181.645,207.771 180.478,212.104 179.5,216.5C 174.812,213.787 173.312,209.787 175,204.5C 176.502,197.329 178.002,190.162 179.5,183C 179.561,181.289 178.894,179.956 177.5,179C 174.653,178.056 172.153,178.556 170,180.5C 168.716,187.922 167.049,195.256 165,202.5C 163,200.5 161,198.5 159,196.5C 160.449,185.421 162.616,174.421 165.5,163.5C 163.674,158.301 160.507,157.301 156,160.5C 154.128,169.526 152.128,178.526 150,187.5C 146.573,184.58 143.739,181.247 141.5,177.5C 143.372,168.807 145.372,160.14 147.5,151.5C 145.624,146.294 142.457,145.294 138,148.5C 135.951,155.744 134.284,163.078 133,170.5C 129.833,167.333 126.667,164.167 123.5,161C 124.99,154.906 126.323,148.739 127.5,142.5C 125.349,136.837 122.182,136.17 118,140.5C 117.15,144.62 115.983,148.62 114.5,152.5C 111.516,150.016 108.682,147.35 106,144.5C 105.841,141.118 106.341,137.785 107.5,134.5C 106.563,130.717 104.229,129.217 100.5,130C 97.361,133.283 95.6944,137.117 95.5,141.5C 89.1878,133.188 81.8544,125.854 73.5,119.5C 78.6633,115.372 84.6633,113.705 91.5,114.5C 114.181,114.279 135.847,118.779 156.5,128C 178.518,140.359 193.684,158.526 202,182.5C 208.282,202.751 210.782,223.418 209.5,244.5 Z"/></g>
<g><path style="opacity:0.986" fill="#87d681" d="M 73.5,119.5 C 81.8544,125.854 89.1878,133.188 95.5,141.5C 92.8733,142.105 90.2066,142.605 87.5,143C 84.2091,145.332 83.7091,148.165 86,151.5C 90.4406,152.305 94.9406,152.471 99.5,152C 102.167,154.667 104.833,157.333 107.5,160C 103.2,161.459 98.8669,162.793 94.5,164C 92.1738,169.023 93.6738,171.856 99,172.5C 104.696,171.159 110.363,169.825 116,168.5C 119.647,170.979 122.813,173.979 125.5,177.5C 118.463,179.176 111.463,181.009 104.5,183C 101.301,187.507 102.301,190.674 107.5,192.5C 115.809,190.393 124.143,188.393 132.5,186.5C 136.481,187.96 139.814,190.46 142.5,194C 134.718,196.635 126.718,198.635 118.5,200C 117.069,200.465 115.903,201.299 115,202.5C 113.733,206.731 115.233,209.398 119.5,210.5C 130.353,207.249 141.353,205.082 152.5,204C 154.167,205.667 155.833,207.333 157.5,209C 150.524,210.83 143.524,212.83 136.5,215C 135.196,215.804 134.529,216.971 134.5,218.5C 135.643,223.253 138.643,224.753 143.5,223C 150.925,221.486 158.259,219.652 165.5,217.5C 167.833,219.167 169.833,221.167 171.5,223.5C 167.404,224.357 163.404,225.524 159.5,227C 156.833,229.667 156.833,232.333 159.5,235C 166.883,234.758 174.217,234.092 181.5,233C 187.38,239.18 193.547,245.014 200,250.5C 200.464,251.094 200.631,251.761 200.5,252.5C 109.838,257.004 66.6709,214.004 71,123.5C 71.6622,122.016 72.4955,120.683 73.5,119.5 Z"/></g>
<g><path style="opacity:1" fill="#71b96b" d="M 437.5,120.5 C 438.79,121.058 439.623,122.058 440,123.5C 444.329,214.004 401.162,257.004 310.5,252.5C 310.369,251.761 310.536,251.094 311,250.5C 317.469,245.032 323.636,239.199 329.5,233C 335.382,233.229 341.215,234.063 347,235.5C 348.764,235.456 350.431,235.122 352,234.5C 354.151,231.784 353.984,229.284 351.5,227C 347.398,226.142 343.398,224.975 339.5,223.5C 340.648,221.851 341.981,220.351 343.5,219C 352.679,220.049 361.845,221.549 371,223.5C 372.436,223.441 373.769,223.108 375,222.5C 377.151,219.784 376.984,217.284 374.5,215C 367.335,213.372 360.335,211.372 353.5,209C 355.167,207.333 356.833,205.667 358.5,204C 369.633,205.204 380.633,207.37 391.5,210.5C 396.706,208.624 397.706,205.457 394.5,201C 385.652,199.288 376.986,196.955 368.5,194C 371.089,190.903 374.089,188.403 377.5,186.5C 386.071,188.19 394.571,190.19 403,192.5C 404.812,192.507 406.312,191.84 407.5,190.5C 409.04,187.709 408.706,185.209 406.5,183C 399.437,181.379 392.437,179.546 385.5,177.5C 388.182,173.985 391.348,170.985 395,168.5C 400.672,170.529 406.505,171.862 412.5,172.5C 417.384,171.516 418.717,168.683 416.5,164C 412.12,162.822 407.787,161.488 403.5,160C 406.167,157.333 408.833,154.667 411.5,152C 416.059,152.471 420.559,152.305 425,151.5C 426.301,149.635 426.635,147.635 426,145.5C 423.128,143.489 419.962,142.156 416.5,141.5C 423.194,134.14 430.194,127.14 437.5,120.5 Z"/></g>
<g><path style="opacity:0.998" fill="#e07b7b" d="M 250.5,314.5 C 254.167,315.833 257.833,315.833 261.5,314.5C 293.167,314.5 324.833,314.5 356.5,314.5C 355.704,329.182 354.704,343.848 353.5,358.5C 288.665,358.168 223.998,358.501 159.5,359.5C 157.87,344.672 156.537,329.672 155.5,314.5C 187.167,314.5 218.833,314.5 250.5,314.5 Z"/></g>
<g><path style="opacity:0.998" fill="#a09ab9" d="M 353.5,358.5 C 353.5,358.833 353.5,359.167 353.5,359.5C 342.5,359.5 331.5,359.5 320.5,359.5C 318.998,382.853 317.165,406.186 315,429.5C 310.267,448.566 298.434,460.733 279.5,466C 242.353,466.478 205.353,466.645 168.5,466.5C 164.433,430.962 161.433,395.296 159.5,359.5C 223.998,358.501 288.665,358.168 353.5,358.5 Z"/></g>
<g><path style="opacity:1" fill="#aeabc5" d="M 353.5,359.5 C 350.947,393.519 348.114,427.519 345,461.5C 339.502,481.333 326.669,493.166 306.5,497C 272.833,497.667 239.167,497.667 205.5,497C 187.253,493.912 174.919,483.746 168.5,466.5C 205.353,466.645 242.353,466.478 279.5,466C 298.434,460.733 310.267,448.566 315,429.5C 317.165,406.186 318.998,382.853 320.5,359.5C 331.5,359.5 342.5,359.5 353.5,359.5 Z"/></g>
</svg>
