<?xml version="1.0" encoding="UTF-8"?>
<!DOCTYPE svg PUBLIC "-//W3C//DTD SVG 1.1//EN" "http://www.w3.org/Graphics/SVG/1.1/DTD/svg11.dtd">
<svg xmlns="http://www.w3.org/2000/svg" version="1.1" width="512px" height="512px" style="shape-rendering:geometricPrecision; text-rendering:geometricPrecision; image-rendering:optimizeQuality; fill-rule:evenodd; clip-rule:evenodd" xmlns:xlink="http://www.w3.org/1999/xlink">
<g><path style="opacity:0.992" fill="#77a25d" d="M 304.5,154.5 C 300.509,153.673 296.842,152.007 293.5,149.5C 289.765,144.821 287.265,139.487 286,133.5C 280.223,104.495 282.556,76.1621 293,48.5C 302.816,28.8626 318.649,17.5293 340.5,14.5C 364.282,15.768 374.782,28.1014 372,51.5C 369.112,64.4955 364.446,76.8288 358,88.5C 350,103.167 342,117.833 334,132.5C 328.4,141.434 320.9,148.268 311.5,153C 309.187,153.662 306.854,154.162 304.5,154.5 Z"/></g>
<g><path style="opacity:0.99" fill="#385a2b" d="M 253.5,178.5 C 250.302,181.011 246.636,182.345 242.5,182.5C 238.393,182.075 234.726,180.575 231.5,178C 224.52,171.358 218.687,163.858 214,155.5C 206.922,141.01 199.589,126.677 192,112.5C 187.488,102.609 185.821,92.2758 187,81.5C 190.007,72.4949 196.173,66.9949 205.5,65C 229.599,63.6423 246.433,74.1423 256,96.5C 262.551,117.771 264.218,139.437 261,161.5C 259.928,167.916 257.428,173.582 253.5,178.5 Z"/></g>
<g><path style="opacity:0.991" fill="#77a25d" d="M 291.5,273.5 C 289.723,272.4 287.723,271.566 285.5,271C 285.05,268.467 284.05,266.3 282.5,264.5C 278.479,240.623 282.646,218.29 295,197.5C 310.209,174.291 330.376,156.791 355.5,145C 367.782,139.551 379.449,140.551 390.5,148C 396.451,153.958 398.617,161.125 397,169.5C 394.755,179.906 390.755,189.572 385,198.5C 368.997,223.939 349.164,246.106 325.5,265C 315.098,271.601 303.765,274.434 291.5,273.5 Z"/></g>
<g><path style="opacity:0.959" fill="#293d1a" d="M 293.5,149.5 C 296.842,152.007 300.509,153.673 304.5,154.5C 299.566,162.032 295.399,170.032 292,178.5C 285.667,195.5 279.333,212.5 273,229.5C 269.173,237.656 264.173,244.989 258,251.5C 257.333,264.833 257.333,278.167 258,291.5C 258.274,297.301 259.274,302.968 261,308.5C 267.908,293.684 275.075,279.018 282.5,264.5C 284.05,266.3 285.05,268.467 285.5,271C 287.723,271.566 289.723,272.4 291.5,273.5C 282.261,290.147 273.927,307.314 266.5,325C 271.714,339.736 274.881,354.903 276,370.5C 283.097,362.577 289.597,354.244 295.5,345.5C 296.793,346.842 297.626,348.509 298,350.5C 300.191,351.833 302.024,353.5 303.5,355.5C 296.818,362.69 290.651,370.356 285,378.5C 281.478,384.399 279.145,390.732 278,397.5C 276.418,415.461 276.084,433.461 277,451.5C 279.7,444.073 283.866,437.739 289.5,432.5C 289.117,437.428 291.117,440.761 295.5,442.5C 285.524,457.93 280.024,474.93 279,493.5C 276.432,496.148 273.599,496.648 270.5,495C 268.655,492.149 267.489,488.982 267,485.5C 265.224,470.89 264.224,456.224 264,441.5C 260.499,430.163 255.165,419.829 248,410.5C 241.328,402.996 234.495,395.662 227.5,388.5C 230.231,385.073 231.231,381.073 230.5,376.5C 244.314,387.468 255.814,400.468 265,415.5C 267.546,387.295 264.879,359.628 257,332.5C 251.527,316.232 242.694,302.232 230.5,290.5C 231.955,286.224 232.955,281.89 233.5,277.5C 238.457,280.623 242.624,284.623 246,289.5C 246.295,268.827 246.795,248.161 247.5,227.5C 247.377,212.297 245.71,197.297 242.5,182.5C 246.636,182.345 250.302,181.011 253.5,178.5C 257.042,195.626 258.875,212.959 259,230.5C 262.239,225.124 264.905,219.458 267,213.5C 273.933,191.31 282.767,169.977 293.5,149.5 Z"/></g>
<g><path style="opacity:0.985" fill="#587937" d="M 233.5,277.5 C 232.955,281.89 231.955,286.224 230.5,290.5C 226.564,293.532 222.064,294.866 217,294.5C 205.632,293.822 195.466,289.989 186.5,283C 183.084,278.913 179.084,275.58 174.5,273C 162.16,268.663 150.493,262.996 139.5,256C 131.95,250.465 126.783,243.298 124,234.5C 122.573,226.184 125.406,219.684 132.5,215C 148.586,206.725 164.92,206.391 181.5,214C 208.944,226.939 226.277,248.106 233.5,277.5 Z"/></g>
<g><path style="opacity:0.987" fill="#385a2a" d="M 303.5,355.5 C 302.024,353.5 300.191,351.833 298,350.5C 297.626,348.509 296.793,346.842 295.5,345.5C 294.01,331.471 297.844,319.138 307,308.5C 319.485,293.429 335.152,283.429 354,278.5C 378.552,275.612 386.219,285.612 377,308.5C 369.952,314.937 362.452,320.771 354.5,326C 345.464,334.704 336.131,343.038 326.5,351C 319.501,356.163 311.835,357.663 303.5,355.5 Z"/></g>
<g><path style="opacity:0.991" fill="#77a25d" d="M 230.5,376.5 C 231.231,381.073 230.231,385.073 227.5,388.5C 187.909,404.062 153.743,396.062 125,364.5C 120.897,359.295 117.563,353.628 115,347.5C 111.556,338.506 113.723,331.339 121.5,326C 126.816,323.006 132.482,321.006 138.5,320C 169.814,316.435 196.314,325.935 218,348.5C 224.61,356.721 228.776,366.055 230.5,376.5 Z"/></g>
<g><path style="opacity:0.988" fill="#587937" d="M 295.5,442.5 C 291.117,440.761 289.117,437.428 289.5,432.5C 288.863,412.594 295.863,395.76 310.5,382C 329.758,364.469 352.424,356.469 378.5,358C 390.161,358.826 396.161,364.993 396.5,376.5C 392.691,397.274 382.358,414.108 365.5,427C 344.605,442.889 321.272,448.055 295.5,442.5 Z"/></g>
</svg>
