<?xml version="1.0" encoding="UTF-8"?>
<svg version="1.1" xmlns="http://www.w3.org/2000/svg" width="512" height="512">
<path d="M0 0 C2.875 1.5 2.875 1.5 5 4 C5.63402285 10.43591375 4.31285233 14.51097023 1.37890625 20.171875 C0.81530144 21.30726463 0.81530144 21.30726463 0.24031067 22.46559143 C-0.971725 24.90096718 -2.20457199 27.32514575 -3.4375 29.75 C-4.68464118 32.24571627 -5.92598379 34.74425696 -7.16680908 37.24311829 C-7.98209925 38.88451039 -8.7991032 40.52505243 -9.61785889 42.16471863 C-12.76846255 48.48456116 -15.76535912 54.85489093 -18.625 61.3125 C-19.16338501 62.52728027 -19.16338501 62.52728027 -19.71264648 63.76660156 C-20.48031514 65.50877801 -21.24122561 67.25393146 -22 69 C-21.52691406 69.6084375 -21.05382812 70.216875 -20.56640625 70.84375 C4.32937059 103.844 15.94376914 143.87689827 11.68652344 185.03027344 C10.9085367 190.49209846 9.65667277 195.7412617 8 201 C7.78569336 201.68368652 7.57138672 202.36737305 7.35058594 203.07177734 C5.8071479 207.82228641 3.99888656 212.42390378 2 217 C1.57509277 217.97549805 1.57509277 217.97549805 1.14160156 218.97070312 C-9.61430291 243.09720709 -28.81042611 266.56667451 -49.11328125 283.421875 C-51.29634061 285.24787082 -53.35482247 287.18535392 -55.4375 289.125 C-62.58247167 295.56092868 -70.29328839 301.26194999 -78 307 C-79.07580322 307.8051001 -79.07580322 307.8051001 -80.17333984 308.62646484 C-100.428284 323.73145725 -121.98326102 336.64503022 -144 349 C-145.41297363 349.79905762 -145.41297363 349.79905762 -146.85449219 350.61425781 C-149.41385143 352.05360813 -151.98459276 353.46919889 -154.5625 354.875 C-155.29299561 355.28588867 -156.02349121 355.69677734 -156.77612305 356.12011719 C-161.89753002 358.85296131 -166.20293593 359.64659 -172 360 C-175.24622272 351.39602974 -176.80115228 342.51375523 -178.4375 333.5 C-178.58962952 332.67162628 -178.74175903 331.84325256 -178.89849854 330.98977661 C-181.08688666 319.0139281 -182.94086144 307.02692664 -184.375 294.9375 C-184.49390091 293.93662354 -184.49390091 293.93662354 -184.61520386 292.91552734 C-186.11081856 280.14343368 -187.15143382 267.44090006 -187.203125 254.578125 C-187.20882507 253.43502869 -187.21452515 252.29193237 -187.22039795 251.11419678 C-187.22977628 248.70748803 -187.23635308 246.30076686 -187.24023438 243.89404297 C-187.24986543 240.30021343 -187.28092877 236.70697544 -187.3125 233.11328125 C-187.53034395 185.60310648 -178.04257554 138.08647053 -144 103 C-118.03436994 76.94467865 -78.08019644 62.01402676 -41.5625 61.875 C-40.0414118 61.90599743 -38.52033983 61.94310579 -37 62 C-36.73968994 61.16170654 -36.47937988 60.32341309 -36.21118164 59.4597168 C-34.90650771 55.7329411 -33.31779327 52.2030775 -31.62109375 48.64453125 C-31.2928511 47.94890076 -30.96460846 47.25327026 -30.62641907 46.53656006 C-29.56697799 44.29351526 -28.50261738 42.05285433 -27.4375 39.8125 C-26.34390664 37.50679893 -25.25083798 35.20084962 -24.1578064 32.8948822 C-23.43775851 31.37615444 -22.7172415 29.85764901 -21.99624634 28.33937073 C-19.99468651 24.1198214 -18.02070065 19.88957132 -16.08203125 15.640625 C-15.67734619 14.76043701 -15.27266113 13.88024902 -14.85571289 12.97338867 C-14.14211367 11.4174619 -13.43628032 9.85793882 -12.73999023 8.29418945 C-9.84715303 2.03598584 -7.16188409 -1.0231263 0 0 Z " fill="#FD5727" transform="translate(500,152)"/>
<path d="M0 0 C4.12011814 0.33662645 7.12928664 1.79685921 10.70703125 3.71484375 C11.4021582 4.07610352 12.09728516 4.43736328 12.81347656 4.80957031 C14.27967233 5.57388482 15.74301815 6.34368875 17.20361328 7.11865234 C19.29908088 8.22686376 21.4049034 9.31181174 23.515625 10.390625 C59.34270176 28.83228482 92.65194444 52.14295302 122.39453125 79.27734375 C123.4070744 80.18542875 124.42011843 81.09295547 125.43359375 82 C131.1437545 87.13382465 136.48079927 92.36616617 141.39453125 98.27734375 C142.2246875 99.21964844 143.05484375 100.16195312 143.91015625 101.1328125 C159.76575328 119.20369507 172.02660831 140.01014287 178.39453125 163.27734375 C178.73355469 164.46328125 179.07257813 165.64921875 179.421875 166.87109375 C184.23494706 187.27674489 182.87465559 211.17086901 177.39453125 231.27734375 C177.19085938 232.03192871 176.9871875 232.78651367 176.77734375 233.56396484 C171.36003093 252.87986187 162.13762156 273.61665017 149.06933594 289.01757812 C146.95677476 292.23333518 146.95677476 292.23333518 148.34228516 295.83813477 C148.99003192 297.16679488 149.66864213 298.48068271 150.37109375 299.78125 C150.90572487 300.84958321 150.90572487 300.84958321 151.45115662 301.9394989 C152.61582331 304.25316806 153.81752697 306.54538751 155.01953125 308.83984375 C155.82129303 310.42197831 156.62003514 312.0056467 157.41577148 313.59082031 C158.99340825 316.72579259 160.58365159 319.85370464 162.18798828 322.97509766 C165.00720579 328.46237102 167.7568453 333.98039032 170.45703125 339.52734375 C170.86711426 340.33373291 171.27719727 341.14012207 171.69970703 341.97094727 C173.948018 346.56841038 175.02712441 350.04051581 174.39453125 355.27734375 C171.94854238 358.65856366 170.50156566 360.04671158 166.39453125 360.90234375 C162.30725807 360.0508285 161.11566294 358.43804682 158.39453125 355.27734375 C156.72436201 352.46442236 155.3589495 349.5381967 153.99609375 346.56640625 C153.59804535 345.72121429 153.19999695 344.87602234 152.78988647 344.00521851 C151.52291904 341.30889327 150.27103266 338.60587673 149.01953125 335.90234375 C148.18718691 334.12453663 147.35386189 332.3471883 146.51953125 330.5703125 C144.8963935 327.10926762 143.28109878 323.64474598 141.67285156 320.17675781 C140.20645417 317.01593956 138.72764423 313.86161415 137.23339844 310.71386719 C136.90383148 310.01707855 136.57426453 309.32028992 136.23471069 308.60238647 C135.35458779 306.74343023 134.47112035 304.88605848 133.58740234 303.02880859 C132.39453125 300.27734375 132.39453125 300.27734375 132.39453125 298.27734375 C131.56888672 298.32955078 131.56888672 298.32955078 130.7265625 298.3828125 C92.71083788 299.62053377 53.34061961 283.12950059 25.7578125 257.5703125 C3.86488349 236.32874337 -7.31422461 209.18049589 -13.35546875 179.71484375 C-13.55430664 178.74724121 -13.75314453 177.77963867 -13.95800781 176.78271484 C-17.48021586 158.55241846 -18.01068546 140.55094952 -17.98046875 122.02734375 C-17.97965302 120.14434067 -17.97965302 120.14434067 -17.9788208 118.22329712 C-17.93604882 96.66673434 -16.78690905 75.59334069 -13.60546875 54.27734375 C-13.48949341 53.49359375 -13.37351807 52.70984375 -13.25402832 51.90234375 C-11.10124921 37.44703745 -8.79061092 23.0375543 -5.48046875 8.796875 C-5.30974854 8.05878098 -5.13902832 7.32068695 -4.96313477 6.56022644 C-3.48456432 0.37092064 -3.48456432 0.37092064 0 0 Z " fill="#D83131" transform="translate(17.60546875,-0.27734375)"/>
<path d="M0 0 C2.11463509 0.15947145 4.22920273 0.31983706 6.34375 0.48046875 C7.03508026 0.53202621 7.72641052 0.58358368 8.43869019 0.63670349 C12.46481072 0.94076793 16.48614 1.27340292 20.50634766 1.64794922 C29.92446924 2.50096297 39.24649039 3.06713467 48.70687866 3.12257385 C89.77610963 3.45098899 89.77610963 3.45098899 97.89453125 11.12402344 C104.04002377 18.44238295 106.5807508 27.75535189 108.85839844 36.86035156 C110.38130954 42.77025219 113.17062031 47.99810943 116 53.375 C116.80383927 55.00185439 117.59690535 56.63411402 118.375 58.2734375 C118.69210938 58.92747559 119.00921875 59.58151367 119.3359375 60.25537109 C120 62 120 62 120 65 C112.87538383 65.08988979 105.85959375 64.87347716 98.76171875 64.265625 C97.81400604 64.18827621 96.86629333 64.11092743 95.88986206 64.03123474 C90.68561332 63.60208851 85.48403258 63.1448619 80.28295898 62.67895508 C79.2133342 62.58325729 78.14370941 62.48755951 77.04167175 62.38896179 C74.87069819 62.19452816 72.69980971 61.99914217 70.52900696 61.80281067 C64.49319751 61.26790562 58.46477906 60.8290411 52.41343689 60.51602173 C48.93851249 60.32967062 45.468427 60.09007369 41.99746704 59.84143066 C40.39289114 59.73999462 38.78653204 59.6632923 37.17953491 59.61315918 C25.28298349 59.22680043 25.28298349 59.22680043 21.48587036 55.52313232 C18.72286413 51.9466699 16.71573948 48.05995912 14.87461853 43.94673157 C13.98616316 41.96920186 13.02330896 40.04687901 12.0300293 38.12011719 C8.56088788 31.31300588 5.95744432 24.33344797 3.625 17.0625 C3.37403564 16.28165039 3.12307129 15.50080078 2.86450195 14.69628906 C1.36242449 9.79372603 0.49935248 5.1038469 0 0 Z " fill="#ED6060" transform="translate(6,184)"/>
<path d="M0 0 C-0.55158381 3.15325969 -1.23897672 5.85583346 -2.65478516 8.72607422 C-2.99248932 9.41804901 -3.33019348 10.1100238 -3.6781311 10.82296753 C-4.04473846 11.55943512 -4.41134583 12.29590271 -4.7890625 13.0546875 C-5.17057465 13.83329132 -5.55208679 14.61189514 -5.94515991 15.41409302 C-7.16631539 17.90378858 -8.39529469 20.38951788 -9.625 22.875 C-10.83176374 25.32549405 -12.03681526 27.7768168 -13.24057007 30.22879028 C-13.98769541 31.7494069 -14.73669776 33.26910376 -15.4881897 34.78756714 C-15.84480682 35.51106354 -16.20142395 36.23455994 -16.56884766 36.97998047 C-16.96240952 37.7356279 -17.35597137 38.49127533 -17.76145935 39.26982117 C-19.13143155 42.12463547 -19.13143155 42.12463547 -20.13319397 45.81184387 C-21.46936381 49.98342631 -22.85683033 53.84811836 -26 57 C-32.1302646 60.09618474 -39.5154711 59.87892012 -46.23046875 60.21484375 C-48.22918461 60.36656086 -50.22743093 60.52458345 -52.22517395 60.68861389 C-57.46981495 61.10209534 -62.71640232 61.42917777 -67.96807861 61.73846436 C-73.31533014 62.06904974 -78.65608371 62.48273407 -83.99804688 62.88867188 C-91.79456437 63.47036769 -99.59212315 64.01833616 -107.39526367 64.50366211 C-108.61954575 64.58052246 -108.61954575 64.58052246 -109.86856079 64.65893555 C-113.2553435 64.86428642 -116.60547493 65 -120 65 C-118.45936844 47.20887114 -110.44831819 29.00695138 -101 14 C-100.50921463 13.11871178 -100.50921463 13.11871178 -100.0085144 12.21961975 C-98.80267737 10.24767386 -97.65282706 8.61867489 -96 7 C-93.09188879 6.33338718 -91.18608674 6.16451657 -88.28125 6.25390625 C-86.57149885 6.23352108 -84.86184029 6.20431944 -83.15234375 6.16845703 C-82.18731934 6.15163879 -81.22229492 6.13482056 -80.22802734 6.11749268 C-74.54350236 5.91058921 -68.88897386 5.33990264 -63.22879028 4.79511642 C-61.08118703 4.58863589 -58.93315165 4.3873971 -56.78491211 4.18765259 C-51.60371306 3.70510317 -46.42321859 3.21519786 -41.24291992 2.7230835 C-36.8116439 2.30215778 -32.3800257 1.88528959 -27.9478302 1.47415352 C-25.90537366 1.28310785 -23.86353549 1.08623908 -21.82165527 0.8891449 C-14.52121136 0.21142086 -7.33194084 -0.17472551 0 0 Z " fill="#FD7C42" transform="translate(439,263)"/>
<path d="M0 0 C1.6315485 0.1101142 3.2630476 0.22096034 4.89453125 0.33203125 C5.97879395 0.40542725 7.06305664 0.47882324 8.18017578 0.55444336 C10.63649972 0.72895165 13.09193865 0.9163174 15.54638672 1.11547852 C22.02323385 1.63277418 28.44660149 2.04187526 34.94520569 2.10623169 C59.09121863 2.37870038 59.09121863 2.37870038 65.30664062 6.546875 C68.9979211 10.70654846 70.46192675 15.6509242 71.99316406 20.91015625 C73.77000673 26.36304685 76.38791784 31.45316326 78.87628174 36.60916138 C80.26352014 39.51208977 81.58877507 42.44299766 82.921875 45.37109375 C85.44462025 50.87445766 88.12731358 56.2788035 90.90722656 61.65649414 C92 64 92 64 92 66 C62.29415125 63.73511237 32.64834265 60.91529755 3 58 C2.67801609 56.42529173 2.35801098 54.85017878 2.03881836 53.27490234 C1.86039902 52.39780609 1.68197968 51.52070984 1.49815369 50.61703491 C-0.52865722 39.96924678 -0.1154838 29.16570152 -0.0625 18.375 C-0.0574755 16.589845 -0.05291428 14.80468864 -0.04882812 13.01953125 C-0.03789651 8.6796533 -0.0206841 4.33984198 0 0 Z " fill="#ED6060" transform="translate(0,111)"/>
<path d="M0 0 C-1.32555328 4.22828226 -2.9287211 8.14017301 -4.87109375 12.12109375 C-5.72525879 13.87993896 -5.72525879 13.87993896 -6.59667969 15.67431641 C-7.21021866 16.9287441 -7.82382686 18.18313794 -8.4375 19.4375 C-9.38381561 21.38132171 -10.32890763 23.32573504 -11.27389526 25.27020264 C-11.91273832 26.58457458 -12.55200174 27.89874229 -13.19168091 29.21270752 C-16.71806689 36.46124573 -20.17783523 43.74150365 -23.62280273 51.02905273 C-24.25037476 52.34885132 -24.25037476 52.34885132 -24.890625 53.6953125 C-25.25188477 54.45859863 -25.61314453 55.22188477 -25.98535156 56.00830078 C-27 58 -27 58 -29 61 C-31.31938171 61.55058289 -31.31938171 61.55058289 -34.2565918 61.79956055 C-35.355009 61.89943771 -36.45342621 61.99931488 -37.58512878 62.10221863 C-38.77777847 62.19610367 -39.97042816 62.28998871 -41.19921875 62.38671875 C-42.42276566 62.49345413 -43.64631256 62.60018951 -44.90693665 62.7101593 C-48.16681185 62.99152287 -51.4274157 63.26040601 -54.68878174 63.52380371 C-57.98559122 63.79381449 -61.28074336 64.0828404 -64.57617188 64.36914062 C-85.43220584 66.15047106 -85.43220584 66.15047106 -92 66 C-92.52253227 15.04506454 -92.52253227 15.04506454 -89 8 C-86.47188886 7.57790388 -84.02890644 7.28882509 -81.48046875 7.0703125 C-80.69047485 6.99511383 -79.90048096 6.91991516 -79.08654785 6.84243774 C-76.45429088 6.59421913 -73.8210082 6.35954078 -71.1875 6.125 C-69.35840791 5.95552689 -67.52938847 5.78526803 -65.70043945 5.61425781 C-61.8255255 5.25381824 -57.95011918 4.89947485 -54.07421875 4.54980469 C-48.95130582 4.08749202 -43.82942126 3.61476628 -38.70780945 3.13827515 C-33.70130337 2.67265162 -28.69444337 2.21089455 -23.6875 1.75 C-22.72476166 1.66123596 -21.76202332 1.57247192 -20.77011108 1.48101807 C-18.03833226 1.23004936 -15.30632597 0.98174008 -12.57421875 0.734375 C-11.76247192 0.65957916 -10.9507251 0.58478333 -10.11437988 0.50772095 C-6.72161474 0.20305388 -3.40988421 0 0 0 Z " fill="#FD7C42" transform="translate(405,335)"/>
<path d="M0 0 C0.66 0 1.32 0 2 0 C10.04549816 14.02397111 17.14234323 27.36517532 20.875 43.1875 C21.09067627 44.09016602 21.30635254 44.99283203 21.52856445 45.92285156 C23.3761845 54.34327838 24.95371258 62.47349571 20.33789062 70.19604492 C19.13671614 71.97537787 17.9080539 73.73638364 16.65625 75.48046875 C16.0125647 76.41933426 15.36887939 77.35819977 14.70568848 78.32551575 C12.66064955 81.2966378 10.58136707 84.24174663 8.5 87.1875 C7.10052365 89.20736445 5.70336246 91.22883506 4.30859375 93.25195312 C0.89896006 98.18686634 -2.53906116 103.10095262 -6 108 C-8.46680145 104.80145696 -10.25738122 101.6553782 -12.00390625 98.00390625 C-12.57544434 96.81474609 -13.14698242 95.62558594 -13.73583984 94.40039062 C-14.3450352 93.12124069 -14.95391573 91.84194078 -15.5625 90.5625 C-16.18676044 89.25573931 -16.81127404 87.94909952 -17.43603516 86.64257812 C-18.38105334 84.66573941 -19.32552999 82.68865424 -20.26800537 80.71060181 C-22.20060594 76.65714885 -24.16111022 72.61876772 -26.14453125 68.58984375 C-26.60980225 67.637146 -27.07507324 66.68444824 -27.55444336 65.70288086 C-28.4139552 63.94365446 -29.28031262 62.18775073 -30.15454102 60.43579102 C-30.53408936 59.65260498 -30.9136377 58.86941895 -31.3046875 58.0625 C-31.63452637 57.39347656 -31.96436523 56.72445312 -32.30419922 56.03515625 C-33.1707895 53.50045568 -33.28744145 51.66607114 -33 49 C-31.90869141 46.84130859 -31.90869141 46.84130859 -30.3515625 44.6484375 C-29.47407349 43.38990967 -29.47407349 43.38990967 -28.57885742 42.10595703 C-27.93408447 41.20474121 -27.28931152 40.30352539 -26.625 39.375 C-25.25716432 37.42324033 -23.89137582 35.4700448 -22.52734375 33.515625 C-21.79757324 32.47341797 -21.06780273 31.43121094 -20.31591797 30.35742188 C-17.84059761 26.79236858 -15.44914426 23.17423016 -13.06640625 19.546875 C-12.65880066 18.92773224 -12.25119507 18.30858948 -11.83123779 17.67068481 C-10.21303029 15.21147817 -8.59565277 12.751835 -6.98931885 10.28485107 C-5.86745295 8.56341855 -4.73732115 6.84768902 -3.60546875 5.1328125 C-2.95731201 4.14168457 -2.30915527 3.15055664 -1.64135742 2.12939453 C-1.09970947 1.42669434 -0.55806152 0.72399414 0 0 Z " fill="#ED6060" transform="translate(147,135)"/>
<path d="M0 0 C6.2716523 5.69419908 10.67720557 13.29267941 15.41015625 20.25024414 C16.63152261 22.03415862 17.86520183 23.80970836 19.11132812 25.57641602 C31.68577563 43.41633007 31.68577563 43.41633007 30.546875 53.32397461 C30.36640625 54.20706299 30.1859375 55.09015137 30 56 C29.89171875 56.73806885 29.7834375 57.4761377 29.671875 58.23657227 C26.96546862 74.11114049 19.9155655 89.143541 12 103 C11.46761719 103.96550781 10.93523437 104.93101562 10.38671875 105.92578125 C9.92910156 106.61027344 9.47148437 107.29476562 9 108 C8.34 108 7.68 108 7 108 C5.68545532 106.3699646 5.68545532 106.3699646 4.17431641 104.05615234 C3.60677643 103.19460541 3.03923645 102.33305847 2.45449829 101.44540405 C1.84302948 100.50178009 1.23156067 99.55815613 0.6015625 98.5859375 C-0.02980621 97.62354156 -0.66117493 96.66114563 -1.31167603 95.66958618 C-3.33934101 92.57562509 -5.35728173 89.47545486 -7.375 86.375 C-8.72852464 84.30556952 -10.08268337 82.23655362 -11.4375 80.16796875 C-17.83260913 70.40024583 -17.83260913 70.40024583 -20.52655029 66.22088623 C-21.42390629 64.86832864 -22.35367296 63.53568418 -23.33721924 62.2444458 C-25.20918115 59.77267956 -25.99777306 58.33629782 -26.01855469 55.19799805 C-24.63628101 50.85801653 -22.74122094 46.89888739 -20.703125 42.83203125 C-20.05715363 41.51884163 -20.05715363 41.51884163 -19.39813232 40.17912292 C-18.02274828 37.38656029 -16.63681912 34.59939885 -15.25 31.8125 C-13.43993866 28.15370898 -11.63394498 24.49291706 -9.828125 20.83203125 C-9.39802124 19.96208527 -8.96791748 19.09213928 -8.52478027 18.1958313 C-5.55924288 12.18323095 -2.6899363 6.14190183 0 0 Z " fill="#FD7C42" transform="translate(453,269)"/>
<path d="M0 0 C13.88736778 8.21588331 25.00096567 23.81972619 29.10546875 39.52734375 C29.38263312 42.61772652 29.30616429 45.41656283 29.10546875 48.52734375 C15.42592561 54.49659894 -2.0068398 52.38417054 -15.58984375 47.0859375 C-25.63210996 42.41183735 -35.04816179 36.12309891 -40.0546875 25.9140625 C-42.3691935 19.3365594 -42.84271914 12.72057211 -39.890625 6.3046875 C-36.43615061 0.14082143 -33.13127283 -2.44818059 -26.49609375 -4.77734375 C-17.07413715 -7.29552434 -8.48745629 -4.31817952 0 0 Z " fill="#EE6060" transform="translate(305.89453125,102.47265625)"/>
<path d="M0 0 C4.88597732 4.32495696 7.24155654 9.12359342 7.99609375 15.59375 C7.82379675 23.32557809 5.52696351 29.18884208 -0.00390625 34.59375 C-13.4291361 46.06750161 -28.99888728 47.84538039 -46.00390625 46.59375 C-53.46984719 45.50873436 -61.68345317 43.79166287 -68.00390625 39.59375 C-69.18735861 36.25277294 -69.26145896 34.39313529 -68.17578125 31.0234375 C-63.78737936 23.13878136 -58.33317496 16.94168912 -52.00390625 10.59375 C-51.41867187 9.9853125 -50.8334375 9.376875 -50.23046875 8.75 C-38.02194977 -2.90076938 -14.90391469 -10.4588875 0 0 Z " fill="#FFC343" transform="translate(447.00390625,21.40625)"/>
<path d="M0 0 C4.72023354 3.96800509 7.60250564 8.64903013 8.3359375 14.83203125 C8.44153064 22.88878747 7.56282049 28.04541709 2.1171875 34.08984375 C-8.14079799 43.96177602 -20.57000478 47.39686469 -34.5 47.375 C-35.56138184 47.37338867 -36.62276367 47.37177734 -37.71630859 47.37011719 C-48.93147741 47.19629144 -58.72244635 45.63080411 -68 39 C-67.5149796 27.84453085 -59.46896134 19.59707389 -52 12 C-51.36191406 11.34902344 -50.72382812 10.69804687 -50.06640625 10.02734375 C-36.98746963 -2.34462333 -16.54824266 -8.76083435 0 0 Z " fill="#FE7C43" transform="translate(144,435)"/>
<path d="M0 0 C6.46618546 4.71767612 9.41490086 12.11768855 11.296875 19.67578125 C11.7093263 22.93938136 11.77469284 26.1389177 11.734375 29.42578125 C11.72680176 30.29976563 11.71922852 31.17375 11.71142578 32.07421875 C11.30666105 48.09935672 4.05596527 64.37854093 -7.6015625 75.484375 C-9.703125 76.67578125 -9.703125 76.67578125 -12.18359375 76.625 C-21.65910898 73.05515473 -27.4684336 60.36502387 -31.703125 51.67578125 C-36.97457585 39.95979613 -38.11335658 24.7739253 -34.140625 12.42578125 C-31.31157923 6.11254228 -27.33176323 0.47415945 -20.828125 -2.32421875 C-13.18036577 -4.5597176 -6.99945722 -3.85839645 0 0 Z " fill="#FFC343" transform="translate(270.703125,348.32421875)"/>
<path d="M0 0 C0.66 0 1.32 0 2 0 C3.32800293 1.65022278 3.32800293 1.65022278 4.85742188 3.99145508 C5.43141724 4.86268509 6.0054126 5.7339151 6.59680176 6.63154602 C7.52341614 8.06109871 7.52341614 8.06109871 8.46875 9.51953125 C9.10486206 10.48904221 9.74097412 11.45855316 10.3963623 12.45744324 C12.43746311 15.57156156 14.46882005 18.69190385 16.5 21.8125 C17.87045463 23.9073193 19.24154027 26.00172594 20.61328125 28.09570312 C23.63874054 32.71625488 26.65801809 37.34077845 29.67199707 41.96882629 C30.77234095 43.65179664 31.88463241 45.32694861 33 47 C32.502213 51.52754384 29.404702 54.11566865 26.375 57.25 C25.27253499 58.41320778 24.17096796 59.57726733 23.0703125 60.7421875 C22.53825195 61.30260742 22.00619141 61.86302734 21.45800781 62.44042969 C19.65779751 64.36603977 17.94899797 66.35990938 16.25 68.375 C13.47693544 71.57468988 10.48815054 74.33068908 7.25390625 77.05859375 C3.52960142 80.26653049 -0.01231397 83.68020124 -3.58203125 87.05859375 C-6 89 -6 89 -9 89 C-10.74766224 87.16039586 -12.24860344 85.37818774 -13.765625 83.359375 C-14.20934448 82.77064606 -14.65306396 82.18191711 -15.11022949 81.5753479 C-27.53091862 64.68916211 -27.53091862 64.68916211 -28.27734375 57.22753906 C-27.29127342 51.82414015 -24.06408361 47.57197005 -20.98583984 43.13134766 C-17.13703082 37.06239947 -14.2640348 30.45926223 -11.20397949 23.96734619 C-9.04539676 19.41968721 -6.81261137 14.90788175 -4.58821106 10.39213562 C-2.91683916 6.974756 -1.3544318 3.55565011 0 0 Z " fill="#FD7C42" transform="translate(418,342)"/>
<path d="M0 0 C3.34505874 0.58860565 5.05289885 1.65231212 7.49609375 3.984375 C8.13740234 4.59023437 8.77871094 5.19609375 9.43945312 5.8203125 C10.09880859 6.45710938 10.75816406 7.09390625 11.4375 7.75 C12.09298828 8.37132813 12.74847656 8.99265625 13.42382812 9.6328125 C17.00298284 13.03606092 20.51881975 16.49646867 24 20 C25.05137406 21.04108136 26.10350633 22.08139737 27.15625 23.12109375 C28.2708655 24.22653007 29.38544839 25.33199927 30.5 26.4375 C31.33337891 27.25831055 31.33337891 27.25831055 32.18359375 28.09570312 C33.80939666 29.71194249 35.40950005 31.34905706 37 33 C37.51304687 33.51836426 38.02609375 34.03672852 38.5546875 34.57080078 C39.96875 36.09765625 39.96875 36.09765625 42 39 C41.68640147 42.90110217 40.33323749 45.39582234 38.11328125 48.5625 C37.51080566 49.43229492 36.90833008 50.30208984 36.28759766 51.19824219 C35.63581543 52.12282227 34.9840332 53.04740234 34.3125 54 C32.95079824 55.9628312 31.59014889 57.92639286 30.23046875 59.890625 C29.53228027 60.89544922 28.8340918 61.90027344 28.11474609 62.93554688 C24.73149443 67.83817616 21.42521693 72.79124576 18.125 77.75 C17.52469971 78.64847656 16.92439941 79.54695313 16.3059082 80.47265625 C15.75378662 81.30152344 15.20166504 82.13039063 14.6328125 82.984375 C14.14699707 83.71366211 13.66118164 84.44294922 13.16064453 85.19433594 C11.95848032 86.99351645 11.95848032 86.99351645 11 89 C10.34 89 9.68 89 9 89 C2.16883572 74.92202306 -4.5969338 60.81731227 -11.1875 46.625 C-11.73946045 45.4380957 -12.2914209 44.25119141 -12.86010742 43.02832031 C-15.77871456 36.72548276 -15.77871456 36.72548276 -17 34 C-17.46494873 33.19908936 -17.92989746 32.39817871 -18.40893555 31.57299805 C-19 29 -19 29 -17.48291016 25.77026367 C-16.68713459 24.55693074 -15.87109915 23.35672885 -15.0390625 22.16796875 C-14.61450775 21.53135818 -14.189953 20.89474762 -13.75253296 20.23884583 C-12.39359413 18.20972511 -11.0099678 16.19892081 -9.625 14.1875 C-8.69884217 12.81428171 -7.77434161 11.43994413 -6.8515625 10.06445312 C-4.58672858 6.69634962 -2.29960508 3.34444902 0 0 Z " fill="#ED6060" transform="translate(96,81)"/>
<path d="M0 0 C0.33 0 0.66 0 1 0 C1.44713829 17.69807739 1.6945855 34.77565273 -3 52 C-3.20367187 52.75458496 -3.40734375 53.50916992 -3.6171875 54.28662109 C-9.23854357 74.33005196 -19.04648721 96.32456436 -33 112 C-33.66 112 -34.32 112 -35 112 C-37.31220061 107.42965021 -39.60280014 102.84939618 -41.87451172 98.25878906 C-42.95543841 96.08943251 -44.05680131 93.93144758 -45.16015625 91.7734375 C-45.81614472 90.45364168 -46.47113554 89.1333494 -47.125 87.8125 C-47.44412354 87.20204834 -47.76324707 86.59159668 -48.09204102 85.96264648 C-49.45528554 83.15775624 -50.19149937 81.6111732 -49.23855591 78.56983948 C-48.05369382 76.11140756 -46.76971684 73.93147803 -45.23779297 71.67553711 C-44.68316376 70.85375473 -44.12853455 70.03197235 -43.55709839 69.18528748 C-42.9581778 68.30816605 -42.3592572 67.43104462 -41.7421875 66.52734375 C-40.80936447 65.14900108 -40.80936447 65.14900108 -39.85769653 63.74281311 C-37.86788698 60.8046817 -35.87162337 57.8710042 -33.875 54.9375 C-32.55424424 52.990535 -31.23392713 51.04327234 -29.9140625 49.09570312 C-27.99591736 46.26556851 -26.077356 43.43572606 -24.1566925 40.6072998 C-20.2746968 34.88973953 -16.42288913 29.15404963 -12.6015625 23.39575195 C-11.11167668 21.16705538 -9.59680303 18.9588177 -8.06640625 16.7578125 C-7.64552734 16.14679688 -7.22464844 15.53578125 -6.79101562 14.90625 C-5.95222074 13.6900641 -5.10548733 12.47932487 -4.25195312 11.2734375 C-1.69294414 7.52502998 -0.38129834 4.53398395 0 0 Z " fill="#E94444" transform="translate(198,179)"/>
<path d="M0 0 C14.95355461 -0.07994361 29.86241006 0.17504235 44.79114532 1.0800705 C49.07928352 1.33609229 53.3532536 1.53271936 57.64892578 1.59521484 C84.87270788 2.04545744 84.87270788 2.04545744 91.61590576 8.5614624 C97.67648066 16.06477927 105 30.06895268 105 40 C70.04858994 42.21004232 32.96327543 27.44806 6 6 C5.31421875 5.45730469 4.6284375 4.91460937 3.921875 4.35546875 C2.58544572 3.27196184 1.28589823 2.14302065 0 1 C0 0.67 0 0.34 0 0 Z " fill="#ED6060" transform="translate(45,258)"/>
<path d="M0 0 C1.32421875 1.35546875 1.32421875 1.35546875 2.6875 3.1875 C3.14511719 3.77917969 3.60273438 4.37085938 4.07421875 4.98046875 C5.31818515 7.6941001 4.65850336 9.11727691 4 12 C3.86907959 12.80252197 3.73815918 13.60504395 3.60327148 14.43188477 C2.20342023 21.71749037 -0.0601711 28.25822804 -6 33 C-16.4618578 37.31380529 -29.47490073 36.49565617 -40.59179688 36.80371094 C-45.79646002 36.96298977 -50.95776407 37.36076346 -56.140625 37.8515625 C-56.9466214 37.92726471 -57.7526178 38.00296692 -58.58303833 38.08096313 C-60.16654401 38.2308383 -61.74997106 38.38154683 -63.33331299 38.53314209 C-74.24212271 39.56542166 -85.03635343 40.19374204 -96 40 C-73.21322272 15.69410423 -33.2328288 0 0 0 Z " fill="#FE7C42" transform="translate(454,214)"/>
<path d="M0 0 C9.20337135 4.92574804 17.93235391 10.47578584 26.625 16.25 C27.68009766 16.94738281 28.73519531 17.64476563 29.82226562 18.36328125 C30.82193359 19.03230469 31.82160156 19.70132813 32.8515625 20.390625 C33.74697754 20.98907227 34.64239258 21.58751953 35.56494141 22.20410156 C37.95311282 23.96541988 39.96380616 25.84709677 42 28 C40.95138794 28.9595459 40.95138794 28.9595459 39.8815918 29.93847656 C36.28932562 33.53886308 33.65938121 37.73829519 30.89453125 41.984375 C30.32925217 42.84057434 29.76397308 43.69677368 29.18156433 44.57891846 C27.386272 47.2989709 25.59866106 50.02394419 23.8125 52.75 C22.01518042 55.49003014 20.21614184 58.22884594 18.41130066 60.96392822 C17.29050456 62.6625779 16.17408861 64.36412723 15.06245422 66.06878662 C14.55820419 66.83338196 14.05395416 67.59797729 13.53442383 68.38574219 C13.09205887 69.06127136 12.64969391 69.73680054 12.19392395 70.43280029 C11 72 11 72 9 73 C8.45061768 71.87094238 7.90123535 70.74188477 7.33520508 69.57861328 C5.27633873 65.34771822 3.21676219 61.11716919 1.15698242 56.88671875 C0.26942198 55.06356936 -0.61795162 53.240329 -1.50512695 51.41699219 C-2.78806989 48.78035313 -4.07170789 46.1440534 -5.35546875 43.5078125 C-5.74526413 42.70634796 -6.13505951 41.90488342 -6.53666687 41.07913208 C-7.10669182 39.90905106 -7.10669182 39.90905106 -7.68823242 38.71533203 C-8.05765961 37.94868225 -8.42708679 37.18203247 -8.80770874 36.39215088 C-9.65906341 34.68403736 -10.55202259 32.99640372 -11.47183228 31.32415771 C-12.18634048 30.0033017 -12.18634048 30.0033017 -12.9152832 28.65576172 C-13.36063919 27.85983612 -13.80599518 27.06391052 -14.2648468 26.24386597 C-15 24 -15 24 -14.19888306 21.8184967 C-13.80325165 21.21839279 -13.40762024 20.61828888 -13 20 C-12.45678101 19.13290405 -12.45678101 19.13290405 -11.90258789 18.24829102 C-11.51321045 17.67264404 -11.12383301 17.09699707 -10.72265625 16.50390625 C-10.29146484 15.86259766 -9.86027344 15.22128906 -9.41601562 14.56054688 C-8.96935547 13.90119141 -8.52269531 13.24183594 -8.0625 12.5625 C-5.27101109 8.43012122 -2.51575356 4.30916204 0 0 Z " fill="#E94444" transform="translate(60,21)"/>
<path d="M0 0 C4.78029537 5.84266012 9.04287981 12.02889275 13.32885742 18.23730469 C14.3191999 19.66423225 15.31729548 21.08580948 16.32299805 22.50195312 C17.78262026 24.55900765 19.21569491 26.63242162 20.64453125 28.7109375 C21.09649368 29.33721039 21.54845612 29.96348328 22.01411438 30.60873413 C24.25369209 33.9273054 25.01250258 35.72417532 24.82910156 39.77026367 C20.0310473 58.46091733 9.31953917 79.77147334 -5 93 C-5.34675781 92.07058594 -5.69351562 91.14117187 -6.05078125 90.18359375 C-8.39165556 84.72155369 -11.85350768 79.95480769 -15.1875 75.0625 C-15.84169922 74.09248047 -16.49589844 73.12246094 -17.16992188 72.12304688 C-18.77474137 69.74510265 -20.38485605 67.37093828 -22 65 C-17.28323477 55.49070305 -17.28323477 55.49070305 -15.0078125 51.26171875 C-6.34266229 34.97448748 -1.10331565 18.44113292 0 0 Z " fill="#FD6930" transform="translate(483,313)"/>
<path d="M0 0 C4.53686067 4.15621822 7.74889039 8.81402204 11.10546875 13.94921875 C11.95338737 15.22996025 11.95338737 15.22996025 12.81843567 16.53657532 C14.61366508 19.24993843 16.40099698 21.9683851 18.1875 24.6875 C19.98593162 27.41649447 21.78602599 30.14436525 23.58869934 32.87055969 C24.70773221 34.56372172 25.82410304 36.25864673 26.93754578 37.95549011 C27.44179581 38.72000992 27.94604584 39.48452972 28.46557617 40.2722168 C28.90794113 40.94552536 29.35030609 41.61883392 29.80607605 42.31254578 C31.02866241 44.14121184 31.02866241 44.14121184 33 46 C25.19988695 51.75146998 17.26268472 57.20672884 9.0625 62.375 C8.27061279 62.87418945 7.47872559 63.37337891 6.6628418 63.88769531 C4.44990711 65.27197545 2.22662683 66.63788858 0 68 C-0.66531738 68.42055664 -1.33063477 68.84111328 -2.01611328 69.27441406 C-3.63130698 70.26258237 -5.31193436 71.14223448 -7 72 C-12.02040381 70.32653206 -13.95338804 65.55618099 -16.75 61.25 C-17.36488281 60.3425 -17.97976563 59.435 -18.61328125 58.5 C-19.18949219 57.61828125 -19.76570313 56.7365625 -20.359375 55.828125 C-20.89014648 55.0227832 -21.42091797 54.21744141 -21.96777344 53.38769531 C-23.27985952 50.35264283 -23.01946289 49.12230761 -22 46 C-21.09641545 43.89689786 -20.12966058 41.82044777 -19.12109375 39.765625 C-18.83300339 39.17418198 -18.54491302 38.58273895 -18.24809265 37.97337341 C-17.31636656 36.06302159 -16.37692802 34.15657423 -15.4375 32.25 C-14.47850299 30.28779299 -13.52154007 28.32460237 -12.56463623 26.3613739 C-11.93188619 25.06361116 -11.29846633 23.76617477 -10.66436768 22.46907043 C-8.10448185 17.2301648 -5.59648921 11.96858984 -3.125 6.6875 C-2.79814209 5.98979492 -2.47128418 5.29208984 -2.13452148 4.57324219 C-1.42166282 3.04945966 -0.71056785 1.52485213 0 0 Z " fill="#FD6930" transform="translate(382,418)"/>
<path d="M0 0 C4.00901859 1.81301575 6.07158635 4.26879826 8.5625 7.8125 C9.20288208 8.71935547 9.20288208 8.71935547 9.85620117 9.64453125 C30.54762834 39.88844437 30.54762834 39.88844437 29.87890625 53.45703125 C28.68497618 56.91146892 26.76433773 59.71712982 24.6875 62.6875 C23.78468936 64.00749329 22.88236831 65.32782154 21.98046875 66.6484375 C21.50013184 67.34678711 21.01979492 68.04513672 20.52490234 68.76464844 C18.90836074 71.13433382 17.32025322 73.5211716 15.73828125 75.9140625 C14.92967651 77.136698 14.92967651 77.136698 14.10473633 78.3840332 C13.0477515 79.98358106 11.99157839 81.58366565 10.9362793 83.18432617 C10.45199463 83.91369385 9.96770996 84.64306152 9.46875 85.39453125 C9.04013672 86.04268799 8.61152344 86.69084473 8.16992188 87.35864258 C7 89 7 89 5 91 C4.85304687 89.5459375 4.85304687 89.5459375 4.703125 88.0625 C2.81065241 70.57860887 -1.11056019 53.78305477 -10.62890625 38.75390625 C-11.06372314 38.05201172 -11.49854004 37.35011719 -11.9465332 36.62695312 C-12.79442159 35.28405292 -13.67597226 33.961637 -14.59448242 32.66601562 C-15.8302922 30.71427602 -16.59855471 29.27923775 -17 27 C-15.94221059 23.58974928 -14.03843528 20.90490666 -12 18 C-10.96200491 16.39468296 -9.9242459 14.78921326 -8.88671875 13.18359375 C-7.82390185 11.59914892 -6.75747921 10.01711693 -5.6875 8.4375 C-5.13771484 7.61958984 -4.58792969 6.80167969 -4.02148438 5.95898438 C-2.68418116 3.97047264 -1.34366849 1.98421358 0 0 Z " fill="#E94444" transform="translate(165,108)"/>
<path d="M0 0 C1.66675781 0.19916016 1.66675781 0.19916016 3.3671875 0.40234375 C4.86978595 0.58077732 6.37239044 0.75915998 7.875 0.9375 C8.60203125 1.02451172 9.3290625 1.11152344 10.078125 1.20117188 C10.81289062 1.28818359 11.54765625 1.37519531 12.3046875 1.46484375 C13.02287659 1.55881439 13.74106567 1.65278503 14.48101807 1.74960327 C16.98664474 2.04666505 16.98664474 2.04666505 19.46282959 1.96463013 C26.01921649 2.02781209 26.01921649 2.02781209 28.62442017 4.61018372 C30.0295351 6.91864411 31.1351124 9.23563413 32.2109375 11.71484375 C32.63122223 12.59974991 33.05150696 13.48465607 33.48452759 14.39637756 C34.81839668 17.22780444 36.09639421 20.08075826 37.375 22.9375 C38.25561546 24.82520401 39.13969739 26.71129501 40.02734375 28.59570312 C43.94126913 36.96964356 47.63057745 45.39130894 51 54 C49.96294922 53.91435791 48.92589844 53.82871582 47.85742188 53.74047852 C43.92867782 53.41646105 39.99976371 53.09454488 36.07080078 52.77319336 C34.38553396 52.6350751 32.70031085 52.49642232 31.01513672 52.35717773 C28.56229322 52.15460241 26.10932245 51.95368947 23.65625 51.75390625 C22.84865234 51.68805328 22.04105469 51.62220032 21.20898438 51.55435181 C14.51351388 51.01883181 7.81480731 50.61474042 1.10742188 50.26147461 C-2 50 -2 50 -5 49 C-3.8951754 32.57441206 -2.33756934 16.29740226 0 0 Z " fill="#ED6060" transform="translate(5,47)"/>
<path d="M0 0 C-0.34144043 0.7027002 -0.68288086 1.40540039 -1.03466797 2.12939453 C-2.65092214 5.4599069 -4.2641366 8.79187782 -5.875 12.125 C-6.16701294 12.72914734 -6.45902588 13.33329468 -6.7598877 13.95574951 C-11.31682642 23.39512259 -15.74019672 32.8863397 -20.01513672 42.45751953 C-20.39686035 43.30942871 -20.77858398 44.16133789 -21.171875 45.0390625 C-21.5028418 45.78365723 -21.83380859 46.52825195 -22.17480469 47.29541016 C-23 49 -23 49 -24 50 C-25.9946903 50.29928809 -27.99833124 50.53935637 -30.00390625 50.75390625 C-31.21884766 50.88603516 -32.43378906 51.01816406 -33.68554688 51.15429688 C-34.96494141 51.28900391 -36.24433594 51.42371094 -37.5625 51.5625 C-38.84576172 51.70107422 -40.12902344 51.83964844 -41.45117188 51.98242188 C-44.63371616 52.32552144 -47.81664414 52.66452788 -51 53 C-51.55772175 48.59403696 -52.10868206 44.18728992 -52.65405273 39.77978516 C-52.83948311 38.28835634 -53.02659008 36.79713477 -53.21557617 35.30615234 C-54.53554115 24.88018897 -55.46790713 14.49617586 -56 4 C-49.33497237 3.31583263 -42.66838407 2.6507097 -36 2 C-35.33625366 1.93494263 -34.67250732 1.86988525 -33.98864746 1.80285645 C-29.55478487 1.36886278 -25.1202333 0.94301353 -20.68478394 0.52554321 C-19.18695112 0.3835482 -17.68932807 0.23932286 -16.19192505 0.09286499 C-14.06466986 -0.11469436 -11.93679565 -0.31413561 -9.80859375 -0.51171875 C-8.56907959 -0.62990967 -7.32956543 -0.74810059 -6.05249023 -0.86987305 C-3 -1 -3 -1 0 0 Z " fill="#FD7C42" transform="translate(369,412)"/>
<path d="M0 0 C9.56017893 5.94281393 17.85692687 13.65399357 26.0703125 21.296875 C29.56317416 24.51962202 33.14219734 27.63660956 36.74609375 30.734375 C39 33 39 33 44 40 C35.585 52.87 35.585 52.87 27 66 C23.73027644 62.73027644 20.61828854 59.51047531 17.5625 56.0625 C14.93276852 53.11174779 12.28230555 50.24368687 9.4375 47.5 C7 45 7 45 7 43 C6.42636719 42.75636719 5.85273437 42.51273438 5.26171875 42.26171875 C2.59993783 40.77682197 0.9044684 39.02640463 -1.1875 36.8125 C-5.48071632 32.40517826 -10.04864937 28.64035472 -15 25 C-11.80847146 18.79335906 -8.09467097 13.09267274 -4.03540039 7.4309082 C-2.27190472 4.94982888 -0.96991054 2.90973162 0 0 Z " fill="#E94444" transform="translate(112,56)"/>
<path d="M0 0 C2.66581614 3.2607732 5.12714351 6.57152215 7.453125 10.08203125 C8.071875 11.01337891 8.690625 11.94472656 9.328125 12.90429688 C9.96234375 13.86400391 10.5965625 14.82371094 11.25 15.8125 C12.22453125 17.28106445 12.22453125 17.28106445 13.21875 18.77929688 C14.81460524 21.18481397 16.4082806 23.59174509 18 26 C13.82601394 31.99196235 9.17660723 36.9981115 3.8125 41.9375 C2.68811523 42.98345337 2.68811523 42.98345337 1.54101562 44.05053711 C-4.12232889 49.28109595 -9.91453287 54.26362367 -16 59 C-16.88042969 59.6909375 -17.76085937 60.381875 -18.66796875 61.09375 C-20.77210854 62.73791505 -22.88208226 64.37364835 -25 66 C-30.33333333 58 -35.66666667 50 -41 42 C-37.4644243 38.41909641 -33.84128346 34.956146 -30.125 31.5625 C-29.59688721 31.0780542 -29.06877441 30.5936084 -28.5246582 30.09448242 C-25.79616635 27.60128478 -23.03775292 25.16508971 -20.1875 22.8125 C-17.10495287 20.20533364 -14.5170084 17.30013716 -11.90625 14.2265625 C-8.95617597 10.78077931 -5.879148 7.45072815 -2.8203125 4.1015625 C-0.96323333 2.13276579 -0.96323333 2.13276579 0 0 Z " fill="#FD6930" transform="translate(451,390)"/>
<path d="M0 0 C14.09058155 6.63917126 26.64507101 16.6609367 39 26 C37.72891364 29.4160446 36.26605253 32.35706208 34.25 35.390625 C33.7240625 36.18210938 33.198125 36.97359375 32.65625 37.7890625 C31.83640625 39.00722656 31.83640625 39.00722656 31 40.25 C30.4534375 41.07757813 29.906875 41.90515625 29.34375 42.7578125 C28.8178125 43.54414062 28.291875 44.33046875 27.75 45.140625 C27.03070313 46.21618652 27.03070313 46.21618652 26.296875 47.31347656 C25 49 25 49 23 50 C20.36530923 44.61159045 17.7327372 39.22215277 15.10205078 33.83178711 C14.20841474 32.00143073 13.31421887 30.17134757 12.41943359 28.34155273 C11.12707554 25.69848601 9.83679105 23.05441546 8.546875 20.41015625 C8.15191833 19.60353043 7.75696167 18.7969046 7.35003662 17.96583557 C0 2.88007139 0 2.88007139 0 0 Z " fill="#ED6060" transform="translate(46,44)"/>
<path d="M0 0 C4.43209603 4.07493078 7.61946879 8.57806537 10.875 13.625 C11.38546875 14.388125 11.8959375 15.15125 12.421875 15.9375 C13.13730469 17.03964844 13.13730469 17.03964844 13.8671875 18.1640625 C14.30144043 18.82873535 14.73569336 19.4934082 15.18310547 20.17822266 C16 22 16 22 15 25 C13.50390625 26.359375 13.50390625 26.359375 11.5625 27.75 C10.84006104 28.27110352 10.11762207 28.79220703 9.37329102 29.32910156 C8.59010498 29.88049805 7.80691895 30.43189453 7 31 C6.20070068 31.56944336 5.40140137 32.13888672 4.57788086 32.72558594 C-1.01870422 36.6818021 -6.69224003 40.51332699 -12.4375 44.25 C-13.15228516 44.71535156 -13.86707031 45.18070312 -14.60351562 45.66015625 C-17.37566655 47.4366944 -19.86349552 48.95449851 -23 50 C-21.696735 45.85607864 -20.14462835 42.00899318 -18.2421875 38.10546875 C-17.70231201 36.99212158 -17.16243652 35.87877441 -16.60620117 34.73168945 C-16.03490479 33.56210693 -15.4636084 32.39252441 -14.875 31.1875 C-13.70031347 28.76896052 -12.5280579 26.3492444 -11.35546875 23.9296875 C-10.7836084 22.75116211 -10.21174805 21.57263672 -9.62255859 20.35839844 C-7.44775743 15.85695926 -5.30930548 11.33911783 -3.1875 6.8125 C-2.85669434 6.10697998 -2.52588867 5.40145996 -2.18505859 4.67456055 C-1.45562533 3.11687917 -0.7276091 1.5585343 0 0 Z " fill="#FD7C42" transform="translate(382,418)"/>
<path d="M0 0 C0.66 0 1.32 0 2 0 C15.78999903 30.75501502 15.78999903 30.75501502 15 43 C9.65776587 37.87607693 5.70540772 32.16533583 1.5625 26.0625 C0.80517578 24.99064453 0.04785156 23.91878906 -0.73242188 22.81445312 C-1.43818359 21.77353516 -2.14394531 20.73261719 -2.87109375 19.66015625 C-3.52005615 18.71793213 -4.16901855 17.77570801 -4.83764648 16.80493164 C-6 14 -6 14 -5.26245117 10.79223633 C-3.04223004 5.88164475 -3.04223004 5.88164475 -1.875 3.625 C-1.34519531 2.59246094 -1.34519531 2.59246094 -0.8046875 1.5390625 C-0.53914063 1.03117188 -0.27359375 0.52328125 0 0 Z " fill="#FD7B41" transform="translate(467,240)"/>
<path d="M0 0 C3.93938981 10.34089826 -5.98134593 29.3075224 -10 39 C-10.65454284 40.33932666 -11.31800033 41.67444401 -12 43 C-12.66 43 -13.32 43 -14 43 C-15.06350663 41.11633147 -16.10013229 39.2174671 -17.125 37.3125 C-17.99511719 35.72888672 -17.99511719 35.72888672 -18.8828125 34.11328125 C-20 31 -20 31 -19.31225586 28.67553711 C-17.80875449 25.61007265 -16.05143601 22.89524828 -14.12109375 20.078125 C-13.74896255 19.53267029 -13.37683136 18.98721558 -12.99342346 18.42523193 C-11.81258067 16.69704843 -10.62503007 14.97359304 -9.4375 13.25 C-8.63565106 12.07710765 -7.83421451 10.90393326 -7.03320312 9.73046875 C-1.18635161 1.18635161 -1.18635161 1.18635161 0 0 Z " fill="#ED5F5F" transform="translate(168,229)"/>
<path d="M0 0 C3.93677426 1.31225809 4.8271782 3.1961394 7.1875 6.5625 C7.90292969 7.57441406 8.61835938 8.58632813 9.35546875 9.62890625 C9.89816406 10.41136719 10.44085938 11.19382812 11 12 C7.91065423 15.30388367 4.46494156 17.09929744 0.5 19.1875 C-0.17675781 19.55552734 -0.85351562 19.92355469 -1.55078125 20.30273438 C-6.62504348 23 -6.62504348 23 -10 23 C-7.60292686 14.82175048 -3.91141228 7.53348722 0 0 Z " fill="#FD672F" transform="translate(350,485)"/>
<path d="M0 0 C5.150966 2.1233501 10.04255711 4.53106878 14.9375 7.1875 C15.62134766 7.55552734 16.30519531 7.92355469 17.00976562 8.30273438 C18.67460072 9.19918404 20.33750649 10.09921523 22 11 C21.01 11.495 21.01 11.495 20 12 C19.731875 12.70125 19.46375 13.4025 19.1875 14.125 C17.6762006 17.78393539 15.65438534 21.04784707 13 24 C12.34 24 11.68 24 11 24 C9.35131374 20.56386118 7.70654396 17.12586207 6.0625 13.6875 C5.59392578 12.71103516 5.12535156 11.73457031 4.64257812 10.72851562 C4.19462891 9.79072266 3.74667969 8.85292969 3.28515625 7.88671875 C2.87144775 7.02264404 2.45773926 6.15856934 2.03149414 5.26831055 C1 3 1 3 0 0 Z " fill="#E94343" transform="translate(26,3)"/>
<path d="M0 0 C5.28 0 10.56 0 16 0 C12.625 6.75 12.625 6.75 7.3125 8.875 C6.31863281 9.28492188 5.32476562 9.69484375 4.30078125 10.1171875 C3.54152344 10.40851563 2.78226562 10.69984375 2 11 C0.48940272 6.9402698 0 4.45389333 0 0 Z " fill="#FD7B41" transform="translate(321,478)"/>
<path d="M0 0 C4.39238107 0.38756304 8.64561503 2.12722698 12 5 C12.66 6.65 13.32 8.3 14 10 C8.72 10 3.44 10 -2 10 C-1.125 1.125 -1.125 1.125 0 0 Z " fill="#ED5E5E" transform="translate(10,24)"/>
<path d="M0 0 C2.25051296 3.37576945 3.9605629 6.90443884 5.6875 10.5625 C6.02072266 11.24763672 6.35394531 11.93277344 6.69726562 12.63867188 C7.52750869 14.3975444 8.27081437 16.19688481 9 18 C8.67 18.66 8.34 19.32 8 20 C6.30729167 18.95833333 4.61458333 17.91666667 2.921875 16.875 C0.74520615 15.72375977 0.74520615 15.72375977 -3 16 C-2.01 10.72 -1.02 5.44 0 0 Z " fill="#E94444" transform="translate(12,9)"/>
<path d="M0 0 C-1.39878802 4.46797338 -3.13630772 8.63822079 -5.125 12.875 C-5.66382813 14.02742188 -6.20265625 15.17984375 -6.7578125 16.3671875 C-7.16773438 17.23601562 -7.57765625 18.10484375 -8 19 C-8.33 19 -8.66 19 -9 19 C-9.36644578 17.44033408 -9.71760862 15.87707349 -10.0625 14.3125 C-10.25972656 13.44238281 -10.45695312 12.57226562 -10.66015625 11.67578125 C-11.03287525 8.74115467 -10.97308561 6.79644021 -10 4 C-8.22265625 2.63671875 -8.22265625 2.63671875 -6.0625 1.6875 C-4.99708984 1.19830078 -4.99708984 1.19830078 -3.91015625 0.69921875 C-2 0 -2 0 0 0 Z " fill="#FD6931" transform="translate(334,484)"/>
<path d="M0 0 C0.66 0 1.32 0 2 0 C2.99 2.64 3.98 5.28 5 8 C2.03 8 -0.94 8 -4 8 C-2.66666667 5.33333333 -1.33333333 2.66666667 0 0 Z " fill="#E94747" transform="translate(145,290)"/>
<path d="M0 0 C2.97 0 5.94 0 9 0 C8.01 2.64 7.02 5.28 6 8 C1.125 3.375 1.125 3.375 0 0 Z " fill="#FD6A31" transform="translate(454,214)"/>
</svg>
