<?xml version="1.0" encoding="UTF-8"?>
<!DOCTYPE svg PUBLIC "-//W3C//DTD SVG 1.1//EN" "http://www.w3.org/Graphics/SVG/1.1/DTD/svg11.dtd">
<svg xmlns="http://www.w3.org/2000/svg" version="1.1" width="512px" height="512px" style="shape-rendering:geometricPrecision; text-rendering:geometricPrecision; image-rendering:optimizeQuality; fill-rule:evenodd; clip-rule:evenodd" xmlns:xlink="http://www.w3.org/1999/xlink">
<g><path style="opacity:0.986" fill="#5d9d4d" d="M 343.5,16.5 C 315.509,54.1677 300.176,96.501 297.5,143.5C 301.728,141.558 305.394,138.891 308.5,135.5C 309.167,135.5 309.5,135.167 309.5,134.5C 323.778,126.023 338.111,117.523 352.5,109C 362.522,81.3135 380.189,59.9802 405.5,45C 416.985,38.2574 428.985,32.5907 441.5,28C 458.374,23.2591 475.374,19.0925 492.5,15.5C 437.814,39.3281 390.814,73.8281 351.5,119C 357.833,119.234 364.166,119.068 370.5,118.5C 349.971,130.04 329.971,142.374 310.5,155.5C 307.248,156.459 304.248,157.959 301.5,160C 365.973,172.35 429.64,169.517 492.5,151.5C 493.552,151.351 494.552,151.517 495.5,152C 476.201,172.156 453.201,186.489 426.5,195C 391.832,204.389 358.832,200.389 327.5,183C 317.912,176.289 308.412,169.456 299,162.5C 276.457,177.883 254.957,194.55 234.5,212.5C 232.364,213.403 230.364,214.569 228.5,216C 270.221,216.905 307.554,229.905 340.5,255C 351.091,260.641 362.091,265.308 373.5,269C 386.645,272.368 399.645,275.868 412.5,279.5C 393.497,279.667 374.497,279.5 355.5,279C 322.535,274.682 294.201,261.016 270.5,238C 257.839,228.92 244.005,222.086 229,217.5C 211.779,230.55 195.946,245.216 181.5,261.5C 180.833,261.5 180.5,261.833 180.5,262.5C 176.746,264.748 173.412,267.581 170.5,271C 200.889,269.349 229.222,276.015 255.5,291C 292.584,321.779 335.25,333.946 383.5,327.5C 349.501,345.553 314.167,348.387 277.5,336C 272.38,333.94 267.38,331.607 262.5,329C 248.601,319.769 235.268,309.769 222.5,299C 206.379,287.608 188.713,279.441 169.5,274.5C 150.705,292.628 133.705,312.294 118.5,333.5C 117.244,333.461 116.244,333.961 115.5,335C 140.701,334.075 165.034,338.075 188.5,347C 204.52,355.7 220.52,364.367 236.5,373C 249.053,378.055 262.053,381.388 275.5,383C 295.497,383.5 315.497,383.667 335.5,383.5C 290.901,410.15 245.568,411.317 199.5,387C 183.186,374.51 166.52,362.51 149.5,351C 138.95,345.391 127.95,340.891 116.5,337.5C 114.971,337.529 113.804,338.196 113,339.5C 96.8337,361.17 81.667,383.503 67.5,406.5C 66.9569,406.56 66.6236,406.893 66.5,407.5C 92.3258,409.093 115.992,416.927 137.5,431C 156.035,448.6 178.035,459.266 203.5,463C 241.349,463.614 279.015,461.28 316.5,456C 315.584,455.722 314.918,455.222 314.5,454.5C 316.429,454.231 318.095,454.731 319.5,456C 296.198,468.151 272.532,479.485 248.5,490C 192.543,504.724 145.377,490.557 107,447.5C 95.5423,432.373 81.8756,419.706 66,409.5C 47.0044,441.156 29.8377,473.823 14.5,507.5C 9.55547,504.967 4.55547,502.634 -0.5,500.5C -0.5,500.167 -0.5,499.833 -0.5,499.5C 14.5112,465.644 31.5112,432.811 50.5,401C 15.087,355.698 6.25363,305.531 24,250.5C 33.0291,230.107 43.3624,210.44 55,191.5C 55.49,192.793 55.6567,194.127 55.5,195.5C 54.1127,197.877 53.2794,200.543 53,203.5C 47.4803,235.994 46.1469,268.66 49,301.5C 54.69,331.9 57.0233,362.566 56,393.5C 62.7734,382.944 69.2734,372.278 75.5,361.5C 76.1667,361.5 76.5,361.167 76.5,360.5C 77.1667,360.5 77.5,360.167 77.5,359.5C 86.6373,345.406 96.6373,331.906 107.5,319C 87.9322,275.956 82.4322,231.123 91,184.5C 97.0594,158.594 103.559,132.928 110.5,107.5C 107.883,133.451 105.717,159.451 104,185.5C 102.638,229.32 104.638,272.987 110,316.5C 115.795,309.885 120.961,302.885 125.5,295.5C 126.167,295.5 126.5,295.167 126.5,294.5C 141.233,277.595 156.566,261.095 172.5,245C 143.155,203.277 135.655,157.777 150,108.5C 152.389,101.39 155.056,94.3896 158,87.5C 168.496,68.504 179.496,49.8374 191,31.5C 191.765,33.0657 191.598,34.3991 190.5,35.5C 177.677,66.8022 170.177,99.4688 168,133.5C 167.129,170.054 169.629,206.388 175.5,242.5C 178.548,240.118 181.215,237.452 183.5,234.5C 195.839,223.16 208.172,211.827 220.5,200.5C 214.815,186.946 210.649,172.946 208,158.5C 204.154,125.38 213.154,96.3797 235,71.5C 249.667,55.5 264.333,39.5 279,23.5C 279.405,25.7749 278.905,27.7749 277.5,29.5C 277.607,27.6214 277.107,27.2881 276,28.5C 241.595,79.8854 224.429,136.552 224.5,198.5C 229.507,195.157 233.84,191.157 237.5,186.5C 238.167,186.5 238.5,186.167 238.5,185.5C 256.861,171.231 275.695,157.564 295,144.5C 295.333,122.833 295.667,101.167 296,79.5C 301.362,50.6608 316.862,29.3274 342.5,15.5C 343.107,15.6236 343.44,15.9569 343.5,16.5 Z"/></g>
<g><path style="opacity:1" fill="#7db961" d="M 343.5,16.5 C 344.58,59.5287 333.247,98.8621 309.5,134.5C 308.833,134.5 308.5,134.833 308.5,135.5C 305.394,138.891 301.728,141.558 297.5,143.5C 300.176,96.501 315.509,54.1677 343.5,16.5 Z"/></g>
<g><path style="opacity:1" fill="#7db961" d="M 492.5,15.5 C 493.552,15.3505 494.552,15.5172 495.5,16C 487.635,23.5302 480.135,31.3635 473,39.5C 455.734,77.4351 427.234,102.602 387.5,115C 381.914,116.617 376.247,117.784 370.5,118.5C 364.166,119.068 357.833,119.234 351.5,119C 390.814,73.8281 437.814,39.3281 492.5,15.5 Z"/></g>
<g><path style="opacity:1" fill="#7db961" d="M 277.5,29.5 C 272.908,42.8668 269.408,56.5334 267,70.5C 265.253,91.8629 263.253,113.196 261,134.5C 256.728,153.034 249.228,170.034 238.5,185.5C 237.833,185.5 237.5,185.833 237.5,186.5C 233.84,191.157 229.507,195.157 224.5,198.5C 224.429,136.552 241.595,79.8854 276,28.5C 277.107,27.2881 277.607,27.6214 277.5,29.5 Z"/></g>
<g><path style="opacity:1" fill="#7db961" d="M 190.5,35.5 C 188.671,44.1512 186.838,52.8179 185,61.5C 184.333,69.8333 184.333,78.1667 185,86.5C 189.948,103.01 194.281,119.677 198,136.5C 203.159,170.712 197.992,203.212 182.5,234C 182.728,234.399 183.062,234.565 183.5,234.5C 181.215,237.452 178.548,240.118 175.5,242.5C 169.629,206.388 167.129,170.054 168,133.5C 170.177,99.4688 177.677,66.8022 190.5,35.5 Z"/></g>
<g><path style="opacity:1" fill="#7db961" d="M 126.5,294.5 C 125.833,294.5 125.5,294.833 125.5,295.5C 120.961,302.885 115.795,309.885 110,316.5C 104.638,272.987 102.638,229.32 104,185.5C 105.717,159.451 107.883,133.451 110.5,107.5C 110.238,106.022 110.571,104.689 111.5,103.5C 112.185,118.311 114.018,132.978 117,147.5C 121.262,162.954 125.929,178.287 131,193.5C 138.201,227.584 136.701,261.251 126.5,294.5 Z"/></g>
<g><path style="opacity:1" fill="#7db961" d="M 492.5,151.5 C 429.64,169.517 365.973,172.35 301.5,160C 304.248,157.959 307.248,156.459 310.5,155.5C 332.524,149.94 354.858,146.107 377.5,144C 392.833,143.333 408.167,143.333 423.5,144C 446.285,148.513 469.285,151.013 492.5,151.5 Z"/></g>
<g><path style="opacity:1" fill="#7db961" d="M 55.5,195.5 C 55.6716,209.919 56.8383,224.252 59,238.5C 62.8033,253.91 67.8033,268.91 74,283.5C 80.2947,308.147 81.128,332.98 76.5,358C 76.5699,358.765 76.9033,359.265 77.5,359.5C 77.5,360.167 77.1667,360.5 76.5,360.5C 75.8333,360.5 75.5,360.833 75.5,361.5C 69.2734,372.278 62.7734,382.944 56,393.5C 57.0233,362.566 54.69,331.9 49,301.5C 46.1469,268.66 47.4803,235.994 53,203.5C 53.2794,200.543 54.1127,197.877 55.5,195.5 Z"/></g>
<g><path style="opacity:1" fill="#7db961" d="M 412.5,279.5 C 399.645,275.868 386.645,272.368 373.5,269C 362.091,265.308 351.091,260.641 340.5,255C 307.554,229.905 270.221,216.905 228.5,216C 230.364,214.569 232.364,213.403 234.5,212.5C 289.206,199.074 338.872,209.24 383.5,243C 396.137,253.147 406.804,264.98 415.5,278.5C 414.675,279.386 413.675,279.719 412.5,279.5 Z"/></g>
<g><path style="opacity:1" fill="#7db961" d="M 383.5,327.5 C 335.25,333.946 292.584,321.779 255.5,291C 229.222,276.015 200.889,269.349 170.5,271C 173.412,267.581 176.746,264.748 180.5,262.5C 181.167,262.5 181.5,262.167 181.5,261.5C 214.952,250.777 246.952,253.944 277.5,271C 293.89,283.056 310.557,294.723 327.5,306C 345.298,315.745 363.965,322.911 383.5,327.5 Z"/></g>
<g><path style="opacity:1" fill="#7db961" d="M 335.5,383.5 C 315.497,383.667 295.497,383.5 275.5,383C 262.053,381.388 249.053,378.055 236.5,373C 220.52,364.367 204.52,355.7 188.5,347C 165.034,338.075 140.701,334.075 115.5,335C 116.244,333.961 117.244,333.461 118.5,333.5C 181.017,318.169 237.684,330.002 288.5,369C 291.833,370.667 295.167,372.333 298.5,374C 310.779,377.882 323.113,381.049 335.5,383.5 Z"/></g>
<g><path style="opacity:1" fill="#7db961" d="M 314.5,454.5 C 314.918,455.222 315.584,455.722 316.5,456C 279.015,461.28 241.349,463.614 203.5,463C 178.035,459.266 156.035,448.6 137.5,431C 115.992,416.927 92.3258,409.093 66.5,407.5C 66.6236,406.893 66.9569,406.56 67.5,406.5C 98.2068,399.113 129.207,397.613 160.5,402C 173.85,404.45 186.85,408.117 199.5,413C 220.167,423.333 240.833,433.667 261.5,444C 278.556,450.645 296.223,454.145 314.5,454.5 Z"/></g>
</svg>
