<?xml version="1.0" encoding="UTF-8"?>
<!DOCTYPE svg PUBLIC "-//W3C//DTD SVG 1.1//EN" "http://www.w3.org/Graphics/SVG/1.1/DTD/svg11.dtd">
<svg xmlns="http://www.w3.org/2000/svg" version="1.1" width="512px" height="512px" style="shape-rendering:geometricPrecision; text-rendering:geometricPrecision; image-rendering:optimizeQuality; fill-rule:evenodd; clip-rule:evenodd" xmlns:xlink="http://www.w3.org/1999/xlink">
<g><path style="opacity:0.958" fill="#2a3d1a" d="M 406.5,130.5 C 405.257,137.692 405.257,145.025 406.5,152.5C 406.465,178.207 405.465,203.874 403.5,229.5C 401.772,235.238 401.105,241.238 401.5,247.5C 399.977,269.487 398.644,291.487 397.5,313.5C 396.512,318.64 396.179,323.974 396.5,329.5C 395.335,364.656 397.002,399.656 401.5,434.5C 399.621,438.009 396.621,439.342 392.5,438.5C 391.034,437.653 390.2,436.32 390,434.5C 388.437,423.536 387.27,412.536 386.5,401.5C 386.613,391.63 385.947,381.963 384.5,372.5C 384.305,358.814 384.638,345.147 385.5,331.5C 386.345,320.857 386.679,310.19 386.5,299.5C 387.977,278.815 389.644,258.149 391.5,237.5C 392.125,229.824 392.792,222.158 393.5,214.5C 395.104,191.166 395.437,167.833 394.5,144.5C 394.821,139.305 394.487,134.305 393.5,129.5C 389.604,76.8095 361.937,44.9762 310.5,34C 298.711,31.714 286.878,30.214 275,29.5C 279.412,38.0182 283.078,47.0182 286,56.5C 288.142,63.6851 289.309,71.0185 289.5,78.5C 289.392,83.8699 289.725,89.2032 290.5,94.5C 290.028,123.08 287.361,151.413 282.5,179.5C 281.103,185.07 280.437,190.736 280.5,196.5C 277.75,219.753 276.083,243.086 275.5,266.5C 274.289,272.023 274.289,277.69 275.5,283.5C 275.978,302.28 277.645,320.946 280.5,339.5C 277.788,343.681 274.454,344.348 270.5,341.5C 268.891,338.851 268.057,335.851 268,332.5C 264.668,302.59 263.668,272.59 265,242.5C 268.511,203.078 272.844,163.745 278,124.5C 280.251,105.783 279.918,87.116 277,68.5C 274.528,55.4114 269.528,43.4114 262,32.5C 260.178,30.9546 258.011,30.288 255.5,30.5C 252.989,30.288 250.822,30.9546 249,32.5C 238.254,48.4687 232.587,66.1354 232,85.5C 231.334,98.5224 231.667,111.522 233,124.5C 238.156,163.745 242.489,203.078 246,242.5C 247.587,274.968 246.254,307.301 242,339.5C 241.722,340.416 241.222,341.082 240.5,341.5C 236.501,344.335 233.168,343.668 230.5,339.5C 233.355,320.946 235.022,302.28 235.5,283.5C 236.711,277.69 236.711,272.023 235.5,266.5C 234.917,243.087 233.25,219.754 230.5,196.5C 229.915,190.822 229.249,185.155 228.5,179.5C 223.526,151.425 220.859,123.091 220.5,94.5C 220.472,89.1383 220.806,83.8049 221.5,78.5C 221.691,71.0185 222.858,63.6851 225,56.5C 227.922,47.0182 231.588,38.0182 236,29.5C 213.795,30.4247 192.295,34.9247 171.5,43C 147.026,55.0889 130.859,74.2556 123,100.5C 120.304,110.012 118.47,119.678 117.5,129.5C 116.513,134.305 116.179,139.305 116.5,144.5C 115.205,168.256 115.872,191.923 118.5,215.5C 117.903,215.735 117.57,216.235 117.5,217C 118.277,223.82 118.944,230.653 119.5,237.5C 121.356,258.149 123.023,278.815 124.5,299.5C 124.321,310.19 124.655,320.857 125.5,331.5C 126.691,345.227 126.691,358.893 125.5,372.5C 124.713,382.146 124.38,391.812 124.5,401.5C 123.73,412.536 122.563,423.536 121,434.5C 120.8,436.32 119.966,437.653 118.5,438.5C 114.379,439.342 111.379,438.009 109.5,434.5C 113.978,399.655 115.645,364.655 114.5,329.5C 114.821,323.974 114.488,318.64 113.5,313.5C 112.356,291.487 111.023,269.487 109.5,247.5C 109.895,241.238 109.228,235.238 107.5,229.5C 105.485,203.876 104.485,178.209 104.5,152.5C 105.37,144.861 106.036,137.195 106.5,129.5C 110.572,68.6003 142.572,32.767 202.5,22C 210.442,20.5321 218.442,19.5321 226.5,19C 242.175,19.3103 257.841,19.1437 273.5,18.5C 300.813,18.6626 326.813,24.4959 351.5,36C 377.17,50.6871 393.337,72.5205 400,101.5C 401.946,111.371 404.112,121.038 406.5,130.5 Z"/></g>
<g><path style="opacity:0.984" fill="#385a2a" d="M 289.5,78.5 C 311.324,88.4927 330.157,102.493 346,120.5C 350.436,126.656 351.436,133.323 349,140.5C 341.389,147.971 333.222,148.471 324.5,142C 310.2,128.214 298.867,112.381 290.5,94.5C 289.725,89.2032 289.392,83.8699 289.5,78.5 Z"/></g>
<g><path style="opacity:0.978" fill="#385a2b" d="M 221.5,78.5 C 220.806,83.8049 220.472,89.1383 220.5,94.5C 212.133,112.381 200.8,128.214 186.5,142C 181.141,146.073 175.141,147.406 168.5,146C 163.173,143.511 160.506,139.345 160.5,133.5C 160.901,128.797 162.401,124.464 165,120.5C 180.843,102.493 199.676,88.4927 221.5,78.5 Z"/></g>
<g><path style="opacity:0.984" fill="#385a2a" d="M 106.5,129.5 C 106.036,137.195 105.37,144.861 104.5,152.5C 98.2479,167.669 90.4145,182.002 81,195.5C 75.6562,202.251 68.8229,206.585 60.5,208.5C 48.6256,206.429 44.1256,199.429 47,187.5C 53.1693,174.65 61.6693,163.484 72.5,154C 82.9798,144.599 94.3131,136.432 106.5,129.5 Z"/></g>
<g><path style="opacity:0.982" fill="#385a2b" d="M 117.5,129.5 C 135.342,140.202 151.509,153.202 166,168.5C 172.445,175.89 176.612,184.39 178.5,194C 177.576,202.992 172.576,207.825 163.5,208.5C 158.69,207.761 154.356,205.927 150.5,203C 142.796,195.967 136.63,187.8 132,178.5C 126.51,167.195 121.343,155.862 116.5,144.5C 116.179,139.305 116.513,134.305 117.5,129.5 Z"/></g>
<g><path style="opacity:0.983" fill="#385a2b" d="M 393.5,129.5 C 394.487,134.305 394.821,139.305 394.5,144.5C 387.715,163.07 378.548,180.403 367,196.5C 361.883,202.791 355.383,206.791 347.5,208.5C 334.128,205.425 329.961,197.425 335,184.5C 337.542,178.635 340.875,173.301 345,168.5C 359.491,153.202 375.658,140.202 393.5,129.5 Z"/></g>
<g><path style="opacity:0.984" fill="#385a2a" d="M 406.5,130.5 C 423.195,140.789 438.361,153.122 452,167.5C 456.414,172.656 460.081,178.323 463,184.5C 467.989,197.529 463.822,205.529 450.5,208.5C 445.69,207.761 441.356,205.927 437.5,203C 431.832,197.812 426.998,191.979 423,185.5C 416.927,174.687 411.427,163.687 406.5,152.5C 405.257,145.025 405.257,137.692 406.5,130.5 Z"/></g>
<g><path style="opacity:0.979" fill="#587937" d="M 228.5,179.5 C 229.249,185.155 229.915,190.822 230.5,196.5C 227.335,206.825 223.835,217.159 220,227.5C 216.104,238.039 209.938,246.872 201.5,254C 185.896,258.74 179.063,252.907 181,236.5C 184.961,225.239 190.961,215.239 199,206.5C 208.104,196.556 217.938,187.556 228.5,179.5 Z"/></g>
<g><path style="opacity:0.974" fill="#587937" d="M 282.5,179.5 C 297.498,190.998 310.665,204.332 322,219.5C 328.331,227.822 330.998,237.156 330,247.5C 325.346,256.273 318.513,258.439 309.5,254C 301.062,246.872 294.896,238.039 291,227.5C 287.165,217.159 283.665,206.825 280.5,196.5C 280.437,190.736 281.103,185.07 282.5,179.5 Z"/></g>
<g><path style="opacity:0.976" fill="#587937" d="M 118.5,215.5 C 137.959,226.79 154.459,241.456 168,259.5C 172.97,266.861 173.637,274.527 170,282.5C 163.638,288.528 156.805,289.028 149.5,284C 144.438,279.726 139.938,274.893 136,269.5C 129.674,259.18 124.174,248.513 119.5,237.5C 118.944,230.653 118.277,223.82 117.5,217C 117.57,216.235 117.903,215.735 118.5,215.5 Z"/></g>
<g><path style="opacity:0.971" fill="#587937" d="M 393.5,214.5 C 392.792,222.158 392.125,229.824 391.5,237.5C 385.154,252.521 376.987,266.521 367,279.5C 362.62,284.023 357.287,286.69 351,287.5C 340.229,285.575 336.229,279.242 339,268.5C 342.156,260.184 346.823,252.851 353,246.5C 365.225,234.095 378.725,223.429 393.5,214.5 Z"/></g>
<g><path style="opacity:0.978" fill="#587937" d="M 107.5,229.5 C 109.228,235.238 109.895,241.238 109.5,247.5C 103.105,264.288 94.6055,279.954 84,294.5C 79.6009,299.947 74.1009,303.78 67.5,306C 56.6042,307.273 50.6042,302.439 49.5,291.5C 51.5263,282.114 55.6929,273.781 62,266.5C 75.3204,251.658 90.4871,239.325 107.5,229.5 Z"/></g>
<g><path style="opacity:0.981" fill="#587937" d="M 403.5,229.5 C 425.582,241.742 443.749,258.409 458,279.5C 461.405,285.583 462.071,291.916 460,298.5C 456.292,304.85 450.792,307.35 443.5,306C 436.899,303.78 431.399,299.947 427,294.5C 416.395,279.954 407.895,264.288 401.5,247.5C 401.105,241.238 401.772,235.238 403.5,229.5 Z"/></g>
<g><path style="opacity:0.979" fill="#77a15d" d="M 235.5,266.5 C 236.711,272.023 236.711,277.69 235.5,283.5C 230.277,297.777 222.61,310.61 212.5,322C 207.868,326.072 202.535,327.405 196.5,326C 191.895,323.792 189.895,320.125 190.5,315C 191.205,308.421 193.705,302.588 198,297.5C 209.208,285.445 221.708,275.112 235.5,266.5 Z"/></g>
<g><path style="opacity:0.975" fill="#77a15d" d="M 275.5,266.5 C 294.072,276.905 308.906,291.238 320,309.5C 322.834,321.991 318.001,327.491 305.5,326C 303.004,324.92 300.67,323.586 298.5,322C 288.39,310.61 280.723,297.777 275.5,283.5C 274.289,277.69 274.289,272.023 275.5,266.5 Z"/></g>
<g><path style="opacity:0.976" fill="#77a15d" d="M 124.5,299.5 C 139.099,310.934 150.599,324.934 159,341.5C 163.57,358.265 157.737,364.098 141.5,359C 134.458,350.739 129.125,341.572 125.5,331.5C 124.655,320.857 124.321,310.19 124.5,299.5 Z"/></g>
<g><path style="opacity:0.981" fill="#77a15d" d="M 386.5,299.5 C 386.679,310.19 386.345,320.857 385.5,331.5C 381.875,341.572 376.542,350.739 369.5,359C 353.263,364.098 347.43,358.265 352,341.5C 360.401,324.934 371.901,310.934 386.5,299.5 Z"/></g>
<g><path style="opacity:0.981" fill="#77a25d" d="M 113.5,313.5 C 114.488,318.64 114.821,323.974 114.5,329.5C 108.14,347.387 98.8068,363.553 86.5,378C 78.9982,384.635 71.1649,385.135 63,379.5C 59.803,373.223 59.803,366.889 63,360.5C 70.7082,348.455 80.2082,337.955 91.5,329C 98.7361,323.581 106.069,318.415 113.5,313.5 Z"/></g>
<g><path style="opacity:0.981" fill="#77a25d" d="M 397.5,313.5 C 413.248,323.066 427.415,334.733 440,348.5C 443.394,352.898 446.394,357.565 449,362.5C 453.527,377.659 448.027,384.493 432.5,383C 429.567,381.729 426.901,380.062 424.5,378C 412.193,363.553 402.86,347.387 396.5,329.5C 396.179,323.974 396.512,318.64 397.5,313.5 Z"/></g>
<g><path style="opacity:0.979" fill="#adc994" d="M 230.5,339.5 C 233.168,343.668 236.501,344.335 240.5,341.5C 246.038,358.808 247.538,376.475 245,394.5C 242.826,403.173 237.326,406.673 228.5,405C 225.667,403.5 223.5,401.333 222,398.5C 219.308,388.565 219.308,378.565 222,368.5C 224.338,358.656 227.171,348.99 230.5,339.5 Z"/></g>
<g><path style="opacity:0.975" fill="#aeca95" d="M 280.5,339.5 C 286.127,354.511 289.794,370.011 291.5,386C 290.944,390.23 290.11,394.397 289,398.5C 284.377,405.94 278.211,407.44 270.5,403C 267.305,399.086 265.471,394.586 265,389.5C 263.88,373.129 265.713,357.129 270.5,341.5C 274.454,344.348 277.788,343.681 280.5,339.5 Z"/></g>
<g><path style="opacity:0.973" fill="#77a15d" d="M 125.5,372.5 C 137.774,383.614 147.608,396.614 155,411.5C 157.657,417.406 157.991,423.406 156,429.5C 147.363,436.643 140.03,435.31 134,425.5C 129.936,417.728 126.769,409.728 124.5,401.5C 124.38,391.812 124.713,382.146 125.5,372.5 Z"/></g>
<g><path style="opacity:0.978" fill="#77a25d" d="M 384.5,372.5 C 385.947,381.963 386.613,391.63 386.5,401.5C 384.07,412.862 379.07,423.028 371.5,432C 361.169,436.842 355.169,433.676 353.5,422.5C 354.716,413.733 357.883,405.733 363,398.5C 369.624,389.377 376.791,380.71 384.5,372.5 Z"/></g>
<g><path style="opacity:0.973" fill="#aeca95" d="M 109.5,434.5 C 111.379,438.009 114.379,439.342 118.5,438.5C 116.821,453.885 112.654,468.551 106,482.5C 102.008,490.417 95.8415,493.25 87.5,491C 85.4476,490.07 83.9476,488.57 83,486.5C 82.3333,482.167 82.3333,477.833 83,473.5C 89.3711,458.736 98.2044,445.736 109.5,434.5 Z"/></g>
<g><path style="opacity:0.973" fill="#aeca95" d="M 401.5,434.5 C 413.065,445.946 421.898,459.28 428,474.5C 431.197,488.298 426.031,493.798 412.5,491C 404.608,483.053 399.441,473.553 397,462.5C 395.048,454.574 393.548,446.574 392.5,438.5C 396.621,439.342 399.621,438.009 401.5,434.5 Z"/></g>
</svg>
