<?xml version="1.0" encoding="UTF-8"?>
<svg version="1.1" xmlns="http://www.w3.org/2000/svg" width="512" height="512">
<path d="M0 0 C3.29175639 1.3898527 4.93120906 2.85727925 6.99609375 5.75390625 C7.5478125 6.51695068 8.09953125 7.27999512 8.66796875 8.06616211 C9.25191406 8.88995361 9.83585938 9.71374512 10.4375 10.5625 C11.69514941 12.30574547 12.95429451 14.04791275 14.21484375 15.7890625 C15.16593018 17.10632324 15.16593018 17.10632324 16.13623047 18.45019531 C18.85371946 22.16796516 21.67607937 25.8004085 24.5 29.4375 C50.8795271 63.72525374 72.45393377 101.55033219 86.99194336 142.33544922 C88.22870286 145.60451998 89.60634049 148.79470635 91 152 C126.13025782 141.09945376 160.92729124 129.69742962 195.09106445 116.02832031 C195.93347687 115.6929274 196.77588928 115.35753448 197.64382935 115.01197815 C199.22415453 114.38189395 200.80269824 113.74731663 202.37911987 113.10752869 C205.40046896 111.90296056 207.71547283 111 211 111 C221.20329656 161.75208694 221.20329656 161.75208694 223.5 177.25 C223.6350293 178.14565674 223.77005859 179.04131348 223.90917969 179.96411133 C226.52969093 198.81494123 227.3790339 217.67448116 227.3125 236.6875 C227.30976578 238.32235352 227.30976578 238.32235352 227.30697632 239.99023438 C227.2597084 256.8305467 226.71637125 273.34665667 224 290 C223.82839355 291.07958984 223.65678711 292.15917969 223.47998047 293.27148438 C216.69365986 334.72929285 201.8742746 375.55669486 176 409 C175.37867188 409.81339844 174.75734375 410.62679688 174.1171875 411.46484375 C168.77443602 418.31092003 162.97130168 424.70462768 157 431 C156.52546387 431.50321777 156.05092773 432.00643555 155.56201172 432.52490234 C147.97015355 440.5232375 139.83605401 447.41646572 131 454 C130.44618652 454.41991211 129.89237305 454.83982422 129.32177734 455.27246094 C82.80645615 490.45765518 24.28424983 505.8268667 -33 511 C-33.95491333 511.08855255 -34.90982666 511.1771051 -35.89367676 511.26834106 C-46.68990355 512.15846553 -57.44777842 512.12738168 -68.2734375 512.09765625 C-70.2936703 512.09578696 -72.31390355 512.09436547 -74.33413696 512.09336853 C-79.60458671 512.08958357 -84.8750081 512.07978848 -90.14544678 512.06866455 C-95.54227312 512.05836312 -100.93910412 512.05385236 -106.3359375 512.04882812 C-116.89063733 512.03816188 -127.44531629 512.02113486 -138 512 C-138.80989632 510.37959557 -138.80989632 510.37959557 -139.63615417 508.72645569 C-140.35663477 507.28516451 -141.0771194 505.84387536 -141.79760742 504.40258789 C-142.15203667 503.69343483 -142.50646591 502.98428177 -142.87163544 502.25363922 C-144.98848884 498.01924816 -147.11035317 493.78743456 -149.23828125 489.55859375 C-154.78592833 478.52097667 -160.26317274 467.45730347 -165.56274414 456.29833984 C-168.66989984 449.76178037 -171.81965449 443.24732354 -174.99299622 436.74273682 C-178.28591877 429.99285218 -181.56308541 423.23542719 -184.83349609 416.47460938 C-186.25120881 413.54401838 -187.67360186 410.61577824 -189.10009766 407.68945312 C-197.30763189 390.83024744 -204.88593387 374.10740239 -210 356 C-210.21688477 355.23768066 -210.43376953 354.47536133 -210.65722656 353.68994141 C-212.00170297 348.83124415 -213.07178402 343.95383619 -214 339 C-214.14808105 338.24799316 -214.29616211 337.49598633 -214.44873047 336.72119141 C-219.19341044 311.73118164 -219.0006384 283.92444177 -214 259 C-213.83371094 258.15050781 -213.66742188 257.30101562 -213.49609375 256.42578125 C-209.6114606 237.17526589 -203.50527423 218.24912548 -194.07714844 200.98193359 C-192.92460047 198.86126623 -191.81001992 196.72280782 -190.6953125 194.58203125 C-185.06566007 183.93521437 -178.54407796 174.37581902 -171 165 C-170.54512207 164.42942871 -170.09024414 163.85885742 -169.62158203 163.27099609 C-160.17860289 151.5026359 -149.66775624 140.636722 -137.83203125 131.26171875 C-134.55211976 128.64231357 -131.36709103 125.92706225 -128.1875 123.1875 C-127.59984863 122.6814624 -127.01219727 122.1754248 -126.40673828 121.65405273 C-125.20669893 120.62047678 -124.00683035 119.58670253 -122.80712891 118.55273438 C-121.01575856 117.01354018 -119.21804113 115.48212881 -117.41796875 113.953125 C-110.70375397 108.24313764 -104.12208388 102.42290353 -97.65234375 96.4375 C-95.52509466 94.48256122 -93.37727748 92.57117955 -91.1875 90.6875 C-85.9961524 86.18119621 -81.01092559 81.4506242 -76 76.74609375 C-73.53439316 74.43133378 -71.05775161 72.13040808 -68.5625 69.84765625 C-58.76792444 60.84276749 -49.35218004 51.46068936 -39.9375 42.0625 C-38.91064087 41.03952316 -38.91064087 41.03952316 -37.86303711 39.99588013 C-28.44038099 30.65495278 -28.44038099 30.65495278 -19.55541992 20.80932617 C-16.39429539 17.13218069 -13.02015409 13.64606178 -9.6875 10.125 C-8.61532227 8.98804688 -8.61532227 8.98804688 -7.52148438 7.828125 C-2.35726687 2.35726687 -2.35726687 2.35726687 0 0 Z " fill="#00AA95" transform="translate(251,0)"/>
<path d="M0 0 C-1.30796504 4.12179324 -2.83463238 8.01495396 -4.65234375 11.9375 C-5.17570312 13.06841064 -5.6990625 14.19932129 -6.23828125 15.36450195 C-6.80421064 16.5765574 -7.37062864 17.78838482 -7.9375 19 C-8.22689453 19.62014984 -8.51628906 20.24029968 -8.81445312 20.87924194 C-17.62439332 39.74225572 -26.94736626 58.1781215 -37.38232422 76.20019531 C-38.91498747 78.85286391 -40.429272 81.51528154 -41.94140625 84.1796875 C-51.03782348 100.04368319 -61.25505126 115.15710026 -71.49609375 130.29492188 C-73.61270603 133.42360169 -75.71504898 136.56155825 -77.8125 139.703125 C-84.57702332 149.78465412 -91.80197724 159.42059746 -99.35400391 168.92480469 C-100.91556094 170.89354316 -102.46604019 172.87034424 -104.01171875 174.8515625 C-112.61284656 185.87258852 -121.48579601 196.65276875 -130.54980469 207.29541016 C-132.01803039 209.02119329 -133.48173533 210.75074272 -134.9453125 212.48046875 C-140.87039191 219.46158932 -146.94304524 226.27209641 -153.1875 232.96875 C-155.72731924 235.69440967 -158.21230604 238.4654068 -160.6875 241.25 C-164.2082937 245.18463022 -167.8733337 248.92702462 -171.6640625 252.6015625 C-173.56962612 254.5581111 -175.34444396 256.54292274 -177.12109375 258.61328125 C-181.65411531 263.83378679 -186.54024265 268.68612648 -191.4375 273.5625 C-192.79198242 274.9227832 -192.79198242 274.9227832 -194.17382812 276.31054688 C-198.75528627 280.88537004 -203.39534065 285.31100198 -208.30883789 289.52709961 C-210.48005126 291.41809575 -212.49572206 293.43405197 -214.5 295.5 C-217.78854528 298.82769463 -221.16381624 301.95336441 -224.71484375 304.99609375 C-227.06486769 307.05688398 -229.35050216 309.17489502 -231.63452148 311.30810547 C-237.06491073 316.3789971 -242.60063216 321.20999944 -248.3984375 325.86328125 C-250.94986729 327.95882494 -253.38326773 330.13963155 -255.8125 332.375 C-260.16130606 336.33405457 -264.69447458 339.96565698 -269.33959961 343.56420898 C-274.09912023 347.2611153 -278.74349852 351.08195688 -283.375 354.9375 C-291.38271907 361.57483706 -299.60639554 367.86056449 -308 374 C-308.70737305 374.51916992 -309.41474609 375.03833984 -310.14355469 375.57324219 C-318.84077469 381.94603813 -327.6266928 388.18719699 -336.5 394.3125 C-337.31960205 394.88218506 -338.1392041 395.45187012 -338.98364258 396.03881836 C-339.74185303 396.55839111 -340.50006348 397.07796387 -341.28125 397.61328125 C-341.95220703 398.07516846 -342.62316406 398.53705566 -343.31445312 399.01293945 C-345 400 -345 400 -347 400 C-347.09403977 380.50036063 -347.16426805 361.00076819 -347.20724869 341.50094795 C-347.22774852 332.44391357 -347.25562377 323.38702123 -347.30175781 314.33007812 C-347.34201586 306.42283197 -347.36752378 298.51568882 -347.37635398 290.60834301 C-347.38150389 286.43341787 -347.39333407 282.25878706 -347.42292023 278.08395767 C-347.80933901 221.25808005 -332.18079633 169.05252998 -294 126 C-292.78957031 124.62328125 -292.78957031 124.62328125 -291.5546875 123.21875 C-265.663657 94.08036991 -229.9088257 71.40296212 -192.03662109 61.53759766 C-189.71258249 60.9241317 -187.39749357 60.28179408 -185.08203125 59.63671875 C-176.43777549 57.23693721 -167.78159615 54.92540749 -159.06640625 52.79638672 C-142.54004733 48.75881886 -126.37352269 43.81294058 -110.24838257 38.40942383 C-104.56964779 36.51113872 -98.87560236 34.66543018 -93.171875 32.84375 C-64.21924284 23.57741668 -35.45113078 13.76517926 -7.34985352 2.13134766 C-2.18827514 0 -2.18827514 0 0 0 Z " fill="#A4E786" transform="translate(461,111)"/>
<path d="M0 0 C0.33 0 0.66 0 1 0 C11.20329656 50.75208694 11.20329656 50.75208694 13.5 66.25 C13.6350293 67.14565674 13.77005859 68.04131348 13.90917969 68.96411133 C16.52969093 87.81494123 17.3790339 106.67448116 17.3125 125.6875 C17.30976578 127.32235352 17.30976578 127.32235352 17.30697632 128.99023438 C17.2597084 145.8305467 16.71637125 162.34665667 14 179 C13.82839355 180.07958984 13.65678711 181.15917969 13.47998047 182.27148438 C6.69365986 223.72929285 -8.1257254 264.55669486 -34 298 C-34.62132812 298.81339844 -35.24265625 299.62679688 -35.8828125 300.46484375 C-41.22556398 307.31092003 -47.02869832 313.70462768 -53 320 C-53.47453613 320.50321777 -53.94907227 321.00643555 -54.43798828 321.52490234 C-62.02984645 329.5232375 -70.16394599 336.41646572 -79 343 C-79.55381348 343.41991211 -80.10762695 343.83982422 -80.67822266 344.27246094 C-127.19208575 379.45655224 -185.71658467 394.82973822 -243 400 C-243.95998901 400.08855255 -244.91997803 400.1771051 -245.90905762 400.26834106 C-256.55609693 401.14284142 -267.16001644 401.12765518 -277.8359375 401.09765625 C-279.81132979 401.09578683 -281.78672255 401.09436541 -283.76211548 401.09336853 C-288.91419802 401.08958457 -294.06625153 401.0797904 -299.21832275 401.06866455 C-304.49450284 401.05836091 -309.77068771 401.05385189 -315.046875 401.04882812 C-325.36459596 401.03816366 -335.68229555 401.02113793 -346 401 C-343.68086508 398.65186796 -341.48932672 396.49475525 -338.7421875 394.66015625 C-337.81817139 394.03596802 -337.81817139 394.03596802 -336.87548828 393.39916992 C-336.21532715 392.95806885 -335.55516602 392.51696777 -334.875 392.0625 C-315.03620562 378.59540587 -296.09356073 364.06491429 -277.5390625 348.88671875 C-274.67256958 346.5424399 -271.78088812 344.23286765 -268.875 341.9375 C-264.2274266 338.23506338 -259.73006601 334.36797556 -255.23510742 330.4831543 C-251.77381176 327.49740649 -248.26660256 324.5947882 -244.6875 321.75 C-238.1502048 316.45053585 -232.12716053 310.60758049 -226.03125 304.8125 C-222.8794126 301.81884031 -219.68634325 298.88786066 -216.4375 296 C-212.87750949 292.83154821 -209.48793673 289.54739984 -206.1796875 286.1171875 C-204.29808531 284.28953806 -202.37513315 282.58722009 -200.38671875 280.87890625 C-195.34561522 276.49736458 -190.64786238 271.79416017 -185.9375 267.0625 C-185.07833984 266.20720703 -184.21917969 265.35191406 -183.33398438 264.47070312 C-178.89374528 260.02367986 -174.61649886 255.50654481 -170.52172852 250.73999023 C-168.45642373 248.37845851 -166.24704518 246.18791241 -164 244 C-160.47245353 240.5095856 -157.12615526 236.95355686 -153.90234375 233.18359375 C-151.99319276 230.99218635 -150.03008684 228.85688272 -148.05297852 226.72680664 C-143.31497908 221.61942308 -138.80678137 216.39914256 -134.4375 210.96875 C-131.57073197 207.47717355 -128.60206682 204.08490453 -125.625 200.6875 C-120.01479315 194.25915488 -114.68531918 187.66118789 -109.47607422 180.90576172 C-107.88128521 178.84672715 -106.27187709 176.7997111 -104.66015625 174.75390625 C-62.35055616 120.95630815 -28.70142798 61.99530928 0 0 Z " fill="#00CC76" transform="translate(461,111)"/>
</svg>
