<?xml version="1.0" encoding="UTF-8"?>
<svg version="1.1" xmlns="http://www.w3.org/2000/svg" width="512" height="512">
<path d="M0 0 C0.99 -0.03287109 0.99 -0.03287109 2 -0.06640625 C5.22710078 0.94836568 6.14448724 2.74565492 8 5.5625 C9.76032683 8.95601474 11.3010932 12.42698473 12.8125 15.9375 C13.24973389 16.95263672 13.68696777 17.96777344 14.13745117 19.01367188 C18.60268819 29.63263275 22.06464536 40.43059806 25 51.5625 C25.23025879 52.43148926 25.46051758 53.30047852 25.69775391 54.19580078 C29.85066294 70.35345054 31.82493995 86.8734116 33.88671875 103.3984375 C33.98205902 104.16057556 34.07739929 104.92271362 34.17562866 105.70794678 C34.64774605 109.53217386 35.08845942 113.35667704 35.47851562 117.19018555 C36.25354478 124.66247477 37.10614736 131.67008351 40.125 138.625 C40.40214844 139.31142578 40.67929688 139.99785156 40.96484375 140.70507812 C41.62466271 142.33187316 42.30925641 143.94859281 43 145.5625 C51.91426745 122.4856242 58.82643821 99.28948983 60.76953125 74.53125 C60.86333321 73.34790573 60.86333321 73.34790573 60.95903015 72.14065552 C61.26725976 68.17576031 61.54659155 64.2113512 61.78588867 60.24169922 C61.88826256 58.77309477 61.99087243 57.30450675 62.09375 55.8359375 C62.17302734 54.53060059 62.25230469 53.22526367 62.33398438 51.88037109 C63.08749319 48.12663767 63.99524882 46.85897827 67 44.5625 C69 43.99609375 69 43.99609375 71 44 C71.66 43.97808594 72.32 43.95617188 73 43.93359375 C76.25705758 44.95778568 77.26182606 46.6756198 79 49.5625 C79.46336744 52.4526059 79.69773407 54.97771498 79.75 57.875 C79.77747314 58.70692871 79.80494629 59.53885742 79.83325195 60.39599609 C79.91234065 63.11815358 79.95832924 65.83953117 80 68.5625 C80.02046387 69.45404785 80.04092773 70.3455957 80.06201172 71.26416016 C81.04690936 116.67526707 74.99308266 161.63466683 63.4375 205.5 C63.25385895 206.19889343 63.0702179 206.89778687 62.88101196 207.61785889 C61.11601721 214.29000287 59.28190081 220.87208948 56.92425537 227.3614502 C54.19344042 234.95397105 53.35748945 241.47312799 53.6875 249.5 C53.71005859 250.57701172 53.73261719 251.65402344 53.75585938 252.76367188 C53.81366413 255.36488598 53.89503169 257.96283873 54 260.5625 C79.83003426 214.90334852 94.84667498 161.8470522 97.5 109.5 C97.80137807 103.65672499 98.23059812 98.16560594 100 92.5625 C103.1909164 90.4352224 105.20159774 90.22868588 108.96484375 90.00390625 C112.19239293 90.88977867 113.16706054 92.82400116 115 95.5625 C116.28290459 98.05657688 117.45807196 100.49373249 118.5625 103.0625 C119.01810303 104.11655029 119.01810303 104.11655029 119.48291016 105.19189453 C125.82139996 120.33783747 127.26416429 136.4683312 124.9375 152.625 C124.75864258 153.9253418 124.75864258 153.9253418 124.57617188 155.25195312 C123.68982148 161.20316292 122.46673032 167.02463274 121.06640625 172.87109375 C120.89761459 173.58773697 120.72882294 174.30438019 120.55491638 175.04273987 C119.70594363 178.64207865 118.82771613 182.2294451 117.89819336 185.80883789 C117.57675427 187.14310149 117.25647084 188.47764418 116.9375 189.8125 C116.63714844 190.99328125 116.33679688 192.1740625 116.02734375 193.390625 C115.64170263 196.77190258 115.64170263 196.77190258 118.41601562 199.25463867 C119.69508789 200.39703003 119.69508789 200.39703003 121 201.5625 C121.68016955 207.71672642 120.48079509 213.66796222 119.5 219.75 C116.58394248 239.33940382 118.16714123 258.86752092 125 277.5625 C126.64928769 275.04386815 128.29521716 272.52319773 129.9375 270 C130.43314453 269.23872803 130.92878906 268.47745605 131.43945312 267.69311523 C135.15144677 261.95699189 138.70446291 256.14359931 142.09350586 250.21069336 C143.86748812 247.16784141 145.01112062 245.55508625 148 243.5625 C151.67565241 243.16151974 154.02348942 242.93934352 157.19140625 244.9609375 C159.98316286 248.97672563 159.59442109 252.78274021 159.5 257.5625 C159.48187256 259.02659302 159.48187256 259.02659302 159.46337891 260.52026367 C159.02702661 276.8914083 155.19027489 293.59191299 148.11376953 308.41943359 C146.84191249 311.09820574 145.99597873 313.17933073 146.02734375 316.16796875 C147.32475955 319.36200846 149.1982279 321.37752948 151.5625 323.875 C152.80193359 325.19951172 152.80193359 325.19951172 154.06640625 326.55078125 C154.70449219 327.21464844 155.34257812 327.87851562 156 328.5625 C158.06258748 325.46861878 158.78343574 323.19139466 159.734375 319.62109375 C160.05865479 318.40945557 160.38293457 317.19781738 160.71704102 315.94946289 C161.0620347 314.63315173 161.40633904 313.31665973 161.75 312 C161.9244162 311.33676727 162.0988324 310.67353455 162.27853394 309.99020386 C164.80018112 300.39225727 167.24914632 290.77536834 169.5625 281.125 C169.82579102 280.06144287 170.08908203 278.99788574 170.36035156 277.90209961 C171.91518382 271.24460036 172.83467052 265.98846638 169.46875 259.703125 C168.8190625 258.74921875 168.169375 257.7953125 167.5 256.8125 C154.58289322 236.86657741 146.87579492 213.90822691 143 190.5625 C142.88285645 189.86189453 142.76571289 189.16128906 142.64501953 188.43945312 C138.844893 164.38516036 137.95909908 134.59241895 147 111.5625 C149.42520546 109.13729454 150.62067741 108.87685559 154 108.5625 C158.02714736 109.61722907 159.87011503 111.01723064 162 114.5625 C162.36889648 117.3137207 162.36889648 117.3137207 162.37109375 120.48828125 C162.38551514 121.66600098 162.39993652 122.8437207 162.41479492 124.05712891 C162.4222876 125.31702637 162.42978027 126.57692383 162.4375 127.875 C163.0977293 159.08196725 171.34188922 188.48591271 187 215.5625 C187.30703857 214.75208252 187.61407715 213.94166504 187.93041992 213.10668945 C189.09503957 210.03318712 190.25995228 206.95979618 191.42504883 203.88647461 C191.92451103 202.5688092 192.42386407 201.2511024 192.9230957 199.93334961 C196.25709417 191.13333955 199.61288006 182.34223473 203 173.5625 C202.39140137 172.92900635 201.78280273 172.2955127 201.15576172 171.64282227 C179.76955343 149.14491867 172.36753259 119.38428542 172.72265625 89.11328125 C173.48316661 63.16133812 183.98627262 38.92526271 201 19.5625 C201.81517508 18.502051 202.62816579 17.43991344 203.4375 16.375 C207.81505558 11.57036583 213.21436698 5.712979 219.8125 4.3125 C223 4.5625 223 4.5625 225.9375 6 C228.14962398 8.74839645 228.95995667 10.56104648 228.75 14.1171875 C227.54577378 18.04346674 225.06177405 21.02304237 222.63769531 24.29516602 C208.57969423 43.64555865 207.3670471 70.38552212 210.875 93.3125 C213.75763395 106.39739725 217.9906392 121.54377841 224 133.5625 C224.34256836 133.04864746 224.68513672 132.53479492 225.03808594 132.00537109 C227.68684896 128.03222656 230.33561198 124.05908203 232.984375 120.0859375 C233.49911377 119.30766602 234.01385254 118.52939453 234.54418945 117.72753906 C235.4361391 116.40105751 236.34723092 115.08690603 237.28979492 113.79589844 C238.90488151 111.56305983 239.96140197 109.9994588 240.20703125 107.21875 C240.07683594 106.5071875 239.94664062 105.795625 239.8125 105.0625 C239.63654297 103.99515625 239.63654297 103.99515625 239.45703125 102.90625 C239.13700053 101.26506684 238.80670408 99.62586754 238.46875 97.98828125 C235.03803674 72.91548517 240.21635142 50.03771813 255.296875 29.7265625 C255.85890625 29.01242188 256.4209375 28.29828125 257 27.5625 C257.54140625 26.86898438 258.0828125 26.17546875 258.640625 25.4609375 C265.90828556 16.66503056 277.08171435 6.69765959 288.3984375 3.98828125 C291.6610166 3.81241732 293.74222191 4.4013887 296.5 6.125 C298.60248778 9.54154264 298.54531303 11.60898052 298 15.5625 C296.7260411 17.60083424 295.38938077 19.60102126 294 21.5625 C291.9498084 27.1883392 291.78547263 32.09345594 291.9453125 37.9765625 C291.97062304 39.80858595 291.99534361 41.64061763 292.01953125 43.47265625 C292.06888051 46.32269816 292.12464116 49.17229507 292.19189453 52.02197266 C292.63682075 72.18378665 288.95349895 88.20108044 275 103.5625 C269.66706331 108.97121554 263.99408909 113.4868752 257 116.5625 C256.34 116.5625 255.68 116.5625 255 116.5625 C254.74637695 117.28203857 254.49275391 118.00157715 254.23144531 118.74291992 C252.90775313 121.77371314 251.30224242 124.05030082 249.296875 126.67578125 C245.22281143 132.16878716 241.66774554 137.83101602 238.25 143.75 C237.36090942 145.28237305 237.36090942 145.28237305 236.45385742 146.84570312 C228.78602193 160.22228146 221.13896128 173.98778708 216 188.5625 C250.85768312 175.14574325 272.15777005 154.57096578 292.77441406 123.71923828 C293.53963379 122.57817627 293.53963379 122.57817627 294.3203125 121.4140625 C294.98957764 120.40593506 294.98957764 120.40593506 295.67236328 119.37744141 C297.01901457 117.5365062 298.22948041 116.00553096 300 114.5625 C306.75 113.8125 306.75 113.8125 310.5 116.0625 C313.59492046 121.22070077 311.98367456 127.70788413 310.68115234 133.30908203 C304.4131855 158.03959999 293.0781045 179.64028093 276 198.5625 C274.76989401 200.0200411 273.54059641 201.47826526 272.3125 202.9375 C254.18568624 223.41013671 226.54634881 239.34753128 200 245.5625 C198.33360159 245.59240201 196.66629252 245.59781333 195 245.5625 C194.90928223 246.13685791 194.81856445 246.71121582 194.72509766 247.30297852 C192.96777663 257.68455417 190.28888932 267.84955617 187.73535156 278.05688477 C187.11914908 280.52525519 186.50854016 282.99495979 185.8984375 285.46484375 C185.7078476 286.21902084 185.51725769 286.97319794 185.32089233 287.75022888 C184.48072355 291.15943619 184 294.02579813 184 297.5625 C184.47606689 297.21171387 184.95213379 296.86092773 185.44262695 296.49951172 C207.82421876 280.0078125 207.82421876 280.0078125 210.16748047 278.28125 C211.7329755 277.12769285 213.29840433 275.97404583 214.86376953 274.8203125 C218.85946629 271.87550946 222.85633686 268.93232422 226.85546875 265.9921875 C233.67463209 260.97676295 240.49129553 255.95923712 247.25756836 250.87255859 C248.57086715 249.88545226 249.88545505 248.90005837 251.20141602 247.91650391 C254.52899181 245.42891912 257.83540261 242.91885637 261.1171875 240.37109375 C262.45295846 239.35134431 263.78889017 238.3318054 265.125 237.3125 C265.72860352 236.83401611 266.33220703 236.35553223 266.95410156 235.86254883 C269.77496801 233.73107809 271.70919445 232.59745259 275.25 232.171875 C279.01548323 232.70674478 280.53420972 233.66157026 283 236.5625 C283.5989198 242.83119387 282.48107094 246.73338629 279.5 252.1875 C279.1376123 252.8769873 278.77522461 253.56647461 278.40185547 254.27685547 C277.28605768 256.38243495 276.14561561 258.47302497 275 260.5625 C274.6690332 261.17996094 274.33806641 261.79742187 273.99707031 262.43359375 C260.64917531 287.30612389 241.6549579 308.79986299 219 325.5625 C218.46117187 325.96210938 217.92234375 326.36171875 217.3671875 326.7734375 C205.79810479 335.26503023 193.44511956 342.17070484 180.375 348.0625 C179.62903564 348.40095947 178.88307129 348.73941895 178.11450195 349.08813477 C174.07798177 350.85585696 170.42251159 352.06025894 166 352.5625 C165.74992188 353.39007813 165.49984375 354.21765625 165.2421875 355.0703125 C163.82825137 359.04534048 162.04580052 362.68872576 160.125 366.4375 C159.78597656 367.10652344 159.44695312 367.77554687 159.09765625 368.46484375 C158.41584885 369.81031158 157.7325931 371.15504649 157.04785156 372.49902344 C155.34861701 375.84523276 153.67535319 379.20428083 152 382.5625 C195.70198508 373.23963302 239.87873254 359.80896716 277.22265625 334.46069336 C280.35580672 332.87733339 282.77766224 333.55157051 286 334.5625 C288.35352451 336.13151634 288.87641182 337.2358741 289.875 339.875 C290.10493954 344.81870015 287.30279456 348.38944173 284.14453125 351.96484375 C283.04239636 353.15122247 281.93135312 354.32937475 280.8125 355.5 C280.2251709 356.12116699 279.6378418 356.74233398 279.03271484 357.38232422 C274.89141956 361.72229207 270.66425705 365.78550999 266 369.5625 C264.97215423 370.43691023 263.94486335 371.31197293 262.91796875 372.1875 C234.20730361 396.30012927 198.02565205 412.68729908 161 418.5625 C160.31921387 418.67142578 159.63842773 418.78035156 158.93701172 418.89257812 C151.93269696 419.96163121 145.08149578 420.61802195 137.98828125 420.515625 C126.67953682 419.8655164 126.67953682 419.8655164 116.48046875 423.71875 C113.7783406 426.5356098 111.4241338 429.50581265 109 432.5625 C106.94024777 434.34636864 104.92697492 436.00528667 102.75 437.625 C102.20448486 438.03363281 101.65896973 438.44226563 101.09692383 438.86328125 C99.40840462 440.11152049 97.70716371 441.33990665 96 442.5625 C95.43861328 442.96823242 94.87722656 443.37396484 94.29882812 443.79199219 C76.95128276 456.20700621 54.53110033 469.97176598 33 472.5625 C32.89300781 473.77421875 32.78601563 474.9859375 32.67578125 476.234375 C31.97240471 482.52657708 30.59017887 488.64488968 29.1875 494.8125 C28.93935547 495.97007812 28.69121094 497.12765625 28.43554688 498.3203125 C28.18224609 499.43664062 27.92894531 500.55296875 27.66796875 501.703125 C27.44391357 502.70891602 27.2198584 503.71470703 26.98901367 504.75097656 C25.84633436 507.99933376 24.33594715 510.05044665 22 512.5625 C19.24582738 513.42855819 16.80683118 513.16642884 14 512.5625 C11.5 511.0625 11.5 511.0625 10 508.5625 C9.63033803 502.42627959 10.54842061 497.01876628 11.93359375 491.05859375 C12.13098648 490.1764772 12.32837921 489.29436066 12.53175354 488.38551331 C13.15902066 485.58847099 13.79766239 482.79419089 14.4375 480 C15.07172744 477.20182424 15.70349911 474.40312245 16.33253479 471.60377502 C16.72305811 469.86889021 17.1168662 468.13474037 17.51451111 466.401474 C18.03042571 464.12568898 18.52069982 461.8462406 19 459.5625 C19.27005859 458.29575439 19.54011719 457.02900879 19.81835938 455.72387695 C20.28031824 452.61210082 20.28031824 452.61210082 18.79711914 450.40136719 C18.19504639 449.81000977 17.59297363 449.21865234 16.97265625 448.609375 C16.32184082 447.93841797 15.67102539 447.26746094 15.00048828 446.57617188 C14.34032715 445.91166016 13.68016602 445.24714844 13 444.5625 C11.90158183 443.30881816 10.81646037 442.04334012 9.74609375 440.765625 C8.9403894 439.80861694 8.9403894 439.80861694 8.1184082 438.83227539 C-4.71012441 423.41754041 -15.98674318 406.93215364 -26 389.5625 C-26.76328613 388.24137207 -26.76328613 388.24137207 -27.54199219 386.89355469 C-65.80000744 320.02924231 -65.80000744 320.02924231 -63 291.5625 C-61.4375 289.0625 -61.4375 289.0625 -59 287.5625 C-55.5625 287 -55.5625 287 -52 287.5625 C-48.17486827 290.93725332 -45.15520813 294.81495768 -42.1875 298.9375 C-41.72448486 299.57469971 -41.26146973 300.21189941 -40.78442383 300.8684082 C-34.39236744 309.7167916 -28.209412 318.71436269 -21.99462891 327.6875 C-18.96755088 332.05064208 -15.92252719 336.4011266 -12.875 340.75 C-12.02071411 341.96949341 -12.02071411 341.96949341 -11.14916992 343.21362305 C-10.00547631 344.84610237 -8.86167797 346.47850831 -7.71777344 348.11083984 C-4.23222575 353.08552288 -0.74952143 358.06219774 2.73291016 363.0390625 C5.74594852 367.3446138 8.76155938 371.64832982 11.78125 375.94921875 C12.71517578 377.28049805 12.71517578 377.28049805 13.66796875 378.63867188 C14.84680665 380.31895575 16.02643091 381.99868836 17.20703125 383.67773438 C20.49858456 388.37153653 23.70154707 393.10917656 26.81835938 397.92114258 C27.20830078 398.46279053 27.59824219 399.00443848 28 399.5625 C28.33 399.5625 28.66 399.5625 29 399.5625 C29.57320777 394.52749475 30.14276428 389.49209469 30.70898438 384.45629883 C30.90199826 382.74427212 31.0959984 381.0323563 31.29101562 379.32055664 C31.57162499 376.85591875 31.84865116 374.39090004 32.125 371.92578125 C32.21249512 371.16413162 32.29999023 370.40248199 32.39013672 369.61775208 C33.07447283 364.09771846 33.07447283 364.09771846 33 358.5625 C31.19800898 356.4172726 29.4852208 354.62644698 27.4375 352.75 C26.3212066 351.68147115 25.20661416 350.61116241 24.09375 349.5390625 C23.55492187 349.02504883 23.01609375 348.51103516 22.4609375 347.98144531 C19.42191863 345.02977792 16.72651741 341.79914002 14 338.5625 C13.20464844 337.6446875 12.40929687 336.726875 11.58984375 335.78125 C4.00871849 326.99856164 -3.06524459 317.861145 -10 308.5625 C-10.54446777 307.83369629 -11.08893555 307.10489258 -11.64990234 306.35400391 C-41.26395791 266.53123973 -88.01130101 199.20395706 -84 146.5625 C-82.5410611 141.13494493 -79.84821099 136.66725839 -76 132.5625 C-73.14675563 131.13587781 -71.16545451 131.25216132 -68 131.5625 C-64.35608956 133.72900046 -63.17033081 135.02172946 -61.8828125 139.109375 C-61.61649546 140.50787486 -61.36465583 141.90918546 -61.125 143.3125 C-57.11993958 162.91832473 -46.61573534 180.27317133 -34 195.5625 C-33.31164062 196.3973291 -33.31164062 196.3973291 -32.609375 197.24902344 C-25.29370824 206.05696562 -17.54341022 214.43688885 -9.69189453 222.76611328 C-5.08414198 227.65844276 -0.51525201 232.58463167 4 237.5625 C4.51916992 238.13403809 5.03833984 238.70557617 5.57324219 239.29443359 C12.10558699 246.53163627 18.21551578 253.97808421 23.9375 261.875 C24.71661743 262.94947388 24.71661743 262.94947388 25.51147461 264.0456543 C29.30688153 269.3790293 32.699217 274.91165919 36 280.5625 C36.27346838 274.74622922 36.472199 268.9337509 36.60424805 263.11254883 C36.65931882 261.13629952 36.73420715 259.16049343 36.82983398 257.18579102 C37.74028036 245.79471534 37.74028036 245.79471534 33.84082031 235.53613281 C31.01254354 233.26378268 28.10186128 231.43822436 25 229.5625 C23.31593206 228.06319579 21.67587918 226.51283809 20.0859375 224.9140625 C19.31016357 224.14255859 18.53438965 223.37105469 17.73510742 222.57617188 C16.95627197 221.78791016 16.17743652 220.99964844 15.375 220.1875 C14.13036987 218.93163086 14.13036987 218.93163086 12.8605957 217.65039062 C7.17649783 211.86588285 1.86469982 206.06016584 -3 199.5625 C-4.08462264 198.15624014 -5.16925935 196.74999115 -6.25390625 195.34375 C-31.96762967 161.61490339 -47.85470884 123.00048288 -56 81.5625 C-56.14985352 80.80791504 -56.29970703 80.05333008 -56.45410156 79.27587891 C-58.12744272 70.39378405 -58.23399134 61.39161077 -58.34844971 52.37808228 C-58.37416901 50.43769376 -58.41414188 48.49751042 -58.45458984 46.55737305 C-58.4748005 34.69604952 -56.45355754 23.36346401 -48 14.5625 C-39.24703419 6.04610084 -39.24703419 6.04610084 -33.0625 5.125 C-28.74073838 5.74239452 -27.62699767 7.08649733 -25 10.5625 C-24.16125948 14.10494186 -24.07107083 17.62037914 -23.9609375 21.25 C-23.88233994 22.82938354 -23.88233994 22.82938354 -23.80215454 24.44067383 C-23.63750006 27.81402208 -23.50435718 31.18762922 -23.375 34.5625 C-23.18794137 38.95902274 -22.98683665 43.35467811 -22.7734375 47.75 C-22.69517982 49.36838776 -22.69517982 49.36838776 -22.61534119 51.01947021 C-20.5324772 89.73245787 -9.91174523 129.30746271 19.49023438 156.25927734 C22.45357469 158.8172189 25.54865969 160.73531983 29 162.5625 C25.89682022 148.67120696 22.70696215 135.25112256 13.20703125 124.26171875 C-7.72725404 98.65890258 -16.43661995 63.61034561 -13.48608398 31.06323242 C-11.19323499 8.59710604 -11.19323499 8.59710604 -6.1171875 2.18359375 C-3.84226355 0.44172394 -2.82606303 -0.00551965 0 0 Z M274 32.5625 C261.3172906 47.37093659 253.78820549 62.8890788 253.875 82.5625 C253.87113281 83.4390625 253.86726563 84.315625 253.86328125 85.21875 C253.87015145 89.78056549 254.06987345 94.07427028 255 98.5625 C264.92272664 92.30801539 272.72494088 82.17151706 275.63378906 70.69335938 C277.73788813 58.45030826 276.32116751 44.85407627 275 32.5625 C274.67 32.5625 274.34 32.5625 274 32.5625 Z M-41 33.5625 C-47.68252462 56.44854934 -39.80612947 86.36716506 -33 108.5625 C-32.76474609 109.33803223 -32.52949219 110.11356445 -32.28710938 110.91259766 C-19.8757184 150.95488873 3.81850035 186.69323946 34 215.5625 C34.33 215.5625 34.66 215.5625 35 215.5625 C35.12271779 212.26957253 35.10407263 208.99367348 35.02441406 205.69970703 C35.00675531 204.15385996 35.02349756 202.60749191 35.06152344 201.06201172 C35.67597505 190.3149336 35.67597505 190.3149336 31.49609375 180.96435547 C27.64377221 178.34808933 23.35491101 176.89426515 18.98535156 175.36621094 C14.32632519 173.48014173 10.71776125 169.85330987 7 166.5625 C6.02933594 165.79035156 5.05867188 165.01820313 4.05859375 164.22265625 C0.82620116 161.53086754 -1.74520197 158.50728193 -4.3125 155.1875 C-4.78397461 154.5795459 -5.25544922 153.9715918 -5.74121094 153.34521484 C-32.24703561 118.47711485 -37.34152918 75.99972946 -40 33.5625 C-40.33 33.5625 -40.66 33.5625 -41 33.5625 Z M2 37.5625 C1.19515212 58.26497594 5.5377743 78.15830842 15 96.5625 C15.33 96.5625 15.66 96.5625 16 96.5625 C15.5368704 86.86086117 14.28958009 77.68791759 12.25 68.1875 C11.98558105 66.92977783 11.72116211 65.67205566 11.44873047 64.3762207 C9.4807423 55.24350719 7.13318287 46.36591204 4 37.5625 C3.34 37.5625 2.68 37.5625 2 37.5625 Z M192 68.5625 C185.81796421 94.24738678 187.95526057 121.80881746 201.3828125 144.9765625 C205.40037508 151.47673983 205.40037508 151.47673983 210 157.5625 C210.66 157.5625 211.32 157.5625 212 157.5625 C213.57297132 151.85700206 212.18591793 148.14241537 210.17578125 142.82421875 C209.72177193 141.56566826 209.72177193 141.56566826 209.2585907 140.2816925 C208.28965961 137.59947719 207.30280877 134.92438907 206.3125 132.25 C199.98907891 115.08597578 194.78618799 98.88154311 193.75 80.5 C193.67265625 79.33662109 193.5953125 78.17324219 193.515625 76.97460938 C193.33103292 74.17111715 193.15915982 71.36753004 193 68.5625 C192.67 68.5625 192.34 68.5625 192 68.5625 Z M16 96.5625 C17 98.5625 17 98.5625 17 98.5625 Z M56 156.5625 C49.48826761 168.07558483 46.73303204 176.40345941 49 189.5625 C49.66 189.5625 50.32 189.5625 51 189.5625 C51.86114943 185.66786008 52.71541795 181.77177958 53.56347656 177.87426758 C53.85262686 176.54996569 54.14361885 175.22606448 54.43652344 173.90258789 C54.85841904 171.99473006 55.27303782 170.0852677 55.6875 168.17578125 C55.93886719 167.02891846 56.19023437 165.88205566 56.44921875 164.70043945 C56.94075081 161.90005758 57.11135406 159.39506892 57 156.5625 C56.67 156.5625 56.34 156.5625 56 156.5625 Z M271 176.5625 C270.319375 177.10777344 269.63875 177.65304688 268.9375 178.21484375 C260.74594683 184.5872621 252.19917158 189.77154622 243 194.5625 C242.39317383 194.87960938 241.78634766 195.19671875 241.16113281 195.5234375 C235.07003271 198.65428302 229.26356401 201.318478 222.6015625 202.953125 C213.05403038 204.94543773 213.05403038 204.94543773 205.48242188 210.49951172 C202.78360981 215.67908462 201 221.69210311 201 227.5625 C207.62738543 226.30706308 213.25813792 224.38501838 219.3125 221.4375 C220.14136719 221.03789062 220.97023438 220.63828125 221.82421875 220.2265625 C232.99089096 214.73019425 242.53477411 207.6254702 252 199.5625 C253.09828125 198.64984375 253.09828125 198.64984375 254.21875 197.71875 C258.96195314 193.70527042 263.02876533 189.33376496 267 184.5625 C267.76570313 183.65177734 267.76570313 183.65177734 268.546875 182.72265625 C269.70412181 181.3411116 270.85311753 179.95266057 272 178.5625 C271.505 177.5725 271.505 177.5725 271 176.5625 Z M98 197.5625 C99 199.5625 99 199.5625 99 199.5625 Z M-53 198.5625 C-51.99548866 204.63541425 -49.3287801 209.82882326 -46.75 215.375 C-46.2149585 216.52701904 -45.67991699 217.67903809 -45.12866211 218.8659668 C-28.452779 254.32918732 -7.22113485 287.56398295 18 317.5625 C18.44762695 318.09504395 18.89525391 318.62758789 19.35644531 319.17626953 C21.72135466 321.98691673 24.09269206 324.79193256 26.47265625 327.58984375 C27.98559166 329.36935511 29.49473563 331.15211644 30.99609375 332.94140625 C32.30921716 334.50014987 33.65035467 336.03526976 35 337.5625 C35.33 337.5625 35.66 337.5625 36 337.5625 C37.83900244 308.1384609 20.45864205 282.39812274 2 260.5625 C1.30704834 259.73637207 1.30704834 259.73637207 0.60009766 258.89355469 C-7.03966298 249.7819053 -7.03966298 249.7819053 -15.31176758 241.25073242 C-17.04846757 239.51403243 -18.64635111 237.70701569 -20.24609375 235.84375 C-23.20904385 232.4338048 -26.26774637 229.14185525 -29.39160156 225.87963867 C-35.97287571 219.00180948 -42.07597759 211.93825631 -47.828125 204.35546875 C-49.46880194 202.24560542 -51.04604339 200.37054426 -53 198.5625 Z M97 200.5625 C96.62230469 201.77679688 96.24460938 202.99109375 95.85546875 204.2421875 C86.48450594 233.69420168 73.91443825 267.19678924 54.36010742 291.60986328 C52.35526393 294.48811463 52.70894468 296.86065599 52.8125 300.3125 C52.83957031 301.48296875 52.86664063 302.6534375 52.89453125 303.859375 C52.92933594 304.75140625 52.96414062 305.6434375 53 306.5625 C74.56998998 292.88396977 85.38545185 268.99911077 90.85302734 244.78466797 C92.77506801 235.75022101 94.41915422 226.66209441 96 217.5625 C96.30236572 215.86697998 96.30236572 215.86697998 96.61083984 214.13720703 C96.79469238 213.08259277 96.97854492 212.02797852 97.16796875 210.94140625 C97.32934326 210.02045166 97.49071777 209.09949707 97.65698242 208.15063477 C97.99666275 205.5876802 98.06205064 203.14444765 98 200.5625 C97.67 200.5625 97.34 200.5625 97 200.5625 Z M164 208.5625 C165 210.5625 165 210.5625 165 210.5625 Z M165 210.5625 C166.25478872 217.09650346 168.13942471 222.72772053 170.9375 228.75 C171.28490234 229.51763672 171.63230469 230.28527344 171.99023438 231.07617188 C173.90506691 235.28447616 175.90317132 239.44114707 178 243.5625 C178.99 243.0675 178.99 243.0675 180 242.5625 C181.19909888 238.27772001 181.33288944 236.23611157 179.33984375 232.203125 C178.55716889 231.06030325 177.75542821 229.93036177 176.9375 228.8125 C176.10105091 227.59849504 175.26774614 226.382318 174.4375 225.1640625 C174.02371094 224.56368164 173.60992187 223.96330078 173.18359375 223.34472656 C170.47670854 219.26876492 168.25652599 214.89856955 166 210.5625 C165.67 210.5625 165.34 210.5625 165 210.5625 Z M103 266.5625 C101.98004167 302.0721603 110.87434937 338.49466233 135.125 365.5625 C136.40405219 366.90793898 137.69050152 368.24667544 139 369.5625 C142.83241561 366.07967918 144.60633718 361.73350548 146.8125 357.125 C147.4612207 355.83625977 147.4612207 355.83625977 148.12304688 354.52148438 C148.52201172 353.69068359 148.92097656 352.85988281 149.33203125 352.00390625 C149.70046143 351.24795166 150.0688916 350.49199707 150.44848633 349.71313477 C151.2235996 347.53383976 151.2235996 347.53383976 150.19946289 345.37426758 C148.86580361 343.35979872 147.52768873 342.17272116 145.625 340.6875 C134.80855042 331.4611274 126.62632229 320.0521675 120 307.5625 C119.61714844 306.84465332 119.23429687 306.12680664 118.83984375 305.38720703 C113.54223284 295.27934794 109.67758209 285.21643196 106.85083008 274.15185547 C106.63322021 273.30510254 106.41561035 272.45834961 106.19140625 271.5859375 C106.00779541 270.83231934 105.82418457 270.07870117 105.63500977 269.30224609 C105.14829977 267.35045434 105.14829977 267.35045434 103 266.5625 Z M247 271.5625 C246.52393311 271.91328613 246.04786621 272.26407227 245.55737305 272.62548828 C223.17578125 289.1171875 223.17578125 289.1171875 220.83203125 290.84399414 C219.26801672 291.99653793 217.7042171 293.14937342 216.140625 294.30249023 C212.12345576 297.26449075 208.10245945 300.22103876 204.07421875 303.16796875 C200.10678318 306.07179729 196.15342409 308.99390162 192.20849609 311.92822266 C190.76352578 312.9974943 189.31349511 314.05996958 187.85791016 315.11474609 C185.89238317 316.53908834 183.94490726 317.98518934 182 319.4375 C181.43047607 319.84121826 180.86095215 320.24493652 180.27416992 320.66088867 C175.79871814 324.06344403 174.59249241 327.35372273 173 332.5625 C203.05905841 324.5109665 229.92702979 297.5083116 248 273.5625 C247.505 272.5725 247.505 272.5725 247 271.5625 Z M136 290.5625 C134.64172029 292.20889965 133.30745749 293.87545807 132 295.5625 C132.66 296.8825 133.32 298.2025 134 299.5625 C134.99 296.5925 135.98 293.6225 137 290.5625 C136.67 290.5625 136.34 290.5625 136 290.5625 Z M87 294.5625 C85.949072 295.85102911 84.9355172 297.17006819 83.9375 298.5 C76.75246579 307.77522597 68.56282748 318.10433319 57.09008789 322.25317383 C54.89034348 323.12567607 53.60675964 323.80824538 52 325.5625 C50.80289778 329.87815026 50.69851071 334.16528025 50.5625 338.625 C50.49869141 339.80255859 50.43488281 340.98011719 50.36914062 342.19335938 C50.01043124 349.31630288 49.92641244 356.43177447 50 363.5625 C54.17258919 361.92562397 56.96425073 358.86919032 60.05078125 355.7421875 C60.91632881 354.87595261 60.91632881 354.87595261 61.79936218 353.99221802 C63.01957662 352.76898633 64.23736351 351.54332895 65.45288086 350.31542969 C67.2904276 348.45978973 69.13568538 346.61211463 70.98242188 344.765625 C76.37816373 339.35291353 81.73741265 333.95553525 86.65087891 328.09326172 C88 326.5625 88 326.5625 89.58740234 325.18408203 C91.35242023 323.671439 91.35242023 323.671439 93 320.5625 C92.94286572 316.42343908 91.97009893 312.57224222 91 308.5625 C90.45544915 305.9797731 89.91375707 303.3964417 89.375 300.8125 C88.91942063 298.7285627 88.46209375 296.64500248 88 294.5625 C87.67 294.5625 87.34 294.5625 87 294.5625 Z M99 337.5625 C96.889325 339.76996631 94.81519073 342.00047424 92.75 344.25 C86.36890184 351.11935123 79.85860852 357.84933239 73.25 364.5 C72.40018555 365.36262451 71.55037109 366.22524902 70.67480469 367.11401367 C63.95912018 373.84069689 56.84632044 379.95426265 49.22094727 385.6315918 C46.72238001 387.42366264 46.72238001 387.42366264 46.29296875 390.578125 C46.25816406 391.64546875 46.22335938 392.7128125 46.1875 393.8125 C46.13980469 394.89015625 46.09210938 395.9678125 46.04296875 397.078125 C46.02878906 397.89796875 46.01460937 398.7178125 46 399.5625 C52.07291309 395.65981098 57.77143227 391.49914909 63.3125 386.875 C64.04670166 386.2663208 64.78090332 385.6576416 65.53735352 385.03051758 C70.93494431 380.52515874 76.16458496 375.87407477 81.30078125 371.07421875 C83.86769355 368.68561584 86.48767637 366.37271372 89.125 364.0625 C92.77436497 360.76323671 96.29147645 357.37012495 99.6875 353.8125 C100.53699219 352.93078125 101.38648438 352.0490625 102.26171875 351.140625 C104.27075545 348.71739528 104.27075545 348.71739528 103.8671875 345.94140625 C102.8008571 343.0162026 101.46756054 340.30620014 100 337.5625 C99.67 337.5625 99.34 337.5625 99 337.5625 Z M-28 348.5625 C-27 350.5625 -27 350.5625 -27 350.5625 Z M-27 350.5625 C-18.57152731 378.80927333 3.34205646 410.6518599 24 431.5625 C24.33 431.5625 24.66 431.5625 25 431.5625 C25.85339573 428.40616078 26.54920995 425.80569073 25.18310547 422.71337891 C23.85118387 420.69067311 22.42740948 418.78444502 20.9375 416.875 C19.81793031 415.36798932 18.69948588 413.86014218 17.58203125 412.3515625 C16.99244629 411.56813477 16.40286133 410.78470703 15.79541016 409.97753906 C12.81319946 405.96611287 9.97602205 401.85515028 7.125 397.75 C5.94325908 396.0595107 4.76096281 394.36940949 3.578125 392.6796875 C1.78832591 390.120177 -0.00134475 387.56057672 -1.79101562 385.00097656 C-5.28706106 380.00144054 -8.78581961 375.00382326 -12.28759766 370.00830078 C-14.03202053 367.51676552 -15.77193448 365.02211958 -17.51171875 362.52734375 C-18.6118169 360.95561558 -19.71207031 359.38399607 -20.8125 357.8125 C-21.32248535 357.07878174 -21.8324707 356.34506348 -22.35791016 355.58911133 C-23.5466981 353.89557168 -24.7695832 352.22604075 -26 350.5625 C-26.33 350.5625 -26.66 350.5625 -27 350.5625 Z M112 362.5625 C111.05253906 363.63564453 111.05253906 363.63564453 110.0859375 364.73046875 C99.64303911 376.4172306 88.23348254 386.77571397 76 396.5625 C74.79664861 397.55544221 73.59492985 398.55036509 72.39453125 399.546875 C71.75153076 400.07667969 71.10853027 400.60648437 70.44604492 401.15234375 C69.09738626 402.26707316 67.75514901 403.3896136 66.41918945 404.51953125 C62.81219467 407.5110924 59.28223271 410.0466892 55.1484375 412.265625 C46.11260276 417.34166366 46.11260276 417.34166366 40.72705078 425.91894531 C38.34641643 435.23364008 37 444.94232355 37 454.5625 C63.94089484 445.97162333 86.67558582 431.02672736 107 411.5625 C107.49886719 411.09086426 107.99773437 410.61922852 108.51171875 410.13330078 C116.5109414 402.54277878 123.37890881 394.37324339 130 385.5625 C128.23534636 381.42433562 125.46062201 378.11994395 122.6875 374.625 C122.21376953 374.01720703 121.74003906 373.40941406 121.25195312 372.78320312 C118.36805679 369.12605962 115.36012576 365.78797591 112 362.5625 Z M206.6953125 384.75 C205.81673584 385.03319092 204.93815918 385.31638184 204.03295898 385.6081543 C203.07333252 385.92308838 202.11370605 386.23802246 201.125 386.5625 C180.13184526 393.18882628 158.70662174 397.96335881 137 401.5625 C136.67 402.5525 136.34 403.5425 136 404.5625 C163.3128335 404.11474863 189.41350233 396.00374149 214 384.5625 C210.62534281 383.43761427 209.94583011 383.66855272 206.6953125 384.75 Z " fill="#7FA947" transform="translate(142,-0.5625)"/>
</svg>
